<svg version="1.1" xmlns="http://www.w3.org/2000/svg" viewBox="0 0 438 521" width="438" height="521" filter="invert(93%) hue-rotate(180deg)" class="excalidraw-svg"><!-- svg-source:excalidraw --><metadata></metadata><defs><style class="style-fonts">
      </style></defs><g transform="translate(42 99) rotate(0 22.000030517578125 14)" stroke="none"><path fill="#1e1e1e" d="M 3.38,3.38 Q 3.38,3.38 1.05,5.64 -1.27,7.90 -2.63,12.98 -3.99,18.05 -1.37,18.30 1.24,18.55 4.10,18.19 6.97,17.83 11.28,17.42 15.59,17.00 19.47,18.05 23.36,19.10 25.40,20.03 27.45,20.96 29.51,22.23 31.57,23.51 33.26,20.78 34.95,18.05 36.43,16.43 37.91,14.80 39.66,12.22 41.41,9.63 42.92,6.81 44.43,4.00 45.54,1.54 46.65,-0.92 46.94,-1.63 47.24,-2.34 47.70,-2.96 48.16,-3.58 48.75,-4.08 49.34,-4.57 50.04,-4.91 50.73,-5.24 51.49,-5.40 52.24,-5.56 53.01,-5.54 53.78,-5.51 54.53,-5.31 55.27,-5.10 55.94,-4.72 56.61,-4.34 57.17,-3.81 57.73,-3.28 58.15,-2.63 58.57,-1.98 58.82,-1.25 59.07,-0.52 59.14,0.24 59.21,1.01 59.09,1.77 58.97,2.53 58.78,0.30 58.59,-1.93 58.88,-0.93 59.17,0.05 59.12,1.09 59.07,2.12 58.70,3.09 58.32,4.05 57.66,4.85 57.00,5.64 56.12,6.19 55.23,6.73 54.22,6.96 53.21,7.19 52.18,7.09 51.15,6.99 50.21,6.56 49.26,6.13 48.51,5.43 47.75,4.72 47.25,3.81 46.76,2.90 46.58,1.88 46.41,0.86 46.57,-0.15 46.72,-1.18 47.20,-2.10 47.68,-3.02 48.42,-3.73 49.17,-4.45 50.11,-4.90 51.04,-5.34 52.07,-5.46 53.10,-5.58 54.11,-5.37 55.13,-5.16 56.02,-4.63 56.91,-4.10 57.59,-3.32 58.27,-2.54 58.66,-1.58 59.05,-0.62 59.11,0.40 59.18,1.44 58.91,2.44 58.64,3.44 58.07,4.30 57.50,5.16 56.68,5.80 55.86,6.43 54.88,6.77 53.90,7.11 52.87,7.12 51.83,7.13 50.84,6.81 49.86,6.48 49.03,5.87 48.20,5.25 47.42,2.16 46.65,-0.92 46.94,-1.63 47.24,-2.34 47.70,-2.96 48.16,-3.58 48.75,-4.08 49.34,-4.57 50.04,-4.91 50.73,-5.24 51.49,-5.40 52.24,-5.56 53.01,-5.54 53.78,-5.51 54.53,-5.31 55.27,-5.10 55.94,-4.72 56.61,-4.34 57.17,-3.81 57.73,-3.28 58.15,-2.63 58.57,-1.98 58.82,-1.25 59.07,-0.52 59.14,0.24 59.21,1.01 59.09,1.77 58.97,2.53 57.96,4.52 56.95,6.51 55.43,9.58 53.91,12.66 52.77,14.66 51.63,16.66 49.38,19.76 47.13,22.86 43.90,26.27 40.67,29.69 36.78,31.99 32.89,34.28 30.71,34.41 28.54,34.54 26.10,33.35 23.67,32.17 21.65,30.99 19.63,29.81 17.73,28.50 15.83,27.19 11.99,27.23 8.15,27.27 5.02,27.66 1.89,28.05 -2.32,27.84 -6.55,27.63 -8.47,25.80 -10.39,23.97 -11.40,20.85 -12.41,17.73 -11.82,11.75 -11.24,5.78 -9.58,3.53 -7.92,1.29 -5.65,-1.04 -3.38,-3.38 -2.92,-3.73 -2.47,-4.09 -1.94,-4.33 -1.42,-4.56 -0.85,-4.67 -0.28,-4.77 0.28,-4.74 0.86,-4.70 1.41,-4.53 1.96,-4.36 2.45,-4.06 2.95,-3.76 3.35,-3.35 3.76,-2.95 4.06,-2.45 4.36,-1.96 4.53,-1.41 4.70,-0.86 4.74,-0.28 4.77,0.28 4.67,0.85 4.56,1.42 4.33,1.94 4.09,2.47 3.73,2.92 3.38,3.38 3.38,3.38 L 3.38,3.38 Z"></path></g><g transform="translate(129 114) rotate(0 2.500030517578125 15)" stroke="none"><path fill="#1e1e1e" d="M 3.53,3.53 Q 3.53,3.53 1.91,5.19 0.28,6.84 -1.06,10.61 -2.41,14.38 -2.99,17.06 -3.58,19.74 -2.68,21.91 -1.78,24.08 0.96,24.65 3.71,25.22 5.67,23.66 7.62,22.09 5.60,20.89 3.58,19.70 1.38,19.21 -0.81,18.73 -3.84,16.47 -6.88,14.21 -7.37,13.29 -7.86,12.37 -8.03,11.35 -8.20,10.32 -8.03,9.29 -7.87,8.26 -7.38,7.34 -6.90,6.42 -6.15,5.70 -5.39,4.98 -4.45,4.54 -3.50,4.10 -2.47,3.99 -1.43,3.87 -0.42,4.09 0.59,4.31 1.49,4.85 2.38,5.38 3.06,6.17 3.73,6.96 4.12,7.93 4.51,8.90 4.57,9.94 4.63,10.98 4.35,11.98 4.08,12.98 3.50,13.85 2.91,14.71 2.09,15.34 1.26,15.98 0.27,16.31 -0.70,16.65 -1.74,16.65 -2.79,16.65 -3.77,16.32 -4.76,15.99 -5.59,15.37 -6.42,14.74 -7.01,13.88 -7.60,13.02 -7.88,12.02 -8.16,11.01 -8.11,9.97 -8.05,8.93 -7.67,7.96 -7.29,7.00 -6.62,6.20 -5.94,5.40 -5.05,4.86 -4.16,4.33 -3.15,4.10 -2.13,3.87 -1.09,3.98 -0.06,4.09 0.88,4.53 1.82,4.96 2.58,5.67 3.34,6.39 3.34,6.39 3.34,6.39 3.10,6.42 2.86,6.46 5.78,7.34 8.69,8.22 12.05,10.77 15.41,13.32 17.19,17.60 18.98,21.87 17.23,26.22 15.49,30.56 13.78,31.88 12.08,33.19 9.90,34.11 7.71,35.02 2.91,34.93 -1.89,34.83 -4.95,33.38 -8.01,31.92 -9.39,30.08 -10.76,28.25 -11.74,25.37 -12.73,22.50 -12.57,20.11 -12.40,17.72 -11.63,14.63 -10.87,11.54 -9.02,5.80 -7.18,0.05 -5.36,-1.74 -3.53,-3.53 -3.06,-3.91 -2.58,-4.28 -2.03,-4.52 -1.48,-4.77 -0.89,-4.88 -0.30,-4.99 0.30,-4.95 0.90,-4.92 1.47,-4.74 2.05,-4.56 2.56,-4.25 3.08,-3.93 3.51,-3.51 3.93,-3.08 4.25,-2.56 4.56,-2.05 4.74,-1.47 4.92,-0.90 4.95,-0.29 4.99,0.30 4.88,0.89 4.77,1.48 4.52,2.03 4.28,2.58 3.90,3.06 3.53,3.53 3.53,3.53 L 3.53,3.53 Z"></path></g><g transform="translate(172 59.000030517578125) rotate(0 13.5 16.499969482421875)" stroke="none"><path fill="#1e1e1e" d="M -2.36,-4.72 Q -2.36,-4.72 -0.06,-5.88 2.24,-7.04 5.83,-8.12 9.43,-9.20 12.76,-7.31 16.10,-5.42 16.56,-1.94 17.02,1.53 15.75,3.76 14.47,6.00 12.45,8.77 10.43,11.53 8.75,13.61 7.06,15.69 4.52,19.00 1.98,22.32 1.23,24.31 0.47,26.30 3.84,26.18 7.22,26.05 12.97,27.32 18.73,28.60 21.19,28.89 23.65,29.18 28.08,30.17 32.52,31.16 33.35,31.51 34.18,31.86 34.85,32.46 35.52,33.06 35.96,33.84 36.41,34.62 36.58,35.50 36.75,36.39 36.63,37.28 36.51,38.17 36.12,38.98 35.72,39.78 35.08,40.42 34.45,41.06 33.65,41.46 32.84,41.86 31.95,41.98 31.06,42.11 30.18,41.94 29.29,41.77 28.51,41.33 27.72,40.89 27.12,40.23 26.52,39.56 26.16,38.73 25.81,37.91 25.73,37.01 25.66,36.12 25.87,35.24 26.08,34.37 26.57,33.61 27.05,32.85 27.75,32.29 28.45,31.72 29.29,31.41 30.13,31.10 31.03,31.07 31.93,31.04 32.79,31.31 33.65,31.57 34.38,32.09 35.12,32.61 35.64,33.34 36.17,34.07 36.43,34.93 36.70,35.79 36.68,36.69 36.66,37.59 36.35,38.43 36.04,39.28 35.48,39.98 34.92,40.68 34.16,41.17 33.40,41.65 32.53,41.87 31.66,42.09 30.76,42.02 29.87,41.95 29.87,41.95 29.87,41.95 26.14,40.93 22.42,39.92 19.51,39.60 16.61,39.28 13.13,38.84 9.66,38.40 6.91,38.03 4.16,37.66 1.05,36.98 -2.04,36.30 -4.40,35.32 -6.76,34.34 -8.77,31.75 -10.79,29.16 -11.08,26.24 -11.37,23.32 -9.62,19.47 -7.87,15.62 -5.14,11.97 -2.41,8.32 0.16,4.84 2.75,1.37 4.25,-0.34 5.74,-2.06 6.35,0.19 6.95,2.44 4.66,3.58 2.36,4.72 1.76,4.93 1.16,5.14 0.52,5.21 -0.10,5.27 -0.73,5.18 -1.36,5.09 -1.95,4.86 -2.54,4.62 -3.06,4.25 -3.57,3.88 -3.99,3.39 -4.40,2.91 -4.68,2.34 -4.97,1.77 -5.11,1.15 -5.25,0.53 -5.23,-0.10 -5.22,-0.73 -5.06,-1.35 -4.89,-1.96 -4.59,-2.52 -4.28,-3.08 -3.85,-3.55 -3.42,-4.01 -2.89,-4.37 -2.36,-4.72 -2.36,-4.72 L -2.36,-4.72 Z"></path></g><g transform="translate(225 97) rotate(0 13 3)" stroke="none"><path fill="#1e1e1e" d="M 1.25,-5.03 Q 1.25,-5.03 3.56,-4.49 5.87,-3.95 9.43,-3.36 12.98,-2.76 16.87,-2.41 20.76,-2.06 24.21,-0.86 27.65,0.33 28.45,0.84 29.25,1.35 29.84,2.10 30.43,2.84 30.75,3.73 31.08,4.62 31.10,5.57 31.12,6.51 30.84,7.42 30.56,8.32 30.00,9.09 29.44,9.86 28.67,10.41 27.90,10.96 26.99,11.23 26.09,11.51 25.14,11.48 24.19,11.45 23.30,11.12 22.41,10.79 21.68,10.19 20.94,9.60 20.43,8.79 19.93,7.99 19.70,7.07 19.48,6.15 19.56,5.21 19.64,4.26 20.02,3.39 20.39,2.53 21.03,1.82 21.66,1.12 22.49,0.66 23.32,0.19 24.25,0.02 25.18,-0.15 26.12,-0.02 27.06,0.11 27.91,0.53 28.75,0.96 29.42,1.63 30.09,2.30 30.51,3.15 30.93,4.00 31.05,4.94 31.17,5.88 30.99,6.81 30.81,7.74 30.34,8.57 29.87,9.39 29.16,10.02 28.45,10.65 27.58,11.02 26.71,11.39 25.76,11.47 24.82,11.54 23.90,11.31 22.98,11.07 22.98,11.07 22.98,11.07 20.98,10.08 18.98,9.09 15.47,8.59 11.95,8.09 7.64,7.17 3.32,6.25 1.03,5.64 -1.25,5.03 -1.84,4.81 -2.42,4.58 -2.94,4.22 -3.45,3.87 -3.86,3.40 -4.28,2.93 -4.56,2.37 -4.85,1.82 -5.00,1.21 -5.15,0.60 -5.15,-0.01 -5.14,-0.64 -4.99,-1.24 -4.84,-1.85 -4.55,-2.40 -4.26,-2.96 -3.84,-3.42 -3.42,-3.89 -2.91,-4.24 -2.39,-4.60 -1.81,-4.82 -1.22,-5.04 -0.60,-5.11 0.01,-5.18 0.63,-5.11 1.25,-5.03 1.25,-5.03 L 1.25,-5.03 Z"></path></g><g transform="translate(226 121) rotate(0 4 5)" stroke="none"><path fill="#1e1e1e" d="M 2.77,3.56 Q 2.77,3.56 0.17,5.56 -2.42,7.55 -4.20,9.90 -5.98,12.24 -6.48,12.56 -6.98,12.88 -7.55,13.08 -8.11,13.27 -8.71,13.32 -9.30,13.37 -9.89,13.27 -10.48,13.18 -11.03,12.95 -11.58,12.72 -12.05,12.36 -12.53,12.01 -12.91,11.55 -13.29,11.09 -13.55,10.55 -13.81,10.01 -13.93,9.43 -14.05,8.85 -14.03,8.25 -14.01,7.66 -13.84,7.08 -13.68,6.51 -13.38,5.99 -13.09,5.47 -12.68,5.04 -12.27,4.61 -5.70,4.59 0.85,4.58 4.19,4.40 7.52,4.22 11.55,3.55 15.59,2.88 16.30,2.90 17.01,2.93 17.67,3.18 18.34,3.43 18.89,3.88 19.44,4.32 19.82,4.93 20.19,5.53 20.36,6.22 20.53,6.91 20.47,7.61 20.40,8.32 20.12,8.97 19.83,9.62 19.35,10.15 18.88,10.67 18.26,11.02 17.64,11.37 16.94,11.49 16.24,11.62 15.53,11.52 14.83,11.42 14.20,11.10 13.56,10.78 13.06,10.28 12.57,9.77 12.25,9.13 11.94,8.49 11.85,7.79 11.76,7.08 11.90,6.39 12.04,5.69 12.39,5.08 12.75,4.46 13.28,3.99 13.81,3.52 14.46,3.24 15.12,2.97 15.83,2.91 16.54,2.86 17.22,3.04 17.91,3.21 18.51,3.60 19.10,3.99 19.55,4.54 19.99,5.10 20.23,5.77 20.47,6.44 20.48,7.15 20.50,7.86 20.28,8.53 20.07,9.21 19.65,9.79 19.23,10.36 18.65,10.77 18.07,11.18 17.39,11.38 16.71,11.59 16.71,11.59 16.71,11.59 12.37,12.00 8.03,12.42 4.30,12.67 0.58,12.93 -2.70,12.59 -5.98,12.24 -6.48,12.56 -6.98,12.88 -7.55,13.08 -8.11,13.27 -8.71,13.32 -9.30,13.37 -9.89,13.27 -10.48,13.18 -11.03,12.95 -11.58,12.72 -12.05,12.36 -12.53,12.01 -12.91,11.55 -13.29,11.09 -13.55,10.55 -13.81,10.01 -13.93,9.43 -14.05,8.85 -14.03,8.25 -14.01,7.66 -13.84,7.08 -13.68,6.51 -13.38,5.99 -13.09,5.47 -12.68,5.04 -12.27,4.61 -10.09,2.55 -7.92,0.49 -5.34,-1.53 -2.77,-3.56 -2.30,-3.84 -1.84,-4.12 -1.31,-4.28 -0.79,-4.44 -0.25,-4.48 0.28,-4.51 0.82,-4.41 1.36,-4.31 1.85,-4.08 2.35,-3.86 2.78,-3.52 3.20,-3.18 3.54,-2.75 3.87,-2.32 4.09,-1.82 4.32,-1.32 4.41,-0.79 4.51,-0.25 4.47,0.28 4.44,0.83 4.27,1.35 4.11,1.87 3.83,2.33 3.54,2.80 3.16,3.18 2.77,3.56 2.77,3.56 L 2.77,3.56 Z"></path></g><g transform="translate(346 43) rotate(0 20 -9.5)" stroke="none"><path fill="#1e1e1e" d="M 3.56,1.97 Q 3.56,1.97 2.21,4.50 0.86,7.02 0.89,7.98 0.92,8.95 0.61,9.38 0.29,9.81 -0.10,10.16 -0.51,10.50 -0.99,10.74 -1.47,10.97 -1.99,11.09 -2.51,11.20 -3.05,11.19 -3.58,11.18 -4.10,11.04 -4.61,10.90 -5.08,10.64 -5.55,10.38 -5.94,10.02 -6.33,9.65 -6.62,9.21 -6.91,8.76 -7.09,8.26 -7.27,7.75 -7.32,7.22 -7.37,6.69 -7.29,6.16 -7.22,5.63 -7.02,5.14 -6.82,4.64 -1.20,0.28 4.40,-4.07 9.17,-7.66 13.94,-11.25 17.07,-13.86 20.20,-16.46 23.89,-19.56 27.58,-22.66 29.87,-24.94 32.15,-27.22 34.20,-29.38 36.25,-31.54 39.13,-33.88 42.01,-36.22 42.24,-36.18 42.46,-36.14 42.97,-36.30 43.48,-36.47 44.01,-36.50 44.55,-36.54 45.07,-36.44 45.60,-36.35 46.09,-36.14 46.58,-35.92 47.00,-35.59 47.43,-35.27 47.76,-34.85 48.09,-34.43 48.32,-33.94 48.54,-33.46 48.64,-32.93 48.74,-32.40 48.71,-31.87 48.68,-31.34 48.53,-30.82 48.37,-30.31 48.10,-29.85 47.82,-29.39 47.45,-29.01 47.07,-28.63 46.62,-28.35 46.16,-28.07 45.60,-23.67 45.05,-19.27 44.42,-17.08 43.79,-14.90 42.91,-12.37 42.02,-9.84 40.62,-6.34 39.21,-2.83 38.46,-0.22 37.71,2.39 36.31,6.11 34.92,9.82 34.53,11.45 34.15,13.08 33.81,13.74 33.46,14.40 32.93,14.92 32.39,15.44 31.72,15.77 31.04,16.09 30.30,16.18 29.56,16.27 28.83,16.11 28.09,15.96 27.45,15.58 26.81,15.21 26.32,14.64 25.82,14.08 25.54,13.39 25.26,12.70 25.21,11.95 25.16,11.21 25.35,10.48 25.54,9.76 25.95,9.14 26.37,8.51 26.95,8.06 27.54,7.60 28.25,7.35 28.96,7.10 29.70,7.10 30.45,7.09 31.16,7.32 31.87,7.55 32.47,7.99 33.07,8.44 33.50,9.05 33.92,9.67 34.13,10.38 34.34,11.10 34.31,11.85 34.28,12.59 34.01,13.29 33.74,13.99 33.26,14.56 32.78,15.14 32.15,15.53 31.51,15.92 30.78,16.09 30.06,16.26 29.31,16.19 28.57,16.12 27.89,15.81 27.21,15.50 26.66,15.00 26.11,14.49 25.75,13.83 25.39,13.18 25.27,12.44 25.14,11.70 25.25,10.97 25.36,10.23 25.36,10.23 25.36,10.23 26.00,8.69 26.65,7.14 27.67,3.40 28.69,-0.33 29.57,-3.09 30.44,-5.84 31.52,-9.57 32.59,-13.30 33.48,-15.60 34.37,-17.90 35.21,-20.33 36.06,-22.75 37.63,-26.94 39.21,-31.13 40.83,-33.64 42.46,-36.14 42.97,-36.30 43.48,-36.47 44.01,-36.50 44.55,-36.54 45.07,-36.44 45.60,-36.35 46.09,-36.14 46.58,-35.92 47.00,-35.59 47.43,-35.27 47.76,-34.85 48.09,-34.43 48.32,-33.94 48.54,-33.46 48.64,-32.93 48.74,-32.41 48.71,-31.87 48.68,-31.34 48.53,-30.82 48.37,-30.31 48.10,-29.85 47.82,-29.39 47.45,-29.01 47.07,-28.63 46.62,-28.35 46.16,-28.07 43.74,-27.17 41.31,-26.28 39.02,-24.26 36.73,-22.24 34.20,-20.10 31.68,-17.96 28.11,-14.72 24.54,-11.48 21.40,-8.64 18.27,-5.80 13.73,-1.99 9.19,1.80 5.06,5.37 0.92,8.95 0.61,9.38 0.29,9.81 -0.10,10.16 -0.51,10.50 -0.99,10.74 -1.47,10.97 -1.99,11.09 -2.51,11.20 -3.05,11.19 -3.58,11.18 -4.10,11.04 -4.61,10.90 -5.08,10.64 -5.54,10.38 -5.94,10.02 -6.33,9.65 -6.62,9.21 -6.91,8.76 -7.09,8.26 -7.27,7.75 -7.32,7.22 -7.37,6.69 -7.29,6.16 -7.22,5.63 -7.02,5.14 -6.82,4.64 -6.71,3.98 -6.61,3.32 -5.08,0.67 -3.56,-1.97 -3.27,-2.37 -2.98,-2.77 -2.60,-3.09 -2.23,-3.40 -1.79,-3.62 -1.35,-3.84 -0.87,-3.94 -0.39,-4.05 0.09,-4.04 0.58,-4.03 1.06,-3.90 1.53,-3.77 1.96,-3.53 2.39,-3.29 2.75,-2.96 3.11,-2.62 3.38,-2.21 3.65,-1.80 3.81,-1.34 3.97,-0.88 4.02,-0.39 4.07,0.09 4.00,0.58 3.93,1.06 3.74,1.52 3.56,1.97 3.56,1.97 L 3.56,1.97 Z"></path></g><g transform="translate(284 117) rotate(0 65 -12)" stroke="none"><path fill="#1e1e1e" d="M -1.18,3.54 Q -1.18,3.54 -2.96,3.13 -4.74,2.72 -5.18,2.51 -5.63,2.30 -6.01,1.99 -6.39,1.68 -6.69,1.28 -6.98,0.89 -7.18,0.44 -7.37,-0.01 -7.45,-0.49 -7.53,-0.98 -7.49,-1.47 -7.45,-1.96 -7.29,-2.43 -7.14,-2.90 -6.88,-3.31 -6.61,-3.73 -6.26,-4.07 -5.90,-4.41 -5.48,-4.66 -5.05,-4.90 -4.58,-5.04 -4.10,-5.18 -3.61,-5.20 -3.12,-5.22 -2.63,-5.12 -2.15,-5.02 1.05,-7.69 4.27,-10.36 9.15,-11.29 14.04,-12.22 20.46,-13.40 26.88,-14.58 32.18,-15.59 37.48,-16.60 42.63,-17.57 47.78,-18.54 56.13,-19.51 64.48,-20.48 71.16,-21.15 77.84,-21.83 86.73,-22.67 95.61,-23.52 102.25,-24.15 108.90,-24.78 116.94,-25.33 124.98,-25.89 128.37,-26.28 131.75,-26.67 132.24,-26.63 132.73,-26.58 133.18,-26.38 133.64,-26.18 134.00,-25.85 134.36,-25.52 134.60,-25.09 134.84,-24.66 134.93,-24.17 135.01,-23.69 134.94,-23.20 134.87,-22.71 134.65,-22.28 134.42,-21.84 134.07,-21.49 133.72,-21.15 133.28,-20.93 132.83,-20.72 132.34,-20.66 131.86,-20.60 131.37,-20.69 130.89,-20.79 130.47,-21.04 130.04,-21.29 129.71,-21.66 129.39,-22.03 129.20,-22.48 129.01,-22.93 128.97,-23.42 128.94,-23.92 129.06,-24.39 129.19,-24.87 129.46,-25.28 129.73,-25.69 130.11,-26.00 130.50,-26.30 130.96,-26.47 131.43,-26.63 131.92,-26.64 132.41,-26.65 132.88,-26.50 133.35,-26.35 133.75,-26.06 134.14,-25.77 134.43,-25.36 134.71,-24.96 134.85,-24.49 134.99,-24.02 134.97,-23.52 134.95,-23.03 134.78,-22.57 134.60,-22.11 134.29,-21.73 133.98,-21.35 133.56,-21.09 133.14,-20.83 132.66,-20.72 132.19,-20.60 132.19,-20.60 132.19,-20.60 128.78,-20.51 125.37,-20.42 117.41,-19.84 109.45,-19.25 102.81,-18.56 96.17,-17.87 87.32,-16.94 78.48,-16.02 71.85,-15.25 65.23,-14.47 57.15,-13.39 49.08,-12.31 44.00,-11.15 38.92,-9.99 33.67,-8.70 28.41,-7.41 22.18,-5.89 15.96,-4.36 11.38,-2.99 6.80,-1.62 3.89,-0.87 0.97,-0.12 -1.88,1.30 -4.74,2.72 -5.18,2.51 -5.63,2.30 -6.01,1.99 -6.39,1.68 -6.69,1.28 -6.98,0.89 -7.18,0.44 -7.37,-0.01 -7.45,-0.49 -7.53,-0.98 -7.49,-1.47 -7.45,-1.96 -7.29,-2.43 -7.14,-2.90 -6.88,-3.31 -6.61,-3.73 -6.26,-4.07 -5.90,-4.41 -5.48,-4.66 -5.05,-4.90 -4.58,-5.04 -4.10,-5.18 -3.61,-5.20 -3.12,-5.22 -2.64,-5.12 -2.15,-5.02 -0.48,-4.28 1.18,-3.54 1.58,-3.34 1.99,-3.15 2.34,-2.87 2.69,-2.58 2.96,-2.22 3.23,-1.86 3.40,-1.45 3.58,-1.04 3.65,-0.59 3.73,-0.15 3.69,0.29 3.65,0.74 3.51,1.17 3.37,1.59 3.13,1.97 2.89,2.36 2.56,2.67 2.24,2.98 1.85,3.20 1.46,3.43 1.03,3.55 0.60,3.68 0.15,3.70 -0.29,3.72 -0.74,3.63 -1.18,3.54 -1.18,3.54 L -1.18,3.54 Z"></path></g><g transform="translate(280 150) rotate(0 16.5 15.5)" stroke="none"><path fill="#1e1e1e" d="M 4.74,1.48 Q 4.74,1.48 3.01,5.99 1.28,10.50 0.42,13.34 -0.43,16.18 -0.37,19.32 -0.30,22.47 1.77,24.28 3.85,26.10 7.44,26.96 11.03,27.82 16.17,28.22 21.30,28.61 23.81,28.64 26.32,28.66 29.10,28.70 31.88,28.74 34.80,28.68 37.72,28.61 38.58,28.76 39.44,28.90 40.21,29.31 40.97,29.72 41.57,30.36 42.16,30.99 42.53,31.78 42.89,32.57 42.98,33.44 43.07,34.30 42.88,35.15 42.69,36.00 42.24,36.74 41.79,37.49 41.12,38.05 40.46,38.61 39.65,38.93 38.84,39.24 37.97,39.29 37.10,39.33 36.26,39.10 35.43,38.86 34.71,38.37 33.99,37.88 33.47,37.18 32.94,36.49 32.67,35.66 32.40,34.84 32.40,33.97 32.40,33.10 32.68,32.28 32.96,31.45 33.49,30.76 34.02,30.07 34.74,29.59 35.47,29.10 36.31,28.87 37.14,28.64 38.01,28.69 38.88,28.74 39.69,29.07 40.49,29.40 41.15,29.96 41.81,30.53 42.26,31.27 42.71,32.02 42.89,32.87 43.07,33.72 42.97,34.59 42.88,35.45 42.51,36.24 42.14,37.03 41.54,37.65 40.94,38.28 40.17,38.69 39.40,39.09 38.54,39.23 37.68,39.37 37.68,39.37 37.68,39.37 34.75,39.28 31.81,39.19 28.97,39.19 26.14,39.20 23.55,39.13 20.97,39.07 17.48,39.08 13.99,39.08 11.40,38.77 8.81,38.46 5.61,37.80 2.42,37.14 0.19,36.15 -2.02,35.16 -3.93,33.70 -5.84,32.23 -7.95,27.64 -10.06,23.05 -9.48,18.26 -8.91,13.48 -7.97,10.69 -7.03,7.89 -5.89,3.20 -4.74,-1.48 -4.49,-2.02 -4.24,-2.57 -3.87,-3.04 -3.50,-3.51 -3.03,-3.88 -2.56,-4.25 -2.02,-4.49 -1.47,-4.74 -0.88,-4.85 -0.29,-4.95 0.30,-4.92 0.89,-4.88 1.47,-4.70 2.04,-4.52 2.55,-4.21 3.06,-3.90 3.49,-3.48 3.91,-3.06 4.22,-2.54 4.53,-2.03 4.70,-1.46 4.88,-0.89 4.92,-0.29 4.95,0.30 4.85,0.89 4.74,1.48 4.74,1.48 L 4.74,1.48 Z"></path></g><g transform="translate(396 153) rotate(0 -9.5 14)" stroke="none"><path fill="#1e1e1e" d="M -1.68,4.20 Q -1.68,4.20 -4.53,3.07 -7.38,1.93 -11.54,2.84 -15.71,3.76 -18.47,4.77 -21.23,5.79 -24.52,7.37 -27.82,8.95 -30.31,10.56 -32.80,12.16 -35.06,14.31 -37.32,16.45 -38.82,18.03 -40.32,19.61 -39.16,21.73 -37.99,23.85 -33.50,25.11 -29.01,26.37 -25.83,26.71 -22.64,27.05 -17.52,26.85 -12.41,26.65 -8.11,26.37 -3.81,26.08 1.57,24.90 6.95,23.72 11.02,22.69 15.08,21.65 19.47,19.96 23.87,18.28 24.44,18.19 25.01,18.10 25.57,18.19 26.14,18.29 26.65,18.56 27.16,18.83 27.56,19.25 27.95,19.67 28.20,20.19 28.44,20.72 28.50,21.29 28.56,21.86 28.43,22.43 28.31,22.99 28.01,23.48 27.71,23.98 27.27,24.35 26.83,24.72 26.29,24.94 25.76,25.15 25.18,25.18 24.60,25.21 24.05,25.05 23.49,24.90 23.02,24.57 22.54,24.25 22.19,23.79 21.84,23.33 21.66,22.78 21.48,22.23 21.48,21.66 21.48,21.08 21.66,20.53 21.85,19.99 22.20,19.53 22.55,19.07 23.03,18.74 23.51,18.42 24.06,18.27 24.62,18.12 25.20,18.15 25.77,18.18 26.31,18.40 26.84,18.61 27.28,18.99 27.72,19.36 28.02,19.86 28.31,20.35 28.44,20.91 28.56,21.48 28.50,22.05 28.43,22.63 28.19,23.15 27.95,23.67 27.55,24.09 27.15,24.51 26.64,24.78 26.13,25.05 26.13,25.05 26.13,25.05 21.46,26.39 16.79,27.74 12.67,29.00 8.54,30.27 2.76,31.79 -3.01,33.31 -7.39,33.98 -11.76,34.64 -17.60,35.33 -23.43,36.02 -27.06,35.74 -30.69,35.46 -35.44,34.72 -40.19,33.98 -42.64,32.43 -45.08,30.88 -47.28,27.82 -49.48,24.76 -49.43,22.11 -49.39,19.45 -48.07,16.54 -46.75,13.63 -44.93,11.99 -43.10,10.36 -40.24,7.64 -37.39,4.92 -34.59,3.21 -31.80,1.50 -28.08,-0.66 -24.36,-2.83 -21.43,-3.87 -18.50,-4.91 -14.37,-6.15 -10.23,-7.39 -7.17,-6.96 -4.11,-6.53 -1.21,-5.37 1.68,-4.20 2.16,-3.94 2.64,-3.68 3.04,-3.31 3.44,-2.94 3.74,-2.48 4.05,-2.03 4.23,-1.51 4.42,-1.00 4.47,-0.46 4.53,0.08 4.45,0.62 4.38,1.16 4.17,1.67 3.97,2.17 3.65,2.62 3.33,3.06 2.92,3.42 2.50,3.77 2.01,4.02 1.53,4.26 0.99,4.38 0.46,4.50 -0.08,4.49 -0.62,4.48 -1.15,4.34 -1.68,4.20 -1.68,4.20 L -1.68,4.20 Z"></path></g><g transform="translate(84 347.00006103515625) rotate(0 -37 35.99993896484375)" stroke="none"><path fill="#1e1e1e" d="M -1.38,3.12 Q -1.38,3.12 -3.96,2.12 -6.53,1.13 -9.20,1.40 -11.87,1.67 -14.50,2.06 -17.12,2.45 -25.45,7.63 -33.78,12.81 -38.96,16.70 -44.15,20.58 -47.82,23.63 -51.49,26.68 -55.53,31.28 -59.58,35.87 -62.15,39.48 -64.72,43.08 -66.60,47.30 -68.48,51.52 -69.11,54.64 -69.74,57.77 -69.38,60.70 -69.03,63.63 -65.88,66.29 -62.74,68.95 -60.49,69.77 -58.24,70.60 -54.29,71.12 -50.33,71.64 -46.77,71.84 -43.21,72.04 -38.26,71.42 -33.31,70.80 -29.34,70.23 -25.38,69.66 -20.71,68.38 -16.04,67.10 -12.62,65.88 -9.20,64.67 -7.77,63.98 -6.35,63.28 -5.77,63.19 -5.19,63.09 -4.61,63.19 -4.03,63.29 -3.51,63.56 -2.99,63.84 -2.58,64.27 -2.18,64.69 -1.93,65.23 -1.69,65.76 -1.62,66.35 -1.56,66.93 -1.69,67.51 -1.81,68.08 -2.12,68.59 -2.42,69.09 -2.87,69.47 -3.32,69.85 -3.87,70.07 -4.42,70.29 -5.00,70.32 -5.59,70.35 -6.16,70.19 -6.73,70.03 -7.21,69.70 -7.70,69.37 -8.05,68.90 -8.41,68.43 -8.60,67.88 -8.79,67.32 -8.78,66.73 -8.78,66.14 -8.60,65.58 -8.41,65.02 -8.05,64.56 -7.69,64.09 -7.21,63.76 -6.72,63.43 -6.15,63.27 -5.58,63.12 -4.99,63.15 -4.41,63.18 -3.86,63.40 -3.31,63.62 -2.87,64.00 -2.42,64.38 -2.11,64.89 -1.81,65.39 -1.69,65.97 -1.56,66.54 -1.62,67.13 -1.69,67.71 -1.94,68.25 -2.18,68.78 -2.59,69.21 -3.00,69.63 -3.52,69.91 -4.04,70.18 -4.04,70.18 -4.04,70.18 -5.59,70.49 -7.14,70.79 -10.72,71.93 -14.30,73.07 -19.33,74.61 -24.36,76.16 -28.35,76.82 -32.33,77.49 -37.96,78.41 -43.59,79.34 -47.35,79.13 -51.11,78.92 -56.25,78.47 -61.40,78.01 -64.32,76.55 -67.25,75.09 -70.44,72.41 -73.64,69.74 -74.62,66.98 -75.60,64.22 -75.69,60.28 -75.77,56.35 -74.72,52.79 -73.67,49.24 -71.59,44.51 -69.51,39.77 -66.83,35.85 -64.15,31.92 -59.90,26.91 -55.65,21.90 -51.97,18.58 -48.30,15.27 -42.97,10.95 -37.64,6.62 -27.99,0.60 -18.35,-5.41 -15.21,-5.67 -12.07,-5.93 -7.94,-5.83 -3.81,-5.73 -1.21,-4.42 1.38,-3.12 1.74,-2.91 2.09,-2.70 2.38,-2.41 2.68,-2.12 2.89,-1.76 3.11,-1.41 3.23,-1.02 3.36,-0.63 3.38,-0.22 3.41,0.19 3.34,0.59 3.26,1.00 3.10,1.37 2.93,1.75 2.68,2.08 2.42,2.40 2.10,2.66 1.78,2.91 1.40,3.08 1.03,3.26 0.62,3.33 0.22,3.41 -0.18,3.38 -0.60,3.36 -0.99,3.24 -1.38,3.12 -1.38,3.12 L -1.38,3.12 Z"></path></g><g transform="translate(119.00006103515625 381) rotate(0 12.999969482421875 2)" stroke="none"><path fill="#1e1e1e" d="M 3.27,-4.08 Q 3.27,-4.08 4.52,-3.08 5.77,-2.08 8.23,-2.40 10.70,-2.72 14.35,-3.15 18.01,-3.57 21.44,-4.10 24.87,-4.63 25.83,-4.66 26.79,-4.69 27.71,-4.42 28.63,-4.14 29.41,-3.58 30.20,-3.03 30.76,-2.25 31.33,-1.47 31.62,-0.55 31.90,0.35 31.88,1.31 31.86,2.27 31.53,3.18 31.21,4.08 30.61,4.84 30.01,5.59 29.21,6.11 28.40,6.63 27.47,6.87 26.53,7.11 25.58,7.03 24.62,6.96 23.73,6.59 22.85,6.21 22.13,5.57 21.41,4.94 20.93,4.10 20.45,3.27 20.27,2.32 20.08,1.38 20.21,0.43 20.33,-0.52 20.75,-1.38 21.18,-2.24 21.85,-2.93 22.53,-3.61 23.39,-4.04 24.25,-4.47 25.20,-4.61 26.15,-4.74 27.09,-4.57 28.04,-4.39 28.88,-3.92 29.72,-3.45 30.36,-2.74 31.01,-2.03 31.39,-1.15 31.78,-0.27 31.86,0.68 31.94,1.64 31.72,2.57 31.49,3.51 30.98,4.32 30.46,5.13 29.72,5.74 28.97,6.34 28.07,6.68 27.17,7.02 27.17,7.02 27.17,7.02 24.47,7.46 21.77,7.91 18.60,7.94 15.43,7.98 10.93,8.07 6.43,8.15 3.20,7.42 -0.02,6.68 -1.64,5.38 -3.27,4.08 -3.71,3.63 -4.15,3.18 -4.47,2.64 -4.79,2.09 -4.97,1.49 -5.15,0.89 -5.19,0.26 -5.22,-0.36 -5.10,-0.98 -4.98,-1.60 -4.71,-2.18 -4.45,-2.75 -4.05,-3.24 -3.66,-3.73 -3.16,-4.12 -2.66,-4.50 -2.08,-4.76 -1.50,-5.01 -0.88,-5.12 -0.26,-5.22 0.36,-5.18 0.99,-5.13 1.59,-4.94 2.19,-4.75 2.73,-4.41 3.27,-4.08 3.27,-4.08 L 3.27,-4.08 Z"></path></g><g transform="translate(115 397) rotate(0 9.000030517578125 2.000030517578125)" stroke="none"><path fill="#1e1e1e" d="M 2.44,3.66 Q 2.44,3.66 0.78,4.92 -0.86,6.17 -1.36,6.42 -1.87,6.67 -2.41,6.80 -2.96,6.92 -3.52,6.91 -4.08,6.90 -4.62,6.76 -5.17,6.62 -5.66,6.35 -6.15,6.08 -6.56,5.70 -6.98,5.32 -7.29,4.86 -7.60,4.39 -7.79,3.86 -7.98,3.34 -8.04,2.78 -8.10,2.22 -8.02,1.66 -7.94,1.11 -7.74,0.59 -7.53,0.07 -7.20,-0.38 -6.88,-0.84 -6.45,-1.20 -6.03,-1.57 0.63,-1.40 7.30,-1.23 10.81,-1.39 14.33,-1.55 18.66,-1.83 22.99,-2.11 23.66,-2.02 24.32,-1.93 24.93,-1.63 25.53,-1.33 26.01,-0.85 26.49,-0.38 26.79,0.22 27.09,0.82 27.18,1.49 27.27,2.16 27.15,2.82 27.02,3.48 26.69,4.07 26.36,4.66 25.86,5.11 25.36,5.56 24.74,5.83 24.12,6.09 23.45,6.15 22.77,6.20 22.12,6.04 21.46,5.88 20.90,5.52 20.33,5.16 19.90,4.63 19.48,4.11 19.25,3.47 19.01,2.84 18.99,2.17 18.97,1.49 19.17,0.85 19.37,0.20 19.76,-0.34 20.15,-0.89 20.70,-1.28 21.25,-1.67 21.89,-1.87 22.54,-2.07 23.21,-2.05 23.89,-2.04 24.52,-1.80 25.15,-1.57 25.68,-1.15 26.21,-0.73 26.57,-0.16 26.93,0.40 27.10,1.05 27.26,1.71 27.21,2.38 27.15,3.05 26.89,3.67 26.62,4.29 26.17,4.79 25.72,5.30 25.14,5.63 24.55,5.96 23.89,6.09 23.22,6.22 23.22,6.22 23.23,6.22 18.99,6.18 14.75,6.15 10.88,6.39 7.01,6.63 3.07,6.40 -0.86,6.17 -1.36,6.42 -1.87,6.67 -2.41,6.80 -2.96,6.92 -3.52,6.91 -4.08,6.90 -4.62,6.76 -5.16,6.62 -5.66,6.35 -6.15,6.08 -6.56,5.70 -6.98,5.32 -7.29,4.86 -7.60,4.39 -7.79,3.86 -7.98,3.34 -8.04,2.78 -8.10,2.22 -8.02,1.66 -7.94,1.11 -7.74,0.59 -7.53,0.07 -7.20,-0.38 -6.88,-0.84 -6.45,-1.20 -6.03,-1.57 -4.23,-2.62 -2.44,-3.66 -1.97,-3.90 -1.49,-4.14 -0.97,-4.26 -0.46,-4.38 0.07,-4.37 0.60,-4.36 1.11,-4.23 1.63,-4.09 2.09,-3.84 2.56,-3.58 2.95,-3.22 3.34,-2.87 3.64,-2.42 3.93,-1.98 4.11,-1.48 4.29,-0.98 4.35,-0.45 4.40,0.07 4.33,0.59 4.26,1.12 4.06,1.61 3.87,2.11 3.56,2.54 3.25,2.97 2.84,3.32 2.44,3.66 2.44,3.66 L 2.44,3.66 Z"></path></g><g transform="translate(292 301) rotate(0 4 -0.5)" stroke="none"><path fill="#1e1e1e" d="M 2.38,4.37 Q 2.38,4.37 -0.83,5.98 -4.06,7.58 -6.98,9.49 -9.90,11.40 -11.62,12.90 -13.34,14.40 -15.26,15.98 -17.19,17.55 -17.92,18.99 -18.64,20.42 -19.11,20.83 -19.57,21.24 -20.13,21.53 -20.68,21.81 -21.28,21.96 -21.88,22.10 -22.50,22.10 -23.12,22.09 -23.72,21.94 -24.33,21.79 -24.87,21.50 -25.42,21.21 -25.88,20.79 -26.35,20.38 -26.70,19.87 -27.05,19.36 -27.26,18.77 -27.48,18.19 -27.55,17.58 -27.62,16.96 -27.54,16.34 -27.46,15.73 -27.24,15.15 -27.02,14.57 -26.66,14.06 -26.31,13.55 -24.10,12.50 -21.90,11.44 -20.11,10.20 -18.33,8.96 -15.65,7.22 -12.96,5.48 -10.84,3.72 -8.71,1.96 -4.89,-0.67 -1.06,-3.31 1.96,-5.57 4.98,-7.83 8.28,-10.59 11.58,-13.34 14.15,-15.58 16.72,-17.81 19.23,-19.92 21.74,-22.04 24.21,-24.70 26.67,-27.36 29.18,-27.51 31.68,-27.66 33.23,-25.80 34.78,-23.94 34.59,-21.49 34.39,-19.03 33.27,-15.38 32.15,-11.73 30.73,-7.17 29.31,-2.61 28.71,-0.51 28.10,1.58 27.56,4.16 27.02,6.74 26.77,11.04 26.53,15.34 26.59,19.21 26.64,23.07 26.49,23.97 26.33,24.87 25.89,25.67 25.45,26.47 24.79,27.09 24.12,27.71 23.28,28.08 22.45,28.45 21.54,28.54 20.64,28.63 19.75,28.42 18.86,28.22 18.08,27.74 17.31,27.26 16.72,26.56 16.14,25.85 15.81,25.00 15.49,24.15 15.45,23.24 15.41,22.33 15.66,21.45 15.92,20.58 16.44,19.83 16.96,19.08 17.69,18.53 18.42,17.99 19.29,17.71 20.16,17.43 21.07,17.44 21.98,17.45 22.84,17.75 23.71,18.05 24.43,18.61 25.15,19.17 25.65,19.94 26.15,20.70 26.38,21.58 26.62,22.46 26.56,23.37 26.50,24.28 26.15,25.12 25.80,25.97 25.20,26.65 24.61,27.34 23.82,27.80 23.03,28.27 22.14,28.45 21.25,28.64 20.34,28.53 19.43,28.42 18.61,28.02 17.79,27.63 17.13,27.00 16.48,26.36 16.06,25.55 15.64,24.74 15.51,23.84 15.37,22.94 15.37,22.94 15.37,22.94 15.57,18.93 15.76,14.92 15.87,12.11 15.98,9.30 16.31,7.01 16.63,4.72 17.89,-0.46 19.16,-5.65 20.66,-10.38 22.16,-15.11 24.38,-18.95 26.60,-22.78 28.36,-20.84 30.13,-18.90 28.47,-17.38 26.81,-15.86 24.29,-13.85 21.76,-11.84 19.26,-9.79 16.76,-7.73 13.52,-4.46 10.28,-1.19 7.41,1.25 4.53,3.71 1.24,6.75 -2.05,9.79 -4.50,11.92 -6.96,14.06 -9.64,16.08 -12.32,18.10 -15.48,19.26 -18.64,20.42 -19.11,20.83 -19.57,21.24 -20.12,21.53 -20.68,21.81 -21.28,21.96 -21.88,22.10 -22.50,22.10 -23.12,22.09 -23.72,21.94 -24.33,21.79 -24.87,21.50 -25.42,21.21 -25.88,20.79 -26.35,20.38 -26.70,19.87 -27.04,19.36 -27.26,18.77 -27.48,18.19 -27.55,17.58 -27.62,16.96 -27.54,16.35 -27.46,15.73 -27.24,15.15 -27.02,14.57 -26.66,14.06 -26.31,13.56 -24.67,11.78 -23.04,10.00 -21.07,8.58 -19.10,7.17 -17.06,5.67 -15.01,4.17 -11.80,1.74 -8.58,-0.68 -5.48,-2.53 -2.38,-4.37 -1.82,-4.60 -1.27,-4.82 -0.67,-4.90 -0.07,-4.98 0.51,-4.92 1.11,-4.86 1.68,-4.65 2.24,-4.45 2.74,-4.11 3.24,-3.78 3.65,-3.34 4.05,-2.89 4.34,-2.37 4.63,-1.84 4.78,-1.26 4.94,-0.68 4.95,-0.07 4.96,0.52 4.82,1.10 4.69,1.69 4.42,2.23 4.14,2.76 3.75,3.22 3.36,3.68 2.87,4.03 2.38,4.37 2.38,4.37 L 2.38,4.37 Z"></path></g><g transform="translate(199 384) rotate(0 103.5 -5.999969482421875)" stroke="none"><path fill="#1e1e1e" d="M 0.85,3.84 Q 0.85,3.84 -4.35,4.82 -9.57,5.80 -12.55,6.65 -15.54,7.51 -17.27,8.20 -19.00,8.88 -19.50,8.92 -20.00,8.97 -20.50,8.89 -21.00,8.81 -21.46,8.61 -21.93,8.42 -22.33,8.11 -22.73,7.81 -23.05,7.42 -23.37,7.03 -23.59,6.58 -23.81,6.12 -23.91,5.63 -24.01,5.14 -23.99,4.63 -23.98,4.13 -23.84,3.65 -23.70,3.16 -23.45,2.72 -23.20,2.29 -22.85,1.92 -22.50,1.56 -22.08,1.29 -21.65,1.02 -21.17,0.86 -20.70,0.69 -18.56,0.32 -16.41,-0.04 -14.27,-0.52 -12.13,-0.99 -6.75,-1.48 -1.37,-1.97 3.40,-2.65 8.18,-3.33 16.94,-4.44 25.70,-5.55 37.49,-6.83 49.27,-8.12 58.33,-8.93 67.38,-9.73 75.26,-10.33 83.14,-10.94 94.83,-11.76 106.53,-12.57 115.52,-13.19 124.51,-13.81 136.09,-14.64 147.67,-15.47 156.38,-15.82 165.08,-16.17 183.41,-17.17 201.73,-18.18 209.53,-18.60 217.32,-19.02 217.75,-18.98 218.18,-18.93 218.57,-18.75 218.97,-18.57 219.28,-18.27 219.60,-17.98 219.80,-17.59 220.00,-17.21 220.07,-16.79 220.14,-16.36 220.07,-15.93 220.00,-15.51 219.80,-15.12 219.60,-14.74 219.29,-14.44 218.97,-14.15 218.58,-13.97 218.19,-13.78 217.76,-13.74 217.33,-13.69 216.91,-13.78 216.48,-13.87 216.11,-14.10 215.74,-14.32 215.46,-14.65 215.18,-14.98 215.02,-15.38 214.86,-15.78 214.84,-16.21 214.81,-16.64 214.93,-17.06 215.05,-17.48 215.29,-17.83 215.53,-18.19 215.87,-18.45 216.22,-18.72 216.63,-18.85 217.04,-18.99 217.47,-18.99 217.90,-18.99 218.31,-18.86 218.72,-18.72 219.06,-18.46 219.41,-18.20 219.65,-17.84 219.89,-17.48 220.01,-17.06 220.13,-16.65 220.10,-16.22 220.08,-15.78 219.92,-15.38 219.76,-14.98 219.48,-14.65 219.20,-14.32 218.83,-14.10 218.46,-13.88 218.04,-13.78 217.62,-13.69 217.62,-13.69 217.62,-13.69 209.82,-13.25 202.03,-12.81 183.67,-11.78 165.31,-10.75 156.69,-10.38 148.07,-10.00 136.49,-9.13 124.91,-8.25 115.93,-7.57 106.94,-6.89 95.29,-5.99 83.63,-5.10 75.80,-4.38 67.97,-3.66 59.00,-2.71 50.03,-1.76 38.35,-0.27 26.67,1.21 18.10,2.59 9.52,3.96 4.64,5.05 -0.23,6.15 -5.41,7.14 -10.59,8.13 -14.79,8.50 -19.00,8.88 -19.50,8.92 -20.00,8.97 -20.50,8.89 -21.00,8.81 -21.46,8.61 -21.92,8.42 -22.33,8.11 -22.73,7.81 -23.05,7.42 -23.37,7.03 -23.59,6.58 -23.81,6.13 -23.91,5.63 -24.01,5.14 -23.99,4.63 -23.98,4.13 -23.84,3.65 -23.70,3.16 -23.45,2.72 -23.20,2.29 -22.85,1.92 -22.50,1.56 -22.08,1.29 -21.65,1.02 -21.17,0.86 -20.70,0.69 -19.05,0.44 -17.40,0.19 -14.26,-0.50 -11.12,-1.20 -5.99,-2.52 -0.85,-3.84 -0.38,-3.89 0.09,-3.94 0.56,-3.87 1.03,-3.80 1.47,-3.62 1.91,-3.44 2.29,-3.16 2.68,-2.88 2.98,-2.52 3.29,-2.16 3.50,-1.73 3.71,-1.31 3.81,-0.84 3.92,-0.38 3.91,0.09 3.90,0.56 3.77,1.02 3.65,1.48 3.42,1.89 3.19,2.31 2.86,2.66 2.54,3.00 2.14,3.27 1.75,3.53 1.30,3.68 0.85,3.84 0.85,3.84 L 0.85,3.84 Z"></path></g><g transform="translate(217 434.00006103515625) rotate(0 12.5 24)" stroke="none"><path fill="#1e1e1e" d="M 4.91,0.49 Q 4.91,0.49 4.04,6.21 3.16,11.93 2.96,14.91 2.75,17.89 2.69,20.80 2.62,23.70 2.71,28.30 2.80,32.89 2.98,36.52 3.16,40.15 5.89,40.76 8.61,41.36 11.01,40.70 13.40,40.04 16.38,39.47 19.35,38.89 21.67,38.05 23.99,37.20 25.02,37.00 26.05,36.80 27.09,36.93 28.13,37.07 29.07,37.53 30.01,37.99 30.75,38.72 31.50,39.46 31.97,40.40 32.44,41.33 32.59,42.37 32.74,43.41 32.54,44.44 32.35,45.47 31.84,46.38 31.33,47.30 30.56,48.00 29.78,48.71 28.82,49.13 27.86,49.55 26.81,49.64 25.77,49.73 24.75,49.48 23.73,49.23 22.85,48.67 21.96,48.12 21.30,47.30 20.64,46.49 20.27,45.51 19.91,44.53 19.87,43.48 19.84,42.43 20.14,41.43 20.44,40.42 21.05,39.57 21.65,38.71 22.50,38.10 23.35,37.48 24.35,37.17 25.35,36.86 26.40,36.88 27.45,36.90 28.43,37.26 29.42,37.61 30.24,38.27 31.06,38.92 31.63,39.80 32.20,40.68 32.45,41.69 32.71,42.71 32.63,43.75 32.55,44.80 32.15,45.76 31.74,46.73 31.04,47.51 30.35,48.30 29.44,48.82 28.53,49.34 28.53,49.34 28.53,49.34 24.71,50.44 20.90,51.55 18.11,52.00 15.31,52.45 12.99,52.94 10.66,53.42 7.22,53.59 3.77,53.76 0.55,52.66 -2.67,51.57 -4.64,48.37 -6.61,45.18 -6.88,42.70 -7.15,40.22 -6.95,36.52 -6.75,32.82 -6.53,28.11 -6.31,23.39 -6.17,20.29 -6.03,17.18 -5.75,14.12 -5.46,11.06 -5.19,5.28 -4.91,-0.49 -4.78,-1.07 -4.65,-1.65 -4.38,-2.18 -4.12,-2.71 -3.73,-3.17 -3.35,-3.62 -2.87,-3.97 -2.38,-4.32 -1.83,-4.54 -1.28,-4.76 -0.69,-4.85 -0.10,-4.93 0.48,-4.87 1.08,-4.81 1.64,-4.62 2.20,-4.42 2.69,-4.09 3.19,-3.76 3.60,-3.32 4.00,-2.89 4.29,-2.36 4.58,-1.84 4.73,-1.27 4.88,-0.69 4.90,-0.10 4.91,0.49 4.91,0.49 L 4.91,0.49 Z"></path></g><g transform="translate(293 462) rotate(0 21 9.000030517578125)" stroke="none"><path fill="#1e1e1e" d="M 4.44,2.96 Q 4.44,2.96 3.33,4.71 2.22,6.46 1.24,8.93 0.26,11.40 0.40,13.73 0.54,16.05 2.96,14.93 5.37,13.80 7.70,12.51 10.03,11.22 12.09,9.77 14.15,8.32 16.48,7.24 18.82,6.16 21.35,6.46 23.87,6.77 25.71,8.36 27.54,9.95 28.56,11.92 29.58,13.90 32.11,13.74 34.64,13.58 37.15,11.89 39.67,10.21 40.32,7.38 40.96,4.54 39.72,1.61 38.48,-1.31 38.28,-2.43 38.08,-3.55 38.25,-4.68 38.42,-5.80 38.94,-6.81 39.46,-7.83 40.27,-8.62 41.09,-9.42 42.12,-9.91 43.14,-10.40 44.27,-10.54 45.40,-10.68 46.52,-10.45 47.63,-10.22 48.62,-9.65 49.60,-9.07 50.35,-8.21 51.10,-7.36 51.53,-6.31 51.97,-5.25 52.05,-4.12 52.12,-2.98 51.83,-1.88 51.54,-0.78 50.92,0.16 50.29,1.11 49.40,1.81 48.50,2.52 47.43,2.89 46.35,3.27 45.21,3.29 44.07,3.30 42.99,2.95 41.91,2.61 40.99,1.93 40.07,1.25 39.42,0.32 38.77,-0.60 38.45,-1.70 38.13,-2.79 38.18,-3.93 38.22,-5.07 38.63,-6.13 39.04,-7.19 39.76,-8.07 40.49,-8.95 41.46,-9.55 42.42,-10.15 43.53,-10.41 44.64,-10.67 45.77,-10.56 46.91,-10.45 47.95,-9.99 48.99,-9.52 49.83,-8.75 50.66,-7.98 51.21,-6.98 51.76,-5.98 51.76,-5.98 51.76,-5.99 52.98,-3.40 54.21,-0.81 54.54,2.16 54.87,5.15 54.60,7.86 54.33,10.57 52.52,14.41 50.71,18.24 48.35,20.38 46.00,22.53 44.09,23.94 42.18,25.35 39.85,26.28 37.52,27.21 35.39,27.56 33.26,27.90 30.63,27.68 27.99,27.46 25.50,26.56 23.00,25.66 20.92,23.88 18.84,22.09 17.61,19.85 16.38,17.60 18.62,18.53 20.87,19.46 18.88,20.73 16.89,22.00 13.13,23.96 9.36,25.92 5.24,26.66 1.11,27.41 -2.86,26.29 -6.85,25.18 -8.59,23.11 -10.34,21.03 -11.03,17.77 -11.73,14.50 -11.08,11.02 -10.43,7.55 -8.63,3.99 -6.82,0.43 -5.63,-1.26 -4.44,-2.96 -4.02,-3.45 -3.60,-3.93 -3.08,-4.31 -2.55,-4.68 -1.95,-4.92 -1.36,-5.16 -0.72,-5.25 -0.08,-5.33 0.55,-5.27 1.19,-5.20 1.79,-4.98 2.40,-4.76 2.94,-4.41 3.47,-4.05 3.91,-3.57 4.34,-3.10 4.65,-2.53 4.96,-1.97 5.12,-1.35 5.28,-0.72 5.30,-0.08 5.31,0.55 5.16,1.18 5.02,1.81 4.73,2.38 4.44,2.96 4.44,2.96 L 4.44,2.96 Z"></path></g><g transform="translate(364 419.00006103515625) rotate(0 22.5 7.49993896484375)" stroke="none"><path fill="#1e1e1e" d="M -4.40,-2.93 Q -4.40,-2.93 -3.29,-4.68 -2.19,-6.44 -0.02,-8.92 2.15,-11.40 5.09,-13.12 8.04,-14.84 10.92,-15.44 13.81,-16.04 15.97,-16.17 18.14,-16.30 21.02,-16.40 23.90,-16.50 27.14,-15.40 30.38,-14.29 32.52,-13.04 34.65,-11.78 36.66,-8.39 38.68,-5.00 38.80,-2.68 38.92,-0.37 38.18,2.18 37.43,4.75 35.91,7.02 34.39,9.30 32.72,11.16 31.05,13.03 29.72,15.72 28.40,18.41 26.65,20.37 24.91,22.33 22.77,23.84 20.64,25.36 17.78,27.08 14.92,28.79 13.43,29.34 11.95,29.89 11.15,30.30 10.36,30.72 9.49,30.93 8.62,31.15 7.73,31.15 6.83,31.15 5.97,30.93 5.10,30.72 4.31,30.30 3.51,29.88 2.84,29.29 2.18,28.70 1.67,27.96 1.16,27.22 0.84,26.39 0.53,25.55 0.42,24.66 0.31,23.77 0.42,22.88 0.53,22.00 0.85,21.16 1.17,20.32 1.67,19.59 2.18,18.85 2.85,18.26 3.52,17.67 7.70,17.78 11.88,17.89 14.28,17.72 16.69,17.55 19.77,17.23 22.84,16.91 25.51,16.65 28.18,16.39 31.08,16.15 33.97,15.92 38.09,15.50 42.22,15.08 43.07,14.97 43.93,14.86 44.78,14.95 45.64,15.04 46.45,15.34 47.26,15.63 47.97,16.11 48.69,16.59 49.27,17.23 49.85,17.87 50.25,18.63 50.66,19.38 50.88,20.22 51.10,21.05 51.11,21.91 51.12,22.77 50.92,23.61 50.73,24.45 50.34,25.22 49.95,25.99 49.38,26.64 48.82,27.29 48.12,27.79 47.41,28.29 46.61,28.60 45.81,28.92 42.83,28.37 39.86,27.81 39.04,27.00 38.22,26.18 37.70,25.15 37.19,24.11 37.03,22.97 36.87,21.82 37.09,20.69 37.30,19.55 37.87,18.54 38.44,17.54 39.29,16.76 40.15,15.99 41.21,15.53 42.28,15.07 43.43,14.97 44.58,14.88 45.70,15.15 46.83,15.43 47.80,16.05 48.78,16.67 49.50,17.57 50.23,18.47 50.63,19.56 51.03,20.64 51.06,21.80 51.10,22.95 50.76,24.06 50.42,25.16 49.75,26.10 49.08,27.04 48.14,27.72 47.20,28.40 46.10,28.74 44.99,29.08 43.84,29.05 42.68,29.02 41.60,28.63 40.51,28.23 39.61,27.51 38.71,26.78 38.08,25.81 37.46,24.84 37.17,23.72 36.89,22.59 36.99,21.44 37.08,20.29 37.53,19.23 37.99,18.16 38.76,17.30 39.53,16.44 40.53,15.87 41.54,15.30 42.67,15.08 43.81,14.86 44.95,15.01 46.10,15.17 44.16,15.13 42.22,15.08 43.07,14.97 43.93,14.86 44.78,14.95 45.64,15.04 46.45,15.34 47.26,15.63 47.97,16.11 48.69,16.59 49.27,17.23 49.84,17.87 50.25,18.63 50.66,19.38 50.88,20.22 51.10,21.05 51.11,21.91 51.12,22.77 50.92,23.61 50.73,24.45 50.34,25.22 49.95,25.99 49.38,26.64 48.82,27.29 48.12,27.79 47.41,28.29 46.61,28.60 45.81,28.92 41.50,29.54 37.18,30.17 33.95,30.34 30.72,30.52 28.51,30.92 26.30,31.32 23.69,31.50 21.09,31.67 17.17,32.04 13.25,32.40 10.81,32.20 8.37,32.00 6.13,30.95 3.89,29.91 7.92,29.90 11.95,29.89 11.15,30.30 10.36,30.72 9.49,30.93 8.62,31.15 7.73,31.15 6.83,31.15 5.97,30.93 5.10,30.72 4.31,30.30 3.51,29.88 2.84,29.29 2.18,28.70 1.67,27.96 1.16,27.22 0.84,26.39 0.53,25.55 0.42,24.66 0.31,23.77 0.42,22.89 0.53,22.00 0.85,21.16 1.17,20.32 1.67,19.59 2.18,18.85 2.85,18.26 3.52,17.67 5.20,16.96 6.88,16.24 8.94,15.52 11.00,14.79 12.76,13.49 14.53,12.18 16.11,10.35 17.70,8.52 19.83,5.66 21.97,2.80 24.19,0.89 26.41,-1.00 24.32,-2.27 22.23,-3.53 19.17,-3.61 16.11,-3.69 13.85,-3.64 11.59,-3.59 9.19,-2.02 6.79,-0.45 5.59,1.23 4.40,2.93 3.98,3.41 3.57,3.90 3.05,4.27 2.53,4.64 1.94,4.87 1.34,5.11 0.71,5.20 0.08,5.28 -0.54,5.22 -1.18,5.15 -1.78,4.93 -2.38,4.72 -2.91,4.36 -3.44,4.01 -3.87,3.54 -4.30,3.07 -4.60,2.51 -4.91,1.95 -5.07,1.33 -5.23,0.72 -5.24,0.08 -5.25,-0.55 -5.11,-1.17 -4.97,-1.79 -4.68,-2.36 -4.39,-2.93 -4.40,-2.93 L -4.40,-2.93 Z"></path></g><g transform="translate(378 484) rotate(0 -2 12.500030517578125)" stroke="none"><path fill="#1e1e1e" d="M -0.71,5.03 Q -0.71,5.03 -2.72,4.82 -4.72,4.60 -6.57,6.90 -8.42,9.20 -9.43,11.87 -10.44,14.55 -9.21,16.54 -7.99,18.54 -5.38,19.56 -2.76,20.57 -0.57,20.40 1.60,20.22 3.62,18.47 5.63,16.72 4.83,14.61 4.04,12.50 2.14,10.19 0.23,7.88 -1.63,7.81 -3.49,7.75 -4.61,7.74 -5.73,7.74 -6.79,7.38 -7.84,7.02 -8.73,6.34 -9.62,5.66 -10.24,4.74 -10.87,3.81 -11.16,2.73 -11.46,1.66 -11.39,0.54 -11.33,-0.56 -10.91,-1.60 -10.50,-2.64 -9.77,-3.49 -9.04,-4.34 -8.09,-4.91 -7.13,-5.48 -6.03,-5.72 -4.94,-5.95 -3.83,-5.83 -2.72,-5.71 -1.71,-5.23 -0.70,-4.76 0.10,-3.99 0.91,-3.22 1.43,-2.23 1.95,-1.24 2.12,-0.14 2.30,0.95 2.12,2.05 1.93,3.16 1.41,4.14 0.88,5.13 0.07,5.89 -0.74,6.66 -1.75,7.12 -2.77,7.59 -3.88,7.70 -4.99,7.82 -6.08,7.58 -7.17,7.33 -8.12,6.76 -9.08,6.18 -9.80,5.32 -10.52,4.47 -10.93,3.43 -11.34,2.39 -11.39,1.28 -11.45,0.16 -11.15,-0.90 -10.85,-1.98 -10.22,-2.90 -9.59,-3.82 -8.70,-4.50 -7.80,-5.17 -6.74,-5.52 -5.69,-5.88 -5.69,-5.88 -5.69,-5.88 -2.97,-6.24 -0.25,-6.61 2.24,-5.91 4.74,-5.22 7.48,-3.19 10.22,-1.17 12.00,1.07 13.79,3.32 15.33,6.39 16.87,9.46 17.26,12.39 17.66,15.31 17.60,17.90 17.53,20.49 16.61,22.53 15.69,24.57 13.19,26.97 10.70,29.36 6.89,30.88 3.07,32.40 -1.37,32.30 -5.83,32.20 -9.30,30.92 -12.76,29.63 -14.97,27.23 -17.17,24.83 -18.54,22.51 -19.91,20.18 -20.41,17.40 -20.91,14.61 -19.77,11.15 -18.63,7.69 -17.22,5.46 -15.82,3.23 -12.17,-0.90 -8.52,-5.05 -5.92,-5.40 -3.32,-5.75 -1.30,-5.39 0.71,-5.03 1.31,-4.87 1.90,-4.71 2.44,-4.42 2.97,-4.12 3.42,-3.70 3.87,-3.29 4.21,-2.78 4.55,-2.26 4.75,-1.69 4.96,-1.11 5.02,-0.50 5.08,0.10 4.99,0.71 4.91,1.32 4.68,1.89 4.45,2.45 4.09,2.95 3.73,3.45 3.26,3.85 2.80,4.24 2.25,4.52 1.70,4.79 1.10,4.92 0.50,5.06 -0.10,5.04 -0.72,5.03 -0.71,5.03 L -0.71,5.03 Z"></path></g></svg>