<svg version="1.1" xmlns="http://www.w3.org/2000/svg" viewBox="0 0 430.9467051614821 286.6291196571477" width="430.9467051614821" height="286.6291196571477" class="excalidraw-svg"><!-- svg-source:excalidraw --><metadata></metadata><defs><style class="style-fonts">
      </style></defs><g stroke-linecap="round"><g transform="translate(11.31913297258319 132.68659554773944) rotate(0 204.15421960815786 -1.5930852714925976)"><path d="M0.09 -1.18 C68.56 -1.5, 341.54 -1.8, 409.63 -2.26 M-1.32 0.81 C67.15 0.19, 340.85 -3.34, 409.01 -4" stroke="#1e1e1e" stroke-width="2" fill="none"></path></g></g><mask></mask><g stroke-linecap="round"><g transform="translate(207.3191329725832 9.68659554773943) rotate(0 3.1612314658798226 133.62796428083445)"><path d="M0.14 0.89 C1.03 45.21, 4.31 222.75, 5.25 266.94 M-1.24 0.31 C0.04 44.83, 6.54 220.81, 7.57 265.31" stroke="#1e1e1e" stroke-width="2" fill="none"></path></g></g><mask></mask><g stroke-linecap="round" transform="translate(123.31913297258319 50.68659554773943) rotate(0 85.5 82)"><path d="M99.84 1.31 C110.83 1.66, 124.06 7.28, 133.63 13.36 C143.21 19.44, 151.3 28.37, 157.28 37.78 C163.26 47.2, 167.73 58.61, 169.51 69.85 C171.3 81.09, 171.17 94.43, 168.02 105.23 C164.86 116.03, 158.12 126.25, 150.58 134.65 C143.04 143.05, 133.16 150.89, 122.78 155.65 C112.41 160.4, 99.8 162.63, 88.33 163.18 C76.85 163.74, 64.47 162.93, 53.93 158.99 C43.4 155.05, 33.29 147.61, 25.12 139.54 C16.95 131.48, 9.15 121.13, 4.93 110.6 C0.71 100.07, -1.18 87.57, -0.18 76.35 C0.81 65.13, 5.44 53.19, 10.89 43.27 C16.33 33.36, 23.59 23.51, 32.5 16.85 C41.42 10.19, 51.34 5.67, 64.38 3.31 C77.42 0.96, 101.83 1.84, 110.76 2.73 C119.68 3.62, 118.45 7.23, 117.95 8.63 M71.13 1.43 C81.58 -1.53, 94.7 1.31, 105.81 3.83 C116.93 6.34, 128.37 9.7, 137.84 16.51 C147.32 23.31, 157.25 34.54, 162.67 44.65 C168.09 54.75, 169.92 66.32, 170.38 77.13 C170.84 87.94, 169.57 99.26, 165.43 109.51 C161.28 119.76, 153.5 130.41, 145.51 138.64 C137.52 146.87, 128.17 154.89, 117.47 158.89 C106.78 162.88, 92.84 163.44, 81.33 162.62 C69.83 161.81, 58.83 158.81, 48.46 154 C38.09 149.19, 26.6 142.24, 19.1 133.77 C11.6 125.3, 6.23 113.97, 3.44 103.18 C0.65 92.4, 0.6 79.92, 2.35 69.06 C4.1 58.2, 7.82 47.5, 13.96 38.02 C20.09 28.55, 29.64 18.3, 39.18 12.19 C48.71 6.08, 65.63 2.72, 71.16 1.36 C76.69 0.01, 72.24 2.93, 72.37 4.07" stroke="#1e1e1e" stroke-width="2" fill="none"></path></g><g transform="translate(210.75882067375437 51.14426439981115) rotate(0 -2.512043082395195 1.5700269264969933)" stroke="none"><path fill="#2f9e44" d="M 0,3.22 Q 0,3.22 -1.38,3.32 -2.76,3.42 -3.59,0.75 -4.42,-1.90 -4.31,-2.19 -4.20,-2.49 -4.01,-2.75 -3.83,-3.01 -3.59,-3.22 -3.36,-3.42 -3.07,-3.57 -2.79,-3.71 -2.48,-3.79 -2.18,-3.86 -1.86,-3.86 -1.54,-3.86 -1.24,-3.78 -0.93,-3.70 -0.65,-3.55 -0.37,-3.40 -0.14,-3.19 0.09,-2.98 0.27,-2.72 0.45,-2.45 0.56,-2.16 0.67,-1.86 0.70,-1.55 0.74,-1.23 0.70,-0.92 0.66,-0.60 -0.79,0.36 -2.24,1.34 -2.65,1.21 -3.06,1.09 -3.40,0.84 -3.74,0.59 -3.99,0.24 -4.24,-0.09 -4.36,-0.50 -4.48,-0.91 -4.47,-1.33 -4.46,-1.76 -4.31,-2.15 -4.16,-2.55 -3.89,-2.88 -3.63,-3.21 -3.27,-3.44 -2.91,-3.67 -2.49,-3.77 -2.08,-3.87 -1.66,-3.83 -1.23,-3.80 -0.84,-3.63 -0.46,-3.46 -0.14,-3.17 0.17,-2.89 0.37,-2.52 0.58,-2.15 0.66,-1.73 0.74,-1.31 0.68,-0.89 0.62,-0.47 0.43,-0.09 0.24,0.28 -0.05,0.58 -0.36,0.88 -0.74,1.07 -1.12,1.25 -1.54,1.31 -1.96,1.36 -2.38,1.28 -2.80,1.20 -3.16,0.99 -3.53,0.78 -3.82,0.46 -4.10,0.14 -4.26,-0.24 -4.43,-0.63 -4.46,-1.05 -4.50,-1.48 -4.39,-1.89 -4.29,-2.30 -4.06,-2.66 -3.83,-3.01 -3.49,-3.28 -3.16,-3.54 -2.76,-3.69 -2.36,-3.83 -3.39,-2.87 -4.42,-1.90 -4.31,-2.19 -4.20,-2.49 -4.01,-2.75 -3.83,-3.01 -3.59,-3.21 -3.36,-3.42 -3.07,-3.57 -2.79,-3.71 -2.49,-3.79 -2.18,-3.86 -1.86,-3.86 -1.54,-3.86 -1.24,-3.78 -0.93,-3.70 -0.65,-3.55 -0.37,-3.40 -0.14,-3.19 0.09,-2.98 0.27,-2.72 0.45,-2.46 0.56,-2.16 0.67,-1.86 0.70,-1.55 0.74,-1.23 0.70,-0.92 0.66,-0.60 2.24,0.15 3.82,0.92 2.50,3.68 1.19,6.43 -2.14,6.68 -5.47,6.93 -6.79,3.90 -8.11,0.86 -5.56,-1.27 -3.01,-3.42 -1.50,-3.32 0,-3.22 0.38,-3.18 0.77,-3.13 1.13,-2.99 1.50,-2.85 1.82,-2.63 2.14,-2.41 2.39,-2.12 2.65,-1.83 2.83,-1.48 3.01,-1.14 3.11,-0.76 3.20,-0.38 3.20,0.00 3.20,0.38 3.11,0.76 3.01,1.14 2.83,1.48 2.65,1.83 2.39,2.12 2.14,2.41 1.82,2.63 1.49,2.85 1.13,2.99 0.77,3.13 0.38,3.18 -0.00,3.22 -0.00,3.22 L 0,3.22 Z"></path></g><g transform="translate(296.16828547519054 129.64561072466057) rotate(0 -2.198037697095799 0.9420161558981874)" stroke="none"><path fill="#2f9e44" d="M -1.13,3.02 Q -1.13,3.02 -2.32,2.70 -3.51,2.39 -2.74,1.32 -1.98,0.26 -1.95,-0.16 -1.93,-0.58 -1.77,-0.97 -1.61,-1.37 -1.33,-1.69 -1.05,-2.01 -0.69,-2.23 -0.32,-2.44 0.09,-2.53 0.50,-2.62 0.92,-2.57 1.35,-2.52 1.73,-2.34 2.11,-2.16 2.42,-1.86 2.73,-1.57 2.92,-1.19 3.12,-0.81 3.18,-0.39 3.25,0.02 3.18,0.44 3.11,0.85 2.90,1.23 2.70,1.60 2.39,1.89 2.08,2.18 1.69,2.36 1.30,2.53 0.88,2.57 0.46,2.62 0.04,2.52 -0.36,2.43 -0.72,2.20 -1.08,1.98 -1.36,1.66 -1.63,1.33 -1.78,0.93 -1.94,0.54 -1.96,0.11 -1.98,-0.30 -1.86,-0.71 -1.74,-1.12 -1.50,-1.47 -1.26,-1.82 -0.92,-2.07 -0.58,-2.33 -0.17,-2.46 0.22,-2.59 0.64,-2.59 1.07,-2.58 1.47,-2.44 1.87,-2.31 2.21,-2.05 2.55,-1.79 2.78,-1.43 3.02,-1.08 3.13,-0.67 3.24,-0.26 3.24,-0.26 3.24,-0.26 1.48,3.85 -0.26,7.98 -3.58,6.47 -6.90,4.96 -6.93,1.16 -6.95,-2.63 -4.61,-3.59 -2.26,-4.56 -0.56,-3.79 1.13,-3.02 1.47,-2.84 1.82,-2.66 2.11,-2.40 2.40,-2.14 2.63,-1.83 2.85,-1.51 2.99,-1.14 3.13,-0.78 3.17,-0.39 3.22,-0.01 3.18,0.37 3.13,0.76 3.00,1.12 2.86,1.48 2.64,1.81 2.42,2.13 2.13,2.39 1.84,2.64 1.49,2.83 1.15,3.01 0.77,3.10 0.40,3.20 0.01,3.20 -0.37,3.20 -0.75,3.11 -1.13,3.02 -1.13,3.02 L -1.13,3.02 Z"></path></g><g transform="translate(215.1548960679459 214.427064755498) rotate(0 -1.8840323117963749 1.8840323117963749)" stroke="none"><path fill="#2f9e44" d="M 1.60,2.80 Q 1.60,2.80 0.57,3.63 -0.45,4.46 -1.19,2.46 -1.94,0.46 -2.68,-0.51 -3.41,-1.49 -3.20,-1.72 -2.99,-1.96 -2.73,-2.14 -2.47,-2.32 -2.18,-2.43 -1.88,-2.54 -1.57,-2.58 -1.25,-2.62 -0.94,-2.58 -0.62,-2.55 -0.33,-2.43 -0.03,-2.32 0.22,-2.14 0.48,-1.96 0.69,-1.73 0.90,-1.49 1.05,-1.21 1.19,-0.93 1.27,-0.62 1.35,-0.31 1.35,-0.00 1.35,0.31 1.27,0.62 1.20,0.92 1.05,1.21 0.90,1.49 -0.97,1.78 -2.85,2.08 -3.14,1.77 -3.43,1.46 -3.61,1.08 -3.78,0.69 -3.83,0.27 -3.87,-0.15 -3.78,-0.56 -3.69,-0.97 -3.47,-1.34 -3.25,-1.70 -2.92,-1.98 -2.60,-2.25 -2.20,-2.41 -1.81,-2.56 -1.38,-2.58 -0.96,-2.61 -0.55,-2.49 -0.14,-2.38 0.20,-2.14 0.55,-1.90 0.81,-1.56 1.06,-1.22 1.20,-0.81 1.33,-0.41 1.33,0.00 1.33,0.43 1.19,0.83 1.06,1.23 0.80,1.57 0.54,1.91 0.19,2.15 -0.16,2.38 -0.57,2.49 -0.98,2.61 -1.40,2.58 -1.82,2.56 -2.22,2.40 -2.61,2.24 -2.94,1.96 -3.26,1.69 -3.48,1.32 -3.69,0.96 -3.78,0.54 -3.87,0.13 -3.83,-0.28 -3.78,-0.71 -3.60,-1.09 -3.42,-1.48 -3.13,-1.78 -2.83,-2.09 -2.46,-2.29 -2.08,-2.49 -1.66,-2.55 -1.24,-2.62 -0.82,-2.55 -0.40,-2.48 -1.91,-1.98 -3.41,-1.49 -3.20,-1.72 -2.99,-1.96 -2.73,-2.14 -2.47,-2.32 -2.18,-2.43 -1.88,-2.54 -1.57,-2.58 -1.25,-2.62 -0.94,-2.58 -0.62,-2.55 -0.33,-2.43 -0.03,-2.32 0.22,-2.14 0.48,-1.96 0.69,-1.73 0.90,-1.49 1.05,-1.21 1.19,-0.93 1.27,-0.62 1.35,-0.31 1.35,-0.00 1.35,0.31 1.27,0.62 1.20,0.92 1.05,1.20 0.90,1.49 2.05,2.77 3.21,4.05 1.17,5.53 -0.86,7.02 -3.52,5.31 -6.18,3.60 -5.39,1.01 -4.60,-1.57 -3.10,-2.18 -1.60,-2.80 -1.24,-2.95 -0.88,-3.10 -0.49,-3.16 -0.11,-3.22 0.27,-3.19 0.65,-3.15 1.02,-3.03 1.39,-2.91 1.72,-2.70 2.05,-2.49 2.32,-2.20 2.58,-1.92 2.78,-1.58 2.97,-1.25 3.08,-0.87 3.18,-0.50 3.20,-0.11 3.21,0.27 3.13,0.65 3.05,1.03 2.88,1.38 2.72,1.73 2.47,2.03 2.22,2.33 1.91,2.57 1.60,2.80 1.60,2.80 L 1.60,2.80 Z"></path></g><g transform="translate(125.3493558723182 128.389589183463) rotate(0 -2.512043082395195 1.8840323117963749)" stroke="none"><path fill="#2f9e44" d="M 0,3.22 Q 0,3.22 -0.59,3.04 -1.19,2.85 -2.46,2.48 -3.74,2.10 -3.81,1.68 -3.88,1.26 -3.81,0.84 -3.74,0.42 -3.55,0.05 -3.35,-0.32 -3.04,-0.61 -2.73,-0.91 -2.35,-1.09 -1.96,-1.27 -1.54,-1.31 -1.12,-1.36 -0.70,-1.27 -0.29,-1.18 0.07,-0.96 0.43,-0.75 0.71,-0.42 0.98,-0.10 1.14,0.28 1.30,0.68 1.33,1.10 1.35,1.53 1.24,1.94 1.13,2.35 0.89,2.70 0.65,3.05 0.31,3.31 -0.01,3.57 -0.41,3.70 -0.82,3.84 -1.24,3.84 -1.67,3.84 -2.07,3.71 -2.47,3.58 -2.81,3.32 -3.15,3.06 -3.39,2.71 -3.63,2.36 -3.75,1.95 -3.86,1.54 -3.84,1.12 -3.82,0.70 -3.66,0.30 -3.51,-0.09 -3.23,-0.41 -2.96,-0.74 -2.59,-0.96 -2.23,-1.18 -1.82,-1.27 -1.40,-1.36 -0.98,-1.32 -0.56,-1.27 -0.17,-1.10 0.21,-0.92 0.52,-0.63 0.82,-0.34 1.02,0.03 1.23,0.40 1.23,0.40 1.23,0.40 1.12,4.01 1.02,7.62 -2.21,7.69 -5.44,7.75 -6.17,4.08 -6.90,0.41 -5.38,-1.22 -3.86,-2.85 -1.93,-3.04 0,-3.22 0.38,-3.18 0.77,-3.13 1.13,-2.99 1.50,-2.85 1.82,-2.63 2.14,-2.41 2.39,-2.12 2.65,-1.83 2.83,-1.48 3.01,-1.14 3.11,-0.76 3.20,-0.38 3.20,0.00 3.20,0.38 3.11,0.76 3.01,1.14 2.83,1.48 2.65,1.83 2.39,2.12 2.14,2.41 1.82,2.63 1.49,2.85 1.13,2.99 0.77,3.13 0.38,3.18 -0.00,3.22 -0.00,3.22 L 0,3.22 Z"></path></g><g transform="translate(155.49387286106037 69.35657674717622) rotate(0 -2.512043082395195 0.9420161558982016)" stroke="none"><path fill="#2f9e44" d="M 0,3.22 Q 0,3.22 -1.16,3.17 -2.33,3.11 -3.37,1.24 -4.41,-0.63 -3.72,-0.96 -3.03,-1.30 -2.68,-1.53 -2.32,-1.76 -1.91,-1.87 -1.50,-1.98 -1.08,-1.95 -0.65,-1.92 -0.26,-1.76 0.12,-1.60 0.44,-1.32 0.76,-1.04 0.98,-0.68 1.19,-0.31 1.28,0.10 1.36,0.51 1.31,0.94 1.26,1.36 1.08,1.74 0.89,2.12 0.60,2.43 0.30,2.73 -0.07,2.93 -0.44,3.12 -0.86,3.19 -1.28,3.25 -1.70,3.18 -2.12,3.10 -2.49,2.90 -2.87,2.69 -3.16,2.38 -3.44,2.07 -3.62,1.68 -3.79,1.29 -3.83,0.87 -3.87,0.45 -3.78,0.03 -3.68,-0.37 -3.45,-0.73 -3.23,-1.09 -2.90,-1.36 -2.58,-1.63 -2.18,-1.79 -1.78,-1.94 -1.36,-1.96 -0.93,-1.97 -0.53,-1.86 -0.12,-1.74 0.22,-1.49 0.57,-1.25 0.82,-0.91 1.08,-0.57 1.21,-0.16 1.34,0.23 1.33,0.66 1.33,1.08 1.18,1.48 1.04,1.88 0.78,2.22 0.52,2.55 0.52,2.55 0.52,2.55 -1.83,4.19 -4.20,5.82 -5.95,3.62 -7.70,1.43 -5.57,-0.84 -3.43,-3.11 -1.71,-3.17 0,-3.22 0.38,-3.18 0.77,-3.13 1.13,-2.99 1.50,-2.85 1.82,-2.63 2.14,-2.41 2.39,-2.12 2.65,-1.83 2.83,-1.48 3.01,-1.14 3.11,-0.76 3.20,-0.38 3.20,0.00 3.20,0.38 3.11,0.76 3.01,1.14 2.83,1.48 2.65,1.83 2.39,2.12 2.14,2.41 1.82,2.63 1.49,2.85 1.13,2.99 0.77,3.13 0.38,3.18 -0.00,3.22 -0.00,3.22 L 0,3.22 Z"></path></g><g transform="translate(269.16382233944233 68.72856597657743) rotate(0 -1.8840323117964033 3.1400538529939723)" stroke="none"><path fill="#2f9e44" d="M 2.52,2.01 Q 2.52,2.01 1.17,3.69 -0.16,5.37 -0.89,4.65 -1.62,3.94 -1.91,3.63 -2.20,3.31 -2.37,2.92 -2.54,2.53 -2.58,2.11 -2.61,1.69 -2.52,1.27 -2.42,0.86 -2.19,0.50 -1.96,0.14 -1.64,-0.12 -1.31,-0.39 -0.91,-0.54 -0.51,-0.69 -0.09,-0.70 0.33,-0.72 0.74,-0.60 1.14,-0.47 1.49,-0.23 1.84,0.01 2.09,0.35 2.34,0.69 2.47,1.10 2.59,1.50 2.59,1.93 2.58,2.35 2.44,2.75 2.29,3.15 2.03,3.49 1.76,3.82 1.41,4.05 1.05,4.28 0.64,4.39 0.23,4.50 -0.18,4.46 -0.61,4.43 -1.00,4.27 -1.39,4.10 -1.71,3.82 -2.03,3.54 -2.24,3.17 -2.45,2.80 -2.54,2.39 -2.62,1.97 -2.57,1.55 -2.51,1.13 -2.33,0.75 -2.14,0.36 -1.84,0.06 -1.54,-0.23 -1.17,-0.42 -0.79,-0.62 -0.37,-0.68 0.04,-0.74 0.46,-0.66 0.88,-0.58 1.25,-0.38 1.62,-0.17 1.62,-0.17 1.62,-0.17 1.62,4.16 1.61,8.51 -1.89,7.75 -5.40,7.00 -5.50,4.42 -5.61,1.84 -4.06,-0.08 -2.52,-2.01 -2.24,-2.28 -1.96,-2.56 -1.62,-2.75 -1.29,-2.95 -0.92,-3.06 -0.54,-3.18 -0.16,-3.20 0.22,-3.22 0.60,-3.14 0.99,-3.07 1.34,-2.90 1.69,-2.74 2.00,-2.50 2.30,-2.25 2.54,-1.95 2.77,-1.64 2.93,-1.28 3.09,-0.92 3.15,-0.54 3.22,-0.16 3.19,0.22 3.16,0.61 3.04,0.98 2.92,1.35 2.72,1.68 2.52,2.01 2.52,2.01 L 2.52,2.01 Z"></path></g><g transform="translate(269.16382233944233 186.794590849151) rotate(0 -1.8840323117964033 3.768064623592778)" stroke="none"><path fill="#2f9e44" d="M 2.28,2.28 Q 2.28,2.28 1.03,3.89 -0.20,5.50 -1.71,3.82 -3.23,2.14 -2.27,2.20 -1.31,2.27 -1.64,2.00 -1.97,1.73 -2.19,1.37 -2.42,1.01 -2.52,0.59 -2.62,0.18 -2.58,-0.23 -2.54,-0.66 -2.36,-1.04 -2.19,-1.43 -1.91,-1.75 -1.62,-2.06 -1.25,-2.27 -0.87,-2.47 -0.46,-2.55 -0.04,-2.62 0.37,-2.56 0.79,-2.50 1.17,-2.30 1.55,-2.11 1.85,-1.81 2.15,-1.50 2.33,-1.12 2.51,-0.74 2.57,-0.32 2.62,0.09 2.54,0.51 2.45,0.93 2.24,1.30 2.02,1.66 1.70,1.94 1.39,2.22 0.99,2.39 0.60,2.55 0.18,2.58 -0.24,2.61 -0.65,2.50 -1.06,2.40 -1.41,2.16 -1.77,1.93 -2.03,1.60 -2.30,1.26 -2.44,0.86 -2.58,0.46 -2.59,0.04 -2.59,-0.38 -2.46,-0.78 -2.33,-1.19 -2.08,-1.53 -1.83,-1.87 -1.48,-2.12 -1.14,-2.36 -0.73,-2.48 -0.32,-2.60 0.09,-2.59 0.52,-2.57 0.92,-2.42 1.31,-2.27 1.31,-2.27 1.31,-2.27 2.69,0.91 4.07,4.09 2.50,6.47 0.92,8.85 -2.34,9.09 -5.61,9.32 -5.59,4.80 -5.57,0.27 -3.92,-1.00 -2.28,-2.28 -1.97,-2.52 -1.67,-2.76 -1.31,-2.92 -0.96,-3.08 -0.57,-3.15 -0.19,-3.22 0.19,-3.19 0.58,-3.17 0.95,-3.05 1.32,-2.94 1.65,-2.74 1.99,-2.54 2.26,-2.26 2.54,-1.99 2.74,-1.65 2.94,-1.32 3.05,-0.95 3.17,-0.58 3.19,-0.19 3.22,0.19 3.15,0.57 3.08,0.96 2.92,1.31 2.76,1.67 2.52,1.97 2.28,2.28 2.28,2.28 L 2.28,2.28 Z"></path></g><g transform="translate(152.35381900806635 189.30663393154617) rotate(0 -0.942016155898159 3.4540592382933824)" stroke="none"><path fill="#2f9e44" d="M 1.93,2.58 Q 1.93,2.58 0.64,3.62 -0.64,4.66 -0.71,3.58 -0.78,2.50 -1.16,2.31 -1.54,2.12 -1.84,1.82 -2.14,1.52 -2.32,1.14 -2.51,0.75 -2.56,0.33 -2.62,-0.08 -2.54,-0.50 -2.46,-0.91 -2.25,-1.28 -2.03,-1.65 -1.72,-1.93 -1.40,-2.21 -1.01,-2.38 -0.62,-2.55 -0.19,-2.58 0.22,-2.61 0.63,-2.51 1.04,-2.40 1.40,-2.17 1.76,-1.94 2.02,-1.61 2.29,-1.28 2.43,-0.88 2.58,-0.48 2.59,-0.05 2.60,0.36 2.47,0.77 2.34,1.17 2.09,1.52 1.84,1.86 1.50,2.11 1.15,2.35 0.74,2.48 0.34,2.60 -0.08,2.59 -0.50,2.57 -0.90,2.42 -1.30,2.28 -1.63,2.01 -1.96,1.74 -2.19,1.38 -2.41,1.02 -2.51,0.61 -2.61,0.20 -2.58,-0.22 -2.54,-0.64 -2.37,-1.03 -2.20,-1.42 -1.92,-1.74 -1.63,-2.05 -1.26,-2.26 -0.89,-2.46 -0.47,-2.54 -0.05,-2.62 0.36,-2.56 0.78,-2.50 0.78,-2.50 0.78,-2.50 2.69,1.98 4.61,6.48 1.41,8.22 -1.78,9.96 -3.70,9.01 -5.62,8.06 -6.27,6.04 -6.92,4.01 -6.03,1.84 -5.13,-0.32 -3.53,-1.45 -1.93,-2.58 -1.59,-2.77 -1.26,-2.97 -0.88,-3.07 -0.51,-3.18 -0.12,-3.20 0.26,-3.21 0.64,-3.13 1.02,-3.06 1.37,-2.89 1.72,-2.72 2.02,-2.48 2.33,-2.23 2.56,-1.92 2.79,-1.61 2.94,-1.25 3.10,-0.89 3.16,-0.51 3.22,-0.12 3.19,0.26 3.16,0.64 3.03,1.01 2.91,1.38 2.70,1.71 2.49,2.04 2.21,2.31 1.93,2.58 1.93,2.58 L 1.93,2.58 Z"></path></g><g stroke-linecap="round"><g transform="translate(152.35381900806635 192.44668778454013) rotate(0 58.0154739732605 -62.963068441192064)"><path d="M-0.07 0.11 C19.49 -20.9, 97.97 -105.29, 117.59 -126.04 M-1.56 -0.87 C17.78 -21.78, 96.68 -104.14, 116.39 -125.06" stroke="#1971c2" stroke-width="2" fill="none"></path></g></g><mask></mask><g stroke-linecap="round"><g transform="translate(124.09333433112056 132.7856645776546) rotate(0 85.1401955802693 -1.0192380298968402)"><path d="M0.08 0.18 C28.54 0.14, 143.24 -0.17, 171.61 -0.71 M-1.33 -0.77 C26.91 -1.07, 141.76 -1.95, 170.75 -2.22" stroke="#1971c2" stroke-width="1" fill="none"></path></g></g><mask></mask><g transform="translate(251.5795207626761 86.6268729386431) rotate(0 9.106156173682535 23.550403897454842)" stroke="none"><path fill="#1971c2" d="M 0.85,-1.36 Q 0.85,-1.36 2.42,-0.63 3.98,0.10 5.94,2.27 7.90,4.45 9.82,7.39 11.74,10.33 13.49,14.20 15.25,18.07 16.55,22.31 17.86,26.55 18.45,30.45 19.04,34.35 19.45,37.20 19.87,40.05 19.83,42.15 19.80,44.25 18.66,46.56 17.53,48.87 17.42,49.05 17.30,49.23 17.14,49.36 16.97,49.49 16.77,49.57 16.57,49.64 16.36,49.65 16.15,49.65 15.95,49.59 15.74,49.53 15.57,49.41 15.40,49.28 15.27,49.11 15.15,48.94 15.09,48.74 15.02,48.53 15.03,48.32 15.03,48.11 15.11,47.91 15.18,47.71 15.31,47.54 15.44,47.38 15.62,47.26 15.80,47.15 16.01,47.10 16.21,47.04 16.42,47.06 16.64,47.08 16.83,47.16 17.03,47.24 17.19,47.38 17.34,47.53 17.45,47.71 17.55,47.90 17.60,48.10 17.64,48.31 17.61,48.52 17.58,48.73 17.49,48.92 17.39,49.11 17.24,49.27 17.09,49.42 16.90,49.51 16.71,49.61 16.50,49.64 16.29,49.66 16.08,49.63 15.87,49.59 15.69,49.48 15.50,49.38 15.36,49.22 15.22,49.06 15.13,48.87 15.05,48.67 15.03,48.46 15.01,48.25 15.06,48.04 15.12,47.84 15.12,47.84 15.12,47.84 15.25,46.03 15.38,44.22 15.36,42.45 15.35,40.69 14.95,37.84 14.55,34.99 14.07,31.41 13.60,27.84 12.40,23.85 11.21,19.87 9.62,16.27 8.04,12.67 6.35,9.93 4.66,7.18 3.22,5.34 1.78,3.51 0.46,2.43 -0.85,1.36 -1.00,1.24 -1.15,1.12 -1.27,0.96 -1.39,0.81 -1.47,0.63 -1.54,0.45 -1.58,0.26 -1.61,0.07 -1.59,-0.12 -1.58,-0.31 -1.52,-0.49 -1.46,-0.68 -1.35,-0.84 -1.25,-1.01 -1.11,-1.14 -0.97,-1.28 -0.80,-1.38 -0.64,-1.48 -0.45,-1.53 -0.26,-1.59 -0.07,-1.60 0.12,-1.60 0.31,-1.57 0.50,-1.53 0.67,-1.45 0.85,-1.36 0.85,-1.36 L 0.85,-1.36 Z"></path></g><g transform="translate(228.97113302111944 121.16746532157687) rotate(0 10.990188485478939 -4.71008077949098)" stroke="none"><path fill="#1971c2" d="M 0,-1.61 Q 0,-1.61 1.98,-1.66 3.97,-1.70 5.24,-1.84 6.52,-1.98 6.97,-3.25 7.41,-4.51 7.84,-5.65 8.27,-6.78 9.27,-7.91 10.27,-9.04 11.68,-9.93 13.09,-10.82 14.46,-11.24 15.84,-11.66 17.19,-11.13 18.54,-10.61 19.22,-9.38 19.90,-8.16 19.96,-6.92 20.01,-5.69 19.90,-4.44 19.79,-3.19 21.21,-1.53 22.63,0.11 22.80,0.25 22.96,0.38 23.07,0.56 23.19,0.75 23.24,0.95 23.29,1.16 23.27,1.37 23.25,1.58 23.16,1.78 23.07,1.97 22.93,2.13 22.79,2.28 22.60,2.39 22.41,2.49 22.21,2.53 22.00,2.56 21.79,2.53 21.58,2.50 21.39,2.41 21.20,2.31 21.05,2.16 20.90,2.01 20.81,1.81 20.72,1.62 20.69,1.41 20.66,1.20 20.71,0.99 20.75,0.78 20.85,0.60 20.96,0.42 21.12,0.28 21.28,0.14 21.48,0.05 21.67,-0.02 21.88,-0.03 22.10,-0.05 22.30,0.00 22.51,0.05 22.69,0.17 22.86,0.28 22.99,0.45 23.13,0.62 23.20,0.82 23.27,1.02 23.27,1.23 23.27,1.44 23.21,1.64 23.15,1.85 23.02,2.02 22.89,2.19 22.72,2.31 22.55,2.43 22.34,2.49 22.14,2.55 21.93,2.55 21.71,2.54 21.52,2.46 21.32,2.39 21.32,2.39 21.32,2.39 19.34,1.71 17.36,1.03 16.60,-0.10 15.83,-1.25 16.16,-3.53 16.50,-5.82 16.60,-6.99 16.70,-8.17 15.62,-8.24 14.54,-8.31 13.40,-7.70 12.26,-7.10 11.24,-5.79 10.22,-4.48 10.23,-2.82 10.25,-1.16 8.60,0.05 6.96,1.26 5.46,1.48 3.97,1.70 1.98,1.66 0,1.61 -0.19,1.59 -0.38,1.56 -0.56,1.49 -0.75,1.42 -0.91,1.31 -1.07,1.20 -1.19,1.06 -1.32,0.91 -1.41,0.74 -1.50,0.57 -1.55,0.38 -1.60,0.19 -1.60,-0.00 -1.60,-0.19 -1.55,-0.38 -1.50,-0.57 -1.41,-0.74 -1.32,-0.91 -1.19,-1.06 -1.07,-1.20 -0.91,-1.31 -0.74,-1.42 -0.56,-1.49 -0.38,-1.56 -0.19,-1.59 0.00,-1.61 0.00,-1.61 L 0,-1.61 Z"></path></g><g transform="translate(271.04785465123877 59.62240980289489) rotate(0 -2.8260484676945907 10.362177714880133)" stroke="none"><path fill="#1971c2" d="M 0.45,1.54 Q 0.45,1.54 -2.47,2.40 -5.40,3.26 -7.45,7.21 -9.50,11.15 -9.74,13.66 -9.99,16.16 -8.97,17.53 -7.95,18.89 -6.10,19.24 -4.25,19.59 -2.29,19.21 -0.32,18.83 1.36,17.22 3.05,15.62 4.18,13.13 5.30,10.64 5.38,8.43 5.47,6.22 4.95,4.69 4.44,3.16 3.50,2.28 2.56,1.40 0.36,0.03 -1.82,-1.32 -1.99,-1.44 -2.17,-1.57 -2.29,-1.74 -2.42,-1.91 -2.48,-2.11 -2.55,-2.31 -2.55,-2.53 -2.54,-2.74 -2.47,-2.94 -2.40,-3.14 -2.27,-3.31 -2.14,-3.47 -1.96,-3.59 -1.79,-3.71 -1.58,-3.76 -1.37,-3.81 -1.16,-3.80 -0.95,-3.79 -0.75,-3.70 -0.56,-3.62 -0.40,-3.48 -0.24,-3.34 -0.13,-3.16 -0.02,-2.98 0.01,-2.77 0.05,-2.56 0.03,-2.35 0.00,-2.14 -0.08,-1.95 -0.17,-1.75 -0.32,-1.60 -0.47,-1.45 -0.66,-1.35 -0.85,-1.26 -1.06,-1.23 -1.27,-1.19 -1.48,-1.23 -1.69,-1.27 -1.87,-1.37 -2.06,-1.47 -2.20,-1.63 -2.35,-1.79 -2.43,-1.98 -2.52,-2.17 -2.54,-2.39 -2.56,-2.60 -2.51,-2.80 -2.46,-3.01 -2.35,-3.19 -2.24,-3.37 -2.08,-3.51 -1.91,-3.64 -1.71,-3.72 -1.51,-3.79 -1.30,-3.80 -1.09,-3.81 -0.89,-3.75 -0.68,-3.69 -0.68,-3.69 -0.68,-3.69 0.82,-3.14 2.33,-2.60 3.75,-2.08 5.18,-1.57 6.92,-0.02 8.67,1.52 9.39,4.03 10.11,6.53 9.68,9.55 9.26,12.57 7.50,15.59 5.74,18.61 3.18,20.62 0.63,22.64 -2.28,23.13 -5.21,23.62 -8.06,22.62 -10.91,21.61 -12.47,18.95 -14.03,16.29 -13.54,12.72 -13.05,9.15 -9.96,4.75 -6.87,0.34 -3.66,-0.60 -0.45,-1.54 -0.26,-1.58 -0.07,-1.61 0.12,-1.59 0.31,-1.58 0.50,-1.52 0.68,-1.46 0.85,-1.35 1.01,-1.25 1.15,-1.11 1.28,-0.97 1.38,-0.80 1.48,-0.63 1.53,-0.45 1.59,-0.26 1.60,-0.07 1.60,0.12 1.57,0.31 1.53,0.50 1.45,0.68 1.36,0.85 1.24,1.00 1.12,1.15 0.96,1.27 0.81,1.39 0.63,1.47 0.45,1.54 0.45,1.54 L 0.45,1.54 Z"></path></g><g transform="translate(298.052317786987 119.91144378037926) rotate(0 -3.1400538529939865 10.362177714880133)" stroke="none"><path fill="#1971c2" d="M 0.10,1.61 Q 0.10,1.61 -2.74,1.89 -5.59,2.17 -7.29,3.24 -9.00,4.32 -10.08,6.30 -11.16,8.27 -11.24,10.42 -11.31,12.57 -10.43,14.45 -9.55,16.33 -8.20,17.55 -6.84,18.77 -4.96,19.31 -3.08,19.86 -1.10,19.26 0.88,18.65 2.39,17.09 3.91,15.52 4.53,13.44 5.16,11.37 5.43,8.86 5.69,6.35 5.19,4.61 4.70,2.86 2.32,1.46 -0.04,0.05 -0.25,0.01 -0.46,-0.02 -0.64,-0.13 -0.82,-0.23 -0.97,-0.39 -1.11,-0.55 -1.19,-0.75 -1.27,-0.94 -1.29,-1.15 -1.30,-1.37 -1.25,-1.57 -1.20,-1.78 -1.08,-1.96 -0.97,-2.13 -0.80,-2.27 -0.63,-2.40 -0.43,-2.47 -0.23,-2.54 -0.02,-2.55 0.18,-2.55 0.38,-2.49 0.59,-2.42 0.76,-2.30 0.93,-2.17 1.05,-2.00 1.18,-1.83 1.24,-1.62 1.30,-1.42 1.29,-1.21 1.28,-0.99 1.21,-0.80 1.13,-0.60 1.00,-0.43 0.87,-0.27 0.69,-0.15 0.51,-0.04 0.30,0.00 0.09,0.05 -0.11,0.03 -0.32,0.01 -0.52,-0.06 -0.71,-0.15 -0.87,-0.29 -1.02,-0.44 -1.13,-0.62 -1.23,-0.81 -1.27,-1.02 -1.31,-1.22 -1.28,-1.43 -1.25,-1.64 -1.15,-1.83 -1.06,-2.02 -0.91,-2.17 -0.75,-2.32 -0.56,-2.42 -0.37,-2.51 -0.16,-2.54 0.04,-2.56 0.04,-2.56 0.04,-2.56 3.27,-2.24 6.49,-1.91 7.97,-0.28 9.45,1.34 10.04,4.15 10.62,6.96 10.03,10.06 9.44,13.16 8.06,15.79 6.68,18.41 4.32,20.26 1.95,22.12 -0.93,22.76 -3.82,23.40 -6.62,22.63 -9.42,21.86 -11.42,19.98 -13.42,18.10 -14.49,15.25 -15.56,12.39 -15.13,9.33 -14.70,6.27 -12.88,3.65 -11.07,1.03 -8.51,-0.20 -5.96,-1.45 -3.03,-1.53 -0.10,-1.61 0.09,-1.59 0.28,-1.58 0.47,-1.53 0.65,-1.47 0.82,-1.37 0.99,-1.27 1.13,-1.13 1.26,-0.99 1.36,-0.83 1.47,-0.66 1.52,-0.47 1.58,-0.29 1.59,-0.09 1.61,0.09 1.57,0.28 1.54,0.47 1.46,0.65 1.38,0.83 1.26,0.98 1.14,1.13 0.99,1.25 0.83,1.37 0.66,1.45 0.48,1.54 0.29,1.57 0.10,1.61 0.10,1.61 L 0.10,1.61 Z"></path></g><g stroke-linecap="round"><g transform="translate(207.6187668207604 49.57423747331417) rotate(0 1.8840323117964033 81.64140017784341)"><path d="M0 0 C0.63 27.21, 3.14 136.07, 3.77 163.28 M0 0 C0.63 27.21, 3.14 136.07, 3.77 163.28" stroke="#1971c2" stroke-width="2" fill="none"></path></g></g><mask></mask><g stroke-linecap="round"><g transform="translate(152.3538190080664 67.78654982067924) rotate(0 55.5789531979934 61.23105013338257)"><path d="M0 0 C18.53 20.41, 92.63 102.05, 111.16 122.46 M0 0 C18.53 20.41, 92.63 102.05, 111.16 122.46" stroke="#1971c2" stroke-width="2" fill="none"></path></g></g><mask></mask></svg>