<svg version="1.1" xmlns="http://www.w3.org/2000/svg" viewBox="0 0 782.5000610351562 372.7777404785156" width="782.5000610351562" height="372.7777404785156" class="excalidraw-svg"><!-- svg-source:excalidraw --><metadata></metadata><defs><style class="style-fonts">
      </style></defs><g transform="translate(12.77777099609375 267.6387939453125) rotate(0 110.41667175292969 -48.958282470703125)" stroke="none"><path fill="#1e1e1e" d="M -0.38,-1.55 Q -0.38,-1.55 1.19,-2.00 2.77,-2.46 5.33,-3.53 7.90,-4.60 12.06,-6.27 16.22,-7.93 19.75,-9.60 23.27,-11.28 26.78,-12.98 30.29,-14.69 36.39,-17.61 42.48,-20.53 47.67,-22.97 52.86,-25.40 57.85,-27.83 62.85,-30.25 70.77,-34.08 78.68,-37.90 85.05,-40.93 91.41,-43.95 100.11,-48.03 108.80,-52.11 115.49,-55.24 122.18,-58.37 130.43,-62.10 138.67,-65.83 144.78,-68.42 150.89,-71.00 158.07,-74.10 165.25,-77.19 170.51,-79.31 175.77,-81.43 181.79,-83.92 187.81,-86.41 191.95,-88.26 196.09,-90.11 199.47,-91.51 202.85,-92.91 206.71,-94.31 210.56,-95.70 212.96,-96.69 215.36,-97.67 218.16,-98.87 220.97,-100.07 221.21,-100.12 221.46,-100.17 221.71,-100.13 221.96,-100.10 222.19,-99.99 222.42,-99.88 222.60,-99.71 222.78,-99.53 222.89,-99.31 223.01,-99.08 223.05,-98.83 223.08,-98.58 223.04,-98.33 222.99,-98.08 222.87,-97.86 222.75,-97.64 222.56,-97.47 222.38,-97.30 222.15,-97.20 221.92,-97.10 221.67,-97.07 221.41,-97.05 221.17,-97.11 220.92,-97.16 220.71,-97.30 220.49,-97.43 220.33,-97.63 220.17,-97.82 220.08,-98.06 219.99,-98.29 219.98,-98.55 219.97,-98.80 220.04,-99.04 220.12,-99.28 220.26,-99.49 220.41,-99.70 220.61,-99.85 220.81,-100.00 221.05,-100.07 221.29,-100.15 221.55,-100.15 221.80,-100.14 222.04,-100.06 222.28,-99.97 222.47,-99.82 222.67,-99.66 222.81,-99.45 222.95,-99.24 223.01,-98.99 223.08,-98.75 223.06,-98.50 223.04,-98.25 222.94,-98.01 222.85,-97.78 222.68,-97.59 222.51,-97.40 222.30,-97.27 222.08,-97.15 222.08,-97.15 222.08,-97.15 219.22,-96.19 216.35,-95.23 213.90,-94.23 211.46,-93.23 207.66,-91.86 203.86,-90.48 200.51,-89.09 197.16,-87.71 192.99,-85.85 188.82,-83.98 182.79,-81.48 176.76,-78.98 171.52,-76.87 166.29,-74.77 159.10,-71.67 151.92,-68.57 145.84,-66.00 139.76,-63.42 131.53,-59.70 123.31,-55.97 116.62,-52.84 109.93,-49.70 101.25,-45.62 92.56,-41.54 86.21,-38.51 79.85,-35.48 71.95,-31.65 64.04,-27.81 59.03,-25.37 54.03,-22.92 48.86,-20.47 43.69,-18.02 37.62,-15.07 31.55,-12.13 28.05,-10.38 24.55,-8.63 20.97,-6.87 17.38,-5.11 13.28,-3.38 9.18,-1.66 6.40,-0.39 3.61,0.86 2.00,1.20 0.38,1.55 0.19,1.57 0.00,1.59 -0.18,1.57 -0.37,1.55 -0.55,1.48 -0.73,1.41 -0.89,1.30 -1.05,1.19 -1.18,1.05 -1.31,0.91 -1.40,0.74 -1.49,0.57 -1.53,0.38 -1.58,0.19 -1.58,0.00 -1.58,-0.18 -1.54,-0.37 -1.49,-0.56 -1.40,-0.73 -1.31,-0.90 -1.19,-1.04 -1.06,-1.19 -0.90,-1.30 -0.74,-1.41 -0.56,-1.48 -0.38,-1.55 -0.38,-1.55 L -0.38,-1.55 Z"></path></g><g transform="translate(208.611083984375 166.25) rotate(0 23.61114501953125 5.902740478515625)" stroke="none"><path fill="#1e1e1e" d="M -1.00,-1.68 Q -1.00,-1.68 -0.04,-2.34 0.91,-3.00 3.43,-4.18 5.95,-5.36 7.61,-5.69 9.26,-6.01 11.32,-6.22 13.37,-6.44 14.98,-6.76 16.59,-7.08 19.04,-7.14 21.48,-7.20 23.18,-7.45 24.88,-7.71 27.12,-7.75 29.36,-7.80 31.10,-7.88 32.83,-7.96 34.77,-7.97 36.71,-7.97 38.14,-8.05 39.56,-8.13 40.76,-8.00 41.96,-7.87 43.07,-7.86 44.17,-7.86 45.65,-7.90 47.14,-7.94 48.35,-6.71 49.56,-5.48 48.83,-3.75 48.10,-2.01 46.78,-1.13 45.45,-0.24 44.05,1.07 42.65,2.38 41.13,4.04 39.60,5.70 38.78,6.62 37.95,7.54 37.05,8.62 36.14,9.69 35.07,10.83 33.99,11.97 33.11,13.43 32.22,14.88 31.23,17.20 30.24,19.53 29.93,19.88 29.63,20.24 29.24,20.48 28.84,20.72 28.38,20.82 27.93,20.92 27.47,20.87 27.01,20.82 26.58,20.62 26.16,20.43 25.82,20.11 25.49,19.79 25.27,19.38 25.05,18.97 24.98,18.51 24.90,18.05 24.98,17.59 25.05,17.13 25.27,16.72 25.49,16.31 25.82,15.99 26.16,15.67 26.58,15.48 27.00,15.28 27.47,15.23 27.93,15.18 28.38,15.28 28.84,15.38 29.23,15.62 29.63,15.86 29.93,16.21 30.23,16.57 30.41,17.00 30.58,17.43 30.60,17.90 30.63,18.36 30.50,18.81 30.38,19.26 30.12,19.64 29.86,20.03 29.49,20.31 29.12,20.59 28.68,20.74 28.24,20.89 27.77,20.89 27.31,20.89 26.87,20.74 26.43,20.59 26.06,20.31 25.69,20.03 25.43,19.64 25.17,19.26 25.04,18.81 24.92,18.36 24.94,17.90 24.97,17.43 25.14,17.00 25.31,16.57 25.31,16.57 25.31,16.57 25.89,15.38 26.47,14.19 27.52,12.26 28.58,10.33 29.31,9.36 30.05,8.39 30.97,7.34 31.89,6.29 32.85,5.03 33.80,3.78 34.55,2.96 35.30,2.15 37.05,0.20 38.81,-1.75 39.64,-2.50 40.47,-3.25 41.59,-4.16 42.70,-5.08 43.98,-5.42 45.25,-5.76 45.92,-4.48 46.60,-3.21 45.23,-3.35 43.87,-3.49 41.72,-3.91 39.57,-4.33 38.16,-4.40 36.75,-4.46 34.84,-4.42 32.93,-4.39 31.23,-4.38 29.54,-4.37 27.48,-4.19 25.42,-4.01 23.56,-3.75 21.71,-3.49 19.55,-3.27 17.39,-3.04 15.69,-2.71 13.99,-2.37 12.01,-1.97 10.03,-1.57 8.78,-1.39 7.52,-1.21 5.30,-0.30 3.08,0.60 2.04,1.14 1.00,1.68 0.79,1.77 0.57,1.87 0.34,1.91 0.11,1.95 -0.12,1.94 -0.35,1.92 -0.58,1.85 -0.81,1.78 -1.01,1.66 -1.21,1.53 -1.38,1.37 -1.54,1.20 -1.66,1.00 -1.78,0.79 -1.85,0.57 -1.92,0.34 -1.94,0.11 -1.95,-0.12 -1.91,-0.35 -1.86,-0.58 -1.77,-0.80 -1.67,-1.01 -1.52,-1.20 -1.38,-1.39 -1.19,-1.53 -1.00,-1.68 -1.00,-1.68 L -1.00,-1.68 Z"></path></g><g transform="translate(264.16668701171875 206.5277099609375) rotate(0 9.722198486328125 19.09722900390625)" stroke="none"><path fill="#1e1e1e" d="M 1.88,1.25 Q 1.88,1.25 1.10,2.46 0.31,3.67 -0.65,5.00 -1.62,6.34 -3.00,8.63 -4.38,10.93 -4.86,12.03 -5.34,13.13 -6.26,14.82 -7.18,16.51 -7.68,17.78 -8.19,19.05 -8.62,20.64 -9.04,22.22 -9.16,23.29 -9.27,24.36 -9.36,25.91 -9.45,27.46 -8.84,29.34 -8.24,31.21 -6.52,32.33 -4.80,33.44 -2.67,34.00 -0.54,34.55 0.63,34.89 1.81,35.23 3.42,35.42 5.03,35.62 7.17,35.82 9.30,36.01 10.69,35.82 12.07,35.64 13.89,35.41 15.71,35.19 17.16,35.02 18.60,34.85 20.33,34.63 22.07,34.42 23.33,34.09 24.60,33.76 25.95,33.40 27.30,33.04 28.89,32.42 30.48,31.80 30.85,31.73 31.23,31.67 31.60,31.73 31.98,31.79 32.32,31.96 32.66,32.14 32.92,32.41 33.18,32.69 33.35,33.03 33.51,33.38 33.55,33.75 33.60,34.13 33.52,34.51 33.44,34.88 33.24,35.21 33.05,35.53 32.76,35.78 32.47,36.03 32.12,36.17 31.77,36.32 31.39,36.34 31.01,36.36 30.64,36.27 30.27,36.17 29.96,35.95 29.64,35.74 29.41,35.44 29.17,35.14 29.05,34.78 28.92,34.42 28.92,34.04 28.92,33.66 29.04,33.30 29.16,32.94 29.39,32.63 29.61,32.33 29.93,32.11 30.24,31.89 30.61,31.79 30.97,31.68 31.35,31.70 31.73,31.72 32.09,31.86 32.44,32.00 32.74,32.24 33.03,32.49 33.23,32.81 33.43,33.14 33.51,33.51 33.59,33.88 33.56,34.26 33.52,34.64 33.36,34.98 33.20,35.33 32.94,35.61 32.68,35.89 32.35,36.07 32.01,36.25 32.01,36.25 32.01,36.25 30.18,36.81 28.34,37.37 26.94,37.67 25.54,37.97 24.09,38.25 22.64,38.53 20.80,38.81 18.96,39.10 17.63,39.16 16.31,39.22 14.43,39.54 12.55,39.86 10.87,40.02 9.19,40.18 6.92,40.25 4.66,40.32 2.50,40.21 0.34,40.10 -0.77,39.73 -1.89,39.36 -3.24,38.97 -4.58,38.57 -6.03,38.01 -7.48,37.46 -8.99,36.45 -10.49,35.44 -11.54,34.25 -12.59,33.07 -13.13,31.51 -13.67,29.95 -13.79,28.61 -13.92,27.27 -13.85,25.45 -13.78,23.63 -13.53,22.40 -13.27,21.18 -12.82,19.24 -12.38,17.30 -11.77,15.92 -11.17,14.55 -10.41,12.82 -9.65,11.10 -9.01,9.81 -8.36,8.52 -7.52,7.08 -6.68,5.65 -6.00,4.66 -5.32,3.68 -4.42,2.40 -3.51,1.11 -2.69,-0.06 -1.88,-1.25 -1.70,-1.46 -1.52,-1.67 -1.30,-1.83 -1.08,-1.98 -0.83,-2.08 -0.57,-2.19 -0.30,-2.22 -0.03,-2.26 0.23,-2.23 0.50,-2.20 0.76,-2.11 1.02,-2.02 1.24,-1.87 1.47,-1.71 1.65,-1.51 1.84,-1.31 1.97,-1.07 2.10,-0.83 2.17,-0.57 2.24,-0.30 2.24,-0.03 2.25,0.23 2.19,0.50 2.13,0.76 2.00,1.01 1.88,1.25 1.88,1.25 L 1.88,1.25 Z"></path></g><g transform="translate(273.1944580078125 205.13885498046875) rotate(0 13.194427490234375 -1.388916015625)" stroke="none"><path fill="#1e1e1e" d="M -0.52,-2.09 Q -0.52,-2.09 1.89,-2.58 4.32,-3.07 6.24,-3.33 8.16,-3.59 10.54,-3.82 12.93,-4.05 14.58,-4.24 16.22,-4.42 18.25,-4.26 20.27,-4.10 21.64,-4.11 23.02,-4.12 24.94,-3.78 26.85,-3.45 27.17,-3.32 27.49,-3.19 27.74,-2.96 28.00,-2.74 28.18,-2.45 28.35,-2.15 28.42,-1.82 28.50,-1.48 28.46,-1.14 28.42,-0.80 28.27,-0.50 28.13,-0.19 27.89,0.05 27.65,0.30 27.35,0.46 27.05,0.61 26.71,0.67 26.37,0.72 26.03,0.66 25.70,0.60 25.39,0.44 25.09,0.28 24.86,0.03 24.63,-0.21 24.48,-0.52 24.34,-0.83 24.31,-1.17 24.27,-1.51 24.35,-1.85 24.43,-2.18 24.60,-2.47 24.78,-2.76 25.04,-2.98 25.31,-3.20 25.63,-3.33 25.94,-3.45 26.29,-3.47 26.63,-3.48 26.96,-3.39 27.28,-3.30 27.57,-3.10 27.85,-2.91 28.05,-2.63 28.26,-2.36 28.37,-2.04 28.47,-1.71 28.47,-1.37 28.47,-1.03 28.36,-0.70 28.24,-0.38 28.04,-0.11 27.83,0.15 27.54,0.34 27.26,0.53 26.93,0.62 26.60,0.71 26.26,0.69 25.91,0.67 25.92,0.67 25.92,0.67 24.38,0.22 22.84,-0.22 21.42,-0.35 19.99,-0.48 18.26,-0.61 16.52,-0.74 14.95,-0.66 13.38,-0.58 11.04,-0.20 8.69,0.18 6.97,0.43 5.26,0.68 2.89,1.39 0.52,2.09 0.26,2.13 0.00,2.16 -0.25,2.13 -0.51,2.10 -0.75,2.01 -0.99,1.91 -1.21,1.77 -1.42,1.62 -1.60,1.43 -1.77,1.23 -1.89,1.00 -2.02,0.77 -2.08,0.52 -2.14,0.26 -2.14,0.00 -2.14,-0.25 -2.08,-0.50 -2.02,-0.76 -1.90,-0.99 -1.78,-1.22 -1.61,-1.41 -1.44,-1.61 -1.22,-1.76 -1.01,-1.91 -0.76,-2.00 -0.52,-2.09 -0.52,-2.09 L -0.52,-2.09 Z"></path></g><g transform="translate(260.6944580078125 223.19439697265625) rotate(0 15.27777099609375 -2.083343505859375)" stroke="none"><path fill="#1e1e1e" d="M -0.40,-2.00 Q -0.40,-2.00 1.60,-2.33 3.62,-2.66 5.24,-3.04 6.86,-3.42 9.23,-3.71 11.61,-3.99 13.34,-4.35 15.08,-4.71 17.27,-5.00 19.46,-5.29 21.66,-5.40 23.85,-5.51 25.36,-5.66 26.88,-5.80 28.69,-5.94 30.50,-6.08 30.81,-6.04 31.12,-6.00 31.40,-5.86 31.67,-5.72 31.89,-5.50 32.11,-5.28 32.25,-5.00 32.39,-4.72 32.43,-4.42 32.47,-4.11 32.41,-3.80 32.35,-3.50 32.20,-3.23 32.05,-2.96 31.82,-2.75 31.58,-2.54 31.30,-2.42 31.01,-2.30 30.70,-2.27 30.39,-2.25 30.09,-2.32 29.79,-2.40 29.53,-2.56 29.26,-2.73 29.07,-2.97 28.88,-3.22 28.77,-3.51 28.66,-3.80 28.65,-4.11 28.65,-4.42 28.74,-4.72 28.83,-5.02 29.01,-5.27 29.19,-5.52 29.45,-5.70 29.70,-5.89 30.00,-5.98 30.29,-6.07 30.60,-6.06 30.92,-6.05 31.21,-5.94 31.50,-5.83 31.74,-5.64 31.98,-5.44 32.15,-5.18 32.32,-4.92 32.39,-4.62 32.47,-4.31 32.44,-4.00 32.42,-3.69 32.29,-3.41 32.17,-3.12 31.96,-2.89 31.75,-2.66 31.48,-2.51 31.21,-2.36 30.91,-2.30 30.60,-2.24 30.60,-2.24 30.60,-2.24 28.81,-2.29 27.02,-2.34 25.54,-2.36 24.07,-2.37 22.03,-2.19 20.00,-2.00 17.89,-1.60 15.77,-1.19 13.96,-0.84 12.15,-0.50 9.93,-0.07 7.71,0.35 6.03,0.70 4.36,1.06 2.38,1.53 0.40,2.00 0.15,2.02 -0.09,2.04 -0.33,2.00 -0.57,1.96 -0.80,1.86 -1.03,1.77 -1.22,1.62 -1.42,1.47 -1.58,1.28 -1.73,1.08 -1.84,0.86 -1.94,0.64 -1.99,0.39 -2.04,0.15 -2.03,-0.09 -2.02,-0.33 -1.95,-0.57 -1.88,-0.81 -1.75,-1.02 -1.63,-1.23 -1.46,-1.41 -1.28,-1.59 -1.08,-1.72 -0.87,-1.85 -0.63,-1.93 -0.40,-2.00 -0.40,-2.00 L -0.40,-2.00 Z"></path></g><g transform="translate(261.388916015625 186.38885498046875) rotate(0 24.999969482421875 -9.02777099609375)" stroke="none"><path fill="#1e1e1e" d="M -0.50,-1.77 Q -0.50,-1.77 0.87,-2.23 2.25,-2.68 3.57,-2.95 4.88,-3.22 6.79,-3.43 8.70,-3.65 11.21,-3.69 13.71,-3.72 15.45,-3.96 17.20,-4.20 19.79,-4.44 22.39,-4.68 24.32,-4.82 26.25,-4.96 28.08,-5.04 29.92,-5.12 32.23,-5.28 34.54,-5.44 36.17,-5.60 37.80,-5.76 39.84,-5.95 41.87,-6.13 43.18,-6.33 44.48,-6.53 45.72,-6.83 46.96,-7.13 45.77,-7.24 44.58,-7.35 42.84,-8.02 41.10,-8.70 39.21,-9.71 37.31,-10.72 36.08,-12.15 34.84,-13.59 35.68,-17.03 36.51,-20.47 36.94,-20.68 37.37,-20.88 37.84,-20.94 38.32,-21.00 38.79,-20.90 39.25,-20.80 39.66,-20.56 40.08,-20.32 40.39,-19.96 40.70,-19.60 40.88,-19.16 41.06,-18.71 41.09,-18.24 41.12,-17.76 41.00,-17.30 40.88,-16.84 40.62,-16.44 40.35,-16.04 39.97,-15.75 39.60,-15.46 39.15,-15.30 38.70,-15.15 38.22,-15.14 37.74,-15.14 37.29,-15.28 36.83,-15.43 36.45,-15.72 36.07,-16.00 35.80,-16.39 35.53,-16.78 35.39,-17.24 35.26,-17.70 35.28,-18.18 35.30,-18.65 35.47,-19.10 35.65,-19.54 35.95,-19.91 36.26,-20.28 36.66,-20.53 37.07,-20.78 37.53,-20.89 38.00,-20.99 38.47,-20.95 38.95,-20.90 39.38,-20.70 39.82,-20.51 40.17,-20.18 40.52,-19.86 40.75,-19.44 40.97,-19.02 41.06,-18.55 41.14,-18.08 41.07,-17.61 40.99,-17.14 40.77,-16.71 40.56,-16.29 40.21,-15.96 39.87,-15.63 39.87,-15.63 39.87,-15.63 40.09,-15.52 40.31,-15.41 41.57,-14.58 42.83,-13.76 44.17,-13.27 45.51,-12.79 47.18,-11.76 48.85,-10.73 50.16,-9.82 51.47,-8.92 51.46,-6.98 51.45,-5.04 49.56,-4.15 47.67,-3.26 46.22,-3.07 44.77,-2.88 43.51,-2.87 42.25,-2.87 40.13,-2.57 38.01,-2.28 36.43,-2.25 34.85,-2.22 32.44,-1.94 30.02,-1.65 28.25,-1.62 26.48,-1.59 24.63,-1.47 22.78,-1.35 20.23,-0.98 17.69,-0.61 15.79,-0.35 13.89,-0.10 11.58,0.09 9.27,0.29 7.37,0.61 5.47,0.94 4.40,1.01 3.33,1.08 1.91,1.43 0.50,1.77 0.28,1.80 0.06,1.84 -0.15,1.82 -0.37,1.80 -0.58,1.73 -0.79,1.66 -0.98,1.54 -1.17,1.42 -1.32,1.26 -1.47,1.10 -1.59,0.91 -1.70,0.71 -1.76,0.50 -1.82,0.28 -1.83,0.06 -1.83,-0.15 -1.79,-0.37 -1.74,-0.59 -1.65,-0.79 -1.55,-0.99 -1.41,-1.16 -1.27,-1.33 -1.09,-1.46 -0.91,-1.60 -0.71,-1.68 -0.50,-1.77 -0.50,-1.77 L -0.50,-1.77 Z"></path></g><g transform="translate(10 268.3333740234375) rotate(0 59.72222900390625 -28.819427490234375)" stroke="none"><path fill="#e03131" d="M -0.79,-1.43 Q -0.79,-1.43 1.01,-2.40 2.82,-3.38 4.12,-4.25 5.43,-5.11 7.72,-6.06 10.02,-7.01 11.72,-7.82 13.42,-8.62 16.12,-10.10 18.81,-11.57 21.20,-12.80 23.59,-14.04 26.03,-15.16 28.47,-16.29 32.26,-18.33 36.05,-20.38 39.28,-22.05 42.52,-23.73 47.09,-26.04 51.66,-28.35 55.23,-29.94 58.80,-31.53 63.50,-33.59 68.21,-35.66 71.60,-37.14 75.00,-38.61 79.06,-40.24 83.11,-41.88 85.83,-42.97 88.54,-44.05 91.70,-45.32 94.85,-46.58 97.18,-47.51 99.52,-48.45 101.90,-49.44 104.29,-50.43 105.89,-51.13 107.49,-51.84 109.52,-52.85 111.54,-53.86 112.71,-54.75 113.87,-55.64 114.97,-56.47 116.06,-57.31 117.16,-58.25 118.25,-59.19 118.53,-59.34 118.81,-59.49 119.12,-59.54 119.44,-59.59 119.75,-59.54 120.06,-59.49 120.34,-59.34 120.62,-59.20 120.84,-58.97 121.06,-58.74 121.19,-58.45 121.33,-58.16 121.36,-57.85 121.40,-57.53 121.33,-57.22 121.26,-56.91 121.10,-56.64 120.93,-56.37 120.69,-56.16 120.45,-55.96 120.16,-55.84 119.86,-55.72 119.55,-55.70 119.23,-55.69 118.92,-55.77 118.62,-55.85 118.36,-56.03 118.09,-56.21 117.90,-56.46 117.71,-56.71 117.61,-57.01 117.51,-57.31 117.51,-57.63 117.51,-57.95 117.61,-58.25 117.71,-58.55 117.90,-58.80 118.09,-59.06 118.35,-59.23 118.61,-59.41 118.92,-59.50 119.23,-59.58 119.54,-59.57 119.86,-59.55 120.15,-59.43 120.45,-59.31 120.69,-59.11 120.93,-58.90 121.10,-58.63 121.26,-58.36 121.33,-58.05 121.40,-57.74 121.36,-57.43 121.33,-57.11 121.20,-56.82 121.06,-56.54 120.84,-56.31 120.63,-56.07 120.63,-56.07 120.63,-56.08 119.34,-55.20 118.04,-54.32 116.85,-53.64 115.65,-52.95 114.25,-52.13 112.84,-51.32 110.70,-50.20 108.56,-49.09 106.93,-48.54 105.30,-48.00 102.90,-47.00 100.50,-46.00 98.17,-45.06 95.83,-44.13 92.68,-42.86 89.53,-41.60 86.82,-40.51 84.10,-39.42 80.09,-37.79 76.07,-36.17 72.68,-34.69 69.29,-33.21 64.59,-31.14 59.90,-29.07 56.40,-27.49 52.89,-25.92 48.34,-23.60 43.79,-21.29 40.59,-19.60 37.39,-17.91 33.54,-15.80 29.70,-13.69 27.34,-12.55 24.98,-11.42 22.66,-10.14 20.33,-8.87 17.57,-7.27 14.80,-5.66 13.06,-4.86 11.31,-4.06 9.26,-3.11 7.20,-2.16 5.78,-1.38 4.36,-0.60 2.58,0.41 0.79,1.43 0.61,1.50 0.43,1.58 0.23,1.61 0.03,1.63 -0.15,1.62 -0.35,1.60 -0.54,1.53 -0.72,1.47 -0.89,1.36 -1.05,1.25 -1.19,1.10 -1.32,0.96 -1.42,0.79 -1.51,0.61 -1.57,0.42 -1.62,0.23 -1.62,0.03 -1.63,-0.15 -1.58,-0.35 -1.54,-0.54 -1.45,-0.72 -1.37,-0.89 -1.24,-1.05 -1.11,-1.20 -0.95,-1.31 -0.79,-1.43 -0.79,-1.43 L -0.79,-1.43 Z"></path></g><g transform="translate(112.0833740234375 205.8333740234375) rotate(0 13.194427490234375 9.375)" stroke="none"><path fill="#e03131" d="M 0,-2.47 Q 0,-2.47 1.19,-2.50 2.39,-2.53 3.50,-2.72 4.62,-2.92 5.87,-3.04 7.13,-3.16 8.68,-3.18 10.23,-3.20 11.48,-3.23 12.72,-3.26 14.09,-3.43 15.46,-3.60 16.79,-3.71 18.11,-3.82 19.49,-3.87 20.88,-3.91 23.14,-3.78 25.40,-3.64 26.60,-3.49 27.80,-3.34 28.74,-2.75 29.68,-2.16 30.15,-0.63 30.63,0.90 30.28,2.02 29.92,3.14 29.07,3.93 28.22,4.73 27.49,5.73 26.76,6.73 25.90,7.42 25.03,8.10 23.35,9.44 21.67,10.78 20.11,12.19 18.54,13.60 17.48,14.40 16.42,15.21 15.53,16.58 14.64,17.95 13.48,19.81 12.33,21.68 12.02,22.05 11.70,22.43 11.28,22.69 10.87,22.94 10.39,23.05 9.91,23.16 9.42,23.11 8.93,23.07 8.48,22.86 8.04,22.66 7.68,22.33 7.32,21.99 7.08,21.56 6.85,21.13 6.77,20.64 6.68,20.16 6.76,19.68 6.83,19.19 7.06,18.75 7.29,18.32 7.64,17.98 7.99,17.64 8.44,17.43 8.88,17.22 9.37,17.16 9.86,17.10 10.34,17.20 10.82,17.30 11.24,17.55 11.66,17.80 11.98,18.18 12.30,18.55 12.49,19.00 12.68,19.46 12.71,19.95 12.74,20.44 12.61,20.91 12.48,21.38 12.21,21.79 11.94,22.20 11.55,22.50 11.16,22.80 10.70,22.96 10.23,23.12 9.74,23.13 9.25,23.13 8.79,22.98 8.32,22.83 7.93,22.53 7.53,22.24 7.25,21.84 6.97,21.43 6.84,20.96 6.70,20.49 6.73,20.00 6.75,19.51 6.93,19.05 7.10,18.59 7.10,18.59 7.10,18.59 8.30,16.75 9.51,14.90 10.28,13.59 11.06,12.27 12.70,10.72 14.35,9.17 15.17,8.39 15.99,7.60 17.66,6.23 19.33,4.85 20.73,3.68 22.13,2.51 23.26,2.09 24.38,1.68 22.70,1.46 21.02,1.24 19.75,1.27 18.47,1.30 17.31,1.37 16.14,1.43 14.47,1.67 12.79,1.92 11.57,1.92 10.36,1.91 7.87,2.02 5.39,2.12 3.89,2.32 2.40,2.53 1.20,2.50 0,2.47 -0.29,2.44 -0.59,2.40 -0.87,2.29 -1.15,2.19 -1.39,2.02 -1.64,1.85 -1.84,1.63 -2.03,1.40 -2.17,1.14 -2.31,0.87 -2.38,0.58 -2.45,0.29 -2.45,-0.00 -2.45,-0.29 -2.38,-0.58 -2.31,-0.87 -2.17,-1.14 -2.03,-1.40 -1.84,-1.63 -1.64,-1.85 -1.39,-2.02 -1.15,-2.19 -0.87,-2.29 -0.59,-2.40 -0.29,-2.44 0.00,-2.47 0.00,-2.47 L 0,-2.47 Z"></path></g><g transform="translate(430.138916015625 282.2221984863281) rotate(0 140.625 -79.1666259765625)" stroke="none"><path fill="#1e1e1e" d="M 0.91,1.52 Q 0.91,1.52 -0.02,2.19 -0.96,2.86 -1.17,3.16 -1.38,3.47 -1.61,3.57 -1.83,3.67 -2.08,3.72 -2.32,3.76 -2.57,3.75 -2.82,3.73 -3.06,3.65 -3.29,3.58 -3.51,3.45 -3.72,3.32 -3.89,3.14 -4.07,2.97 -4.20,2.76 -4.32,2.54 -4.40,2.30 -4.47,2.07 -4.48,1.82 -4.50,1.57 -4.45,1.33 -4.41,1.08 -4.30,0.86 -4.20,0.63 -4.05,0.43 -3.89,0.24 -3.70,0.09 -3.50,-0.06 -2.40,-0.47 -1.29,-0.89 0.35,-1.68 2.01,-2.47 4.01,-3.38 6.02,-4.30 8.02,-5.43 10.03,-6.56 14.53,-9.05 19.03,-11.53 23.33,-13.97 27.63,-16.40 35.04,-20.81 42.46,-25.23 48.81,-29.09 55.16,-32.96 64.85,-38.79 74.55,-44.63 82.67,-49.30 90.80,-53.98 102.03,-60.55 113.26,-67.13 121.83,-72.12 130.41,-77.11 141.24,-83.22 152.08,-89.34 160.08,-93.93 168.07,-98.52 174.66,-102.27 181.26,-106.02 189.66,-110.61 198.07,-115.20 204.02,-118.55 209.98,-121.89 216.91,-125.71 223.84,-129.53 228.98,-132.35 234.12,-135.17 239.92,-138.18 245.71,-141.18 249.77,-143.25 253.82,-145.33 258.13,-147.60 262.44,-149.87 265.48,-151.44 268.52,-153.01 271.59,-154.67 274.67,-156.33 276.56,-157.43 278.46,-158.52 281.22,-160.15 283.98,-161.78 284.22,-161.86 284.45,-161.94 284.71,-161.94 284.96,-161.95 285.20,-161.87 285.43,-161.79 285.64,-161.64 285.84,-161.49 285.98,-161.28 286.12,-161.07 286.19,-160.83 286.26,-160.59 286.25,-160.34 286.24,-160.09 286.15,-159.85 286.05,-159.62 285.89,-159.43 285.73,-159.24 285.52,-159.10 285.30,-158.97 285.06,-158.92 284.81,-158.86 284.56,-158.89 284.31,-158.91 284.08,-159.02 283.86,-159.12 283.67,-159.29 283.49,-159.46 283.37,-159.68 283.25,-159.90 283.21,-160.15 283.16,-160.40 283.20,-160.65 283.24,-160.90 283.36,-161.12 283.47,-161.34 283.65,-161.52 283.84,-161.69 284.06,-161.80 284.29,-161.91 284.54,-161.93 284.79,-161.96 285.04,-161.91 285.28,-161.86 285.50,-161.73 285.71,-161.60 285.88,-161.41 286.04,-161.22 286.14,-160.99 286.23,-160.76 286.25,-160.51 286.26,-160.25 286.20,-160.01 286.13,-159.77 285.99,-159.56 285.85,-159.35 285.65,-159.20 285.45,-159.04 285.46,-159.04 285.46,-159.04 282.61,-157.65 279.77,-156.25 277.85,-155.13 275.92,-154.02 272.82,-152.35 269.73,-150.68 266.70,-149.11 263.67,-147.55 259.34,-145.27 255.02,-142.98 250.97,-140.91 246.92,-138.84 241.16,-135.85 235.39,-132.87 230.25,-130.04 225.11,-127.22 218.19,-123.41 211.27,-119.59 205.30,-116.24 199.33,-112.89 190.95,-108.30 182.57,-103.72 175.98,-99.97 169.39,-96.22 161.39,-91.62 153.39,-87.02 142.57,-80.90 131.76,-74.79 123.19,-69.79 114.63,-64.80 103.40,-58.21 92.16,-51.62 84.07,-46.94 75.98,-42.25 66.30,-36.40 56.63,-30.55 50.29,-26.64 43.95,-22.74 36.54,-18.27 29.12,-13.80 24.85,-11.30 20.57,-8.80 16.16,-6.25 11.74,-3.71 9.69,-2.40 7.64,-1.10 5.73,-0.03 3.82,1.03 1.22,2.25 -1.38,3.47 -1.61,3.57 -1.83,3.67 -2.08,3.72 -2.32,3.76 -2.57,3.75 -2.82,3.73 -3.06,3.65 -3.29,3.58 -3.51,3.45 -3.72,3.32 -3.89,3.15 -4.07,2.97 -4.20,2.76 -4.32,2.54 -4.40,2.30 -4.47,2.07 -4.48,1.82 -4.50,1.57 -4.45,1.33 -4.41,1.08 -4.31,0.86 -4.20,0.63 -4.05,0.43 -3.89,0.24 -3.70,0.09 -3.50,-0.06 -3.26,-0.26 -3.02,-0.46 -1.97,-0.99 -0.91,-1.52 -0.72,-1.61 -0.52,-1.70 -0.31,-1.74 -0.10,-1.77 0.11,-1.76 0.32,-1.75 0.53,-1.68 0.73,-1.62 0.92,-1.51 1.10,-1.39 1.25,-1.24 1.40,-1.09 1.51,-0.91 1.62,-0.72 1.69,-0.52 1.75,-0.31 1.76,-0.10 1.77,0.11 1.73,0.32 1.70,0.53 1.61,0.73 1.52,0.92 1.38,1.09 1.25,1.26 1.08,1.39 0.91,1.52 0.91,1.52 L 0.91,1.52 Z"></path></g><g transform="translate(692.6387939453125 120.41668701171875) rotate(0 16.66668701171875 11.8055419921875)" stroke="none"><path fill="#1e1e1e" d="M -0.19,-2.13 Q -0.19,-2.13 2.01,-2.22 4.21,-2.31 5.88,-2.59 7.54,-2.87 9.98,-2.92 12.43,-2.97 13.92,-3.25 15.41,-3.54 17.38,-3.64 19.35,-3.75 21.46,-3.55 23.57,-3.36 24.80,-3.38 26.03,-3.40 28.14,-3.29 30.25,-3.18 31.82,-2.48 33.39,-1.77 34.16,-0.80 34.93,0.17 35.12,1.27 35.31,2.36 34.67,4.04 34.02,5.73 32.93,6.89 31.85,8.06 30.91,8.84 29.98,9.62 28.90,10.57 27.83,11.51 26.65,12.43 25.47,13.34 24.25,14.39 23.02,15.43 21.81,16.38 20.60,17.33 19.35,18.40 18.10,19.47 17.19,20.37 16.28,21.27 15.07,22.41 13.85,23.55 11.91,25.60 9.96,27.66 9.61,27.86 9.25,28.07 8.84,28.16 8.44,28.24 8.03,28.19 7.62,28.15 7.24,27.97 6.87,27.79 6.57,27.50 6.28,27.22 6.09,26.85 5.90,26.48 5.83,26.07 5.77,25.66 5.84,25.25 5.91,24.85 6.11,24.48 6.31,24.12 6.61,23.84 6.92,23.56 7.29,23.39 7.67,23.22 8.08,23.18 8.49,23.14 8.90,23.23 9.30,23.32 9.65,23.54 10.00,23.76 10.27,24.08 10.53,24.39 10.68,24.78 10.83,25.17 10.85,25.58 10.87,25.99 10.75,26.39 10.64,26.79 10.40,27.13 10.17,27.47 9.83,27.71 9.50,27.96 9.11,28.09 8.71,28.22 8.30,28.21 7.89,28.21 7.50,28.07 7.11,27.94 6.78,27.68 6.45,27.43 6.22,27.08 6.00,26.74 5.89,26.34 5.78,25.94 5.81,25.53 5.84,25.11 5.99,24.73 6.15,24.35 6.42,24.04 6.69,23.72 6.69,23.72 6.69,23.72 7.77,22.93 8.85,22.14 9.68,21.15 10.52,20.17 11.70,18.95 12.89,17.72 13.87,16.82 14.84,15.92 16.15,14.64 17.47,13.36 18.52,12.52 19.58,11.69 20.87,10.41 22.16,9.13 23.14,8.34 24.13,7.56 25.97,5.92 27.81,4.28 28.56,2.73 29.30,1.17 27.56,0.80 25.83,0.43 24.56,0.28 23.30,0.13 21.42,0.01 19.55,-0.09 17.77,0.01 15.99,0.12 14.30,0.33 12.61,0.55 10.39,0.74 8.16,0.93 6.36,1.22 4.56,1.51 2.38,1.82 0.19,2.13 -0.06,2.12 -0.32,2.11 -0.57,2.04 -0.82,1.97 -1.04,1.85 -1.27,1.72 -1.45,1.54 -1.64,1.37 -1.78,1.15 -1.92,0.93 -2.01,0.69 -2.09,0.44 -2.11,0.19 -2.14,-0.06 -2.10,-0.32 -2.06,-0.57 -1.96,-0.81 -1.86,-1.05 -1.71,-1.26 -1.56,-1.46 -1.36,-1.63 -1.16,-1.79 -0.93,-1.91 -0.69,-2.02 -0.44,-2.08 -0.19,-2.13 -0.19,-2.13 L -0.19,-2.13 Z"></path></g><g transform="translate(724.5833129882812 195.41665649414062) rotate(0 9.722198486328125 14.236114501953125)" stroke="none"><path fill="#1e1e1e" d="M 1.69,1.69 Q 1.69,1.69 0.70,2.69 -0.28,3.70 -1.00,4.64 -1.73,5.58 -2.93,6.96 -4.13,8.35 -4.70,9.41 -5.27,10.48 -6.03,12.70 -6.80,14.91 -6.61,16.86 -6.42,18.81 -5.06,20.20 -3.70,21.59 -2.74,22.43 -1.79,23.26 -0.38,23.90 1.02,24.53 2.20,24.78 3.38,25.02 5.45,25.47 7.51,25.92 8.97,26.03 10.42,26.14 12.22,25.90 14.02,25.67 15.76,25.50 17.50,25.33 18.69,25.02 19.88,24.72 21.79,24.30 23.70,23.87 26.02,22.78 28.33,21.69 28.66,21.60 28.99,21.52 29.33,21.55 29.66,21.58 29.98,21.71 30.29,21.84 30.54,22.07 30.79,22.29 30.96,22.59 31.12,22.88 31.19,23.22 31.25,23.55 31.21,23.88 31.16,24.22 31.01,24.52 30.86,24.83 30.62,25.06 30.38,25.30 30.08,25.45 29.78,25.61 29.44,25.65 29.11,25.70 28.77,25.63 28.44,25.57 28.15,25.40 27.85,25.24 27.63,24.99 27.40,24.73 27.27,24.42 27.13,24.11 27.10,23.77 27.08,23.44 27.16,23.11 27.24,22.78 27.42,22.50 27.60,22.21 27.87,22.00 28.13,21.79 28.45,21.67 28.77,21.55 29.10,21.54 29.44,21.53 29.77,21.63 30.09,21.73 30.36,21.93 30.64,22.13 30.84,22.40 31.03,22.68 31.13,23.00 31.23,23.32 31.22,23.66 31.22,24.00 31.10,24.32 30.98,24.63 30.77,24.90 30.56,25.16 30.27,25.34 29.99,25.53 29.99,25.53 29.99,25.53 27.34,26.58 24.68,27.62 22.69,28.22 20.69,28.82 19.27,29.04 17.84,29.25 16.24,29.37 14.65,29.49 12.36,29.93 10.06,30.37 8.47,30.19 6.88,30.02 4.59,29.80 2.31,29.58 0.77,29.18 -0.75,28.78 -2.92,27.90 -5.09,27.03 -5.98,26.19 -6.86,25.35 -8.39,24.00 -9.92,22.64 -10.56,21.29 -11.20,19.93 -11.55,18.03 -11.90,16.14 -11.66,14.93 -11.43,13.72 -10.94,11.86 -10.46,10.00 -9.91,9.08 -9.36,8.16 -8.55,6.81 -7.74,5.46 -6.65,3.98 -5.55,2.50 -4.63,1.39 -3.70,0.29 -2.69,-0.70 -1.69,-1.69 -1.46,-1.87 -1.23,-2.04 -0.97,-2.16 -0.71,-2.28 -0.42,-2.33 -0.14,-2.38 0.14,-2.37 0.43,-2.35 0.70,-2.26 0.98,-2.18 1.22,-2.03 1.47,-1.88 1.68,-1.68 1.88,-1.47 2.03,-1.22 2.18,-0.98 2.26,-0.70 2.35,-0.43 2.37,-0.14 2.38,0.14 2.33,0.42 2.28,0.71 2.16,0.97 2.04,1.23 1.87,1.46 1.69,1.69 1.69,1.69 L 1.69,1.69 Z"></path></g><g transform="translate(732.2222290039062 187.77780151367188) rotate(0 11.8055419921875 -0.6944580078125)" stroke="none"><path fill="#1e1e1e" d="M -0.15,-1.81 Q -0.15,-1.81 2.25,-1.94 4.65,-2.07 7.45,-2.30 10.26,-2.54 12.49,-2.63 14.72,-2.71 17.28,-2.74 19.84,-2.76 21.71,-2.84 23.58,-2.91 23.82,-2.88 24.07,-2.84 24.29,-2.73 24.51,-2.62 24.68,-2.44 24.86,-2.27 24.96,-2.05 25.07,-1.82 25.10,-1.58 25.14,-1.33 25.09,-1.09 25.04,-0.85 24.92,-0.63 24.79,-0.42 24.61,-0.25 24.42,-0.09 24.19,0.00 23.97,0.09 23.72,0.11 23.47,0.13 23.23,0.07 22.99,0.01 22.78,-0.12 22.58,-0.25 22.42,-0.45 22.27,-0.64 22.18,-0.87 22.10,-1.11 22.10,-1.35 22.09,-1.60 22.17,-1.84 22.24,-2.07 22.39,-2.27 22.53,-2.47 22.73,-2.62 22.94,-2.76 23.17,-2.83 23.41,-2.90 23.66,-2.89 23.90,-2.88 24.14,-2.80 24.37,-2.71 24.56,-2.55 24.75,-2.40 24.88,-2.19 25.02,-1.98 25.07,-1.74 25.13,-1.50 25.11,-1.25 25.09,-1.00 24.99,-0.78 24.89,-0.55 24.72,-0.37 24.56,-0.18 24.34,-0.06 24.12,0.05 23.88,0.09 23.64,0.14 23.64,0.14 23.64,0.14 21.77,0.14 19.90,0.14 17.39,0.21 14.89,0.29 12.73,0.45 10.58,0.60 7.75,0.94 4.93,1.27 2.54,1.54 0.15,1.81 -0.06,1.80 -0.28,1.79 -0.49,1.73 -0.70,1.67 -0.89,1.56 -1.08,1.45 -1.24,1.30 -1.40,1.15 -1.52,0.96 -1.64,0.78 -1.71,0.57 -1.78,0.36 -1.80,0.14 -1.81,-0.06 -1.78,-0.28 -1.74,-0.50 -1.66,-0.70 -1.57,-0.90 -1.44,-1.08 -1.31,-1.25 -1.14,-1.39 -0.97,-1.53 -0.77,-1.63 -0.58,-1.72 -0.36,-1.76 -0.15,-1.81 -0.15,-1.81 L -0.15,-1.81 Z"></path></g><g transform="translate(721.8054809570312 203.75003051757812) rotate(0 13.1944580078125 -1.041656494140625)" stroke="none"><path fill="#1e1e1e" d="M -0.34,-2.38 Q -0.34,-2.38 1.05,-2.59 2.45,-2.80 4.00,-3.05 5.56,-3.30 6.70,-3.48 7.85,-3.66 9.47,-3.86 11.08,-4.07 12.89,-4.15 14.70,-4.23 16.05,-4.30 17.40,-4.38 19.81,-4.46 22.21,-4.55 24.29,-4.60 26.38,-4.65 26.79,-4.58 27.20,-4.51 27.57,-4.32 27.93,-4.13 28.22,-3.83 28.51,-3.52 28.68,-3.15 28.86,-2.77 28.90,-2.36 28.95,-1.95 28.86,-1.54 28.77,-1.13 28.56,-0.78 28.34,-0.42 28.03,-0.15 27.71,0.11 27.33,0.26 26.94,0.42 26.53,0.44 26.11,0.47 25.71,0.35 25.31,0.24 24.97,0.01 24.62,-0.21 24.37,-0.54 24.12,-0.87 23.98,-1.26 23.85,-1.66 23.85,-2.07 23.85,-2.49 23.98,-2.88 24.11,-3.28 24.36,-3.61 24.61,-3.94 24.96,-4.17 25.30,-4.41 25.70,-4.52 26.10,-4.63 26.52,-4.61 26.93,-4.59 27.32,-4.43 27.70,-4.28 28.02,-4.01 28.34,-3.74 28.55,-3.39 28.77,-3.03 28.86,-2.63 28.95,-2.22 28.90,-1.81 28.86,-1.40 28.69,-1.02 28.51,-0.64 28.23,-0.34 27.94,-0.04 27.58,0.15 27.21,0.34 26.80,0.41 26.39,0.48 26.39,0.48 26.39,0.48 24.31,0.44 22.24,0.40 19.90,0.38 17.57,0.35 16.28,0.36 14.99,0.38 13.39,0.51 11.79,0.64 9.09,1.00 6.39,1.37 4.76,1.68 3.13,2.00 1.73,2.19 0.34,2.38 0.05,2.39 -0.23,2.39 -0.52,2.33 -0.80,2.26 -1.06,2.14 -1.32,2.01 -1.54,1.82 -1.76,1.63 -1.93,1.39 -2.10,1.16 -2.21,0.89 -2.32,0.62 -2.36,0.33 -2.40,0.05 -2.37,-0.23 -2.35,-0.52 -2.25,-0.80 -2.15,-1.07 -1.99,-1.31 -1.83,-1.55 -1.62,-1.75 -1.40,-1.95 -1.15,-2.09 -0.90,-2.23 -0.62,-2.30 -0.34,-2.38 -0.34,-2.38 L -0.34,-2.38 Z"></path></g><g transform="translate(712.0833129882812 178.05557250976562) rotate(0 30.2083740234375 -10.763885498046875)" stroke="none"><path fill="#1e1e1e" d="M -0.31,-1.89 Q -0.31,-1.89 0.86,-2.16 2.05,-2.43 3.74,-2.98 5.42,-3.52 8.03,-3.65 10.63,-3.77 12.55,-3.84 14.47,-3.92 16.10,-3.98 17.72,-4.05 19.93,-4.17 22.15,-4.29 24.07,-4.54 26.00,-4.79 28.45,-5.05 30.90,-5.32 32.99,-5.44 35.08,-5.56 37.51,-5.77 39.95,-5.99 41.52,-6.35 43.09,-6.72 45.08,-6.87 47.07,-7.02 48.38,-7.34 49.68,-7.66 51.16,-7.85 52.64,-8.03 54.39,-8.53 56.14,-9.03 57.50,-9.40 58.87,-9.77 58.29,-8.49 57.72,-7.22 56.48,-7.27 55.25,-7.32 53.20,-7.90 51.16,-8.47 49.27,-9.16 47.38,-9.85 46.23,-10.49 45.09,-11.14 43.54,-12.51 42.00,-13.88 40.77,-15.18 39.53,-16.47 38.10,-17.89 36.66,-19.32 36.37,-19.73 36.07,-20.14 35.93,-20.63 35.78,-21.11 35.79,-21.62 35.81,-22.13 35.99,-22.60 36.16,-23.08 36.48,-23.47 36.80,-23.86 37.23,-24.13 37.66,-24.41 38.15,-24.53 38.64,-24.65 39.15,-24.60 39.65,-24.56 40.12,-24.36 40.58,-24.15 40.96,-23.81 41.33,-23.47 41.58,-23.03 41.83,-22.59 41.92,-22.09 42.02,-21.59 41.94,-21.09 41.87,-20.59 41.65,-20.14 41.42,-19.68 41.06,-19.33 40.70,-18.97 40.24,-18.75 39.79,-18.52 39.29,-18.46 38.79,-18.39 38.29,-18.49 37.79,-18.59 37.35,-18.84 36.91,-19.09 36.57,-19.47 36.24,-19.85 36.04,-20.31 35.84,-20.78 35.80,-21.29 35.76,-21.79 35.89,-22.28 36.01,-22.77 36.29,-23.20 36.56,-23.62 36.96,-23.94 37.35,-24.26 37.83,-24.43 38.31,-24.60 38.81,-24.61 39.32,-24.62 39.80,-24.47 40.29,-24.32 40.70,-24.02 41.11,-23.73 41.11,-23.73 41.11,-23.73 43.09,-21.66 45.07,-19.59 46.57,-17.99 48.06,-16.38 49.65,-15.59 51.24,-14.80 53.47,-13.98 55.69,-13.16 57.49,-12.43 59.29,-11.70 60.69,-10.82 62.09,-9.94 62.25,-8.79 62.42,-7.65 61.57,-6.44 60.71,-5.22 59.41,-4.86 58.10,-4.50 56.69,-4.51 55.28,-4.52 54.12,-4.33 52.95,-4.14 51.64,-4.10 50.33,-4.07 48.82,-3.89 47.31,-3.70 45.50,-3.58 43.70,-3.47 41.98,-3.21 40.27,-2.96 37.78,-2.66 35.29,-2.36 33.32,-2.20 31.34,-2.05 28.93,-1.66 26.52,-1.28 24.51,-0.94 22.50,-0.61 20.17,-0.29 17.83,0.02 16.27,0.04 14.70,0.06 12.87,0.21 11.04,0.35 7.95,0.74 4.87,1.14 3.80,1.39 2.73,1.63 1.52,1.76 0.31,1.89 0.08,1.90 -0.14,1.91 -0.37,1.86 -0.60,1.82 -0.81,1.72 -1.01,1.62 -1.19,1.48 -1.37,1.33 -1.51,1.15 -1.65,0.96 -1.75,0.75 -1.84,0.54 -1.88,0.31 -1.91,0.08 -1.90,-0.14 -1.88,-0.37 -1.81,-0.59 -1.73,-0.81 -1.61,-1.01 -1.49,-1.20 -1.32,-1.36 -1.15,-1.53 -0.95,-1.64 -0.75,-1.76 -0.53,-1.82 -0.31,-1.89 -0.31,-1.89 L -0.31,-1.89 Z"></path></g><g transform="translate(431.52783203125 280.83331298828125) rotate(0 35.763885498046875 -96.52777099609375)" stroke="none"><path fill="#e03131" d="M -2.13,-0.42 Q -2.13,-0.42 -1.99,-1.43 -1.85,-2.44 -1.62,-4.04 -1.39,-5.63 -0.81,-7.44 -0.23,-9.25 0.62,-10.92 1.47,-12.59 1.96,-13.81 2.44,-15.03 3.62,-17.34 4.79,-19.64 5.73,-21.58 6.66,-23.51 8.30,-26.94 9.95,-30.37 11.26,-33.20 12.58,-36.02 14.56,-40.22 16.54,-44.43 17.98,-47.96 19.42,-51.50 21.44,-56.60 23.46,-61.71 25.14,-65.69 26.81,-69.67 28.91,-74.93 31.02,-80.20 32.72,-84.44 34.42,-88.68 36.33,-94.24 38.24,-99.80 39.66,-103.97 41.08,-108.14 42.88,-113.51 44.68,-118.87 46.05,-122.76 47.42,-126.65 48.39,-129.86 49.36,-133.08 50.79,-137.27 52.21,-141.47 53.21,-144.63 54.20,-147.79 55.43,-151.35 56.66,-154.91 57.59,-157.42 58.51,-159.94 59.50,-162.79 60.48,-165.64 61.32,-167.69 62.15,-169.73 62.88,-172.13 63.60,-174.53 64.28,-176.27 64.96,-178.01 65.39,-179.64 65.81,-181.27 66.14,-182.47 66.47,-183.68 66.75,-184.92 67.03,-186.16 67.34,-187.20 67.64,-188.23 67.98,-189.72 68.31,-191.20 68.32,-191.32 68.32,-191.43 68.11,-191.76 67.90,-192.10 67.81,-192.48 67.71,-192.86 67.75,-193.25 67.78,-193.64 67.93,-194.00 68.09,-194.36 68.35,-194.66 68.62,-194.95 68.96,-195.14 69.30,-195.33 69.69,-195.41 70.07,-195.48 70.46,-195.42 70.85,-195.37 71.20,-195.20 71.56,-195.02 71.83,-194.74 72.11,-194.46 72.28,-194.11 72.46,-193.76 72.51,-193.37 72.56,-192.98 72.49,-192.59 72.41,-192.21 72.22,-191.87 72.02,-191.52 71.73,-191.26 71.44,-191.00 71.08,-190.85 70.71,-190.69 70.32,-190.66 69.93,-190.63 69.55,-190.73 69.17,-190.82 68.84,-191.03 68.51,-191.25 68.26,-191.55 68.02,-191.86 67.88,-192.23 67.75,-192.60 67.74,-192.99 67.73,-193.38 67.84,-193.76 67.96,-194.14 68.19,-194.45 68.42,-194.77 68.74,-195.00 69.06,-195.23 69.44,-195.34 69.81,-195.46 70.21,-195.45 70.60,-195.43 70.97,-195.30 71.34,-195.16 71.64,-194.91 71.95,-194.67 71.95,-194.67 71.95,-194.67 72.02,-191.66 72.10,-188.65 71.42,-186.86 70.74,-185.06 70.27,-183.76 69.80,-182.45 69.30,-181.41 68.80,-180.38 68.22,-178.61 67.63,-176.85 66.87,-175.31 66.12,-173.76 65.35,-171.25 64.58,-168.74 63.78,-166.76 62.97,-164.78 61.98,-161.91 60.98,-159.03 60.07,-156.54 59.15,-154.05 57.94,-150.52 56.72,-146.99 55.71,-143.81 54.71,-140.62 53.31,-136.47 51.90,-132.31 50.91,-129.04 49.93,-125.77 48.57,-121.90 47.21,-118.02 45.42,-112.65 43.62,-107.28 42.21,-103.10 40.80,-98.92 38.88,-93.29 36.96,-87.66 35.28,-83.42 33.60,-79.18 31.51,-73.88 29.42,-68.58 27.79,-64.62 26.17,-60.65 24.19,-55.52 22.21,-50.39 20.81,-46.75 19.40,-43.11 17.52,-38.90 15.64,-34.68 14.43,-31.78 13.23,-28.89 11.77,-25.44 10.31,-21.98 9.59,-19.93 8.86,-17.88 8.00,-15.51 7.14,-13.14 6.60,-11.80 6.06,-10.47 5.44,-8.96 4.82,-7.46 4.14,-5.88 3.47,-4.30 3.06,-2.92 2.65,-1.54 2.39,-0.55 2.13,0.42 2.05,0.67 1.96,0.92 1.83,1.14 1.69,1.36 1.50,1.55 1.31,1.73 1.08,1.86 0.86,1.99 0.60,2.07 0.35,2.14 0.09,2.15 -0.16,2.16 -0.42,2.11 -0.68,2.06 -0.91,1.95 -1.15,1.84 -1.35,1.67 -1.56,1.51 -1.72,1.30 -1.87,1.09 -1.98,0.85 -2.08,0.61 -2.13,0.35 -2.17,0.09 -2.15,-0.16 -2.13,-0.42 -2.13,-0.42 L -2.13,-0.42 Z"></path></g><g transform="translate(485.00006103515625 96.8055419921875) rotate(0 12.847198486328125 -8.33331298828125)" stroke="none"><path fill="#e03131" d="M 0,-2.21 Q 0,-2.21 0.69,-2.24 1.39,-2.28 2.92,-3.58 4.45,-4.88 5.26,-5.61 6.08,-6.34 7.10,-7.12 8.13,-7.90 9.20,-9.13 10.27,-10.35 11.50,-11.50 12.73,-12.66 13.97,-14.09 15.21,-15.52 16.44,-16.74 17.67,-17.96 18.66,-19.27 19.66,-20.58 20.52,-21.69 21.38,-22.79 22.06,-23.79 22.74,-24.79 23.50,-26.44 24.26,-28.09 24.45,-28.64 24.64,-29.19 24.85,-29.42 25.06,-29.65 25.32,-29.82 25.58,-30.00 25.87,-30.10 26.16,-30.21 26.47,-30.24 26.78,-30.27 27.08,-30.23 27.39,-30.19 27.68,-30.08 27.97,-29.96 28.22,-29.78 28.48,-29.60 28.68,-29.37 28.88,-29.13 29.02,-28.85 29.16,-28.58 29.23,-28.27 29.30,-27.97 29.30,-27.66 29.29,-27.35 29.22,-27.05 29.14,-26.75 28.99,-26.48 28.84,-26.20 27.80,-25.83 26.75,-25.46 26.68,-24.12 26.61,-22.77 26.07,-21.56 25.52,-20.34 25.10,-19.23 24.69,-18.13 24.00,-15.49 23.31,-12.85 22.89,-11.38 22.46,-9.90 22.02,-8.16 21.58,-6.42 21.22,-4.97 20.87,-3.53 20.47,-1.82 20.08,-0.12 19.99,0.96 19.90,2.06 19.85,3.44 19.80,4.83 20.14,6.52 20.47,8.22 21.24,9.55 22.00,10.88 21.99,11.19 21.98,11.50 21.90,11.80 21.82,12.10 21.66,12.37 21.51,12.64 21.29,12.86 21.08,13.09 20.82,13.26 20.56,13.42 20.27,13.53 19.97,13.63 19.66,13.65 19.35,13.68 19.05,13.63 18.74,13.58 18.45,13.46 18.17,13.34 17.92,13.16 17.67,12.98 17.47,12.74 17.27,12.50 17.14,12.22 17.00,11.94 16.94,11.63 16.87,11.33 17.70,10.02 18.52,8.70 18.93,8.62 19.33,8.53 19.75,8.58 20.16,8.63 20.54,8.81 20.91,8.99 21.21,9.28 21.51,9.57 21.70,9.95 21.89,10.32 21.95,10.73 22.01,11.14 21.94,11.55 21.87,11.96 21.67,12.33 21.47,12.69 21.16,12.97 20.86,13.26 20.48,13.43 20.10,13.60 19.68,13.64 19.27,13.68 18.86,13.58 18.46,13.49 18.10,13.27 17.75,13.05 17.48,12.73 17.22,12.40 17.07,12.02 16.92,11.63 16.90,11.21 16.88,10.79 17.00,10.39 17.12,9.99 17.36,9.65 17.59,9.31 17.93,9.06 18.26,8.82 18.66,8.69 19.06,8.56 19.47,8.57 19.89,8.57 20.28,8.71 20.68,8.85 21.00,9.10 21.33,9.36 21.56,9.71 21.79,10.06 21.90,10.46 22.00,10.86 21.97,11.28 21.95,11.69 21.79,12.08 21.63,12.46 21.35,12.78 21.08,13.09 21.54,11.99 22.00,10.88 21.99,11.19 21.98,11.50 21.90,11.80 21.82,12.10 21.66,12.37 21.51,12.64 21.29,12.86 21.08,13.09 20.82,13.26 20.56,13.42 20.27,13.53 19.97,13.63 19.66,13.65 19.35,13.68 19.05,13.63 18.74,13.58 18.45,13.46 18.17,13.34 17.92,13.16 17.67,12.98 17.47,12.74 17.27,12.50 17.14,12.22 17.00,11.94 16.94,11.63 16.87,11.33 16.13,9.27 15.38,7.21 15.24,5.93 15.10,4.65 15.18,3.05 15.25,1.46 15.46,0.23 15.67,-0.98 15.98,-2.85 16.29,-4.71 16.65,-6.03 17.00,-7.34 17.31,-9.27 17.61,-11.20 17.99,-12.74 18.38,-14.28 18.75,-15.81 19.12,-17.35 19.40,-18.69 19.67,-20.02 20.14,-21.24 20.62,-22.46 21.68,-24.69 22.75,-26.91 23.69,-28.05 24.64,-29.19 24.85,-29.42 25.06,-29.65 25.32,-29.82 25.57,-30.00 25.87,-30.10 26.16,-30.21 26.47,-30.24 26.78,-30.27 27.08,-30.23 27.39,-30.19 27.68,-30.08 27.97,-29.96 28.22,-29.78 28.48,-29.60 28.68,-29.37 28.88,-29.13 29.02,-28.85 29.16,-28.58 29.23,-28.27 29.30,-27.97 29.30,-27.66 29.29,-27.35 29.22,-27.05 29.14,-26.75 28.99,-26.48 28.84,-26.20 28.13,-25.24 27.42,-24.27 26.90,-23.21 26.38,-22.15 25.53,-21.08 24.68,-20.01 23.82,-19.07 22.96,-18.13 21.79,-16.52 20.62,-14.90 19.57,-13.93 18.51,-12.95 17.21,-11.10 15.91,-9.26 14.90,-8.34 13.89,-7.41 12.53,-5.62 11.17,-3.84 10.23,-3.17 9.28,-2.51 8.28,-1.72 7.27,-0.92 6.03,-0.03 4.78,0.85 3.28,1.56 1.79,2.28 0.89,2.24 0,2.21 -0.26,2.17 -0.52,2.14 -0.77,2.05 -1.02,1.95 -1.24,1.80 -1.46,1.65 -1.64,1.45 -1.82,1.25 -1.94,1.02 -2.06,0.78 -2.13,0.52 -2.19,0.26 -2.19,-0.00 -2.19,-0.26 -2.13,-0.52 -2.06,-0.78 -1.94,-1.02 -1.82,-1.25 -1.64,-1.45 -1.46,-1.65 -1.24,-1.80 -1.02,-1.95 -0.77,-2.05 -0.52,-2.14 -0.26,-2.17 0.00,-2.21 0.00,-2.21 L 0,-2.21 Z"></path></g><g transform="translate(537.77783203125 37.083343505859375) rotate(0 2.08331298828125 11.8055419921875)" stroke="none"><path fill="#e03131" d="M 2.35,-0.88 Q 2.35,-0.88 2.90,0.73 3.46,2.35 3.78,3.80 4.11,5.26 4.61,7.73 5.11,10.19 5.36,11.23 5.61,12.28 5.75,13.74 5.89,15.21 6.19,17.24 6.48,19.26 6.37,21.97 6.26,24.68 6.13,25.12 5.99,25.56 5.73,25.93 5.46,26.30 5.09,26.56 4.72,26.83 4.28,26.96 3.85,27.10 3.39,27.08 2.93,27.07 2.51,26.91 2.08,26.76 1.72,26.47 1.37,26.18 1.12,25.80 0.87,25.41 0.76,24.97 0.65,24.53 0.69,24.07 0.73,23.62 0.91,23.20 1.09,22.78 1.40,22.44 1.70,22.10 2.10,21.88 2.50,21.65 2.94,21.57 3.39,21.48 3.84,21.54 4.30,21.60 4.71,21.81 5.11,22.01 5.44,22.33 5.76,22.66 5.96,23.06 6.17,23.47 6.23,23.93 6.29,24.38 6.20,24.83 6.12,25.28 5.89,25.67 5.67,26.07 5.33,26.37 4.99,26.68 4.57,26.86 4.15,27.04 3.69,27.08 3.24,27.11 2.79,27.00 2.35,26.89 1.97,26.65 1.58,26.40 1.30,26.04 1.01,25.69 0.85,25.26 0.70,24.83 0.68,24.37 0.67,23.92 0.67,23.92 0.67,23.92 0.93,22.07 1.20,20.22 0.96,17.93 0.72,15.64 0.64,14.50 0.57,13.35 0.31,12.01 0.05,10.67 -0.02,9.54 -0.10,8.41 -0.40,7.32 -0.70,6.23 -0.88,5.13 -1.06,4.03 -1.71,2.46 -2.35,0.88 -2.42,0.58 -2.49,0.29 -2.49,-0.00 -2.49,-0.31 -2.42,-0.60 -2.34,-0.90 -2.20,-1.16 -2.06,-1.43 -1.86,-1.66 -1.66,-1.89 -1.41,-2.06 -1.16,-2.23 -0.87,-2.33 -0.59,-2.44 -0.29,-2.48 0.00,-2.51 0.31,-2.47 0.61,-2.44 0.89,-2.33 1.17,-2.22 1.42,-2.05 1.67,-1.87 1.87,-1.64 2.07,-1.42 2.21,-1.15 2.35,-0.88 2.35,-0.88 L 2.35,-0.88 Z"></path></g><g transform="translate(535.6944580078125 39.861114501953125) rotate(0 20.138885498046875 10.763885498046875)" stroke="none"><path fill="#e03131" d="M -0.38,-1.90 Q -0.38,-1.90 1.62,-2.24 3.63,-2.58 5.02,-2.99 6.41,-3.41 8.59,-3.54 10.77,-3.66 12.34,-3.95 13.92,-4.24 15.49,-4.41 17.07,-4.58 19.56,-4.54 22.05,-4.50 23.90,-4.52 25.74,-4.55 28.12,-4.49 30.51,-4.43 32.04,-4.31 33.58,-4.18 35.24,-3.92 36.90,-3.66 38.14,-3.08 39.39,-2.49 40.32,-1.44 41.25,-0.39 41.88,1.57 42.52,3.54 41.89,5.28 41.26,7.02 40.54,8.11 39.83,9.20 38.39,10.64 36.95,12.08 35.72,13.15 34.48,14.23 32.45,15.58 30.43,16.94 28.92,17.82 27.42,18.70 26.00,19.47 24.59,20.24 22.50,21.08 20.41,21.92 18.05,22.67 15.70,23.41 14.16,23.98 12.61,24.56 11.37,25.06 10.12,25.55 8.40,25.81 6.67,26.07 5.57,26.22 4.47,26.37 3.14,26.24 1.81,26.12 -0.15,24.05 -2.13,21.99 -2.26,21.62 -2.39,21.25 -2.39,20.85 -2.40,20.46 -2.27,20.09 -2.15,19.71 -1.92,19.40 -1.68,19.08 -1.36,18.86 -1.04,18.64 -0.66,18.53 -0.28,18.42 0.10,18.43 0.49,18.45 0.86,18.59 1.22,18.73 1.53,18.99 1.83,19.24 2.03,19.57 2.24,19.91 2.33,20.29 2.42,20.67 2.38,21.06 2.34,21.45 2.18,21.81 2.02,22.17 1.75,22.46 1.49,22.75 1.14,22.93 0.79,23.12 0.41,23.19 0.02,23.26 -0.36,23.20 -0.75,23.14 -1.09,22.96 -1.44,22.78 -1.72,22.49 -1.99,22.21 -2.16,21.86 -2.33,21.50 -2.37,21.11 -2.42,20.72 -2.34,20.34 -2.26,19.95 -2.06,19.61 -1.86,19.28 -1.57,19.02 -1.27,18.76 -0.91,18.61 -0.54,18.46 -0.15,18.44 0.23,18.41 0.61,18.51 0.99,18.61 1.32,18.83 1.65,19.05 1.89,19.36 2.13,19.67 2.13,19.67 2.13,19.67 2.40,20.63 2.66,21.59 4.42,21.79 6.19,22.00 7.53,21.89 8.87,21.79 10.14,21.43 11.41,21.07 12.97,20.58 14.53,20.09 16.67,19.25 18.80,18.42 20.69,17.44 22.58,16.45 23.94,15.74 25.31,15.03 26.61,14.31 27.90,13.58 29.64,12.11 31.37,10.63 32.41,9.74 33.45,8.85 35.11,6.84 36.76,4.84 37.18,3.49 37.61,2.13 36.88,1.09 36.15,0.05 34.61,-0.25 33.08,-0.56 31.79,-0.82 30.51,-1.09 28.15,-1.01 25.78,-0.94 23.95,-0.92 22.13,-0.90 19.75,-0.77 17.37,-0.63 15.94,-0.58 14.52,-0.52 12.78,-0.27 11.05,-0.03 9.20,0.15 7.36,0.33 5.85,0.66 4.35,0.98 2.36,1.44 0.38,1.90 0.14,1.92 -0.08,1.94 -0.31,1.90 -0.54,1.86 -0.76,1.77 -0.97,1.68 -1.16,1.53 -1.35,1.39 -1.50,1.21 -1.64,1.03 -1.74,0.82 -1.84,0.60 -1.89,0.37 -1.93,0.14 -1.92,-0.08 -1.91,-0.31 -1.85,-0.54 -1.78,-0.76 -1.66,-0.97 -1.55,-1.17 -1.38,-1.34 -1.22,-1.51 -1.02,-1.63 -0.82,-1.76 -0.60,-1.83 -0.38,-1.90 -0.38,-1.90 L -0.38,-1.90 Z"></path></g><g transform="translate(535.6944580078125 24.583343505859375) rotate(0 19.79168701171875 -7.2916717529296875)" stroke="none"><path fill="#e03131" d="M -0.67,-1.84 Q -0.67,-1.84 1.55,-2.56 3.78,-3.27 5.41,-3.69 7.04,-4.11 9.37,-4.39 11.69,-4.67 13.40,-5.03 15.11,-5.39 17.51,-5.68 19.90,-5.97 21.75,-6.15 23.59,-6.34 25.80,-6.35 28.01,-6.36 29.53,-6.46 31.06,-6.57 33.35,-6.75 35.65,-6.93 34.61,-7.26 33.57,-7.58 32.51,-8.81 31.45,-10.03 30.91,-12.18 30.37,-14.34 30.41,-14.82 30.45,-15.30 30.64,-15.74 30.83,-16.18 31.15,-16.54 31.47,-16.89 31.89,-17.13 32.30,-17.37 32.78,-17.46 33.25,-17.55 33.72,-17.48 34.20,-17.42 34.63,-17.20 35.06,-16.99 35.40,-16.65 35.74,-16.31 35.95,-15.88 36.17,-15.45 36.23,-14.97 36.30,-14.50 36.21,-14.03 36.12,-13.55 35.88,-13.14 35.64,-12.72 35.28,-12.40 34.93,-12.08 34.49,-11.89 34.04,-11.70 33.57,-11.66 33.09,-11.62 32.62,-11.73 32.15,-11.85 31.75,-12.11 31.35,-12.37 31.04,-12.74 30.74,-13.12 30.58,-13.57 30.41,-14.02 30.40,-14.50 30.39,-14.98 30.53,-15.44 30.67,-15.90 30.95,-16.29 31.23,-16.68 31.62,-16.96 32.01,-17.24 32.47,-17.38 32.93,-17.52 33.41,-17.51 33.89,-17.49 34.34,-17.33 34.79,-17.16 35.16,-16.86 35.54,-16.56 35.80,-16.16 36.06,-15.75 36.17,-15.28 36.29,-14.82 36.29,-14.82 36.29,-14.82 36.50,-13.64 36.72,-12.46 37.70,-11.38 38.68,-10.30 39.64,-9.13 40.60,-7.97 40.89,-6.68 41.18,-5.38 40.08,-4.23 38.98,-3.07 37.33,-2.92 35.67,-2.77 33.39,-2.92 31.12,-3.07 29.61,-3.12 28.10,-3.17 25.98,-3.05 23.87,-2.94 22.13,-2.83 20.38,-2.71 18.09,-2.31 15.80,-1.91 14.01,-1.58 12.21,-1.25 10.04,-0.84 7.86,-0.43 6.43,-0.17 5.00,0.08 2.83,0.96 0.67,1.84 0.44,1.89 0.20,1.95 -0.02,1.94 -0.26,1.94 -0.49,1.88 -0.72,1.82 -0.92,1.71 -1.13,1.60 -1.31,1.44 -1.48,1.28 -1.61,1.08 -1.75,0.88 -1.83,0.66 -1.91,0.44 -1.93,0.20 -1.96,-0.02 -1.93,-0.26 -1.90,-0.49 -1.81,-0.71 -1.72,-0.93 -1.58,-1.12 -1.45,-1.32 -1.27,-1.47 -1.09,-1.63 -0.88,-1.73 -0.67,-1.84 -0.67,-1.84 L -0.67,-1.84 Z"></path></g><g transform="translate(62.7777099609375 145.41668701171875) rotate(0 -0.34722900390625 17.361114501953125)" stroke="none"><path fill="#e03131" d="M -2.17,-0.54 Q -2.17,-0.54 -2.04,-1.35 -1.90,-2.17 -1.80,-2.44 -1.69,-2.70 -1.53,-2.94 -1.37,-3.17 -1.15,-3.36 -0.94,-3.55 -0.68,-3.68 -0.43,-3.81 -0.15,-3.88 0.12,-3.95 0.40,-3.95 0.69,-3.95 0.97,-3.88 1.24,-3.81 1.50,-3.68 1.75,-3.54 1.96,-3.35 2.18,-3.16 2.34,-2.92 2.50,-2.69 2.60,-2.42 2.70,-2.15 2.73,-1.87 2.77,-1.58 2.73,-1.30 2.70,-1.02 3.21,0.57 3.72,2.16 4.00,5.19 4.29,8.21 4.11,9.98 3.94,11.75 3.88,13.17 3.83,14.59 3.48,16.68 3.14,18.77 3.05,20.37 2.95,21.97 2.65,23.94 2.35,25.91 2.30,27.26 2.25,28.62 2.00,30.30 1.76,31.98 1.75,33.74 1.74,35.50 0.70,35.51 -0.32,35.52 -0.37,35.81 -0.42,36.11 -0.54,36.38 -0.66,36.65 -0.83,36.88 -1.01,37.12 -1.24,37.30 -1.47,37.49 -1.74,37.62 -2.01,37.74 -2.30,37.80 -2.59,37.86 -2.88,37.84 -3.18,37.83 -3.46,37.75 -3.74,37.66 -4.00,37.51 -4.26,37.36 -4.47,37.16 -4.68,36.95 -4.84,36.70 -4.99,36.45 -5.08,36.17 -5.18,35.89 -5.20,35.60 -5.22,35.30 -5.16,35.73 -5.11,36.16 -5.17,35.77 -5.22,35.38 -5.15,34.99 -5.08,34.60 -4.89,34.25 -4.70,33.90 -4.41,33.63 -4.12,33.36 -3.76,33.20 -3.40,33.04 -3.00,33.00 -2.61,32.97 -2.22,33.06 -1.83,33.15 -1.50,33.36 -1.16,33.57 -0.91,33.87 -0.66,34.18 -0.51,34.55 -0.37,34.92 -0.36,35.31 -0.34,35.71 -0.45,36.09 -0.56,36.47 -0.79,36.80 -1.02,37.12 -1.34,37.36 -1.65,37.59 -2.03,37.71 -2.41,37.84 -2.81,37.83 -3.20,37.82 -3.58,37.69 -3.95,37.56 -4.26,37.32 -4.58,37.07 -4.79,36.74 -5.01,36.41 -5.11,36.03 -5.21,35.64 -5.19,35.25 -5.16,34.85 -5.01,34.49 -4.86,34.12 -4.59,33.82 -4.33,33.52 -3.99,33.32 -3.65,33.12 -3.26,33.04 -2.87,32.96 -2.48,33.01 -2.08,33.06 -1.73,33.23 -1.37,33.40 -1.08,33.68 -0.80,33.96 -0.56,34.74 -0.32,35.52 -0.37,35.81 -0.42,36.10 -0.54,36.38 -0.66,36.65 -0.83,36.88 -1.01,37.12 -1.24,37.30 -1.47,37.49 -1.74,37.62 -2.01,37.74 -2.30,37.80 -2.59,37.86 -2.88,37.84 -3.18,37.83 -3.46,37.75 -3.74,37.66 -4.00,37.51 -4.25,37.36 -4.47,37.16 -4.68,36.95 -4.84,36.70 -4.99,36.45 -5.08,36.17 -5.18,35.89 -5.20,35.60 -5.22,35.30 -4.11,35.26 -3.00,35.23 -2.72,33.28 -2.43,31.34 -2.19,29.83 -1.95,28.32 -1.79,26.86 -1.64,25.40 -1.46,23.56 -1.28,21.72 -1.18,20.01 -1.08,18.29 -0.97,16.33 -0.85,14.37 -0.78,12.84 -0.70,11.30 -0.56,9.88 -0.43,8.47 -0.60,6.80 -0.76,5.13 -0.97,3.02 -1.17,0.91 -1.54,-0.63 -1.90,-2.17 -1.80,-2.43 -1.69,-2.70 -1.53,-2.94 -1.37,-3.17 -1.15,-3.36 -0.94,-3.55 -0.68,-3.68 -0.43,-3.81 -0.15,-3.88 0.12,-3.95 0.40,-3.95 0.69,-3.95 0.97,-3.88 1.24,-3.81 1.50,-3.68 1.75,-3.54 1.96,-3.35 2.18,-3.16 2.34,-2.92 2.50,-2.69 2.60,-2.42 2.70,-2.15 2.73,-1.87 2.77,-1.58 2.73,-1.30 2.70,-1.02 2.44,-0.23 2.17,0.54 2.08,0.79 1.98,1.05 1.83,1.27 1.67,1.49 1.47,1.67 1.27,1.85 1.02,1.97 0.78,2.10 0.52,2.16 0.26,2.23 -0.00,2.23 -0.27,2.22 -0.54,2.16 -0.80,2.09 -1.04,1.97 -1.28,1.84 -1.48,1.66 -1.68,1.48 -1.83,1.26 -1.99,1.03 -2.08,0.78 -2.18,0.53 -2.21,0.26 -2.24,-0.00 -2.21,-0.27 -2.17,-0.54 -2.17,-0.54 L -2.17,-0.54 Z"></path></g><g transform="translate(41.24993896484375 149.58334350585938) rotate(0 26.041656494140625 16.666671752929688)" stroke="none"><path fill="#e03131" d="M -1.98,0 Q -1.98,0 -1.98,-1.20 -1.97,-2.41 -1.20,-3.62 -0.42,-4.84 0.66,-5.56 1.75,-6.28 3.47,-6.91 5.19,-7.54 6.72,-8.02 8.26,-8.50 10.09,-8.72 11.91,-8.94 14.63,-9.09 17.34,-9.25 19.62,-9.07 21.90,-8.90 25.04,-8.59 28.17,-8.29 30.53,-7.93 32.89,-7.58 35.76,-6.79 38.63,-6.01 40.44,-5.53 42.26,-5.04 44.39,-3.71 46.51,-2.38 48.04,-1.24 49.57,-0.11 50.91,1.73 52.25,3.57 52.94,5.02 53.63,6.46 53.98,7.76 54.34,9.06 54.26,10.98 54.18,12.91 53.73,14.64 53.27,16.38 52.14,18.54 51.01,20.70 49.66,22.34 48.31,23.97 46.28,25.82 44.25,27.68 42.34,29.07 40.43,30.47 38.04,32.22 35.64,33.98 33.55,35.16 31.46,36.35 28.94,37.45 26.41,38.56 24.59,39.43 22.76,40.29 20.46,40.89 18.15,41.48 16.57,41.83 14.99,42.18 12.79,42.07 10.58,41.96 9.18,41.81 7.77,41.65 6.55,41.15 5.33,40.64 4.00,39.81 2.68,38.97 1.69,37.85 0.69,36.72 -0.28,35.29 -1.26,33.86 -1.40,33.51 -1.54,33.17 -1.57,32.80 -1.60,32.42 -1.50,32.06 -1.41,31.70 -1.21,31.39 -1.00,31.08 -0.71,30.85 -0.42,30.62 -0.06,30.49 0.28,30.37 0.65,30.36 1.02,30.35 1.38,30.47 1.73,30.58 2.04,30.80 2.34,31.02 2.55,31.32 2.77,31.63 2.87,31.99 2.98,32.35 2.96,32.72 2.95,33.09 2.82,33.44 2.69,33.79 2.45,34.08 2.21,34.37 1.90,34.56 1.58,34.76 1.22,34.85 0.85,34.93 0.48,34.90 0.11,34.87 -0.22,34.72 -0.56,34.56 -0.84,34.31 -1.11,34.06 -1.29,33.73 -1.47,33.41 -1.54,33.04 -1.61,32.67 -1.55,32.30 -1.50,31.94 -1.33,31.60 -1.16,31.27 -0.89,31.01 -0.63,30.75 -0.29,30.59 0.03,30.42 0.40,30.38 0.77,30.33 1.14,30.40 1.51,30.48 1.83,30.66 2.15,30.85 2.40,31.13 2.64,31.41 2.64,31.41 2.64,31.41 3.83,33.53 5.02,35.64 6.75,36.93 8.47,38.22 9.60,38.54 10.73,38.87 12.62,38.96 14.51,39.04 15.98,38.91 17.45,38.78 19.50,38.24 21.56,37.70 23.41,36.84 25.26,35.98 27.64,34.91 30.01,33.84 31.93,32.71 33.84,31.58 36.19,29.77 38.53,27.97 40.25,26.61 41.96,25.26 43.76,23.47 45.56,21.68 46.65,20.38 47.74,19.09 48.58,17.16 49.42,15.24 49.86,13.94 50.29,12.64 50.35,10.18 50.40,7.71 50.06,6.54 49.73,5.36 48.66,3.87 47.58,2.37 46.25,1.27 44.92,0.18 43.14,-0.91 41.36,-2.01 39.61,-2.54 37.86,-3.07 35.17,-3.74 32.47,-4.41 30.19,-4.65 27.92,-4.89 24.84,-5.05 21.76,-5.21 19.76,-5.20 17.76,-5.19 15.11,-4.78 12.46,-4.37 11.04,-4.21 9.63,-4.04 8.24,-3.61 6.86,-3.18 5.45,-2.62 4.04,-2.06 3.01,-1.82 1.97,-1.58 1.98,-0.79 1.98,0 1.95,0.23 1.92,0.47 1.84,0.69 1.75,0.92 1.62,1.12 1.48,1.31 1.30,1.47 1.12,1.63 0.91,1.74 0.70,1.85 0.47,1.91 0.23,1.97 -0.00,1.97 -0.23,1.97 -0.47,1.91 -0.70,1.85 -0.91,1.74 -1.12,1.63 -1.30,1.47 -1.48,1.31 -1.62,1.12 -1.76,0.92 -1.84,0.69 -1.92,0.47 -1.95,0.23 -1.98,-0.00 -1.98,-0.00 L -1.98,0 Z"></path></g><g transform="translate(37.7777099609375 130.138916015625) rotate(0 25.694427490234375 -7.6389007568359375)" stroke="none"><path fill="#e03131" d="M 0,-1.61 Q 0,-1.61 1.59,-1.68 3.19,-1.74 5.39,-1.88 7.60,-2.02 9.60,-2.10 11.60,-2.18 14.61,-2.37 17.62,-2.57 19.93,-2.64 22.24,-2.71 24.43,-2.73 26.62,-2.75 29.55,-2.75 32.48,-2.76 34.72,-2.75 36.96,-2.75 39.51,-2.74 42.06,-2.74 43.74,-2.82 45.42,-2.90 46.94,-2.99 48.45,-3.07 50.02,-3.21 51.59,-3.36 51.00,-2.33 50.41,-1.30 49.33,-1.68 48.25,-2.06 46.79,-2.93 45.33,-3.79 43.63,-5.28 41.93,-6.77 40.89,-8.67 39.86,-10.58 40.97,-14.20 42.09,-17.82 42.45,-18.14 42.80,-18.47 43.24,-18.67 43.69,-18.86 44.17,-18.91 44.65,-18.95 45.12,-18.84 45.59,-18.73 46.00,-18.47 46.41,-18.21 46.72,-17.84 47.03,-17.47 47.20,-17.01 47.37,-16.56 47.39,-16.08 47.41,-15.59 47.27,-15.13 47.13,-14.67 46.85,-14.27 46.58,-13.87 46.19,-13.59 45.80,-13.30 45.33,-13.15 44.87,-13.01 44.39,-13.02 43.91,-13.02 43.45,-13.19 42.99,-13.35 42.61,-13.65 42.23,-13.95 41.97,-14.35 41.70,-14.76 41.58,-15.23 41.46,-15.69 41.50,-16.18 41.53,-16.66 41.72,-17.11 41.90,-17.55 42.22,-17.92 42.54,-18.28 42.96,-18.52 43.38,-18.76 43.85,-18.86 44.33,-18.96 44.81,-18.90 45.29,-18.84 45.72,-18.62 46.16,-18.41 46.51,-18.08 46.85,-17.74 47.07,-17.31 47.29,-16.87 47.36,-16.40 47.43,-15.92 47.34,-15.44 47.26,-14.96 47.02,-14.54 46.79,-14.12 46.79,-14.12 46.79,-14.12 46.09,-13.43 45.39,-12.74 45.77,-11.54 46.15,-10.34 47.04,-9.36 47.94,-8.38 49.52,-7.27 51.11,-6.16 51.95,-5.40 52.79,-4.63 53.48,-3.12 54.16,-1.60 53.11,-0.50 52.06,0.58 50.25,0.44 48.45,0.30 46.94,0.21 45.43,0.13 43.74,0.05 42.06,-0.02 39.52,-0.01 36.97,-0.00 34.73,0.01 32.49,0.03 29.59,0.07 26.68,0.10 24.53,0.16 22.37,0.23 20.11,0.36 17.85,0.49 14.80,0.77 11.74,1.04 9.81,1.13 7.88,1.22 5.54,1.48 3.19,1.74 1.59,1.68 0,1.61 -0.19,1.59 -0.38,1.57 -0.56,1.50 -0.75,1.43 -0.91,1.32 -1.07,1.21 -1.20,1.06 -1.33,0.91 -1.42,0.74 -1.51,0.57 -1.56,0.38 -1.60,0.19 -1.60,-0.00 -1.60,-0.19 -1.56,-0.38 -1.51,-0.57 -1.42,-0.74 -1.33,-0.91 -1.20,-1.06 -1.07,-1.21 -0.91,-1.32 -0.75,-1.43 -0.56,-1.50 -0.38,-1.57 -0.19,-1.59 0.00,-1.61 0.00,-1.61 L 0,-1.61 Z"></path></g><g transform="translate(25.27777099609375 323.8889617919922) rotate(0 -0.694488525390625 13.541656494140625)" stroke="none"><path fill="#1971c2" d="M 2.54,0 Q 2.54,0 2.57,1.00 2.61,2.00 2.41,3.43 2.20,4.87 1.91,5.96 1.61,7.06 1.53,8.18 1.45,9.29 1.18,10.64 0.92,11.99 0.83,13.12 0.75,14.26 0.72,15.36 0.69,16.45 0.67,17.71 0.65,18.96 0.86,20.62 1.07,22.28 1.56,24.25 2.04,26.22 2.11,26.68 2.18,27.14 2.09,27.60 2.01,28.05 1.78,28.46 1.55,28.87 1.21,29.18 0.86,29.49 0.44,29.68 0.01,29.87 -0.44,29.91 -0.91,29.95 -1.36,29.84 -1.81,29.73 -2.20,29.48 -2.60,29.23 -2.89,28.87 -3.18,28.51 -3.35,28.07 -3.51,27.64 -3.53,27.17 -3.54,26.71 -3.41,26.26 -3.27,25.82 -3.00,25.44 -2.73,25.06 -2.36,24.78 -1.98,24.51 -1.54,24.37 -1.09,24.23 -0.63,24.24 -0.16,24.25 0.26,24.41 0.70,24.57 1.07,24.86 1.43,25.15 1.68,25.54 1.94,25.93 2.05,26.38 2.17,26.83 2.13,27.29 2.10,27.76 1.91,28.18 1.73,28.61 1.42,28.96 1.11,29.31 0.71,29.54 0.31,29.77 -0.14,29.86 -0.60,29.95 -1.06,29.89 -1.52,29.83 -1.94,29.63 -2.35,29.42 -2.68,29.10 -3.02,28.77 -3.22,28.35 -3.43,27.94 -3.43,27.94 -3.43,27.94 -3.93,25.65 -4.43,23.36 -4.60,21.12 -4.76,18.88 -4.74,17.56 -4.73,16.24 -4.66,15.03 -4.60,13.82 -4.23,11.32 -3.87,8.82 -3.71,7.15 -3.55,5.49 -3.08,3.74 -2.61,1.99 -2.57,0.99 -2.54,0 -2.50,-0.30 -2.46,-0.60 -2.35,-0.89 -2.24,-1.18 -2.07,-1.43 -1.90,-1.68 -1.67,-1.88 -1.44,-2.09 -1.17,-2.23 -0.90,-2.37 -0.60,-2.44 -0.30,-2.52 0.00,-2.52 0.30,-2.52 0.60,-2.44 0.90,-2.37 1.17,-2.23 1.44,-2.09 1.67,-1.88 1.90,-1.68 2.07,-1.43 2.25,-1.18 2.35,-0.89 2.46,-0.60 2.50,-0.30 2.54,0.00 2.54,0.00 L 2.54,0 Z"></path></g><g transform="translate(58.611083984375 325.27784729003906) rotate(0 -7.638885498046875 12.15277099609375)" stroke="none"><path fill="#1971c2" d="M -0.83,2.50 Q -0.83,2.50 -2.03,2.10 -3.23,1.71 -4.34,1.36 -5.45,1.00 -6.91,1.08 -8.37,1.16 -9.75,1.81 -11.13,2.46 -10.46,4.09 -9.79,5.72 -8.15,7.59 -6.52,9.46 -5.73,10.47 -4.95,11.49 -3.51,13.20 -2.07,14.90 -1.51,15.83 -0.95,16.75 -0.57,18.11 -0.20,19.48 -0.24,21.43 -0.28,23.39 -1.74,25.29 -3.20,27.18 -4.95,28.03 -6.70,28.88 -8.80,28.96 -10.89,29.04 -12.78,28.30 -14.67,27.55 -15.56,26.65 -16.46,25.75 -17.45,23.37 -18.45,20.98 -18.51,20.45 -18.56,19.92 -18.44,19.40 -18.32,18.88 -18.04,18.43 -17.76,17.98 -17.35,17.64 -16.94,17.30 -16.44,17.10 -15.95,16.91 -15.41,16.89 -14.88,16.87 -14.37,17.01 -13.86,17.16 -13.42,17.47 -12.98,17.77 -12.67,18.20 -12.35,18.62 -12.18,19.13 -12.02,19.64 -12.02,20.17 -12.03,20.70 -12.21,21.20 -12.38,21.71 -12.71,22.13 -13.04,22.55 -13.48,22.84 -13.92,23.14 -14.44,23.27 -14.95,23.41 -15.48,23.38 -16.02,23.34 -16.51,23.14 -17.00,22.94 -17.40,22.59 -17.80,22.24 -18.07,21.78 -18.34,21.32 -18.45,20.80 -18.56,20.28 -18.50,19.75 -18.43,19.22 -18.21,18.74 -17.98,18.26 -17.61,17.87 -17.24,17.49 -16.76,17.25 -16.29,17.00 -15.76,16.92 -15.24,16.84 -14.71,16.93 -14.19,17.03 -13.72,17.28 -13.25,17.54 -12.89,17.93 -12.53,18.32 -12.31,18.80 -12.09,19.29 -12.09,19.29 -12.09,19.29 -11.53,20.80 -10.97,22.30 -9.95,22.64 -8.94,22.98 -7.56,22.43 -6.18,21.88 -6.12,20.75 -6.05,19.63 -6.92,18.13 -7.79,16.63 -9.24,15.05 -10.69,13.47 -11.92,12.31 -13.15,11.15 -14.35,9.62 -15.55,8.08 -16.30,6.93 -17.06,5.78 -17.32,4.51 -17.58,3.24 -17.31,1.87 -17.04,0.49 -15.39,-1.03 -13.74,-2.57 -12.50,-3.17 -11.26,-3.77 -10.13,-4.05 -9.00,-4.33 -7.45,-4.44 -5.89,-4.55 -4.83,-4.32 -3.76,-4.08 -2.66,-3.69 -1.55,-3.31 -0.36,-2.90 0.83,-2.50 1.12,-2.36 1.40,-2.22 1.65,-2.02 1.90,-1.82 2.09,-1.57 2.28,-1.31 2.40,-1.02 2.53,-0.73 2.58,-0.42 2.63,-0.10 2.60,0.20 2.58,0.52 2.48,0.82 2.38,1.12 2.21,1.39 2.04,1.66 1.81,1.88 1.58,2.10 1.30,2.26 1.03,2.42 0.72,2.51 0.42,2.60 0.10,2.61 -0.21,2.62 -0.52,2.56 -0.83,2.50 -0.83,2.50 L -0.83,2.50 Z"></path></g><g transform="translate(80.83331298828125 325.97227478027344) rotate(0 -8.333343505859375 8.680557250976562)" stroke="none"><path fill="#1971c2" d="M 0,2.55 Q 0,2.55 -1.19,2.57 -2.38,2.59 -3.94,3.07 -5.49,3.54 -6.38,4.12 -7.27,4.69 -8.19,5.24 -9.10,5.78 -10.71,7.29 -12.31,8.79 -12.91,10.30 -13.52,11.80 -12.34,12.90 -11.17,14.00 -9.41,13.94 -7.65,13.88 -6.64,13.33 -5.63,12.77 -4.84,12.00 -4.05,11.24 -3.67,10.22 -3.29,9.20 -4.25,5.35 -5.21,1.51 -4.92,1.04 -4.64,0.57 -4.22,0.22 -3.80,-0.12 -3.30,-0.32 -2.79,-0.52 -2.24,-0.54 -1.70,-0.57 -1.17,-0.42 -0.65,-0.27 -0.19,0.03 0.25,0.33 0.57,0.77 0.90,1.21 1.07,1.73 1.25,2.24 1.24,2.79 1.24,3.34 1.06,3.85 0.89,4.37 0.55,4.80 0.22,5.24 -0.22,5.54 -0.68,5.84 -1.20,5.99 -1.73,6.13 -2.28,6.10 -2.82,6.07 -3.33,5.86 -3.83,5.66 -4.25,5.30 -4.66,4.94 -4.94,4.48 -5.22,4.01 -5.34,3.47 -5.45,2.94 -5.39,2.40 -5.33,1.85 -5.09,1.36 -4.86,0.86 -4.48,0.47 -4.11,0.07 -3.62,-0.17 -3.14,-0.42 -2.60,-0.51 -2.06,-0.59 -1.52,-0.50 -0.98,-0.41 -0.50,-0.15 -0.02,0.10 0.34,0.49 0.72,0.89 0.94,1.39 1.17,1.89 1.22,2.43 1.28,2.97 1.16,3.51 1.04,4.04 1.04,4.04 1.04,4.04 1.40,4.17 1.76,4.30 2.18,5.34 2.61,6.38 2.89,7.46 3.17,8.55 2.98,10.03 2.80,11.51 1.98,13.08 1.16,14.66 -0.51,16.28 -2.19,17.91 -3.35,18.60 -4.50,19.29 -5.62,19.61 -6.73,19.94 -9.14,20.00 -11.55,20.06 -12.62,19.77 -13.70,19.47 -14.85,18.89 -16.00,18.31 -17.14,17.18 -18.27,16.05 -18.65,14.91 -19.04,13.77 -19.09,12.34 -19.14,10.91 -18.38,9.24 -17.62,7.58 -15.99,5.57 -14.37,3.56 -12.23,1.84 -10.10,0.11 -8.65,-0.74 -7.21,-1.60 -6.14,-1.90 -5.08,-2.20 -3.74,-2.40 -2.40,-2.59 -1.20,-2.57 0,-2.55 0.30,-2.52 0.61,-2.48 0.90,-2.37 1.18,-2.26 1.44,-2.09 1.69,-1.91 1.90,-1.68 2.10,-1.45 2.24,-1.18 2.39,-0.90 2.46,-0.60 2.54,-0.30 2.54,0.00 2.54,0.30 2.46,0.60 2.39,0.90 2.24,1.18 2.10,1.45 1.90,1.68 1.69,1.91 1.44,2.09 1.18,2.26 0.90,2.37 0.61,2.48 0.30,2.52 -0.00,2.55 -0.00,2.55 L 0,2.55 Z"></path></g><g transform="translate(89.1666259765625 327.3611602783203) rotate(0 13.194427490234375 -1.7360992431640625)" stroke="none"><path fill="#1971c2" d="M -0.21,-2.38 Q -0.21,-2.38 1.99,-2.44 4.20,-2.50 5.63,-2.79 7.06,-3.07 8.40,-3.26 9.74,-3.44 11.42,-3.66 13.10,-3.87 14.34,-4.19 15.58,-4.52 16.86,-4.72 18.15,-4.92 19.34,-5.18 20.53,-5.45 22.44,-5.72 24.35,-5.99 24.95,-5.70 25.54,-5.40 25.86,-5.38 26.17,-5.36 26.48,-5.27 26.78,-5.17 27.05,-5.01 27.32,-4.84 27.55,-4.62 27.77,-4.39 27.93,-4.12 28.10,-3.85 28.19,-3.54 28.28,-3.24 28.30,-2.92 28.32,-2.61 28.26,-2.29 28.20,-1.98 28.07,-1.69 27.94,-1.40 27.74,-1.15 27.55,-0.90 27.30,-0.71 27.05,-0.51 26.76,-0.38 26.47,-0.25 26.15,-0.20 25.84,-0.14 25.84,-0.14 25.84,-0.14 25.42,-0.19 24.99,-0.23 24.61,-0.41 24.22,-0.59 23.91,-0.88 23.60,-1.17 23.40,-1.55 23.19,-1.92 23.12,-2.34 23.05,-2.76 23.12,-3.18 23.19,-3.61 23.39,-3.98 23.59,-4.36 23.89,-4.65 24.20,-4.95 24.59,-5.13 24.98,-5.31 25.40,-5.36 25.82,-5.41 26.24,-5.31 26.66,-5.22 27.02,-5.01 27.39,-4.79 27.67,-4.46 27.94,-4.14 28.10,-3.74 28.26,-3.35 28.29,-2.92 28.31,-2.50 28.20,-2.09 28.09,-1.67 27.85,-1.32 27.61,-0.97 27.27,-0.71 26.93,-0.45 26.53,-0.31 26.13,-0.17 25.70,-0.17 25.27,-0.17 24.87,-0.31 24.46,-0.44 24.12,-0.70 23.78,-0.95 23.54,-1.31 23.30,-1.66 23.19,-2.07 23.07,-2.48 23.09,-2.90 23.11,-3.33 23.27,-3.73 23.43,-4.12 23.70,-4.45 23.98,-4.78 24.34,-5.00 24.71,-5.22 25.12,-5.31 25.54,-5.40 25.86,-5.38 26.17,-5.36 26.48,-5.27 26.78,-5.17 27.05,-5.01 27.32,-4.84 27.55,-4.62 27.77,-4.39 27.93,-4.12 28.10,-3.85 28.19,-3.54 28.28,-3.24 28.30,-2.92 28.32,-2.61 28.26,-2.29 28.20,-1.98 28.07,-1.69 27.94,-1.40 27.74,-1.15 27.55,-0.90 27.30,-0.71 27.05,-0.51 26.76,-0.38 26.47,-0.25 26.15,-0.20 25.84,-0.14 25.25,-0.47 24.65,-0.81 23.06,-0.77 21.46,-0.73 19.02,-0.43 16.58,-0.12 15.15,0.16 13.73,0.45 11.95,0.73 10.17,1.02 9.01,1.08 7.84,1.14 6.21,1.42 4.58,1.70 2.40,2.04 0.21,2.38 -0.07,2.37 -0.36,2.36 -0.63,2.29 -0.91,2.21 -1.16,2.07 -1.41,1.92 -1.62,1.73 -1.84,1.53 -1.99,1.29 -2.15,1.04 -2.24,0.77 -2.34,0.50 -2.36,0.21 -2.39,-0.07 -2.35,-0.35 -2.30,-0.64 -2.19,-0.91 -2.08,-1.17 -1.91,-1.40 -1.74,-1.64 -1.52,-1.82 -1.30,-2.01 -1.04,-2.13 -0.78,-2.26 -0.49,-2.32 -0.21,-2.38 -0.21,-2.38 L -0.21,-2.38 Z"></path></g><g transform="translate(102.361083984375 328.0556182861328) rotate(0 -1.041656494140625 7.638885498046875)" stroke="none"><path fill="#1971c2" d="M 2.51,0.83 Q 2.51,0.83 2.11,2.03 1.72,3.23 1.30,4.92 0.88,6.61 0.88,8.29 0.88,9.97 1.91,12.09 2.93,14.20 3.03,14.70 3.12,15.20 3.05,15.70 2.98,16.20 2.75,16.65 2.53,17.10 2.17,17.46 1.81,17.82 1.36,18.04 0.90,18.26 0.40,18.33 -0.09,18.40 -0.59,18.30 -1.08,18.20 -1.52,17.95 -1.96,17.70 -2.30,17.33 -2.63,16.95 -2.83,16.48 -3.03,16.02 -3.07,15.51 -3.11,15.01 -2.99,14.52 -2.86,14.03 -2.59,13.60 -2.32,13.18 -1.92,12.86 -1.52,12.55 -1.05,12.37 -0.57,12.20 -0.07,12.19 0.43,12.18 0.91,12.33 1.39,12.48 1.80,12.77 2.21,13.07 2.51,13.48 2.80,13.89 2.95,14.38 3.09,14.86 3.08,15.37 3.06,15.87 2.89,16.35 2.71,16.82 2.39,17.21 2.07,17.61 1.65,17.88 1.22,18.15 0.73,18.27 0.24,18.39 -0.26,18.35 -0.76,18.30 -1.22,18.10 -1.69,17.90 -2.06,17.56 -2.44,17.22 -2.68,16.78 -2.93,16.34 -2.93,16.34 -2.93,16.34 -3.72,14.85 -4.50,13.36 -4.77,12.23 -5.05,11.10 -4.99,9.63 -4.93,8.16 -4.76,6.95 -4.58,5.74 -3.95,3.65 -3.32,1.55 -2.91,0.35 -2.51,-0.83 -2.37,-1.12 -2.23,-1.41 -2.03,-1.66 -1.83,-1.90 -1.58,-2.10 -1.32,-2.29 -1.03,-2.41 -0.73,-2.54 -0.42,-2.59 -0.10,-2.64 0.21,-2.62 0.52,-2.59 0.83,-2.49 1.13,-2.39 1.40,-2.22 1.67,-2.05 1.89,-1.82 2.11,-1.59 2.27,-1.31 2.43,-1.03 2.52,-0.73 2.61,-0.42 2.62,-0.10 2.64,0.21 2.57,0.52 2.51,0.83 2.51,0.83 L 2.51,0.83 Z"></path></g><g transform="translate(123.88885498046875 328.7500457763672) rotate(0 0.34722900390625 7.2916717529296875)" stroke="none"><path fill="#1971c2" d="M 2.55,-0.36 Q 2.55,-0.36 2.75,1.03 2.94,2.43 3.07,3.49 3.20,4.55 3.25,5.85 3.30,7.14 3.34,8.28 3.37,9.42 1.85,13.04 0.34,16.66 -0.11,16.64 -0.56,16.63 -0.98,16.46 -1.41,16.30 -1.75,16.01 -2.10,15.73 -2.34,15.34 -2.58,14.96 -2.68,14.51 -2.79,14.07 -2.75,13.62 -2.70,13.17 -2.52,12.76 -2.33,12.34 -2.03,12.01 -1.72,11.68 -1.32,11.46 -0.93,11.24 -0.48,11.16 -0.03,11.08 0.40,11.15 0.85,11.22 1.26,11.43 1.66,11.63 1.97,11.96 2.29,12.28 2.49,12.69 2.68,13.10 2.74,13.55 2.79,14.00 2.70,14.44 2.61,14.88 2.38,15.28 2.15,15.67 1.81,15.97 1.47,16.26 1.05,16.44 0.63,16.61 0.18,16.64 -0.26,16.67 -0.70,16.56 -1.14,16.44 -1.51,16.19 -1.89,15.94 -2.17,15.59 -2.45,15.23 -2.60,14.80 -2.75,14.37 -2.76,13.92 -2.76,13.47 -2.62,13.04 -2.49,12.61 -2.22,12.24 -1.95,11.88 -1.58,11.62 -1.20,11.36 -0.77,11.23 -0.34,11.10 -0.34,11.10 -0.34,11.10 -1.18,10.30 -2.03,9.49 -2.02,8.39 -2.02,7.30 -2.08,5.23 -2.14,3.15 -2.35,1.76 -2.55,0.36 -2.56,0.05 -2.57,-0.25 -2.50,-0.56 -2.43,-0.86 -2.29,-1.14 -2.15,-1.42 -1.95,-1.66 -1.75,-1.89 -1.50,-2.07 -1.24,-2.26 -0.95,-2.37 -0.67,-2.49 -0.36,-2.53 -0.05,-2.58 0.25,-2.55 0.56,-2.52 0.85,-2.41 1.15,-2.31 1.41,-2.14 1.67,-1.96 1.88,-1.74 2.09,-1.51 2.24,-1.23 2.39,-0.96 2.47,-0.66 2.55,-0.36 2.55,-0.36 L 2.55,-0.36 Z"></path></g><g transform="translate(124.58331298828125 320.41673278808594) rotate(0 10.069427490234375 8.6805419921875)" stroke="none"><path fill="#1971c2" d="M -1.03,-2.32 Q -1.03,-2.32 0.81,-3.01 2.65,-3.71 3.95,-4.14 5.24,-4.57 6.82,-4.92 8.39,-5.28 9.74,-5.30 11.09,-5.32 13.12,-5.14 15.14,-4.97 16.12,-4.54 17.11,-4.12 18.08,-2.98 19.04,-1.85 19.58,0.10 20.12,2.06 19.93,3.13 19.75,4.21 19.05,5.94 18.35,7.67 17.31,8.69 16.27,9.70 14.86,10.86 13.44,12.03 11.70,12.81 9.96,13.59 8.68,14.10 7.41,14.60 7.80,13.07 8.19,11.55 9.62,11.81 11.05,12.08 12.12,12.76 13.20,13.45 14.25,14.14 15.30,14.82 16.60,15.37 17.89,15.91 19.52,16.71 21.15,17.51 21.66,17.75 22.16,18.00 22.56,18.40 22.95,18.80 23.21,19.30 23.46,19.81 23.53,20.36 23.61,20.92 23.50,21.47 23.40,22.02 23.12,22.51 22.84,23.00 22.43,23.38 22.01,23.76 21.49,23.98 20.98,24.20 20.41,24.25 19.85,24.29 19.31,24.16 18.76,24.02 18.29,23.72 17.81,23.42 17.46,22.98 17.11,22.54 16.92,22.01 16.72,21.49 16.71,20.92 16.69,20.36 16.85,19.82 17.02,19.29 17.35,18.83 17.67,18.37 18.13,18.04 18.59,17.72 19.13,17.55 19.66,17.39 20.22,17.40 20.79,17.41 21.31,17.61 21.84,17.80 22.28,18.15 22.72,18.51 23.02,18.98 23.33,19.45 23.46,20.00 23.60,20.54 23.55,21.10 23.51,21.67 23.29,22.18 23.06,22.70 22.69,23.12 22.31,23.54 21.82,23.81 21.33,24.09 20.78,24.20 20.23,24.30 19.67,24.23 19.12,24.15 19.12,24.15 19.12,24.15 16.67,22.97 14.23,21.80 12.68,21.03 11.14,20.25 10.11,19.56 9.08,18.87 7.95,18.06 6.82,17.26 5.59,16.61 4.36,15.95 3.80,14.94 3.25,13.92 3.44,11.91 3.63,9.90 4.90,9.23 6.18,8.57 7.69,7.88 9.20,7.20 10.18,6.62 11.16,6.05 12.34,5.06 13.52,4.08 13.92,2.59 14.32,1.11 13.44,0.43 12.57,-0.24 10.99,-0.44 9.41,-0.64 6.97,-0.06 4.53,0.51 2.78,1.41 1.03,2.32 0.73,2.41 0.44,2.50 0.14,2.51 -0.16,2.53 -0.46,2.47 -0.76,2.42 -1.04,2.29 -1.32,2.16 -1.56,1.97 -1.80,1.78 -1.99,1.54 -2.17,1.30 -2.30,1.02 -2.42,0.74 -2.48,0.44 -2.53,0.14 -2.51,-0.16 -2.49,-0.46 -2.40,-0.76 -2.31,-1.05 -2.15,-1.31 -1.99,-1.57 -1.77,-1.79 -1.55,-2.00 -1.29,-2.16 -1.03,-2.32 -1.03,-2.32 L -1.03,-2.32 Z"></path></g><g transform="translate(169.72216796875 324.58338928222656) rotate(0 -6.944427490234375 4.5139007568359375)" stroke="none"><path fill="#1971c2" d="M -2.44,0.69 Q -2.44,0.69 -2.83,-0.69 -3.22,-2.09 -3.71,-3.08 -4.21,-4.06 -5.90,-4.09 -7.59,-4.11 -9.34,-2.81 -11.09,-1.51 -12.46,0.36 -13.82,2.23 -14.12,3.87 -14.42,5.50 -14.29,7.03 -14.16,8.56 -13.33,9.75 -12.50,10.95 -11.23,11.52 -9.96,12.10 -8.94,12.40 -7.91,12.71 -6.66,12.53 -5.42,12.35 -4.14,11.33 -2.86,10.31 -2.33,9.19 -1.81,8.06 -1.21,6.22 -0.62,4.37 -0.48,2.71 -0.34,1.05 -0.30,-0.62 -0.26,-2.29 -0.19,-2.65 -0.12,-3.01 0.02,-3.35 0.18,-3.68 0.41,-3.97 0.63,-4.26 0.93,-4.48 1.22,-4.70 1.55,-4.85 1.89,-5.00 2.25,-5.06 2.62,-5.13 2.98,-5.10 3.35,-5.07 3.70,-4.96 4.05,-4.85 4.36,-4.66 4.68,-4.46 4.93,-4.20 5.19,-3.94 5.38,-3.62 5.57,-3.31 5.67,-2.95 5.78,-2.60 5.80,-2.23 5.82,-1.87 4.24,-0.45 2.65,0.96 2.17,0.86 1.69,0.76 1.26,0.52 0.83,0.27 0.51,-0.09 0.18,-0.47 -0.00,-0.92 -0.19,-1.38 -0.22,-1.87 -0.26,-2.36 -0.13,-2.84 -0.01,-3.32 0.26,-3.73 0.53,-4.14 0.91,-4.45 1.30,-4.75 1.77,-4.92 2.23,-5.08 2.73,-5.09 3.22,-5.10 3.69,-4.95 4.16,-4.80 4.56,-4.50 4.96,-4.21 5.24,-3.81 5.52,-3.40 5.66,-2.93 5.80,-2.45 5.78,-1.96 5.76,-1.47 5.59,-1.01 5.41,-0.54 5.10,-0.16 4.78,0.21 4.36,0.47 3.94,0.73 3.46,0.84 2.98,0.96 2.49,0.91 2.00,0.86 1.55,0.66 1.10,0.46 0.74,0.13 0.37,-0.20 0.13,-0.63 -0.09,-1.06 -0.18,-1.55 -0.27,-2.03 -0.20,-2.52 -0.12,-3.01 0.09,-3.45 0.32,-3.89 0.67,-4.23 1.02,-4.58 1.47,-4.79 1.91,-5.01 0.82,-3.65 -0.26,-2.29 -0.19,-2.65 -0.12,-3.01 0.02,-3.35 0.18,-3.68 0.40,-3.97 0.63,-4.26 0.93,-4.48 1.22,-4.70 1.55,-4.85 1.89,-5.00 2.25,-5.06 2.62,-5.13 2.98,-5.10 3.35,-5.07 3.70,-4.96 4.05,-4.85 4.36,-4.66 4.68,-4.46 4.93,-4.20 5.19,-3.94 5.38,-3.62 5.57,-3.31 5.67,-2.95 5.78,-2.60 5.80,-2.23 5.82,-1.87 5.69,0.76 5.55,3.39 5.37,4.70 5.19,6.02 4.85,7.29 4.50,8.57 3.75,10.33 3.01,12.10 1.55,13.93 0.08,15.77 -1.27,16.75 -2.64,17.72 -4.66,18.00 -6.68,18.27 -8.04,18.25 -9.39,18.24 -10.68,17.87 -11.98,17.51 -13.13,17.01 -14.28,16.50 -15.66,15.46 -17.04,14.42 -17.78,13.37 -18.52,12.31 -19.09,11.00 -19.67,9.68 -19.84,8.46 -20.00,7.23 -19.91,6.01 -19.82,4.79 -19.58,3.28 -19.33,1.76 -18.80,0.55 -18.27,-0.66 -17.34,-2.17 -16.42,-3.67 -15.58,-4.63 -14.74,-5.60 -13.44,-6.78 -12.14,-7.96 -10.92,-8.57 -9.69,-9.18 -8.44,-9.34 -7.19,-9.50 -5.95,-9.37 -4.71,-9.24 -2.94,-8.68 -1.16,-8.11 -0.40,-7.20 0.34,-6.29 0.98,-4.89 1.62,-3.49 2.03,-2.09 2.44,-0.69 2.49,-0.39 2.53,-0.09 2.51,0.21 2.48,0.51 2.38,0.80 2.29,1.09 2.12,1.35 1.96,1.61 1.74,1.82 1.51,2.03 1.25,2.18 0.98,2.34 0.69,2.42 0.39,2.50 0.09,2.52 -0.21,2.53 -0.51,2.46 -0.81,2.40 -1.08,2.27 -1.36,2.14 -1.60,1.94 -1.83,1.75 -2.02,1.50 -2.20,1.26 -2.32,0.97 -2.44,0.69 -2.44,0.69 L -2.44,0.69 Z"></path></g><g transform="translate(181.5277099609375 328.0556182861328) rotate(0 0.34722900390625 9.02777099609375)" stroke="none"><path fill="#1971c2" d="M 2.57,0 Q 2.57,0 2.59,1.19 2.61,2.39 2.84,4.26 3.07,6.13 3.10,7.99 3.13,9.85 3.19,11.00 3.26,12.14 3.36,13.62 3.45,15.09 2.72,17.56 1.99,20.03 1.63,20.30 1.26,20.57 0.82,20.70 0.39,20.84 -0.06,20.83 -0.51,20.82 -0.94,20.66 -1.37,20.51 -1.73,20.22 -2.08,19.94 -2.33,19.56 -2.58,19.17 -2.69,18.73 -2.80,18.29 -2.76,17.84 -2.73,17.38 -2.55,16.96 -2.37,16.54 -2.07,16.20 -1.77,15.86 -1.37,15.64 -0.98,15.41 -0.53,15.33 -0.08,15.24 0.36,15.30 0.81,15.36 1.22,15.56 1.63,15.76 1.95,16.08 2.27,16.40 2.48,16.81 2.68,17.21 2.75,17.66 2.81,18.12 2.72,18.56 2.64,19.01 2.42,19.41 2.20,19.80 1.86,20.11 1.52,20.42 1.10,20.60 0.69,20.78 0.23,20.82 -0.21,20.86 -0.65,20.75 -1.10,20.64 -1.48,20.40 -1.87,20.15 -2.15,19.80 -2.44,19.45 -2.60,19.02 -2.76,18.59 -2.77,18.14 -2.79,17.68 -2.65,17.25 -2.52,16.81 -2.26,16.44 -1.99,16.07 -1.99,16.07 -1.99,16.07 -2.04,15.61 -2.09,15.15 -2.03,13.73 -1.98,12.31 -1.98,11.21 -1.99,10.11 -2.13,8.57 -2.27,7.03 -2.44,4.71 -2.61,2.39 -2.59,1.19 -2.57,0 -2.53,-0.30 -2.50,-0.61 -2.39,-0.90 -2.28,-1.19 -2.10,-1.45 -1.92,-1.70 -1.69,-1.91 -1.46,-2.12 -1.18,-2.26 -0.91,-2.40 -0.61,-2.48 -0.31,-2.55 0.00,-2.55 0.31,-2.55 0.61,-2.48 0.91,-2.40 1.18,-2.26 1.46,-2.12 1.69,-1.91 1.92,-1.70 2.10,-1.45 2.28,-1.19 2.39,-0.90 2.50,-0.61 2.53,-0.30 2.57,0.00 2.57,0.00 L 2.57,0 Z"></path></g><g transform="translate(175.97216796875 334.3056182861328) rotate(0 11.805572509765625 -7.2916717529296875)" stroke="none"><path fill="#1971c2" d="M -1.90,-1.26 Q -1.90,-1.26 -1.11,-2.47 -0.32,-3.69 0.97,-4.97 2.26,-6.25 3.11,-7.15 3.97,-8.04 5.44,-9.23 6.92,-10.41 9.55,-11.73 12.18,-13.04 13.59,-13.82 15.00,-14.59 16.51,-15.20 18.03,-15.80 19.17,-16.13 20.31,-16.46 21.56,-16.41 22.82,-16.36 23.77,-15.82 24.72,-15.29 25.29,-14.20 25.85,-13.11 25.78,-11.92 25.70,-10.74 24.84,-8.78 23.97,-6.82 23.13,-5.92 22.29,-5.01 21.45,-4.20 20.61,-3.38 19.70,-2.67 18.79,-1.97 17.84,-1.31 16.89,-0.64 15.60,0.30 14.31,1.26 10.86,0.90 7.42,0.55 7.17,0.13 6.92,-0.28 6.81,-0.75 6.71,-1.23 6.76,-1.71 6.82,-2.20 7.02,-2.64 7.23,-3.08 7.57,-3.43 7.90,-3.79 8.33,-4.01 8.76,-4.24 9.25,-4.32 9.73,-4.40 10.21,-4.32 10.69,-4.23 11.12,-4.01 11.55,-3.78 11.88,-3.42 12.22,-3.07 12.42,-2.62 12.62,-2.18 12.67,-1.70 12.72,-1.21 12.62,-0.74 12.51,-0.26 12.26,0.15 12.01,0.56 11.63,0.88 11.26,1.19 10.81,1.37 10.35,1.55 9.87,1.57 9.38,1.60 8.91,1.47 8.44,1.34 8.04,1.06 7.64,0.79 7.34,0.40 7.05,0.01 6.90,-0.44 6.74,-0.91 6.75,-1.39 6.75,-1.88 6.90,-2.34 7.06,-2.80 7.36,-3.19 7.65,-3.58 8.06,-3.85 8.46,-4.12 8.93,-4.25 9.40,-4.38 9.89,-4.35 10.37,-4.32 10.83,-4.14 11.28,-3.96 11.65,-3.64 12.02,-3.33 12.02,-3.33 12.02,-3.33 11.62,-3.58 11.21,-3.83 12.41,-4.61 13.61,-5.39 15.13,-6.42 16.65,-7.44 17.92,-8.55 19.19,-9.66 20.58,-10.69 21.97,-11.73 20.73,-11.77 19.50,-11.82 18.21,-11.39 16.93,-10.96 15.52,-10.23 14.10,-9.51 11.97,-8.23 9.84,-6.95 8.57,-5.80 7.30,-4.65 6.39,-3.81 5.47,-2.96 4.49,-2.03 3.51,-1.10 2.71,0.08 1.90,1.26 1.72,1.47 1.54,1.68 1.31,1.84 1.09,2.00 0.83,2.10 0.58,2.20 0.30,2.24 0.03,2.28 -0.23,2.25 -0.51,2.22 -0.77,2.13 -1.02,2.03 -1.25,1.88 -1.48,1.73 -1.67,1.53 -1.85,1.32 -1.99,1.08 -2.12,0.84 -2.19,0.57 -2.26,0.31 -2.26,0.03 -2.27,-0.23 -2.21,-0.50 -2.14,-0.77 -2.02,-1.02 -1.90,-1.26 -1.90,-1.26 L -1.90,-1.26 Z"></path></g><g transform="translate(419.0279541015625 362.7777404785156) rotate(0 5.90277099609375 -14.9305419921875)" stroke="none"><path fill="#1971c2" d="M -1.47,1.84 Q -1.47,1.84 -2.51,1.04 -3.54,0.24 -4.29,-0.79 -5.04,-1.84 -5.52,-3.67 -6.00,-5.49 -6.16,-7.32 -6.31,-9.14 -6.41,-10.50 -6.50,-11.86 -6.05,-13.90 -5.60,-15.95 -5.25,-17.21 -4.90,-18.47 -4.31,-20.01 -3.72,-21.55 -3.02,-22.81 -2.32,-24.06 -1.40,-25.36 -0.48,-26.65 0.41,-27.59 1.31,-28.53 2.15,-29.19 2.99,-29.85 4.21,-30.55 5.43,-31.24 6.55,-31.65 7.66,-32.05 8.86,-32.24 10.06,-32.43 12.23,-31.95 14.41,-31.47 15.63,-29.71 16.86,-27.94 17.11,-26.67 17.35,-25.40 17.41,-24.06 17.47,-22.72 17.27,-21.32 17.08,-19.91 16.97,-18.61 16.86,-17.30 16.79,-14.91 16.72,-12.52 17.05,-11.14 17.37,-9.75 18.12,-7.34 18.87,-4.93 18.92,-4.44 18.96,-3.96 18.85,-3.49 18.74,-3.01 18.48,-2.60 18.23,-2.19 17.85,-1.88 17.48,-1.57 17.03,-1.40 16.57,-1.22 16.09,-1.20 15.60,-1.18 15.14,-1.32 14.67,-1.45 14.27,-1.73 13.87,-2.01 13.59,-2.40 13.30,-2.79 13.15,-3.25 13.00,-3.72 13.01,-4.20 13.01,-4.69 13.17,-5.15 13.33,-5.60 13.63,-5.99 13.93,-6.37 14.34,-6.64 14.74,-6.90 15.21,-7.03 15.68,-7.15 16.17,-7.12 16.65,-7.08 17.10,-6.90 17.55,-6.71 17.92,-6.39 18.28,-6.07 18.53,-5.65 18.77,-5.23 18.87,-4.76 18.97,-4.28 18.91,-3.80 18.85,-3.32 18.64,-2.88 18.43,-2.44 18.09,-2.10 17.75,-1.75 17.32,-1.53 16.89,-1.30 16.41,-1.23 15.93,-1.16 15.45,-1.25 14.97,-1.33 14.54,-1.56 14.12,-1.80 13.79,-2.15 13.46,-2.51 13.26,-2.95 13.06,-3.40 13.06,-3.40 13.06,-3.40 12.56,-5.13 12.06,-6.86 11.78,-8.55 11.49,-10.24 11.29,-11.39 11.08,-12.54 11.10,-15.06 11.12,-17.59 11.17,-19.21 11.21,-20.84 11.31,-22.68 11.40,-24.53 11.04,-25.74 10.68,-26.96 9.32,-26.80 7.95,-26.65 6.96,-26.12 5.97,-25.58 4.72,-24.72 3.47,-23.85 2.09,-21.87 0.71,-19.88 0.19,-18.46 -0.31,-17.03 -0.68,-16.01 -1.04,-14.98 -1.33,-13.53 -1.62,-12.08 -1.57,-10.84 -1.53,-9.61 -1.37,-8.15 -1.20,-6.69 -0.82,-5.06 -0.44,-3.43 0.51,-2.63 1.47,-1.84 1.67,-1.63 1.87,-1.43 2.01,-1.19 2.16,-0.94 2.24,-0.67 2.32,-0.40 2.33,-0.11 2.35,0.16 2.29,0.44 2.24,0.72 2.12,0.98 2.00,1.24 1.82,1.46 1.65,1.68 1.42,1.85 1.19,2.03 0.93,2.14 0.67,2.25 0.39,2.30 0.11,2.35 -0.16,2.33 -0.44,2.31 -0.71,2.22 -0.99,2.14 -1.23,1.99 -1.47,1.84 -1.47,1.84 L -1.47,1.84 Z"></path></g><g transform="translate(416.25018310546875 349.5833435058594) rotate(0 9.02777099609375 -1.04168701171875)" stroke="none"><path fill="#1971c2" d="M -0.82,-2.47 Q -0.82,-2.47 0.37,-2.88 1.56,-3.29 2.64,-3.54 3.71,-3.79 4.84,-4.06 5.97,-4.33 7.46,-4.47 8.94,-4.60 10.78,-4.74 12.62,-4.88 13.79,-4.89 14.95,-4.90 16.85,-4.94 18.74,-4.98 19.20,-4.90 19.66,-4.83 20.08,-4.61 20.49,-4.39 20.82,-4.05 21.14,-3.71 21.34,-3.29 21.53,-2.86 21.59,-2.40 21.64,-1.93 21.54,-1.47 21.44,-1.01 21.20,-0.61 20.96,-0.21 20.60,0.09 20.25,0.39 19.81,0.56 19.38,0.74 18.91,0.77 18.44,0.79 17.99,0.67 17.54,0.54 17.15,0.28 16.76,0.02 16.47,-0.34 16.19,-0.71 16.04,-1.16 15.89,-1.60 15.89,-2.07 15.88,-2.54 16.03,-2.98 16.18,-3.43 16.46,-3.80 16.75,-4.18 17.13,-4.44 17.52,-4.70 17.97,-4.83 18.42,-4.96 18.89,-4.93 19.36,-4.91 19.80,-4.74 20.23,-4.56 20.59,-4.26 20.95,-3.96 21.19,-3.56 21.43,-3.16 21.54,-2.70 21.64,-2.24 21.59,-1.78 21.54,-1.31 21.34,-0.88 21.15,-0.46 20.83,-0.12 20.50,0.21 20.09,0.43 19.68,0.66 19.21,0.73 18.75,0.81 18.75,0.81 18.75,0.81 16.88,0.79 15.00,0.76 13.88,0.77 12.77,0.77 11.09,0.77 9.42,0.78 8.30,0.87 7.18,0.96 5.20,1.33 3.22,1.69 2.02,2.08 0.82,2.47 0.51,2.54 0.20,2.60 -0.10,2.59 -0.42,2.57 -0.72,2.49 -1.02,2.40 -1.29,2.24 -1.57,2.08 -1.79,1.86 -2.02,1.65 -2.19,1.38 -2.36,1.11 -2.46,0.82 -2.56,0.52 -2.58,0.20 -2.61,-0.10 -2.55,-0.41 -2.50,-0.72 -2.38,-1.01 -2.26,-1.30 -2.07,-1.55 -1.88,-1.81 -1.63,-2.00 -1.39,-2.20 -1.11,-2.34 -0.82,-2.47 -0.82,-2.47 L -0.82,-2.47 Z"></path></g><g transform="translate(441.94464111328125 357.9167175292969) rotate(0 10.763885498046875 -11.11114501953125)" stroke="none"><path fill="#1971c2" d="M -1.56,2.08 Q -1.56,2.08 -2.42,1.46 -3.27,0.85 -4.02,-0.32 -4.76,-1.50 -4.86,-2.64 -4.96,-3.78 -4.75,-5.42 -4.54,-7.06 -4.24,-8.91 -3.94,-10.75 -3.58,-12.95 -3.22,-15.15 -2.86,-16.21 -2.51,-17.27 -2.13,-18.61 -1.76,-19.95 -0.75,-21.69 0.24,-23.43 2.29,-24.07 4.34,-24.71 5.76,-23.86 7.18,-23.01 8.08,-21.89 8.98,-20.76 9.67,-19.53 10.35,-18.31 11.34,-17.11 12.32,-15.92 12.98,-15.00 13.63,-14.08 14.94,-12.71 16.26,-11.33 17.16,-10.75 18.05,-10.17 18.94,-9.49 19.82,-8.80 18.96,-8.05 18.09,-7.30 18.37,-8.72 18.65,-10.15 18.98,-11.53 19.31,-12.90 19.66,-14.53 20.00,-16.16 20.38,-17.78 20.76,-19.41 20.52,-20.80 20.29,-22.19 20.41,-22.58 20.54,-22.97 20.76,-23.31 20.98,-23.66 21.27,-23.94 21.57,-24.23 21.92,-24.43 22.27,-24.64 22.66,-24.75 23.06,-24.87 23.46,-24.88 23.87,-24.90 24.27,-24.82 24.67,-24.74 25.04,-24.56 25.41,-24.39 25.73,-24.13 26.04,-23.87 26.29,-23.55 26.54,-23.22 26.70,-22.85 26.86,-22.47 26.92,-22.07 26.99,-21.67 26.96,-21.26 26.93,-20.85 25.11,-19.50 23.30,-18.15 22.77,-18.29 22.24,-18.42 21.78,-18.72 21.32,-19.02 20.98,-19.46 20.64,-19.89 20.46,-20.40 20.27,-20.92 20.26,-21.47 20.25,-22.01 20.42,-22.54 20.59,-23.06 20.91,-23.50 21.24,-23.94 21.68,-24.26 22.13,-24.57 22.66,-24.73 23.18,-24.88 23.73,-24.86 24.28,-24.84 24.79,-24.65 25.30,-24.45 25.73,-24.11 26.15,-23.76 26.44,-23.29 26.73,-22.83 26.86,-22.30 26.98,-21.76 26.93,-21.22 26.88,-20.67 26.66,-20.17 26.44,-19.67 26.07,-19.27 25.70,-18.86 25.22,-18.60 24.74,-18.33 24.20,-18.23 23.66,-18.14 23.12,-18.22 22.58,-18.30 22.09,-18.54 21.60,-18.79 21.22,-19.18 20.83,-19.58 20.60,-20.07 20.36,-20.56 20.29,-21.11 20.22,-21.65 20.33,-22.19 20.44,-22.72 20.71,-23.20 20.99,-23.67 21.40,-24.03 21.81,-24.40 22.32,-24.61 22.82,-24.82 21.55,-23.51 20.29,-22.19 20.41,-22.58 20.54,-22.97 20.76,-23.31 20.98,-23.66 21.27,-23.94 21.57,-24.23 21.92,-24.43 22.27,-24.64 22.66,-24.75 23.06,-24.87 23.46,-24.88 23.87,-24.90 24.27,-24.82 24.67,-24.74 25.04,-24.56 25.41,-24.39 25.73,-24.13 26.04,-23.87 26.29,-23.55 26.54,-23.22 26.70,-22.85 26.86,-22.47 26.92,-22.07 26.99,-21.67 26.96,-21.26 26.93,-20.85 27.19,-19.78 27.45,-18.71 27.11,-17.57 26.78,-16.44 26.44,-14.73 26.11,-13.02 25.77,-11.38 25.43,-9.75 25.10,-8.11 24.76,-6.46 24.49,-5.37 24.22,-4.28 23.40,-3.42 22.59,-2.56 21.19,-2.25 19.79,-1.95 18.72,-2.30 17.65,-2.65 16.72,-3.25 15.79,-3.86 14.60,-4.71 13.42,-5.56 11.99,-6.99 10.57,-8.41 9.07,-10.01 7.57,-11.61 6.13,-13.37 4.69,-15.13 3.84,-16.42 3.00,-17.72 3.73,-18.51 4.46,-19.31 4.08,-18.19 3.71,-17.07 3.11,-15.60 2.50,-14.12 2.18,-11.82 1.85,-9.53 1.49,-7.60 1.14,-5.68 0.61,-4.46 0.08,-3.24 0.82,-2.66 1.56,-2.08 1.79,-1.86 2.01,-1.65 2.18,-1.38 2.35,-1.11 2.45,-0.82 2.55,-0.52 2.57,-0.21 2.60,0.10 2.55,0.41 2.50,0.72 2.38,1.01 2.25,1.30 2.07,1.55 1.88,1.80 1.63,2.00 1.39,2.20 1.11,2.33 0.82,2.47 0.51,2.53 0.21,2.59 -0.10,2.58 -0.41,2.57 -0.71,2.48 -1.01,2.39 -1.29,2.24 -1.56,2.08 -1.56,2.08 L -1.56,2.08 Z"></path></g><g transform="translate(480.83349609375 332.9166564941406) rotate(0 1.388885498046875 9.72222900390625)" stroke="none"><path fill="#1971c2" d="M 2.62,0 Q 2.62,0 2.61,1.39 2.60,2.79 2.64,5.00 2.69,7.22 2.91,8.79 3.14,10.37 3.49,12.11 3.83,13.86 4.06,15.12 4.29,16.38 4.83,17.47 5.36,18.55 5.55,19.01 5.73,19.46 5.76,19.95 5.79,20.44 5.66,20.92 5.53,21.39 5.26,21.80 4.99,22.21 4.60,22.51 4.21,22.81 3.75,22.96 3.28,23.12 2.79,23.13 2.30,23.13 1.83,22.98 1.37,22.82 0.98,22.53 0.58,22.23 0.31,21.83 0.03,21.42 -0.10,20.95 -0.23,20.48 -0.21,19.99 -0.18,19.50 -0.00,19.04 0.16,18.59 0.48,18.21 0.80,17.83 1.21,17.58 1.63,17.32 2.11,17.21 2.59,17.11 3.08,17.16 3.57,17.21 4.01,17.41 4.46,17.61 4.82,17.95 5.18,18.28 5.41,18.72 5.64,19.15 5.72,19.63 5.81,20.12 5.73,20.60 5.65,21.09 5.43,21.52 5.20,21.96 4.84,22.30 4.49,22.63 4.05,22.84 3.60,23.05 3.11,23.11 2.63,23.16 2.15,23.06 1.67,22.96 1.24,22.71 0.82,22.46 0.50,22.08 0.18,21.71 0.18,21.71 0.18,21.71 -0.78,18.46 -1.75,15.22 -2.05,13.29 -2.34,11.36 -2.51,9.29 -2.69,7.22 -2.64,5.00 -2.60,2.79 -2.61,1.39 -2.62,0 -2.58,-0.31 -2.54,-0.62 -2.43,-0.92 -2.32,-1.21 -2.14,-1.47 -1.96,-1.73 -1.72,-1.94 -1.49,-2.15 -1.21,-2.30 -0.93,-2.45 -0.62,-2.52 -0.31,-2.60 0.00,-2.60 0.31,-2.60 0.62,-2.52 0.93,-2.45 1.21,-2.30 1.49,-2.15 1.72,-1.94 1.96,-1.73 2.14,-1.47 2.32,-1.21 2.43,-0.92 2.54,-0.62 2.58,-0.31 2.62,0.00 2.62,0.00 L 2.62,0 Z"></path></g><g transform="translate(508.61126708984375 331.5277404785156) rotate(0 -6.944427490234375 9.375030517578125)" stroke="none"><path fill="#1971c2" d="M -0.72,2.52 Q -0.72,2.52 -2.11,2.11 -3.50,1.69 -5.35,1.55 -7.20,1.41 -8.28,1.56 -9.36,1.72 -8.75,2.70 -8.15,3.67 -7.56,5.17 -6.97,6.67 -6.20,8.31 -5.44,9.94 -5.02,11.00 -4.61,12.06 -4.26,13.72 -3.90,15.37 -4.15,17.19 -4.41,19.00 -5.07,19.89 -5.73,20.77 -7.27,21.58 -8.80,22.40 -12.64,21.97 -16.48,21.54 -16.75,21.07 -17.01,20.60 -17.12,20.07 -17.22,19.54 -17.15,19.01 -17.08,18.47 -16.84,17.99 -16.60,17.50 -16.22,17.12 -15.84,16.74 -15.36,16.49 -14.88,16.25 -14.34,16.18 -13.81,16.10 -13.28,16.20 -12.75,16.30 -12.27,16.56 -11.80,16.83 -11.44,17.23 -11.08,17.63 -10.86,18.13 -10.65,18.62 -10.60,19.16 -10.55,19.70 -10.68,20.22 -10.81,20.75 -11.10,21.20 -11.39,21.66 -11.81,22.00 -12.23,22.34 -12.74,22.53 -13.24,22.72 -13.78,22.73 -14.32,22.75 -14.84,22.59 -15.36,22.44 -15.80,22.12 -16.24,21.81 -16.55,21.37 -16.87,20.93 -17.03,20.42 -17.19,19.90 -17.18,19.36 -17.17,18.82 -16.98,18.32 -16.80,17.81 -16.46,17.39 -16.12,16.96 -15.67,16.67 -15.22,16.38 -14.69,16.25 -14.17,16.11 -13.63,16.15 -13.09,16.20 -12.59,16.41 -12.10,16.62 -11.69,16.98 -11.29,17.34 -11.29,17.34 -11.29,17.34 -11.79,17.03 -12.28,16.72 -11.22,16.74 -10.16,16.76 -10.26,15.52 -10.36,14.27 -11.09,12.55 -11.81,10.84 -12.37,9.59 -12.92,8.35 -13.37,7.08 -13.81,5.81 -14.23,3.58 -14.65,1.35 -14.35,0.07 -14.05,-1.20 -12.54,-2.43 -11.03,-3.66 -9.97,-3.87 -8.92,-4.09 -6.86,-3.91 -4.81,-3.74 -3.44,-3.51 -2.08,-3.29 -0.68,-2.91 0.72,-2.52 1.01,-2.40 1.30,-2.28 1.56,-2.09 1.81,-1.90 2.01,-1.65 2.21,-1.41 2.35,-1.12 2.49,-0.84 2.55,-0.53 2.62,-0.22 2.60,0.09 2.59,0.41 2.51,0.71 2.42,1.02 2.26,1.29 2.10,1.57 1.88,1.80 1.67,2.03 1.40,2.20 1.13,2.37 0.83,2.47 0.53,2.57 0.21,2.60 -0.09,2.62 -0.40,2.57 -0.72,2.52 -0.72,2.52 L -0.72,2.52 Z"></path></g><g transform="translate(529.444580078125 332.9166564941406) rotate(0 -9.02777099609375 7.986114501953125)" stroke="none"><path fill="#1971c2" d="M 0,2.51 Q 0,2.51 -1.19,2.53 -2.39,2.55 -4.06,2.93 -5.73,3.31 -7.51,4.31 -9.30,5.31 -10.39,6.01 -11.47,6.72 -12.34,7.61 -13.21,8.51 -14.04,9.90 -14.87,11.29 -14.00,11.99 -13.13,12.68 -11.74,12.89 -10.34,13.09 -8.64,12.87 -6.95,12.65 -5.84,12.27 -4.73,11.89 -4.36,10.72 -3.99,9.55 -3.44,6.04 -2.89,2.53 -2.55,2.11 -2.22,1.69 -1.76,1.40 -1.31,1.11 -0.79,0.98 -0.27,0.85 0.26,0.90 0.79,0.94 1.28,1.15 1.78,1.36 2.18,1.72 2.58,2.08 2.84,2.55 3.11,3.01 3.21,3.54 3.31,4.07 3.24,4.60 3.17,5.13 2.93,5.61 2.69,6.09 2.31,6.47 1.94,6.86 1.45,7.09 0.97,7.33 0.44,7.41 -0.08,7.48 -0.61,7.38 -1.14,7.28 -1.60,7.02 -2.07,6.75 -2.43,6.35 -2.79,5.95 -3.00,5.46 -3.22,4.97 -3.26,4.43 -3.30,3.90 -3.18,3.38 -3.05,2.85 -2.76,2.40 -2.47,1.95 -2.05,1.61 -1.63,1.27 -1.13,1.09 -0.62,0.90 -0.09,0.89 0.44,0.87 0.95,1.03 1.47,1.19 1.90,1.50 2.34,1.81 2.65,2.25 2.97,2.68 3.13,3.20 3.28,3.71 3.27,4.25 3.26,4.78 3.07,5.29 2.89,5.79 2.89,5.79 2.89,5.79 2.73,6.83 2.58,7.86 2.51,9.01 2.45,10.16 1.82,11.97 1.20,13.79 -0.22,15.48 -1.64,17.17 -3.68,17.85 -5.71,18.52 -7.89,18.77 -10.06,19.02 -12.46,18.69 -14.85,18.35 -16.08,17.97 -17.30,17.58 -18.32,16.75 -19.35,15.93 -19.84,14.80 -20.33,13.67 -20.07,11.39 -19.82,9.11 -18.39,7.00 -16.96,4.88 -15.69,3.57 -14.43,2.25 -13.31,1.52 -12.19,0.78 -10.81,-0.09 -9.42,-0.97 -8.42,-1.34 -7.43,-1.72 -4.91,-2.14 -2.39,-2.55 -1.19,-2.53 0,-2.51 0.30,-2.47 0.60,-2.43 0.88,-2.32 1.16,-2.22 1.41,-2.05 1.66,-1.87 1.86,-1.65 2.06,-1.42 2.20,-1.15 2.34,-0.89 2.41,-0.59 2.49,-0.30 2.49,0.00 2.49,0.30 2.41,0.59 2.34,0.89 2.20,1.15 2.06,1.42 1.86,1.65 1.66,1.87 1.41,2.05 1.16,2.22 0.88,2.33 0.60,2.43 0.30,2.47 -0.00,2.51 -0.00,2.51 L 0,2.51 Z"></path></g><g transform="translate(540.5557861328125 334.3055725097656) rotate(0 10.06939697265625 -0.34722900390625)" stroke="none"><path fill="#1971c2" d="M 0,-2.52 Q 0,-2.52 1.39,-2.52 2.79,-2.52 5.47,-2.66 8.15,-2.81 9.79,-2.88 11.43,-2.95 13.11,-3.11 14.78,-3.26 17.80,-3.34 20.83,-3.41 21.26,-3.34 21.70,-3.27 22.09,-3.07 22.48,-2.86 22.78,-2.54 23.08,-2.22 23.27,-1.82 23.45,-1.42 23.50,-0.98 23.55,-0.54 23.45,-0.11 23.36,0.31 23.13,0.69 22.91,1.06 22.57,1.35 22.23,1.63 21.82,1.80 21.42,1.96 20.98,1.99 20.53,2.01 20.11,1.89 19.69,1.77 19.32,1.53 18.96,1.28 18.69,0.93 18.42,0.58 18.28,0.16 18.14,-0.25 18.14,-0.69 18.14,-1.13 18.28,-1.55 18.42,-1.96 18.69,-2.32 18.95,-2.67 19.32,-2.91 19.68,-3.16 20.11,-3.28 20.53,-3.40 20.97,-3.37 21.41,-3.35 21.82,-3.19 22.23,-3.02 22.57,-2.74 22.90,-2.45 23.13,-2.08 23.36,-1.70 23.45,-1.27 23.55,-0.84 23.50,-0.40 23.45,0.03 23.27,0.43 23.08,0.83 22.78,1.15 22.48,1.47 22.09,1.68 21.70,1.88 21.26,1.95 20.83,2.03 20.83,2.03 20.83,2.03 17.86,1.97 14.88,1.92 13.29,1.87 11.69,1.82 10.18,1.91 8.68,2.01 5.74,2.26 2.79,2.52 1.39,2.52 0,2.52 -0.30,2.48 -0.60,2.45 -0.88,2.34 -1.17,2.23 -1.42,2.06 -1.67,1.88 -1.87,1.66 -2.07,1.43 -2.21,1.16 -2.36,0.89 -2.43,0.59 -2.50,0.30 -2.50,-0.00 -2.50,-0.30 -2.43,-0.59 -2.35,-0.89 -2.21,-1.16 -2.07,-1.43 -1.87,-1.66 -1.67,-1.88 -1.42,-2.06 -1.17,-2.23 -0.88,-2.34 -0.60,-2.45 -0.30,-2.48 0.00,-2.52 0.00,-2.52 L 0,-2.52 Z"></path></g><g transform="translate(550.972412109375 334.9999694824219) rotate(0 -1.388916015625 9.375030517578125)" stroke="none"><path fill="#1971c2" d="M 2.28,1.37 Q 2.28,1.37 1.70,2.37 1.11,3.38 0.73,4.64 0.34,5.91 0.28,7.20 0.21,8.49 0.50,10.03 0.78,11.57 1.17,13.43 1.56,15.29 1.96,16.64 2.35,17.98 2.40,18.49 2.44,19.00 2.31,19.49 2.19,19.99 1.92,20.42 1.64,20.85 1.25,21.17 0.85,21.48 0.37,21.66 -0.10,21.84 -0.60,21.85 -1.11,21.86 -1.60,21.71 -2.09,21.57 -2.50,21.27 -2.91,20.97 -3.21,20.56 -3.51,20.14 -3.66,19.66 -3.81,19.17 -3.79,18.66 -3.78,18.15 -3.61,17.67 -3.43,17.20 -3.11,16.80 -2.79,16.40 -2.36,16.13 -1.93,15.85 -1.44,15.73 -0.95,15.61 -0.44,15.65 0.06,15.69 0.53,15.89 1.00,16.09 1.37,16.43 1.75,16.77 2.00,17.22 2.25,17.66 2.35,18.16 2.45,18.66 2.38,19.16 2.31,19.67 2.08,20.13 1.86,20.58 1.50,20.94 1.14,21.30 0.68,21.53 0.22,21.75 -0.27,21.82 -0.77,21.89 -1.27,21.80 -1.77,21.70 -2.22,21.45 -2.66,21.20 -3.00,20.82 -3.34,20.44 -3.54,19.97 -3.74,19.50 -3.74,19.50 -3.74,19.51 -4.17,17.84 -4.60,16.18 -4.87,14.88 -5.14,13.58 -5.19,12.08 -5.24,10.57 -5.42,9.39 -5.61,8.21 -5.29,6.12 -4.98,4.03 -4.25,2.32 -3.51,0.61 -2.90,-0.38 -2.28,-1.37 -2.09,-1.62 -1.89,-1.88 -1.64,-2.07 -1.38,-2.27 -1.09,-2.41 -0.80,-2.54 -0.48,-2.60 -0.16,-2.66 0.15,-2.64 0.47,-2.62 0.77,-2.53 1.08,-2.43 1.36,-2.27 1.63,-2.10 1.86,-1.87 2.09,-1.65 2.26,-1.37 2.42,-1.10 2.52,-0.79 2.62,-0.48 2.64,-0.16 2.66,0.15 2.60,0.46 2.54,0.78 2.41,1.07 2.28,1.37 2.28,1.37 L 2.28,1.37 Z"></path></g><g transform="translate(571.111328125 342.6388854980469) rotate(0 5.9027099609375 1.388916015625)" stroke="none"><path fill="#1971c2" d="M 2.56,0.32 Q 2.56,0.32 2.32,1.91 2.08,3.50 2.05,5.34 2.01,7.17 2.02,9.21 2.03,11.25 1.80,13.04 1.58,14.82 0.21,16.06 -1.15,17.29 -2.90,16.36 -4.64,15.42 -4.89,13.75 -5.13,12.09 -4.90,10.56 -4.66,9.03 -4.27,6.52 -3.89,4.02 -3.55,2.62 -3.21,1.23 -2.55,-0.55 -1.90,-2.35 -1.46,-3.71 -1.02,-5.07 -0.34,-6.32 0.33,-7.57 1.25,-8.84 2.17,-10.12 3.08,-11.06 3.99,-11.99 5.01,-12.80 6.03,-13.61 8.12,-14.36 10.22,-15.11 11.34,-14.95 12.46,-14.79 13.58,-14.11 14.71,-13.44 15.71,-11.33 16.72,-9.22 16.29,-7.00 15.87,-4.78 14.42,-2.83 12.98,-0.89 11.50,0.35 10.03,1.59 8.62,2.61 7.22,3.63 6.26,4.27 5.30,4.90 6.59,5.71 7.89,6.53 9.04,7.09 10.20,7.64 11.44,8.07 12.68,8.50 13.18,8.73 13.68,8.96 14.09,9.33 14.49,9.71 14.76,10.19 15.02,10.67 15.12,11.22 15.21,11.76 15.13,12.31 15.05,12.85 14.79,13.34 14.54,13.83 14.14,14.22 13.75,14.60 13.25,14.84 12.75,15.08 12.20,15.14 11.65,15.21 11.11,15.10 10.57,14.98 10.10,14.70 9.62,14.43 9.26,14.01 8.90,13.59 8.69,13.08 8.48,12.57 8.44,12.02 8.41,11.47 8.55,10.94 8.69,10.40 8.99,9.94 9.30,9.48 9.73,9.14 10.17,8.80 10.69,8.62 11.21,8.44 11.76,8.43 12.32,8.43 12.84,8.60 13.37,8.77 13.81,9.10 14.25,9.43 14.57,9.88 14.88,10.33 15.03,10.86 15.19,11.39 15.16,11.95 15.14,12.50 14.94,13.01 14.74,13.53 14.39,13.95 14.04,14.38 13.57,14.67 13.10,14.96 12.56,15.08 12.02,15.20 11.47,15.15 10.92,15.10 10.92,15.10 10.93,15.10 8.49,14.15 6.05,13.20 4.52,12.19 3.00,11.18 1.89,9.85 0.78,8.51 0.16,7.52 -0.45,6.53 -0.72,5.33 -1.00,4.14 -0.28,2.38 0.42,0.63 1.83,-0.29 3.23,-1.22 4.75,-2.32 6.28,-3.41 7.48,-4.40 8.68,-5.39 9.73,-6.52 10.78,-7.64 10.03,-8.47 9.29,-9.31 7.86,-8.21 6.43,-7.12 5.18,-5.29 3.93,-3.46 3.53,-2.15 3.12,-0.83 2.72,0.85 2.32,2.53 2.06,3.69 1.80,4.86 1.56,7.40 1.31,9.95 1.04,11.45 0.77,12.96 -0.29,12.48 -1.36,12.01 -2.38,11.61 -3.40,11.22 -3.40,9.88 -3.40,8.53 -3.27,6.84 -3.13,5.14 -3.01,4.01 -2.88,2.88 -2.72,1.28 -2.56,-0.32 -2.49,-0.62 -2.41,-0.92 -2.26,-1.20 -2.12,-1.47 -1.91,-1.70 -1.70,-1.94 -1.45,-2.11 -1.19,-2.29 -0.90,-2.40 -0.60,-2.51 -0.30,-2.54 0.00,-2.58 0.31,-2.54 0.62,-2.50 0.91,-2.39 1.21,-2.28 1.46,-2.10 1.72,-1.92 1.92,-1.69 2.13,-1.46 2.27,-1.18 2.42,-0.90 2.49,-0.60 2.56,-0.30 2.56,0.00 2.56,0.32 2.56,0.32 L 2.56,0.32 Z"></path></g><g transform="translate(614.1668701171875 332.9166564941406) rotate(0 -12.15277099609375 6.9444580078125)" stroke="none"><path fill="#1971c2" d="M -1.18,2.06 Q -1.18,2.06 -2.56,1.25 -3.95,0.43 -6.09,0.12 -8.23,-0.18 -9.46,-0.22 -10.69,-0.25 -12.14,0.03 -13.60,0.32 -14.87,0.69 -16.15,1.05 -17.38,1.56 -18.61,2.07 -19.92,3.31 -21.24,4.56 -21.18,5.88 -21.11,7.20 -20.14,8.25 -19.17,9.30 -17.62,10.57 -16.08,11.85 -15.06,12.25 -14.04,12.65 -13.05,13.07 -12.06,13.49 -10.85,13.40 -9.63,13.31 -8.33,12.49 -7.03,11.67 -6.58,10.69 -6.13,9.71 -5.73,8.25 -5.33,6.79 -5.25,4.92 -5.16,3.04 -5.18,1.67 -5.20,0.31 -5.16,0.45 -5.11,0.59 -5.50,0.26 -5.88,-0.06 -6.14,-0.50 -6.40,-0.94 -6.51,-1.44 -6.61,-1.94 -6.55,-2.44 -6.49,-2.95 -6.27,-3.41 -6.06,-3.87 -5.70,-4.23 -5.35,-4.60 -4.90,-4.83 -4.45,-5.07 -3.94,-5.15 -3.44,-5.22 -2.94,-5.14 -2.44,-5.05 -1.99,-4.81 -1.54,-4.57 -1.19,-4.19 -0.85,-3.82 -0.64,-3.36 -0.43,-2.89 -0.38,-2.39 -0.33,-1.88 -0.44,-1.38 -0.55,-0.89 -0.82,-0.45 -1.09,-0.02 -1.48,0.30 -1.87,0.62 -2.34,0.81 -2.82,0.99 -3.33,1.01 -3.84,1.04 -4.32,0.90 -4.81,0.76 -5.23,0.47 -5.65,0.18 -5.96,-0.22 -6.26,-0.63 -6.42,-1.11 -6.58,-1.60 -6.57,-2.11 -6.57,-2.62 -6.40,-3.10 -6.23,-3.58 -5.92,-3.98 -5.61,-4.38 -5.19,-4.66 -4.76,-4.95 -4.27,-5.08 -3.78,-5.21 -3.27,-5.18 -2.76,-5.14 -2.29,-4.95 -1.82,-4.76 -1.82,-4.76 -1.82,-4.76 -0.40,-2.20 1.02,0.35 0.96,1.77 0.91,3.19 0.80,5.41 0.70,7.63 0.05,9.96 -0.60,12.28 -1.17,13.41 -1.74,14.54 -2.47,15.41 -3.20,16.27 -4.97,17.35 -6.74,18.43 -7.87,18.71 -9.00,18.99 -10.58,19.09 -12.16,19.19 -14.13,18.48 -16.10,17.76 -17.62,17.14 -19.14,16.52 -20.52,15.58 -21.89,14.64 -22.67,13.79 -23.44,12.93 -24.38,11.80 -25.31,10.67 -25.91,9.42 -26.50,8.16 -26.33,5.76 -26.16,3.36 -25.55,2.28 -24.95,1.20 -23.87,0.15 -22.80,-0.89 -21.60,-1.60 -20.39,-2.31 -18.88,-2.90 -17.37,-3.50 -15.97,-3.85 -14.57,-4.20 -12.53,-4.66 -10.50,-5.11 -9.15,-5.02 -7.81,-4.94 -5.90,-4.76 -4.00,-4.58 -2.82,-4.11 -1.64,-3.63 -0.22,-2.85 1.18,-2.06 1.41,-1.89 1.64,-1.72 1.82,-1.50 2.00,-1.28 2.13,-1.02 2.25,-0.76 2.31,-0.48 2.37,-0.20 2.36,0.08 2.35,0.37 2.27,0.64 2.19,0.92 2.05,1.17 1.90,1.42 1.71,1.62 1.51,1.83 1.27,1.99 1.03,2.14 0.75,2.23 0.48,2.33 0.20,2.35 -0.08,2.37 -0.36,2.33 -0.65,2.28 -0.91,2.17 -1.18,2.06 -1.18,2.06 L -1.18,2.06 Z"></path></g><g transform="translate(625.2779541015625 332.22216796875) rotate(0 -1.73614501953125 9.02777099609375)" stroke="none"><path fill="#1971c2" d="M 2.65,0 Q 2.65,0 2.64,1.39 2.63,2.79 2.70,4.52 2.77,6.25 2.82,8.01 2.87,9.77 2.63,11.34 2.39,12.92 2.11,14.47 1.82,16.02 0.35,18.06 -1.12,20.10 -1.51,20.42 -1.90,20.74 -2.37,20.92 -2.84,21.10 -3.34,21.12 -3.84,21.14 -4.33,21.00 -4.81,20.86 -5.22,20.57 -5.64,20.28 -5.94,19.88 -6.23,19.47 -6.39,18.99 -6.54,18.51 -6.54,18.01 -6.53,17.51 -6.36,17.03 -6.20,16.56 -5.89,16.16 -5.58,15.76 -5.16,15.49 -4.74,15.21 -4.25,15.08 -3.76,14.95 -3.26,14.99 -2.76,15.02 -2.29,15.21 -1.83,15.41 -1.45,15.74 -1.07,16.07 -0.82,16.50 -0.56,16.94 -0.46,17.43 -0.36,17.92 -0.42,18.42 -0.48,18.92 -0.70,19.38 -0.92,19.83 -1.27,20.19 -1.62,20.55 -2.07,20.78 -2.51,21.01 -3.01,21.09 -3.51,21.16 -4.00,21.07 -4.50,20.98 -4.94,20.74 -5.38,20.50 -5.72,20.13 -6.07,19.76 -6.27,19.30 -6.48,18.84 -6.52,18.34 -6.57,17.84 -6.46,17.35 -6.34,16.86 -6.08,16.43 -5.81,16.00 -5.81,16.00 -5.81,16.01 -4.67,14.17 -3.52,12.33 -3.20,11.00 -2.87,9.67 -2.82,7.96 -2.77,6.25 -2.70,4.52 -2.63,2.79 -2.64,1.39 -2.65,0 -2.61,-0.31 -2.58,-0.63 -2.46,-0.93 -2.35,-1.23 -2.17,-1.49 -1.98,-1.76 -1.74,-1.97 -1.50,-2.18 -1.22,-2.33 -0.94,-2.48 -0.63,-2.56 -0.32,-2.63 0.00,-2.63 0.32,-2.63 0.63,-2.56 0.94,-2.48 1.22,-2.33 1.50,-2.18 1.74,-1.97 1.98,-1.76 2.17,-1.49 2.35,-1.23 2.46,-0.93 2.58,-0.63 2.61,-0.31 2.65,0.00 2.65,0.00 L 2.65,0 Z"></path></g><g transform="translate(618.33349609375 333.611083984375) rotate(0 12.5 -2.4305419921875)" stroke="none"><path fill="#1971c2" d="M -1.32,-1.99 Q -1.32,-1.99 -0.13,-2.79 1.06,-3.60 2.72,-4.38 4.38,-5.17 5.67,-5.74 6.97,-6.30 8.77,-6.88 10.58,-7.46 12.06,-7.79 13.55,-8.13 15.11,-8.43 16.68,-8.73 18.04,-8.92 19.41,-9.10 21.72,-9.05 24.04,-8.99 25.03,-8.44 26.03,-7.89 26.66,-6.85 27.30,-5.82 27.30,-4.68 27.31,-3.55 26.54,-2.24 25.78,-0.93 23.75,0.36 21.72,1.65 19.47,2.60 17.22,3.55 15.37,4.16 13.53,4.76 12.20,4.85 10.87,4.94 8.24,4.66 5.61,4.37 5.15,4.20 4.69,4.02 4.31,3.70 3.93,3.38 3.67,2.96 3.41,2.54 3.30,2.06 3.19,1.57 3.24,1.08 3.29,0.59 3.50,0.14 3.70,-0.30 4.04,-0.66 4.38,-1.02 4.81,-1.26 5.25,-1.49 5.73,-1.58 6.22,-1.66 6.71,-1.59 7.20,-1.51 7.64,-1.28 8.07,-1.05 8.42,-0.70 8.76,-0.34 8.97,0.09 9.18,0.54 9.24,1.03 9.30,1.52 9.20,2.01 9.09,2.49 8.84,2.92 8.59,3.34 8.22,3.67 7.84,3.99 7.38,4.18 6.93,4.36 6.43,4.39 5.94,4.43 5.46,4.30 4.98,4.17 4.57,3.89 4.16,3.62 3.86,3.23 3.56,2.84 3.39,2.37 3.23,1.90 3.23,1.41 3.22,0.91 3.38,0.44 3.53,-0.02 3.83,-0.41 4.13,-0.81 4.53,-1.09 4.94,-1.37 5.41,-1.51 5.89,-1.64 6.38,-1.62 6.88,-1.60 6.88,-1.60 6.88,-1.60 8.05,-1.28 9.23,-0.96 10.80,-1.01 12.37,-1.06 13.87,-1.49 15.37,-1.93 17.15,-2.66 18.94,-3.39 19.87,-3.91 20.81,-4.43 21.91,-4.22 23.00,-4.02 21.45,-4.20 19.90,-4.39 18.74,-4.31 17.57,-4.23 16.01,-3.90 14.45,-3.58 13.27,-3.39 12.09,-3.21 10.44,-2.55 8.80,-1.89 7.62,-1.43 6.43,-0.97 5.08,-0.28 3.72,0.40 2.52,1.19 1.32,1.99 1.07,2.12 0.81,2.25 0.53,2.31 0.25,2.38 -0.03,2.37 -0.32,2.37 -0.60,2.29 -0.88,2.22 -1.13,2.08 -1.39,1.94 -1.60,1.75 -1.81,1.55 -1.97,1.31 -2.13,1.07 -2.23,0.80 -2.33,0.53 -2.36,0.24 -2.39,-0.03 -2.35,-0.32 -2.31,-0.61 -2.20,-0.87 -2.10,-1.14 -1.93,-1.38 -1.76,-1.61 -1.54,-1.80 -1.32,-1.99 -1.32,-1.99 L -1.32,-1.99 Z"></path></g></svg>