<svg version="1.1" xmlns="http://www.w3.org/2000/svg" viewBox="0 0 813 113" width="813" height="113" class="excalidraw-svg"><!-- svg-source:excalidraw --><metadata></metadata><defs><style class="style-fonts">
      </style></defs><g transform="translate(28 20.000030517578125) rotate(0 -6.499969482421875 41.49998474121094)" stroke="none"><path fill="#1e1e1e" d="M 1.17,1.04 Q 1.17,1.04 -1.14,3.60 -3.46,6.15 -4.91,9.63 -6.36,13.11 -7.58,17.46 -8.81,21.81 -9.33,25.05 -9.85,28.30 -10.37,32.84 -10.88,37.38 -10.81,40.39 -10.75,43.39 -10.72,47.30 -10.70,51.21 -10.41,53.96 -10.11,56.70 -9.97,58.79 -9.83,60.87 -9.22,63.66 -8.61,66.44 -8.28,68.28 -7.94,70.11 -7.30,72.21 -6.65,74.31 -6.26,75.87 -5.86,77.43 -4.58,79.90 -3.31,82.37 -3.26,82.66 -3.20,82.94 -3.24,83.23 -3.28,83.52 -3.41,83.78 -3.53,84.04 -3.74,84.25 -3.95,84.45 -4.21,84.58 -4.47,84.71 -4.75,84.75 -5.04,84.79 -5.33,84.74 -5.61,84.68 -5.86,84.54 -6.12,84.40 -6.31,84.18 -6.51,83.96 -6.62,83.70 -6.74,83.43 -6.76,83.14 -6.78,82.85 -6.72,82.57 -6.65,82.29 -6.49,82.04 -6.33,81.80 -6.11,81.62 -5.88,81.43 -5.61,81.33 -5.34,81.23 -5.05,81.22 -4.76,81.22 -4.48,81.30 -4.20,81.39 -3.96,81.55 -3.73,81.72 -3.56,81.96 -3.39,82.19 -3.30,82.47 -3.22,82.75 -3.22,83.04 -3.23,83.33 -3.33,83.60 -3.43,83.88 -3.61,84.10 -3.79,84.33 -4.04,84.49 -4.28,84.64 -4.56,84.71 -4.85,84.78 -5.14,84.76 -5.43,84.74 -5.69,84.62 -5.96,84.51 -6.18,84.32 -6.39,84.12 -6.54,83.87 -6.68,83.62 -6.68,83.62 -6.68,83.62 -7.84,80.86 -9.00,78.09 -9.18,76.63 -9.37,75.16 -10.11,72.86 -10.84,70.55 -11.04,68.78 -11.24,67.01 -11.89,64.03 -12.54,61.04 -12.65,59.01 -12.77,56.98 -13.07,54.11 -13.38,51.24 -13.42,47.34 -13.45,43.45 -13.52,40.27 -13.60,37.08 -13.09,32.47 -12.59,27.86 -12.06,24.46 -11.53,21.05 -10.29,16.52 -9.04,11.98 -7.39,8.09 -5.73,4.19 -3.45,1.57 -1.17,-1.04 -1.03,-1.17 -0.89,-1.30 -0.72,-1.38 -0.55,-1.47 -0.37,-1.52 -0.18,-1.56 0.00,-1.56 0.19,-1.56 0.37,-1.52 0.56,-1.47 0.73,-1.38 0.89,-1.29 1.04,-1.17 1.18,-1.04 1.29,-0.88 1.39,-0.73 1.46,-0.55 1.53,-0.37 1.55,-0.18 1.57,0.00 1.55,0.19 1.53,0.38 1.46,0.55 1.39,0.73 1.28,0.89 1.17,1.04 1.17,1.04 L 1.17,1.04 Z"></path></g><g transform="translate(10 77.00003051757812) rotate(0 9 -3.5000152587890625)" stroke="none"><path fill="#1e1e1e" d="M -1.59,-1.98 Q -1.59,-1.98 -0.09,-3.07 1.39,-4.16 2.44,-4.80 3.48,-5.45 4.45,-5.99 5.42,-6.53 7.44,-7.25 9.46,-7.97 13.59,-8.87 17.73,-9.76 18.18,-9.73 18.63,-9.70 19.04,-9.53 19.46,-9.35 19.80,-9.06 20.13,-8.76 20.36,-8.38 20.59,-7.99 20.68,-7.55 20.77,-7.11 20.71,-6.66 20.66,-6.22 20.47,-5.81 20.27,-5.41 19.96,-5.09 19.65,-4.76 19.25,-4.56 18.85,-4.35 18.40,-4.29 17.96,-4.22 17.52,-4.30 17.07,-4.38 16.68,-4.59 16.29,-4.81 15.98,-5.14 15.68,-5.47 15.49,-5.88 15.31,-6.29 15.27,-6.74 15.23,-7.18 15.33,-7.62 15.43,-8.06 15.67,-8.44 15.90,-8.82 16.25,-9.11 16.60,-9.39 17.02,-9.55 17.43,-9.71 17.88,-9.73 18.33,-9.75 18.76,-9.62 19.19,-9.50 19.56,-9.24 19.93,-8.98 20.20,-8.62 20.46,-8.26 20.60,-7.83 20.74,-7.41 20.73,-6.96 20.73,-6.51 20.58,-6.09 20.43,-5.66 20.15,-5.31 19.88,-4.95 19.50,-4.71 19.13,-4.46 18.69,-4.35 18.26,-4.23 18.26,-4.23 18.26,-4.23 15.85,-4.04 13.44,-3.84 12.28,-3.37 11.11,-2.90 9.43,-2.45 7.75,-2.00 6.05,-1.21 4.35,-0.43 2.97,0.77 1.59,1.98 1.32,2.14 1.06,2.31 0.77,2.40 0.48,2.49 0.17,2.52 -0.12,2.54 -0.43,2.49 -0.73,2.43 -1.01,2.31 -1.29,2.19 -1.53,2.00 -1.78,1.81 -1.97,1.57 -2.16,1.33 -2.29,1.06 -2.42,0.78 -2.48,0.48 -2.53,0.17 -2.52,-0.12 -2.50,-0.43 -2.42,-0.72 -2.33,-1.02 -2.17,-1.28 -2.01,-1.54 -1.80,-1.76 -1.58,-1.98 -1.59,-1.98 L -1.59,-1.98 Z"></path></g><g transform="translate(52 67) rotate(0 1.000030517578125 14.000015258789062)" stroke="none"><path fill="#1e1e1e" d="M 1.54,1.54 Q 1.54,1.54 0.04,2.91 -1.45,4.29 -2.63,5.47 -3.80,6.66 -4.42,7.84 -5.03,9.01 -6.32,10.99 -7.62,12.96 -8.42,14.81 -9.22,16.66 -9.45,17.98 -9.69,19.31 -9.25,20.89 -8.81,22.47 -7.46,23.67 -6.11,24.87 -4.75,24.81 -3.38,24.75 -0.88,23.83 1.61,22.90 2.83,22.32 4.06,21.74 5.79,19.93 7.53,18.12 8.19,17.16 8.86,16.20 9.39,14.87 9.91,13.54 10.49,12.41 11.07,11.28 10.93,10.04 10.78,8.79 9.75,7.92 8.72,7.06 7.06,9.01 5.40,10.96 5.04,10.97 4.68,10.97 4.32,10.89 3.97,10.81 3.65,10.64 3.33,10.48 3.06,10.25 2.78,10.01 2.57,9.72 2.37,9.42 2.23,9.09 2.10,8.75 2.05,8.39 2.00,8.04 2.04,7.68 2.08,7.32 2.20,6.98 2.33,6.64 2.53,6.34 2.73,6.04 2.99,5.80 3.26,5.56 3.58,5.38 3.89,5.21 4.24,5.12 4.59,5.03 6.29,6.57 7.99,8.12 7.89,8.59 7.79,9.07 7.54,9.49 7.30,9.90 6.94,10.22 6.57,10.54 6.12,10.72 5.68,10.91 5.19,10.94 4.71,10.97 4.24,10.85 3.77,10.73 3.37,10.46 2.96,10.19 2.67,9.81 2.37,9.43 2.21,8.97 2.05,8.52 2.04,8.03 2.04,7.55 2.18,7.09 2.33,6.63 2.62,6.24 2.91,5.85 3.31,5.57 3.70,5.30 4.17,5.16 4.63,5.02 5.12,5.04 5.60,5.06 6.05,5.24 6.51,5.41 6.88,5.72 7.25,6.03 7.51,6.44 7.76,6.85 7.87,7.32 7.98,7.80 7.93,8.28 7.89,8.76 7.69,9.20 7.49,9.64 7.16,10.00 6.84,10.35 6.41,10.59 5.99,10.82 5.51,10.90 5.03,10.99 4.55,10.92 4.08,10.84 3.64,10.62 3.21,10.40 2.88,10.05 2.54,9.71 2.33,9.27 2.12,8.83 3.76,9.90 5.40,10.96 5.04,10.97 4.68,10.97 4.33,10.89 3.97,10.81 3.65,10.64 3.33,10.48 3.06,10.25 2.78,10.01 2.57,9.72 2.37,9.42 2.23,9.09 2.10,8.75 2.05,8.39 2.00,8.04 2.04,7.68 2.08,7.32 2.20,6.98 2.33,6.64 2.53,6.34 2.73,6.04 2.99,5.80 3.26,5.56 3.58,5.38 3.89,5.21 4.24,5.12 4.59,5.03 4.53,3.89 4.46,2.76 5.50,2.32 6.54,1.88 9.03,2.08 11.53,2.28 12.49,2.91 13.44,3.55 14.17,4.42 14.91,5.29 15.33,6.47 15.76,7.66 15.91,8.95 16.06,10.25 15.14,12.74 14.22,15.22 13.48,17.12 12.75,19.01 11.81,20.24 10.87,21.46 9.68,22.71 8.50,23.96 7.32,24.98 6.14,26.00 4.81,26.61 3.48,27.22 1.69,28.06 -0.08,28.90 -1.51,29.25 -2.95,29.61 -4.98,29.63 -7.01,29.66 -8.04,29.07 -9.06,28.48 -10.34,27.34 -11.62,26.20 -12.16,25.26 -12.69,24.33 -13.23,22.75 -13.76,21.18 -13.53,19.82 -13.30,18.46 -12.86,16.93 -12.41,15.40 -11.62,13.23 -10.83,11.06 -9.72,9.00 -8.62,6.94 -7.65,5.38 -6.68,3.83 -5.49,2.64 -4.29,1.45 -2.91,-0.04 -1.54,-1.54 -1.33,-1.70 -1.13,-1.87 -0.89,-1.97 -0.65,-2.08 -0.39,-2.13 -0.13,-2.18 0.13,-2.16 0.39,-2.15 0.64,-2.07 0.89,-1.99 1.12,-1.85 1.34,-1.72 1.53,-1.53 1.72,-1.34 1.85,-1.12 1.99,-0.89 2.07,-0.64 2.15,-0.39 2.16,-0.13 2.18,0.13 2.13,0.39 2.08,0.65 1.97,0.89 1.87,1.13 1.70,1.33 1.54,1.54 1.54,1.54 L 1.54,1.54 Z"></path></g><g transform="translate(87.00006103515625 80.00003051757812) rotate(0 16.5 0.9999847412109375)" stroke="none"><path fill="#1e1e1e" d="M 2.55,-0.42 Q 2.55,-0.42 2.77,1.30 2.99,3.04 3.17,4.11 3.34,5.17 3.88,6.79 4.42,8.41 3.29,9.02 2.15,9.64 2.41,8.27 2.66,6.90 3.12,5.13 3.58,3.35 4.05,2.13 4.51,0.90 5.08,-1.44 5.65,-3.80 6.19,-4.94 6.73,-6.08 7.34,-7.57 7.96,-9.05 9.01,-10.24 10.06,-11.44 11.01,-11.95 11.97,-12.46 13.22,-12.68 14.48,-12.91 15.95,-12.63 17.42,-12.36 20.09,-11.81 22.76,-11.25 24.29,-10.76 25.81,-10.26 27.94,-9.64 30.07,-9.03 31.76,-8.64 33.45,-8.25 33.80,-8.12 34.15,-7.99 34.44,-7.75 34.73,-7.51 34.92,-7.20 35.12,-6.88 35.21,-6.52 35.29,-6.16 35.26,-5.78 35.22,-5.41 35.07,-5.07 34.92,-4.73 34.67,-4.46 34.42,-4.18 34.09,-4.00 33.76,-3.82 33.40,-3.76 33.03,-3.69 32.66,-3.75 32.29,-3.80 31.96,-3.97 31.63,-4.14 31.37,-4.41 31.11,-4.67 30.95,-5.01 30.79,-5.34 30.74,-5.71 30.69,-6.08 30.77,-6.45 30.84,-6.81 31.03,-7.14 31.22,-7.46 31.50,-7.70 31.78,-7.95 32.12,-8.09 32.47,-8.24 32.84,-8.26 33.21,-8.29 33.57,-8.19 33.93,-8.10 34.24,-7.90 34.55,-7.69 34.78,-7.40 35.01,-7.10 35.14,-6.75 35.26,-6.40 35.27,-6.03 35.27,-5.66 35.16,-5.30 35.05,-4.95 34.82,-4.65 34.60,-4.35 34.30,-4.13 33.99,-3.92 33.64,-3.81 33.28,-3.71 32.91,-3.72 32.53,-3.74 32.53,-3.74 32.54,-3.74 30.82,-4.04 29.11,-4.35 26.64,-4.67 24.16,-5.00 22.96,-5.36 21.76,-5.72 20.00,-5.89 18.24,-6.06 16.66,-6.42 15.09,-6.77 14.01,-6.03 12.93,-5.28 12.09,-3.76 11.26,-2.24 10.96,-1.04 10.67,0.14 10.43,1.49 10.19,2.84 9.49,4.86 8.80,6.87 8.52,8.15 8.24,9.42 7.45,11.03 6.66,12.63 5.74,13.24 4.82,13.85 2.66,13.34 0.50,12.83 -0.02,11.90 -0.54,10.96 -0.75,9.65 -0.97,8.33 -1.41,6.09 -1.84,3.85 -2.20,2.14 -2.55,0.42 -2.57,0.11 -2.58,-0.19 -2.52,-0.50 -2.46,-0.81 -2.33,-1.09 -2.19,-1.37 -2.00,-1.62 -1.80,-1.86 -1.55,-2.05 -1.30,-2.24 -1.01,-2.36 -0.73,-2.48 -0.42,-2.54 -0.11,-2.59 0.19,-2.56 0.50,-2.54 0.80,-2.44 1.10,-2.34 1.36,-2.18 1.63,-2.01 1.85,-1.79 2.06,-1.56 2.22,-1.29 2.38,-1.02 2.47,-0.72 2.55,-0.42 2.55,-0.42 L 2.55,-0.42 Z"></path></g><g transform="translate(230 70) rotate(0 1 9.500015258789062)" stroke="none"><path fill="#1e1e1e" d="M 2.32,-0.46 Q 2.32,-0.46 2.61,0.97 2.90,2.40 3.08,3.70 3.25,4.99 3.28,6.73 3.30,8.48 3.31,10.06 3.32,11.64 3.59,12.97 3.86,14.29 4.15,16.52 4.44,18.74 4.41,19.14 4.39,19.54 4.24,19.90 4.09,20.27 3.83,20.57 3.57,20.88 3.23,21.08 2.89,21.28 2.50,21.36 2.11,21.45 1.72,21.40 1.32,21.36 0.97,21.19 0.61,21.02 0.32,20.74 0.03,20.47 -0.14,20.12 -0.33,19.77 -0.39,19.37 -0.45,18.98 -0.38,18.59 -0.32,18.20 -0.13,17.85 0.05,17.50 0.34,17.23 0.63,16.96 0.99,16.79 1.35,16.63 1.75,16.59 2.14,16.54 2.53,16.63 2.92,16.72 3.26,16.93 3.60,17.13 3.85,17.44 4.11,17.74 4.25,18.11 4.40,18.48 4.41,18.88 4.43,19.27 4.33,19.66 4.22,20.04 3.99,20.37 3.77,20.69 3.45,20.93 3.13,21.17 2.76,21.30 2.38,21.42 1.98,21.42 1.58,21.42 1.21,21.29 0.83,21.16 0.52,20.91 0.20,20.67 -0.01,20.34 -0.23,20.01 -0.33,19.63 -0.44,19.25 -0.44,19.25 -0.44,19.25 -0.59,17.21 -0.73,15.18 -1.06,13.45 -1.39,11.72 -1.42,10.17 -1.45,8.62 -1.53,7.06 -1.62,5.49 -1.68,4.41 -1.75,3.34 -2.04,1.90 -2.32,0.46 -2.34,0.18 -2.36,-0.10 -2.32,-0.38 -2.27,-0.66 -2.16,-0.93 -2.04,-1.19 -1.87,-1.42 -1.70,-1.64 -1.48,-1.82 -1.25,-2.00 -1.00,-2.13 -0.74,-2.25 -0.46,-2.30 -0.18,-2.36 0.10,-2.35 0.38,-2.33 0.66,-2.25 0.93,-2.17 1.18,-2.03 1.43,-1.88 1.63,-1.69 1.84,-1.49 1.99,-1.24 2.14,-1.00 2.23,-0.73 2.32,-0.46 2.32,-0.46 L 2.32,-0.46 Z"></path></g><g transform="translate(232 38.000030517578125) rotate(0 0 -2.0000152587890625)" stroke="none"><path fill="#1e1e1e" d="M -2.33,0.58 Q -2.33,0.58 -1.29,-2.78 -0.24,-6.14 0.12,-6.28 0.50,-6.43 0.90,-6.44 1.30,-6.46 1.69,-6.34 2.07,-6.23 2.40,-6.00 2.73,-5.77 2.97,-5.45 3.20,-5.12 3.33,-4.74 3.45,-4.36 3.44,-3.96 3.44,-3.56 3.30,-3.18 3.17,-2.80 2.92,-2.48 2.67,-2.17 2.34,-1.95 2.00,-1.73 1.61,-1.63 1.22,-1.52 0.82,-1.55 0.42,-1.58 0.05,-1.74 -0.31,-1.89 -0.61,-2.15 -0.91,-2.42 -1.11,-2.77 -1.31,-3.11 -1.39,-3.51 -1.47,-3.90 -1.42,-4.30 -1.37,-4.70 -1.20,-5.06 -1.03,-5.42 -0.75,-5.71 -0.47,-5.99 -0.11,-6.18 0.24,-6.36 0.64,-6.42 1.03,-6.48 1.43,-6.40 1.82,-6.33 2.18,-6.14 2.53,-5.95 2.80,-5.65 3.07,-5.35 3.23,-4.99 3.40,-4.62 3.43,-4.22 3.47,-3.82 3.38,-3.43 3.28,-3.04 3.07,-2.70 2.86,-2.36 2.55,-2.10 2.24,-1.85 2.24,-1.85 2.24,-1.85 2.29,-1.21 2.33,-0.58 2.37,-0.29 2.40,-0.00 2.37,0.28 2.34,0.56 2.23,0.84 2.13,1.11 1.97,1.35 1.80,1.59 1.59,1.78 1.37,1.97 1.11,2.11 0.86,2.25 0.58,2.32 0.29,2.39 0.00,2.39 -0.28,2.39 -0.56,2.32 -0.84,2.25 -1.10,2.12 -1.36,1.98 -1.58,1.79 -1.79,1.60 -1.96,1.36 -2.13,1.12 -2.23,0.85 -2.33,0.58 -2.33,0.58 L -2.33,0.58 Z"></path></g><g transform="translate(275 64) rotate(0 20.5 -23)" stroke="none"><path fill="#1e1e1e" d="M -1.17,-1.17 Q -1.17,-1.17 -0.06,-2.36 1.04,-3.54 1.67,-4.55 2.29,-5.56 4.19,-7.48 6.09,-9.41 9.20,-12.48 12.31,-15.56 14.51,-17.71 16.70,-19.86 19.37,-22.49 22.03,-25.12 23.71,-27.06 25.39,-28.99 27.56,-31.54 29.73,-34.10 31.24,-35.77 32.76,-37.45 34.24,-39.28 35.72,-41.10 36.57,-42.27 37.43,-43.43 38.03,-44.53 38.63,-45.63 38.79,-45.78 38.95,-45.92 39.14,-46.02 39.33,-46.13 39.54,-46.18 39.75,-46.24 39.96,-46.24 40.18,-46.24 40.39,-46.20 40.60,-46.15 40.79,-46.05 40.98,-45.95 41.14,-45.81 41.31,-45.67 41.43,-45.50 41.56,-45.32 41.64,-45.12 41.72,-44.92 41.75,-44.71 41.78,-44.50 41.75,-44.28 41.73,-44.07 41.66,-43.87 41.58,-43.66 41.46,-43.48 41.35,-43.31 40.58,-40.81 39.81,-38.32 39.28,-36.89 38.74,-35.45 37.50,-33.32 36.25,-31.19 35.51,-29.52 34.77,-27.85 33.83,-25.46 32.89,-23.07 32.24,-21.41 31.59,-19.75 31.31,-17.83 31.02,-15.92 30.66,-14.32 30.30,-12.72 30.17,-11.08 30.04,-9.45 30.04,-8.16 30.05,-6.87 31.00,-4.46 31.95,-2.05 32.07,-1.71 32.18,-1.37 32.19,-1.02 32.19,-0.66 32.08,-0.31 31.97,0.02 31.75,0.31 31.54,0.59 31.24,0.80 30.95,1.00 30.60,1.10 30.26,1.20 29.90,1.18 29.54,1.17 29.20,1.04 28.87,0.91 28.59,0.68 28.32,0.45 28.13,0.14 27.94,-0.15 27.86,-0.50 27.78,-0.85 27.81,-1.21 27.85,-1.57 28.00,-1.90 28.15,-2.22 28.39,-2.49 28.63,-2.75 28.95,-2.92 29.27,-3.09 29.62,-3.15 29.97,-3.22 30.33,-3.16 30.69,-3.11 31.00,-2.94 31.32,-2.78 31.57,-2.52 31.82,-2.26 31.98,-1.93 32.13,-1.61 32.17,-1.25 32.21,-0.89 32.14,-0.54 32.07,-0.19 31.88,0.11 31.70,0.42 31.43,0.65 31.16,0.89 30.82,1.02 30.49,1.16 30.13,1.18 29.77,1.21 29.43,1.11 29.08,1.02 28.78,0.82 28.48,0.62 28.26,0.34 28.04,0.05 28.04,0.05 28.04,0.05 27.31,-2.08 26.57,-4.22 26.37,-5.64 26.16,-7.05 26.31,-8.42 26.46,-9.80 26.68,-11.72 26.90,-13.65 27.35,-15.00 27.81,-16.36 28.09,-18.70 28.37,-21.04 29.06,-22.63 29.75,-24.21 30.61,-26.75 31.46,-29.29 32.24,-31.11 33.02,-32.92 34.00,-34.93 34.97,-36.93 35.61,-38.47 36.24,-40.01 36.93,-41.40 37.62,-42.79 38.13,-44.21 38.63,-45.63 38.79,-45.78 38.95,-45.92 39.14,-46.02 39.33,-46.13 39.54,-46.18 39.75,-46.24 39.96,-46.24 40.18,-46.24 40.39,-46.20 40.60,-46.15 40.79,-46.05 40.98,-45.95 41.14,-45.81 41.31,-45.67 41.43,-45.50 41.56,-45.32 41.64,-45.12 41.72,-44.92 41.75,-44.71 41.78,-44.50 41.75,-44.28 41.73,-44.07 41.66,-43.87 41.58,-43.66 41.47,-43.48 41.35,-43.31 40.59,-42.34 39.83,-41.37 38.84,-40.38 37.84,-39.39 36.33,-37.50 34.82,-35.61 33.35,-33.95 31.88,-32.29 29.73,-29.71 27.58,-27.12 25.86,-25.07 24.14,-23.03 21.52,-20.35 18.91,-17.68 16.78,-15.47 14.65,-13.26 11.66,-10.13 8.67,-7.00 7.04,-5.14 5.40,-3.28 4.48,-2.17 3.55,-1.05 2.36,0.06 1.17,1.17 1.01,1.29 0.85,1.41 0.67,1.50 0.49,1.58 0.29,1.62 0.10,1.65 -0.09,1.64 -0.29,1.63 -0.49,1.57 -0.68,1.51 -0.85,1.40 -1.02,1.30 -1.16,1.16 -1.30,1.02 -1.40,0.85 -1.51,0.68 -1.57,0.48 -1.63,0.29 -1.64,0.09 -1.65,-0.10 -1.62,-0.29 -1.58,-0.49 -1.50,-0.67 -1.41,-0.85 -1.29,-1.01 -1.17,-1.17 -1.17,-1.17 L -1.17,-1.17 Z"></path></g><g transform="translate(349 21) rotate(0 -9 24)" stroke="none"><path fill="#1e1e1e" d="M 1.21,1.21 Q 1.21,1.21 -0.83,3.18 -2.88,5.16 -4.26,7.04 -5.64,8.92 -7.39,11.72 -9.14,14.53 -10.47,16.86 -11.79,19.19 -13.21,22.16 -14.63,25.13 -15.52,27.24 -16.41,29.35 -17.03,31.12 -17.64,32.88 -18.21,34.99 -18.78,37.10 -18.61,38.41 -18.45,39.72 -18.13,41.39 -17.81,43.06 -16.41,44.13 -15.01,45.19 -13.23,45.13 -11.46,45.07 -10.44,44.71 -9.43,44.34 -7.88,43.71 -6.32,43.08 -5.08,42.47 -3.84,41.86 -2.93,41.12 -2.01,40.38 -1.03,38.95 -0.06,37.51 -0.62,36.22 -1.19,34.93 -2.23,34.46 -3.28,33.99 -4.91,33.52 -6.55,33.05 -8.40,33.58 -10.26,34.11 -11.54,35.08 -12.81,36.04 -13.71,37.68 -14.61,39.32 -14.91,40.97 -15.22,42.61 -15.39,43.04 -15.56,43.47 -15.86,43.82 -16.16,44.17 -16.55,44.41 -16.95,44.64 -17.40,44.74 -17.85,44.84 -18.31,44.79 -18.76,44.74 -19.18,44.54 -19.60,44.35 -19.93,44.03 -20.27,43.71 -20.48,43.30 -20.70,42.90 -20.77,42.44 -20.84,41.99 -20.77,41.53 -20.69,41.08 -20.47,40.67 -20.26,40.27 -19.92,39.95 -19.59,39.63 -19.17,39.44 -18.75,39.25 -18.29,39.20 -17.83,39.15 -17.38,39.25 -16.93,39.35 -16.54,39.59 -16.15,39.83 -15.85,40.18 -15.55,40.53 -15.38,40.96 -15.21,41.39 -15.19,41.85 -15.16,42.31 -15.29,42.75 -15.41,43.20 -15.67,43.58 -15.93,43.96 -16.30,44.24 -16.67,44.52 -17.11,44.66 -17.54,44.81 -18.00,44.81 -18.46,44.80 -18.90,44.66 -19.34,44.51 -19.70,44.23 -20.07,43.95 -20.33,43.57 -20.58,43.18 -20.71,42.74 -20.83,42.29 -20.80,41.83 -20.77,41.37 -20.77,41.38 -20.77,41.38 -20.22,39.18 -19.67,36.99 -18.96,35.47 -18.24,33.96 -17.33,32.82 -16.41,31.69 -15.23,30.76 -14.06,29.84 -12.93,29.30 -11.80,28.77 -10.35,28.34 -8.90,27.91 -7.35,27.70 -5.80,27.49 -3.24,28.29 -0.67,29.08 0.26,29.67 1.20,30.25 2.61,32.19 4.02,34.14 4.50,35.74 4.98,37.35 4.61,38.59 4.25,39.83 3.35,41.28 2.45,42.73 1.57,43.39 0.70,44.06 -0.62,44.98 -1.95,45.89 -3.27,46.47 -4.60,47.06 -6.38,47.87 -8.16,48.69 -9.58,49.04 -11.00,49.38 -12.95,49.46 -14.89,49.54 -15.90,49.09 -16.90,48.63 -18.53,47.49 -20.16,46.35 -20.62,44.99 -21.09,43.64 -21.38,41.73 -21.67,39.82 -21.60,38.12 -21.53,36.41 -20.95,34.14 -20.37,31.86 -19.66,30.08 -18.94,28.30 -18.05,26.12 -17.15,23.94 -15.72,20.87 -14.29,17.80 -12.97,15.40 -11.65,12.99 -9.89,10.07 -8.13,7.14 -6.64,5.01 -5.16,2.88 -3.19,0.83 -1.21,-1.21 -1.05,-1.34 -0.89,-1.47 -0.70,-1.55 -0.51,-1.64 -0.30,-1.68 -0.10,-1.71 0.10,-1.70 0.31,-1.69 0.50,-1.63 0.70,-1.56 0.88,-1.46 1.06,-1.35 1.20,-1.20 1.35,-1.06 1.46,-0.88 1.56,-0.70 1.63,-0.50 1.69,-0.31 1.70,-0.10 1.71,0.10 1.68,0.30 1.64,0.51 1.55,0.70 1.47,0.89 1.34,1.05 1.21,1.21 1.21,1.21 L 1.21,1.21 Z"></path></g><g transform="translate(374 66) rotate(0 -3.5 10.000015258789062)" stroke="none"><path fill="#1e1e1e" d="M 2.13,1.21 Q 2.13,1.21 0.85,3.15 -0.42,5.09 -1.18,6.50 -1.95,7.91 -2.52,9.10 -3.09,10.28 -3.58,11.55 -4.07,12.82 -4.23,14.73 -4.40,16.65 -4.03,17.80 -3.67,18.95 -3.56,19.35 -3.45,19.75 -3.48,20.16 -3.51,20.57 -3.67,20.96 -3.82,21.34 -4.10,21.65 -4.37,21.96 -4.72,22.17 -5.08,22.38 -5.48,22.46 -5.89,22.55 -6.30,22.50 -6.71,22.45 -7.08,22.27 -7.45,22.09 -7.75,21.80 -8.05,21.51 -8.23,21.15 -8.42,20.78 -8.49,20.37 -8.55,19.96 -8.48,19.56 -8.40,19.15 -8.21,18.79 -8.01,18.42 -7.70,18.14 -7.40,17.86 -7.02,17.70 -6.65,17.53 -6.24,17.49 -5.82,17.45 -5.42,17.54 -5.02,17.64 -4.67,17.85 -4.32,18.07 -4.05,18.39 -3.79,18.71 -3.64,19.09 -3.50,19.48 -3.48,19.89 -3.46,20.30 -3.58,20.70 -3.69,21.10 -3.93,21.43 -4.16,21.77 -4.50,22.02 -4.83,22.27 -5.22,22.39 -5.61,22.52 -6.03,22.51 -6.44,22.51 -6.83,22.37 -7.22,22.23 -7.54,21.98 -7.87,21.73 -8.10,21.38 -8.32,21.04 -8.32,21.04 -8.32,21.04 -8.81,18.61 -9.30,16.19 -9.13,15.01 -8.97,13.82 -8.63,12.48 -8.30,11.13 -7.68,9.67 -7.07,8.21 -6.41,7.03 -5.75,5.85 -4.96,4.40 -4.17,2.95 -3.15,0.86 -2.13,-1.21 -1.95,-1.45 -1.77,-1.69 -1.55,-1.88 -1.32,-2.07 -1.05,-2.19 -0.78,-2.32 -0.49,-2.38 -0.20,-2.44 0.08,-2.43 0.38,-2.42 0.66,-2.34 0.95,-2.26 1.21,-2.11 1.46,-1.97 1.68,-1.76 1.89,-1.56 2.05,-1.31 2.21,-1.06 2.31,-0.78 2.40,-0.50 2.43,-0.20 2.45,0.08 2.40,0.38 2.36,0.67 2.24,0.94 2.13,1.21 2.13,1.21 L 2.13,1.21 Z"></path></g><g transform="translate(398 65.00003051757812) rotate(0 12 -18.000030517578125)" stroke="none"><path fill="#1e1e1e" d="M -1.38,-1.04 Q -1.38,-1.04 -0.58,-2.23 0.22,-3.42 0.84,-4.29 1.46,-5.16 2.57,-7.01 3.69,-8.86 5.11,-11.15 6.53,-13.44 7.73,-15.28 8.94,-17.11 10.30,-19.56 11.66,-22.01 12.85,-23.95 14.04,-25.89 14.74,-27.52 15.45,-29.16 16.67,-31.60 17.90,-34.04 19.01,-36.22 20.11,-38.40 20.44,-39.59 20.77,-40.79 21.13,-41.84 21.49,-42.89 21.63,-43.07 21.77,-43.25 21.95,-43.40 22.13,-43.54 22.34,-43.63 22.54,-43.73 22.77,-43.77 23.00,-43.81 23.22,-43.80 23.45,-43.79 23.67,-43.72 23.89,-43.65 24.09,-43.53 24.28,-43.42 24.45,-43.25 24.61,-43.09 24.73,-42.90 24.85,-42.70 24.92,-42.48 24.99,-42.26 25.00,-42.03 25.02,-41.81 24.97,-41.58 24.93,-41.35 24.84,-41.15 24.75,-40.94 24.56,-39.49 24.37,-38.05 23.62,-36.04 22.88,-34.04 22.66,-32.56 22.43,-31.09 21.62,-28.58 20.81,-26.07 20.52,-24.29 20.23,-22.51 19.75,-19.71 19.27,-16.92 19.07,-14.91 18.86,-12.90 18.75,-10.63 18.64,-8.36 18.68,-6.82 18.73,-5.27 19.01,-3.60 19.29,-1.93 19.49,-0.57 19.68,0.78 21.24,3.30 22.80,5.82 22.94,6.14 23.09,6.46 23.12,6.81 23.15,7.16 23.06,7.49 22.98,7.83 22.80,8.13 22.61,8.42 22.34,8.65 22.07,8.87 21.74,8.99 21.42,9.11 21.07,9.12 20.72,9.13 20.38,9.03 20.05,8.93 19.76,8.73 19.48,8.53 19.27,8.25 19.07,7.97 18.96,7.63 18.86,7.30 18.87,6.95 18.87,6.60 18.99,6.27 19.11,5.95 19.33,5.67 19.54,5.40 19.84,5.21 20.13,5.02 20.47,4.93 20.81,4.85 21.15,4.87 21.50,4.90 21.82,5.03 22.14,5.17 22.41,5.40 22.67,5.63 22.84,5.93 23.02,6.24 23.08,6.58 23.15,6.92 23.11,7.27 23.06,7.61 22.91,7.93 22.76,8.24 22.51,8.49 22.27,8.74 21.95,8.90 21.64,9.05 21.30,9.10 20.95,9.15 20.61,9.09 20.26,9.03 19.96,8.86 19.65,8.69 19.42,8.43 19.18,8.17 19.19,8.17 19.19,8.17 18.24,6.22 17.29,4.26 16.63,2.75 15.97,1.23 15.93,-0.09 15.89,-1.42 15.62,-3.37 15.35,-5.33 15.46,-6.90 15.57,-8.46 15.61,-10.82 15.65,-13.18 15.79,-15.29 15.94,-17.40 16.28,-20.24 16.63,-23.07 16.92,-25.08 17.22,-27.09 17.78,-29.42 18.35,-31.76 18.67,-33.57 18.98,-35.37 19.51,-37.04 20.03,-38.70 20.30,-39.83 20.56,-40.96 21.02,-41.93 21.49,-42.89 21.63,-43.07 21.77,-43.25 21.95,-43.40 22.13,-43.54 22.34,-43.63 22.54,-43.73 22.77,-43.77 23.00,-43.81 23.22,-43.80 23.45,-43.79 23.67,-43.72 23.89,-43.65 24.09,-43.53 24.28,-43.42 24.45,-43.25 24.61,-43.09 24.73,-42.90 24.85,-42.70 24.92,-42.48 24.99,-42.26 25.00,-42.03 25.02,-41.81 24.97,-41.58 24.93,-41.35 24.84,-41.15 24.75,-40.94 24.54,-42.09 24.34,-43.25 24.10,-41.43 23.87,-39.61 23.27,-38.37 22.68,-37.13 21.62,-34.93 20.56,-32.74 19.41,-30.30 18.25,-27.86 17.40,-26.13 16.56,-24.39 15.45,-22.48 14.34,-20.56 13.00,-17.99 11.66,-15.42 10.57,-13.57 9.48,-11.72 8.20,-9.39 6.93,-7.06 5.08,-4.11 3.22,-1.17 2.30,-0.06 1.38,1.04 1.24,1.19 1.09,1.34 0.92,1.45 0.74,1.56 0.54,1.63 0.34,1.69 0.14,1.71 -0.06,1.73 -0.27,1.69 -0.48,1.66 -0.67,1.58 -0.86,1.50 -1.03,1.37 -1.20,1.25 -1.33,1.08 -1.46,0.92 -1.55,0.73 -1.64,0.55 -1.68,0.34 -1.72,0.14 -1.72,-0.06 -1.71,-0.27 -1.65,-0.47 -1.59,-0.67 -1.49,-0.85 -1.38,-1.04 -1.38,-1.04 L -1.38,-1.04 Z"></path></g><g transform="translate(461 56.000030517578125) rotate(0 -0.5 9.499984741210938)" stroke="none"><path fill="#1e1e1e" d="M 2.44,0 Q 2.44,0 2.40,1.72 2.35,3.45 2.02,5.25 1.70,7.05 1.59,8.47 1.48,9.90 1.43,11.37 1.39,12.83 1.46,15.92 1.52,19.01 1.45,19.41 1.39,19.82 1.19,20.18 1.00,20.54 0.70,20.82 0.40,21.10 0.03,21.26 -0.33,21.43 -0.74,21.48 -1.15,21.52 -1.55,21.43 -1.94,21.34 -2.29,21.13 -2.64,20.91 -2.91,20.60 -3.17,20.29 -3.32,19.90 -3.47,19.52 -3.49,19.12 -3.51,18.71 -3.39,18.31 -3.28,17.92 -3.05,17.58 -2.82,17.25 -2.49,17.00 -2.17,16.75 -1.78,16.63 -1.39,16.50 -0.98,16.50 -0.57,16.50 -0.18,16.64 0.19,16.77 0.52,17.02 0.84,17.27 1.07,17.61 1.30,17.95 1.40,18.34 1.51,18.74 1.49,19.14 1.46,19.55 1.31,19.93 1.15,20.31 0.89,20.62 0.62,20.93 0.27,21.14 -0.07,21.35 -0.47,21.43 -0.87,21.52 -1.28,21.47 -1.69,21.43 -2.06,21.25 -2.43,21.08 -2.72,20.80 -3.02,20.51 -3.21,20.15 -3.40,19.79 -3.46,19.38 -3.52,18.98 -3.52,18.98 -3.52,18.98 -3.38,15.83 -3.23,12.67 -3.18,11.10 -3.12,9.53 -2.98,7.88 -2.85,6.23 -2.60,4.83 -2.35,3.44 -2.40,1.72 -2.44,0 -2.41,-0.29 -2.37,-0.58 -2.27,-0.86 -2.16,-1.13 -2.00,-1.38 -1.83,-1.62 -1.61,-1.81 -1.39,-2.01 -1.12,-2.15 -0.86,-2.28 -0.58,-2.36 -0.29,-2.43 0.00,-2.43 0.29,-2.43 0.58,-2.36 0.86,-2.28 1.12,-2.15 1.39,-2.01 1.61,-1.81 1.83,-1.62 2.00,-1.38 2.16,-1.13 2.27,-0.86 2.37,-0.58 2.41,-0.29 2.44,0.00 2.44,0.00 L 2.44,0 Z"></path></g><g transform="translate(493 47.000030517578125) rotate(0 12 -0.500030517578125)" stroke="none"><path fill="#1e1e1e" d="M 0.39,-2.39 Q 0.39,-2.39 2.11,-2.05 3.83,-1.72 5.31,-1.59 6.79,-1.47 9.58,-1.81 12.37,-2.15 13.68,-2.23 14.99,-2.30 17.38,-2.79 19.77,-3.27 21.51,-3.86 23.26,-4.46 23.67,-4.51 24.08,-4.57 24.49,-4.49 24.90,-4.40 25.26,-4.20 25.62,-3.99 25.90,-3.68 26.17,-3.37 26.33,-2.98 26.50,-2.60 26.53,-2.18 26.56,-1.77 26.45,-1.36 26.35,-0.96 26.12,-0.61 25.90,-0.26 25.57,-0.00 25.25,0.24 24.85,0.38 24.46,0.53 24.05,0.53 23.63,0.54 23.23,0.42 22.84,0.29 22.50,0.05 22.16,-0.19 21.92,-0.53 21.68,-0.87 21.56,-1.27 21.44,-1.67 21.46,-2.08 21.47,-2.50 21.62,-2.89 21.76,-3.28 22.03,-3.60 22.29,-3.92 22.64,-4.14 23.00,-4.37 23.40,-4.46 23.80,-4.56 24.22,-4.52 24.63,-4.49 25.02,-4.32 25.40,-4.15 25.70,-3.87 26.01,-3.59 26.21,-3.23 26.42,-2.86 26.49,-2.46 26.57,-2.05 26.51,-1.63 26.45,-1.22 26.26,-0.85 26.07,-0.48 25.78,-0.19 25.48,0.10 25.11,0.28 24.73,0.46 24.73,0.46 24.73,0.46 22.50,1.06 20.26,1.65 19.12,1.73 17.97,1.81 16.58,2.12 15.18,2.43 13.91,2.44 12.64,2.45 11.11,2.56 9.58,2.68 8.03,2.89 6.48,3.11 4.77,2.99 3.06,2.87 1.33,2.63 -0.39,2.39 -0.68,2.31 -0.96,2.23 -1.21,2.08 -1.46,1.93 -1.67,1.73 -1.88,1.52 -2.04,1.28 -2.19,1.03 -2.29,0.75 -2.38,0.47 -2.40,0.18 -2.42,-0.10 -2.37,-0.39 -2.33,-0.68 -2.21,-0.95 -2.09,-1.22 -1.92,-1.45 -1.74,-1.69 -1.51,-1.87 -1.29,-2.05 -1.02,-2.18 -0.75,-2.30 -0.47,-2.36 -0.18,-2.42 0.10,-2.40 0.39,-2.39 0.39,-2.39 L 0.39,-2.39 Z"></path></g><g transform="translate(540 49) rotate(0 17.5 -10.499984741210938)" stroke="none"><path fill="#1e1e1e" d="M -0.76,-1.91 Q -0.76,-1.91 0.65,-2.51 2.08,-3.10 3.89,-4.58 5.69,-6.06 6.88,-6.92 8.07,-7.78 9.00,-8.62 9.93,-9.45 11.63,-10.65 13.33,-11.84 14.53,-12.90 15.74,-13.96 17.46,-15.47 19.18,-16.98 20.47,-18.23 21.76,-19.49 23.20,-20.85 24.63,-22.22 25.87,-23.23 27.10,-24.24 28.08,-25.18 29.07,-26.12 29.97,-26.73 30.88,-27.33 32.25,-27.65 33.62,-27.96 34.81,-27.45 35.99,-26.93 36.60,-25.75 37.21,-24.57 37.38,-22.33 37.55,-20.09 37.26,-18.60 36.97,-17.12 36.88,-15.95 36.78,-14.78 36.76,-13.68 36.73,-12.58 36.71,-11.27 36.68,-9.95 36.69,-8.81 36.70,-7.67 36.71,-6.60 36.73,-5.53 36.41,-4.15 36.09,-2.76 36.02,-1.45 35.95,-0.13 36.46,2.28 36.97,4.70 36.94,5.19 36.91,5.67 36.73,6.12 36.54,6.56 36.22,6.93 35.91,7.30 35.49,7.54 35.07,7.79 34.60,7.89 34.13,7.98 33.64,7.93 33.16,7.87 32.73,7.66 32.29,7.45 31.94,7.12 31.59,6.78 31.37,6.35 31.15,5.92 31.08,5.44 31.00,4.96 31.09,4.49 31.17,4.01 31.40,3.58 31.63,3.16 31.99,2.83 32.34,2.50 32.78,2.30 33.23,2.10 33.71,2.06 34.19,2.01 34.66,2.12 35.13,2.23 35.54,2.48 35.96,2.74 36.27,3.11 36.58,3.48 36.75,3.93 36.92,4.38 36.94,4.87 36.97,5.35 36.83,5.82 36.70,6.28 36.42,6.68 36.14,7.08 35.76,7.36 35.37,7.65 34.91,7.80 34.45,7.95 33.96,7.95 33.48,7.94 33.02,7.78 32.56,7.62 32.18,7.33 31.80,7.03 31.53,6.63 31.27,6.22 31.14,5.75 31.02,5.29 31.02,5.29 31.02,5.29 30.60,2.40 30.19,-0.47 30.47,-2.37 30.75,-4.26 31.04,-5.99 31.32,-7.72 31.35,-8.88 31.37,-10.04 31.39,-11.42 31.41,-12.81 31.48,-14.02 31.55,-15.23 31.95,-17.62 32.35,-20.02 32.05,-21.54 31.75,-23.06 30.58,-22.10 29.42,-21.15 28.30,-20.39 27.18,-19.64 25.80,-18.20 24.42,-16.77 23.12,-15.50 21.83,-14.23 20.19,-12.50 18.55,-10.77 17.25,-9.62 15.95,-8.48 14.46,-7.19 12.97,-5.89 11.81,-4.94 10.65,-3.99 9.63,-3.35 8.62,-2.71 7.22,-1.50 5.82,-0.28 4.74,0.26 3.66,0.80 2.21,1.36 0.76,1.91 0.52,1.98 0.28,2.04 0.03,2.05 -0.21,2.05 -0.45,2.00 -0.69,1.94 -0.92,1.83 -1.14,1.72 -1.33,1.55 -1.52,1.39 -1.66,1.19 -1.81,0.99 -1.90,0.76 -1.99,0.53 -2.03,0.28 -2.06,0.03 -2.04,-0.21 -2.01,-0.45 -1.93,-0.69 -1.84,-0.92 -1.70,-1.13 -1.57,-1.34 -1.38,-1.51 -1.20,-1.67 -0.98,-1.79 -0.76,-1.91 -0.76,-1.91 L -0.76,-1.91 Z"></path></g><g transform="translate(711.0001220703125 51) rotate(0 5.9998779296875 -5.5)" stroke="none"><path fill="#1e1e1e" d="M -2.17,0 Q -2.17,0 -2.18,-0.71 -2.20,-1.42 -3.08,-0.61 -3.96,0.19 -5.33,0.73 -6.70,1.27 -8.14,2.02 -9.57,2.77 -11.28,4.06 -12.99,5.35 -14.31,6.51 -15.63,7.68 -16.30,8.86 -16.98,10.04 -17.93,12.16 -18.88,14.28 -19.56,15.86 -20.23,17.44 -20.53,19.28 -20.83,21.12 -20.62,22.33 -20.40,23.54 -19.59,24.66 -18.78,25.78 -16.88,26.51 -14.97,27.25 -11.92,26.64 -8.86,26.03 -7.16,25.30 -5.47,24.58 -3.12,22.68 -0.77,20.77 1.15,19.09 3.09,17.41 5.61,14.72 8.13,12.04 10.07,9.77 12.01,7.49 13.70,5.38 15.39,3.28 17.50,-0.40 19.60,-4.09 21.08,-7.09 22.56,-10.09 24.35,-13.96 26.13,-17.82 27.16,-20.57 28.19,-23.33 29.21,-26.23 30.23,-29.13 30.95,-31.22 31.67,-33.32 32.21,-35.09 32.75,-36.86 32.60,-38.61 32.44,-40.36 32.52,-40.58 32.60,-40.79 32.73,-40.97 32.86,-41.16 33.03,-41.31 33.19,-41.46 33.39,-41.57 33.59,-41.67 33.81,-41.73 34.03,-41.78 34.26,-41.78 34.48,-41.78 34.70,-41.73 34.92,-41.67 35.12,-41.57 35.32,-41.46 35.49,-41.32 35.66,-41.17 35.79,-40.98 35.92,-40.79 36.00,-40.58 36.08,-40.37 36.11,-40.15 36.13,-39.92 36.11,-39.70 36.08,-39.48 34.94,-38.62 33.80,-37.77 33.25,-35.41 32.70,-33.06 32.21,-31.42 31.71,-29.78 31.44,-27.86 31.17,-25.95 30.78,-24.08 30.39,-22.21 30.17,-20.16 29.96,-18.10 29.95,-16.62 29.95,-15.14 30.14,-13.21 30.33,-11.28 30.51,-9.79 30.69,-8.29 31.05,-6.96 31.41,-5.63 33.09,-3.51 34.78,-1.39 34.95,-1.07 35.13,-0.75 35.19,-0.39 35.26,-0.03 35.20,0.32 35.15,0.68 34.98,1.01 34.82,1.34 34.56,1.59 34.29,1.85 33.96,2.01 33.63,2.17 33.27,2.21 32.91,2.26 32.55,2.18 32.19,2.11 31.87,1.93 31.56,1.74 31.32,1.47 31.07,1.19 30.93,0.85 30.79,0.52 30.77,0.15 30.74,-0.20 30.83,-0.56 30.93,-0.91 31.13,-1.22 31.33,-1.53 31.62,-1.75 31.90,-1.98 32.25,-2.10 32.59,-2.22 32.96,-2.23 33.33,-2.23 33.68,-2.12 34.02,-2.01 34.32,-1.79 34.61,-1.58 34.82,-1.28 35.03,-0.98 35.14,-0.63 35.24,-0.27 35.23,0.08 35.21,0.45 35.08,0.79 34.95,1.13 34.72,1.41 34.49,1.70 34.18,1.89 33.87,2.08 33.51,2.17 33.15,2.25 32.79,2.22 32.42,2.18 32.09,2.04 31.75,1.89 31.48,1.64 31.21,1.39 31.21,1.39 31.21,1.39 29.83,-0.52 28.45,-2.44 28.02,-3.59 27.59,-4.74 27.28,-6.38 26.97,-8.01 26.94,-9.43 26.90,-10.85 26.57,-13.07 26.24,-15.30 26.37,-16.83 26.51,-18.35 26.61,-20.67 26.71,-22.99 27.06,-24.65 27.42,-26.31 27.56,-28.64 27.70,-30.97 28.18,-32.54 28.65,-34.12 29.17,-36.12 29.69,-38.12 31.06,-39.24 32.44,-40.36 32.52,-40.58 32.60,-40.79 32.73,-40.97 32.86,-41.16 33.02,-41.31 33.19,-41.46 33.39,-41.57 33.59,-41.67 33.81,-41.73 34.03,-41.78 34.26,-41.78 34.48,-41.78 34.70,-41.73 34.92,-41.67 35.12,-41.57 35.32,-41.46 35.49,-41.32 35.66,-41.17 35.79,-40.98 35.92,-40.79 36.00,-40.58 36.08,-40.37 36.11,-40.15 36.13,-39.92 36.11,-39.70 36.08,-39.48 36.17,-38.82 36.25,-38.16 35.87,-37.05 35.48,-35.94 34.83,-34.20 34.19,-32.46 33.47,-30.35 32.75,-28.25 31.73,-25.32 30.71,-22.39 29.65,-19.54 28.59,-16.69 26.80,-12.79 25.02,-8.89 23.52,-5.80 22.01,-2.72 19.81,1.15 17.61,5.03 15.92,7.19 14.24,9.36 12.29,11.72 10.34,14.09 7.77,16.92 5.21,19.74 3.29,21.55 1.37,23.36 -1.28,25.61 -3.94,27.86 -5.91,28.80 -7.88,29.73 -10.36,30.46 -12.84,31.20 -14.48,31.15 -16.13,31.10 -18.23,30.36 -20.34,29.62 -21.15,28.72 -21.97,27.82 -23.02,25.97 -24.08,24.11 -24.18,22.39 -24.29,20.66 -24.01,18.30 -23.73,15.94 -23.03,14.41 -22.33,12.88 -21.41,10.37 -20.48,7.87 -19.44,6.29 -18.39,4.71 -17.03,3.43 -15.67,2.16 -13.78,0.42 -11.89,-1.31 -10.26,-2.28 -8.64,-3.25 -6.87,-4.05 -5.10,-4.84 -3.65,-5.04 -2.21,-5.24 -0.65,-4.71 0.91,-4.18 1.55,-3.10 2.20,-2.02 2.18,-1.01 2.17,0 2.14,0.25 2.10,0.51 2.01,0.76 1.92,1.00 1.77,1.22 1.62,1.44 1.43,1.61 1.23,1.78 1.00,1.90 0.77,2.03 0.51,2.09 0.26,2.15 -0.00,2.15 -0.26,2.15 -0.51,2.09 -0.77,2.03 -1.00,1.90 -1.23,1.78 -1.43,1.61 -1.62,1.44 -1.77,1.22 -1.92,1.00 -2.01,0.76 -2.10,0.51 -2.14,0.25 -2.17,-0.00 -2.17,-0.00 L -2.17,0 Z"></path></g><g transform="translate(781 49) rotate(0 9.00006103515625 11.5)" stroke="none"><path fill="#1e1e1e" d="M 2.27,0.64 Q 2.27,0.64 1.57,2.62 0.87,4.60 0.33,6.11 -0.19,7.63 -0.72,9.29 -1.24,10.94 -1.12,12.23 -1.00,13.53 -0.92,14.79 -0.84,16.04 -0.18,17.62 0.47,19.19 1.85,19.55 3.24,19.91 4.92,20.07 6.61,20.22 7.72,19.80 8.83,19.38 9.99,18.90 11.15,18.41 12.62,17.35 14.10,16.29 15.45,15.37 16.80,14.45 17.71,13.22 18.62,12.00 19.07,9.62 19.53,7.23 18.61,6.16 17.69,5.09 15.67,4.36 13.65,3.63 12.02,3.49 10.38,3.34 7.80,3.46 5.21,3.58 3.18,3.70 1.15,3.81 0.86,3.78 0.56,3.76 0.29,3.65 0.02,3.53 -0.19,3.34 -0.41,3.14 -0.55,2.88 -0.70,2.63 -0.76,2.34 -0.81,2.05 -0.77,1.76 -0.74,1.47 -0.61,1.20 -0.48,0.94 -0.27,0.73 -0.06,0.52 0.19,0.39 0.46,0.26 0.75,0.22 1.04,0.18 1.33,0.23 1.62,0.29 1.87,0.43 2.13,0.57 2.33,0.79 2.52,1.01 2.64,1.28 2.76,1.55 2.78,1.84 2.81,2.14 2.74,2.42 2.67,2.71 2.51,2.96 2.35,3.21 2.12,3.39 1.90,3.58 1.62,3.68 1.34,3.78 1.05,3.79 0.76,3.80 0.47,3.71 0.19,3.63 -0.04,3.46 -0.28,3.29 -0.45,3.05 -0.62,2.81 -0.71,2.53 -0.80,2.25 -0.79,1.95 -0.78,1.66 -0.68,1.38 -0.58,1.10 -0.40,0.87 -0.21,0.64 0.02,0.49 0.27,0.33 0.56,0.25 0.84,0.18 0.84,0.18 0.84,0.18 2.86,-0.04 4.89,-0.27 7.79,-0.62 10.70,-0.96 12.50,-0.85 14.31,-0.73 16.90,-0.27 19.49,0.19 20.30,1.02 21.11,1.85 22.29,3.34 23.47,4.84 23.67,6.26 23.86,7.69 23.61,9.64 23.36,11.59 22.70,13.04 22.05,14.48 20.71,16.30 19.37,18.11 18.15,18.93 16.92,19.75 15.03,21.43 13.15,23.10 11.80,23.65 10.46,24.20 8.39,24.85 6.33,25.50 5.11,25.36 3.89,25.23 2.58,24.90 1.26,24.58 -0.12,23.94 -1.51,23.30 -2.61,22.26 -3.70,21.22 -4.17,19.90 -4.64,18.58 -4.94,17.40 -5.24,16.22 -5.22,14.96 -5.20,13.71 -5.21,11.78 -5.23,9.85 -4.73,7.99 -4.23,6.13 -3.70,4.79 -3.17,3.44 -2.72,1.39 -2.27,-0.64 -2.16,-0.91 -2.05,-1.17 -1.88,-1.40 -1.70,-1.63 -1.48,-1.81 -1.26,-1.99 -1.01,-2.11 -0.75,-2.23 -0.47,-2.29 -0.19,-2.35 0.08,-2.34 0.37,-2.33 0.64,-2.25 0.91,-2.17 1.16,-2.03 1.41,-1.89 1.61,-1.69 1.82,-1.50 1.97,-1.26 2.13,-1.02 2.22,-0.75 2.31,-0.48 2.33,-0.19 2.36,0.08 2.31,0.36 2.27,0.64 2.27,0.64 L 2.27,0.64 Z"></path></g><g transform="translate(257 53.000030517578125) rotate(0 4 -1.0000152587890625)" stroke="none"><path fill="#1e1e1e" d="M -1.41,-2.11 Q -1.41,-2.11 -0.56,-2.72 0.28,-3.33 2.34,-3.96 4.40,-4.59 6.15,-4.71 7.90,-4.82 8.35,-4.76 8.81,-4.70 9.22,-4.50 9.63,-4.30 9.96,-3.98 10.28,-3.66 10.49,-3.25 10.69,-2.84 10.76,-2.39 10.82,-1.94 10.74,-1.49 10.66,-1.04 10.43,-0.64 10.21,-0.24 9.87,0.06 9.53,0.37 9.11,0.55 8.69,0.74 8.24,0.78 7.78,0.82 7.34,0.71 6.89,0.60 6.51,0.36 6.12,0.11 5.83,-0.23 5.54,-0.59 5.38,-1.02 5.22,-1.45 5.20,-1.90 5.19,-2.36 5.32,-2.80 5.45,-3.24 5.72,-3.61 5.98,-3.98 6.35,-4.25 6.72,-4.52 7.16,-4.66 7.60,-4.80 8.05,-4.79 8.51,-4.78 8.94,-4.62 9.37,-4.47 9.73,-4.18 10.09,-3.90 10.34,-3.51 10.59,-3.13 10.70,-2.68 10.81,-2.24 10.78,-1.78 10.74,-1.33 10.57,-0.91 10.39,-0.49 10.08,-0.14 9.78,0.19 9.38,0.42 8.99,0.65 8.54,0.73 8.09,0.82 8.09,0.82 8.09,0.82 5.62,0.92 3.16,1.03 2.28,1.57 1.41,2.11 1.13,2.25 0.86,2.39 0.56,2.46 0.26,2.52 -0.04,2.52 -0.34,2.51 -0.64,2.44 -0.94,2.36 -1.20,2.21 -1.47,2.06 -1.70,1.86 -1.93,1.65 -2.10,1.40 -2.27,1.14 -2.37,0.85 -2.47,0.56 -2.51,0.26 -2.54,-0.04 -2.50,-0.34 -2.45,-0.64 -2.34,-0.93 -2.23,-1.21 -2.05,-1.46 -1.87,-1.71 -1.64,-1.91 -1.41,-2.11 -1.41,-2.11 L -1.41,-2.11 Z"></path></g><g transform="translate(252 64) rotate(0 6.5 0.0000152587890625)" stroke="none"><path fill="#1e1e1e" d="M 0,-2.46 Q 0,-2.46 1.43,-2.46 2.86,-2.46 4.11,-2.71 5.35,-2.97 9.14,-3.30 12.92,-3.63 13.35,-3.57 13.77,-3.51 14.15,-3.32 14.53,-3.13 14.83,-2.83 15.13,-2.53 15.32,-2.15 15.51,-1.77 15.57,-1.35 15.63,-0.92 15.55,-0.50 15.47,-0.09 15.26,0.27 15.05,0.65 14.73,0.93 14.41,1.21 14.02,1.38 13.63,1.55 13.21,1.59 12.78,1.62 12.37,1.52 11.95,1.41 11.59,1.18 11.24,0.95 10.97,0.62 10.70,0.29 10.56,-0.10 10.41,-0.50 10.40,-0.93 10.39,-1.35 10.51,-1.76 10.64,-2.17 10.88,-2.51 11.13,-2.86 11.48,-3.11 11.83,-3.35 12.23,-3.48 12.64,-3.60 13.07,-3.59 13.49,-3.58 13.89,-3.43 14.29,-3.29 14.62,-3.02 14.96,-2.75 15.19,-2.39 15.41,-2.03 15.52,-1.62 15.62,-1.21 15.58,-0.78 15.55,-0.36 15.38,0.02 15.21,0.41 14.93,0.73 14.64,1.05 14.27,1.26 13.90,1.47 13.48,1.55 13.07,1.63 13.07,1.63 13.07,1.63 9.68,1.72 6.28,1.82 4.58,2.14 2.88,2.46 1.44,2.46 0,2.46 -0.29,2.42 -0.58,2.39 -0.86,2.28 -1.14,2.18 -1.38,2.01 -1.63,1.84 -1.83,1.62 -2.02,1.39 -2.16,1.13 -2.30,0.87 -2.37,0.58 -2.44,0.29 -2.44,-0.00 -2.44,-0.29 -2.37,-0.58 -2.30,-0.87 -2.16,-1.13 -2.02,-1.39 -1.83,-1.62 -1.63,-1.84 -1.38,-2.01 -1.14,-2.18 -0.86,-2.28 -0.58,-2.39 -0.29,-2.42 0.00,-2.46 0.00,-2.46 L 0,-2.46 Z"></path></g></svg>