<svg version="1.1" xmlns="http://www.w3.org/2000/svg" viewBox="0 0 536.5713500976562 375.88568115234375" width="536.5713500976562" height="375.88568115234375" class="excalidraw-svg"><!-- svg-source:excalidraw --><metadata></metadata><defs><style class="style-fonts">
      </style></defs><g stroke-linecap="round"><g transform="translate(70.34283447265625 331.142822265625) rotate(0 -0.4571533203125 -115.19999694824219)"><path d="M0.5 -1.18 C0.6 -39.58, -0.39 -191.43, -0.56 -229.74 M-0.69 0.81 C-0.62 -37.99, -1.26 -193.04, -1.32 -231.52" stroke="#1e1e1e" stroke-width="2" fill="none"></path></g><g transform="translate(70.34283447265625 331.142822265625) rotate(0 -0.4571533203125 -115.19999694824219)"><path d="M7.3 -208.05 C3.45 -212.19, 4.76 -216.84, -1.32 -231.52 M7.3 -208.05 C5.42 -214.61, 3.68 -220.61, -1.32 -231.52" stroke="#1e1e1e" stroke-width="2" fill="none"></path></g><g transform="translate(70.34283447265625 331.142822265625) rotate(0 -0.4571533203125 -115.19999694824219)"><path d="M-9.8 -208 C-10.17 -212.23, -5.38 -216.88, -1.32 -231.52 M-9.8 -208 C-7.46 -214.4, -4.99 -220.42, -1.32 -231.52" stroke="#1e1e1e" stroke-width="2" fill="none"></path></g></g><mask></mask><g stroke-linecap="round"><g transform="translate(53.88568115234375 309.20001220703125) rotate(0 210.28570556640625 0.914276123046875)"><path d="M-0.5 0.44 C69.62 0.62, 350.27 0.48, 420.63 0.86 M1.43 -0.37 C71.41 -0.06, 349.72 1.68, 419.72 1.9" stroke="#1e1e1e" stroke-width="2" fill="none"></path></g><g transform="translate(53.88568115234375 309.20001220703125) rotate(0 210.28570556640625 0.914276123046875)"><path d="M396.19 10.33 C403.8 8.08, 408.31 7.32, 419.72 1.9 M396.19 10.33 C405.69 7.59, 413.57 3.72, 419.72 1.9" stroke="#1e1e1e" stroke-width="2" fill="none"></path></g><g transform="translate(53.88568115234375 309.20001220703125) rotate(0 210.28570556640625 0.914276123046875)"><path d="M396.27 -6.77 C403.83 -4.04, 408.32 0.19, 419.72 1.9 M396.27 -6.77 C405.77 -3.05, 413.62 -0.47, 419.72 1.9" stroke="#1e1e1e" stroke-width="2" fill="none"></path></g></g><mask></mask><g transform="translate(61.199951171875 44.971405029296875) rotate(0 9.600006103515625 8.68572998046875)" stroke="none"><path fill="#1e1e1e" d="M 2.51,-0.62 Q 2.51,-0.62 2.80,0.41 3.09,1.46 3.27,2.60 3.44,3.73 3.57,5.72 3.70,7.70 4.03,10.37 4.36,13.04 4.50,14.67 4.64,16.31 4.71,17.38 4.78,18.44 4.85,19.85 4.93,21.26 4.98,22.63 5.04,24.00 5.08,25.38 5.13,26.75 5.08,27.14 5.03,27.54 4.89,27.91 4.75,28.28 4.52,28.61 4.30,28.94 4.00,29.20 3.70,29.47 3.35,29.65 3.00,29.84 2.61,29.93 2.22,30.03 1.82,30.03 1.43,30.03 1.04,29.93 0.65,29.84 0.30,29.65 -0.04,29.47 -0.34,29.20 -0.64,28.94 -0.87,28.61 -1.09,28.28 -1.23,27.91 -1.37,27.54 -1.42,27.14 -1.47,26.75 -1.46,25.00 -1.45,23.25 -1.88,20.57 -2.30,17.89 -2.66,16.74 -3.01,15.59 -3.25,14.31 -3.48,13.03 -3.78,11.92 -4.07,10.81 -4.37,9.20 -4.68,7.58 -4.75,5.92 -4.83,4.26 -4.88,3.00 -4.93,1.74 -4.96,0.39 -4.99,-0.95 -5.01,-2.52 -5.04,-4.09 -4.60,-5.24 -4.17,-6.40 -3.34,-7.50 -2.50,-8.61 -1.50,-9.64 -0.50,-10.67 0.66,-11.87 1.84,-13.08 3.24,-13.31 4.64,-13.53 6.09,-13.57 7.54,-13.60 8.91,-13.62 10.29,-13.63 12.25,-13.35 14.21,-13.06 15.99,-12.37 17.78,-11.68 19.27,-10.35 20.77,-9.03 21.78,-8.03 22.80,-7.03 23.68,-5.45 24.55,-3.88 24.60,-2.39 24.64,-0.89 24.66,0.57 24.67,2.04 24.37,3.56 24.08,5.07 23.43,6.74 22.78,8.40 21.65,10.15 20.52,11.90 19.97,12.95 19.42,14.00 18.62,15.28 17.81,16.55 16.22,16.92 14.62,17.29 12.98,17.01 11.35,16.73 10.08,16.60 8.82,16.48 7.48,16.48 6.15,16.47 3.94,17.35 1.74,18.22 1.14,18.21 0.54,18.20 -0.01,18.00 -0.57,17.81 -1.04,17.44 -1.50,17.07 -1.83,16.57 -2.16,16.07 -2.31,15.50 -2.46,14.92 -2.42,14.33 -2.38,13.73 -2.15,13.18 -1.92,12.63 -1.52,12.19 -1.13,11.74 -0.62,11.44 -0.10,11.14 0.47,11.02 1.05,10.90 1.65,10.98 2.24,11.05 2.77,11.31 3.31,11.57 3.74,11.98 4.16,12.40 4.43,12.93 4.70,13.46 4.79,14.05 4.88,14.64 4.77,15.23 4.67,15.81 4.38,16.33 4.09,16.85 3.65,17.26 3.21,17.66 2.67,17.90 2.13,18.14 1.53,18.20 0.94,18.25 0.36,18.12 -0.21,17.98 -0.71,17.66 -1.22,17.35 -1.60,16.89 -1.98,16.43 -2.19,15.87 -2.40,15.32 -2.42,14.72 -2.45,14.13 -2.28,13.55 -2.11,12.98 -1.77,12.50 -1.43,12.01 -0.95,11.66 -0.47,11.30 0.09,11.12 0.66,10.94 0.66,10.94 0.66,10.94 1.57,10.54 2.49,10.14 3.74,9.66 5.00,9.18 6.50,9.16 8.01,9.13 9.54,9.17 11.08,9.22 12.16,10.12 13.25,11.02 14.22,9.43 15.19,7.85 15.58,6.61 15.97,5.37 16.67,4.17 17.38,2.97 17.38,1.59 17.38,0.20 17.93,-0.89 18.48,-1.99 17.21,-3.25 15.94,-4.51 14.47,-5.19 13.01,-5.86 11.65,-6.17 10.29,-6.47 8.93,-6.48 7.57,-6.49 6.40,-7.10 5.23,-7.70 4.29,-6.81 3.35,-5.92 2.37,-4.79 1.38,-3.66 1.36,-2.31 1.34,-0.96 1.31,0.38 1.27,1.72 1.24,2.96 1.20,4.20 1.20,5.59 1.20,6.98 1.31,8.15 1.42,9.32 1.92,11.57 2.43,13.82 2.92,15.26 3.41,16.70 3.92,18.45 4.44,20.20 4.77,21.70 5.10,23.21 5.12,24.98 5.13,26.75 5.08,27.14 5.03,27.54 4.89,27.91 4.75,28.28 4.52,28.61 4.30,28.94 4.00,29.20 3.70,29.47 3.35,29.65 3.00,29.84 2.61,29.93 2.22,30.03 1.82,30.03 1.43,30.03 1.04,29.93 0.65,29.84 0.30,29.65 -0.04,29.47 -0.34,29.20 -0.64,28.94 -0.87,28.61 -1.09,28.28 -1.23,27.91 -1.37,27.54 -1.42,27.14 -1.47,26.75 -1.44,25.83 -1.41,24.92 -1.36,23.55 -1.31,22.18 -1.25,20.80 -1.18,19.42 -1.11,17.95 -1.04,16.49 -1.04,14.97 -1.04,13.44 -1.18,12.10 -1.32,10.76 -1.62,8.41 -1.92,6.06 -1.98,4.40 -2.04,2.74 -2.28,1.68 -2.51,0.62 -2.55,0.31 -2.59,0.00 -2.55,-0.30 -2.52,-0.61 -2.41,-0.90 -2.30,-1.19 -2.12,-1.45 -1.94,-1.71 -1.71,-1.92 -1.48,-2.12 -1.20,-2.27 -0.92,-2.42 -0.62,-2.49 -0.32,-2.57 -0.00,-2.57 0.30,-2.57 0.60,-2.50 0.91,-2.42 1.18,-2.28 1.46,-2.13 1.70,-1.93 1.93,-1.72 2.11,-1.46 2.29,-1.21 2.40,-0.92 2.51,-0.62 2.51,-0.62 L 2.51,-0.62 Z"></path></g><g transform="translate(92.28570556640625 59.5999755859375) rotate(0 -0.4571533203125 5.9428558349609375)" stroke="none"><path fill="#1e1e1e" d="M 2.64,0 Q 2.64,0 2.66,1.05 2.69,2.10 2.76,3.37 2.84,4.65 2.68,6.57 2.53,8.49 2.34,10.08 2.16,11.66 2.07,12.15 1.98,12.64 1.74,13.07 1.50,13.51 1.13,13.84 0.76,14.18 0.31,14.38 -0.14,14.58 -0.63,14.62 -1.13,14.67 -1.61,14.55 -2.10,14.43 -2.52,14.17 -2.94,13.91 -3.26,13.52 -3.57,13.13 -3.75,12.67 -3.92,12.20 -3.94,11.70 -3.96,11.21 -3.81,10.73 -3.67,10.25 -3.38,9.85 -3.10,9.44 -2.69,9.15 -2.29,8.85 -1.82,8.70 -1.34,8.55 -0.85,8.56 -0.35,8.57 0.11,8.74 0.58,8.91 0.97,9.22 1.36,9.53 1.63,9.94 1.90,10.36 2.03,10.84 2.15,11.33 2.11,11.82 2.08,12.32 1.88,12.78 1.69,13.24 1.36,13.61 1.03,13.98 0.60,14.23 0.17,14.48 -0.31,14.58 -0.80,14.67 -1.29,14.61 -1.78,14.55 -2.23,14.33 -2.68,14.11 -3.03,13.76 -3.39,13.41 -3.61,12.97 -3.84,12.52 -3.91,12.03 -3.98,11.54 -3.98,11.54 -3.98,11.54 -3.41,8.09 -2.84,4.65 -2.76,3.37 -2.69,2.10 -2.66,1.05 -2.64,0 -2.60,-0.31 -2.56,-0.63 -2.45,-0.92 -2.33,-1.22 -2.15,-1.48 -1.97,-1.75 -1.73,-1.96 -1.50,-2.17 -1.21,-2.32 -0.93,-2.46 -0.62,-2.54 -0.31,-2.62 0.00,-2.62 0.31,-2.62 0.62,-2.54 0.93,-2.46 1.21,-2.32 1.50,-2.17 1.73,-1.96 1.97,-1.75 2.15,-1.48 2.33,-1.22 2.45,-0.92 2.56,-0.63 2.60,-0.31 2.64,0.00 2.64,0.00 L 2.64,0 Z"></path></g><g transform="translate(90.45709228515625 41.31427001953125) rotate(0 0 0.4571380615234375)" stroke="none"><path fill="#1e1e1e" d="M 2.32,0.52 Q 2.32,0.52 2.26,0.89 2.20,1.26 2.02,1.60 1.85,1.93 1.57,2.19 1.30,2.45 0.96,2.61 0.62,2.76 0.24,2.80 -0.12,2.84 -0.49,2.76 -0.86,2.68 -1.18,2.49 -1.50,2.29 -1.75,2.01 -1.99,1.72 -2.13,1.37 -2.27,1.02 -2.29,0.64 -2.31,0.27 -2.21,-0.08 -2.11,-0.45 -1.90,-0.76 -1.68,-1.07 -1.38,-1.30 -1.08,-1.53 -0.73,-1.65 -0.37,-1.77 0.00,-1.77 0.37,-1.77 0.73,-1.65 1.09,-1.53 1.39,-1.30 1.69,-1.07 1.90,-0.76 2.11,-0.45 2.21,-0.08 2.31,0.27 2.29,0.65 2.27,1.02 2.13,1.37 1.99,1.72 1.75,2.01 1.50,2.30 1.18,2.49 0.86,2.68 0.49,2.76 0.12,2.84 -0.24,2.80 -0.62,2.76 -0.96,2.61 -1.30,2.45 -1.58,2.19 -1.85,1.93 -2.02,1.60 -2.20,1.26 -2.26,0.89 -2.32,0.52 -2.32,0.52 -2.32,0.52 -2.35,0.23 -2.38,-0.04 -2.34,-0.33 -2.30,-0.61 -2.19,-0.88 -2.09,-1.14 -1.92,-1.38 -1.75,-1.61 -1.53,-1.80 -1.31,-1.98 -1.05,-2.11 -0.80,-2.24 -0.52,-2.31 -0.24,-2.37 0.04,-2.36 0.33,-2.36 0.61,-2.28 0.88,-2.21 1.14,-2.07 1.39,-1.93 1.60,-1.74 1.81,-1.54 1.97,-1.30 2.13,-1.06 2.23,-0.79 2.32,-0.52 2.32,0.00 L 2.32,0.52 Z"></path></g><g transform="translate(495.48565673828125 329.31427001953125) rotate(0 10.971435546875 17.828582763671875)" stroke="none"><path fill="#1e1e1e" d="M 1.59,-1.32 Q 1.59,-1.32 2.84,0.30 4.09,1.93 5.20,3.43 6.31,4.94 7.51,6.65 8.70,8.36 9.60,9.96 10.49,11.55 11.53,13.19 12.58,14.82 13.41,16.41 14.24,18.00 15.08,19.35 15.92,20.70 16.63,22.17 17.34,23.65 17.91,24.72 18.49,25.79 19.03,26.75 19.57,27.71 20.57,29.10 21.58,30.49 22.52,32.00 23.46,33.50 23.72,33.83 23.99,34.16 24.13,34.56 24.27,34.96 24.28,35.39 24.28,35.81 24.16,36.21 24.03,36.62 23.78,36.96 23.52,37.30 23.18,37.54 22.83,37.79 22.42,37.91 22.02,38.03 21.60,38.01 21.17,37.99 20.78,37.84 20.38,37.69 20.05,37.42 19.72,37.16 19.50,36.80 19.28,36.44 19.18,36.02 19.08,35.61 19.12,35.19 19.16,34.77 19.33,34.38 19.50,33.99 19.79,33.68 20.07,33.37 20.45,33.16 20.82,32.96 21.23,32.88 21.65,32.81 22.07,32.87 22.49,32.93 22.87,33.13 23.24,33.32 23.54,33.62 23.84,33.92 24.02,34.30 24.20,34.69 24.26,35.11 24.31,35.53 24.23,35.94 24.14,36.36 23.93,36.72 23.72,37.09 23.40,37.37 23.08,37.65 22.69,37.81 22.30,37.98 21.87,38.01 21.45,38.04 21.04,37.93 20.63,37.82 20.28,37.59 19.92,37.36 19.92,37.36 19.92,37.36 18.60,35.13 17.27,32.90 16.41,31.29 15.55,29.67 15.12,28.62 14.68,27.58 14.21,26.41 13.74,25.25 13.20,23.93 12.67,22.61 11.83,21.10 10.99,19.60 10.34,18.17 9.68,16.75 8.48,15.00 7.27,13.26 6.57,11.86 5.88,10.46 4.58,8.83 3.27,7.20 2.21,5.78 1.16,4.37 -0.21,2.85 -1.59,1.32 -1.72,1.11 -1.86,0.90 -1.94,0.67 -2.02,0.43 -2.04,0.18 -2.07,-0.06 -2.03,-0.30 -1.99,-0.55 -1.90,-0.78 -1.80,-1.01 -1.65,-1.21 -1.50,-1.42 -1.31,-1.58 -1.12,-1.73 -0.90,-1.84 -0.67,-1.95 -0.43,-2.01 -0.18,-2.06 0.06,-2.05 0.31,-2.04 0.55,-1.98 0.79,-1.91 1.01,-1.79 1.22,-1.66 1.40,-1.49 1.59,-1.32 1.59,-1.32 L 1.59,-1.32 Z"></path></g><g transform="translate(495.48565673828125 356.74285888671875) rotate(0 6.857177734375 -10.057159423828125)" stroke="none"><path fill="#1e1e1e" d="M -2.23,-1.11 Q -2.23,-1.11 -1.39,-2.67 -0.54,-4.22 0.74,-5.83 2.04,-7.43 2.68,-8.68 3.32,-9.93 3.91,-10.92 4.50,-11.92 5.44,-13.56 6.38,-15.21 7.32,-16.38 8.26,-17.54 8.98,-18.41 9.69,-19.27 10.86,-20.91 12.04,-22.54 12.48,-22.71 12.93,-22.88 13.40,-22.89 13.88,-22.91 14.33,-22.78 14.79,-22.64 15.18,-22.37 15.57,-22.09 15.85,-21.71 16.13,-21.32 16.27,-20.87 16.42,-20.42 16.41,-19.94 16.40,-19.47 16.24,-19.02 16.08,-18.57 15.79,-18.20 15.49,-17.82 15.09,-17.56 14.70,-17.30 14.23,-17.18 13.77,-17.06 13.30,-17.10 12.82,-17.13 12.39,-17.32 11.95,-17.50 11.59,-17.81 11.23,-18.13 10.99,-18.54 10.76,-18.95 10.66,-19.42 10.57,-19.89 10.63,-20.36 10.69,-20.83 10.89,-21.26 11.10,-21.69 11.44,-22.03 11.77,-22.37 12.19,-22.58 12.62,-22.80 13.09,-22.87 13.56,-22.93 14.03,-22.85 14.50,-22.76 14.91,-22.53 15.33,-22.30 15.65,-21.95 15.97,-21.60 16.16,-21.16 16.36,-20.73 16.40,-20.25 16.44,-19.78 16.33,-19.32 16.22,-18.86 15.97,-18.45 15.72,-18.05 15.35,-17.75 14.98,-17.45 14.98,-17.45 14.98,-17.45 14.00,-16.38 13.02,-15.32 12.19,-14.16 11.36,-13.01 10.48,-12.09 9.61,-11.17 8.45,-9.51 7.28,-7.84 6.44,-6.27 5.60,-4.70 4.65,-3.39 3.69,-2.08 2.96,-0.48 2.23,1.11 2.07,1.36 1.90,1.62 1.68,1.82 1.46,2.02 1.19,2.17 0.93,2.32 0.64,2.39 0.35,2.47 0.04,2.48 -0.25,2.48 -0.54,2.42 -0.84,2.35 -1.11,2.22 -1.37,2.08 -1.60,1.89 -1.83,1.69 -2.01,1.44 -2.19,1.20 -2.30,0.92 -2.41,0.64 -2.45,0.34 -2.50,0.04 -2.46,-0.25 -2.43,-0.55 -2.33,-0.83 -2.23,-1.11 -2.23,-1.11 L -2.23,-1.11 Z"></path></g><g transform="translate(525.6571655273438 349.42852783203125) rotate(0 0.45709228515625 8.22857666015625)" stroke="none"><path fill="#1e1e1e" d="M 2.65,0 Q 2.65,0 2.65,1.31 2.65,2.62 2.67,3.71 2.69,4.79 2.76,6.46 2.82,8.13 2.91,9.65 2.99,11.18 2.80,12.54 2.62,13.90 2.95,14.26 3.29,14.63 3.50,15.08 3.70,15.53 3.75,16.02 3.80,16.51 3.69,17.00 3.58,17.48 3.32,17.90 3.06,18.33 2.68,18.64 2.30,18.96 1.84,19.14 1.38,19.32 0.88,19.34 0.39,19.37 -0.08,19.23 -0.55,19.09 -0.96,18.81 -1.37,18.53 -1.67,18.13 -1.96,17.74 -2.12,17.27 -2.27,16.80 -2.27,16.30 -2.26,15.80 -2.10,15.34 -1.94,14.87 -1.64,14.48 -1.33,14.08 -0.92,13.81 -0.51,13.54 -0.03,13.41 0.44,13.28 0.93,13.31 1.43,13.34 1.89,13.53 2.34,13.71 2.72,14.04 3.09,14.36 3.35,14.79 3.60,15.21 3.70,15.70 3.80,16.18 3.74,16.68 3.69,17.17 3.48,17.62 3.26,18.06 2.92,18.42 2.58,18.78 2.14,19.01 1.70,19.23 1.21,19.31 0.72,19.39 0.23,19.30 -0.25,19.22 -0.68,18.98 -1.12,18.75 -1.12,18.75 -1.12,18.75 -2.06,14.96 -2.99,11.18 -2.91,9.65 -2.82,8.13 -2.76,6.46 -2.69,4.79 -2.67,3.71 -2.65,2.62 -2.65,1.31 -2.65,0 -2.61,-0.31 -2.57,-0.63 -2.46,-0.93 -2.34,-1.23 -2.16,-1.49 -1.98,-1.75 -1.74,-1.97 -1.50,-2.18 -1.22,-2.33 -0.94,-2.47 -0.62,-2.55 -0.31,-2.63 0.00,-2.63 0.31,-2.63 0.62,-2.55 0.94,-2.47 1.22,-2.33 1.50,-2.18 1.74,-1.96 1.98,-1.75 2.16,-1.49 2.34,-1.23 2.46,-0.93 2.57,-0.63 2.61,-0.31 2.65,0.00 2.65,0.00 L 2.65,0 Z"></path></g><g transform="translate(525.6571655273438 338.4571533203125) rotate(0 0 -0.4571533203125)" stroke="none"><path fill="#1e1e1e" d="M -2.32,-0.52 Q -2.32,-0.52 -2.26,-0.89 -2.20,-1.26 -2.02,-1.60 -1.85,-1.93 -1.57,-2.19 -1.30,-2.45 -0.96,-2.61 -0.62,-2.76 -0.24,-2.80 0.12,-2.84 0.49,-2.76 0.86,-2.68 1.18,-2.49 1.50,-2.29 1.75,-2.01 1.99,-1.72 2.13,-1.37 2.27,-1.02 2.29,-0.64 2.31,-0.27 2.21,0.08 2.11,0.45 1.90,0.76 1.68,1.07 1.38,1.30 1.08,1.53 0.73,1.65 0.37,1.77 -0.00,1.77 -0.37,1.77 -0.73,1.65 -1.09,1.53 -1.39,1.30 -1.69,1.07 -1.90,0.76 -2.11,0.45 -2.21,0.08 -2.31,-0.27 -2.29,-0.65 -2.27,-1.02 -2.13,-1.37 -1.99,-1.72 -1.75,-2.01 -1.50,-2.30 -1.18,-2.49 -0.86,-2.68 -0.49,-2.76 -0.12,-2.84 0.24,-2.80 0.62,-2.76 0.96,-2.61 1.30,-2.45 1.58,-2.19 1.85,-1.93 2.02,-1.60 2.20,-1.26 2.26,-0.89 2.32,-0.52 2.32,-0.52 2.32,-0.52 2.35,-0.23 2.38,0.04 2.34,0.33 2.30,0.61 2.19,0.88 2.09,1.14 1.92,1.38 1.75,1.61 1.53,1.80 1.31,1.98 1.05,2.11 0.80,2.24 0.52,2.31 0.24,2.37 -0.04,2.36 -0.33,2.36 -0.61,2.28 -0.88,2.21 -1.14,2.07 -1.39,1.93 -1.60,1.74 -1.81,1.54 -1.97,1.30 -2.13,1.06 -2.23,0.79 -2.32,0.52 -2.32,-0.00 L -2.32,-0.52 Z"></path></g><g transform="translate(115.142822265625 220.5142822265625) rotate(0 2.74285888671875 0.457122802734375)" stroke="none"><path fill="#1e1e1e" d="M 2.48,-0.82 Q 2.48,-0.82 2.78,-0.05 3.08,0.72 4.24,0.47 5.40,0.21 4.21,-0.11 3.03,-0.44 1.88,0.00 0.73,0.44 0.81,1.87 0.89,3.30 0.47,3.38 0.05,3.46 -0.37,3.44 -0.80,3.41 -1.21,3.29 -1.62,3.16 -1.99,2.95 -2.36,2.73 -2.66,2.43 -2.97,2.12 -3.19,1.76 -3.42,1.39 -3.55,0.98 -3.68,0.57 -3.71,0.15 -3.74,-0.27 -3.66,-0.69 -3.59,-1.12 -3.42,-1.51 -3.24,-1.90 -2.98,-2.24 -2.72,-2.58 -2.38,-2.85 -2.05,-3.12 -1.66,-3.30 -1.27,-3.48 0.51,-3.06 2.29,-2.64 2.63,-2.18 2.98,-1.71 3.15,-1.16 3.33,-0.62 3.32,-0.04 3.32,0.53 3.12,1.07 2.93,1.61 2.58,2.07 2.22,2.52 1.74,2.84 1.26,3.16 0.71,3.30 0.15,3.45 -0.42,3.41 -0.99,3.37 -1.52,3.15 -2.06,2.93 -2.49,2.56 -2.93,2.18 -3.22,1.68 -3.51,1.18 -3.62,0.62 -3.74,0.05 -3.67,-0.51 -3.60,-1.08 -3.35,-1.60 -3.10,-2.12 -2.70,-2.53 -2.30,-2.95 -1.79,-3.21 -1.28,-3.47 -0.71,-3.56 -0.14,-3.65 0.42,-3.55 0.99,-3.44 1.49,-3.17 2.00,-2.89 2.39,-2.47 2.78,-2.04 3.02,-1.52 3.25,-0.99 3.31,-0.42 3.36,0.14 3.23,0.71 3.10,1.27 2.80,1.76 2.49,2.25 2.05,2.61 1.60,2.98 1.07,3.19 0.53,3.39 -0.04,3.42 -0.61,3.44 -1.17,3.28 -1.72,3.12 -0.41,3.21 0.89,3.30 0.47,3.38 0.05,3.46 -0.37,3.44 -0.80,3.41 -1.21,3.29 -1.62,3.17 -1.99,2.95 -2.36,2.73 -2.66,2.43 -2.97,2.12 -3.19,1.76 -3.42,1.39 -3.55,0.98 -3.68,0.57 -3.71,0.15 -3.74,-0.27 -3.66,-0.69 -3.59,-1.12 -3.42,-1.51 -3.24,-1.90 -2.98,-2.24 -2.72,-2.58 -2.38,-2.85 -2.05,-3.12 -1.66,-3.30 -1.27,-3.48 -0.88,-5.02 -0.50,-6.55 1.18,-6.80 2.87,-7.05 4.27,-6.25 5.67,-5.45 6.75,-4.83 7.84,-4.21 8.94,-2.78 10.03,-1.36 10.30,-0.24 10.56,0.86 10.22,2.35 9.88,3.84 8.78,4.40 7.67,4.96 6.32,5.97 4.96,6.99 2.98,6.98 1.00,6.98 0.22,6.14 -0.55,5.29 -1.29,3.86 -2.03,2.42 -2.26,1.62 -2.48,0.82 -2.55,0.51 -2.61,0.20 -2.60,-0.10 -2.58,-0.42 -2.49,-0.72 -2.41,-1.02 -2.25,-1.30 -2.09,-1.57 -1.87,-1.80 -1.65,-2.03 -1.38,-2.20 -1.12,-2.36 -0.82,-2.46 -0.52,-2.56 -0.20,-2.59 0.10,-2.61 0.41,-2.56 0.73,-2.51 1.02,-2.39 1.31,-2.26 1.56,-2.07 1.81,-1.88 2.01,-1.64 2.21,-1.39 2.35,-1.11 2.48,-0.82 2.48,-0.82 L 2.48,-0.82 Z"></path></g><g transform="translate(180.05712890625 218.68569946289062) rotate(0 -1.82861328125 2.2857208251953125)" stroke="none"><path fill="#1e1e1e" d="M 0,2.62 Q 0,2.62 -0.95,2.63 -1.91,2.63 -2.62,1.16 -3.32,-0.29 -3.29,-0.84 -3.25,-1.38 -3.05,-1.89 -2.84,-2.39 -2.48,-2.80 -2.13,-3.22 -1.66,-3.49 -1.19,-3.77 -0.65,-3.88 -0.12,-3.99 0.41,-3.93 0.96,-3.87 1.45,-3.63 1.94,-3.40 2.34,-3.02 2.73,-2.64 2.98,-2.15 3.23,-1.67 3.31,-1.13 3.40,-0.59 3.30,-0.05 3.21,0.47 2.95,0.95 2.69,1.43 2.29,1.81 1.89,2.18 1.39,2.40 0.89,2.63 0.35,2.68 -0.18,2.73 -0.71,2.61 -1.25,2.49 -1.71,2.20 -2.18,1.92 -2.52,1.50 -2.87,1.08 -3.07,0.57 -3.27,0.06 -3.29,-0.48 -3.32,-1.02 -3.17,-1.55 -3.01,-2.07 -2.70,-2.52 -2.39,-2.97 -1.96,-3.29 -1.52,-3.62 -1.00,-3.79 -0.48,-3.96 0.06,-3.95 0.60,-3.95 1.12,-3.77 1.63,-3.59 2.06,-3.25 2.50,-2.92 2.80,-2.46 3.10,-2.01 3.24,-1.48 3.38,-0.96 3.38,-0.96 3.38,-0.96 3.76,0.71 4.14,2.38 3.82,4.06 3.49,5.73 2.55,6.51 1.60,7.29 0.52,7.63 -0.55,7.97 -2.01,8.11 -3.47,8.25 -4.66,7.50 -5.86,6.76 -6.45,5.83 -7.04,4.91 -7.27,3.84 -7.49,2.78 -7.12,1.34 -6.75,-0.09 -5.56,-0.97 -4.36,-1.86 -3.32,-2.24 -2.29,-2.63 -1.14,-2.63 0,-2.62 0.31,-2.58 0.62,-2.55 0.92,-2.43 1.22,-2.32 1.48,-2.14 1.74,-1.96 1.95,-1.72 2.16,-1.49 2.31,-1.21 2.45,-0.93 2.53,-0.62 2.60,-0.31 2.60,0.00 2.60,0.31 2.53,0.62 2.45,0.93 2.30,1.21 2.16,1.49 1.95,1.73 1.74,1.96 1.48,2.14 1.22,2.32 0.92,2.43 0.62,2.55 0.31,2.58 -0.00,2.62 -0.00,2.62 L 0,2.62 Z"></path></g><g transform="translate(234 215.028564453125) rotate(0 -5.028594970703125 2.28570556640625)" stroke="none"><path fill="#1e1e1e" d="M -0.64,2.56 Q -0.64,2.56 -1.69,2.32 -2.75,2.08 -4.04,2.03 -5.33,1.97 -6.63,2.55 -7.92,3.14 -7.72,2.04 -7.52,0.94 -6.69,1.64 -5.86,2.33 -5.95,0.50 -6.05,-1.32 -5.73,-1.59 -5.41,-1.86 -5.04,-2.05 -4.66,-2.24 -4.25,-2.33 -3.84,-2.42 -3.43,-2.41 -3.01,-2.40 -2.60,-2.29 -2.20,-2.19 -1.83,-1.98 -1.46,-1.78 -1.15,-1.50 -0.85,-1.21 -0.62,-0.86 -0.38,-0.51 -0.24,-0.12 -0.10,0.26 -0.06,0.68 -0.02,1.10 -0.08,1.51 -0.14,1.93 -0.29,2.32 -0.45,2.71 -0.69,3.05 -0.94,3.39 -3.66,3.18 -6.37,2.98 -6.61,2.47 -6.84,1.96 -6.91,1.40 -6.97,0.84 -6.84,0.29 -6.72,-0.25 -6.43,-0.73 -6.14,-1.21 -5.71,-1.58 -5.28,-1.94 -4.76,-2.15 -4.24,-2.36 -3.68,-2.39 -3.12,-2.42 -2.57,-2.27 -2.03,-2.12 -1.57,-1.80 -1.10,-1.48 -0.76,-1.04 -0.42,-0.59 -0.24,-0.05 -0.06,0.47 -0.06,1.03 -0.06,1.59 -0.24,2.13 -0.42,2.66 -0.76,3.11 -1.10,3.56 -1.57,3.87 -2.04,4.19 -2.58,4.34 -3.12,4.49 -3.68,4.46 -4.24,4.42 -4.77,4.22 -5.29,4.01 -5.72,3.64 -6.15,3.28 -6.44,2.80 -6.73,2.31 -6.85,1.76 -6.97,1.22 -6.90,0.66 -6.84,0.10 -6.61,-0.40 -6.37,-0.91 -5.98,-1.32 -5.60,-1.73 -5.10,-1.99 -4.60,-2.26 -4.05,-2.35 -3.49,-2.44 -2.94,-2.35 -2.38,-2.25 -1.88,-1.99 -1.39,-1.73 -3.72,-1.52 -6.05,-1.32 -5.73,-1.59 -5.41,-1.86 -5.04,-2.05 -4.66,-2.24 -4.25,-2.33 -3.85,-2.42 -3.43,-2.41 -3.01,-2.40 -2.60,-2.29 -2.20,-2.19 -1.83,-1.98 -1.46,-1.78 -1.15,-1.50 -0.85,-1.21 -0.62,-0.86 -0.38,-0.52 -0.24,-0.12 -0.10,0.26 -0.06,0.68 -0.02,1.10 -0.08,1.51 -0.14,1.93 -0.29,2.32 -0.45,2.71 -0.69,3.05 -0.94,3.39 -1.04,5.19 -1.15,6.99 -2.16,7.65 -3.18,8.30 -4.29,8.58 -5.40,8.86 -6.78,8.62 -8.16,8.39 -9.34,7.17 -10.51,5.94 -11.46,4.65 -12.41,3.35 -11.84,1.03 -11.26,-1.28 -9.74,-2.38 -8.23,-3.48 -6.62,-3.57 -5.01,-3.66 -3.23,-3.40 -1.45,-3.13 -0.40,-2.84 0.64,-2.56 0.93,-2.44 1.23,-2.33 1.49,-2.15 1.75,-1.97 1.96,-1.73 2.17,-1.49 2.32,-1.21 2.47,-0.92 2.54,-0.61 2.62,-0.30 2.62,0.00 2.61,0.32 2.54,0.63 2.46,0.94 2.31,1.22 2.16,1.50 1.95,1.74 1.74,1.98 1.48,2.16 1.21,2.34 0.92,2.45 0.62,2.56 0.30,2.60 -0.00,2.63 -0.32,2.60 -0.64,2.56 -0.64,2.56 L -0.64,2.56 Z"></path></g><g transform="translate(279.71429443359375 215.94284057617188) rotate(0 -1.82861328125 2.2857208251953125)" stroke="none"><path fill="#1e1e1e" d="M 0,2.62 Q 0,2.62 -0.95,2.62 -1.91,2.62 -0.82,1.95 0.27,1.28 0.68,0.41 1.08,-0.45 1.48,-0.39 1.87,-0.34 2.24,-0.20 2.61,-0.05 2.93,0.16 3.26,0.39 3.52,0.69 3.78,0.99 3.96,1.34 4.14,1.70 4.23,2.08 4.33,2.47 4.32,2.87 4.32,3.26 4.22,3.65 4.12,4.03 3.93,4.38 3.75,4.73 3.48,5.03 3.21,5.32 2.89,5.55 2.56,5.77 2.18,5.91 1.81,6.04 1.42,6.09 1.02,6.13 -0.28,5.46 -1.59,4.80 -1.83,4.32 -2.07,3.85 -2.15,3.32 -2.23,2.79 -2.14,2.27 -2.04,1.74 -1.79,1.28 -1.53,0.81 -1.14,0.45 -0.75,0.09 -0.26,-0.12 0.21,-0.34 0.75,-0.39 1.28,-0.44 1.79,-0.32 2.31,-0.19 2.77,0.08 3.22,0.36 3.56,0.77 3.90,1.18 4.09,1.68 4.28,2.17 4.30,2.71 4.32,3.24 4.17,3.75 4.02,4.26 3.72,4.70 3.41,5.14 2.98,5.45 2.56,5.77 2.05,5.93 1.54,6.10 1.01,6.09 0.47,6.08 -0.02,5.90 -0.52,5.73 -0.94,5.40 -1.36,5.07 -1.65,4.62 -1.95,4.18 -2.08,3.66 -2.22,3.15 -2.18,2.62 -2.14,2.09 -1.94,1.59 -1.74,1.10 -1.39,0.70 -1.03,0.30 -0.57,0.03 -0.11,-0.23 0.40,-0.34 0.92,-0.44 1.45,-0.38 1.98,-0.31 2.46,-0.08 2.94,0.14 2.01,-0.15 1.08,-0.45 1.48,-0.39 1.87,-0.34 2.24,-0.20 2.61,-0.05 2.93,0.16 3.26,0.39 3.52,0.69 3.78,0.99 3.96,1.34 4.14,1.70 4.23,2.08 4.33,2.47 4.32,2.87 4.32,3.26 4.22,3.65 4.12,4.03 3.93,4.38 3.75,4.73 3.48,5.03 3.21,5.32 2.89,5.55 2.56,5.77 2.18,5.91 1.81,6.04 1.42,6.09 1.02,6.13 0.62,6.99 0.21,7.84 -1.31,7.74 -2.84,7.64 -4.21,6.80 -5.59,5.96 -6.66,4.98 -7.73,3.99 -7.79,2.44 -7.85,0.89 -7.20,0.01 -6.56,-0.87 -5.46,-1.36 -4.36,-1.86 -3.32,-2.24 -2.29,-2.62 -1.14,-2.62 0,-2.62 0.31,-2.58 0.62,-2.54 0.92,-2.43 1.21,-2.32 1.48,-2.14 1.74,-1.96 1.95,-1.72 2.15,-1.49 2.30,-1.21 2.45,-0.93 2.52,-0.62 2.60,-0.31 2.60,0.00 2.60,0.31 2.52,0.62 2.45,0.93 2.30,1.21 2.15,1.49 1.94,1.72 1.74,1.96 1.47,2.14 1.21,2.32 0.92,2.43 0.62,2.54 0.31,2.58 -0.00,2.62 -0.00,2.62 L 0,2.62 Z"></path></g><g transform="translate(333.65716552734375 216.85711669921875) rotate(0 -1.37152099609375 1.828582763671875)" stroke="none"><path fill="#1e1e1e" d="M -0.83,2.49 Q -0.83,2.49 -1.63,2.27 -2.43,2.04 -1.56,1.34 -0.69,0.64 -0.76,2.21 -0.83,3.78 -1.63,2.45 -2.43,1.12 -2.96,1.41 -3.49,1.70 -4.05,1.59 -4.61,1.48 -5.10,1.19 -5.60,0.91 -5.97,0.48 -6.35,0.06 -6.58,-0.46 -6.80,-0.98 -6.84,-1.55 -6.88,-2.12 -6.74,-2.67 -6.60,-3.23 -6.29,-3.70 -5.98,-4.18 -5.54,-4.54 -5.09,-4.89 -4.55,-5.09 -4.02,-5.28 -3.45,-5.29 -2.88,-5.30 -2.33,-5.13 -1.79,-4.96 -1.33,-4.63 -0.86,-4.29 -0.53,-3.83 -0.20,-3.36 -0.04,-2.82 0.11,-2.27 0.10,-1.70 0.08,-1.13 -0.11,-0.60 -0.31,-0.06 -0.67,0.37 -1.03,0.81 -1.52,1.12 -2.00,1.42 -2.55,1.56 -3.11,1.69 -3.67,1.64 -4.24,1.59 -4.77,1.36 -5.29,1.13 -5.71,0.75 -6.13,0.37 -6.41,-0.12 -6.69,-0.62 -6.79,-1.18 -6.90,-1.74 -6.82,-2.30 -6.74,-2.87 -6.48,-3.38 -6.22,-3.89 -5.82,-4.29 -5.41,-4.69 -4.90,-4.94 -4.39,-5.19 -3.82,-5.26 -3.26,-5.34 -3.26,-5.34 -3.26,-5.34 0.05,-3.73 3.37,-2.12 3.82,-0.55 4.27,1.00 4.40,2.93 4.52,4.86 3.37,5.50 2.22,6.14 0.57,6.96 -1.07,7.79 -2.92,7.90 -4.78,8.00 -5.55,7.07 -6.33,6.14 -6.72,5.07 -7.12,4.00 -7.31,2.46 -7.50,0.92 -6.98,-0.61 -6.47,-2.16 -5.48,-2.73 -4.49,-3.31 -2.60,-3.20 -0.72,-3.09 0.05,-2.79 0.83,-2.49 1.11,-2.36 1.40,-2.22 1.65,-2.02 1.89,-1.82 2.08,-1.57 2.27,-1.31 2.40,-1.02 2.52,-0.73 2.57,-0.42 2.62,-0.10 2.60,0.20 2.57,0.52 2.47,0.82 2.37,1.12 2.20,1.39 2.03,1.66 1.81,1.88 1.58,2.10 1.30,2.26 1.03,2.42 0.72,2.50 0.42,2.59 0.10,2.61 -0.21,2.62 -0.52,2.55 -0.83,2.49 -0.83,2.49 L -0.83,2.49 Z"></path></g><g transform="translate(388.51422119140625 220.5142822265625) rotate(0 -1.82855224609375 0.457122802734375)" stroke="none"><path fill="#1e1e1e" d="M 0,2.62 Q 0,2.62 -1.05,2.65 -2.10,2.68 -2.66,1.34 -3.21,0.01 -2.38,-0.65 -1.54,-1.32 -1.48,-1.12 -1.42,-0.91 -1.29,-1.42 -1.16,-1.93 -0.88,-2.37 -0.60,-2.81 -0.19,-3.14 0.21,-3.47 0.70,-3.65 1.20,-3.83 1.72,-3.84 2.24,-3.85 2.74,-3.70 3.25,-3.54 3.67,-3.24 4.10,-2.93 4.40,-2.50 4.71,-2.08 4.86,-1.58 5.01,-1.08 5.00,-0.55 4.98,-0.03 4.80,0.45 4.62,0.94 4.29,1.35 3.96,1.76 3.52,2.04 3.08,2.32 2.57,2.45 2.06,2.57 1.54,2.53 1.01,2.49 0.53,2.28 0.05,2.07 -0.33,1.72 -0.72,1.37 -0.97,0.91 -1.23,0.46 -1.33,-0.05 -1.43,-0.56 -1.35,-1.08 -1.28,-1.60 -1.05,-2.07 -0.82,-2.54 -0.44,-2.91 -0.07,-3.28 0.39,-3.51 0.86,-3.74 1.38,-3.81 1.90,-3.88 2.41,-3.78 2.92,-3.68 3.38,-3.42 3.84,-3.16 4.18,-2.77 4.53,-2.38 4.74,-1.90 4.95,-1.42 4.99,-0.90 5.03,-0.38 5.03,-0.38 5.03,-0.38 2.63,2.33 0.23,5.04 -1.16,4.98 -2.56,4.91 -3.65,4.80 -4.74,4.69 -6.09,3.61 -7.45,2.53 -7.39,0.62 -7.33,-1.28 -6.33,-1.90 -5.33,-2.52 -3.71,-2.60 -2.10,-2.68 -1.05,-2.65 0,-2.62 0.31,-2.58 0.62,-2.54 0.92,-2.43 1.21,-2.32 1.47,-2.14 1.73,-1.96 1.94,-1.72 2.15,-1.49 2.30,-1.21 2.45,-0.93 2.52,-0.62 2.60,-0.31 2.60,0.00 2.60,0.31 2.52,0.62 2.45,0.93 2.30,1.21 2.15,1.49 1.94,1.72 1.73,1.96 1.47,2.14 1.21,2.32 0.92,2.43 0.62,2.54 0.31,2.58 -0.00,2.62 -0.00,2.62 L 0,2.62 Z"></path></g><g transform="translate(108.74285888671875 35.82855224609375) rotate(0 9.5999755859375 0)" stroke="none"><path fill="#1e1e1e" d="M 0,-2.55 Q 0,-2.55 1.57,-2.52 3.14,-2.49 4.70,-2.68 6.26,-2.87 7.83,-2.76 9.40,-2.64 11.33,-2.64 13.25,-2.64 14.46,-2.70 15.66,-2.77 18.48,-1.84 21.30,-0.92 21.51,-0.52 21.72,-0.12 21.79,0.32 21.86,0.76 21.79,1.21 21.71,1.65 21.50,2.05 21.28,2.45 20.95,2.76 20.62,3.07 20.21,3.25 19.80,3.44 19.35,3.49 18.90,3.53 18.46,3.43 18.02,3.33 17.64,3.10 17.25,2.86 16.96,2.51 16.67,2.17 16.50,1.75 16.34,1.33 16.32,0.88 16.30,0.42 16.42,-0.00 16.54,-0.43 16.80,-0.81 17.06,-1.18 17.42,-1.45 17.78,-1.72 18.21,-1.86 18.64,-2.00 19.09,-2.00 19.54,-2.00 19.97,-1.85 20.39,-1.70 20.75,-1.43 21.11,-1.15 21.36,-0.78 21.61,-0.40 21.73,0.02 21.85,0.46 21.82,0.91 21.79,1.36 21.62,1.78 21.45,2.20 21.16,2.54 20.86,2.88 20.48,3.11 20.09,3.34 19.65,3.44 19.20,3.53 18.76,3.48 18.31,3.43 17.90,3.24 17.49,3.05 17.16,2.73 16.84,2.42 16.84,2.42 16.84,2.42 15.66,2.54 14.49,2.67 12.78,2.54 11.08,2.42 9.00,2.12 6.93,1.82 5.04,2.15 3.15,2.49 1.57,2.52 0,2.55 -0.30,2.51 -0.61,2.47 -0.89,2.36 -1.18,2.25 -1.43,2.08 -1.69,1.91 -1.89,1.68 -2.10,1.44 -2.24,1.17 -2.38,0.90 -2.46,0.60 -2.53,0.30 -2.53,-0.00 -2.53,-0.30 -2.46,-0.60 -2.38,-0.90 -2.24,-1.17 -2.10,-1.45 -1.89,-1.68 -1.69,-1.91 -1.43,-2.08 -1.18,-2.26 -0.89,-2.36 -0.61,-2.47 -0.30,-2.51 0.00,-2.55 0.00,-2.55 L 0,-2.55 Z"></path></g><g transform="translate(113.31427001953125 54.1142578125) rotate(0 6.399993896484375 -2.28570556640625)" stroke="none"><path fill="#1e1e1e" d="M -2.11,-1.58 Q -2.11,-1.58 -1.32,-2.63 -0.53,-3.68 0.94,-5.11 2.42,-6.54 3.89,-6.96 5.37,-7.38 6.90,-7.50 8.43,-7.62 10.47,-7.66 12.51,-7.70 13.01,-7.62 13.51,-7.53 13.95,-7.30 14.40,-7.06 14.75,-6.69 15.10,-6.32 15.31,-5.86 15.52,-5.40 15.58,-4.90 15.63,-4.40 15.53,-3.90 15.42,-3.41 15.16,-2.97 14.89,-2.54 14.51,-2.21 14.12,-1.88 13.65,-1.70 13.18,-1.51 12.68,-1.48 12.17,-1.45 11.68,-1.59 11.19,-1.72 10.77,-2.01 10.35,-2.29 10.05,-2.70 9.74,-3.10 9.58,-3.58 9.42,-4.06 9.42,-4.57 9.42,-5.07 9.58,-5.55 9.74,-6.03 10.05,-6.44 10.35,-6.84 10.77,-7.12 11.19,-7.41 11.68,-7.54 12.17,-7.68 12.67,-7.65 13.18,-7.62 13.65,-7.44 14.12,-7.25 14.51,-6.92 14.89,-6.59 15.16,-6.16 15.42,-5.73 15.53,-5.23 15.63,-4.74 15.58,-4.23 15.53,-3.73 15.31,-3.27 15.10,-2.81 14.75,-2.44 14.40,-2.07 13.96,-1.84 13.51,-1.60 13.01,-1.52 12.51,-1.43 12.51,-1.43 12.51,-1.43 10.50,-1.47 8.49,-1.50 7.26,-1.55 6.04,-1.59 4.86,-1.05 3.69,-0.51 2.90,0.53 2.11,1.58 1.89,1.81 1.67,2.04 1.40,2.21 1.13,2.38 0.83,2.48 0.53,2.58 0.21,2.61 -0.10,2.63 -0.41,2.58 -0.73,2.53 -1.02,2.41 -1.31,2.28 -1.57,2.09 -1.82,1.90 -2.02,1.65 -2.22,1.41 -2.36,1.12 -2.50,0.83 -2.56,0.52 -2.63,0.21 -2.61,-0.10 -2.60,-0.42 -2.51,-0.72 -2.42,-1.03 -2.27,-1.30 -2.11,-1.58 -2.11,-1.58 L -2.11,-1.58 Z"></path></g><g transform="translate(140.74285888671875 23.714263916015625) rotate(0 1.37139892578125 12.800003051757812)" stroke="none"><path fill="#1e1e1e" d="M 2.35,0 Q 2.35,0 2.22,2.10 2.09,4.20 2.09,5.88 2.08,7.57 1.98,9.86 1.88,12.15 1.95,13.39 2.03,14.62 2.08,15.93 2.14,17.24 2.42,18.38 2.70,19.51 3.53,21.66 4.36,23.81 4.57,24.14 4.77,24.47 4.86,24.85 4.95,25.23 4.91,25.61 4.87,26.00 4.71,26.35 4.56,26.71 4.29,26.99 4.03,27.28 3.69,27.46 3.35,27.65 2.97,27.72 2.58,27.78 2.20,27.73 1.82,27.67 1.47,27.49 1.13,27.31 0.86,27.03 0.59,26.75 0.42,26.40 0.25,26.05 0.20,25.67 0.16,25.28 0.24,24.90 0.32,24.52 0.51,24.19 0.71,23.85 1.00,23.60 1.29,23.34 1.65,23.20 2.01,23.05 2.40,23.02 2.79,23.00 3.16,23.10 3.54,23.20 3.86,23.41 4.18,23.62 4.42,23.93 4.66,24.24 4.79,24.60 4.92,24.97 4.92,25.36 4.93,25.74 4.81,26.11 4.69,26.48 4.46,26.79 4.22,27.11 3.91,27.33 3.59,27.55 3.21,27.66 2.84,27.77 2.45,27.75 2.07,27.73 1.70,27.59 1.34,27.45 1.04,27.21 0.74,26.96 0.74,26.96 0.74,26.96 -0.05,24.77 -0.86,22.57 -1.25,21.48 -1.64,20.38 -1.89,18.82 -2.14,17.26 -2.08,15.94 -2.03,14.62 -1.95,13.39 -1.88,12.15 -1.98,9.86 -2.08,7.57 -2.09,5.88 -2.09,4.20 -2.22,2.10 -2.35,0 -2.31,-0.28 -2.28,-0.56 -2.18,-0.82 -2.08,-1.09 -1.92,-1.32 -1.76,-1.55 -1.54,-1.74 -1.33,-1.93 -1.08,-2.06 -0.83,-2.19 -0.55,-2.26 -0.28,-2.33 0.00,-2.33 0.28,-2.33 0.55,-2.26 0.83,-2.19 1.08,-2.06 1.33,-1.93 1.54,-1.74 1.76,-1.55 1.92,-1.32 2.08,-1.09 2.18,-0.82 2.28,-0.56 2.31,-0.28 2.35,0.00 2.35,0.00 L 2.35,0 Z"></path></g><g transform="translate(150.79998779296875 26.457122802734375) rotate(0 0 8.22857666015625)" stroke="none"><path fill="#1e1e1e" d="M 2.07,0 Q 2.07,0 1.97,3.68 1.86,7.36 1.95,11.08 2.03,14.81 1.98,15.13 1.93,15.46 1.77,15.75 1.62,16.04 1.38,16.27 1.14,16.50 0.84,16.63 0.54,16.77 0.21,16.81 -0.11,16.84 -0.43,16.77 -0.75,16.70 -1.03,16.53 -1.31,16.36 -1.53,16.11 -1.74,15.86 -1.86,15.55 -1.98,15.25 -2.00,14.92 -2.02,14.59 -1.93,14.27 -1.84,13.95 -1.66,13.68 -1.47,13.41 -1.21,13.21 -0.95,13.01 -0.64,12.90 -0.32,12.80 0.00,12.80 0.32,12.80 0.64,12.90 0.95,13.01 1.21,13.21 1.47,13.41 1.66,13.68 1.84,13.95 1.93,14.27 2.02,14.59 2.00,14.92 1.98,15.25 1.86,15.55 1.74,15.86 1.53,16.11 1.31,16.36 1.03,16.53 0.75,16.70 0.43,16.77 0.10,16.84 -0.21,16.81 -0.54,16.77 -0.84,16.63 -1.14,16.49 -1.38,16.27 -1.62,16.04 -1.77,15.75 -1.93,15.46 -1.98,15.13 -2.03,14.81 -2.03,14.81 -2.03,14.81 -1.95,11.08 -1.86,7.36 -1.97,3.68 -2.07,0 -2.04,-0.24 -2.01,-0.49 -1.92,-0.72 -1.83,-0.96 -1.69,-1.16 -1.55,-1.37 -1.36,-1.53 -1.17,-1.70 -0.95,-1.82 -0.73,-1.93 -0.49,-1.99 -0.24,-2.05 0.00,-2.05 0.24,-2.05 0.49,-1.99 0.73,-1.93 0.95,-1.82 1.17,-1.70 1.36,-1.53 1.55,-1.37 1.69,-1.16 1.83,-0.96 1.92,-0.72 2.01,-0.49 2.04,-0.24 2.07,0.00 2.07,0.00 L 2.07,0 Z"></path></g><g transform="translate(139.82855224609375 21.8857421875) rotate(0 11.428558349609375 4.571380615234375)" stroke="none"><path fill="#1e1e1e" d="M 0,-2.57 Q 0,-2.57 1.30,-2.57 2.61,-2.58 5.40,-2.90 8.19,-3.22 9.94,-3.38 11.69,-3.53 13.66,-3.29 15.63,-3.06 16.68,-2.57 17.73,-2.08 18.63,-1.14 19.52,-0.21 20.92,0.68 22.31,1.58 23.84,3.01 25.36,4.44 25.67,5.87 25.97,7.30 25.59,8.59 25.21,9.88 24.03,11.03 22.84,12.17 21.55,12.54 20.25,12.91 17.75,13.09 15.25,13.28 14.73,13.22 14.20,13.15 13.73,12.93 13.25,12.71 12.87,12.34 12.49,11.98 12.25,11.51 12.01,11.04 11.93,10.52 11.85,10.00 11.94,9.49 12.03,8.97 12.27,8.51 12.52,8.04 12.91,7.68 13.29,7.33 13.77,7.11 14.25,6.89 14.77,6.84 15.30,6.79 15.81,6.90 16.32,7.02 16.77,7.30 17.22,7.57 17.56,7.97 17.89,8.38 18.09,8.87 18.28,9.36 18.30,9.88 18.32,10.41 18.18,10.91 18.04,11.42 17.74,11.85 17.44,12.28 17.02,12.60 16.60,12.91 16.10,13.08 15.60,13.24 15.07,13.24 14.55,13.23 14.05,13.06 13.55,12.89 13.14,12.57 12.72,12.25 12.43,11.81 12.14,11.37 12.00,10.86 11.86,10.36 11.90,9.83 11.93,9.31 12.13,8.82 12.33,8.33 12.67,7.93 13.01,7.54 13.47,7.27 13.92,7.00 14.43,6.89 14.95,6.78 14.95,6.78 14.95,6.78 17.34,6.80 19.74,6.81 18.78,5.89 17.81,4.96 16.03,3.63 14.24,2.29 13.04,2.03 11.84,1.76 10.17,1.74 8.50,1.72 6.95,1.88 5.41,2.03 4.02,2.31 2.64,2.58 1.32,2.57 0,2.57 -0.30,2.53 -0.61,2.49 -0.90,2.38 -1.19,2.27 -1.45,2.10 -1.70,1.92 -1.91,1.69 -2.11,1.46 -2.26,1.18 -2.40,0.91 -2.47,0.61 -2.55,0.30 -2.55,-0.00 -2.55,-0.31 -2.47,-0.61 -2.40,-0.91 -2.26,-1.18 -2.11,-1.46 -1.91,-1.69 -1.70,-1.92 -1.44,-2.10 -1.19,-2.27 -0.90,-2.38 -0.61,-2.49 -0.30,-2.53 0.00,-2.57 0.00,-2.57 L 0,-2.57 Z"></path></g><g transform="translate(185.5428466796875 16.399993896484375) rotate(0 -5.4857177734375 16.914276123046875)" stroke="none"><path fill="#1e1e1e" d="M 1.63,1.63 Q 1.63,1.63 -0.03,3.11 -1.70,4.60 -2.90,5.79 -4.09,6.98 -5.02,8.37 -5.96,9.76 -7.28,11.28 -8.60,12.80 -9.28,13.90 -9.96,15.00 -10.54,16.75 -11.12,18.49 -11.14,19.85 -11.16,21.20 -11.17,22.41 -11.18,23.62 -9.64,25.51 -8.09,27.39 -7.14,28.21 -6.19,29.03 -4.75,29.94 -3.31,30.84 -1.99,30.93 -0.66,31.01 0.91,31.06 2.49,31.11 2.92,31.19 3.35,31.27 3.74,31.48 4.12,31.69 4.41,32.02 4.71,32.34 4.89,32.74 5.06,33.14 5.10,33.58 5.14,34.02 5.04,34.44 4.93,34.87 4.70,35.24 4.47,35.61 4.13,35.89 3.79,36.17 3.38,36.32 2.97,36.47 2.53,36.49 2.09,36.51 1.67,36.38 1.25,36.25 0.89,36.00 0.54,35.75 0.28,35.39 0.02,35.04 -0.10,34.62 -0.24,34.20 -0.23,33.76 -0.22,33.33 -0.07,32.91 0.07,32.50 0.34,32.16 0.61,31.81 0.98,31.58 1.35,31.34 1.77,31.23 2.20,31.12 2.63,31.15 3.07,31.18 3.48,31.35 3.88,31.52 4.21,31.81 4.54,32.10 4.75,32.48 4.97,32.86 5.06,33.29 5.14,33.72 5.09,34.16 5.03,34.59 4.84,34.99 4.65,35.38 4.34,35.69 4.03,36.01 3.64,36.20 3.25,36.40 2.82,36.46 2.38,36.53 2.38,36.53 2.38,36.53 -0.41,36.21 -3.22,35.90 -4.79,35.35 -6.37,34.80 -7.84,33.64 -9.31,32.47 -10.19,31.61 -11.06,30.74 -12.98,29.05 -14.91,27.35 -15.54,25.52 -16.18,23.68 -16.15,22.26 -16.12,20.84 -15.83,19.26 -15.55,17.68 -14.43,15.19 -13.31,12.70 -12.42,11.51 -11.53,10.33 -10.39,8.95 -9.26,7.57 -8.13,5.83 -7.00,4.10 -5.80,2.90 -4.60,1.70 -3.11,0.03 -1.63,-1.63 -1.41,-1.80 -1.19,-1.97 -0.93,-2.08 -0.68,-2.20 -0.41,-2.25 -0.13,-2.30 0.13,-2.28 0.41,-2.26 0.68,-2.18 0.94,-2.10 1.18,-1.95 1.42,-1.81 1.61,-1.61 1.81,-1.42 1.95,-1.18 2.10,-0.94 2.18,-0.68 2.26,-0.41 2.28,-0.13 2.30,0.13 2.25,0.41 2.20,0.68 2.08,0.93 1.97,1.19 1.80,1.41 1.63,1.63 1.63,1.63 L 1.63,1.63 Z"></path></g><g transform="translate(202 14.5714111328125) rotate(0 10.05712890625 15.085708618164062)" stroke="none"><path fill="#1e1e1e" d="M 1.91,-0.95 Q 1.91,-0.95 2.68,0.62 3.45,2.21 4.44,3.88 5.43,5.54 6.42,7.06 7.42,8.58 8.19,9.76 8.95,10.95 10.16,12.73 11.37,14.51 12.46,16.44 13.54,18.37 14.31,19.30 15.08,20.24 16.33,21.73 17.58,23.22 19.68,25.75 21.77,28.28 21.93,28.64 22.10,29.00 22.14,29.39 22.18,29.78 22.09,30.16 22.00,30.54 21.79,30.88 21.59,31.22 21.29,31.47 20.98,31.72 20.62,31.86 20.25,32.00 19.86,32.02 19.47,32.04 19.09,31.93 18.71,31.82 18.39,31.60 18.06,31.38 17.83,31.06 17.59,30.75 17.47,30.37 17.35,30.00 17.35,29.61 17.35,29.21 17.48,28.84 17.61,28.47 17.85,28.16 18.09,27.85 18.42,27.63 18.75,27.41 19.13,27.31 19.51,27.21 19.90,27.23 20.29,27.26 20.66,27.41 21.02,27.55 21.32,27.81 21.62,28.07 21.82,28.41 22.01,28.75 22.10,29.13 22.18,29.52 22.13,29.91 22.09,30.30 21.92,30.65 21.75,31.01 21.48,31.29 21.20,31.57 20.85,31.75 20.51,31.94 20.12,32.00 19.73,32.06 19.34,31.99 18.95,31.92 18.61,31.74 18.26,31.55 17.99,31.26 17.73,30.97 17.73,30.97 17.73,30.97 15.78,28.25 13.83,25.53 12.92,23.96 12.01,22.40 11.32,21.26 10.63,20.12 9.52,18.41 8.42,16.70 6.94,14.85 5.45,13.01 4.84,11.85 4.24,10.68 3.22,9.16 2.21,7.64 0.95,5.87 -0.29,4.09 -1.10,2.52 -1.91,0.95 -2.00,0.71 -2.08,0.47 -2.11,0.21 -2.13,-0.04 -2.10,-0.29 -2.06,-0.55 -1.97,-0.79 -1.87,-1.03 -1.72,-1.24 -1.57,-1.45 -1.37,-1.61 -1.18,-1.78 -0.94,-1.90 -0.71,-2.01 -0.46,-2.07 -0.21,-2.12 0.04,-2.12 0.29,-2.11 0.54,-2.05 0.79,-1.98 1.02,-1.86 1.25,-1.73 1.43,-1.56 1.62,-1.38 1.77,-1.17 1.91,-0.95 1.91,-0.95 L 1.91,-0.95 Z"></path></g><g transform="translate(221.199951171875 15.485687255859375) rotate(0 -10.971405029296875 15.085723876953125)" stroke="none"><path fill="#1e1e1e" d="M 0.87,2.04 Q 0.87,2.04 -0.99,2.75 -2.86,3.46 -4.35,4.26 -5.83,5.05 -6.86,6.87 -7.89,8.68 -8.80,10.37 -9.72,12.06 -10.66,13.64 -11.60,15.23 -12.33,16.12 -13.07,17.01 -14.20,17.93 -15.33,18.84 -15.96,20.36 -16.59,21.88 -17.40,23.05 -18.20,24.22 -18.61,25.33 -19.02,26.43 -19.04,28.17 -19.07,29.91 -19.15,30.37 -19.23,30.83 -19.45,31.24 -19.67,31.64 -20.01,31.96 -20.36,32.27 -20.78,32.46 -21.20,32.65 -21.67,32.69 -22.13,32.74 -22.58,32.63 -23.03,32.53 -23.43,32.28 -23.82,32.04 -24.12,31.68 -24.41,31.32 -24.58,30.89 -24.74,30.46 -24.76,29.99 -24.78,29.53 -24.65,29.08 -24.52,28.64 -24.26,28.26 -23.99,27.88 -23.62,27.60 -23.24,27.32 -22.80,27.18 -22.36,27.04 -21.90,27.05 -21.43,27.05 -20.99,27.21 -20.56,27.36 -20.19,27.65 -19.82,27.93 -19.57,28.32 -19.31,28.71 -19.20,29.16 -19.08,29.60 -19.11,30.07 -19.14,30.53 -19.32,30.96 -19.50,31.39 -19.80,31.74 -20.11,32.09 -20.51,32.32 -20.91,32.56 -21.36,32.65 -21.82,32.74 -22.28,32.69 -22.74,32.63 -23.16,32.43 -23.58,32.23 -23.91,31.90 -24.24,31.58 -24.45,31.17 -24.67,30.76 -24.73,30.30 -24.80,29.84 -24.80,29.84 -24.80,29.84 -24.55,27.32 -24.30,24.79 -23.44,23.08 -22.58,21.37 -21.33,19.75 -20.09,18.13 -19.09,16.74 -18.09,15.35 -16.55,14.27 -15.00,13.18 -14.15,11.72 -13.30,10.26 -12.48,8.50 -11.65,6.75 -10.66,4.88 -9.67,3.00 -8.73,2.27 -7.80,1.53 -6.14,0.61 -4.49,-0.31 -2.68,-1.18 -0.87,-2.04 -0.62,-2.12 -0.36,-2.19 -0.09,-2.21 0.17,-2.22 0.43,-2.16 0.70,-2.11 0.94,-2.00 1.18,-1.88 1.39,-1.71 1.60,-1.54 1.76,-1.33 1.92,-1.11 2.03,-0.87 2.14,-0.62 2.18,-0.35 2.22,-0.09 2.20,0.17 2.18,0.44 2.10,0.69 2.01,0.95 1.87,1.17 1.72,1.40 1.53,1.59 1.34,1.77 1.11,1.91 0.87,2.04 0.87,2.04 L 0.87,2.04 Z"></path></g><g transform="translate(239.48565673828125 25.5428466796875) rotate(0 6.4000244140625 3.1999969482421875)" stroke="none"><path fill="#1e1e1e" d="M 1.26,-1.90 Q 1.26,-1.90 2.80,-0.79 4.33,0.30 6.95,1.36 9.58,2.42 11.31,3.19 13.05,3.95 13.36,4.16 13.66,4.37 13.89,4.68 14.11,4.98 14.23,5.33 14.34,5.69 14.34,6.07 14.33,6.44 14.21,6.80 14.08,7.15 13.85,7.45 13.62,7.74 13.31,7.95 13.00,8.16 12.63,8.25 12.27,8.35 11.90,8.32 11.52,8.30 11.18,8.15 10.83,8.01 10.55,7.77 10.26,7.52 10.07,7.20 9.88,6.87 9.81,6.50 9.73,6.14 9.78,5.76 9.82,5.39 9.98,5.05 10.14,4.71 10.41,4.44 10.67,4.18 11.00,4.00 11.33,3.83 11.71,3.78 12.08,3.72 12.45,3.78 12.82,3.85 13.14,4.03 13.47,4.21 13.73,4.48 13.98,4.76 14.14,5.10 14.29,5.45 14.33,5.82 14.36,6.19 14.28,6.56 14.19,6.92 14.00,7.24 13.80,7.56 13.51,7.80 13.22,8.04 12.87,8.18 12.52,8.31 12.14,8.33 11.77,8.34 11.41,8.24 11.05,8.13 11.05,8.13 11.05,8.13 9.40,7.28 7.74,6.42 6.25,5.76 4.75,5.10 3.36,4.50 1.97,3.89 0.35,2.90 -1.26,1.90 -1.47,1.72 -1.68,1.54 -1.84,1.32 -2.00,1.09 -2.11,0.83 -2.21,0.58 -2.24,0.31 -2.28,0.03 -2.25,-0.23 -2.22,-0.51 -2.13,-0.77 -2.04,-1.03 -1.88,-1.25 -1.73,-1.48 -1.53,-1.67 -1.32,-1.86 -1.08,-1.99 -0.84,-2.12 -0.57,-2.19 -0.31,-2.26 -0.03,-2.27 0.23,-2.27 0.50,-2.21 0.77,-2.15 1.02,-2.02 1.26,-1.90 1.26,-1.90 L 1.26,-1.90 Z"></path></g><g transform="translate(233.085693359375 35.5999755859375) rotate(0 7.771453857421875 2.2857208251953125)" stroke="none"><path fill="#1e1e1e" d="M 0.28,-2.31 Q 0.28,-2.31 2.37,-1.91 4.46,-1.52 5.86,-1.45 7.27,-1.37 8.79,-0.74 10.31,-0.10 11.50,0.32 12.69,0.76 14.27,1.41 15.86,2.07 16.18,2.28 16.51,2.50 16.75,2.81 16.99,3.11 17.11,3.48 17.24,3.85 17.25,4.24 17.25,4.63 17.13,5.00 17.01,5.37 16.78,5.68 16.55,6.00 16.23,6.22 15.91,6.44 15.53,6.55 15.16,6.66 14.77,6.64 14.38,6.63 14.01,6.49 13.65,6.35 13.35,6.10 13.05,5.85 12.84,5.52 12.64,5.18 12.55,4.80 12.46,4.42 12.50,4.04 12.54,3.65 12.70,3.29 12.86,2.94 13.12,2.65 13.39,2.36 13.73,2.18 14.07,1.99 14.46,1.92 14.84,1.86 15.23,1.91 15.61,1.97 15.96,2.15 16.31,2.33 16.58,2.61 16.85,2.89 17.02,3.24 17.18,3.60 17.23,3.98 17.28,4.37 17.20,4.75 17.12,5.13 16.92,5.47 16.72,5.81 16.43,6.06 16.13,6.32 15.77,6.47 15.41,6.61 15.02,6.64 14.63,6.67 14.26,6.57 13.88,6.46 13.88,6.47 13.88,6.47 12.43,5.75 10.98,5.04 8.89,3.96 6.81,2.87 5.38,2.72 3.94,2.57 1.83,2.44 -0.28,2.31 -0.56,2.24 -0.83,2.17 -1.08,2.04 -1.33,1.91 -1.54,1.72 -1.74,1.53 -1.90,1.30 -2.06,1.07 -2.16,0.81 -2.26,0.54 -2.29,0.27 -2.33,-0.00 -2.29,-0.28 -2.26,-0.56 -2.16,-0.82 -2.05,-1.09 -1.89,-1.32 -1.73,-1.55 -1.52,-1.73 -1.31,-1.92 -1.06,-2.05 -0.81,-2.18 -0.54,-2.24 -0.27,-2.31 0.00,-2.31 0.28,-2.31 0.28,-2.31 L 0.28,-2.31 Z"></path></g><g transform="translate(264.17144775390625 31.942840576171875) rotate(0 11.88568115234375 7.3142852783203125)" stroke="none"><path fill="#1e1e1e" d="M 1.13,-1.89 Q 1.13,-1.89 2.45,-1.11 3.77,-0.33 5.15,0.54 6.52,1.42 8.68,3.25 10.84,5.09 13.19,6.60 15.54,8.11 16.99,9.36 18.45,10.60 19.67,11.21 20.89,11.82 22.35,12.19 23.81,12.57 24.12,12.69 24.42,12.81 24.67,13.02 24.92,13.23 25.09,13.51 25.25,13.79 25.32,14.11 25.39,14.43 25.36,14.76 25.32,15.08 25.19,15.38 25.05,15.67 24.82,15.91 24.60,16.15 24.31,16.30 24.02,16.45 23.70,16.50 23.38,16.56 23.05,16.50 22.73,16.45 22.44,16.30 22.15,16.14 21.93,15.91 21.70,15.67 21.57,15.37 21.43,15.08 21.40,14.75 21.36,14.43 21.43,14.11 21.50,13.79 21.67,13.51 21.84,13.23 22.09,13.02 22.34,12.81 22.64,12.69 22.95,12.56 23.27,12.55 23.60,12.53 23.91,12.62 24.23,12.71 24.50,12.89 24.77,13.07 24.97,13.33 25.16,13.59 25.27,13.90 25.37,14.21 25.37,14.54 25.37,14.87 25.27,15.18 25.16,15.49 24.96,15.75 24.76,16.01 24.49,16.19 24.22,16.37 23.91,16.46 23.59,16.55 23.27,16.53 22.94,16.51 22.94,16.51 22.94,16.51 20.97,15.85 19.00,15.19 17.52,14.28 16.03,13.37 14.85,12.29 13.66,11.20 11.03,9.71 8.39,8.22 6.26,6.70 4.12,5.17 2.80,4.33 1.47,3.49 0.17,2.69 -1.13,1.89 -1.34,1.73 -1.55,1.56 -1.72,1.36 -1.88,1.15 -1.99,0.90 -2.11,0.66 -2.15,0.40 -2.20,0.14 -2.19,-0.12 -2.17,-0.39 -2.09,-0.64 -2.02,-0.90 -1.88,-1.13 -1.74,-1.35 -1.55,-1.54 -1.37,-1.73 -1.14,-1.87 -0.91,-2.01 -0.66,-2.09 -0.40,-2.17 -0.13,-2.19 0.12,-2.20 0.38,-2.16 0.65,-2.11 0.89,-2.00 1.13,-1.89 1.13,-1.89 L 1.13,-1.89 Z"></path></g><g transform="translate(269.65716552734375 42) rotate(0 5.028564453125 -3.6571502685546875)" stroke="none"><path fill="#1e1e1e" d="M -1.12,-2.24 Q -1.12,-2.24 0.48,-2.97 2.08,-3.71 3.41,-4.77 4.75,-5.82 6.40,-7.51 8.04,-9.21 8.43,-9.41 8.82,-9.61 9.26,-9.67 9.70,-9.74 10.13,-9.66 10.56,-9.59 10.95,-9.37 11.33,-9.16 11.63,-8.84 11.93,-8.52 12.11,-8.11 12.29,-7.71 12.33,-7.28 12.37,-6.84 12.27,-6.41 12.17,-5.98 11.94,-5.61 11.71,-5.23 11.37,-4.95 11.03,-4.67 10.62,-4.51 10.21,-4.36 9.77,-4.34 9.33,-4.32 8.91,-4.44 8.49,-4.57 8.13,-4.82 7.76,-5.07 7.50,-5.42 7.24,-5.78 7.11,-6.20 6.97,-6.61 6.98,-7.05 6.98,-7.49 7.13,-7.91 7.27,-8.32 7.54,-8.67 7.82,-9.02 8.18,-9.26 8.55,-9.50 8.98,-9.61 9.40,-9.73 9.84,-9.70 10.28,-9.67 10.69,-9.50 11.09,-9.33 11.42,-9.04 11.76,-8.75 11.98,-8.37 12.20,-7.99 12.29,-7.56 12.38,-7.13 12.32,-6.69 12.27,-6.26 12.08,-5.86 11.89,-5.46 11.58,-5.15 11.28,-4.83 11.28,-4.83 11.28,-4.83 10.26,-3.84 9.23,-2.84 7.79,-1.76 6.35,-0.69 5.28,-0.06 4.22,0.55 2.67,1.40 1.12,2.24 0.83,2.34 0.55,2.45 0.25,2.48 -0.04,2.51 -0.34,2.46 -0.64,2.42 -0.92,2.31 -1.21,2.20 -1.45,2.02 -1.70,1.84 -1.89,1.61 -2.09,1.38 -2.23,1.11 -2.36,0.84 -2.43,0.54 -2.49,0.25 -2.49,-0.04 -2.48,-0.35 -2.40,-0.64 -2.33,-0.93 -2.18,-1.20 -2.03,-1.46 -1.83,-1.69 -1.62,-1.91 -1.37,-2.07 -1.12,-2.24 -1.12,-2.24 L -1.12,-2.24 Z"></path></g><g transform="translate(292.51422119140625 39.25714111328125) rotate(0 1.3714599609375 3.657135009765625)" stroke="none"><path fill="#1e1e1e" d="M 2.23,-0.89 Q 2.23,-0.89 2.77,0.41 3.30,1.72 4.07,3.77 4.84,5.81 4.93,6.20 5.02,6.60 4.98,7.01 4.94,7.41 4.77,7.78 4.61,8.15 4.33,8.45 4.05,8.75 3.69,8.94 3.34,9.13 2.94,9.20 2.54,9.27 2.13,9.21 1.73,9.15 1.37,8.96 1.01,8.77 0.73,8.48 0.45,8.19 0.27,7.82 0.10,7.45 0.05,7.05 0.00,6.65 0.09,6.25 0.17,5.85 0.38,5.50 0.58,5.15 0.89,4.88 1.20,4.62 1.57,4.46 1.95,4.31 2.36,4.28 2.76,4.26 3.16,4.36 3.55,4.47 3.89,4.69 4.22,4.92 4.47,5.24 4.72,5.56 4.86,5.95 4.99,6.33 4.99,6.74 5.00,7.14 4.87,7.53 4.74,7.92 4.50,8.24 4.26,8.57 3.92,8.80 3.59,9.03 3.20,9.14 2.81,9.26 2.40,9.24 1.99,9.22 1.62,9.07 1.24,8.92 0.92,8.66 0.61,8.40 0.40,8.06 0.19,7.71 0.19,7.71 0.19,7.71 -0.50,5.62 -1.20,3.52 -1.72,2.21 -2.23,0.89 -2.31,0.61 -2.38,0.33 -2.39,0.04 -2.39,-0.24 -2.33,-0.53 -2.27,-0.81 -2.13,-1.07 -2.00,-1.33 -1.82,-1.55 -1.63,-1.77 -1.39,-1.94 -1.15,-2.11 -0.88,-2.22 -0.61,-2.33 -0.33,-2.37 -0.04,-2.41 0.24,-2.38 0.53,-2.35 0.80,-2.25 1.08,-2.15 1.32,-1.99 1.56,-1.83 1.76,-1.61 1.96,-1.40 2.09,-1.15 2.23,-0.89 2.23,-0.89 L 2.23,-0.89 Z"></path></g><g transform="translate(293.42852783203125 26.457122802734375) rotate(0 0.00004999999999999449 0.00005000000000165983)" stroke="none"><path fill="#1e1e1e" d="M 1.57,-1.57 Q 1.57,-1.57 1.77,-1.27 1.98,-0.98 2.09,-0.64 2.20,-0.29 2.19,0.05 2.18,0.41 2.05,0.75 1.93,1.09 1.70,1.37 1.48,1.65 1.18,1.84 0.87,2.04 0.52,2.12 0.18,2.21 -0.17,2.18 -0.53,2.15 -0.86,2.01 -1.19,1.87 -1.46,1.63 -1.73,1.39 -1.90,1.07 -2.08,0.76 -2.15,0.41 -2.21,0.05 -2.17,-0.29 -2.12,-0.65 -1.96,-0.97 -1.80,-1.29 -1.54,-1.54 -1.29,-1.80 -0.97,-1.96 -0.65,-2.12 -0.29,-2.17 0.06,-2.21 0.41,-2.15 0.76,-2.08 1.07,-1.90 1.39,-1.73 1.63,-1.46 1.87,-1.19 2.01,-0.86 2.15,-0.53 2.18,-0.17 2.21,0.18 2.12,0.52 2.03,0.87 1.84,1.18 1.65,1.48 1.37,1.70 1.09,1.93 0.75,2.05 0.41,2.18 0.05,2.19 -0.30,2.20 -0.64,2.09 -0.98,1.98 -1.27,1.77 -1.57,1.56 -1.57,1.57 -1.57,1.57 -1.73,1.35 -1.90,1.14 -2.01,0.90 -2.12,0.66 -2.16,0.39 -2.21,0.13 -2.20,-0.13 -2.18,-0.40 -2.10,-0.65 -2.02,-0.91 -1.88,-1.14 -1.74,-1.36 -1.55,-1.55 -1.36,-1.74 -1.14,-1.88 -0.91,-2.02 -0.65,-2.10 -0.40,-2.18 -0.13,-2.20 0.13,-2.21 0.39,-2.16 0.66,-2.12 0.90,-2.01 1.14,-1.90 1.35,-1.73 1.57,-1.57 1.57,-1.57 L 1.57,-1.57 Z"></path></g><g transform="translate(308.05706787109375 10) rotate(0 0.45721435546875 21.028564453125)" stroke="none"><path fill="#1e1e1e" d="M 2.13,0 Q 2.13,0 2.02,2.36 1.91,4.73 1.91,6.51 1.90,8.29 2.37,9.86 2.84,11.42 3.32,13.27 3.79,15.12 3.96,18.17 4.12,21.22 4.24,22.99 4.36,24.75 4.48,26.04 4.61,27.32 4.78,28.74 4.96,30.16 4.93,31.85 4.91,33.53 3.98,35.25 3.06,36.97 2.41,38.21 1.75,39.44 1.27,40.78 0.78,42.12 0.63,42.51 0.48,42.89 0.21,43.21 -0.04,43.53 -0.40,43.75 -0.75,43.97 -1.16,44.06 -1.56,44.15 -1.98,44.11 -2.39,44.07 -2.77,43.90 -3.15,43.72 -3.46,43.44 -3.76,43.16 -3.96,42.79 -4.16,42.43 -4.23,42.01 -4.30,41.60 -4.23,41.19 -4.17,40.78 -3.98,40.41 -3.78,40.04 -3.48,39.76 -3.18,39.47 -2.81,39.29 -2.43,39.11 -2.02,39.06 -1.61,39.02 -1.20,39.10 -0.79,39.19 -0.43,39.40 -0.07,39.61 0.19,39.93 0.46,40.24 0.62,40.63 0.77,41.01 0.80,41.43 0.82,41.84 0.72,42.24 0.61,42.65 0.38,42.99 0.15,43.34 -0.17,43.59 -0.50,43.85 -0.90,43.98 -1.29,44.12 -1.70,44.12 -2.12,44.13 -2.52,44.00 -2.91,43.87 -3.24,43.62 -3.58,43.37 -3.81,43.03 -4.05,42.68 -4.16,42.28 -4.28,41.88 -4.26,41.47 -4.24,41.05 -4.24,41.05 -4.24,41.05 -3.08,38.43 -1.93,35.81 -0.68,34.47 0.56,33.13 0.53,31.67 0.50,30.21 0.63,28.82 0.76,27.43 0.81,26.18 0.85,24.93 0.80,23.19 0.74,21.46 0.49,18.76 0.25,16.05 -0.24,14.26 -0.74,12.46 -1.32,10.40 -1.90,8.34 -1.91,6.53 -1.91,4.73 -2.02,2.36 -2.13,0 -2.10,-0.25 -2.07,-0.51 -1.98,-0.75 -1.89,-0.99 -1.74,-1.20 -1.59,-1.41 -1.40,-1.58 -1.21,-1.75 -0.98,-1.87 -0.75,-1.99 -0.50,-2.05 -0.25,-2.11 0.00,-2.11 0.25,-2.11 0.50,-2.05 0.75,-1.99 0.98,-1.87 1.21,-1.75 1.40,-1.58 1.59,-1.41 1.74,-1.20 1.89,-0.99 1.98,-0.75 2.07,-0.51 2.10,-0.25 2.13,0.00 2.13,0.00 L 2.13,0 Z"></path></g><g transform="translate(117.88568115234375 303.4857177734375) rotate(0 0 3.657135009765625)" stroke="none"><path fill="#1e1e1e" d="M 2.28,0 Q 2.28,0 2.33,3.32 2.38,6.65 2.32,7.03 2.26,7.42 2.08,7.76 1.90,8.10 1.62,8.36 1.34,8.63 0.98,8.79 0.63,8.95 0.25,9.00 -0.12,9.04 -0.50,8.95 -0.88,8.87 -1.21,8.67 -1.54,8.47 -1.79,8.18 -2.04,7.88 -2.18,7.53 -2.33,7.17 -2.35,6.78 -2.37,6.39 -2.27,6.02 -2.16,5.65 -1.95,5.33 -1.73,5.01 -1.42,4.78 -1.11,4.54 -0.75,4.42 -0.38,4.30 0.00,4.30 0.38,4.30 0.75,4.42 1.11,4.54 1.42,4.78 1.73,5.01 1.95,5.33 2.16,5.65 2.27,6.02 2.37,6.40 2.35,6.78 2.33,7.17 2.18,7.53 2.04,7.88 1.79,8.18 1.54,8.47 1.21,8.67 0.88,8.87 0.50,8.96 0.12,9.04 -0.25,9.00 -0.63,8.95 -0.99,8.79 -1.34,8.63 -1.62,8.36 -1.90,8.10 -2.08,7.76 -2.26,7.41 -2.32,7.03 -2.38,6.65 -2.38,6.65 -2.38,6.65 -2.33,3.32 -2.28,0 -2.25,-0.27 -2.22,-0.54 -2.12,-0.80 -2.02,-1.06 -1.86,-1.29 -1.71,-1.51 -1.50,-1.70 -1.29,-1.88 -1.05,-2.01 -0.81,-2.13 -0.54,-2.20 -0.27,-2.27 0.00,-2.27 0.27,-2.27 0.54,-2.20 0.81,-2.13 1.05,-2.01 1.30,-1.88 1.50,-1.70 1.71,-1.51 1.86,-1.29 2.02,-1.06 2.12,-0.80 2.22,-0.54 2.25,-0.27 2.28,0.00 2.28,0.00 L 2.28,0 Z"></path></g><g transform="translate(183.7142333984375 301.6571044921875) rotate(0 0.4571533203125 4.114288330078125)" stroke="none"><path fill="#1e1e1e" d="M 2.39,0 Q 2.39,0 2.41,1.31 2.43,2.62 2.47,5.16 2.51,7.70 2.44,8.10 2.38,8.50 2.19,8.86 2.00,9.22 1.70,9.50 1.41,9.78 1.04,9.95 0.67,10.12 0.26,10.17 -0.13,10.21 -0.53,10.12 -0.93,10.03 -1.27,9.83 -1.62,9.62 -1.89,9.31 -2.15,9.00 -2.30,8.62 -2.45,8.24 -2.47,7.83 -2.50,7.43 -2.39,7.03 -2.28,6.64 -2.05,6.31 -1.82,5.97 -1.50,5.72 -1.17,5.48 -0.79,5.35 -0.40,5.22 0.00,5.22 0.40,5.22 0.79,5.35 1.17,5.48 1.50,5.72 1.82,5.97 2.05,6.31 2.28,6.64 2.39,7.04 2.50,7.43 2.47,7.83 2.45,8.24 2.30,8.62 2.15,9.00 1.89,9.31 1.62,9.62 1.27,9.83 0.93,10.04 0.53,10.12 0.13,10.21 -0.26,10.17 -0.67,10.12 -1.04,9.95 -1.41,9.78 -1.70,9.50 -2.00,9.22 -2.19,8.86 -2.38,8.50 -2.44,8.10 -2.51,7.70 -2.51,7.70 -2.51,7.70 -2.47,5.16 -2.43,2.62 -2.41,1.31 -2.39,0 -2.35,-0.28 -2.32,-0.57 -2.22,-0.84 -2.11,-1.11 -1.95,-1.34 -1.79,-1.58 -1.57,-1.77 -1.35,-1.96 -1.10,-2.10 -0.84,-2.23 -0.56,-2.30 -0.28,-2.37 0.00,-2.37 0.28,-2.37 0.56,-2.30 0.84,-2.23 1.10,-2.10 1.35,-1.96 1.57,-1.77 1.79,-1.58 1.95,-1.34 2.11,-1.11 2.22,-0.84 2.32,-0.57 2.35,-0.28 2.39,0.00 2.39,0.00 L 2.39,0 Z"></path></g><g transform="translate(225.77142333984375 299.82855224609375) rotate(0 0.914276123046875 7.314300537109375)" stroke="none"><path fill="#1e1e1e" d="M 2.42,-0.40 Q 2.42,-0.40 2.66,1.17 2.89,2.75 2.98,4.60 3.06,6.44 3.14,7.73 3.23,9.02 3.62,11.12 4.02,13.23 4.11,13.63 4.21,14.04 4.18,14.45 4.14,14.86 3.97,15.24 3.81,15.62 3.53,15.93 3.25,16.24 2.89,16.44 2.52,16.64 2.12,16.71 1.71,16.79 1.30,16.73 0.89,16.67 0.52,16.49 0.15,16.30 -0.13,16.00 -0.43,15.71 -0.61,15.34 -0.79,14.96 -0.84,14.55 -0.90,14.14 -0.82,13.74 -0.73,13.33 -0.53,12.97 -0.32,12.61 -0.01,12.33 0.29,12.06 0.67,11.90 1.05,11.74 1.47,11.71 1.88,11.67 2.28,11.78 2.68,11.88 3.03,12.11 3.38,12.33 3.64,12.66 3.90,12.98 4.04,13.37 4.18,13.76 4.19,14.18 4.19,14.59 4.07,14.99 3.95,15.38 3.70,15.72 3.46,16.05 3.12,16.29 2.78,16.53 2.38,16.65 1.99,16.77 1.57,16.76 1.16,16.74 0.77,16.60 0.38,16.45 0.06,16.19 -0.25,15.93 -0.47,15.58 -0.70,15.23 -0.69,15.23 -0.69,15.23 -1.12,12.21 -1.54,9.20 -1.55,7.97 -1.56,6.74 -1.70,5.14 -1.84,3.54 -2.13,1.97 -2.42,0.40 -2.43,0.10 -2.44,-0.18 -2.39,-0.47 -2.33,-0.76 -2.20,-1.03 -2.08,-1.30 -1.89,-1.53 -1.70,-1.76 -1.47,-1.94 -1.23,-2.12 -0.96,-2.23 -0.69,-2.35 -0.40,-2.40 -0.10,-2.45 0.18,-2.43 0.48,-2.40 0.76,-2.31 1.04,-2.22 1.29,-2.06 1.54,-1.90 1.75,-1.69 1.95,-1.48 2.10,-1.22 2.25,-0.97 2.33,-0.68 2.42,-0.40 2.42,-0.40 L 2.42,-0.40 Z"></path></g><g transform="translate(276.05706787109375 296.17138671875) rotate(0 0 7.314300537109375)" stroke="none"><path fill="#1e1e1e" d="M 2.12,0 Q 2.12,0 2.02,2.89 1.91,5.78 1.83,8.06 1.75,10.34 1.82,12.09 1.90,13.85 1.85,14.15 1.80,14.46 1.66,14.73 1.51,15.00 1.29,15.22 1.07,15.43 0.79,15.56 0.51,15.69 0.20,15.72 -0.10,15.75 -0.40,15.69 -0.70,15.62 -0.97,15.46 -1.23,15.30 -1.43,15.07 -1.63,14.83 -1.74,14.55 -1.86,14.26 -1.87,13.95 -1.89,13.64 -1.81,13.35 -1.73,13.05 -1.55,12.79 -1.38,12.54 -1.13,12.35 -0.89,12.16 -0.60,12.07 -0.30,11.97 0.00,11.97 0.30,11.97 0.60,12.07 0.89,12.16 1.13,12.35 1.38,12.54 1.55,12.79 1.73,13.05 1.81,13.35 1.89,13.64 1.87,13.95 1.86,14.26 1.74,14.55 1.63,14.83 1.43,15.07 1.23,15.30 0.96,15.46 0.70,15.62 0.40,15.69 0.10,15.75 -0.20,15.72 -0.51,15.69 -0.79,15.56 -1.07,15.43 -1.29,15.22 -1.51,15.00 -1.66,14.73 -1.80,14.46 -1.85,14.15 -1.90,13.85 -1.90,13.85 -1.90,13.85 -1.82,12.09 -1.75,10.34 -1.83,8.06 -1.91,5.78 -2.02,2.89 -2.12,0 -2.09,-0.25 -2.06,-0.50 -1.97,-0.74 -1.88,-0.98 -1.73,-1.20 -1.59,-1.41 -1.40,-1.58 -1.20,-1.75 -0.98,-1.87 -0.75,-1.99 -0.50,-2.05 -0.25,-2.11 0.00,-2.11 0.25,-2.11 0.50,-2.05 0.75,-1.99 0.98,-1.87 1.20,-1.75 1.40,-1.58 1.59,-1.41 1.73,-1.20 1.88,-0.98 1.97,-0.74 2.06,-0.50 2.09,-0.25 2.12,0.00 2.12,0.00 L 2.12,0 Z"></path></g><g transform="translate(328.17144775390625 298) rotate(0 0.91424560546875 3.657135009765625)" stroke="none"><path fill="#1e1e1e" d="M 2.35,-0.39 Q 2.35,-0.39 2.59,1.18 2.84,2.76 3.33,4.31 3.82,5.86 3.93,6.24 4.04,6.62 4.02,7.01 4.00,7.40 3.86,7.77 3.71,8.13 3.46,8.43 3.21,8.73 2.87,8.94 2.54,9.14 2.16,9.23 1.78,9.31 1.39,9.27 1.00,9.23 0.64,9.07 0.28,8.91 0.00,8.64 -0.28,8.37 -0.47,8.03 -0.65,7.68 -0.72,7.30 -0.78,6.91 -0.72,6.52 -0.66,6.14 -0.48,5.79 -0.30,5.44 -0.02,5.17 0.26,4.90 0.61,4.73 0.97,4.56 1.35,4.52 1.74,4.47 2.13,4.56 2.51,4.64 2.85,4.84 3.19,5.04 3.44,5.34 3.70,5.63 3.84,6.00 3.99,6.36 4.02,6.75 4.04,7.14 3.94,7.52 3.83,7.90 3.62,8.22 3.40,8.55 3.09,8.79 2.78,9.03 2.41,9.16 2.04,9.28 1.64,9.29 1.25,9.29 0.88,9.17 0.51,9.04 0.19,8.81 -0.11,8.57 -0.33,8.25 -0.55,7.93 -0.55,7.93 -0.55,7.93 -1.17,5.73 -1.79,3.54 -2.07,1.96 -2.35,0.39 -2.36,0.10 -2.37,-0.18 -2.31,-0.46 -2.26,-0.74 -2.14,-1.00 -2.01,-1.26 -1.83,-1.48 -1.65,-1.71 -1.42,-1.88 -1.19,-2.05 -0.93,-2.17 -0.67,-2.28 -0.38,-2.33 -0.10,-2.38 0.18,-2.35 0.46,-2.33 0.74,-2.24 1.01,-2.15 1.25,-2.00 1.49,-1.85 1.69,-1.64 1.89,-1.43 2.04,-1.19 2.18,-0.94 2.26,-0.66 2.35,-0.39 2.35,-0.39 L 2.35,-0.39 Z"></path></g><g transform="translate(383.02850341796875 298.91424560546875) rotate(0 0.914306640625 4.114288330078125)" stroke="none"><path fill="#1e1e1e" d="M 2.31,-0.33 Q 2.31,-0.33 2.51,1.51 2.71,3.36 3.22,5.11 3.73,6.86 3.82,7.22 3.91,7.58 3.89,7.95 3.86,8.32 3.72,8.66 3.57,9.00 3.33,9.28 3.08,9.56 2.76,9.74 2.44,9.93 2.07,10.00 1.71,10.07 1.34,10.03 0.97,9.98 0.64,9.82 0.30,9.65 0.04,9.39 -0.22,9.13 -0.38,8.80 -0.55,8.47 -0.60,8.10 -0.66,7.73 -0.59,7.37 -0.52,7.00 -0.34,6.68 -0.16,6.35 0.10,6.11 0.38,5.86 0.72,5.71 1.06,5.56 1.43,5.52 1.80,5.49 2.16,5.58 2.52,5.67 2.83,5.86 3.15,6.06 3.38,6.35 3.62,6.64 3.75,6.98 3.88,7.33 3.89,7.70 3.90,8.07 3.80,8.43 3.69,8.78 3.48,9.09 3.26,9.39 2.96,9.61 2.66,9.83 2.31,9.94 1.95,10.05 1.58,10.04 1.21,10.04 0.86,9.91 0.51,9.78 0.22,9.55 -0.06,9.32 -0.26,9.01 -0.46,8.70 -0.46,8.70 -0.46,8.70 -1.06,6.34 -1.66,3.99 -1.98,2.16 -2.31,0.33 -2.32,0.04 -2.32,-0.23 -2.26,-0.50 -2.20,-0.78 -2.07,-1.03 -1.95,-1.28 -1.76,-1.50 -1.58,-1.71 -1.35,-1.88 -1.12,-2.04 -0.86,-2.15 -0.60,-2.25 -0.32,-2.29 -0.04,-2.33 0.23,-2.30 0.51,-2.28 0.77,-2.18 1.04,-2.09 1.27,-1.93 1.51,-1.78 1.70,-1.57 1.89,-1.36 2.03,-1.12 2.16,-0.87 2.24,-0.60 2.31,-0.33 2.31,-0.33 L 2.31,-0.33 Z"></path></g><g transform="translate(103.25714111328125 336.39996337890625) rotate(0 5.028564453125 0.000030517578125)" stroke="none"><path fill="#1e1e1e" d="M -1.54,-1.93 Q -1.54,-1.93 -0.20,-2.95 1.13,-3.97 3.18,-5.15 5.22,-6.34 7.03,-6.56 8.83,-6.78 10.05,-5.45 11.27,-4.13 11.42,-2.58 11.56,-1.03 11.62,0.04 11.69,1.12 12.08,3.07 12.47,5.02 12.55,5.46 12.62,5.89 12.55,6.33 12.49,6.77 12.28,7.16 12.08,7.55 11.76,7.86 11.44,8.17 11.04,8.36 10.64,8.54 10.20,8.60 9.76,8.65 9.33,8.56 8.89,8.46 8.51,8.24 8.13,8.01 7.84,7.68 7.55,7.34 7.39,6.93 7.22,6.52 7.19,6.08 7.16,5.64 7.28,5.21 7.39,4.78 7.64,4.42 7.88,4.05 8.23,3.78 8.58,3.51 9.00,3.36 9.42,3.22 9.86,3.21 10.31,3.21 10.73,3.35 11.15,3.49 11.50,3.75 11.86,4.02 12.11,4.38 12.36,4.75 12.48,5.17 12.60,5.60 12.58,6.04 12.56,6.48 12.40,6.89 12.24,7.31 11.96,7.65 11.67,7.99 11.30,8.22 10.92,8.45 10.49,8.55 10.06,8.65 9.61,8.60 9.17,8.56 8.77,8.37 8.37,8.19 8.04,7.89 7.72,7.59 7.51,7.20 7.30,6.81 7.30,6.81 7.30,6.81 6.87,4.73 6.45,2.64 6.49,0.92 6.54,-0.79 7.03,-1.79 7.51,-2.80 5.82,-1.51 4.12,-0.23 2.83,0.84 1.54,1.93 1.29,2.09 1.03,2.24 0.75,2.33 0.47,2.43 0.17,2.45 -0.12,2.47 -0.41,2.42 -0.71,2.37 -0.98,2.25 -1.25,2.13 -1.49,1.95 -1.73,1.76 -1.91,1.53 -2.10,1.30 -2.23,1.03 -2.35,0.76 -2.41,0.46 -2.47,0.17 -2.45,-0.12 -2.44,-0.42 -2.35,-0.70 -2.26,-0.99 -2.11,-1.25 -1.96,-1.50 -1.75,-1.72 -1.54,-1.93 -1.54,-1.93 L -1.54,-1.93 Z"></path></g><g transform="translate(182.79998779296875 326.34283447265625) rotate(0 5.942840576171875 9.142852783203125)" stroke="none"><path fill="#1e1e1e" d="M 0.42,-2.56 Q 0.42,-2.56 2.02,-2.25 3.61,-1.94 4.81,-1.33 6.01,-0.73 6.78,0.44 7.55,1.61 7.88,3.63 8.21,5.65 8.25,7.78 8.29,9.91 7.95,11.24 7.60,12.57 6.87,13.51 6.14,14.45 4.53,15.08 2.91,15.71 2.47,15.76 2.02,15.81 1.65,15.82 1.28,15.82 0.91,15.74 0.55,15.66 0.22,15.50 -0.11,15.33 -0.39,15.09 -0.67,14.85 -0.89,14.55 -1.11,14.25 -1.25,13.91 -1.39,13.56 -1.44,13.19 -1.50,12.83 -1.46,12.46 -1.42,12.09 -1.30,11.74 -1.18,11.39 -0.97,11.07 -0.77,10.76 -0.50,10.51 -0.22,10.26 0.09,10.08 0.42,9.90 0.77,9.80 1.13,9.70 2.93,11.25 4.73,12.81 6.40,12.93 8.06,13.06 10.16,14.07 12.25,15.08 12.71,15.31 13.17,15.54 13.53,15.90 13.89,16.27 14.11,16.73 14.34,17.19 14.41,17.69 14.48,18.20 14.38,18.70 14.28,19.21 14.02,19.65 13.77,20.10 13.39,20.44 13.01,20.78 12.53,20.98 12.06,21.18 11.55,21.22 11.04,21.26 10.55,21.13 10.05,21.01 9.62,20.73 9.19,20.45 8.87,20.05 8.55,19.65 8.38,19.17 8.20,18.69 8.19,18.18 8.18,17.66 8.33,17.17 8.48,16.69 8.78,16.27 9.08,15.86 9.50,15.56 9.92,15.26 10.41,15.11 10.90,14.97 11.41,14.98 11.92,15.00 12.40,15.18 12.88,15.35 13.28,15.68 13.68,16.00 13.95,16.43 14.22,16.86 14.35,17.36 14.47,17.86 14.42,18.37 14.38,18.88 14.18,19.35 13.97,19.82 13.63,20.20 13.28,20.58 12.84,20.83 12.39,21.08 11.89,21.17 11.38,21.27 10.88,21.20 10.37,21.13 10.37,21.13 10.37,21.13 7.51,19.76 4.64,18.39 3.43,18.10 2.21,17.81 0.98,16.86 -0.23,15.90 0.89,15.86 2.02,15.81 1.65,15.82 1.28,15.82 0.91,15.74 0.55,15.66 0.22,15.50 -0.11,15.33 -0.39,15.09 -0.67,14.85 -0.89,14.55 -1.11,14.25 -1.25,13.91 -1.39,13.56 -1.44,13.19 -1.50,12.83 -1.46,12.46 -1.43,12.09 -1.30,11.74 -1.18,11.39 -0.97,11.08 -0.77,10.76 -0.50,10.51 -0.23,10.26 0.09,10.08 0.41,9.90 0.77,9.80 1.13,9.70 1.89,9.79 2.64,9.87 2.62,7.90 2.59,5.94 2.64,4.46 2.69,2.99 1.13,2.77 -0.42,2.56 -0.72,2.47 -1.02,2.38 -1.29,2.22 -1.56,2.07 -1.79,1.85 -2.01,1.63 -2.18,1.36 -2.35,1.10 -2.44,0.80 -2.54,0.50 -2.57,0.19 -2.59,-0.11 -2.54,-0.42 -2.49,-0.73 -2.36,-1.02 -2.24,-1.30 -2.05,-1.55 -1.86,-1.80 -1.62,-2.00 -1.37,-2.20 -1.09,-2.33 -0.81,-2.46 -0.50,-2.52 -0.19,-2.59 0.11,-2.57 0.42,-2.56 0.42,-2.56 L 0.42,-2.56 Z"></path></g><g transform="translate(218.45709228515625 326.34283447265625) rotate(0 4.11431884765625 9.142852783203125)" stroke="none"><path fill="#1e1e1e" d="M 0,-2.65 Q 0,-2.65 1.05,-2.67 2.10,-2.70 3.36,-2.70 4.61,-2.70 5.90,-2.35 7.18,-2.01 8.11,-1.22 9.03,-0.44 9.49,0.80 9.95,2.05 9.76,3.79 9.56,5.54 11.19,6.75 12.82,7.97 13.94,9.88 15.06,11.79 14.67,13.40 14.28,15.01 13.24,16.04 12.20,17.08 10.98,17.90 9.77,18.72 8.80,19.21 7.83,19.70 6.25,20.13 4.68,20.56 3.38,20.77 2.08,20.98 0.68,21.05 -0.71,21.11 -1.83,21.43 -2.94,21.74 -3.41,21.86 -3.88,21.99 -4.36,21.96 -4.84,21.94 -5.29,21.76 -5.74,21.58 -6.10,21.26 -6.47,20.95 -6.72,20.53 -6.97,20.12 -7.07,19.65 -7.17,19.17 -7.12,18.69 -7.06,18.21 -6.86,17.78 -6.65,17.34 -6.32,16.99 -5.99,16.64 -5.56,16.41 -5.13,16.19 -4.66,16.11 -4.18,16.04 -3.70,16.11 -3.23,16.19 -2.80,16.42 -2.37,16.65 -2.04,17.00 -1.71,17.35 -1.51,17.79 -1.31,18.23 -1.26,18.71 -1.21,19.19 -1.31,19.66 -1.42,20.14 -1.67,20.55 -1.92,20.96 -2.29,21.27 -2.66,21.59 -3.11,21.76 -3.56,21.94 -4.04,21.96 -4.52,21.99 -4.99,21.86 -5.45,21.73 -5.85,21.46 -6.25,21.18 -6.54,20.80 -6.83,20.41 -6.98,19.95 -7.14,19.49 -7.14,19.01 -7.13,18.53 -6.98,18.07 -6.82,17.61 -6.53,17.23 -6.23,16.85 -5.83,16.58 -5.43,16.31 -5.43,16.31 -5.43,16.31 -3.24,15.77 -1.05,15.23 0.96,15.02 2.98,14.81 4.60,14.27 6.22,13.72 7.90,13.44 9.59,13.15 8.42,11.61 7.25,10.08 5.80,8.69 4.35,7.30 4.14,6.15 3.93,5.00 4.23,3.85 4.52,2.70 3.31,2.70 2.10,2.70 1.05,2.67 0,2.65 -0.31,2.61 -0.63,2.57 -0.93,2.46 -1.23,2.34 -1.49,2.16 -1.75,1.98 -1.97,1.74 -2.18,1.50 -2.33,1.22 -2.48,0.94 -2.55,0.63 -2.63,0.31 -2.63,-0.00 -2.63,-0.31 -2.55,-0.63 -2.48,-0.94 -2.33,-1.22 -2.18,-1.50 -1.97,-1.74 -1.75,-1.98 -1.49,-2.16 -1.23,-2.34 -0.93,-2.46 -0.63,-2.57 -0.31,-2.61 0.00,-2.65 0.00,-2.65 L 0,-2.65 Z"></path></g><g transform="translate(265.08563232421875 326.34283447265625) rotate(0 5.94287109375 7.77142333984375)" stroke="none"><path fill="#1e1e1e" d="M 2.59,-0.43 Q 2.59,-0.43 2.81,1.14 3.03,2.72 3.59,3.70 4.15,4.68 5.44,4.50 6.74,4.32 8.16,4.29 9.59,4.26 10.97,5.02 12.35,5.79 13.05,7.38 13.76,8.97 13.87,10.07 13.98,11.17 13.84,12.03 13.69,12.89 14.04,13.27 14.39,13.65 14.60,14.13 14.81,14.60 14.86,15.12 14.91,15.63 14.79,16.14 14.67,16.64 14.39,17.08 14.12,17.52 13.72,17.85 13.32,18.18 12.83,18.36 12.35,18.55 11.83,18.56 11.31,18.58 10.82,18.44 10.32,18.29 9.90,17.99 9.47,17.69 9.17,17.28 8.86,16.86 8.70,16.36 8.54,15.87 8.55,15.35 8.56,14.83 8.74,14.35 8.91,13.86 9.23,13.45 9.55,13.04 9.98,12.76 10.42,12.48 10.92,12.35 11.42,12.22 11.94,12.25 12.46,12.29 12.93,12.49 13.41,12.69 13.80,13.03 14.19,13.37 14.45,13.82 14.71,14.27 14.81,14.78 14.91,15.29 14.85,15.80 14.78,16.32 14.56,16.78 14.33,17.25 13.97,17.62 13.61,17.99 13.15,18.22 12.68,18.46 12.17,18.53 11.66,18.61 11.15,18.52 10.64,18.42 10.19,18.17 9.73,17.92 9.73,17.92 9.73,17.92 8.73,15.42 7.73,12.92 8.08,11.64 8.43,10.36 6.90,10.24 5.36,10.12 3.93,9.80 2.51,9.47 1.29,8.73 0.08,7.99 -0.53,6.99 -1.15,6.00 -1.56,4.79 -1.97,3.58 -2.28,2.00 -2.59,0.43 -2.60,0.11 -2.61,-0.20 -2.55,-0.51 -2.49,-0.82 -2.35,-1.10 -2.22,-1.39 -2.02,-1.64 -1.82,-1.88 -1.57,-2.07 -1.32,-2.26 -1.03,-2.39 -0.74,-2.51 -0.42,-2.57 -0.11,-2.62 0.19,-2.59 0.51,-2.57 0.81,-2.47 1.11,-2.37 1.38,-2.20 1.65,-2.04 1.87,-1.81 2.09,-1.58 2.25,-1.31 2.41,-1.03 2.50,-0.73 2.59,-0.43 2.59,-0.43 L 2.59,-0.43 Z"></path></g><g transform="translate(327.25714111328125 329.085693359375) rotate(0 4.1142578125 9.142852783203125)" stroke="none"><path fill="#1e1e1e" d="M 2.51,0.62 Q 2.51,0.62 2.27,1.68 2.04,2.74 1.90,4.77 1.76,6.80 3.65,6.98 5.54,7.17 6.75,7.52 7.97,7.86 8.99,8.50 10.01,9.14 10.76,10.40 11.52,11.65 11.81,13.08 12.11,14.51 11.80,16.52 11.49,18.53 10.58,19.55 9.67,20.56 8.11,20.98 6.55,21.41 5.40,21.43 4.24,21.46 2.85,21.14 1.46,20.83 -0.54,19.59 -2.54,18.36 -2.90,17.98 -3.25,17.60 -3.47,17.12 -3.69,16.65 -3.74,16.13 -3.79,15.61 -3.68,15.10 -3.56,14.59 -3.29,14.14 -3.02,13.69 -2.62,13.36 -2.22,13.02 -1.73,12.83 -1.24,12.64 -0.72,12.62 -0.20,12.59 0.30,12.73 0.80,12.88 1.23,13.17 1.66,13.47 1.98,13.89 2.29,14.31 2.45,14.80 2.62,15.30 2.61,15.82 2.61,16.35 2.44,16.84 2.27,17.34 1.95,17.75 1.63,18.16 1.20,18.45 0.76,18.75 0.26,18.88 -0.24,19.02 -0.76,18.99 -1.28,18.95 -1.77,18.76 -2.25,18.56 -2.65,18.22 -3.04,17.88 -3.31,17.43 -3.58,16.98 -3.69,16.47 -3.80,15.96 -3.74,15.44 -3.68,14.92 -3.45,14.44 -3.23,13.97 -2.87,13.59 -2.51,13.21 -2.04,12.97 -1.58,12.73 -1.06,12.65 -0.54,12.57 -0.03,12.66 0.48,12.75 0.94,12.99 1.40,13.24 1.40,13.24 1.40,13.24 2.28,13.95 3.16,14.65 4.59,14.87 6.03,15.09 5.60,13.90 5.17,12.72 2.73,12.34 0.29,11.96 -1.05,10.97 -2.39,9.98 -2.92,8.34 -3.45,6.70 -3.27,4.08 -3.09,1.46 -2.80,0.41 -2.51,-0.62 -2.39,-0.91 -2.28,-1.21 -2.10,-1.46 -1.93,-1.72 -1.69,-1.92 -1.46,-2.13 -1.18,-2.27 -0.90,-2.42 -0.60,-2.49 -0.30,-2.57 0.00,-2.56 0.32,-2.56 0.62,-2.49 0.92,-2.41 1.20,-2.27 1.47,-2.12 1.71,-1.91 1.94,-1.70 2.11,-1.45 2.29,-1.19 2.40,-0.90 2.51,-0.61 2.55,-0.30 2.58,0.00 2.54,0.31 2.51,0.62 2.51,0.62 L 2.51,0.62 Z"></path></g><g transform="translate(328.17144775390625 330.91424560546875) rotate(0 7.77142333984375 0)" stroke="none"><path fill="#1e1e1e" d="M 0,-2.45 Q 0,-2.45 2.36,-2.30 4.73,-2.15 5.99,-2.20 7.26,-2.25 8.59,-2.28 9.92,-2.32 12.58,-2.40 15.23,-2.49 15.63,-2.42 16.03,-2.35 16.38,-2.17 16.74,-1.98 17.02,-1.68 17.29,-1.39 17.46,-1.03 17.63,-0.66 17.68,-0.26 17.72,0.13 17.63,0.52 17.55,0.92 17.34,1.26 17.13,1.61 16.82,1.87 16.52,2.13 16.14,2.28 15.77,2.43 15.37,2.45 14.96,2.47 14.58,2.36 14.19,2.25 13.85,2.03 13.52,1.80 13.28,1.48 13.03,1.16 12.90,0.78 12.78,0.40 12.78,-0.00 12.78,-0.40 12.90,-0.78 13.03,-1.16 13.28,-1.48 13.52,-1.80 13.85,-2.03 14.19,-2.26 14.58,-2.36 14.96,-2.47 15.37,-2.45 15.77,-2.43 16.14,-2.28 16.52,-2.13 16.82,-1.87 17.13,-1.61 17.34,-1.26 17.55,-0.92 17.63,-0.52 17.72,-0.13 17.68,0.26 17.63,0.66 17.46,1.03 17.29,1.39 17.02,1.69 16.74,1.98 16.38,2.17 16.03,2.35 15.63,2.42 15.23,2.49 15.23,2.49 15.23,2.49 12.58,2.40 9.92,2.32 8.59,2.28 7.26,2.25 5.99,2.20 4.73,2.15 2.36,2.30 0,2.45 -0.29,2.41 -0.58,2.38 -0.86,2.27 -1.14,2.17 -1.38,2.00 -1.62,1.83 -1.82,1.61 -2.01,1.39 -2.15,1.13 -2.29,0.87 -2.36,0.58 -2.43,0.29 -2.43,-0.00 -2.43,-0.29 -2.36,-0.58 -2.29,-0.87 -2.15,-1.13 -2.01,-1.39 -1.82,-1.61 -1.62,-1.83 -1.38,-2.00 -1.14,-2.17 -0.86,-2.27 -0.58,-2.38 -0.29,-2.41 0.00,-2.45 0.00,-2.45 L 0,-2.45 Z"></path></g><g transform="translate(382.11431884765625 326.34283447265625) rotate(0 1.82855224609375 10.5142822265625)" stroke="none"><path fill="#1e1e1e" d="M 1.35,2.25 Q 1.35,2.25 0.02,3.01 -1.30,3.77 -2.32,4.85 -3.33,5.94 -3.40,7.73 -3.47,9.53 -3.45,11.14 -3.43,12.75 -2.66,14.13 -1.89,15.52 -0.55,16.16 0.78,16.79 3.06,17.22 5.33,17.65 6.48,17.76 7.63,17.86 7.18,16.77 6.74,15.68 6.78,13.83 6.83,11.99 6.38,10.92 5.94,9.86 4.95,9.45 3.97,9.04 1.99,8.45 0.01,7.86 -1.06,7.91 -2.13,7.97 -2.20,8.76 -2.27,9.54 -2.63,9.96 -2.99,10.38 -3.47,10.67 -3.95,10.95 -4.49,11.07 -5.03,11.18 -5.58,11.12 -6.13,11.05 -6.64,10.82 -7.14,10.58 -7.54,10.20 -7.94,9.81 -8.20,9.32 -8.45,8.83 -8.54,8.28 -8.62,7.73 -8.53,7.18 -8.44,6.64 -8.17,6.15 -7.91,5.66 -7.51,5.28 -7.10,4.90 -6.59,4.67 -6.09,4.44 -5.54,4.38 -4.98,4.33 -4.44,4.45 -3.90,4.57 -3.43,4.86 -2.95,5.15 -2.60,5.58 -2.24,6.00 -2.04,6.52 -1.84,7.04 -1.81,7.59 -1.79,8.15 -1.94,8.68 -2.09,9.22 -2.40,9.67 -2.72,10.13 -3.16,10.46 -3.61,10.80 -4.13,10.97 -4.66,11.14 -5.22,11.14 -5.77,11.14 -6.30,10.95 -6.82,10.77 -7.26,10.43 -7.70,10.10 -8.01,9.63 -8.32,9.17 -8.46,8.64 -8.61,8.10 -8.57,7.55 -8.54,6.99 -8.33,6.48 -8.12,5.96 -8.12,5.96 -8.12,5.96 -5.06,3.58 -1.99,1.19 -0.92,1.25 0.14,1.32 1.64,1.84 3.13,2.36 4.68,2.68 6.22,3.00 7.41,3.45 8.61,3.89 10.11,5.39 11.61,6.89 12.11,7.97 12.61,9.04 12.94,10.49 13.27,11.95 13.32,13.26 13.37,14.58 13.34,15.93 13.32,17.28 13.22,18.47 13.13,19.66 12.74,20.96 12.35,22.26 10.30,23.19 8.24,24.12 6.95,23.98 5.66,23.84 3.78,23.44 1.90,23.03 0.76,22.91 -0.37,22.80 -2.00,22.37 -3.63,21.95 -4.69,21.15 -5.75,20.35 -6.88,18.79 -8.00,17.22 -8.66,14.95 -9.33,12.67 -9.26,10.98 -9.18,9.28 -8.92,7.26 -8.66,5.24 -8.15,3.98 -7.65,2.72 -6.74,1.69 -5.84,0.65 -4.89,0.01 -3.95,-0.62 -2.65,-1.44 -1.35,-2.25 -1.06,-2.38 -0.77,-2.51 -0.46,-2.56 -0.14,-2.62 0.16,-2.60 0.48,-2.58 0.78,-2.48 1.08,-2.39 1.35,-2.22 1.62,-2.06 1.85,-1.83 2.07,-1.61 2.23,-1.34 2.40,-1.07 2.49,-0.76 2.58,-0.46 2.60,-0.14 2.62,0.16 2.56,0.47 2.50,0.79 2.37,1.07 2.24,1.36 2.04,1.61 1.85,1.86 1.60,2.06 1.35,2.25 1.35,2.25 L 1.35,2.25 Z"></path></g><g transform="translate(55.7142333984375 216.6285400390625) rotate(0 3.20001220703125 -0.457122802734375)" stroke="none"><path fill="#1e1e1e" d="M 0,-2.41 Q 0,-2.41 1.31,-2.43 2.62,-2.45 4.32,-2.48 6.01,-2.51 6.41,-2.44 6.81,-2.38 7.17,-2.19 7.53,-2.00 7.81,-1.70 8.09,-1.41 8.26,-1.04 8.43,-0.67 8.48,-0.26 8.52,0.13 8.43,0.53 8.35,0.93 8.14,1.27 7.93,1.62 7.62,1.89 7.31,2.15 6.93,2.30 6.55,2.45 6.14,2.47 5.74,2.49 5.35,2.39 4.95,2.28 4.62,2.05 4.28,1.82 4.04,1.50 3.79,1.17 3.66,0.79 3.53,0.40 3.53,-0.00 3.53,-0.40 3.66,-0.79 3.79,-1.17 4.04,-1.50 4.28,-1.82 4.62,-2.05 4.96,-2.28 5.35,-2.39 5.74,-2.49 6.15,-2.47 6.55,-2.45 6.93,-2.30 7.31,-2.15 7.62,-1.89 7.93,-1.62 8.14,-1.27 8.35,-0.93 8.43,-0.53 8.52,-0.13 8.48,0.26 8.43,0.67 8.26,1.04 8.09,1.41 7.81,1.70 7.53,2.00 7.17,2.19 6.81,2.38 6.41,2.44 6.01,2.51 6.01,2.51 6.01,2.51 4.32,2.48 2.62,2.45 1.31,2.43 0,2.41 -0.28,2.37 -0.57,2.34 -0.84,2.23 -1.12,2.13 -1.35,1.96 -1.59,1.80 -1.79,1.58 -1.98,1.36 -2.11,1.11 -2.25,0.85 -2.32,0.57 -2.39,0.29 -2.39,-0.00 -2.39,-0.29 -2.32,-0.57 -2.25,-0.85 -2.11,-1.11 -1.98,-1.36 -1.79,-1.58 -1.59,-1.80 -1.35,-1.97 -1.12,-2.13 -0.84,-2.23 -0.57,-2.34 -0.28,-2.37 0.00,-2.41 0.00,-2.41 L 0,-2.41 Z"></path></g><g transform="translate(63.028564453125 219.37139892578125) rotate(0 2.28570556640625 0)" stroke="none"><path fill="#1e1e1e" d="M 0,-2.31 Q 0,-2.31 1.87,-2.37 3.74,-2.42 4.13,-2.36 4.52,-2.29 4.86,-2.11 5.21,-1.93 5.48,-1.64 5.75,-1.36 5.91,-1.00 6.08,-0.64 6.12,-0.25 6.16,0.13 6.08,0.51 6.00,0.89 5.79,1.23 5.59,1.57 5.29,1.82 4.99,2.07 4.63,2.22 4.26,2.37 3.87,2.39 3.48,2.41 3.10,2.30 2.72,2.20 2.40,1.98 2.07,1.76 1.83,1.44 1.60,1.13 1.47,0.76 1.35,0.39 1.35,-0.00 1.35,-0.39 1.47,-0.76 1.60,-1.13 1.83,-1.44 2.07,-1.76 2.40,-1.98 2.72,-2.20 3.10,-2.30 3.48,-2.41 3.87,-2.39 4.26,-2.37 4.63,-2.22 4.99,-2.07 5.29,-1.82 5.59,-1.57 5.79,-1.23 6.00,-0.89 6.08,-0.51 6.16,-0.13 6.12,0.25 6.08,0.64 5.91,1.00 5.75,1.36 5.48,1.64 5.21,1.93 4.86,2.11 4.51,2.30 4.13,2.36 3.74,2.42 3.74,2.42 3.74,2.42 1.87,2.37 0,2.31 -0.27,2.28 -0.55,2.24 -0.81,2.15 -1.07,2.05 -1.30,1.89 -1.53,1.73 -1.72,1.52 -1.90,1.31 -2.03,1.06 -2.16,0.82 -2.23,0.55 -2.29,0.27 -2.29,-0.00 -2.29,-0.27 -2.23,-0.55 -2.16,-0.82 -2.03,-1.06 -1.90,-1.31 -1.72,-1.52 -1.53,-1.73 -1.30,-1.89 -1.07,-2.05 -0.81,-2.15 -0.55,-2.24 -0.27,-2.28 0.00,-2.31 0.00,-2.31 L 0,-2.31 Z"></path></g><g transform="translate(13.6571044921875 204.74285888671875) rotate(0 4.114288330078125 4.571441650390625)" stroke="none"><path fill="#1e1e1e" d="M -1.77,-0.88 Q -1.77,-0.88 -0.98,-2.46 -0.19,-4.03 0.70,-5.74 1.60,-7.45 3.49,-9.48 5.37,-11.52 7.27,-10.85 9.16,-10.18 9.26,-8.80 9.36,-7.43 9.37,-5.82 9.39,-4.21 9.42,-2.72 9.45,-1.24 8.81,0.94 8.17,3.13 7.89,5.10 7.60,7.08 7.58,8.48 7.55,9.89 7.64,11.87 7.73,13.86 7.83,15.82 7.94,17.79 7.97,19.61 8.01,21.43 7.94,21.83 7.87,22.24 7.68,22.60 7.49,22.96 7.19,23.24 6.90,23.52 6.53,23.69 6.16,23.86 5.75,23.91 5.34,23.95 4.94,23.86 4.54,23.77 4.19,23.56 3.84,23.35 3.58,23.04 3.32,22.73 3.16,22.35 3.01,21.97 2.99,21.56 2.97,21.15 3.08,20.76 3.19,20.37 3.42,20.03 3.65,19.69 3.97,19.44 4.30,19.20 4.69,19.07 5.07,18.94 5.48,18.94 5.89,18.94 6.28,19.07 6.67,19.20 6.99,19.45 7.32,19.69 7.55,20.03 7.77,20.37 7.88,20.76 7.99,21.16 7.97,21.57 7.95,21.97 7.80,22.35 7.64,22.73 7.38,23.04 7.11,23.36 6.76,23.57 6.41,23.78 6.01,23.86 5.62,23.95 5.21,23.91 4.80,23.86 4.43,23.69 4.06,23.52 3.77,23.24 3.47,22.96 3.28,22.59 3.09,22.23 3.02,21.83 2.96,21.43 2.96,21.43 2.96,21.43 2.99,19.60 3.03,17.77 3.16,15.78 3.28,13.79 3.49,11.71 3.69,9.63 3.86,8.17 4.02,6.70 4.18,4.40 4.35,2.10 4.76,0.40 5.18,-1.28 5.21,-2.75 5.24,-4.22 6.06,-6.51 6.88,-8.80 5.94,-7.27 4.99,-5.74 4.16,-4.00 3.34,-2.27 2.56,-0.69 1.77,0.88 1.64,1.08 1.51,1.28 1.33,1.44 1.16,1.61 0.95,1.72 0.74,1.84 0.50,1.90 0.27,1.96 0.03,1.97 -0.20,1.97 -0.43,1.92 -0.66,1.87 -0.88,1.76 -1.09,1.65 -1.27,1.50 -1.46,1.34 -1.60,1.15 -1.73,0.95 -1.82,0.73 -1.91,0.51 -1.95,0.27 -1.98,0.03 -1.96,-0.19 -1.93,-0.43 -1.85,-0.66 -1.77,-0.88 -1.77,-0.88 L -1.77,-0.88 Z"></path></g><g transform="translate(10 227.5999755859375) rotate(0 9.5999755859375 0)" stroke="none"><path fill="#1e1e1e" d="M 0,-2.19 Q 0,-2.19 2.36,-2.08 4.73,-1.96 6.26,-2.00 7.79,-2.03 10.28,-1.94 12.77,-1.84 14.09,-1.91 15.41,-1.98 16.96,-2.05 18.51,-2.11 18.85,-2.05 19.19,-2.00 19.49,-1.84 19.79,-1.68 20.03,-1.43 20.26,-1.18 20.40,-0.87 20.55,-0.56 20.59,-0.22 20.62,0.11 20.55,0.44 20.48,0.78 20.30,1.07 20.12,1.36 19.86,1.58 19.60,1.81 19.28,1.93 18.97,2.06 18.62,2.08 18.28,2.10 17.95,2.00 17.62,1.91 17.34,1.72 17.06,1.53 16.85,1.26 16.64,0.98 16.54,0.66 16.43,0.34 16.43,-0.00 16.43,-0.34 16.54,-0.66 16.64,-0.99 16.85,-1.26 17.06,-1.53 17.34,-1.72 17.62,-1.91 17.95,-2.00 18.28,-2.10 18.63,-2.08 18.97,-2.06 19.28,-1.93 19.60,-1.81 19.86,-1.58 20.12,-1.36 20.30,-1.07 20.48,-0.78 20.55,-0.44 20.62,-0.11 20.59,0.22 20.55,0.56 20.40,0.87 20.26,1.18 20.03,1.43 19.79,1.68 19.49,1.84 19.19,2.00 18.85,2.05 18.51,2.11 18.51,2.11 18.51,2.11 16.96,2.05 15.41,1.98 14.09,1.91 12.77,1.84 10.28,1.94 7.79,2.03 6.26,2.00 4.73,1.96 2.36,2.08 0,2.19 -0.26,2.16 -0.52,2.13 -0.77,2.04 -1.02,1.94 -1.24,1.79 -1.45,1.64 -1.63,1.44 -1.81,1.24 -1.93,1.01 -2.05,0.77 -2.11,0.52 -2.18,0.26 -2.18,-0.00 -2.18,-0.26 -2.11,-0.52 -2.05,-0.78 -1.93,-1.01 -1.80,-1.24 -1.63,-1.44 -1.45,-1.64 -1.24,-1.79 -1.02,-1.94 -0.77,-2.04 -0.52,-2.13 -0.26,-2.16 0.00,-2.19 0.00,-2.19 L 0,-2.19 Z"></path></g><g transform="translate(20.05712890625 237.6571044921875) rotate(0 0.914276123046875 13.25714111328125)" stroke="none"><path fill="#1e1e1e" d="M 1.33,1.99 Q 1.33,1.99 -0.24,2.93 -1.82,3.86 -2.50,5.22 -3.19,6.59 -3.90,9.12 -4.60,11.64 -5.04,13.02 -5.47,14.40 -5.90,15.55 -6.33,16.69 -6.41,18.05 -6.50,19.41 -6.45,20.72 -6.39,22.03 -5.32,22.56 -4.25,23.09 -2.80,23.31 -1.36,23.53 0.22,23.55 1.81,23.57 3.72,23.03 5.64,22.50 6.63,21.78 7.63,21.06 7.81,19.84 7.98,18.61 8.02,17.48 8.06,16.34 7.15,15.46 6.24,14.58 5.23,13.92 4.22,13.25 3.31,12.23 2.40,11.22 1.08,11.45 -0.22,11.69 -1.39,12.49 -2.55,13.29 -2.26,13.70 -1.96,14.11 -1.85,14.57 -1.75,15.04 -1.80,15.52 -1.85,15.99 -2.04,16.43 -2.24,16.86 -2.57,17.21 -2.90,17.56 -3.32,17.78 -3.74,18.01 -4.21,18.09 -4.68,18.17 -5.15,18.10 -5.62,18.02 -6.05,17.80 -6.47,17.58 -6.80,17.23 -7.13,16.89 -7.33,16.46 -7.54,16.02 -7.59,15.55 -7.65,15.07 -7.55,14.61 -7.45,14.14 -7.20,13.73 -6.96,13.32 -6.60,13.01 -6.23,12.70 -5.79,12.52 -5.35,12.34 -4.87,12.31 -4.39,12.28 -3.93,12.41 -3.47,12.53 -3.07,12.80 -2.68,13.06 -2.39,13.44 -2.09,13.82 -1.94,14.27 -1.78,14.72 -1.78,15.20 -1.78,15.68 -1.93,16.13 -2.08,16.59 -2.37,16.97 -2.65,17.35 -3.05,17.62 -3.44,17.89 -3.90,18.02 -4.36,18.15 -4.84,18.13 -5.32,18.11 -5.76,17.93 -6.20,17.76 -6.57,17.45 -6.94,17.14 -7.19,16.73 -7.43,16.33 -7.43,16.33 -7.43,16.33 -6.84,12.62 -6.24,8.92 -5.28,8.23 -4.32,7.55 -2.76,6.77 -1.20,5.99 0.65,5.74 2.51,5.50 3.76,5.85 5.00,6.20 5.89,6.86 6.78,7.53 7.85,8.59 8.93,9.65 10.90,10.93 12.88,12.20 13.32,14.36 13.76,16.52 13.72,17.82 13.69,19.12 13.05,21.38 12.42,23.64 11.63,24.50 10.85,25.36 9.51,26.36 8.17,27.36 6.09,28.37 4.02,29.38 2.10,29.33 0.19,29.28 -0.89,29.20 -1.97,29.12 -4.40,28.52 -6.82,27.91 -8.59,26.77 -10.36,25.64 -11.11,23.96 -11.86,22.28 -11.79,21.16 -11.71,20.04 -11.47,18.66 -11.24,17.28 -10.92,16.09 -10.61,14.89 -10.13,13.91 -9.66,12.93 -9.20,11.77 -8.74,10.62 -8.30,8.73 -7.86,6.84 -7.35,5.75 -6.84,4.65 -5.66,2.49 -4.48,0.33 -2.90,-0.82 -1.33,-1.99 -1.07,-2.12 -0.81,-2.25 -0.53,-2.32 -0.25,-2.38 0.03,-2.38 0.32,-2.37 0.60,-2.30 0.88,-2.22 1.14,-2.09 1.39,-1.95 1.60,-1.75 1.82,-1.56 1.98,-1.32 2.14,-1.08 2.24,-0.80 2.33,-0.53 2.36,-0.24 2.39,0.03 2.35,0.32 2.31,0.61 2.21,0.88 2.10,1.14 1.93,1.38 1.76,1.61 1.55,1.80 1.33,1.99 1.33,1.99 L 1.33,1.99 Z"></path></g></svg>