<svg version="1.1" xmlns="http://www.w3.org/2000/svg" viewBox="0 0 1316.0266306110548 1054.4187834434265" width="1316.0266306110548" height="1054.4187834434265" filter="invert(93%) hue-rotate(180deg)" class="excalidraw-svg"><!-- svg-source:excalidraw --><metadata></metadata><defs><style class="style-fonts">
      </style></defs><g stroke-linecap="round"><g transform="translate(226.2268940875283 964.3347078633486) rotate(0 1.4210854715202004e-14 -417.77171511973233)"><path d="M0.36 -1.09 C0.25 -140.08, 0.48 -695.78, 0.55 -834.72 M-0.91 0.95 C-1.23 -138.3, -0.34 -696.82, -0.11 -836.42" stroke="#1e1e1e" stroke-width="2" fill="none"></path></g><g transform="translate(226.2268940875283 964.3347078633486) rotate(0 1.4210854715202004e-14 -417.77171511973233)"><path d="M8.4 -812.91 C3.35 -821.34, 3.14 -830.3, -0.11 -836.42 M8.4 -812.91 C5.13 -821.17, 2.56 -829.25, -0.11 -836.42" stroke="#1e1e1e" stroke-width="2" fill="none"></path></g><g transform="translate(226.2268940875283 964.3347078633486) rotate(0 1.4210854715202004e-14 -417.77171511973233)"><path d="M-8.7 -812.94 C-6.94 -821.41, -0.32 -830.36, -0.11 -836.42 M-8.7 -812.94 C-5.69 -821.35, -1.99 -829.42, -0.11 -836.42" stroke="#1e1e1e" stroke-width="2" fill="none"></path></g></g><mask></mask><g stroke-linecap="round"><g transform="translate(183.51540883567077 938.974844960751) rotate(0 435.79062296035966 0)"><path d="M-0.37 -0.79 C144.92 -0.65, 726.15 -0.31, 871.35 -0.1 M1.63 1.41 C146.79 1.83, 725 1.9, 870.27 1.39" stroke="#1e1e1e" stroke-width="2" fill="none"></path></g><g transform="translate(183.51540883567077 938.974844960751) rotate(0 435.79062296035966 0)"><path d="M846.79 9.97 C851.73 7.39, 859.08 4.21, 870.27 1.39 M846.79 9.97 C854.28 7.04, 863.57 4.1, 870.27 1.39" stroke="#1e1e1e" stroke-width="2" fill="none"></path></g><g transform="translate(183.51540883567077 938.974844960751) rotate(0 435.79062296035966 0)"><path d="M846.77 -7.13 C851.58 -5.2, 858.93 -3.88, 870.27 1.39 M846.77 -7.13 C854.24 -4.26, 863.53 -1.41, 870.27 1.39" stroke="#1e1e1e" stroke-width="2" fill="none"></path></g></g><mask></mask><g stroke-linecap="round"><g transform="translate(223.55742625928633 942.9789652374183) rotate(0 328.0108593951253 -328.01085939512524)"><path d="M-1.18 -0.75 C108.03 -110.11, 545.95 -547.45, 655.61 -656.62 M0.41 1.48 C109.39 -107.69, 545.11 -546.1, 654.45 -655.39" stroke="#1e1e1e" stroke-width="2" fill="none"></path></g></g><mask></mask><g transform="translate(199.5322158051174 737.4299831957011) rotate(0 21.35578335877534 -1.3347339141205339)" stroke="none"><path fill="#1e1e1e" d="M 0,-4.51 Q 0,-4.51 2.68,-4.57 5.37,-4.64 8.04,-4.69 10.72,-4.74 15.35,-4.86 19.98,-4.99 26.26,-5.43 32.54,-5.88 35.31,-6.27 38.08,-6.66 38.81,-6.62 39.53,-6.59 40.21,-6.33 40.89,-6.06 41.45,-5.60 42.01,-5.13 42.39,-4.51 42.77,-3.89 42.94,-3.18 43.10,-2.46 43.03,-1.74 42.95,-1.01 42.65,-0.35 42.35,0.30 41.86,0.84 41.36,1.37 40.72,1.72 40.08,2.06 39.36,2.19 38.64,2.31 37.92,2.20 37.20,2.09 36.55,1.75 35.91,1.42 35.40,0.89 34.90,0.37 34.58,-0.28 34.27,-0.94 34.19,-1.66 34.10,-2.39 34.25,-3.10 34.40,-3.81 34.77,-4.44 35.14,-5.07 35.70,-5.55 36.25,-6.02 36.92,-6.30 37.60,-6.57 38.32,-6.62 39.05,-6.66 39.76,-6.48 40.46,-6.29 41.07,-5.88 41.67,-5.48 42.12,-4.90 42.57,-4.33 42.80,-3.64 43.04,-2.95 43.05,-2.22 43.05,-1.49 42.83,-0.80 42.60,-0.11 42.16,0.47 41.73,1.05 41.13,1.47 40.53,1.88 39.83,2.08 39.13,2.28 39.13,2.28 39.13,2.28 36.35,2.55 33.56,2.81 26.78,3.90 19.99,4.99 15.36,4.86 10.72,4.74 8.04,4.69 5.37,4.64 2.68,4.57 0,4.51 -0.54,4.45 -1.08,4.38 -1.59,4.19 -2.09,3.99 -2.54,3.69 -2.99,3.38 -3.35,2.97 -3.71,2.56 -3.97,2.08 -4.22,1.60 -4.35,1.07 -4.48,0.54 -4.48,-0.00 -4.48,-0.54 -4.35,-1.07 -4.22,-1.60 -3.97,-2.08 -3.71,-2.56 -3.35,-2.97 -2.99,-3.38 -2.54,-3.69 -2.09,-3.99 -1.58,-4.19 -1.08,-4.38 -0.54,-4.45 0.00,-4.51 0.00,-4.51 L 0,-4.51 Z"></path></g><g transform="translate(14.00420174236092 742.7689188521832) rotate(0 19.353641754747997 -14.01470609826572)" stroke="none"><path fill="#1e1e1e" d="M -2.82,-4.23 Q -2.82,-4.23 -0.52,-5.76 1.78,-7.30 4.30,-9.94 6.83,-12.57 8.60,-14.15 10.38,-15.72 12.45,-17.60 14.51,-19.48 16.41,-20.98 18.30,-22.48 19.98,-24.01 21.65,-25.54 23.43,-26.89 25.21,-28.24 27.02,-29.51 28.84,-30.77 31.03,-32.67 33.22,-34.56 33.63,-34.43 34.03,-34.30 34.66,-34.64 35.29,-34.98 35.99,-35.15 36.68,-35.33 37.40,-35.34 38.11,-35.34 38.81,-35.18 39.51,-35.01 40.14,-34.68 40.78,-34.36 41.32,-33.89 41.86,-33.42 42.27,-32.83 42.68,-32.25 42.94,-31.58 43.20,-30.91 43.29,-30.20 43.38,-29.49 43.30,-28.78 43.22,-28.07 42.97,-27.40 42.73,-26.73 42.33,-26.14 41.92,-25.54 41.39,-25.06 40.86,-24.59 41.09,-21.83 41.33,-19.07 40.02,-15.26 38.72,-11.45 37.96,-8.60 37.19,-5.75 37.31,-3.96 37.42,-2.18 38.04,-1.37 38.66,-0.55 38.99,0.41 39.32,1.37 39.32,2.40 39.32,3.42 38.99,4.39 38.67,5.35 38.05,6.17 37.43,6.98 36.59,7.56 35.74,8.13 34.76,8.40 33.77,8.68 32.75,8.62 31.73,8.57 30.78,8.19 29.83,7.81 29.05,7.15 28.27,6.49 27.75,5.62 27.22,4.74 27.00,3.74 26.78,2.75 26.89,1.73 27.00,0.72 27.43,-0.20 27.85,-1.13 28.56,-1.87 29.26,-2.61 30.16,-3.09 31.06,-3.57 32.07,-3.74 33.08,-3.91 34.09,-3.74 35.10,-3.58 36.00,-3.10 36.90,-2.62 37.61,-1.88 38.31,-1.14 38.74,-0.21 39.17,0.71 39.28,1.72 39.39,2.74 39.17,3.74 38.95,4.74 38.43,5.61 37.90,6.49 37.12,7.15 36.34,7.81 35.39,8.19 34.45,8.57 33.43,8.62 32.40,8.68 31.42,8.41 30.44,8.13 29.59,7.56 28.74,6.99 28.74,6.99 28.74,6.99 27.08,3.82 25.42,0.66 25.22,-3.47 25.02,-7.62 26.13,-11.52 27.24,-15.42 28.47,-18.72 29.69,-22.02 30.57,-24.99 31.45,-27.96 32.74,-31.13 34.03,-34.30 34.66,-34.64 35.29,-34.98 35.99,-35.15 36.68,-35.33 37.40,-35.34 38.11,-35.34 38.81,-35.18 39.50,-35.01 40.14,-34.68 40.78,-34.36 41.32,-33.89 41.86,-33.42 42.27,-32.83 42.68,-32.25 42.94,-31.58 43.20,-30.91 43.29,-30.20 43.38,-29.49 43.30,-28.78 43.22,-28.07 42.98,-27.40 42.73,-26.73 42.33,-26.14 41.92,-25.54 41.39,-25.06 40.86,-24.59 38.03,-23.11 35.19,-21.63 32.03,-19.57 28.87,-17.51 25.32,-14.66 21.76,-11.80 18.25,-8.70 14.74,-5.60 11.08,-2.22 7.42,1.16 5.12,2.69 2.82,4.23 2.27,4.51 1.72,4.78 1.12,4.92 0.53,5.06 -0.08,5.05 -0.69,5.04 -1.28,4.88 -1.88,4.72 -2.41,4.43 -2.95,4.14 -3.41,3.72 -3.86,3.31 -4.20,2.80 -4.54,2.29 -4.75,1.71 -4.95,1.13 -5.02,0.52 -5.08,-0.08 -5.00,-0.69 -4.92,-1.29 -4.69,-1.86 -4.46,-2.43 -4.11,-2.93 -3.75,-3.43 -3.28,-3.83 -2.82,-4.23 -2.82,-4.23 L -2.82,-4.23 Z"></path></g><g transform="translate(78.07151108584037 730.7563136250983) rotate(0 6.673588104909754 8.008444217569775)" stroke="none"><path fill="#1e1e1e" d="M 3.90,2.16 Q 3.90,2.16 1.84,5.54 -0.21,8.91 -1.30,11.17 -2.38,13.44 -2.79,16.11 -3.19,18.79 0.80,15.98 4.81,13.16 8.30,11.77 11.78,10.38 13.51,8.83 15.24,7.27 16.34,4.83 17.45,2.40 16.37,0.25 15.29,-1.89 13.71,-4.04 12.12,-6.18 12.76,-5.37 13.39,-4.56 13.73,-3.59 14.08,-2.62 14.09,-1.59 14.11,-0.57 13.80,0.40 13.48,1.38 12.87,2.21 12.26,3.04 11.42,3.63 10.58,4.22 9.59,4.51 8.60,4.80 7.58,4.76 6.55,4.72 5.59,4.36 4.63,3.99 3.83,3.34 3.04,2.68 2.49,1.81 1.95,0.93 1.71,-0.06 1.48,-1.06 1.57,-2.08 1.67,-3.11 2.09,-4.05 2.50,-4.99 3.20,-5.74 3.90,-6.50 4.80,-7.00 5.70,-7.49 6.71,-7.67 7.72,-7.86 8.74,-7.70 9.76,-7.55 10.68,-7.08 11.59,-6.62 12.31,-5.88 13.03,-5.14 13.47,-4.22 13.92,-3.29 14.05,-2.27 14.17,-1.25 13.97,-0.24 13.76,0.76 13.24,1.65 12.73,2.53 11.95,3.21 11.18,3.89 10.23,4.28 9.28,4.68 8.25,4.75 7.23,4.82 6.23,4.56 5.24,4.30 4.38,3.74 3.52,3.17 3.52,3.17 3.52,3.17 3.32,-2.47 3.13,-8.13 5.27,-9.75 7.41,-11.36 9.85,-12.14 12.30,-12.91 14.82,-13.04 17.35,-13.17 20.61,-11.25 23.87,-9.32 25.39,-6.90 26.92,-4.48 27.11,-0.83 27.30,2.82 25.90,6.14 24.50,9.47 22.66,11.77 20.83,14.07 18.07,16.12 15.31,18.17 11.84,19.86 8.37,21.54 1.58,24.38 -5.20,27.23 -9.01,23.11 -12.83,19.00 -12.55,16.46 -12.27,13.92 -11.18,11.62 -10.08,9.31 -8.77,7.10 -7.45,4.89 -5.68,1.36 -3.90,-2.16 -3.58,-2.60 -3.27,-3.04 -2.86,-3.38 -2.44,-3.73 -1.96,-3.97 -1.48,-4.21 -0.95,-4.32 -0.43,-4.44 0.10,-4.43 0.64,-4.42 1.16,-4.27 1.68,-4.13 2.15,-3.87 2.62,-3.61 3.01,-3.24 3.41,-2.88 3.70,-2.43 4.00,-1.98 4.18,-1.47 4.36,-0.96 4.41,-0.42 4.46,0.10 4.38,0.63 4.31,1.17 4.10,1.67 3.90,2.16 3.90,2.16 L 3.90,2.16 Z"></path></g><g transform="translate(131.46078618496938 721.4131762262544) rotate(0 6.006302613542459 11.345238270024709)" stroke="none"><path fill="#1e1e1e" d="M 4.84,2.07 Q 4.84,2.07 3.66,4.73 2.48,7.40 2.08,10.70 1.68,14.00 3.87,15.23 6.06,16.46 8.05,14.75 10.04,13.04 7.14,12.00 4.25,10.96 2.17,10.07 0.09,9.18 -2.08,7.32 -4.27,5.46 -4.95,4.58 -5.64,3.70 -6.01,2.64 -6.38,1.58 -6.39,0.47 -6.40,-0.64 -6.05,-1.71 -5.71,-2.77 -5.04,-3.67 -4.37,-4.56 -3.45,-5.20 -2.54,-5.84 -1.46,-6.15 -0.39,-6.46 0.72,-6.41 1.84,-6.36 2.88,-5.96 3.92,-5.56 4.78,-4.84 5.64,-4.13 6.23,-3.18 6.82,-2.22 7.07,-1.13 7.32,-0.05 7.21,1.06 7.10,2.17 6.64,3.19 6.19,4.21 5.43,5.03 4.66,5.85 3.68,6.38 2.70,6.92 1.60,7.11 0.50,7.30 -0.60,7.14 -1.70,6.97 -2.70,6.45 -3.69,5.94 -4.47,5.14 -5.25,4.33 -5.73,3.32 -6.21,2.31 -6.34,1.20 -6.47,0.09 -6.24,-0.99 -6.01,-2.09 -5.45,-3.05 -4.88,-4.02 -4.04,-4.75 -3.19,-5.48 -2.16,-5.91 -1.12,-6.33 -0.01,-6.40 1.10,-6.48 2.18,-6.19 3.26,-5.90 4.19,-5.28 5.12,-4.67 5.12,-4.67 5.12,-4.67 6.06,-3.48 7.00,-2.29 9.13,-1.52 11.26,-0.74 14.28,0.82 17.30,2.39 19.42,5.77 21.53,9.14 21.69,12.92 21.86,16.70 20.13,19.77 18.41,22.85 15.89,24.68 13.37,26.51 10.69,27.60 8.00,28.69 5.27,28.49 2.54,28.28 -1.00,26.47 -4.55,24.65 -6.55,21.11 -8.55,17.57 -8.49,13.21 -8.44,8.85 -7.76,6.10 -7.08,3.34 -5.96,0.63 -4.84,-2.07 -4.52,-2.62 -4.20,-3.17 -3.76,-3.63 -3.32,-4.09 -2.78,-4.43 -2.25,-4.76 -1.64,-4.96 -1.04,-5.16 -0.41,-5.21 0.22,-5.26 0.85,-5.16 1.47,-5.06 2.06,-4.81 2.64,-4.56 3.15,-4.17 3.66,-3.79 4.06,-3.30 4.46,-2.80 4.73,-2.23 5.00,-1.65 5.13,-1.03 5.25,-0.41 5.23,0.22 5.20,0.85 5.02,1.46 4.84,2.07 4.84,2.07 L 4.84,2.07 Z"></path></g><g transform="translate(16.67366957060267 28.6862747976877) rotate(0 14.014746831112348 21.355742625928826)" stroke="none"><path fill="#1e1e1e" d="M 4.56,1.01 Q 4.56,1.01 3.71,4.44 2.85,7.88 1.93,11.88 1.01,15.89 0.80,18.68 0.60,21.47 0.03,25.09 -0.52,28.71 -0.62,31.25 -0.72,33.79 -0.69,35.99 -0.66,38.18 -0.66,41.01 -0.67,43.84 -0.49,47.81 -0.31,51.78 -0.13,54.46 0.03,57.15 0.04,57.22 0.05,57.29 -0.02,57.93 -0.10,58.58 -0.33,59.19 -0.56,59.79 -0.93,60.33 -1.30,60.86 -1.79,61.29 -2.28,61.72 -2.85,62.02 -3.43,62.32 -4.06,62.48 -4.69,62.63 -5.34,62.63 -5.99,62.63 -6.62,62.48 -7.25,62.32 -7.83,62.02 -8.40,61.71 -8.89,61.28 -9.37,60.85 -9.74,60.32 -10.11,59.78 -10.34,59.17 -10.57,58.57 -10.64,57.92 -10.72,57.28 -11.41,55.21 -12.09,53.15 -11.80,50.32 -11.51,47.49 -11.43,44.37 -11.35,41.24 -11.20,38.22 -11.05,35.20 -10.57,32.00 -10.08,28.80 -9.17,24.59 -8.26,20.39 -7.54,16.92 -6.82,13.44 -5.07,9.09 -3.32,4.73 -2.38,1.82 -1.45,-1.08 0.25,-4.48 1.97,-7.87 3.45,-10.28 4.94,-12.69 6.80,-14.99 8.65,-17.28 10.58,-18.98 12.50,-20.67 15.04,-21.37 17.59,-22.06 19.68,-21.64 21.78,-21.21 24.02,-19.31 26.26,-17.40 27.33,-15.32 28.40,-13.24 29.11,-10.88 29.82,-8.51 29.83,-5.58 29.83,-2.66 29.73,0.00 29.63,2.67 29.19,5.43 28.76,8.18 27.64,11.44 26.53,14.70 25.73,16.87 24.93,19.04 22.53,23.41 20.12,27.77 17.18,31.52 14.23,35.27 12.51,36.58 10.79,37.90 7.78,39.52 4.77,41.15 3.99,41.34 3.22,41.53 2.50,41.69 1.79,41.85 1.06,41.84 0.33,41.82 -0.37,41.64 -1.08,41.45 -1.72,41.10 -2.36,40.74 -2.90,40.25 -3.43,39.75 -3.84,39.14 -4.24,38.53 -4.49,37.84 -4.74,37.16 -4.81,36.43 -4.89,35.70 -4.78,34.98 -4.68,34.25 -4.41,33.57 -4.14,32.89 -3.71,32.30 -3.28,31.71 -2.73,31.23 -2.17,30.76 -1.52,30.43 -0.86,30.10 1.29,29.99 3.45,29.89 6.48,30.36 9.51,30.82 12.90,32.05 16.29,33.28 18.42,34.50 20.55,35.72 23.38,37.40 26.21,39.08 29.07,42.10 31.93,45.12 33.01,47.34 34.09,49.56 35.41,51.64 36.72,53.72 37.98,55.15 39.24,56.59 39.80,57.49 40.36,58.40 40.60,59.43 40.84,60.47 40.74,61.53 40.64,62.59 40.20,63.56 39.77,64.53 39.04,65.31 38.32,66.09 37.39,66.60 36.46,67.12 35.41,67.30 34.36,67.49 33.31,67.33 32.26,67.17 31.31,66.68 30.36,66.20 29.62,65.43 28.88,64.67 28.42,63.71 27.96,62.75 27.83,61.69 27.71,60.64 27.92,59.59 28.14,58.55 28.67,57.63 29.21,56.71 30.01,56.02 30.82,55.32 31.80,54.91 32.78,54.50 33.84,54.43 34.91,54.36 35.94,54.63 36.96,54.91 37.85,55.49 38.74,56.08 39.39,56.92 40.05,57.76 40.40,58.76 40.75,59.76 40.77,60.83 40.78,61.89 40.45,62.91 40.13,63.92 39.49,64.77 38.86,65.63 37.99,66.24 37.11,66.84 36.09,67.14 35.07,67.44 34.01,67.39 32.94,67.35 31.95,66.97 30.96,66.59 30.14,65.91 29.32,65.23 29.32,65.23 29.32,65.23 27.31,62.66 25.31,60.08 23.84,57.51 22.37,54.94 20.58,52.22 18.79,49.50 16.51,48.07 14.23,46.64 11.57,45.26 8.91,43.87 6.06,42.70 3.22,41.53 2.50,41.69 1.79,41.85 1.06,41.84 0.33,41.82 -0.37,41.64 -1.08,41.45 -1.72,41.10 -2.36,40.74 -2.90,40.25 -3.43,39.75 -3.84,39.14 -4.24,38.53 -4.49,37.85 -4.74,37.16 -4.81,36.43 -4.89,35.70 -4.78,34.98 -4.68,34.25 -4.41,33.57 -4.14,32.90 -3.71,32.30 -3.28,31.71 -2.73,31.23 -2.17,30.76 -1.52,30.43 -0.86,30.10 0.43,29.94 1.73,29.77 4.09,28.40 6.44,27.03 8.65,24.37 10.87,21.71 12.08,19.86 13.30,18.02 14.79,14.70 16.29,11.39 17.43,6.91 18.57,2.43 18.85,-1.62 19.12,-5.68 17.31,-8.52 15.49,-11.36 13.83,-9.56 12.17,-7.76 10.78,-5.96 9.40,-4.16 7.97,-1.25 6.55,1.64 5.51,4.53 4.48,7.41 3.40,11.28 2.32,15.15 1.81,18.38 1.29,21.62 1.10,25.97 0.91,30.32 0.61,32.82 0.31,35.31 0.31,40.45 0.31,45.59 -0.31,49.11 -0.93,52.63 -0.44,54.96 0.05,57.29 -0.02,57.93 -0.10,58.58 -0.33,59.19 -0.56,59.79 -0.93,60.33 -1.30,60.86 -1.79,61.29 -2.28,61.72 -2.85,62.02 -3.43,62.32 -4.06,62.48 -4.69,62.63 -5.34,62.63 -5.99,62.63 -6.62,62.48 -7.25,62.32 -7.82,62.02 -8.40,61.71 -8.89,61.28 -9.37,60.85 -9.74,60.32 -10.11,59.78 -10.34,59.17 -10.57,58.57 -10.64,57.92 -10.72,57.28 -10.71,57.21 -10.70,57.13 -10.52,54.44 -10.34,51.75 -10.11,47.73 -9.89,43.71 -9.81,40.77 -9.73,37.82 -9.52,35.45 -9.30,33.09 -8.97,30.32 -8.63,27.54 -8.17,24.08 -7.72,20.61 -7.32,17.57 -6.92,14.53 -6.42,10.23 -5.92,5.93 -5.24,2.45 -4.56,-1.01 -4.37,-1.54 -4.19,-2.07 -3.88,-2.55 -3.57,-3.02 -3.15,-3.40 -2.74,-3.78 -2.25,-4.06 -1.75,-4.33 -1.21,-4.48 -0.67,-4.63 -0.10,-4.64 0.45,-4.65 1.00,-4.53 1.55,-4.41 2.06,-4.16 2.56,-3.91 2.99,-3.54 3.43,-3.18 3.76,-2.72 4.09,-2.26 4.30,-1.74 4.51,-1.22 4.59,-0.66 4.67,-0.10 4.62,0.45 4.56,1.01 4.56,1.01 L 4.56,1.01 Z"></path></g><g transform="translate(94.08823658959466 20.6778713129645) rotate(0 -14.014706098265776 34.70308176713428)" stroke="none"><path fill="#1e1e1e" d="M 3.26,1.81 Q 3.26,1.81 1.28,5.23 -0.69,8.65 -2.26,11.12 -3.82,13.59 -5.12,16.80 -6.42,20.02 -7.79,22.92 -9.15,25.82 -10.52,29.37 -11.89,32.92 -15.66,43.69 -19.43,54.46 -21.07,59.03 -22.72,63.61 -22.96,64.06 -23.20,64.52 -23.57,64.87 -23.95,65.22 -24.41,65.44 -24.88,65.66 -25.39,65.71 -25.90,65.77 -26.41,65.66 -26.91,65.55 -27.35,65.28 -27.79,65.02 -28.13,64.62 -28.46,64.23 -28.65,63.75 -28.84,63.28 -28.87,62.76 -28.90,62.25 -28.76,61.75 -28.62,61.26 -28.33,60.83 -28.04,60.41 -27.63,60.09 -27.23,59.78 -26.74,59.62 -26.25,59.45 -25.74,59.45 -25.22,59.45 -24.73,59.62 -24.25,59.78 -23.84,60.09 -23.43,60.40 -23.14,60.83 -22.85,61.26 -22.71,61.75 -22.57,62.25 -22.60,62.76 -22.63,63.27 -22.82,63.75 -23.01,64.23 -23.34,64.62 -23.67,65.02 -24.12,65.28 -24.56,65.55 -25.06,65.66 -25.56,65.77 -26.07,65.71 -26.58,65.66 -27.05,65.44 -27.52,65.22 -27.89,64.87 -28.27,64.52 -28.51,64.06 -28.75,63.61 -28.83,63.10 -28.91,62.59 -28.83,62.08 -28.75,61.58 -28.75,61.58 -28.75,61.58 -27.30,56.94 -25.85,52.30 -22.32,41.39 -18.80,30.48 -17.46,26.37 -16.12,22.26 -14.73,19.77 -13.33,17.27 -11.75,13.21 -10.18,9.15 -8.57,7.16 -6.97,5.16 -5.12,1.67 -3.26,-1.81 -3.00,-2.17 -2.73,-2.54 -2.39,-2.83 -2.04,-3.12 -1.64,-3.32 -1.24,-3.52 -0.80,-3.62 -0.36,-3.71 0.08,-3.70 0.53,-3.69 0.97,-3.58 1.40,-3.46 1.80,-3.24 2.19,-3.02 2.52,-2.71 2.85,-2.41 3.10,-2.03 3.34,-1.65 3.49,-1.23 3.64,-0.80 3.69,-0.35 3.73,0.08 3.67,0.53 3.60,0.98 3.43,1.39 3.26,1.81 3.26,1.81 L 3.26,1.81 Z"></path></g><g transform="translate(103.43145545413154 95.4229705037153) rotate(0 49.385114089613865 -32.03361393889321)" stroke="none"><path fill="#1e1e1e" d="M -1.65,-4.96 Q -1.65,-4.96 0.64,-5.75 2.94,-6.55 5.49,-7.03 8.03,-7.51 11.65,-8.38 15.26,-9.26 17.36,-9.70 19.45,-10.15 21.89,-10.42 24.32,-10.69 26.94,-10.78 29.55,-10.87 32.80,-11.02 36.05,-11.18 38.06,-11.29 40.06,-11.40 40.79,-11.32 41.51,-11.24 42.20,-10.98 42.89,-10.72 43.49,-10.31 44.10,-9.90 44.58,-9.35 45.07,-8.81 45.42,-8.16 45.76,-7.52 45.94,-6.81 46.12,-6.10 46.12,-5.36 46.13,-4.63 45.96,-3.92 45.79,-3.21 45.45,-2.56 45.11,-1.91 44.63,-1.36 44.15,-0.81 43.55,-0.39 42.95,0.02 42.27,0.29 41.58,0.55 40.86,0.64 40.13,0.73 38.14,-1.02 36.16,-2.79 34.00,-3.77 31.85,-4.74 29.54,-8.53 27.22,-12.31 26.74,-14.39 26.26,-16.48 26.47,-21.45 26.69,-26.43 27.30,-28.96 27.91,-31.49 29.15,-34.87 30.39,-38.25 31.25,-40.82 32.12,-43.40 34.45,-46.92 36.78,-50.44 37.89,-52.42 39.00,-54.40 41.38,-57.14 43.75,-59.87 45.64,-61.61 47.53,-63.35 49.83,-64.70 52.12,-66.05 56.30,-67.12 60.48,-68.19 62.86,-66.87 65.23,-65.54 66.44,-60.47 67.65,-55.40 66.61,-50.75 65.56,-46.09 64.23,-41.71 62.89,-37.33 62.58,-34.49 62.28,-31.64 64.35,-29.94 66.43,-28.24 70.36,-26.88 74.29,-25.53 77.89,-24.77 81.50,-24.01 85.61,-23.31 89.73,-22.60 92.25,-22.47 94.78,-22.33 96.46,-22.31 98.14,-22.30 99.14,-22.11 100.14,-21.92 101.02,-21.42 101.90,-20.91 102.58,-20.16 103.25,-19.40 103.65,-18.47 104.05,-17.54 104.13,-16.53 104.21,-15.52 103.97,-14.53 103.72,-13.55 103.17,-12.69 102.62,-11.84 101.83,-11.21 101.04,-10.57 100.09,-10.22 99.14,-9.88 98.12,-9.85 97.11,-9.82 96.14,-10.12 95.17,-10.42 94.35,-11.02 93.52,-11.61 92.93,-12.43 92.34,-13.26 92.05,-14.23 91.75,-15.20 91.78,-16.21 91.81,-17.23 92.16,-18.18 92.51,-19.13 93.15,-19.92 93.79,-20.71 94.64,-21.25 95.50,-21.80 96.48,-22.04 97.47,-22.28 98.48,-22.20 99.49,-22.12 100.42,-21.71 101.35,-21.31 102.10,-20.63 102.86,-19.95 103.36,-19.07 103.85,-18.19 104.04,-17.19 104.23,-16.19 104.09,-15.19 103.95,-14.18 103.50,-13.28 103.05,-12.37 102.33,-11.65 101.61,-10.94 100.70,-10.49 99.79,-10.04 98.79,-9.90 97.78,-9.77 97.78,-9.77 97.79,-9.77 94.54,-10.00 91.30,-10.23 87.68,-10.93 84.05,-11.64 79.58,-12.37 75.11,-13.10 72.99,-13.50 70.86,-13.90 68.26,-14.63 65.66,-15.36 63.54,-16.16 61.41,-16.97 57.38,-20.01 53.34,-23.05 51.83,-27.87 50.32,-32.68 50.56,-34.96 50.81,-37.24 52.09,-41.23 53.37,-45.23 53.82,-47.42 54.27,-49.61 55.74,-53.06 57.20,-56.50 54.43,-54.82 51.66,-53.14 49.96,-51.07 48.26,-49.01 47.01,-46.91 45.76,-44.81 44.33,-42.34 42.91,-39.87 42.17,-37.38 41.42,-34.89 40.25,-29.85 39.07,-24.82 38.89,-21.88 38.71,-18.93 39.61,-16.35 40.50,-13.76 42.24,-11.59 43.97,-9.41 42.01,-10.41 40.06,-11.40 40.79,-11.32 41.51,-11.24 42.20,-10.98 42.89,-10.72 43.49,-10.31 44.10,-9.90 44.58,-9.35 45.07,-8.81 45.42,-8.16 45.76,-7.52 45.94,-6.81 46.12,-6.10 46.12,-5.37 46.13,-4.63 45.96,-3.92 45.79,-3.21 45.45,-2.56 45.11,-1.91 44.63,-1.36 44.15,-0.81 43.55,-0.39 42.95,0.02 42.27,0.29 41.58,0.55 40.86,0.64 40.13,0.73 38.14,0.64 36.16,0.55 33.05,0.50 29.95,0.44 25.83,0.66 21.71,0.88 17.77,1.46 13.83,2.04 10.05,2.76 6.26,3.48 3.95,4.22 1.65,4.96 1.03,5.08 0.41,5.21 -0.21,5.18 -0.84,5.16 -1.44,4.98 -2.05,4.81 -2.59,4.49 -3.14,4.18 -3.59,3.74 -4.05,3.30 -4.39,2.77 -4.72,2.24 -4.92,1.64 -5.12,1.04 -5.17,0.41 -5.22,-0.21 -5.12,-0.83 -5.02,-1.45 -4.77,-2.03 -4.52,-2.61 -4.14,-3.12 -3.77,-3.62 -3.28,-4.02 -2.79,-4.42 -2.22,-4.69 -1.65,-4.96 -1.65,-4.96 L -1.65,-4.96 Z"></path></g><g transform="translate(1065.7745260693557 987.0252251362429) rotate(0 30.69888002477262 -6.006302613542516)" stroke="none"><path fill="#1e1e1e" d="M -1.18,-4.13 Q -1.18,-4.13 1.48,-4.97 4.15,-5.80 6.72,-6.30 9.30,-6.79 13.10,-8.02 16.90,-9.25 20.75,-9.81 24.59,-10.37 27.57,-11.00 30.54,-11.62 39.28,-12.80 48.02,-13.99 51.68,-14.53 55.34,-15.07 55.99,-15.08 56.64,-15.08 57.26,-14.87 57.87,-14.66 58.39,-14.27 58.91,-13.88 59.28,-13.34 59.64,-12.81 59.82,-12.18 59.99,-11.55 59.96,-10.90 59.93,-10.25 59.69,-9.65 59.45,-9.05 59.03,-8.55 58.61,-8.05 58.05,-7.72 57.50,-7.38 56.86,-7.24 56.23,-7.10 55.58,-7.17 54.93,-7.23 54.34,-7.51 53.75,-7.78 53.28,-8.22 52.80,-8.67 52.50,-9.24 52.19,-9.82 52.09,-10.46 51.98,-11.10 52.08,-11.74 52.19,-12.38 52.49,-12.96 52.79,-13.53 53.26,-13.98 53.74,-14.43 54.32,-14.70 54.91,-14.98 55.56,-15.05 56.21,-15.12 56.84,-14.98 57.48,-14.85 58.04,-14.51 58.59,-14.18 59.02,-13.68 59.44,-13.19 59.68,-12.59 59.92,-11.98 59.96,-11.33 59.99,-10.68 59.82,-10.06 59.65,-9.43 59.29,-8.89 58.92,-8.35 58.41,-7.96 57.89,-7.56 57.27,-7.35 56.66,-7.14 56.66,-7.14 56.66,-7.14 53.02,-6.47 49.38,-5.80 40.95,-4.12 32.51,-2.45 29.39,-1.76 26.27,-1.07 23.00,-0.35 19.73,0.36 17.54,0.91 15.36,1.47 10.97,2.10 6.58,2.73 3.88,3.43 1.18,4.13 0.67,4.22 0.15,4.30 -0.35,4.25 -0.87,4.21 -1.36,4.04 -1.85,3.88 -2.29,3.60 -2.73,3.32 -3.09,2.94 -3.45,2.57 -3.70,2.12 -3.96,1.67 -4.10,1.17 -4.25,0.67 -4.27,0.15 -4.28,-0.36 -4.18,-0.87 -4.07,-1.37 -3.85,-1.84 -3.63,-2.31 -3.30,-2.71 -2.97,-3.11 -2.55,-3.42 -2.13,-3.73 -1.66,-3.93 -1.18,-4.13 -1.18,-4.13 L -1.18,-4.13 Z"></path></g><g transform="translate(1109.8207452353338 975.0126199091578) rotate(0 -4.004201742361602 31.366246981832944)" stroke="none"><path fill="#1e1e1e" d="M 3.93,2.80 Q 3.93,2.80 1.97,5.44 0.01,8.08 -0.95,10.62 -1.92,13.16 -2.04,17.60 -2.15,22.04 -2.01,24.52 -1.87,26.99 -1.91,30.36 -1.95,33.73 -1.53,35.95 -1.11,38.17 -0.69,42.65 -0.28,47.12 -0.09,50.82 0.09,54.51 -0.01,59.72 -0.11,64.92 -0.66,65.66 -1.20,66.39 -1.95,66.92 -2.70,67.44 -3.58,67.69 -4.45,67.95 -5.37,67.91 -6.28,67.88 -7.13,67.55 -7.99,67.22 -8.69,66.64 -9.39,66.06 -9.88,65.28 -10.36,64.50 -10.56,63.61 -10.77,62.72 -10.69,61.81 -10.60,60.90 -10.23,60.07 -9.85,59.24 -9.23,58.56 -8.61,57.89 -7.81,57.45 -7.01,57.02 -6.11,56.86 -5.21,56.70 -4.31,56.83 -3.40,56.97 -2.59,57.39 -1.78,57.80 -1.14,58.46 -0.50,59.11 -0.11,59.94 0.28,60.76 0.39,61.67 0.50,62.58 0.31,63.47 0.13,64.37 -0.32,65.16 -0.79,65.94 -1.47,66.55 -2.16,67.15 -3.01,67.50 -3.85,67.84 -4.76,67.91 -5.68,67.97 -6.56,67.73 -7.44,67.50 -8.21,67.00 -8.97,66.49 -9.53,65.77 -10.09,65.05 -10.40,64.19 -10.70,63.33 -10.71,62.42 -10.72,61.50 -10.44,60.63 -10.16,59.76 -10.16,59.76 -10.16,59.76 -10.08,59.42 -10.00,59.07 -10.40,56.86 -10.80,54.66 -10.70,51.05 -10.60,47.44 -10.67,43.55 -10.73,39.66 -11.10,36.75 -11.48,33.84 -11.58,30.56 -11.68,27.28 -11.68,24.93 -11.68,22.58 -11.80,19.02 -11.92,15.46 -11.23,12.64 -10.54,9.81 -9.11,6.24 -7.68,2.66 -5.81,-0.07 -3.93,-2.80 -3.53,-3.23 -3.14,-3.66 -2.66,-3.99 -2.17,-4.31 -1.62,-4.51 -1.08,-4.71 -0.50,-4.77 0.07,-4.83 0.65,-4.75 1.23,-4.67 1.77,-4.45 2.31,-4.24 2.78,-3.90 3.26,-3.56 3.64,-3.12 4.02,-2.68 4.28,-2.16 4.54,-1.64 4.67,-1.07 4.80,-0.50 4.79,0.07 4.78,0.66 4.63,1.22 4.49,1.78 4.21,2.29 3.93,2.80 3.93,2.80 L 3.93,2.80 Z"></path></g><g transform="translate(1185.9005783402051 964.3347485961934) rotate(0 -15.349440012386253 31.366246981832944)" stroke="none"><path fill="#1e1e1e" d="M 2.76,2.76 Q 2.76,2.76 0.03,5.40 -2.69,8.05 -4.40,10.27 -6.12,12.50 -8.48,15.59 -10.83,18.67 -11.99,21.34 -13.14,24.01 -14.46,26.59 -15.78,29.17 -17.57,32.66 -19.36,36.16 -21.67,43.93 -23.99,51.70 -24.91,55.15 -25.84,58.60 -26.09,59.12 -26.33,59.64 -26.73,60.06 -27.12,60.48 -27.63,60.75 -28.14,61.01 -28.71,61.11 -29.28,61.20 -29.84,61.10 -30.41,61.01 -30.92,60.74 -31.43,60.47 -31.82,60.05 -32.22,59.63 -32.46,59.11 -32.70,58.58 -32.76,58.01 -32.82,57.44 -32.70,56.88 -32.57,56.32 -32.27,55.82 -31.97,55.33 -31.53,54.96 -31.10,54.59 -30.56,54.38 -30.02,54.16 -29.45,54.13 -28.87,54.10 -28.32,54.26 -27.77,54.41 -27.29,54.74 -26.82,55.06 -26.47,55.52 -26.12,55.98 -25.94,56.53 -25.76,57.07 -25.76,57.65 -25.76,58.22 -25.94,58.77 -26.13,59.31 -26.48,59.77 -26.83,60.23 -27.31,60.55 -27.78,60.87 -28.34,61.03 -28.89,61.18 -29.47,61.15 -30.04,61.11 -30.58,60.90 -31.11,60.68 -31.55,60.31 -31.99,59.94 -32.28,59.44 -32.58,58.95 -32.70,58.39 -32.82,57.82 -32.76,57.25 -32.69,56.68 -32.69,56.68 -32.69,56.68 -31.69,53.25 -30.69,49.82 -28.47,41.39 -26.25,32.96 -24.58,29.05 -22.92,25.13 -21.53,22.92 -20.14,20.71 -18.53,17.53 -16.92,14.34 -14.59,10.87 -12.25,7.40 -10.15,5.05 -8.05,2.69 -5.40,-0.03 -2.76,-2.76 -2.39,-3.05 -2.02,-3.34 -1.59,-3.53 -1.16,-3.73 -0.69,-3.81 -0.23,-3.90 0.23,-3.87 0.70,-3.84 1.15,-3.70 1.60,-3.56 2.00,-3.32 2.41,-3.07 2.74,-2.74 3.07,-2.41 3.32,-2.00 3.56,-1.60 3.70,-1.15 3.84,-0.70 3.87,-0.23 3.90,0.23 3.81,0.69 3.73,1.16 3.53,1.59 3.34,2.02 3.05,2.39 2.76,2.76 2.76,2.76 L 2.76,2.76 Z"></path></g><g transform="translate(1241.9594027332685 965.669482510314) rotate(0 -10.010504355904231 10.010504355904175)" stroke="none"><path fill="#1e1e1e" d="M 0,5.30 Q 0,5.30 -2.67,5.29 -5.35,5.29 -8.05,6.44 -10.75,7.59 -12.25,9.19 -13.74,10.79 -14.01,13.27 -14.28,15.75 -12.22,14.99 -10.15,14.22 -7.85,13.13 -5.54,12.04 -3.68,11.68 -1.81,11.32 -2.88,11.66 -3.95,11.99 -5.08,11.96 -6.20,11.94 -7.25,11.56 -8.30,11.17 -9.18,10.48 -10.06,9.78 -10.67,8.84 -11.27,7.89 -11.55,6.81 -11.83,5.72 -11.74,4.60 -11.65,3.48 -11.22,2.45 -10.78,1.42 -10.03,0.58 -9.29,-0.25 -8.31,-0.80 -7.34,-1.36 -6.24,-1.57 -5.14,-1.79 -4.03,-1.64 -2.92,-1.50 -1.91,-1.00 -0.90,-0.51 -0.11,0.27 0.68,1.06 1.18,2.06 1.69,3.06 1.84,4.17 2.00,5.28 1.79,6.39 1.58,7.49 1.04,8.47 0.49,9.45 -0.33,10.20 -1.16,10.95 -2.19,11.40 -3.22,11.84 -4.34,11.94 -5.45,12.04 -6.54,11.77 -7.63,11.50 -8.58,10.90 -9.53,10.31 -10.23,9.43 -10.94,8.56 -11.33,7.51 -11.72,6.46 -11.76,5.34 -11.79,4.22 -11.47,3.15 -11.14,2.07 -10.49,1.16 -9.84,0.25 -8.93,-0.40 -8.03,-1.06 -8.03,-1.06 -8.03,-1.06 -3.41,-1.42 1.20,-1.78 3.93,0.82 6.66,3.42 7.32,5.64 7.97,7.87 7.71,10.79 7.45,13.71 6.29,16.37 5.13,19.03 2.63,21.57 0.13,24.11 -3.47,25.44 -7.08,26.77 -11.27,26.88 -15.46,27.00 -17.63,26.20 -19.80,25.40 -21.50,24.06 -23.20,22.72 -24.70,18.80 -26.21,14.88 -25.42,11.34 -24.63,7.80 -23.56,5.65 -22.49,3.50 -18.98,0.58 -15.47,-2.33 -12.88,-3.43 -10.29,-4.53 -7.84,-4.91 -5.39,-5.29 -2.69,-5.29 0,-5.30 0.63,-5.23 1.27,-5.15 1.86,-4.92 2.46,-4.70 2.99,-4.33 3.52,-3.97 3.94,-3.49 4.36,-3.01 4.66,-2.44 4.96,-1.88 5.11,-1.26 5.26,-0.63 5.26,0.00 5.26,0.64 5.11,1.26 4.96,1.88 4.66,2.44 4.36,3.01 3.94,3.49 3.51,3.97 2.99,4.33 2.46,4.70 1.86,4.92 1.26,5.15 0.63,5.23 -0.00,5.30 -0.00,5.30 L 0,5.30 Z"></path></g><g transform="translate(1283.3361540710055 977.682087737399) rotate(0 -8.675770441783584 29.3641868434986)" stroke="none"><path fill="#1e1e1e" d="M 0.83,4.18 Q 0.83,4.18 -3.01,4.82 -6.87,5.45 -10.08,6.74 -13.29,8.03 -15.75,9.43 -18.21,10.83 -20.98,13.03 -23.76,15.23 -25.58,17.34 -27.40,19.45 -28.84,21.48 -30.29,23.52 -32.03,26.43 -33.77,29.33 -34.27,31.46 -34.78,33.59 -35.04,36.53 -35.31,39.46 -33.88,43.39 -32.44,47.31 -29.11,49.72 -25.79,52.12 -20.77,52.95 -15.74,53.77 -13.42,53.46 -11.10,53.16 -5.50,51.84 0.10,50.52 2.48,49.41 4.86,48.31 8.30,46.82 11.74,45.32 13.67,43.93 15.59,42.53 17.05,40.79 18.51,39.05 19.10,38.60 19.70,38.15 20.41,37.91 21.12,37.68 21.87,37.68 22.62,37.68 23.33,37.93 24.04,38.17 24.63,38.63 25.23,39.08 25.64,39.71 26.06,40.33 26.25,41.05 26.45,41.77 26.41,42.52 26.36,43.27 26.08,43.96 25.80,44.66 25.31,45.22 24.82,45.79 24.18,46.17 23.54,46.56 22.80,46.71 22.07,46.87 21.33,46.78 20.58,46.70 19.91,46.38 19.23,46.06 18.69,45.54 18.15,45.03 17.80,44.36 17.45,43.70 17.34,42.96 17.22,42.22 17.35,41.48 17.47,40.74 17.83,40.08 18.18,39.42 18.73,38.91 19.27,38.40 19.95,38.09 20.64,37.78 21.38,37.70 22.13,37.63 22.86,37.79 23.59,37.96 24.22,38.35 24.86,38.74 25.35,39.31 25.83,39.88 26.10,40.58 26.37,41.28 26.41,42.03 26.45,42.77 26.24,43.49 26.04,44.21 25.61,44.83 25.19,45.45 25.19,45.45 25.19,45.45 22.84,47.67 20.50,49.90 17.96,51.44 15.42,52.99 11.95,54.80 8.48,56.61 5.44,57.87 2.40,59.13 -1.34,60.29 -5.09,61.45 -7.68,61.89 -10.28,62.34 -13.40,62.52 -16.52,62.70 -20.74,62.40 -24.97,62.10 -27.83,61.01 -30.69,59.91 -34.13,57.66 -37.57,55.40 -39.12,53.21 -40.66,51.02 -42.09,47.52 -43.52,44.01 -43.65,41.34 -43.78,38.66 -43.37,34.86 -42.97,31.06 -41.90,28.17 -40.83,25.29 -38.88,21.81 -36.92,18.33 -35.07,16.18 -33.23,14.02 -30.92,11.69 -28.61,9.36 -25.29,6.54 -21.97,3.72 -19.11,2.33 -16.25,0.94 -12.36,-0.72 -8.47,-2.38 -4.65,-3.28 -0.83,-4.18 -0.32,-4.22 0.18,-4.25 0.69,-4.17 1.20,-4.09 1.67,-3.88 2.14,-3.68 2.55,-3.37 2.96,-3.06 3.28,-2.66 3.61,-2.26 3.83,-1.79 4.04,-1.33 4.15,-0.82 4.25,-0.32 4.22,0.18 4.20,0.70 4.06,1.19 3.91,1.68 3.65,2.13 3.39,2.57 3.04,2.94 2.68,3.31 2.24,3.58 1.81,3.85 1.32,4.02 0.83,4.18 0.83,4.18 L 0.83,4.18 Z"></path></g><g transform="translate(411.75490815028616 744.1036527663026) rotate(0 12.6800129169917 -2.6694678282410678)" stroke="none"><path fill="#1e1e1e" d="M -0.95,-4.77 Q -0.95,-4.77 0.94,-5.25 2.84,-5.72 6.01,-6.66 9.19,-7.60 14.19,-8.56 19.19,-9.51 20.71,-9.85 22.23,-10.19 23.09,-10.19 23.95,-10.19 24.76,-9.92 25.57,-9.64 26.25,-9.12 26.93,-8.60 27.41,-7.89 27.89,-7.18 28.12,-6.36 28.35,-5.53 28.30,-4.68 28.25,-3.82 27.94,-3.02 27.62,-2.23 27.06,-1.58 26.51,-0.92 25.77,-0.48 25.04,-0.04 24.20,0.13 23.36,0.32 22.51,0.22 21.66,0.13 20.88,-0.22 20.11,-0.58 19.48,-1.17 18.86,-1.76 18.46,-2.52 18.06,-3.28 17.92,-4.12 17.79,-4.97 17.93,-5.82 18.07,-6.66 18.47,-7.42 18.87,-8.17 19.49,-8.76 20.12,-9.35 20.89,-9.71 21.67,-10.07 22.52,-10.16 23.38,-10.25 24.21,-10.07 25.05,-9.88 25.78,-9.44 26.52,-9.00 27.07,-8.34 27.63,-7.69 27.94,-6.89 28.26,-6.10 28.30,-5.24 28.35,-4.38 28.12,-3.56 27.89,-2.73 27.41,-2.02 26.92,-1.32 26.24,-0.80 25.56,-0.28 24.75,-0.01 23.93,0.25 23.93,0.25 23.93,0.25 22.38,0.42 20.83,0.58 17.77,1.23 14.70,1.89 11.93,2.52 9.16,3.15 6.99,3.67 4.82,4.19 2.89,4.48 0.95,4.77 0.36,4.82 -0.21,4.86 -0.79,4.76 -1.37,4.67 -1.91,4.44 -2.45,4.20 -2.92,3.85 -3.38,3.49 -3.75,3.04 -4.12,2.58 -4.37,2.05 -4.62,1.52 -4.74,0.94 -4.85,0.37 -4.83,-0.21 -4.80,-0.80 -4.63,-1.36 -4.47,-1.92 -4.17,-2.43 -3.88,-2.94 -3.47,-3.36 -3.06,-3.78 -2.56,-4.09 -2.07,-4.40 -1.51,-4.59 -0.95,-4.77 -0.95,-4.77 L -0.95,-4.77 Z"></path></g><g transform="translate(426.43698120561214 725.4173779686149) rotate(0 -0.6673262242137525 14.682073055326043)" stroke="none"><path fill="#1e1e1e" d="M 4.80,0.96 Q 4.80,0.96 4.50,2.89 4.21,4.83 4.20,7.48 4.18,10.14 4.28,12.94 4.37,15.73 4.44,19.39 4.51,23.05 4.76,24.72 5.01,26.38 4.95,27.23 4.89,28.08 4.57,28.87 4.24,29.66 3.68,30.31 3.12,30.95 2.38,31.38 1.65,31.81 0.81,31.98 -0.01,32.16 -0.86,32.05 -1.71,31.95 -2.48,31.58 -3.25,31.21 -3.86,30.62 -4.47,30.03 -4.86,29.27 -5.25,28.51 -5.38,27.66 -5.51,26.82 -5.36,25.98 -5.21,25.14 -4.80,24.39 -4.39,23.64 -3.76,23.06 -3.14,22.48 -2.36,22.14 -1.58,21.79 -0.73,21.71 0.11,21.62 0.94,21.82 1.77,22.01 2.50,22.46 3.22,22.91 3.77,23.57 4.31,24.22 4.62,25.02 4.92,25.82 4.96,26.67 4.99,27.52 4.75,28.34 4.52,29.16 4.03,29.86 3.54,30.56 2.85,31.07 2.17,31.58 1.36,31.84 0.54,32.10 -0.30,32.09 -1.15,32.08 -1.96,31.80 -2.76,31.51 -3.44,30.99 -4.11,30.46 -4.58,29.75 -5.05,29.04 -5.27,28.22 -5.48,27.39 -5.48,27.39 -5.48,27.39 -5.56,25.71 -5.63,24.03 -6.32,19.82 -7.00,15.61 -6.83,12.61 -6.65,9.62 -6.19,6.23 -5.74,2.84 -5.27,0.94 -4.80,-0.96 -4.61,-1.52 -4.43,-2.08 -4.11,-2.58 -3.80,-3.08 -3.38,-3.49 -2.95,-3.90 -2.44,-4.19 -1.93,-4.49 -1.37,-4.66 -0.80,-4.82 -0.21,-4.85 0.37,-4.88 0.95,-4.76 1.53,-4.64 2.06,-4.39 2.60,-4.14 3.05,-3.77 3.51,-3.40 3.87,-2.93 4.22,-2.46 4.46,-1.92 4.69,-1.38 4.79,-0.79 4.89,-0.21 4.84,0.37 4.80,0.96 4.80,0.96 L 4.80,0.96 Z"></path></g><g transform="translate(427.7717151197328 926.962199000818) rotate(0 -1.3346931812740763 13.347379874052024)" stroke="none"><path fill="#1e1e1e" d="M 4.91,1.96 Q 4.91,1.96 4.20,3.90 3.48,5.84 3.34,9.28 3.21,12.73 3.24,16.10 3.27,19.47 3.31,23.35 3.35,27.23 3.19,28.20 3.03,29.16 2.58,30.02 2.12,30.88 1.41,31.55 0.70,32.22 -0.17,32.63 -1.06,33.03 -2.03,33.14 -3.00,33.24 -3.95,33.03 -4.90,32.82 -5.74,32.32 -6.57,31.81 -7.20,31.07 -7.83,30.32 -8.19,29.42 -8.55,28.51 -8.60,27.54 -8.65,26.56 -8.39,25.63 -8.13,24.69 -7.58,23.88 -7.03,23.07 -6.25,22.49 -5.48,21.90 -4.55,21.59 -3.63,21.28 -2.65,21.28 -1.68,21.28 -0.76,21.59 0.16,21.91 0.93,22.50 1.71,23.09 2.25,23.90 2.80,24.71 3.06,25.64 3.32,26.58 3.26,27.56 3.21,28.53 2.85,29.44 2.48,30.34 1.85,31.08 1.22,31.82 0.38,32.33 -0.44,32.83 -1.40,33.03 -2.35,33.24 -3.32,33.14 -4.29,33.03 -5.17,32.62 -6.05,32.21 -6.76,31.54 -7.47,30.86 -7.92,30.00 -8.38,29.14 -8.53,28.18 -8.69,27.21 -8.69,27.22 -8.69,27.22 -8.65,25.40 -8.61,23.59 -8.53,20.17 -8.45,16.75 -8.28,12.92 -8.12,9.08 -7.34,5.45 -6.55,1.83 -5.73,-0.06 -4.91,-1.96 -4.61,-2.52 -4.30,-3.08 -3.87,-3.55 -3.44,-4.02 -2.90,-4.38 -2.37,-4.73 -1.77,-4.94 -1.17,-5.16 -0.53,-5.23 0.09,-5.29 0.72,-5.20 1.36,-5.11 1.95,-4.88 2.54,-4.64 3.06,-4.27 3.58,-3.90 3.99,-3.41 4.41,-2.92 4.69,-2.35 4.98,-1.78 5.12,-1.16 5.26,-0.54 5.25,0.09 5.24,0.73 5.08,1.35 4.91,1.96 4.91,1.96 L 4.91,1.96 Z"></path></g><g transform="translate(433.11073224190795 1008.3809677621716) rotate(0 -10.010585821597147 15.34944001238631)" stroke="none"><path fill="#1e1e1e" d="M -2.90,3.62 Q -2.90,3.62 -4.86,2.15 -6.82,0.68 -12.25,3.40 -17.69,6.12 -19.99,8.74 -22.28,11.35 -23.23,15.31 -24.17,19.26 -23.58,22.03 -23.00,24.79 -20.40,27.04 -17.80,29.28 -14.55,29.13 -11.30,28.97 -9.10,27.87 -6.89,26.77 -4.75,24.50 -2.61,22.22 -1.09,20.29 0.42,18.37 1.68,16.13 2.95,13.89 2.96,10.64 2.97,7.39 1.12,6.29 -0.73,5.19 -3.75,5.72 -6.78,6.24 -7.86,6.34 -8.94,6.45 -9.99,6.20 -11.04,5.95 -11.96,5.38 -12.88,4.81 -13.57,3.97 -14.26,3.14 -14.65,2.13 -15.03,1.12 -15.08,0.03 -15.12,-1.04 -14.82,-2.08 -14.51,-3.12 -13.89,-4.00 -13.27,-4.89 -12.40,-5.53 -11.53,-6.18 -10.50,-6.51 -9.47,-6.84 -8.39,-6.82 -7.30,-6.81 -6.28,-6.45 -5.26,-6.09 -4.41,-5.42 -3.56,-4.75 -2.96,-3.85 -2.37,-2.94 -2.09,-1.90 -1.82,-0.85 -1.89,0.22 -1.97,1.30 -2.38,2.30 -2.80,3.30 -3.51,4.12 -4.22,4.93 -5.16,5.48 -6.09,6.02 -7.15,6.24 -8.21,6.46 -9.29,6.32 -10.36,6.19 -11.34,5.72 -12.31,5.25 -13.09,4.50 -13.86,3.74 -14.36,2.78 -14.85,1.82 -15.01,0.74 -15.17,-0.32 -14.98,-1.38 -14.79,-2.45 -14.27,-3.40 -13.75,-4.35 -12.95,-5.08 -12.16,-5.81 -11.17,-6.25 -10.18,-6.69 -10.18,-6.69 -10.18,-6.69 -5.67,-7.21 -1.17,-7.72 2.73,-6.67 6.64,-5.61 9.21,-3.25 11.78,-0.89 13.14,1.09 14.50,3.09 15.05,5.23 15.60,7.37 15.40,10.61 15.21,13.84 14.76,16.27 14.30,18.71 12.35,22.00 10.40,25.30 8.01,27.99 5.62,30.69 3.88,32.41 2.14,34.13 0.10,35.75 -1.93,37.38 -4.40,38.47 -6.87,39.57 -11.06,40.04 -15.26,40.50 -17.88,40.24 -20.50,39.97 -23.77,37.70 -27.03,35.42 -29.72,31.74 -32.40,28.06 -33.11,25.11 -33.82,22.16 -33.51,19.98 -33.19,17.79 -32.48,14.35 -31.76,10.92 -30.33,8.48 -28.90,6.04 -26.10,2.36 -23.31,-1.30 -17.03,-5.76 -10.75,-10.22 -8.62,-10.05 -6.50,-9.88 -3.67,-8.35 -0.85,-6.82 1.02,-5.22 2.90,-3.62 3.29,-3.22 3.68,-2.82 3.97,-2.34 4.25,-1.86 4.41,-1.32 4.58,-0.79 4.60,-0.23 4.63,0.32 4.53,0.87 4.42,1.42 4.18,1.93 3.95,2.44 3.60,2.88 3.25,3.32 2.80,3.66 2.36,4.00 1.85,4.22 1.33,4.45 0.78,4.54 0.23,4.64 -0.32,4.60 -0.88,4.56 -1.41,4.39 -1.95,4.21 -2.42,3.92 -2.90,3.62 -2.90,3.62 L -2.90,3.62 Z"></path></g><g transform="translate(204.87115146160033 563.9145743600287) rotate(0 17.35154088356711 -0.6673669570602669)" stroke="none"><path fill="#1e1e1e" d="M -0.87,-5.23 Q -0.87,-5.23 1.42,-5.64 3.72,-6.06 7.54,-6.44 11.37,-6.82 15.35,-6.93 19.34,-7.04 22.95,-7.13 26.57,-7.21 30.37,-7.29 34.18,-7.36 35.14,-7.20 36.10,-7.05 36.96,-6.59 37.83,-6.13 38.50,-5.42 39.17,-4.72 39.58,-3.83 39.99,-2.94 40.09,-1.97 40.20,-1.00 39.99,-0.05 39.78,0.89 39.28,1.73 38.77,2.56 38.03,3.20 37.29,3.83 36.38,4.19 35.47,4.55 34.50,4.60 33.53,4.66 32.58,4.40 31.64,4.13 30.84,3.59 30.03,3.04 29.44,2.26 28.85,1.49 28.54,0.56 28.22,-0.35 28.22,-1.33 28.22,-2.31 28.54,-3.23 28.85,-4.15 29.44,-4.93 30.03,-5.71 30.84,-6.26 31.64,-6.80 32.58,-7.06 33.52,-7.33 34.50,-7.27 35.47,-7.22 36.38,-6.86 37.29,-6.50 38.03,-5.87 38.77,-5.23 39.28,-4.40 39.78,-3.56 39.99,-2.61 40.20,-1.66 40.09,-0.69 39.99,0.27 39.58,1.16 39.17,2.05 38.50,2.75 37.83,3.46 36.96,3.92 36.10,4.38 35.14,4.53 34.18,4.69 34.18,4.69 34.18,4.69 30.38,4.62 26.58,4.55 22.99,4.48 19.40,4.41 15.57,4.38 11.74,4.36 8.61,4.44 5.48,4.52 3.17,4.88 0.87,5.23 0.23,5.26 -0.40,5.28 -1.03,5.16 -1.65,5.03 -2.23,4.76 -2.81,4.49 -3.31,4.09 -3.81,3.68 -4.19,3.18 -4.58,2.67 -4.83,2.08 -5.08,1.49 -5.19,0.86 -5.29,0.23 -5.25,-0.40 -5.20,-1.04 -5.00,-1.64 -4.80,-2.25 -4.46,-2.79 -4.12,-3.33 -3.66,-3.78 -3.20,-4.22 -2.65,-4.54 -2.09,-4.87 -1.48,-5.05 -0.87,-5.23 -0.87,-5.23 L -0.87,-5.23 Z"></path></g><g transform="translate(22.012686692777834 546.5630334764616) rotate(0 10.010504355904175 16.016806969446634)" stroke="none"><path fill="#1e1e1e" d="M 0.81,-4.91 Q 0.81,-4.91 3.13,-4.58 5.44,-4.26 8.92,-3.44 12.41,-2.61 14.01,-0.06 15.61,2.49 14.36,7.60 13.11,12.71 12.17,15.12 11.23,17.53 9.92,19.66 8.60,21.79 7.17,24.34 5.74,26.90 7.85,26.30 9.97,25.69 12.12,25.65 14.28,25.60 16.79,25.55 19.30,25.50 20.34,25.67 21.39,25.84 22.32,26.34 23.25,26.84 23.98,27.60 24.70,28.37 25.14,29.33 25.59,30.29 25.70,31.34 25.81,32.39 25.58,33.42 25.36,34.45 24.81,35.36 24.27,36.26 23.46,36.94 22.65,37.63 21.67,38.02 20.69,38.40 19.64,38.46 18.58,38.52 17.56,38.23 16.55,37.95 15.67,37.35 14.80,36.76 14.16,35.92 13.52,35.08 13.19,34.08 12.85,33.08 12.85,32.02 12.85,30.96 13.19,29.96 13.53,28.96 14.17,28.12 14.81,27.28 15.69,26.69 16.56,26.10 17.58,25.82 18.60,25.54 19.65,25.60 20.71,25.65 21.69,26.05 22.67,26.44 23.47,27.12 24.28,27.81 24.82,28.71 25.36,29.62 25.59,30.65 25.81,31.68 25.70,32.73 25.58,33.78 25.14,34.74 24.69,35.70 23.97,36.46 23.24,37.23 22.30,37.72 21.37,38.22 20.33,38.39 19.29,38.56 19.29,38.56 19.29,38.56 16.74,38.49 14.20,38.43 11.91,38.34 9.62,38.24 6.72,37.96 3.81,37.67 1.62,36.79 -0.57,35.90 -2.42,33.88 -4.26,31.85 -4.38,27.46 -4.50,23.07 -2.96,20.97 -1.42,18.86 0.35,16.22 2.12,13.57 2.94,9.68 3.76,5.79 1.47,5.35 -0.81,4.91 -1.39,4.74 -1.97,4.57 -2.49,4.27 -3.00,3.97 -3.44,3.55 -3.87,3.13 -4.19,2.62 -4.51,2.11 -4.69,1.54 -4.88,0.97 -4.93,0.37 -4.97,-0.22 -4.87,-0.81 -4.78,-1.40 -4.54,-1.95 -4.30,-2.50 -3.94,-2.98 -3.57,-3.46 -3.11,-3.84 -2.64,-4.22 -2.10,-4.47 -1.55,-4.73 -0.96,-4.85 -0.38,-4.96 0.21,-4.94 0.81,-4.91 0.81,-4.91 L 0.81,-4.91 Z"></path></g><g transform="translate(72.73249396366577 546.5630334764616) rotate(0 12.012605227084975 8.67577044178364)" stroke="none"><path fill="#1e1e1e" d="M 4.57,2.74 Q 4.57,2.74 3.46,4.65 2.36,6.55 2.12,8.85 1.87,11.15 3.18,13.43 4.50,15.71 8.14,14.80 11.79,13.89 14.04,12.62 16.30,11.36 18.90,8.47 21.51,5.59 18.83,4.28 16.15,2.97 13.50,2.90 10.84,2.82 12.50,2.33 14.15,1.84 13.43,2.70 12.71,3.55 11.76,4.14 10.81,4.72 9.72,4.97 8.63,5.21 7.51,5.10 6.40,4.99 5.39,4.52 4.37,4.06 3.55,3.30 2.73,2.54 2.20,1.55 1.67,0.57 1.49,-0.52 1.30,-1.62 1.47,-2.73 1.64,-3.83 2.16,-4.82 2.68,-5.81 3.48,-6.59 4.29,-7.36 5.30,-7.84 6.31,-8.31 7.42,-8.44 8.53,-8.57 9.63,-8.34 10.72,-8.10 11.68,-7.54 12.64,-6.97 13.37,-6.12 14.10,-5.27 14.52,-4.24 14.94,-3.20 15.01,-2.09 15.08,-0.97 14.79,0.10 14.49,1.18 13.87,2.11 13.25,3.04 12.37,3.72 11.48,4.40 10.42,4.76 9.37,5.13 8.25,5.14 7.13,5.14 6.07,4.79 5.01,4.44 4.12,3.77 3.22,3.10 2.59,2.18 1.96,1.26 1.65,0.19 1.34,-0.88 1.40,-2.00 1.45,-3.11 1.86,-4.15 2.26,-5.19 2.26,-5.19 2.26,-5.19 7.47,-7.98 12.68,-10.77 15.32,-10.51 17.96,-10.25 21.38,-9.01 24.80,-7.77 27.60,-5.93 30.39,-4.09 31.81,-2.22 33.22,-0.36 33.69,3.27 34.15,6.90 33.59,8.97 33.03,11.05 30.97,13.78 28.91,16.51 27.38,18.25 25.85,19.99 22.30,22.17 18.75,24.34 14.77,25.53 10.80,26.72 8.22,27.07 5.64,27.42 2.32,26.50 -0.99,25.58 -3.53,23.10 -6.08,20.63 -7.37,18.70 -8.66,16.77 -9.13,14.68 -9.60,12.59 -9.11,9.52 -8.62,6.44 -7.79,3.77 -6.96,1.11 -5.77,-0.81 -4.57,-2.74 -4.17,-3.25 -3.78,-3.75 -3.27,-4.15 -2.77,-4.55 -2.18,-4.82 -1.60,-5.08 -0.97,-5.20 -0.33,-5.32 0.30,-5.28 0.94,-5.24 1.55,-5.05 2.17,-4.87 2.72,-4.53 3.27,-4.20 3.73,-3.75 4.18,-3.30 4.52,-2.75 4.85,-2.20 5.04,-1.59 5.24,-0.97 5.28,-0.33 5.32,0.30 5.21,0.93 5.09,1.57 4.83,2.15 4.57,2.74 4.57,2.74 L 4.57,2.74 Z"></path></g><g transform="translate(116.77871312964396 554.5714369611849) rotate(0 15.349440012386367 6.673669570602783)" stroke="none"><path fill="#1e1e1e" d="M 4.60,1.31 Q 4.60,1.31 3.86,3.97 3.12,6.62 3.80,8.73 4.47,10.83 11.02,12.21 17.57,13.58 20.86,13.77 24.15,13.96 25.80,11.71 27.45,9.46 26.72,7.42 26.00,5.38 24.07,3.36 22.15,1.35 20.96,0.86 19.78,0.37 18.79,0.53 17.80,0.69 16.81,0.52 15.82,0.35 14.94,-0.11 14.06,-0.58 13.37,-1.32 12.69,-2.05 12.27,-2.96 11.86,-3.87 11.75,-4.87 11.65,-5.86 11.87,-6.84 12.09,-7.82 12.61,-8.67 13.13,-9.53 13.90,-10.17 14.67,-10.82 15.60,-11.18 16.53,-11.55 17.53,-11.60 18.53,-11.65 19.50,-11.37 20.46,-11.10 21.29,-10.53 22.11,-9.97 22.72,-9.17 23.32,-8.37 23.63,-7.41 23.95,-6.46 23.94,-5.46 23.94,-4.46 23.61,-3.51 23.29,-2.56 22.68,-1.77 22.07,-0.98 21.23,-0.42 20.40,0.13 19.43,0.39 18.47,0.66 17.47,0.60 16.47,0.54 15.54,0.16 14.61,-0.21 13.85,-0.86 13.09,-1.51 12.58,-2.37 12.07,-3.23 11.86,-4.21 11.65,-5.19 11.76,-6.19 11.87,-7.18 12.30,-8.09 12.72,-9.00 13.42,-9.72 14.11,-10.44 15.00,-10.91 15.89,-11.37 15.89,-11.37 15.88,-11.37 21.83,-10.28 27.78,-9.19 30.25,-6.88 32.72,-4.57 34.01,-2.84 35.29,-1.11 36.54,2.53 37.78,6.19 37.21,10.22 36.64,14.25 35.30,16.44 33.97,18.62 31.61,20.45 29.26,22.28 26.60,22.69 23.94,23.10 20.04,23.10 16.14,23.09 7.25,21.53 -1.63,19.96 -3.65,16.58 -5.68,13.20 -6.07,10.91 -6.46,8.62 -6.32,6.37 -6.19,4.11 -5.39,1.40 -4.60,-1.31 -4.37,-1.84 -4.15,-2.37 -3.80,-2.84 -3.46,-3.30 -3.01,-3.66 -2.57,-4.03 -2.05,-4.28 -1.53,-4.53 -0.96,-4.65 -0.40,-4.76 0.17,-4.74 0.75,-4.72 1.30,-4.56 1.85,-4.40 2.36,-4.12 2.86,-3.83 3.27,-3.43 3.69,-3.03 4.00,-2.55 4.31,-2.06 4.50,-1.52 4.68,-0.97 4.73,-0.39 4.78,0.17 4.69,0.74 4.60,1.31 4.60,1.31 L 4.60,1.31 Z"></path></g><g transform="translate(16.67366957060267 350.3571481007407) rotate(0 8.008403484723317 22.023109582989093)" stroke="none"><path fill="#1e1e1e" d="M -1.01,-5.09 Q -1.01,-5.09 0.88,-5.54 2.79,-5.99 6.70,-5.36 10.60,-4.74 11.75,-2.39 12.89,-0.05 12.61,2.09 12.33,4.25 11.74,6.52 11.14,8.79 12.83,10.26 14.53,11.73 16.21,13.97 17.89,16.21 20.02,20.39 22.15,24.57 22.39,27.77 22.63,30.96 22.09,33.19 21.55,35.42 20.16,37.54 18.76,39.65 17.46,41.46 16.17,43.26 13.52,45.88 10.87,48.50 4.70,49.01 -1.47,49.52 -2.21,48.68 -2.94,47.85 -3.37,46.83 -3.80,45.80 -3.88,44.70 -3.96,43.59 -3.69,42.51 -3.41,41.44 -2.80,40.51 -2.20,39.58 -1.33,38.89 -0.46,38.20 0.58,37.83 1.62,37.45 2.73,37.43 3.84,37.41 4.90,37.75 5.96,38.08 6.86,38.74 7.75,39.39 8.39,40.30 9.03,41.21 9.35,42.27 9.67,43.33 9.63,44.44 9.59,45.55 9.20,46.59 8.81,47.63 8.10,48.49 7.40,49.35 6.46,49.94 5.52,50.53 4.44,50.79 3.36,51.05 2.25,50.95 1.15,50.85 0.13,50.40 -0.87,49.95 -1.69,49.20 -2.51,48.46 -3.05,47.48 -3.59,46.51 -3.79,45.42 -3.99,44.33 -3.83,43.23 -3.67,42.13 -3.17,41.14 -2.67,40.15 -1.88,39.37 -1.08,38.59 -0.09,38.11 0.90,37.63 2.00,37.48 3.11,37.34 4.19,37.56 5.28,37.78 6.25,38.34 7.21,38.89 7.21,38.89 7.21,38.89 5.91,37.49 4.61,36.08 6.30,33.79 7.98,31.49 8.90,29.20 9.82,26.91 8.27,25.03 6.72,23.15 5.49,21.40 4.26,19.65 2.42,16.14 0.58,12.63 -0.02,10.46 -0.62,8.29 0.13,5.94 0.88,3.60 1.38,1.45 1.87,-0.69 3.37,1.88 4.88,4.46 2.95,4.77 1.01,5.09 0.39,5.13 -0.22,5.18 -0.84,5.08 -1.46,4.98 -2.03,4.73 -2.61,4.48 -3.11,4.10 -3.61,3.72 -4.00,3.24 -4.39,2.75 -4.66,2.19 -4.93,1.62 -5.05,1.01 -5.17,0.39 -5.14,-0.22 -5.12,-0.85 -4.94,-1.45 -4.76,-2.05 -4.45,-2.59 -4.13,-3.13 -3.70,-3.58 -3.26,-4.03 -2.73,-4.36 -2.20,-4.69 -1.61,-4.89 -1.01,-5.09 -1.01,-5.09 L -1.01,-5.09 Z"></path></g><g transform="translate(75.40196179190684 353.02661592898176) rotate(0 -6.006261880695945 17.351540883567168)" stroke="none"><path fill="#1e1e1e" d="M 1.50,4.52 Q 1.50,4.52 -0.70,5.31 -2.91,6.10 -4.69,7.83 -6.46,9.56 -8.32,11.02 -10.18,12.49 -8.75,18.15 -7.32,23.82 -5.01,23.80 -2.70,23.77 -1.51,21.22 -0.32,18.68 -1.57,16.82 -2.81,14.96 -3.30,14.14 -3.80,13.31 -4.00,12.38 -4.21,11.44 -4.10,10.48 -4.00,9.53 -3.59,8.66 -3.19,7.79 -2.53,7.09 -1.87,6.39 -1.02,5.94 -0.17,5.49 0.77,5.34 1.72,5.19 2.66,5.34 3.61,5.50 4.46,5.95 5.31,6.40 5.97,7.10 6.63,7.80 7.03,8.67 7.43,9.54 7.54,10.49 7.64,11.45 7.43,12.39 7.22,13.33 6.73,14.15 6.23,14.97 5.50,15.59 4.77,16.21 3.87,16.57 2.98,16.92 2.02,16.97 1.06,17.02 0.14,16.77 -0.78,16.51 -1.57,15.97 -2.37,15.43 -2.95,14.66 -3.53,13.90 -3.83,12.99 -4.14,12.08 -4.14,11.12 -4.14,10.15 -3.83,9.25 -3.52,8.34 -2.94,7.57 -2.36,6.81 -1.56,6.27 -0.77,5.73 0.15,5.47 1.08,5.22 2.03,5.27 2.99,5.33 3.89,5.68 4.78,6.04 5.51,6.66 6.24,7.28 6.24,7.28 6.24,7.28 8.12,10.00 10.00,12.72 10.18,16.61 10.35,20.50 9.00,23.28 7.65,26.06 6.47,28.17 5.30,30.27 3.76,31.82 2.22,33.37 -2.11,34.55 -6.45,35.72 -9.22,34.39 -11.99,33.06 -13.68,29.25 -15.37,25.43 -16.66,17.47 -17.95,9.50 -15.37,5.99 -12.79,2.48 -9.54,-0.27 -6.29,-3.03 -3.90,-3.78 -1.50,-4.52 -0.94,-4.64 -0.38,-4.75 0.19,-4.73 0.76,-4.71 1.32,-4.55 1.87,-4.39 2.37,-4.10 2.86,-3.81 3.28,-3.41 3.69,-3.01 4.00,-2.53 4.31,-2.04 4.49,-1.49 4.67,-0.95 4.72,-0.37 4.76,0.19 4.67,0.76 4.58,1.33 4.35,1.85 4.13,2.38 3.78,2.84 3.44,3.30 2.99,3.67 2.54,4.03 2.02,4.28 1.50,4.52 1.50,4.52 L 1.50,4.52 Z"></path></g><g transform="translate(110.10504355904118 358.365551585464) rotate(0 10.677871312964442 19.35364175474797)" stroke="none"><path fill="#1e1e1e" d="M 4.80,2.05 Q 4.80,2.05 3.61,4.72 2.43,7.40 1.63,9.85 0.83,12.31 0.55,15.41 0.27,18.52 0.62,20.83 0.97,23.14 2.31,25.08 3.66,27.01 5.75,28.34 7.85,29.66 11.08,30.87 14.31,32.07 16.57,31.21 18.83,30.35 19.44,28.05 20.05,25.76 19.38,23.07 18.70,20.39 17.24,17.47 15.78,14.55 13.89,14.42 12.01,14.30 11.62,13.59 11.24,12.87 11.04,12.09 10.83,11.31 10.82,10.50 10.81,9.69 11.00,8.91 11.18,8.12 11.55,7.40 11.92,6.68 12.44,6.07 12.97,5.46 13.63,4.99 14.29,4.52 15.04,4.23 15.80,3.93 16.60,3.82 17.40,3.72 18.20,3.81 19.01,3.89 19.77,4.17 20.52,4.45 21.19,4.90 21.87,5.35 22.41,5.95 22.95,6.55 22.53,10.91 22.10,15.28 21.20,15.89 20.31,16.50 19.26,16.79 18.22,17.09 17.14,17.03 16.05,16.97 15.04,16.57 14.04,16.18 13.21,15.48 12.38,14.78 11.82,13.85 11.26,12.92 11.02,11.86 10.78,10.80 10.90,9.72 11.01,8.64 11.47,7.66 11.92,6.67 12.66,5.88 13.41,5.09 14.37,4.58 15.32,4.07 16.39,3.90 17.46,3.72 18.53,3.89 19.61,4.06 20.56,4.57 21.52,5.08 22.27,5.86 23.02,6.65 23.48,7.63 23.94,8.61 24.05,9.69 24.17,10.77 23.94,11.83 23.71,12.89 23.16,13.82 22.60,14.75 21.77,15.46 20.95,16.16 19.94,16.56 18.93,16.97 17.85,17.03 16.77,17.09 15.72,16.80 14.68,16.51 13.78,15.91 12.88,15.30 12.22,14.44 11.56,13.58 11.21,12.55 10.86,11.52 10.86,10.44 10.86,9.35 11.20,8.32 11.55,7.29 11.78,10.80 12.01,14.30 11.62,13.59 11.24,12.87 11.04,12.09 10.83,11.31 10.82,10.50 10.81,9.69 11.00,8.91 11.18,8.12 11.55,7.40 11.92,6.68 12.44,6.07 12.97,5.46 13.63,4.99 14.29,4.52 15.04,4.23 15.80,3.93 16.60,3.82 17.40,3.72 18.20,3.81 19.01,3.89 19.76,4.17 20.52,4.45 21.19,4.90 21.86,5.35 22.41,5.95 22.95,6.55 25.47,8.25 27.98,9.95 29.32,12.23 30.66,14.52 31.43,17.11 32.20,19.70 32.48,23.46 32.76,27.22 32.38,29.61 32.01,32.00 30.86,34.26 29.72,36.52 27.03,38.94 24.33,41.36 20.26,42.45 16.19,43.54 11.51,42.68 6.83,41.82 2.41,39.59 -1.99,37.36 -4.89,34.02 -7.78,30.69 -8.90,28.27 -10.02,25.84 -10.26,21.79 -10.49,17.74 -9.70,13.43 -8.92,9.13 -7.98,6.23 -7.04,3.34 -5.92,0.64 -4.80,-2.05 -4.48,-2.60 -4.16,-3.14 -3.73,-3.59 -3.29,-4.05 -2.76,-4.38 -2.22,-4.72 -1.63,-4.92 -1.03,-5.11 -0.40,-5.16 0.22,-5.21 0.84,-5.11 1.46,-5.01 2.04,-4.76 2.62,-4.51 3.12,-4.13 3.62,-3.75 4.02,-3.27 4.42,-2.78 4.68,-2.21 4.95,-1.64 5.08,-1.02 5.20,-0.40 5.18,0.22 5.15,0.84 4.97,1.45 4.80,2.05 4.80,2.05 L 4.80,2.05 Z"></path></g><g transform="translate(215.54902277456472 374.38235855491064) rotate(0 25.359944368290485 -2.0021008711808577)" stroke="none"><path fill="#1e1e1e" d="M 0.46,-4.18 Q 0.46,-4.18 3.91,-3.77 7.35,-3.36 11.18,-3.41 15.01,-3.47 17.96,-3.66 20.91,-3.86 24.28,-4.25 27.66,-4.64 30.11,-5.28 32.57,-5.93 37.60,-6.73 42.62,-7.54 44.70,-8.13 46.78,-8.73 47.44,-8.75 48.11,-8.78 48.74,-8.59 49.38,-8.40 49.92,-8.02 50.47,-7.64 50.86,-7.10 51.25,-6.56 51.46,-5.93 51.66,-5.30 51.65,-4.63 51.64,-3.97 51.41,-3.34 51.19,-2.72 50.78,-2.19 50.37,-1.67 49.81,-1.31 49.26,-0.95 48.61,-0.78 47.97,-0.61 47.31,-0.66 46.64,-0.71 46.03,-0.96 45.42,-1.22 44.92,-1.66 44.42,-2.10 44.09,-2.67 43.75,-3.25 43.62,-3.90 43.49,-4.55 43.57,-5.21 43.66,-5.87 43.95,-6.46 44.23,-7.06 44.70,-7.54 45.16,-8.01 45.76,-8.31 46.35,-8.61 47.01,-8.71 47.66,-8.81 48.32,-8.69 48.97,-8.57 49.55,-8.25 50.13,-7.93 50.58,-7.44 51.03,-6.95 51.30,-6.34 51.57,-5.73 51.63,-5.07 51.69,-4.41 51.54,-3.76 51.38,-3.12 51.03,-2.55 50.68,-1.99 50.17,-1.57 49.65,-1.15 49.03,-0.91 48.41,-0.68 48.41,-0.68 48.41,-0.68 46.27,-0.41 44.12,-0.15 39.22,1.05 34.31,2.25 31.45,2.74 28.60,3.22 24.89,3.68 21.17,4.14 18.29,4.13 15.41,4.12 10.93,4.51 6.45,4.90 2.99,4.54 -0.46,4.18 -0.96,4.07 -1.45,3.95 -1.90,3.72 -2.35,3.49 -2.74,3.16 -3.12,2.82 -3.41,2.41 -3.71,1.99 -3.89,1.52 -4.08,1.05 -4.14,0.54 -4.21,0.04 -4.15,-0.46 -4.10,-0.96 -3.92,-1.44 -3.75,-1.92 -3.46,-2.34 -3.18,-2.76 -2.80,-3.10 -2.42,-3.44 -1.98,-3.68 -1.53,-3.92 -1.04,-4.05 -0.55,-4.17 -0.04,-4.18 0.46,-4.18 0.46,-4.18 L 0.46,-4.18 Z"></path></g><g transform="translate(571.9228149133658 930.9664007431799) rotate(0 0.6673669570602669 8.675851907476613)" stroke="none"><path fill="#1e1e1e" d="M 5.10,-1.02 Q 5.10,-1.02 5.55,0.88 6.00,2.79 6.43,5.76 6.85,8.74 7.06,13.42 7.26,18.09 7.11,19.04 6.96,19.99 6.51,20.84 6.06,21.69 5.37,22.35 4.67,23.01 3.80,23.42 2.93,23.82 1.98,23.93 1.02,24.04 0.08,23.83 -0.85,23.63 -1.67,23.13 -2.49,22.64 -3.12,21.91 -3.74,21.18 -4.10,20.29 -4.46,19.40 -4.51,18.44 -4.56,17.48 -4.31,16.55 -4.05,15.63 -3.52,14.83 -2.98,14.04 -2.22,13.45 -1.45,12.87 -0.55,12.56 0.35,12.25 1.31,12.25 2.28,12.25 3.19,12.55 4.10,12.86 4.86,13.44 5.63,14.02 6.17,14.81 6.71,15.60 6.97,16.53 7.23,17.45 7.18,18.41 7.13,19.37 6.77,20.26 6.42,21.16 5.80,21.89 5.18,22.62 4.36,23.12 3.54,23.62 2.60,23.83 1.66,24.03 0.71,23.93 -0.24,23.83 -1.11,23.43 -1.98,23.03 -2.68,22.37 -3.38,21.71 -3.83,20.86 -4.28,20.02 -4.44,19.07 -4.60,18.12 -4.60,18.12 -4.60,18.12 -4.49,13.80 -4.39,9.48 -4.43,7.18 -4.47,4.88 -4.79,2.95 -5.10,1.02 -5.15,0.39 -5.20,-0.23 -5.09,-0.84 -4.99,-1.46 -4.74,-2.04 -4.49,-2.62 -4.12,-3.12 -3.74,-3.62 -3.25,-4.01 -2.76,-4.41 -2.19,-4.67 -1.62,-4.94 -1.01,-5.06 -0.39,-5.19 0.22,-5.16 0.85,-5.13 1.45,-4.95 2.06,-4.78 2.60,-4.46 3.14,-4.15 3.59,-3.71 4.04,-3.27 4.38,-2.74 4.71,-2.21 4.91,-1.61 5.10,-1.02 5.10,-1.02 L 5.10,-1.02 Z"></path></g><g transform="translate(720.0782793807468 930.9664007431799) rotate(0 -0.6673669570602669 12.01264595993149)" stroke="none"><path fill="#1e1e1e" d="M 5.18,1.29 Q 5.18,1.29 4.87,2.84 4.56,4.39 5.09,7.08 5.62,9.78 5.83,12.19 6.03,14.60 5.61,16.91 5.19,19.22 5.07,22.11 4.96,24.99 4.76,25.99 4.57,26.99 4.06,27.87 3.56,28.75 2.80,29.43 2.04,30.10 1.10,30.50 0.16,30.90 -0.84,30.98 -1.85,31.05 -2.84,30.80 -3.82,30.55 -4.68,30.00 -5.53,29.45 -6.16,28.65 -6.80,27.86 -7.14,26.90 -7.49,25.95 -7.51,24.93 -7.53,23.91 -7.23,22.94 -6.93,21.97 -6.33,21.15 -5.73,20.33 -4.90,19.74 -4.08,19.15 -3.10,18.85 -2.13,18.56 -1.11,18.59 -0.10,18.63 0.85,18.98 1.80,19.34 2.59,19.98 3.38,20.62 3.92,21.48 4.46,22.34 4.70,23.33 4.94,24.31 4.86,25.33 4.77,26.34 4.36,27.27 3.96,28.20 3.27,28.96 2.59,29.71 1.70,30.21 0.82,30.70 -0.17,30.89 -1.17,31.07 -2.18,30.93 -3.19,30.79 -4.10,30.33 -5.00,29.88 -5.72,29.15 -6.43,28.43 -6.88,27.52 -7.33,26.61 -7.46,25.60 -7.59,24.59 -7.59,24.59 -7.59,24.59 -6.85,19.70 -6.11,14.81 -6.09,12.37 -6.08,9.93 -6.09,5.84 -6.10,1.74 -5.64,0.22 -5.18,-1.29 -4.95,-1.89 -4.72,-2.50 -4.36,-3.03 -3.99,-3.56 -3.50,-3.98 -3.02,-4.41 -2.45,-4.71 -1.88,-5.00 -1.25,-5.16 -0.62,-5.31 0.01,-5.31 0.66,-5.30 1.28,-5.15 1.91,-4.99 2.48,-4.69 3.05,-4.39 3.53,-3.96 4.01,-3.53 4.38,-3.00 4.74,-2.46 4.97,-1.86 5.19,-1.26 5.27,-0.62 5.34,0.01 5.26,0.65 5.18,1.29 5.18,1.29 L 5.18,1.29 Z"></path></g><g transform="translate(858.890606449284 932.3011346573004) rotate(0 0.6673669570602669 13.34733914120551)" stroke="none"><path fill="#1e1e1e" d="M 5.35,0 Q 5.35,0 5.41,1.91 5.47,3.83 5.60,6.86 5.73,9.88 5.84,12.61 5.95,15.35 6.04,17.86 6.12,20.38 6.38,21.86 6.64,23.33 6.96,24.29 7.28,25.26 7.27,26.27 7.26,27.28 6.93,28.24 6.60,29.20 5.98,30.00 5.36,30.80 4.52,31.37 3.68,31.93 2.70,32.19 1.72,32.46 0.71,32.40 -0.29,32.33 -1.23,31.95 -2.17,31.57 -2.93,30.91 -3.70,30.25 -4.22,29.38 -4.74,28.51 -4.95,27.51 -5.16,26.52 -5.04,25.52 -4.92,24.51 -4.49,23.59 -4.06,22.68 -3.36,21.95 -2.66,21.22 -1.76,20.75 -0.86,20.28 0.13,20.12 1.13,19.96 2.13,20.14 3.13,20.31 4.02,20.79 4.91,21.27 5.60,22.01 6.30,22.75 6.72,23.67 7.13,24.59 7.24,25.60 7.34,26.61 7.11,27.60 6.89,28.59 6.36,29.45 5.83,30.32 5.06,30.97 4.28,31.62 3.34,31.98 2.39,32.35 1.38,32.40 0.37,32.45 -0.60,32.17 -1.57,31.89 -2.41,31.32 -3.24,30.74 -3.85,29.93 -4.46,29.12 -4.45,29.12 -4.45,29.12 -5.29,24.75 -6.12,20.38 -6.04,17.86 -5.95,15.35 -5.84,12.61 -5.73,9.88 -5.60,6.86 -5.47,3.83 -5.41,1.91 -5.35,0 -5.27,-0.64 -5.19,-1.28 -4.96,-1.88 -4.73,-2.48 -4.37,-3.01 -4.00,-3.54 -3.52,-3.97 -3.03,-4.40 -2.46,-4.70 -1.89,-5.00 -1.27,-5.15 -0.64,-5.31 0.00,-5.31 0.64,-5.31 1.27,-5.15 1.89,-5.00 2.46,-4.70 3.04,-4.40 3.52,-3.97 4.00,-3.54 4.37,-3.01 4.73,-2.48 4.96,-1.88 5.19,-1.28 5.27,-0.63 5.35,0.00 5.35,0.00 L 5.35,0 Z"></path></g><g transform="translate(991.0292639472184 933.635950037114) rotate(0 0.0000814656930288038 10.677830580117927)" stroke="none"><path fill="#1e1e1e" d="M 4.79,-0.43 Q 4.79,-0.43 4.90,3.81 5.00,8.05 5.29,10.25 5.59,12.46 5.37,15.74 5.16,19.03 4.19,21.30 3.22,23.57 2.68,24.19 2.14,24.80 1.44,25.21 0.73,25.62 -0.06,25.78 -0.86,25.94 -1.67,25.84 -2.48,25.74 -3.21,25.38 -3.95,25.03 -4.53,24.46 -5.12,23.89 -5.49,23.16 -5.86,22.43 -5.97,21.62 -6.09,20.82 -5.95,20.01 -5.80,19.21 -5.41,18.49 -5.01,17.78 -4.41,17.23 -3.81,16.68 -3.06,16.35 -2.32,16.02 -1.50,15.94 -0.69,15.87 0.09,16.06 0.89,16.25 1.58,16.68 2.27,17.11 2.79,17.74 3.31,18.37 3.60,19.14 3.89,19.90 3.92,20.72 3.95,21.53 3.71,22.31 3.48,23.10 3.01,23.76 2.54,24.43 1.89,24.91 1.23,25.40 0.45,25.64 -0.32,25.89 -1.13,25.88 -1.95,25.86 -2.72,25.59 -3.49,25.32 -4.13,24.81 -4.77,24.31 -5.22,23.62 -5.66,22.94 -5.87,22.15 -6.07,21.36 -6.01,20.55 -5.96,19.73 -5.64,18.98 -5.33,18.23 -5.33,18.23 -5.33,18.23 -4.36,15.68 -3.40,13.13 -3.43,10.98 -3.47,8.82 -4.13,4.63 -4.79,0.43 -4.78,-0.14 -4.76,-0.72 -4.60,-1.28 -4.45,-1.84 -4.16,-2.35 -3.88,-2.85 -3.48,-3.27 -3.08,-3.70 -2.59,-4.01 -2.10,-4.33 -1.56,-4.52 -1.01,-4.71 -0.43,-4.76 0.14,-4.81 0.71,-4.72 1.29,-4.64 1.83,-4.42 2.36,-4.19 2.83,-3.85 3.30,-3.50 3.67,-3.06 4.04,-2.61 4.30,-2.09 4.55,-1.57 4.67,-1.00 4.79,-0.43 4.79,-0.43 L 4.79,-0.43 Z"></path></g><g transform="translate(276.946619892724 934.9706024855415) rotate(0 0.6673669570602669 7.341077260509564)" stroke="none"><path fill="#1e1e1e" d="M 5.01,0 Q 5.01,0 5.07,2.30 5.13,4.60 5.30,6.92 5.46,9.25 5.96,10.68 6.45,12.12 6.61,13.02 6.77,13.93 6.63,14.84 6.49,15.75 6.07,16.56 5.64,17.38 4.98,18.02 4.32,18.65 3.49,19.05 2.66,19.44 1.75,19.55 0.83,19.66 -0.06,19.47 -0.95,19.28 -1.75,18.81 -2.54,18.35 -3.14,17.65 -3.74,16.96 -4.09,16.11 -4.44,15.26 -4.50,14.34 -4.55,13.42 -4.32,12.53 -4.08,11.65 -3.57,10.88 -3.06,10.12 -2.33,9.55 -1.61,8.99 -0.74,8.69 0.12,8.39 1.04,8.38 1.96,8.37 2.83,8.66 3.70,8.94 4.44,9.49 5.18,10.04 5.70,10.80 6.22,11.55 6.48,12.43 6.73,13.32 6.69,14.24 6.65,15.15 6.31,16.01 5.98,16.87 5.39,17.57 4.81,18.28 4.02,18.76 3.24,19.24 2.34,19.45 1.45,19.65 0.53,19.56 -0.37,19.47 -1.21,19.09 -2.05,18.71 -2.72,18.09 -3.39,17.46 -3.83,16.65 -4.27,15.85 -4.27,15.85 -4.27,15.85 -4.86,12.55 -5.46,9.25 -5.30,6.92 -5.13,4.60 -5.07,2.30 -5.01,0 -4.94,-0.60 -4.87,-1.20 -4.65,-1.76 -4.44,-2.33 -4.09,-2.82 -3.75,-3.32 -3.30,-3.72 -2.85,-4.13 -2.31,-4.41 -1.77,-4.69 -1.19,-4.83 -0.60,-4.98 0.00,-4.98 0.60,-4.98 1.19,-4.83 1.77,-4.69 2.31,-4.41 2.85,-4.12 3.30,-3.72 3.75,-3.32 4.10,-2.82 4.44,-2.33 4.65,-1.76 4.87,-1.20 4.94,-0.59 5.01,0.00 5.01,0.00 L 5.01,0 Z"></path></g><g transform="translate(531.880797489749 1000.3725642774484) rotate(0 10.677871312964385 10.677871312964498)" stroke="none"><path fill="#1e1e1e" d="M 0,-5.27 Q 0,-5.27 2.27,-5.31 4.55,-5.34 7.40,-6.02 10.26,-6.69 12.40,-6.92 14.54,-7.15 18.24,-6.92 21.94,-6.68 23.45,-1.35 24.96,3.98 22.77,6.38 20.58,8.77 18.06,11.26 15.54,13.74 12.87,15.98 10.20,18.21 8.74,20.16 7.27,22.11 6.80,19.14 6.33,16.17 9.40,15.93 12.47,15.68 13.59,15.87 14.70,16.06 15.70,16.60 16.69,17.14 17.47,17.96 18.24,18.79 18.71,19.82 19.18,20.85 19.29,21.98 19.41,23.10 19.16,24.21 18.91,25.31 18.32,26.28 17.73,27.24 16.86,27.97 15.99,28.70 14.94,29.11 13.89,29.52 12.75,29.58 11.62,29.63 10.54,29.32 9.45,29.01 8.51,28.37 7.58,27.73 6.90,26.82 6.22,25.92 5.87,24.84 5.51,23.77 5.52,22.63 5.53,21.50 5.90,20.43 6.27,19.36 6.96,18.47 7.65,17.57 8.59,16.94 9.53,16.31 10.62,16.02 11.71,15.72 12.84,15.79 13.97,15.86 15.02,16.28 16.07,16.71 16.93,17.45 17.79,18.19 18.36,19.16 18.94,20.13 19.18,21.24 19.41,22.35 19.28,23.47 19.15,24.60 18.67,25.62 18.19,26.64 17.41,27.46 16.62,28.28 15.62,28.80 14.61,29.32 13.50,29.50 12.38,29.68 12.38,29.68 12.38,29.68 8.37,29.51 4.37,29.35 2.24,28.86 0.12,28.36 -1.64,26.82 -3.41,25.27 -3.95,20.87 -4.49,16.46 -2.41,13.63 -0.33,10.79 2.14,8.43 4.63,6.08 6.66,4.13 8.68,2.19 11.06,0.56 13.44,-1.05 15.12,-3.08 16.80,-5.11 16.93,-0.22 17.07,4.66 14.19,4.58 11.31,4.51 7.98,4.92 4.65,5.34 2.32,5.31 0,5.27 -0.63,5.20 -1.26,5.12 -1.85,4.89 -2.45,4.67 -2.97,4.31 -3.49,3.94 -3.92,3.47 -4.34,2.99 -4.63,2.43 -4.93,1.87 -5.08,1.25 -5.23,0.63 -5.23,-0.00 -5.23,-0.63 -5.08,-1.25 -4.93,-1.87 -4.63,-2.43 -4.34,-2.99 -3.92,-3.47 -3.49,-3.95 -2.97,-4.31 -2.45,-4.67 -1.85,-4.89 -1.26,-5.12 -0.63,-5.20 0.00,-5.27 0.00,-5.27 L 0,-5.27 Z"></path></g><g transform="translate(571.9228149133658 1008.3809677621718) rotate(0 4.004201742361488 5.339017122175051)" stroke="none"><path fill="#1e1e1e" d="M 3.59,3.59 Q 3.59,3.59 2.10,5.17 0.61,6.75 -0.79,8.69 -2.20,10.64 -2.30,11.81 -2.40,12.98 -2.73,13.59 -3.06,14.20 -3.53,14.72 -4.00,15.24 -4.57,15.63 -5.15,16.02 -5.80,16.26 -6.46,16.50 -7.15,16.58 -7.84,16.65 -8.53,16.56 -9.22,16.47 -9.87,16.22 -10.52,15.97 -11.09,15.56 -11.66,15.16 -12.11,14.64 -12.57,14.11 -12.89,13.49 -13.20,12.87 -13.36,12.19 -13.52,11.52 -13.52,10.82 -13.51,10.12 -13.34,9.45 -13.16,8.78 -6.24,8.01 0.67,7.24 3.13,6.64 5.59,6.03 7.60,4.67 9.60,3.30 9.52,2.04 9.44,0.78 9.10,-0.16 8.76,-1.12 8.74,-2.13 8.73,-3.14 9.03,-4.10 9.34,-5.07 9.93,-5.88 10.53,-6.70 11.36,-7.28 12.18,-7.86 13.15,-8.15 14.12,-8.44 15.13,-8.41 16.14,-8.37 17.09,-8.01 18.03,-7.66 18.82,-7.02 19.60,-6.38 20.14,-5.52 20.67,-4.66 20.91,-3.68 21.15,-2.70 21.06,-1.69 20.96,-0.68 20.56,0.23 20.15,1.16 19.47,1.91 18.79,2.65 17.90,3.14 17.02,3.63 16.02,3.82 15.03,4.00 14.03,3.85 13.03,3.71 12.12,3.25 11.22,2.79 10.51,2.07 9.80,1.35 9.36,0.44 8.92,-0.46 8.79,-1.46 8.66,-2.46 8.86,-3.46 9.06,-4.45 9.57,-5.32 10.07,-6.20 10.83,-6.87 11.59,-7.54 12.52,-7.93 13.46,-8.32 14.46,-8.39 15.47,-8.47 16.45,-8.21 17.43,-7.96 18.28,-7.41 19.13,-6.86 19.75,-6.06 20.38,-5.27 20.38,-5.27 20.38,-5.27 21.10,-0.86 21.83,3.55 20.79,6.27 19.75,9.00 17.26,11.47 14.78,13.95 11.55,15.25 8.32,16.55 6.15,16.98 3.97,17.40 1.41,17.37 -1.15,17.34 -1.78,15.16 -2.40,12.98 -2.73,13.59 -3.06,14.20 -3.53,14.72 -3.99,15.24 -4.57,15.63 -5.15,16.02 -5.80,16.26 -6.46,16.50 -7.15,16.58 -7.84,16.65 -8.53,16.56 -9.22,16.47 -9.87,16.22 -10.52,15.97 -11.09,15.56 -11.66,15.16 -12.11,14.64 -12.57,14.11 -12.89,13.49 -13.20,12.87 -13.36,12.19 -13.52,11.52 -13.52,10.82 -13.51,10.12 -13.34,9.45 -13.16,8.78 -12.27,6.62 -11.37,4.46 -9.06,1.92 -6.75,-0.61 -5.17,-2.10 -3.59,-3.59 -3.10,-3.96 -2.62,-4.34 -2.06,-4.59 -1.51,-4.84 -0.90,-4.95 -0.30,-5.06 0.30,-5.03 0.91,-4.99 1.49,-4.81 2.08,-4.63 2.60,-4.31 3.13,-3.99 3.56,-3.56 3.99,-3.13 4.31,-2.60 4.63,-2.08 4.81,-1.49 4.99,-0.91 5.03,-0.30 5.06,0.30 4.95,0.90 4.84,1.51 4.59,2.06 4.34,2.62 3.96,3.10 3.59,3.59 3.59,3.59 L 3.59,3.59 Z"></path></g><g transform="translate(605.2911627663793 1009.7157831419854) rotate(0 7.34103652766305 6.006221147849487)" stroke="none"><path fill="#1e1e1e" d="M 5.01,1.67 Q 5.01,1.67 4.27,3.97 3.53,6.28 5.66,7.35 7.79,8.42 9.52,6.09 11.25,3.77 11.89,4.28 12.53,4.79 11.45,5.07 10.37,5.34 9.26,5.26 8.14,5.18 7.12,4.75 6.09,4.32 5.25,3.58 4.42,2.84 3.86,1.87 3.30,0.91 3.08,-0.18 2.86,-1.27 3.01,-2.38 3.15,-3.48 3.63,-4.49 4.12,-5.49 4.90,-6.28 5.69,-7.08 6.68,-7.58 7.68,-8.09 8.78,-8.25 9.88,-8.40 10.98,-8.20 12.08,-8.00 13.05,-7.46 14.03,-6.92 14.78,-6.10 15.53,-5.27 15.98,-4.25 16.43,-3.23 16.53,-2.12 16.63,-1.01 16.37,0.07 16.11,1.15 15.51,2.10 14.92,3.04 14.06,3.75 13.19,4.45 12.15,4.84 11.11,5.24 9.99,5.28 8.88,5.32 7.81,5.00 6.74,4.68 5.83,4.03 4.92,3.39 4.26,2.49 3.60,1.59 3.27,0.53 2.93,-0.53 2.95,-1.64 2.97,-2.76 3.35,-3.81 3.73,-4.86 4.42,-5.73 5.11,-6.61 6.04,-7.22 6.98,-7.82 6.98,-7.82 6.98,-7.82 12.24,-7.33 17.49,-6.84 19.15,-5.45 20.81,-4.07 21.85,-1.57 22.90,0.92 22.98,4.87 23.07,8.83 21.69,11.03 20.31,13.22 18.97,14.89 17.62,16.56 14.85,18.23 12.08,19.91 8.59,20.32 5.11,20.73 2.91,20.32 0.72,19.91 -1.46,18.73 -3.64,17.54 -5.40,14.58 -7.16,11.61 -7.36,9.43 -7.56,7.26 -7.08,5.09 -6.60,2.92 -5.81,0.62 -5.01,-1.67 -4.74,-2.24 -4.47,-2.82 -4.07,-3.32 -3.66,-3.81 -3.15,-4.19 -2.64,-4.58 -2.06,-4.83 -1.47,-5.08 -0.84,-5.18 -0.21,-5.28 0.42,-5.23 1.05,-5.18 1.66,-4.98 2.26,-4.78 2.80,-4.44 3.34,-4.09 3.78,-3.64 4.22,-3.18 4.54,-2.62 4.86,-2.07 5.04,-1.46 5.22,-0.85 5.24,-0.21 5.27,0.42 5.14,1.04 5.01,1.67 5.01,1.67 L 5.01,1.67 Z"></path></g><g transform="translate(700.0572706689386 993.6989761725388) rotate(0 2.669467828240954 12.012605227084919)" stroke="none"><path fill="#1e1e1e" d="M 4.46,2.23 Q 4.46,2.23 2.28,5.91 0.09,9.60 -0.08,12.24 -0.25,14.89 2.05,12.99 4.35,11.10 9.06,10.35 13.76,9.60 10.82,8.94 7.88,8.28 8.63,8.07 9.38,7.86 10.15,7.83 10.93,7.81 11.69,7.97 12.45,8.13 13.15,8.47 13.86,8.80 14.45,9.30 15.05,9.79 15.52,10.42 15.98,11.04 16.28,11.76 16.58,12.48 16.70,13.25 16.82,14.01 16.75,14.79 16.69,15.56 16.44,16.30 16.19,17.04 15.77,17.69 15.35,18.34 14.78,18.88 14.22,19.42 13.54,19.80 12.87,20.18 14.40,18.65 15.94,17.12 16.40,18.23 16.87,19.33 17.41,20.28 17.96,21.22 18.18,22.29 18.39,23.35 18.25,24.43 18.12,25.52 17.64,26.50 17.17,27.48 16.41,28.25 15.64,29.03 14.67,29.52 13.70,30.02 12.62,30.17 11.55,30.33 10.48,30.14 9.40,29.94 8.45,29.41 7.50,28.89 6.76,28.08 6.03,27.28 5.59,26.28 5.15,25.29 5.05,24.20 4.95,23.12 5.20,22.06 5.46,21.00 6.03,20.08 6.61,19.16 7.45,18.46 8.30,17.77 9.31,17.39 10.33,17.00 11.42,16.96 12.51,16.92 13.55,17.23 14.60,17.54 15.49,18.17 16.38,18.80 17.02,19.68 17.67,20.55 18.00,21.59 18.32,22.63 18.31,23.72 18.29,24.81 17.92,25.83 17.55,26.86 16.88,27.71 16.21,28.57 15.29,29.16 14.38,29.76 13.33,30.03 12.27,30.30 11.19,30.23 10.10,30.15 9.10,29.73 8.09,29.31 7.28,28.59 6.46,27.87 6.46,27.87 6.46,27.87 4.58,23.41 2.70,18.96 2.99,16.27 3.28,13.58 5.58,10.93 7.88,8.29 8.63,8.07 9.38,7.86 10.15,7.83 10.93,7.81 11.69,7.97 12.45,8.13 13.15,8.47 13.85,8.80 14.45,9.30 15.05,9.79 15.52,10.42 15.98,11.04 16.28,11.76 16.58,12.48 16.70,13.24 16.82,14.01 16.75,14.79 16.69,15.56 16.44,16.30 16.19,17.03 15.77,17.69 15.35,18.34 14.78,18.88 14.22,19.41 13.54,19.80 12.87,20.18 9.52,18.93 6.18,17.67 10.05,17.60 13.92,17.53 11.49,19.63 9.06,21.74 5.84,23.03 2.62,24.33 -1.52,23.90 -5.66,23.46 -7.29,21.77 -8.91,20.09 -9.55,17.99 -10.19,15.89 -9.71,13.31 -9.22,10.73 -8.49,8.24 -7.76,5.74 -6.11,1.75 -4.46,-2.23 -4.13,-2.73 -3.80,-3.23 -3.36,-3.64 -2.91,-4.05 -2.39,-4.34 -1.86,-4.63 -1.28,-4.79 -0.69,-4.94 -0.09,-4.95 0.50,-4.96 1.09,-4.83 1.67,-4.70 2.21,-4.43 2.75,-4.16 3.21,-3.77 3.67,-3.38 4.02,-2.89 4.37,-2.40 4.60,-1.84 4.82,-1.29 4.91,-0.69 4.99,-0.09 4.93,0.50 4.87,1.10 4.67,1.66 4.46,2.23 4.46,2.23 L 4.46,2.23 Z"></path></g><g transform="translate(733.4256185219522 1005.7115813996236) rotate(0 5.338935656482249 6.673628837756269)" stroke="none"><path fill="#1e1e1e" d="M 5.14,1.02 Q 5.14,1.02 4.82,2.88 4.50,4.74 6.17,6.84 7.83,8.94 6.59,7.14 5.36,5.34 4.81,3.65 4.26,1.96 4.18,0.88 4.11,-0.19 4.38,-1.23 4.65,-2.28 5.24,-3.19 5.84,-4.10 6.69,-4.76 7.54,-5.43 8.56,-5.80 9.58,-6.16 10.66,-6.18 11.74,-6.20 12.78,-5.87 13.81,-5.54 14.68,-4.90 15.55,-4.26 16.18,-3.37 16.80,-2.49 17.11,-1.45 17.41,-0.41 17.37,0.66 17.33,1.74 16.95,2.76 16.56,3.77 15.88,4.61 15.19,5.44 14.27,6.02 13.35,6.59 12.30,6.84 11.25,7.09 10.17,6.99 9.09,6.89 8.10,6.46 7.11,6.02 6.31,5.29 5.51,4.55 4.99,3.61 4.47,2.66 4.27,1.59 4.08,0.53 4.24,-0.53 4.40,-1.61 4.89,-2.57 5.38,-3.54 6.15,-4.29 6.93,-5.05 7.90,-5.52 8.88,-5.99 9.95,-6.13 11.02,-6.26 12.09,-6.05 13.15,-5.83 14.08,-5.29 15.02,-4.75 15.74,-3.93 16.45,-3.12 16.87,-2.12 17.28,-1.12 17.28,-1.12 17.28,-1.12 17.79,3.17 18.30,7.48 17.35,10.24 16.40,13.01 13.90,15.54 11.40,18.07 9.25,18.71 7.11,19.35 4.47,18.87 1.83,18.38 -0.49,15.69 -2.83,12.99 -4.28,10.15 -5.74,7.31 -5.89,5.11 -6.04,2.92 -5.59,0.94 -5.14,-1.02 -4.94,-1.63 -4.75,-2.23 -4.41,-2.76 -4.07,-3.30 -3.62,-3.74 -3.16,-4.18 -2.62,-4.50 -2.07,-4.82 -1.46,-4.99 -0.86,-5.17 -0.23,-5.20 0.40,-5.23 1.02,-5.10 1.64,-4.98 2.21,-4.71 2.78,-4.44 3.27,-4.04 3.77,-3.65 4.15,-3.14 4.53,-2.64 4.78,-2.06 5.03,-1.47 5.13,-0.85 5.24,-0.23 5.19,0.39 5.14,1.02 5.14,1.02 L 5.14,1.02 Z"></path></g><g transform="translate(764.1244985467249 1005.7115813996236) rotate(0 6.006302613542516 8.675729708937183)" stroke="none"><path fill="#1e1e1e" d="M 5.20,0 Q 5.20,0 5.24,2.30 5.29,4.60 5.11,6.75 4.93,8.91 6.94,9.60 8.95,10.30 8.19,9.18 7.43,8.06 6.69,7.36 5.94,6.67 5.46,5.77 4.98,4.88 4.81,3.87 4.64,2.87 4.80,1.87 4.96,0.86 5.43,-0.03 5.90,-0.93 6.64,-1.64 7.37,-2.34 8.29,-2.77 9.21,-3.20 10.22,-3.32 11.23,-3.43 12.23,-3.22 13.22,-3.01 14.10,-2.49 14.97,-1.97 15.63,-1.20 16.30,-0.43 16.68,0.51 17.06,1.45 17.12,2.47 17.18,3.48 16.92,4.46 16.65,5.44 16.08,6.29 15.52,7.13 14.71,7.75 13.90,8.37 12.94,8.70 11.98,9.03 10.96,9.04 9.94,9.05 8.98,8.73 8.01,8.41 7.20,7.79 6.39,7.18 5.81,6.34 5.24,5.51 4.96,4.53 4.68,3.55 4.73,2.53 4.78,1.52 5.15,0.57 5.52,-0.37 6.18,-1.15 6.83,-1.92 7.70,-2.45 8.57,-2.98 9.56,-3.21 10.55,-3.43 11.57,-3.33 12.58,-3.22 13.50,-2.80 14.43,-2.38 14.43,-2.38 14.43,-2.38 16.17,0.36 17.92,3.10 18.44,5.19 18.95,7.27 18.01,10.67 17.08,14.08 15.33,16.32 13.58,18.57 11.40,19.58 9.21,20.59 5.15,19.53 1.08,18.47 -1.92,15.13 -4.93,11.78 -5.11,8.19 -5.29,4.60 -5.24,2.30 -5.20,0 -5.12,-0.62 -5.05,-1.24 -4.83,-1.83 -4.60,-2.41 -4.25,-2.93 -3.89,-3.45 -3.42,-3.86 -2.95,-4.28 -2.40,-4.57 -1.84,-4.86 -1.23,-5.01 -0.62,-5.16 0.00,-5.16 0.62,-5.16 1.23,-5.01 1.84,-4.86 2.40,-4.57 2.95,-4.28 3.42,-3.86 3.89,-3.45 4.25,-2.93 4.60,-2.41 4.83,-1.83 5.05,-1.24 5.12,-0.62 5.20,0.00 5.20,0.00 L 5.20,0 Z"></path></g><g transform="translate(846.8780012221991 995.0336286209663) rotate(0 -2.0021008711809145 14.014706098265833)" stroke="none"><path fill="#1e1e1e" d="M 3.20,4.27 Q 3.20,4.27 1.70,5.47 0.21,6.67 -1.34,8.22 -2.89,9.78 -4.30,12.63 -5.70,15.48 -5.69,17.96 -5.69,20.43 -3.30,20.31 -0.92,20.19 0.61,22.61 2.15,25.02 2.34,24.87 2.54,24.71 1.45,25.10 0.36,25.49 -0.79,25.51 -1.94,25.53 -3.05,25.18 -4.15,24.83 -5.08,24.14 -6.02,23.46 -6.68,22.51 -7.35,21.57 -7.68,20.46 -8.01,19.35 -7.96,18.19 -7.92,17.04 -7.51,15.95 -7.10,14.87 -6.37,13.98 -5.64,13.08 -4.66,12.47 -3.68,11.85 -2.55,11.59 -1.43,11.32 -0.27,11.42 0.87,11.53 1.93,11.99 2.99,12.46 3.84,13.24 4.69,14.02 5.25,15.04 5.81,16.05 6.02,17.19 6.23,18.32 6.06,19.47 5.89,20.61 5.37,21.65 4.85,22.68 4.02,23.49 3.19,24.30 2.15,24.80 1.11,25.31 -0.03,25.45 -1.17,25.60 -2.31,25.37 -3.44,25.14 -4.44,24.56 -5.45,23.98 -6.21,23.11 -6.97,22.24 -7.42,21.18 -7.87,20.11 -7.95,18.96 -8.03,17.80 -7.74,16.68 -7.45,15.56 -6.82,14.59 -6.19,13.62 -5.28,12.91 -4.37,12.19 -4.37,12.19 -4.37,12.19 0.74,11.56 5.86,10.93 7.84,12.05 9.81,13.17 11.66,15.67 13.51,18.17 13.85,20.68 14.20,23.19 13.03,25.92 11.86,28.65 9.40,30.40 6.95,32.15 3.57,32.88 0.20,33.61 -3.94,33.24 -8.08,32.87 -10.20,32.23 -12.33,31.58 -14.30,29.42 -16.27,27.25 -17.23,23.51 -18.20,19.77 -17.93,17.55 -17.67,15.32 -17.13,12.83 -16.59,10.34 -15.13,7.67 -13.67,5.00 -12.17,3.16 -10.68,1.33 -8.51,-0.36 -6.35,-2.07 -4.77,-3.17 -3.20,-4.27 -2.64,-4.59 -2.08,-4.91 -1.47,-5.09 -0.85,-5.27 -0.20,-5.30 0.43,-5.32 1.06,-5.19 1.69,-5.06 2.27,-4.78 2.86,-4.51 3.35,-4.10 3.85,-3.69 4.24,-3.18 4.62,-2.66 4.88,-2.07 5.13,-1.48 5.23,-0.84 5.33,-0.20 5.28,0.43 5.23,1.07 5.02,1.68 4.82,2.29 4.48,2.83 4.13,3.38 3.67,3.82 3.20,4.27 3.20,4.27 L 3.20,4.27 Z"></path></g><g transform="translate(884.2505508175745 1003.0420321056895) rotate(0 4.671568699421755 11.34527900287128)" stroke="none"><path fill="#1e1e1e" d="M 4.29,2.45 Q 4.29,2.45 2.72,5.11 1.16,7.78 0.71,10.30 0.25,12.82 2.31,14.03 4.37,15.24 6.56,15.72 8.75,16.21 8.69,13.64 8.64,11.08 7.91,6.90 7.17,2.72 7.60,1.80 8.03,0.88 8.74,0.15 9.44,-0.58 10.34,-1.05 11.24,-1.53 12.24,-1.69 13.25,-1.85 14.25,-1.68 15.25,-1.51 16.15,-1.03 17.04,-0.55 17.74,0.18 18.44,0.92 18.86,1.84 19.28,2.77 19.39,3.78 19.49,4.79 19.27,5.78 19.05,6.77 18.52,7.64 18.00,8.51 17.22,9.17 16.44,9.82 15.49,10.20 14.55,10.57 13.53,10.62 12.52,10.67 11.54,10.39 10.56,10.12 9.72,9.54 8.88,8.97 8.27,8.16 7.66,7.35 7.34,6.38 7.02,5.42 7.02,4.40 7.03,3.39 7.35,2.42 7.68,1.46 8.30,0.65 8.92,-0.14 9.76,-0.71 10.61,-1.28 11.59,-1.54 12.57,-1.81 13.58,-1.75 14.60,-1.69 15.54,-1.31 16.48,-0.93 17.25,-0.27 18.03,0.38 18.55,1.25 19.07,2.12 19.28,3.12 19.50,4.11 19.38,5.12 19.27,6.13 19.27,6.13 19.27,6.13 19.45,6.21 19.62,6.29 20.15,8.50 20.68,10.71 20.43,13.74 20.17,16.76 19.02,19.45 17.87,22.13 15.87,23.65 13.87,25.17 11.28,25.76 8.68,26.34 6.42,25.99 4.16,25.65 1.53,24.33 -1.09,23.02 -5.24,19.66 -9.40,16.29 -9.75,13.76 -10.11,11.22 -8.70,7.09 -7.30,2.95 -5.79,0.25 -4.29,-2.45 -3.93,-2.93 -3.58,-3.40 -3.12,-3.78 -2.66,-4.16 -2.12,-4.42 -1.58,-4.68 -1.00,-4.80 -0.41,-4.92 0.17,-4.90 0.77,-4.88 1.34,-4.71 1.91,-4.55 2.43,-4.26 2.95,-3.96 3.38,-3.55 3.81,-3.14 4.13,-2.64 4.45,-2.13 4.64,-1.57 4.83,-1.00 4.88,-0.41 4.93,0.17 4.84,0.76 4.75,1.35 4.52,1.90 4.29,2.45 4.29,2.45 L 4.29,2.45 Z"></path></g><g transform="translate(918.9536325847087 1009.7157831419854) rotate(0 8.008484950416346 5.338894923635621)" stroke="none"><path fill="#1e1e1e" d="M 5.24,0.87 Q 5.24,0.87 4.88,3.18 4.53,5.48 5.21,7.51 5.88,9.55 7.98,9.06 10.08,8.58 10.34,5.72 10.60,2.85 9.66,2.89 8.72,2.92 7.61,2.78 6.49,2.64 5.48,2.16 4.46,1.67 3.66,0.88 2.85,0.10 2.34,-0.89 1.83,-1.90 1.66,-3.01 1.50,-4.12 1.70,-5.23 1.90,-6.34 2.44,-7.32 2.98,-8.31 3.81,-9.07 4.64,-9.83 5.67,-10.29 6.69,-10.74 7.81,-10.85 8.93,-10.95 10.03,-10.69 11.12,-10.44 12.08,-9.84 13.03,-9.25 13.75,-8.38 14.46,-7.51 14.86,-6.46 15.26,-5.41 15.31,-4.28 15.35,-3.16 15.03,-2.08 14.72,-1.00 14.07,-0.08 13.43,0.83 12.52,1.50 11.61,2.17 10.54,2.51 9.47,2.85 8.35,2.83 7.22,2.82 6.16,2.44 5.10,2.07 4.22,1.37 3.33,0.68 2.71,-0.25 2.10,-1.19 1.81,-2.28 1.53,-3.37 1.61,-4.49 1.68,-5.62 2.12,-6.65 2.55,-7.69 3.29,-8.54 4.03,-9.38 5.00,-9.95 5.98,-10.51 7.08,-10.74 8.18,-10.96 8.18,-10.96 8.18,-10.96 9.53,-11.01 10.89,-11.06 14.35,-10.20 17.82,-9.33 20.42,-6.23 23.01,-3.13 23.52,0.00 24.02,3.14 23.87,5.45 23.72,7.76 22.53,11.25 21.34,14.74 19.05,16.56 16.76,18.38 12.67,19.71 8.58,21.04 5.29,20.47 1.99,19.91 -0.16,18.75 -2.33,17.59 -4.11,14.75 -5.88,11.91 -5.97,7.82 -6.07,3.72 -5.65,1.42 -5.24,-0.87 -5.05,-1.48 -4.87,-2.10 -4.55,-2.65 -4.23,-3.20 -3.78,-3.66 -3.34,-4.12 -2.80,-4.46 -2.25,-4.80 -1.64,-5.00 -1.04,-5.20 -0.40,-5.25 0.23,-5.30 0.86,-5.20 1.49,-5.09 2.08,-4.84 2.67,-4.59 3.18,-4.20 3.69,-3.81 4.09,-3.31 4.50,-2.82 4.77,-2.24 5.04,-1.66 5.17,-1.03 5.29,-0.40 5.26,0.23 5.24,0.87 5.24,0.87 L 5.24,0.87 Z"></path></g><g transform="translate(459.8051661272385 36.69467828241034) rotate(0 4.0042017423616585 24.02523082059315)" stroke="none"><path fill="#1e1e1e" d="M -4.28,-0.71 Q -4.28,-0.71 -4.01,-3.03 -3.73,-5.35 -3.58,-5.88 -3.42,-6.41 -3.15,-6.88 -2.87,-7.36 -2.49,-7.76 -2.10,-8.15 -1.64,-8.44 -1.17,-8.74 -0.65,-8.91 -0.12,-9.08 0.42,-9.12 0.97,-9.16 1.51,-9.07 2.05,-8.98 2.56,-8.77 3.06,-8.55 3.50,-8.21 3.94,-7.88 4.29,-7.45 4.63,-7.03 4.87,-6.53 5.10,-6.03 5.21,-5.49 5.32,-4.95 5.29,-4.40 5.27,-3.85 5.13,5.11 4.98,14.09 4.88,19.24 4.78,24.38 5.06,28.74 5.34,33.10 5.66,36.21 5.98,39.32 6.44,42.79 6.90,46.26 8.03,49.18 9.15,52.09 6.41,51.85 3.66,51.60 3.39,50.10 3.11,48.59 3.49,47.90 3.87,47.21 4.45,46.67 5.03,46.14 5.75,45.82 6.47,45.49 7.25,45.42 8.04,45.34 8.81,45.52 9.57,45.70 10.24,46.12 10.91,46.53 11.42,47.14 11.92,47.74 12.20,48.48 12.49,49.22 12.52,50.01 12.55,50.79 12.33,51.55 12.11,52.31 11.66,52.95 11.21,53.60 10.58,54.07 9.94,54.54 9.19,54.78 8.44,55.03 7.65,55.02 6.87,55.01 6.12,54.75 5.38,54.48 4.76,54.00 4.13,53.51 3.70,52.86 3.26,52.20 3.06,51.44 2.86,50.67 2.91,49.89 2.97,49.10 3.27,48.37 3.57,47.64 4.09,47.05 4.60,46.45 5.29,46.05 5.97,45.66 6.74,45.50 7.51,45.34 8.29,45.43 9.08,45.53 9.79,45.87 10.50,46.21 11.06,46.76 11.63,47.31 11.99,48.01 12.35,48.71 12.47,49.49 12.59,50.27 12.45,51.04 12.31,51.82 12.31,51.82 12.31,51.82 11.50,53.89 10.68,55.97 7.71,57.39 4.75,58.81 2.71,55.26 0.67,51.70 0.21,49.45 -0.25,47.19 -0.70,43.46 -1.16,39.73 -1.19,36.72 -1.23,33.71 -1.77,29.09 -2.32,24.48 -2.55,19.35 -2.79,14.22 -3.26,4.43 -3.73,-5.35 -3.58,-5.88 -3.42,-6.41 -3.15,-6.88 -2.87,-7.36 -2.49,-7.75 -2.10,-8.15 -1.64,-8.44 -1.17,-8.74 -0.65,-8.91 -0.12,-9.08 0.42,-9.12 0.96,-9.16 1.51,-9.07 2.05,-8.98 2.56,-8.77 3.06,-8.55 3.50,-8.21 3.94,-7.88 4.29,-7.45 4.63,-7.03 4.87,-6.53 5.10,-6.03 5.21,-5.49 5.32,-4.95 5.29,-4.40 5.27,-3.85 4.78,-1.56 4.28,0.71 4.14,1.21 3.99,1.72 3.72,2.17 3.46,2.62 3.10,3.00 2.73,3.37 2.29,3.65 1.84,3.93 1.35,4.09 0.85,4.26 0.32,4.30 -0.19,4.34 -0.70,4.25 -1.22,4.17 -1.70,3.96 -2.18,3.75 -2.60,3.44 -3.02,3.12 -3.35,2.71 -3.68,2.30 -3.90,1.83 -4.13,1.35 -4.23,0.84 -4.33,0.33 -4.31,-0.19 -4.28,-0.71 -4.28,-0.71 L -4.28,-0.71 Z"></path></g><g transform="translate(447.7925609001536 28.68627479768702) rotate(0 30.031513067712353 3.3368347853013915)" stroke="none"><path fill="#1e1e1e" d="M -2.28,-4.00 Q -2.28,-4.00 0.39,-5.53 3.08,-7.06 6.16,-8.78 9.24,-10.49 11.84,-11.80 14.45,-13.11 17.99,-14.36 21.53,-15.60 24.12,-16.60 26.71,-17.59 30.37,-18.38 34.04,-19.16 36.52,-19.92 39.01,-20.68 42.41,-21.07 45.82,-21.45 48.38,-21.30 50.95,-21.15 53.35,-20.65 55.74,-20.16 57.91,-18.84 60.08,-17.52 62.15,-13.20 64.22,-8.89 62.80,-4.01 61.38,0.86 58.26,5.69 55.15,10.52 52.88,12.61 50.61,14.71 47.65,16.95 44.69,19.19 42.61,20.71 40.53,22.24 36.49,24.63 32.45,27.01 30.27,27.78 28.08,28.55 25.05,28.21 22.01,27.86 19.69,24.96 17.36,22.06 17.24,21.15 17.13,20.24 17.31,19.34 17.49,18.43 17.95,17.64 18.41,16.84 19.10,16.23 19.79,15.62 20.63,15.26 21.48,14.91 22.40,14.84 23.32,14.77 24.21,15.00 25.10,15.23 25.87,15.73 26.64,16.23 27.21,16.96 27.79,17.68 28.10,18.54 28.41,19.41 28.42,20.33 28.44,21.25 28.16,22.13 27.89,23.01 27.34,23.75 26.80,24.49 26.05,25.02 25.30,25.55 24.42,25.82 23.53,26.08 22.61,26.05 21.69,26.02 20.83,25.69 19.97,25.37 19.26,24.78 18.55,24.20 18.06,23.42 17.57,22.64 17.35,21.75 17.14,20.85 17.22,19.94 17.30,19.02 17.67,18.18 18.04,17.34 18.66,16.66 19.28,15.98 20.09,15.53 20.89,15.08 21.80,14.92 22.70,14.75 23.61,14.88 24.53,15.01 25.35,15.43 26.17,15.85 26.81,16.50 27.46,17.16 27.86,17.99 28.26,18.81 28.26,18.81 28.26,18.81 27.86,18.18 27.47,17.55 31.03,15.66 34.59,13.77 36.39,12.58 38.18,11.39 40.73,9.03 43.27,6.68 44.93,5.19 46.58,3.71 48.03,1.87 49.48,0.03 51.32,-3.17 53.16,-6.39 53.10,-8.52 53.05,-10.65 49.87,-11.50 46.68,-12.34 44.04,-12.12 41.40,-11.90 38.70,-11.24 36.00,-10.57 32.87,-9.81 29.75,-9.05 27.19,-8.21 24.63,-7.37 21.48,-6.10 18.33,-4.83 16.03,-3.84 13.74,-2.85 10.70,-0.96 7.65,0.92 4.97,2.46 2.28,4.00 1.77,4.21 1.26,4.43 0.71,4.52 0.16,4.60 -0.38,4.55 -0.94,4.51 -1.46,4.33 -1.99,4.15 -2.46,3.85 -2.93,3.55 -3.31,3.15 -3.69,2.75 -3.97,2.27 -4.24,1.78 -4.40,1.25 -4.55,0.71 -4.57,0.16 -4.59,-0.39 -4.47,-0.93 -4.36,-1.47 -4.12,-1.98 -3.88,-2.48 -3.53,-2.91 -3.17,-3.33 -2.73,-3.67 -2.28,-4.00 -2.28,-4.00 L -2.28,-4.00 Z"></path></g><g transform="translate(522.5376600909044 19.34313739884317) rotate(0 23.357843497109684 -2.002100871180801)" stroke="none"><path fill="#1e1e1e" d="M 0,-5.17 Q 0,-5.17 2.30,-5.22 4.60,-5.26 7.79,-5.70 10.98,-6.14 14.05,-6.35 17.12,-6.55 21.49,-7.02 25.85,-7.50 28.98,-8.16 32.12,-8.82 34.86,-9.13 37.60,-9.43 41.81,-9.67 46.02,-9.92 46.97,-9.78 47.92,-9.64 48.77,-9.20 49.63,-8.76 50.30,-8.08 50.97,-7.39 51.38,-6.53 51.80,-5.66 51.92,-4.71 52.04,-3.76 51.85,-2.82 51.65,-1.88 51.17,-1.05 50.69,-0.22 49.97,0.40 49.25,1.03 48.36,1.40 47.48,1.77 46.52,1.83 45.57,1.90 44.64,1.66 43.71,1.42 42.91,0.89 42.11,0.37 41.51,-0.38 40.92,-1.13 40.60,-2.04 40.28,-2.94 40.27,-3.90 40.25,-4.86 40.54,-5.77 40.84,-6.68 41.40,-7.46 41.97,-8.23 42.76,-8.78 43.54,-9.33 44.46,-9.60 45.38,-9.87 46.34,-9.83 47.30,-9.80 48.19,-9.46 49.09,-9.11 49.83,-8.51 50.57,-7.90 51.08,-7.08 51.59,-6.27 51.81,-5.34 52.03,-4.40 51.94,-3.45 51.85,-2.49 51.46,-1.62 51.07,-0.74 50.42,-0.03 49.77,0.66 48.93,1.12 48.09,1.59 47.15,1.76 46.21,1.93 46.21,1.93 46.21,1.93 43.66,1.94 41.12,1.96 38.19,2.06 35.26,2.17 31.38,2.77 27.50,3.38 22.65,3.87 17.80,4.37 15.61,4.48 13.43,4.60 11.16,4.98 8.89,5.37 6.74,5.31 4.60,5.26 2.30,5.22 0,5.17 -0.61,5.10 -1.23,5.02 -1.82,4.80 -2.40,4.58 -2.91,4.22 -3.43,3.87 -3.84,3.40 -4.26,2.94 -4.55,2.38 -4.84,1.83 -4.99,1.22 -5.13,0.62 -5.13,-0.00 -5.13,-0.62 -4.98,-1.23 -4.84,-1.83 -4.55,-2.38 -4.26,-2.94 -3.84,-3.40 -3.43,-3.87 -2.91,-4.22 -2.40,-4.58 -1.82,-4.80 -1.23,-5.02 -0.61,-5.10 0.00,-5.17 0.00,-5.17 L 0,-5.17 Z"></path></g><g transform="translate(547.897604459195 24.682073055325418) rotate(0 2.6694678282410678 29.364146110652086)" stroke="none"><path fill="#1e1e1e" d="M 4.53,-0.50 Q 4.53,-0.50 4.84,2.95 5.16,6.41 5.44,8.72 5.73,11.03 5.83,14.02 5.93,17.00 6.45,21.45 6.97,25.91 7.61,34.09 8.26,42.27 8.54,46.13 8.82,49.98 9.32,53.83 9.82,57.68 9.75,58.41 9.67,59.14 9.36,59.81 9.06,60.48 8.55,61.02 8.05,61.55 7.40,61.90 6.76,62.24 6.03,62.37 5.31,62.49 4.58,62.37 3.86,62.26 3.20,61.91 2.55,61.57 2.05,61.04 1.54,60.51 1.23,59.84 0.92,59.18 0.84,58.45 0.75,57.72 0.91,57.00 1.06,56.28 1.44,55.65 1.82,55.02 2.37,54.54 2.93,54.06 3.61,53.79 4.30,53.51 5.03,53.47 5.76,53.43 6.47,53.62 7.18,53.82 7.79,54.23 8.40,54.64 8.85,55.22 9.29,55.80 9.53,56.50 9.77,57.20 9.77,57.93 9.77,58.66 9.54,59.36 9.31,60.06 8.87,60.65 8.42,61.23 7.82,61.65 7.21,62.06 6.50,62.26 5.80,62.46 5.06,62.42 4.33,62.39 3.65,62.12 2.96,61.85 2.40,61.37 1.84,60.90 1.46,60.27 1.08,59.64 0.92,58.93 0.75,58.21 0.75,58.21 0.76,58.21 0.71,54.52 0.67,50.83 0.15,47.05 -0.35,43.27 -1.57,35.29 -2.80,27.31 -3.13,22.27 -3.47,17.22 -3.50,14.47 -3.54,11.71 -3.58,9.55 -3.63,7.39 -4.08,3.94 -4.53,0.50 -4.52,-0.04 -4.51,-0.59 -4.38,-1.12 -4.24,-1.65 -3.98,-2.14 -3.72,-2.62 -3.35,-3.03 -2.98,-3.44 -2.53,-3.75 -2.07,-4.05 -1.56,-4.24 -1.04,-4.43 -0.49,-4.49 0.04,-4.55 0.59,-4.48 1.13,-4.41 1.64,-4.21 2.15,-4.01 2.60,-3.69 3.05,-3.38 3.41,-2.96 3.77,-2.55 4.02,-2.06 4.27,-1.57 4.40,-1.03 4.53,-0.50 4.53,-0.50 L 4.53,-0.50 Z"></path></g><g transform="translate(605.2911627663786 54.046219165977504) rotate(0 8.675770441783584 0)" stroke="none"><path fill="#1e1e1e" d="M 1.01,-5.05 Q 1.01,-5.05 2.87,-4.74 4.73,-4.43 7.81,-5.04 10.89,-5.65 13.99,-6.38 17.09,-7.10 18.05,-7.06 19.01,-7.03 19.90,-6.68 20.80,-6.34 21.54,-5.73 22.28,-5.13 22.78,-4.31 23.29,-3.50 23.51,-2.57 23.73,-1.63 23.64,-0.68 23.55,0.26 23.16,1.14 22.77,2.02 22.12,2.72 21.48,3.43 20.64,3.89 19.80,4.35 18.85,4.52 17.91,4.69 16.96,4.55 16.01,4.41 15.16,3.97 14.31,3.54 13.64,2.85 12.97,2.17 12.55,1.30 12.14,0.44 12.02,-0.50 11.90,-1.45 12.09,-2.39 12.29,-3.33 12.77,-4.16 13.25,-4.99 13.97,-5.62 14.69,-6.25 15.58,-6.62 16.46,-6.99 17.42,-7.05 18.37,-7.12 19.30,-6.88 20.23,-6.64 21.03,-6.11 21.83,-5.58 22.42,-4.83 23.01,-4.08 23.33,-3.17 23.65,-2.27 23.66,-1.31 23.68,-0.35 23.39,0.55 23.09,1.46 22.53,2.23 21.96,3.01 21.17,3.56 20.39,4.10 19.47,4.37 18.55,4.65 18.55,4.65 18.55,4.64 17.02,4.76 15.49,4.87 11.36,5.28 7.22,5.70 5.08,5.83 2.93,5.96 0.96,5.51 -1.01,5.05 -1.60,4.86 -2.19,4.66 -2.71,4.33 -3.24,4.00 -3.67,3.56 -4.11,3.11 -4.42,2.57 -4.73,2.04 -4.91,1.44 -5.08,0.84 -5.11,0.22 -5.14,-0.39 -5.01,-1.00 -4.89,-1.61 -4.63,-2.17 -4.36,-2.73 -3.97,-3.22 -3.58,-3.70 -3.09,-4.08 -2.59,-4.45 -2.02,-4.70 -1.45,-4.94 -0.84,-5.04 -0.22,-5.15 0.39,-5.10 1.01,-5.05 1.01,-5.05 L 1.01,-5.05 Z"></path></g><g transform="translate(653.3415836747183 56.71568699421857) rotate(0 19.35364175474797 -16.684173926506844)" stroke="none"><path fill="#1e1e1e" d="M -3.16,-3.51 Q -3.16,-3.51 4.69,-10.22 12.54,-16.92 16.32,-20.08 20.10,-23.24 22.34,-25.45 24.59,-27.66 26.22,-29.43 27.86,-31.20 29.10,-32.96 30.35,-34.72 32.64,-37.09 34.93,-39.46 35.61,-40.63 36.28,-41.81 36.81,-42.14 37.34,-42.48 37.94,-42.68 38.54,-42.87 39.17,-42.92 39.79,-42.97 40.41,-42.87 41.03,-42.77 41.61,-42.52 42.19,-42.28 42.69,-41.90 43.20,-41.52 43.59,-41.03 43.99,-40.54 44.26,-39.98 44.53,-39.41 44.65,-38.79 44.78,-38.17 44.75,-37.55 44.73,-36.92 44.55,-36.31 44.38,-35.71 44.06,-35.17 43.75,-34.62 43.31,-34.17 42.87,-33.71 39.74,-37.61 36.61,-41.50 37.13,-41.83 37.65,-42.16 38.24,-42.36 38.82,-42.55 39.44,-42.60 40.05,-42.65 40.66,-42.55 41.27,-42.45 41.84,-42.21 42.41,-41.97 42.90,-41.59 43.39,-41.22 43.78,-40.74 44.17,-40.27 44.44,-39.71 44.70,-39.15 44.82,-38.55 44.94,-37.94 44.92,-37.32 44.89,-36.71 44.72,-36.12 44.55,-35.52 44.24,-34.99 43.93,-34.45 43.50,-34.01 43.08,-33.57 41.96,-30.99 40.84,-28.42 39.67,-25.17 38.50,-21.92 37.75,-18.85 37.01,-15.79 36.44,-13.64 35.88,-11.48 35.74,-8.72 35.61,-5.95 35.62,-3.52 35.62,-1.09 36.76,-0.15 37.89,0.78 38.41,1.67 38.93,2.57 39.15,3.58 39.36,4.59 39.24,5.61 39.11,6.64 38.67,7.57 38.23,8.51 37.51,9.25 36.79,9.99 35.87,10.47 34.96,10.94 33.93,11.10 32.91,11.26 31.90,11.08 30.88,10.90 29.97,10.41 29.06,9.91 28.36,9.16 27.66,8.40 27.23,7.46 26.81,6.52 26.71,5.49 26.60,4.46 26.84,3.45 27.07,2.45 27.61,1.57 28.15,0.69 28.95,0.03 29.74,-0.63 30.70,-1.00 31.67,-1.37 32.70,-1.42 33.73,-1.46 34.72,-1.18 35.72,-0.89 36.57,-0.30 37.42,0.28 38.03,1.11 38.65,1.94 38.97,2.92 39.29,3.90 39.28,4.93 39.27,5.97 38.93,6.94 38.59,7.92 37.95,8.73 37.32,9.55 36.46,10.12 35.60,10.69 34.60,10.96 33.60,11.23 32.57,11.16 31.54,11.09 30.58,10.70 29.63,10.31 28.85,9.63 28.07,8.95 28.07,8.95 28.07,8.96 26.13,6.10 24.18,3.25 23.69,-0.59 23.21,-4.44 23.43,-7.28 23.66,-10.12 24.43,-13.72 25.20,-17.33 26.32,-21.64 27.44,-25.95 28.73,-28.98 30.02,-32.02 31.17,-34.84 32.33,-37.66 34.47,-39.58 36.61,-41.50 37.13,-41.83 37.65,-42.16 38.24,-42.36 38.82,-42.55 39.44,-42.60 40.05,-42.65 40.66,-42.55 41.27,-42.45 41.84,-42.21 42.41,-41.97 42.90,-41.59 43.39,-41.22 43.78,-40.75 44.17,-40.27 44.44,-39.71 44.70,-39.15 44.82,-38.55 44.94,-37.94 44.92,-37.33 44.89,-36.71 44.72,-36.12 44.55,-35.52 44.24,-34.99 43.93,-34.45 43.50,-34.01 43.08,-33.57 39.68,-37.69 36.28,-41.80 36.81,-42.14 37.34,-42.48 37.94,-42.67 38.54,-42.87 39.16,-42.92 39.79,-42.97 40.41,-42.87 41.03,-42.77 41.61,-42.52 42.19,-42.28 42.69,-41.90 43.19,-41.52 43.59,-41.03 43.99,-40.54 44.26,-39.98 44.53,-39.41 44.65,-38.79 44.78,-38.18 44.75,-37.55 44.73,-36.92 44.55,-36.31 44.38,-35.71 44.06,-35.17 43.75,-34.62 43.31,-34.17 42.87,-33.72 42.58,-33.21 42.29,-32.71 39.76,-30.93 37.24,-29.15 35.47,-27.16 33.69,-25.18 31.82,-23.57 29.95,-21.95 27.56,-19.81 25.17,-17.66 21.66,-14.18 18.14,-10.70 10.65,-3.59 3.16,3.51 2.70,3.84 2.23,4.17 1.70,4.38 1.16,4.58 0.60,4.66 0.03,4.73 -0.53,4.67 -1.09,4.60 -1.63,4.40 -2.16,4.20 -2.64,3.88 -3.11,3.56 -3.49,3.14 -3.87,2.72 -4.14,2.21 -4.41,1.71 -4.55,1.16 -4.69,0.60 -4.70,0.03 -4.70,-0.53 -4.57,-1.08 -4.44,-1.64 -4.17,-2.15 -3.91,-2.65 -3.54,-3.08 -3.16,-3.51 -3.16,-3.51 L -3.16,-3.51 Z"></path></g><g transform="translate(741.4340220066747 26.016806969445952) rotate(0 -6.0063026135424025 18.018907840627378)" stroke="none"><path fill="#1e1e1e" d="M 0.86,5.17 Q 0.86,5.17 -1.39,5.58 -3.64,5.98 -6.09,7.55 -8.53,9.12 -10.55,11.33 -12.57,13.55 -14.43,16.93 -16.28,20.31 -17.02,22.95 -17.76,25.60 -17.51,27.72 -17.25,29.83 -14.83,30.99 -12.41,32.15 -8.99,31.65 -5.58,31.16 -4.00,29.61 -2.42,28.06 -0.57,25.82 1.27,23.58 2.67,20.87 4.07,18.16 4.62,15.71 5.17,13.26 5.28,10.70 5.39,8.15 4.19,5.80 2.99,3.44 5.10,3.41 7.21,3.39 6.48,4.20 5.74,5.02 4.79,5.55 3.83,6.09 2.75,6.30 1.67,6.50 0.59,6.35 -0.49,6.20 -1.47,5.71 -2.46,5.22 -3.23,4.44 -4.00,3.66 -4.49,2.68 -4.97,1.69 -5.12,0.60 -5.26,-0.48 -5.05,-1.55 -4.84,-2.63 -4.30,-3.58 -3.76,-4.54 -2.94,-5.27 -2.12,-6.00 -1.11,-6.43 -0.10,-6.86 0.98,-6.94 2.08,-7.03 3.14,-6.76 4.21,-6.49 5.13,-5.90 6.05,-5.31 6.74,-4.45 7.42,-3.59 7.80,-2.56 8.17,-1.53 8.20,-0.43 8.23,0.65 7.90,1.70 7.58,2.75 6.93,3.64 6.29,4.53 5.40,5.17 4.50,5.80 3.45,6.12 2.40,6.44 1.31,6.41 0.21,6.38 -0.81,5.99 -1.84,5.61 -2.69,4.92 -3.55,4.23 -4.13,3.31 -4.72,2.38 -4.98,1.31 -5.24,0.25 -5.15,-0.84 -5.06,-1.93 -4.62,-2.94 -4.19,-3.94 -4.19,-3.94 -4.19,-3.94 2.71,-5.93 9.63,-7.92 12.23,-5.20 14.83,-2.48 16.21,0.58 17.59,3.65 17.95,7.40 18.30,11.16 18.14,13.35 17.98,15.55 17.57,17.64 17.15,19.73 15.65,23.14 14.16,26.56 13.12,28.77 12.08,30.99 9.70,33.89 7.32,36.80 5.55,38.55 3.79,40.31 1.83,41.49 -0.12,42.67 -3.20,43.43 -6.29,44.20 -9.93,44.51 -13.58,44.83 -17.38,43.89 -21.17,42.95 -23.55,41.18 -25.93,39.42 -27.50,35.88 -29.08,32.35 -29.42,29.98 -29.76,27.62 -29.53,25.40 -29.31,23.17 -28.78,21.12 -28.25,19.06 -26.31,15.19 -24.38,11.32 -22.89,8.83 -21.40,6.34 -19.84,4.59 -18.28,2.85 -14.46,0.33 -10.65,-2.17 -8.11,-3.31 -5.56,-4.45 -3.21,-4.81 -0.86,-5.17 -0.23,-5.20 0.40,-5.23 1.02,-5.10 1.64,-4.98 2.21,-4.71 2.78,-4.44 3.27,-4.04 3.77,-3.65 4.15,-3.14 4.53,-2.64 4.78,-2.06 5.03,-1.48 5.13,-0.85 5.24,-0.23 5.19,0.39 5.14,1.02 4.94,1.63 4.75,2.23 4.41,2.76 4.07,3.30 3.62,3.74 3.16,4.18 2.62,4.50 2.07,4.82 1.46,4.99 0.86,5.17 0.86,5.17 L 0.86,5.17 Z"></path></g><g transform="translate(800.1623142279789 16.6736695706021) rotate(0 1.3347339141206476 24.025210454169894)" stroke="none"><path fill="#1e1e1e" d="M 1.68,5.04 Q 1.68,5.04 -0.61,5.83 -2.91,6.62 -4.88,7.65 -6.86,8.68 -8.28,10.40 -9.70,12.12 -10.89,14.64 -12.08,17.15 -12.82,19.76 -13.57,22.38 -14.14,24.82 -14.71,27.27 -14.58,30.25 -14.45,33.24 -13.73,35.38 -13.01,37.52 -11.62,39.75 -10.23,41.99 -7.64,42.35 -5.04,42.72 -1.41,42.04 2.21,41.35 5.12,39.36 8.03,37.38 9.85,34.82 11.67,32.27 13.66,29.10 15.64,25.94 16.50,22.95 17.36,19.97 17.49,17.35 17.61,14.74 17.06,11.45 16.51,8.17 14.02,6.79 11.54,5.41 9.35,5.46 7.17,5.50 5.05,5.88 2.92,6.26 1.82,6.45 0.73,6.64 -0.36,6.46 -1.46,6.29 -2.45,5.77 -3.43,5.25 -4.20,4.45 -4.97,3.65 -5.45,2.64 -5.92,1.63 -6.04,0.53 -6.17,-0.57 -5.94,-1.66 -5.70,-2.75 -5.13,-3.70 -4.56,-4.66 -3.72,-5.39 -2.88,-6.11 -1.84,-6.53 -0.81,-6.94 0.29,-7.01 1.40,-7.08 2.47,-6.78 3.55,-6.49 4.47,-5.87 5.40,-5.25 6.08,-4.37 6.75,-3.49 7.11,-2.43 7.47,-1.38 7.48,-0.27 7.49,0.84 7.14,1.89 6.79,2.95 6.12,3.84 5.45,4.73 4.53,5.36 3.61,5.99 2.54,6.29 1.47,6.59 0.36,6.54 -0.74,6.48 -1.78,6.08 -2.82,5.67 -3.67,4.95 -4.52,4.24 -5.10,3.29 -5.68,2.33 -5.92,1.25 -6.17,0.16 -6.05,-0.93 -5.94,-2.04 -5.47,-3.05 -5.01,-4.07 -4.25,-4.88 -3.49,-5.69 -2.51,-6.22 -1.53,-6.74 -1.53,-6.74 -1.53,-6.74 2.03,-7.42 5.61,-8.10 8.20,-7.99 10.79,-7.88 14.61,-6.98 18.44,-6.08 20.56,-4.55 22.68,-3.01 25.30,-0.22 27.91,2.56 28.67,5.38 29.43,8.19 29.89,10.40 30.35,12.61 30.18,15.30 30.02,17.99 29.80,20.27 29.58,22.55 29.06,24.75 28.54,26.94 27.43,29.84 26.33,32.73 24.21,36.16 22.10,39.59 20.81,41.46 19.53,43.32 18.07,45.11 16.62,46.91 13.04,49.57 9.46,52.23 5.62,53.52 1.79,54.80 -0.58,55.18 -2.97,55.56 -5.15,55.40 -7.33,55.24 -11.28,54.03 -15.24,52.82 -17.44,51.39 -19.64,49.95 -21.88,46.37 -24.11,42.79 -25.27,38.78 -26.44,34.77 -26.46,29.71 -26.48,24.66 -26.03,22.51 -25.58,20.36 -24.31,16.37 -23.04,12.38 -20.95,8.62 -18.86,4.86 -16.01,2.08 -13.17,-0.68 -9.73,-2.11 -6.29,-3.55 -3.99,-4.29 -1.68,-5.04 -1.05,-5.17 -0.42,-5.30 0.21,-5.27 0.85,-5.24 1.47,-5.07 2.08,-4.89 2.64,-4.57 3.19,-4.25 3.65,-3.80 4.12,-3.36 4.46,-2.81 4.80,-2.27 5.00,-1.66 5.21,-1.06 5.26,-0.42 5.31,0.21 5.21,0.84 5.10,1.48 4.85,2.07 4.60,2.66 4.21,3.17 3.83,3.68 3.33,4.09 2.83,4.49 2.26,4.77 1.68,5.04 1.68,5.04 L 1.68,5.04 Z"></path></g></svg>