<svg version="1.1" xmlns="http://www.w3.org/2000/svg" viewBox="0 0 1122 767.0000610351562" width="1122" height="767.0000610351562" filter="invert(93%) hue-rotate(180deg)" class="excalidraw-svg"><!-- svg-source:excalidraw --><metadata></metadata><defs><style class="style-fonts">
      </style></defs><g stroke-linecap="round"><g transform="translate(240 652) rotate(0 0 -304)"><path d="M-0.31 0.81 C-0.42 -100.39, 0.27 -506.1, 0.18 -607.64 M1.72 0.19 C1.4 -101.35, -0.65 -508.32, -0.68 -609.57" stroke="#1e1e1e" stroke-width="2" fill="none"></path></g><g transform="translate(240 652) rotate(0 0 -304)"><path d="M7.94 -586.11 C6.21 -594.45, 2.3 -604.8, -0.68 -609.57 M7.94 -586.11 C5.47 -592.14, 3.6 -597.97, -0.68 -609.57" stroke="#1e1e1e" stroke-width="2" fill="none"></path></g><g transform="translate(240 652) rotate(0 0 -304)"><path d="M-9.16 -586.05 C-4.61 -594.38, -2.23 -604.74, -0.68 -609.57 M-9.16 -586.05 C-7.12 -591.99, -4.48 -597.84, -0.68 -609.57" stroke="#1e1e1e" stroke-width="2" fill="none"></path></g></g><mask></mask><g stroke-linecap="round"><g transform="translate(204.00006103515625 611.0000610351562) rotate(0 338.4999694824219 0)"><path d="M-1.2 1.16 C111.97 1.31, 564.97 1.11, 677.96 0.82 M0.37 0.73 C113.56 0.55, 564.95 -0.82, 677.51 -0.87" stroke="#1e1e1e" stroke-width="2" fill="none"></path></g><g transform="translate(204.00006103515625 611.0000610351562) rotate(0 338.4999694824219 0)"><path d="M654.04 7.73 C660.98 7.73, 665.41 3.81, 677.51 -0.87 M654.04 7.73 C660.69 6.05, 666.28 3.49, 677.51 -0.87" stroke="#1e1e1e" stroke-width="2" fill="none"></path></g><g transform="translate(204.00006103515625 611.0000610351562) rotate(0 338.4999694824219 0)"><path d="M654 -9.37 C660.94 -5.73, 665.38 -6.02, 677.51 -0.87 M654 -9.37 C660.58 -6.71, 666.18 -4.94, 677.51 -0.87" stroke="#1e1e1e" stroke-width="2" fill="none"></path></g></g><mask></mask><g transform="translate(245 506.00006103515625) rotate(0 287.5 -220.50001525878906)" stroke="none"><path fill="#1e1e1e" d="M 0,-3.97 Q 0,-3.97 2.01,-4.13 4.02,-4.28 6.31,-4.40 8.61,-4.52 17.85,-4.93 27.09,-5.35 32.40,-5.67 37.72,-5.98 41.50,-6.19 45.28,-6.39 48.97,-6.97 52.65,-7.55 55.70,-8.21 58.74,-8.88 62.62,-9.60 66.49,-10.32 69.57,-11.05 72.66,-11.78 77.09,-12.74 81.52,-13.70 85.09,-14.73 88.66,-15.77 93.33,-17.24 98.00,-18.71 101.73,-19.95 105.46,-21.20 110.52,-22.81 115.58,-24.42 119.45,-25.69 123.32,-26.97 128.36,-28.87 133.41,-30.78 136.99,-32.24 140.56,-33.70 143.72,-35.23 146.87,-36.75 151.83,-38.49 156.80,-40.23 160.51,-41.80 164.23,-43.37 169.00,-45.43 173.77,-47.50 177.57,-49.02 181.38,-50.54 186.42,-52.56 191.46,-54.58 195.30,-56.27 199.13,-57.97 204.26,-60.13 209.39,-62.30 213.25,-64.06 217.11,-65.82 222.25,-68.02 227.39,-70.22 231.25,-71.99 235.12,-73.77 239.94,-75.96 244.77,-78.16 248.16,-79.99 251.56,-81.83 256.32,-83.77 261.08,-85.71 264.37,-87.42 267.67,-89.14 270.53,-90.60 273.40,-92.06 277.50,-93.95 281.59,-95.83 284.68,-97.58 287.76,-99.33 292.13,-101.18 296.50,-103.03 301.16,-105.19 305.82,-107.35 309.17,-109.18 312.51,-111.00 315.05,-112.51 317.59,-114.02 320.93,-115.96 324.27,-117.90 326.72,-119.67 329.18,-121.45 332.65,-123.57 336.12,-125.69 338.71,-127.34 341.31,-128.99 344.34,-130.98 347.36,-132.97 349.34,-134.73 351.32,-136.48 354.65,-138.88 357.99,-141.27 360.07,-143.20 362.16,-145.14 365.17,-147.61 368.18,-150.08 370.58,-152.13 372.98,-154.17 375.66,-156.60 378.34,-159.02 380.27,-161.03 382.19,-163.04 385.18,-165.58 388.17,-168.12 390.15,-170.11 392.13,-172.10 393.76,-173.86 395.40,-175.61 397.88,-178.01 400.35,-180.41 402.20,-182.36 404.05,-184.32 406.70,-186.63 409.36,-188.94 412.58,-191.49 415.81,-194.05 417.89,-196.07 419.97,-198.09 421.65,-199.86 423.32,-201.63 426.22,-204.07 429.12,-206.51 431.06,-208.44 433.01,-210.36 436.01,-212.85 439.02,-215.34 441.01,-217.30 443.00,-219.26 445.58,-221.90 448.16,-224.54 450.09,-226.70 452.03,-228.85 454.62,-231.61 457.22,-234.37 459.07,-236.73 460.92,-239.09 463.19,-242.18 465.47,-245.28 471.21,-252.69 476.95,-260.10 479.94,-264.28 482.94,-268.46 484.67,-271.22 486.39,-273.98 488.65,-276.95 490.91,-279.92 492.21,-282.24 493.52,-284.56 495.29,-287.34 497.05,-290.12 498.28,-292.22 499.50,-294.33 500.80,-296.80 502.09,-299.27 503.17,-301.52 504.25,-303.78 505.98,-306.59 507.71,-309.40 510.17,-314.02 512.64,-318.65 513.84,-320.68 515.04,-322.72 516.00,-324.61 516.97,-326.51 518.28,-329.01 519.58,-331.50 520.73,-333.60 521.88,-335.69 523.60,-338.31 525.33,-340.93 527.83,-345.41 530.34,-349.89 531.56,-351.90 532.78,-353.91 534.10,-356.29 535.43,-358.68 536.60,-360.74 537.77,-362.81 539.08,-365.40 540.39,-368.00 541.57,-370.23 542.76,-372.46 544.10,-375.16 545.43,-377.85 546.61,-380.11 547.80,-382.38 551.12,-388.22 554.44,-394.06 556.10,-397.18 557.75,-400.30 559.32,-403.16 560.89,-406.01 562.57,-409.70 564.25,-413.39 565.17,-416.44 566.10,-419.49 566.58,-421.98 567.06,-424.48 567.97,-427.96 568.87,-431.44 568.36,-433.73 567.85,-436.01 568.08,-435.41 568.31,-434.81 567.40,-435.31 566.50,-435.82 565.81,-436.58 565.11,-437.35 564.70,-438.30 564.28,-439.25 564.20,-440.28 564.11,-441.31 564.35,-442.31 564.60,-443.32 565.15,-444.19 565.70,-445.06 566.50,-445.72 567.31,-446.37 568.27,-446.73 569.24,-447.09 570.28,-447.12 571.31,-447.16 572.30,-446.86 573.29,-446.56 574.13,-445.96 574.98,-445.36 575.58,-444.52 576.19,-443.69 576.50,-442.70 576.81,-441.71 576.78,-440.68 576.76,-439.65 576.41,-438.67 576.06,-437.70 575.41,-436.89 574.77,-436.08 573.90,-435.52 573.03,-434.96 572.03,-434.71 571.03,-434.45 570.00,-434.53 568.97,-434.61 568.02,-435.01 567.06,-435.42 566.29,-436.10 565.52,-436.79 565.00,-437.69 564.49,-438.59 564.29,-439.60 564.09,-440.62 564.23,-441.64 564.36,-442.67 564.82,-443.59 565.27,-444.52 566.00,-445.26 566.73,-445.99 567.65,-446.46 568.57,-446.92 569.60,-447.06 570.62,-447.21 571.64,-447.02 572.65,-446.83 572.65,-446.83 572.65,-446.83 575.99,-444.12 579.34,-441.42 580.22,-438.53 581.11,-435.64 580.92,-433.49 580.73,-431.35 580.07,-428.84 579.40,-426.34 578.54,-423.83 577.68,-421.31 576.67,-418.34 575.67,-415.37 574.26,-412.18 572.86,-409.00 570.70,-405.38 568.54,-401.77 567.03,-399.07 565.52,-396.37 563.99,-393.18 562.45,-390.00 559.62,-383.71 556.80,-377.43 555.68,-375.51 554.56,-373.59 553.19,-370.50 551.83,-367.41 550.71,-365.51 549.59,-363.60 548.18,-360.51 546.77,-357.43 545.61,-355.59 544.45,-353.76 543.00,-351.04 541.54,-348.32 540.28,-346.44 539.02,-344.56 537.59,-342.17 536.16,-339.78 535.00,-337.64 533.83,-335.50 532.28,-333.01 530.74,-330.52 529.60,-328.71 528.47,-326.90 527.11,-324.26 525.76,-321.62 524.52,-319.55 523.28,-317.48 521.99,-315.61 520.70,-313.73 519.24,-311.33 517.77,-308.94 516.58,-306.80 515.40,-304.66 513.82,-302.11 512.25,-299.57 510.96,-297.32 509.67,-295.08 508.10,-292.38 506.54,-289.68 505.09,-287.74 503.64,-285.79 501.81,-283.11 499.99,-280.42 498.26,-278.00 496.54,-275.58 494.37,-272.81 492.20,-270.04 490.28,-267.41 488.36,-264.77 485.48,-260.33 482.59,-255.88 477.21,-248.40 471.82,-240.93 469.56,-237.39 467.30,-233.86 465.25,-231.47 463.20,-229.07 460.66,-226.05 458.13,-223.03 456.12,-221.04 454.11,-219.06 451.47,-216.03 448.82,-213.00 446.64,-211.08 444.46,-209.16 441.70,-206.58 438.95,-203.99 436.81,-202.11 434.68,-200.23 432.03,-197.76 429.38,-195.30 427.49,-193.64 425.59,-191.98 423.31,-190.00 421.04,-188.02 418.09,-185.22 415.13,-182.41 412.71,-180.23 410.29,-178.05 408.31,-176.20 406.34,-174.36 403.88,-171.87 401.42,-169.38 399.56,-167.76 397.70,-166.13 395.51,-164.23 393.32,-162.33 390.55,-159.76 387.79,-157.20 385.66,-155.31 383.53,-153.43 380.71,-150.75 377.89,-148.08 375.47,-146.24 373.05,-144.41 370.14,-141.81 367.23,-139.21 364.84,-137.32 362.45,-135.43 359.33,-132.89 356.21,-130.35 353.81,-128.62 351.42,-126.89 348.21,-124.73 345.00,-122.58 342.41,-121.23 339.81,-119.89 336.47,-117.68 333.13,-115.46 330.39,-113.81 327.65,-112.15 324.18,-110.07 320.70,-107.99 318.03,-106.81 315.36,-105.63 311.86,-103.83 308.36,-102.03 303.68,-99.72 298.99,-97.42 294.91,-95.52 290.82,-93.62 287.55,-91.95 284.27,-90.29 280.16,-88.21 276.05,-86.12 273.15,-85.01 270.24,-83.90 266.71,-82.26 263.18,-80.62 258.65,-78.73 254.13,-76.85 250.55,-75.09 246.98,-73.32 242.17,-71.12 237.36,-68.91 233.44,-67.10 229.51,-65.28 224.45,-63.08 219.38,-60.89 215.46,-59.07 211.54,-57.25 206.48,-55.07 201.42,-52.88 197.52,-51.09 193.62,-49.31 188.57,-47.20 183.52,-45.09 179.82,-43.65 176.13,-42.21 171.36,-40.03 166.59,-37.85 162.74,-36.18 158.90,-34.51 154.20,-32.71 149.50,-30.91 146.14,-29.50 142.78,-28.09 139.15,-26.71 135.53,-25.34 130.39,-23.27 125.24,-21.21 121.39,-19.90 117.53,-18.60 112.52,-16.84 107.52,-15.08 103.80,-13.82 100.09,-12.56 95.34,-10.83 90.60,-9.10 86.92,-8.02 83.23,-6.94 78.71,-5.64 74.18,-4.34 71.08,-3.79 67.97,-3.25 64.05,-2.33 60.13,-1.42 57.00,-0.94 53.88,-0.46 49.81,0.30 45.74,1.06 42.10,1.31 38.47,1.56 33.09,2.30 27.70,3.05 18.16,3.78 8.61,4.52 6.31,4.40 4.02,4.28 2.01,4.13 0,3.97 -0.47,3.91 -0.95,3.85 -1.39,3.68 -1.84,3.51 -2.24,3.24 -2.63,2.97 -2.95,2.61 -3.27,2.25 -3.49,1.83 -3.71,1.40 -3.83,0.94 -3.94,0.47 -3.94,-0.00 -3.94,-0.47 -3.83,-0.94 -3.71,-1.40 -3.49,-1.83 -3.27,-2.25 -2.95,-2.61 -2.63,-2.97 -2.24,-3.24 -1.84,-3.52 -1.39,-3.68 -0.95,-3.85 -0.47,-3.91 0.00,-3.97 0.00,-3.97 L 0,-3.97 Z"></path></g><g transform="translate(894.0001220703125 669) rotate(0 15.99993896484375 7)" stroke="none"><path fill="#1e1e1e" d="M -2.79,-3.99 Q -2.79,-3.99 0.14,-5.91 3.07,-7.84 5.33,-9.19 7.59,-10.54 9.64,-11.69 11.69,-12.84 16.59,-15.41 21.50,-17.98 23.98,-19.94 26.45,-21.90 27.43,-18.79 28.40,-15.68 27.35,-13.75 26.30,-11.83 25.46,-9.70 24.63,-7.57 24.77,-4.61 24.91,-1.65 25.51,0.82 26.11,3.29 26.52,5.44 26.94,7.58 27.69,10.27 28.44,12.97 28.77,15.68 29.09,18.39 29.64,21.61 30.19,24.82 30.79,28.64 31.38,32.46 31.37,33.52 31.35,34.58 31.00,35.58 30.65,36.58 30.00,37.41 29.35,38.24 28.46,38.83 27.58,39.41 26.56,39.68 25.53,39.95 24.48,39.88 23.42,39.81 22.44,39.40 21.46,39.00 20.66,38.30 19.87,37.60 19.33,36.69 18.80,35.78 18.59,34.74 18.37,33.70 18.50,32.65 18.63,31.60 19.09,30.64 19.54,29.69 20.28,28.93 21.02,28.17 21.96,27.69 22.90,27.20 23.95,27.05 25.00,26.89 26.04,27.08 27.08,27.26 28.01,27.77 28.94,28.28 29.66,29.06 30.38,29.83 30.81,30.80 31.24,31.77 31.34,32.82 31.44,33.88 31.20,34.91 30.96,35.94 30.40,36.84 29.84,37.74 29.02,38.41 28.21,39.09 27.22,39.47 26.23,39.84 25.17,39.89 24.12,39.93 23.10,39.63 22.08,39.34 21.21,38.73 20.35,38.12 19.72,37.27 19.09,36.42 18.76,35.41 18.44,34.41 18.44,34.41 18.44,34.41 17.88,30.19 17.33,25.97 16.83,22.81 16.32,19.65 15.73,16.65 15.14,13.66 14.60,10.61 14.05,7.56 13.19,3.79 12.33,0.01 12.20,-3.88 12.07,-7.78 12.96,-11.24 13.86,-14.71 15.93,-17.55 18.00,-20.40 20.80,-22.03 23.60,-23.67 26.28,-24.01 28.96,-24.36 31.24,-23.70 33.52,-23.04 34.12,-19.61 34.71,-16.18 32.37,-14.21 30.02,-12.23 28.10,-11.11 26.18,-9.98 21.23,-7.00 16.28,-4.02 14.26,-3.05 12.23,-2.08 10.32,-1.14 8.42,-0.20 5.60,1.89 2.79,3.99 2.27,4.26 1.75,4.54 1.18,4.68 0.61,4.83 0.03,4.83 -0.55,4.84 -1.12,4.70 -1.69,4.56 -2.22,4.29 -2.74,4.02 -3.18,3.64 -3.62,3.25 -3.96,2.77 -4.30,2.29 -4.51,1.74 -4.72,1.19 -4.79,0.61 -4.87,0.03 -4.80,-0.55 -4.73,-1.13 -4.53,-1.68 -4.33,-2.23 -3.99,-2.72 -3.66,-3.20 -3.23,-3.60 -2.79,-3.99 -2.79,-3.99 L -2.79,-3.99 Z"></path></g><g transform="translate(973 640) rotate(0 -5.5 24)" stroke="none"><path fill="#1e1e1e" d="M 4.38,2.19 Q 4.38,2.19 2.90,5.04 1.42,7.89 0.66,10.06 -0.08,12.23 -1.40,15.29 -2.73,18.35 -3.45,20.46 -4.17,22.57 -4.72,25.14 -5.26,27.71 -5.78,30.15 -6.29,32.59 -6.46,34.98 -6.63,37.37 -6.37,41.21 -6.11,45.04 -5.89,47.35 -5.68,49.66 -5.76,50.53 -5.84,51.40 -6.20,52.19 -6.55,52.99 -7.15,53.63 -7.74,54.27 -8.51,54.69 -9.27,55.11 -10.13,55.26 -10.99,55.42 -11.86,55.29 -12.72,55.16 -13.50,54.76 -14.27,54.36 -14.88,53.73 -15.49,53.10 -15.87,52.32 -16.24,51.53 -16.35,50.66 -16.45,49.80 -16.28,48.94 -16.10,48.09 -15.66,47.33 -15.22,46.58 -14.56,46.00 -13.90,45.43 -13.09,45.10 -12.29,44.76 -11.42,44.71 -10.54,44.65 -9.70,44.87 -8.86,45.09 -8.13,45.57 -7.40,46.06 -6.86,46.74 -6.32,47.43 -6.03,48.26 -5.75,49.08 -5.73,49.95 -5.72,50.83 -5.99,51.66 -6.26,52.49 -6.78,53.19 -7.30,53.89 -8.02,54.39 -8.73,54.89 -9.57,55.13 -10.41,55.38 -11.28,55.34 -12.15,55.30 -12.97,54.99 -13.78,54.68 -14.46,54.12 -15.13,53.56 -15.59,52.82 -16.05,52.08 -16.25,51.23 -16.45,50.38 -16.45,50.38 -16.45,50.38 -16.52,48.27 -16.60,46.15 -16.81,43.45 -17.02,40.75 -16.84,38.63 -16.66,36.51 -16.35,33.42 -16.05,30.33 -15.45,27.98 -14.85,25.63 -14.13,22.35 -13.41,19.07 -12.49,16.89 -11.58,14.71 -10.42,11.73 -9.26,8.75 -8.21,6.17 -7.17,3.60 -5.77,0.70 -4.38,-2.19 -4.06,-2.68 -3.73,-3.17 -3.29,-3.58 -2.86,-3.98 -2.34,-4.26 -1.82,-4.55 -1.25,-4.70 -0.68,-4.85 -0.09,-4.86 0.49,-4.87 1.07,-4.74 1.64,-4.61 2.17,-4.35 2.70,-4.09 3.15,-3.70 3.60,-3.32 3.95,-2.84 4.29,-2.36 4.51,-1.81 4.73,-1.26 4.82,-0.68 4.90,-0.09 4.84,0.49 4.78,1.08 4.58,1.63 4.38,2.19 4.38,2.19 L 4.38,2.19 Z"></path></g><g transform="translate(1036 639) rotate(0 -1.99993896484375 8.500030517578125)" stroke="none"><path fill="#1e1e1e" d="M 1.44,5.05 Q 1.44,5.05 -0.54,5.68 -2.53,6.31 -4.69,8.23 -6.85,10.14 -4.49,9.75 -2.12,9.36 -0.03,8.05 2.05,6.74 2.71,7.39 3.36,8.04 2.50,7.42 1.63,6.80 1.01,5.94 0.38,5.07 0.07,4.05 -0.23,3.03 -0.21,1.97 -0.18,0.90 0.18,-0.09 0.54,-1.09 1.21,-1.92 1.88,-2.75 2.77,-3.33 3.67,-3.90 4.71,-4.16 5.74,-4.42 6.80,-4.33 7.86,-4.25 8.84,-3.83 9.82,-3.41 10.62,-2.70 11.41,-1.99 11.94,-1.06 12.46,-0.13 12.66,0.90 12.87,1.95 12.72,3.01 12.58,4.06 12.11,5.02 11.64,5.97 10.88,6.73 10.13,7.48 9.18,7.96 8.22,8.43 7.17,8.58 6.11,8.72 5.06,8.52 4.02,8.32 3.09,7.80 2.16,7.28 1.45,6.48 0.73,5.69 0.31,4.71 -0.10,3.73 -0.19,2.67 -0.27,1.61 -0.02,0.57 0.23,-0.45 0.80,-1.35 1.37,-2.25 2.20,-2.92 3.03,-3.58 4.03,-3.95 5.03,-4.32 6.10,-4.35 7.17,-4.38 8.18,-4.07 9.20,-3.76 9.20,-3.76 9.20,-3.76 12.17,1.88 15.14,7.53 13.82,10.63 12.50,13.73 9.76,16.15 7.01,18.57 3.56,19.97 0.11,21.37 -1.99,21.62 -4.10,21.87 -6.49,21.34 -8.88,20.80 -10.96,19.37 -13.05,17.93 -15.31,14.48 -17.58,11.04 -17.38,8.23 -17.19,5.41 -14.87,2.70 -12.55,-0.00 -9.03,-2.00 -5.51,-4.01 -3.47,-4.53 -1.44,-5.05 -0.81,-5.15 -0.19,-5.25 0.43,-5.20 1.07,-5.14 1.67,-4.94 2.27,-4.74 2.80,-4.40 3.34,-4.06 3.77,-3.60 4.21,-3.14 4.53,-2.59 4.84,-2.04 5.01,-1.43 5.19,-0.82 5.21,-0.19 5.23,0.44 5.11,1.06 4.98,1.68 4.70,2.25 4.43,2.82 4.03,3.31 3.62,3.80 3.12,4.18 2.61,4.56 2.02,4.80 1.44,5.05 1.44,5.05 L 1.44,5.05 Z"></path></g><g transform="translate(1076 645) rotate(0 1.5 26.500030517578125)" stroke="none"><path fill="#1e1e1e" d="M 2.45,3.85 Q 2.45,3.85 -0.77,5.75 -4.00,7.66 -6.94,9.95 -9.89,12.24 -12.34,14.27 -14.80,16.30 -17.47,18.89 -20.14,21.48 -21.70,23.53 -23.27,25.57 -24.65,27.96 -26.04,30.35 -26.61,33.86 -27.19,37.37 -26.00,39.37 -24.81,41.38 -22.07,43.11 -19.33,44.85 -16.68,45.77 -14.04,46.69 -11.67,47.02 -9.31,47.36 -5.12,47.54 -0.93,47.72 2.61,47.49 6.16,47.27 11.30,46.50 16.44,45.74 20.34,44.88 24.24,44.02 28.54,42.45 32.83,40.89 33.46,40.80 34.09,40.70 34.71,40.82 35.34,40.93 35.89,41.23 36.45,41.54 36.88,42.01 37.31,42.47 37.57,43.05 37.82,43.63 37.88,44.27 37.94,44.90 37.80,45.51 37.65,46.13 37.31,46.67 36.98,47.21 36.49,47.61 36.00,48.01 35.41,48.24 34.81,48.47 34.18,48.49 33.54,48.52 32.94,48.34 32.33,48.16 31.81,47.79 31.29,47.43 30.91,46.92 30.54,46.41 30.34,45.80 30.15,45.20 30.16,44.56 30.17,43.93 30.38,43.33 30.59,42.73 30.99,42.23 31.38,41.73 31.91,41.39 32.44,41.04 33.05,40.88 33.67,40.72 34.30,40.76 34.93,40.81 35.52,41.05 36.10,41.30 36.58,41.71 37.06,42.13 37.38,42.68 37.69,43.23 37.82,43.85 37.95,44.47 37.87,45.10 37.79,45.73 37.52,46.30 37.24,46.88 36.80,47.33 36.35,47.78 35.79,48.07 35.22,48.36 35.22,48.36 35.22,48.36 30.60,49.65 25.98,50.93 21.92,52.08 17.86,53.22 12.39,54.46 6.92,55.70 3.09,56.14 -0.73,56.58 -5.78,56.97 -10.84,57.36 -13.99,56.83 -17.15,56.31 -20.72,55.20 -24.29,54.10 -26.73,52.60 -29.17,51.10 -31.35,48.78 -33.54,46.46 -34.49,44.43 -35.43,42.40 -35.93,39.72 -36.43,37.05 -36.02,33.65 -35.61,30.25 -34.41,28.09 -33.20,25.93 -31.37,23.11 -29.54,20.29 -27.61,18.19 -25.67,16.10 -22.80,13.00 -19.93,9.89 -17.48,8.01 -15.03,6.12 -11.84,3.25 -8.64,0.38 -5.54,-1.73 -2.45,-3.85 -1.95,-4.08 -1.45,-4.32 -0.91,-4.43 -0.38,-4.54 0.16,-4.52 0.71,-4.50 1.24,-4.35 1.77,-4.20 2.25,-3.93 2.73,-3.65 3.12,-3.27 3.52,-2.89 3.82,-2.43 4.11,-1.96 4.29,-1.44 4.46,-0.92 4.51,-0.37 4.56,0.17 4.47,0.71 4.38,1.25 4.17,1.76 3.95,2.27 3.62,2.71 3.30,3.15 2.87,3.50 2.44,3.85 2.45,3.85 L 2.45,3.85 Z"></path></g><g transform="translate(12.00006103515625 78) rotate(0 15.99993896484375 -33.5)" stroke="none"><path fill="#1e1e1e" d="M -4.12,0.91 Q -4.12,0.91 -4.78,-1.69 -5.45,-4.30 -5.21,-7.82 -4.97,-11.35 -4.62,-13.63 -4.27,-15.91 -3.45,-19.14 -2.64,-22.38 -2.09,-24.91 -1.53,-27.43 0.13,-31.31 1.81,-35.18 2.98,-37.99 4.15,-40.79 5.95,-44.25 7.75,-47.72 10.14,-51.30 12.52,-54.89 13.93,-57.31 15.33,-59.74 17.20,-62.15 19.06,-64.56 22.19,-67.63 25.32,-70.69 29.02,-71.47 32.71,-72.25 34.64,-71.07 36.56,-69.88 37.76,-67.38 38.97,-64.88 38.55,-60.82 38.13,-56.76 36.46,-52.40 34.79,-48.04 32.41,-43.45 30.03,-38.86 28.71,-36.96 27.38,-35.06 24.96,-31.98 22.55,-28.90 20.24,-26.22 17.93,-23.54 16.42,-25.43 14.91,-27.32 18.37,-28.08 21.83,-28.84 25.39,-28.12 28.94,-27.40 30.58,-27.27 32.22,-27.14 33.14,-26.89 34.06,-26.63 34.86,-26.09 35.65,-25.56 36.23,-24.80 36.81,-24.03 37.12,-23.13 37.43,-22.22 37.43,-21.26 37.43,-20.30 37.12,-19.39 36.82,-18.49 36.24,-17.72 35.66,-16.96 34.87,-16.42 34.08,-15.88 33.15,-15.63 32.23,-15.37 31.27,-15.42 30.32,-15.47 29.43,-15.82 28.54,-16.18 27.81,-16.80 27.07,-17.42 26.58,-18.24 26.08,-19.06 25.88,-19.99 25.67,-20.93 25.77,-21.88 25.88,-22.83 26.28,-23.70 26.68,-24.57 27.34,-25.27 28.00,-25.96 28.84,-26.41 29.69,-26.86 30.63,-27.02 31.58,-27.18 32.52,-27.02 33.47,-26.87 34.32,-26.42 35.16,-25.97 35.82,-25.28 36.48,-24.58 36.88,-23.71 37.29,-22.84 37.39,-21.89 37.50,-20.94 37.29,-20.00 37.09,-19.07 36.59,-18.25 36.10,-17.43 35.37,-16.80 34.64,-16.18 33.75,-15.83 32.86,-15.47 31.90,-15.42 30.95,-15.37 30.95,-15.37 30.95,-15.37 29.32,-15.59 27.70,-15.81 22.51,-16.16 17.33,-16.52 14.69,-16.69 12.05,-16.86 9.52,-18.58 6.98,-20.29 6.44,-23.99 5.89,-27.69 7.54,-29.73 9.19,-31.77 11.27,-33.93 13.35,-36.09 14.76,-37.87 16.17,-39.64 18.22,-42.10 20.28,-44.55 22.29,-48.67 24.31,-52.79 25.62,-55.84 26.93,-58.89 28.69,-60.74 30.45,-62.58 28.06,-60.83 25.66,-59.08 23.97,-57.21 22.27,-55.33 20.71,-53.07 19.14,-50.82 17.25,-47.45 15.36,-44.08 13.87,-40.65 12.37,-37.22 11.19,-34.61 10.02,-32.01 8.88,-28.59 7.73,-25.16 7.07,-22.69 6.40,-20.22 5.20,-15.26 3.99,-10.29 3.57,-8.17 3.15,-6.04 3.63,-3.48 4.12,-0.91 4.17,-0.40 4.21,0.09 4.14,0.60 4.07,1.10 3.88,1.57 3.69,2.04 3.39,2.45 3.09,2.87 2.70,3.19 2.31,3.52 1.86,3.75 1.40,3.98 0.90,4.09 0.41,4.20 -0.09,4.18 -0.60,4.17 -1.09,4.04 -1.58,3.91 -2.03,3.66 -2.47,3.41 -2.85,3.07 -3.22,2.72 -3.50,2.30 -3.78,1.87 -3.95,1.39 -4.12,0.91 -4.12,0.91 L -4.12,0.91 Z"></path></g><g transform="translate(95 15) rotate(0 -18.999969482421875 30)" stroke="none"><path fill="#1e1e1e" d="M 3.09,2.47 Q 3.09,2.47 -0.49,6.67 -4.08,10.87 -6.41,13.83 -8.74,16.78 -11.51,20.49 -14.27,24.20 -16.24,27.06 -18.20,29.91 -20.89,33.34 -23.57,36.77 -25.06,39.38 -26.55,41.99 -28.98,47.15 -31.40,52.31 -32.69,56.01 -33.97,59.71 -34.27,60.21 -34.58,60.72 -35.02,61.10 -35.47,61.48 -36.02,61.70 -36.56,61.91 -37.15,61.94 -37.74,61.98 -38.31,61.82 -38.87,61.66 -39.36,61.33 -39.84,61.00 -40.20,60.53 -40.56,60.06 -40.74,59.51 -40.93,58.95 -40.93,58.36 -40.93,57.78 -40.74,57.22 -40.55,56.66 -40.20,56.19 -39.84,55.73 -39.36,55.40 -38.87,55.07 -38.30,54.91 -37.74,54.75 -37.15,54.78 -36.56,54.82 -36.02,55.03 -35.47,55.25 -35.02,55.63 -34.57,56.01 -34.27,56.52 -33.97,57.02 -33.84,57.60 -33.72,58.17 -33.78,58.75 -33.84,59.34 -34.09,59.87 -34.34,60.40 -34.74,60.83 -35.15,61.26 -35.67,61.53 -36.19,61.81 -36.77,61.90 -37.35,62.00 -37.93,61.90 -38.51,61.81 -39.03,61.53 -39.54,61.26 -39.95,60.83 -40.35,60.40 -40.60,59.87 -40.85,59.33 -40.91,58.75 -40.97,58.17 -40.85,57.59 -40.72,57.02 -40.72,57.02 -40.72,57.02 -39.05,53.32 -37.38,49.63 -34.94,43.92 -32.49,38.22 -30.64,35.57 -28.79,32.91 -26.31,29.37 -23.83,25.84 -21.76,23.11 -19.69,20.39 -17.03,16.39 -14.36,12.39 -12.04,9.38 -9.71,6.37 -6.40,1.94 -3.09,-2.47 -2.75,-2.80 -2.41,-3.14 -1.99,-3.38 -1.58,-3.62 -1.13,-3.76 -0.67,-3.90 -0.19,-3.92 0.27,-3.95 0.74,-3.86 1.21,-3.76 1.65,-3.56 2.08,-3.36 2.45,-3.07 2.82,-2.77 3.11,-2.39 3.41,-2.01 3.60,-1.57 3.79,-1.13 3.87,-0.66 3.95,-0.19 3.92,0.27 3.88,0.75 3.74,1.20 3.59,1.66 3.34,2.06 3.09,2.47 3.09,2.47 L 3.09,2.47 Z"></path></g><g transform="translate(85 59) rotate(0 44 -10)" stroke="none"><path fill="#1e1e1e" d="M -0.66,-5.28 Q -0.66,-5.28 1.63,-5.60 3.93,-5.92 7.77,-5.93 11.61,-5.95 14.67,-5.08 17.72,-4.21 19.96,-3.26 22.19,-2.31 24.30,-1.17 26.40,-0.02 27.55,0.63 28.70,1.29 29.41,1.62 30.12,1.96 30.73,2.45 31.34,2.94 31.81,3.57 32.28,4.19 32.59,4.91 32.90,5.63 33.03,6.41 33.15,7.18 33.09,7.96 33.03,8.74 32.79,9.49 32.54,10.23 32.12,10.89 31.71,11.56 31.14,12.10 30.58,12.64 29.90,13.04 29.23,13.43 28.47,13.65 27.72,13.87 26.94,13.91 26.16,13.94 25.39,13.79 24.62,13.63 22.50,12.87 20.38,12.12 18.01,11.03 15.63,9.95 13.52,7.31 11.42,4.68 11.34,0.28 11.26,-4.12 11.69,-6.40 12.11,-8.69 13.15,-10.92 14.18,-13.15 17.09,-16.58 20.01,-20.00 21.81,-21.52 23.62,-23.05 26.01,-24.60 28.40,-26.14 32.91,-28.71 37.43,-31.29 39.55,-32.26 41.67,-33.23 44.43,-34.18 47.19,-35.14 49.27,-36.03 51.36,-36.92 55.56,-37.82 59.75,-38.71 62.85,-38.46 65.95,-38.22 68.73,-36.24 71.52,-34.27 72.30,-31.89 73.09,-29.52 72.92,-26.42 72.74,-23.32 71.40,-19.97 70.05,-16.61 68.64,-13.50 67.23,-10.38 66.13,-6.98 65.03,-3.58 64.81,-1.05 64.59,1.48 65.98,3.34 67.37,5.19 69.89,5.69 72.41,6.18 75.25,5.71 78.08,5.24 81.83,4.55 85.58,3.87 86.63,3.81 87.68,3.74 88.69,4.02 89.71,4.29 90.59,4.88 91.46,5.46 92.10,6.30 92.75,7.13 93.09,8.12 93.43,9.12 93.44,10.17 93.45,11.22 93.12,12.22 92.79,13.22 92.16,14.07 91.53,14.91 90.66,15.50 89.79,16.10 88.78,16.39 87.77,16.68 86.72,16.63 85.67,16.58 84.69,16.20 83.71,15.81 82.90,15.14 82.09,14.46 81.54,13.56 80.99,12.67 80.76,11.64 80.53,10.61 80.63,9.57 80.74,8.52 81.18,7.56 81.61,6.60 82.33,5.83 83.05,5.07 83.97,4.57 84.90,4.07 85.94,3.89 86.98,3.71 88.02,3.87 89.06,4.04 89.99,4.52 90.92,5.01 91.65,5.77 92.38,6.53 92.83,7.48 93.28,8.43 93.40,9.48 93.52,10.52 93.30,11.55 93.08,12.58 92.54,13.49 92.01,14.39 91.21,15.08 90.41,15.77 89.44,16.16 88.46,16.56 88.46,16.56 88.46,16.56 84.55,17.19 80.64,17.83 78.48,18.24 76.33,18.66 73.43,18.85 70.53,19.04 68.34,18.67 66.15,18.30 63.46,17.41 60.78,16.53 58.74,15.16 56.71,13.78 54.47,9.58 52.23,5.38 52.11,1.45 51.99,-2.48 52.30,-4.63 52.61,-6.79 53.92,-11.12 55.22,-15.44 56.68,-18.78 58.14,-22.13 59.53,-24.44 60.93,-26.76 58.48,-26.47 56.04,-26.18 53.67,-25.12 51.30,-24.06 47.29,-22.37 43.27,-20.68 39.36,-18.19 35.44,-15.70 32.46,-13.43 29.47,-11.16 27.16,-8.59 24.85,-6.02 24.10,-3.19 23.34,-0.35 26.02,0.47 28.70,1.29 29.41,1.62 30.12,1.96 30.73,2.45 31.33,2.94 31.81,3.57 32.28,4.19 32.59,4.91 32.90,5.63 33.03,6.41 33.15,7.18 33.09,7.96 33.03,8.74 32.79,9.48 32.54,10.23 32.12,10.89 31.71,11.56 31.14,12.10 30.58,12.64 29.90,13.04 29.23,13.43 28.47,13.65 27.72,13.87 26.94,13.91 26.16,13.94 25.39,13.79 24.62,13.63 24.00,12.93 23.39,12.24 21.13,11.10 18.88,9.96 16.91,8.64 14.93,7.31 12.40,6.28 9.88,5.25 7.57,5.01 5.26,4.77 2.96,5.03 0.66,5.28 0.01,5.28 -0.62,5.29 -1.24,5.13 -1.87,4.98 -2.44,4.69 -3.01,4.39 -3.49,3.97 -3.97,3.54 -4.34,3.01 -4.70,2.49 -4.93,1.89 -5.16,1.29 -5.24,0.65 -5.32,0.01 -5.25,-0.61 -5.17,-1.25 -4.95,-1.85 -4.72,-2.45 -4.36,-2.98 -3.99,-3.51 -3.52,-3.94 -3.04,-4.37 -2.47,-4.67 -1.90,-4.97 -1.28,-5.12 -0.66,-5.28 -0.66,-5.28 L -0.66,-5.28 Z"></path></g><g transform="translate(161.00006103515625 721.0000610351562) rotate(0 9.499969482421875 0.5)" stroke="none"><path fill="#1e1e1e" d="M 0.52,-4.71 Q 0.52,-4.71 3.11,-4.47 5.71,-4.24 11.16,-4.66 16.61,-5.08 17.46,-5.00 18.30,-4.93 19.08,-4.59 19.86,-4.25 20.48,-3.68 21.11,-3.10 21.52,-2.36 21.94,-1.62 22.09,-0.79 22.25,0.04 22.12,0.88 22.00,1.72 21.62,2.48 21.24,3.24 20.63,3.83 20.03,4.43 19.27,4.80 18.50,5.17 17.66,5.28 16.82,5.39 15.99,5.22 15.15,5.06 14.42,4.63 13.68,4.21 13.12,3.57 12.56,2.94 12.23,2.15 11.90,1.37 11.83,0.53 11.77,-0.31 11.98,-1.13 12.19,-1.96 12.66,-2.67 13.12,-3.38 13.78,-3.91 14.45,-4.43 15.25,-4.72 16.05,-5.01 16.90,-5.02 17.75,-5.04 18.56,-4.79 19.37,-4.53 20.05,-4.03 20.74,-3.53 21.23,-2.84 21.72,-2.14 21.96,-1.33 22.20,-0.52 22.17,0.32 22.14,1.17 21.85,1.97 21.55,2.76 21.01,3.42 20.47,4.08 19.75,4.53 19.04,4.98 18.21,5.18 17.39,5.38 17.39,5.38 17.39,5.38 11.01,5.38 4.63,5.39 2.05,5.05 -0.52,4.71 -1.08,4.58 -1.63,4.45 -2.14,4.19 -2.65,3.93 -3.08,3.55 -3.51,3.18 -3.84,2.71 -4.17,2.24 -4.38,1.71 -4.59,1.18 -4.66,0.61 -4.74,0.04 -4.67,-0.52 -4.61,-1.08 -4.41,-1.62 -4.22,-2.16 -3.90,-2.63 -3.58,-3.10 -3.15,-3.49 -2.73,-3.87 -2.22,-4.14 -1.72,-4.41 -1.17,-4.55 -0.61,-4.70 -0.04,-4.70 0.52,-4.71 0.52,-4.71 L 0.52,-4.71 Z"></path></g><g transform="translate(215 708.0001220703125) rotate(0 6 21.999969482421875)" stroke="none"><path fill="#1e1e1e" d="M 4.21,3.16 Q 4.21,3.16 3.42,4.35 2.63,5.54 5.86,7.78 9.09,10.02 11.53,12.70 13.97,15.39 15.33,17.45 16.69,19.50 17.76,21.48 18.84,23.45 19.85,27.66 20.85,31.87 20.24,35.70 19.62,39.54 18.16,42.25 16.70,44.96 14.67,46.41 12.64,47.87 10.28,48.97 7.93,50.07 4.53,49.78 1.14,49.49 -1.58,46.51 -4.31,43.52 -5.01,40.39 -5.71,37.26 -5.65,36.16 -5.58,35.06 -5.17,34.04 -4.76,33.02 -4.04,32.18 -3.33,31.34 -2.38,30.78 -1.43,30.21 -0.36,29.98 0.71,29.75 1.81,29.87 2.90,30.00 3.90,30.46 4.90,30.93 5.69,31.69 6.49,32.45 7.00,33.43 7.52,34.40 7.69,35.49 7.86,36.58 7.68,37.66 7.50,38.75 6.98,39.72 6.46,40.69 5.66,41.45 4.85,42.20 3.85,42.66 2.85,43.12 1.75,43.23 0.66,43.35 -0.41,43.11 -1.48,42.87 -2.42,42.29 -3.37,41.72 -4.08,40.88 -4.79,40.04 -5.19,39.01 -5.59,37.99 -5.65,36.89 -5.70,35.79 -5.40,34.73 -5.11,33.67 -4.48,32.76 -3.86,31.85 -2.98,31.18 -2.10,30.52 -1.06,30.17 -0.01,29.83 1.08,29.83 2.18,29.83 3.23,30.19 4.27,30.55 5.14,31.22 6.02,31.89 6.63,32.80 7.25,33.72 7.54,34.78 7.83,35.84 7.83,35.84 7.83,35.84 6.13,36.83 4.43,37.82 6.29,35.94 8.16,34.06 8.19,31.60 8.23,29.14 6.74,26.34 5.25,23.54 3.50,21.71 1.74,19.87 -0.24,17.07 -2.23,14.27 -4.09,11.70 -5.95,9.14 -6.67,6.45 -7.38,3.76 -6.73,1.41 -6.08,-0.94 -5.15,-2.05 -4.21,-3.16 -3.77,-3.62 -3.33,-4.08 -2.80,-4.42 -2.26,-4.76 -1.66,-4.96 -1.05,-5.16 -0.42,-5.21 0.20,-5.26 0.83,-5.16 1.46,-5.06 2.04,-4.81 2.63,-4.56 3.14,-4.18 3.64,-3.80 4.05,-3.31 4.45,-2.82 4.72,-2.24 5.00,-1.67 5.12,-1.05 5.25,-0.42 5.23,0.20 5.20,0.84 5.02,1.45 4.85,2.06 4.53,2.61 4.21,3.16 4.21,3.16 L 4.21,3.16 Z"></path></g><g transform="translate(216 706.0000610351562) rotate(0 15 -1)" stroke="none"><path fill="#1e1e1e" d="M -1.09,-4.91 Q -1.09,-4.91 1.49,-5.51 4.07,-6.10 8.31,-6.65 12.56,-7.20 16.51,-7.35 20.47,-7.51 24.37,-7.59 28.27,-7.67 29.17,-7.52 30.08,-7.38 30.89,-6.95 31.71,-6.52 32.34,-5.86 32.97,-5.19 33.36,-4.36 33.75,-3.53 33.85,-2.61 33.96,-1.70 33.76,-0.80 33.57,0.09 33.09,0.88 32.62,1.67 31.92,2.26 31.22,2.86 30.37,3.20 29.52,3.54 28.60,3.60 27.68,3.65 26.80,3.41 25.91,3.16 25.15,2.65 24.39,2.14 23.83,1.41 23.27,0.68 22.97,-0.19 22.68,-1.06 22.68,-1.97 22.67,-2.89 22.96,-3.77 23.26,-4.64 23.81,-5.37 24.36,-6.10 25.12,-6.62 25.88,-7.14 26.77,-7.39 27.65,-7.64 28.57,-7.59 29.49,-7.54 30.34,-7.20 31.20,-6.87 31.90,-6.27 32.60,-5.68 33.08,-4.89 33.55,-4.11 33.75,-3.21 33.95,-2.31 33.86,-1.40 33.76,-0.48 33.38,0.34 32.99,1.18 32.36,1.84 31.73,2.51 30.92,2.95 30.11,3.38 29.20,3.53 28.30,3.68 28.30,3.68 28.30,3.68 24.43,3.62 20.55,3.56 16.82,3.53 13.08,3.50 9.67,3.65 6.27,3.80 3.68,4.36 1.09,4.91 0.48,4.97 -0.11,5.03 -0.71,4.95 -1.31,4.86 -1.88,4.63 -2.44,4.40 -2.93,4.05 -3.42,3.69 -3.82,3.23 -4.21,2.76 -4.48,2.22 -4.75,1.67 -4.88,1.08 -5.01,0.49 -5.00,-0.11 -4.98,-0.72 -4.82,-1.30 -4.66,-1.89 -4.37,-2.42 -4.08,-2.95 -3.66,-3.40 -3.25,-3.84 -2.74,-4.18 -2.23,-4.51 -1.66,-4.71 -1.09,-4.91 -1.09,-4.91 L -1.09,-4.91 Z"></path></g><g transform="translate(267 720.0001220703125) rotate(0 4.5 15.999969482421875)" stroke="none"><path fill="#1e1e1e" d="M 4.46,2.68 Q 4.46,2.68 2.65,5.50 0.83,8.31 -0.96,12.47 -2.76,16.62 -3.47,19.80 -4.18,22.98 -1.30,24.37 1.58,25.76 4.65,24.86 7.72,23.97 9.72,22.51 11.72,21.05 11.41,18.89 11.10,16.73 7.59,13.07 4.08,9.41 3.74,8.36 3.41,7.31 3.43,6.20 3.44,5.10 3.81,4.06 4.18,3.02 4.87,2.15 5.55,1.28 6.48,0.68 7.40,0.07 8.47,-0.19 9.54,-0.47 10.64,-0.39 11.74,-0.31 12.76,0.10 13.78,0.53 14.61,1.26 15.43,1.99 15.99,2.94 16.54,3.90 16.76,4.98 16.98,6.06 16.84,7.16 16.70,8.26 16.22,9.25 15.74,10.24 14.97,11.03 14.19,11.82 13.21,12.32 12.23,12.82 11.13,12.98 10.04,13.14 8.95,12.94 7.87,12.75 6.90,12.21 5.94,11.68 5.19,10.86 4.44,10.05 4.00,9.04 3.55,8.03 3.45,6.93 3.35,5.83 3.61,4.76 3.86,3.68 4.45,2.75 5.03,1.81 5.89,1.11 6.74,0.41 7.77,0.02 8.81,-0.36 9.91,-0.40 11.01,-0.44 12.07,-0.13 13.13,0.17 14.03,0.81 14.94,1.44 15.59,2.33 16.24,3.23 16.24,3.22 16.24,3.22 17.57,4.70 18.90,6.18 20.57,7.76 22.24,9.35 23.50,12.07 24.76,14.79 24.92,18.20 25.09,21.60 23.72,24.72 22.36,27.84 19.59,30.35 16.81,32.86 13.06,34.78 9.30,36.70 5.05,37.29 0.80,37.87 -3.41,37.04 -7.63,36.20 -9.55,34.88 -11.46,33.57 -12.76,31.73 -14.06,29.89 -14.49,25.59 -14.91,21.29 -13.58,16.90 -12.24,12.50 -11.16,10.08 -10.08,7.67 -8.90,5.42 -7.73,3.18 -6.10,0.24 -4.46,-2.68 -4.08,-3.17 -3.69,-3.67 -3.20,-4.06 -2.71,-4.45 -2.13,-4.71 -1.56,-4.97 -0.94,-5.08 -0.33,-5.20 0.29,-5.16 0.92,-5.12 1.52,-4.94 2.12,-4.75 2.66,-4.43 3.20,-4.11 3.64,-3.67 4.09,-3.22 4.41,-2.69 4.74,-2.15 4.93,-1.55 5.12,-0.95 5.16,-0.32 5.20,0.29 5.09,0.91 4.98,1.53 4.72,2.10 4.46,2.68 4.46,2.68 L 4.46,2.68 Z"></path></g><g transform="translate(811 605.0000610351562) rotate(0 -3.99993896484375 17.5)" stroke="none"><path fill="#1e1e1e" d="M 3.97,2.26 Q 3.97,2.26 2.90,4.32 1.83,6.37 0.81,10.15 -0.20,13.92 -0.98,19.05 -1.77,24.19 -2.41,28.95 -3.04,33.71 -3.28,34.43 -3.52,35.15 -3.98,35.76 -4.43,36.36 -5.06,36.79 -5.69,37.22 -6.42,37.42 -7.15,37.63 -7.91,37.59 -8.66,37.55 -9.37,37.27 -10.07,36.99 -10.65,36.50 -11.23,36.01 -11.63,35.36 -12.02,34.71 -12.18,33.97 -12.35,33.23 -12.27,32.48 -12.19,31.72 -11.87,31.03 -11.56,30.34 -11.03,29.79 -10.51,29.24 -9.84,28.88 -9.18,28.52 -8.43,28.40 -7.68,28.28 -6.93,28.40 -6.18,28.52 -5.51,28.87 -4.84,29.23 -4.32,29.77 -3.79,30.32 -3.47,31.01 -3.15,31.70 -3.07,32.45 -2.98,33.21 -3.15,33.95 -3.31,34.69 -3.70,35.34 -4.09,35.99 -4.66,36.48 -5.24,36.98 -5.94,37.26 -6.65,37.54 -7.41,37.59 -8.16,37.63 -8.90,37.43 -9.63,37.23 -10.26,36.80 -10.88,36.38 -11.34,35.77 -11.81,35.17 -12.05,34.45 -12.29,33.73 -12.29,32.98 -12.30,32.22 -12.30,32.22 -12.30,32.22 -11.44,27.77 -10.59,23.32 -10.28,17.31 -9.97,11.30 -9.21,8.78 -8.46,6.25 -7.44,3.96 -6.43,1.67 -5.20,-0.29 -3.97,-2.26 -3.64,-2.71 -3.31,-3.15 -2.88,-3.50 -2.46,-3.85 -1.96,-4.09 -1.46,-4.33 -0.92,-4.44 -0.38,-4.55 0.16,-4.53 0.71,-4.51 1.24,-4.36 1.77,-4.21 2.25,-3.94 2.73,-3.66 3.13,-3.28 3.53,-2.90 3.82,-2.44 4.12,-1.97 4.30,-1.45 4.47,-0.93 4.52,-0.38 4.57,0.16 4.48,0.70 4.40,1.25 4.18,1.76 3.97,2.27 3.97,2.27 L 3.97,2.26 Z"></path></g><g transform="translate(743.0001220703125 737.0000610351562) rotate(0 10.9998779296875 -1.99993896484375)" stroke="none"><path fill="#1e1e1e" d="M -3.72,3.72 Q -3.72,3.72 -4.04,3.46 -4.36,3.21 -4.75,2.70 -5.15,2.19 -5.42,1.60 -5.68,1.01 -5.80,0.38 -5.91,-0.25 -5.88,-0.89 -5.84,-1.53 -5.64,-2.15 -5.45,-2.77 -5.12,-3.32 -4.78,-3.87 -4.33,-4.33 -3.87,-4.78 -3.32,-5.12 -2.77,-5.45 -2.15,-5.64 -1.54,-5.84 -0.89,-5.88 -0.25,-5.91 0.38,-5.80 1.01,-5.68 1.60,-5.42 2.19,-5.15 2.70,-4.75 3.21,-4.36 0.20,-5.14 -2.80,-5.92 -0.19,-7.93 2.40,-9.94 5.17,-12.29 7.95,-14.64 10.98,-16.82 14.02,-19.00 16.26,-20.79 18.51,-22.57 21.32,-23.98 24.12,-25.40 26.58,-24.74 29.03,-24.08 30.67,-20.46 32.32,-16.83 31.96,-13.19 31.59,-9.56 31.11,-6.06 30.63,-2.56 30.54,0.73 30.46,4.04 30.50,6.53 30.53,9.01 30.95,11.62 31.37,14.22 31.43,15.29 31.49,16.35 31.20,17.38 30.92,18.41 30.32,19.30 29.72,20.19 28.87,20.83 28.02,21.48 27.01,21.82 26.00,22.17 24.93,22.17 23.86,22.17 22.85,21.83 21.83,21.49 20.98,20.85 20.13,20.20 19.53,19.32 18.93,18.43 18.64,17.40 18.35,16.37 18.41,15.31 18.46,14.24 18.86,13.25 19.25,12.25 19.94,11.44 20.63,10.62 21.55,10.07 22.46,9.52 23.51,9.28 24.55,9.05 25.61,9.17 26.68,9.28 27.65,9.73 28.62,10.18 29.39,10.91 30.17,11.64 30.67,12.59 31.18,13.53 31.35,14.59 31.52,15.64 31.35,16.69 31.18,17.75 30.68,18.70 30.18,19.64 29.41,20.38 28.63,21.11 27.66,21.56 26.69,22.01 25.63,22.13 24.57,22.25 23.53,22.02 22.48,21.79 21.56,21.24 20.65,20.69 19.95,19.88 19.26,19.06 18.86,18.07 18.47,17.08 18.47,17.08 18.47,17.08 17.97,13.03 17.47,8.97 17.54,6.43 17.60,3.88 17.69,0.21 17.78,-3.46 18.26,-6.88 18.73,-10.31 19.29,-13.27 19.86,-16.23 22.76,-14.47 25.67,-12.71 23.31,-11.04 20.95,-9.38 18.03,-7.43 15.11,-5.49 12.09,-3.13 9.07,-0.77 6.84,0.60 4.61,1.98 0.12,2.59 -4.36,3.21 -4.75,2.70 -5.15,2.19 -5.42,1.60 -5.68,1.01 -5.80,0.38 -5.91,-0.25 -5.88,-0.89 -5.84,-1.53 -5.64,-2.15 -5.45,-2.77 -5.12,-3.32 -4.78,-3.87 -4.33,-4.33 -3.87,-4.78 -3.32,-5.12 -2.77,-5.45 -2.15,-5.64 -1.54,-5.84 -0.89,-5.87 -0.25,-5.91 0.38,-5.80 1.01,-5.68 1.60,-5.42 2.19,-5.15 2.70,-4.75 3.21,-4.36 3.46,-4.04 3.72,-3.72 4.11,-3.22 4.50,-2.72 4.76,-2.14 5.02,-1.56 5.14,-0.94 5.25,-0.31 5.21,0.31 5.18,0.94 4.99,1.55 4.80,2.16 4.47,2.70 4.14,3.24 3.69,3.69 3.24,4.14 2.70,4.47 2.16,4.80 1.55,4.99 0.94,5.18 0.31,5.21 -0.31,5.25 -0.94,5.14 -1.56,5.02 -2.14,4.76 -2.72,4.50 -3.22,4.11 -3.72,3.72 -3.72,3.72 L -3.72,3.72 Z"></path></g><g transform="translate(799 720.0001220703125) rotate(0 2.5 17.99993896484375)" stroke="none"><path fill="#1e1e1e" d="M 4.69,2.34 Q 4.69,2.34 3.89,4.10 3.09,5.85 2.49,7.96 1.88,10.07 4.07,10.33 6.26,10.60 8.30,11.96 10.35,13.32 12.07,15.29 13.79,17.26 14.63,19.76 15.47,22.26 15.19,24.59 14.92,26.92 13.83,29.34 12.74,31.77 10.99,34.50 9.24,37.23 1.82,39.25 -5.60,41.27 -6.30,40.38 -6.99,39.49 -7.37,38.43 -7.75,37.36 -7.77,36.23 -7.79,35.09 -7.44,34.01 -7.10,32.93 -6.43,32.02 -5.75,31.11 -4.83,30.46 -3.90,29.81 -2.81,29.49 -1.73,29.17 -0.59,29.21 0.53,29.26 1.59,29.66 2.64,30.06 3.52,30.78 4.39,31.50 4.99,32.46 5.59,33.43 5.85,34.53 6.11,35.63 6.01,36.76 5.90,37.89 5.44,38.92 4.98,39.96 4.22,40.79 3.45,41.62 2.46,42.17 1.47,42.72 0.35,42.92 -0.75,43.12 -1.87,42.95 -2.99,42.79 -4.00,42.27 -5.01,41.76 -5.80,40.95 -6.59,40.13 -7.09,39.11 -7.58,38.09 -7.72,36.97 -7.86,35.85 -7.63,34.74 -7.40,33.63 -6.84,32.65 -6.27,31.67 -5.41,30.92 -4.56,30.17 -3.52,29.74 -2.47,29.30 -1.34,29.23 -0.21,29.15 0.87,29.43 1.97,29.72 2.92,30.34 3.86,30.96 3.86,30.96 3.86,30.96 1.30,29.63 -1.25,28.29 0.36,25.78 1.97,23.26 -0.16,22.02 -2.29,20.78 -4.13,19.22 -5.98,17.66 -7.45,15.28 -8.91,12.90 -8.94,9.45 -8.97,5.99 -7.76,3.51 -6.54,1.04 -5.62,-0.65 -4.69,-2.34 -4.34,-2.87 -3.99,-3.40 -3.53,-3.83 -3.06,-4.26 -2.51,-4.56 -1.95,-4.87 -1.34,-5.03 -0.73,-5.20 -0.10,-5.21 0.53,-5.22 1.14,-5.08 1.76,-4.94 2.33,-4.66 2.89,-4.38 3.38,-3.97 3.86,-3.56 4.23,-3.04 4.60,-2.53 4.83,-1.94 5.07,-1.35 5.16,-0.72 5.25,-0.10 5.18,0.52 5.12,1.15 4.91,1.75 4.69,2.34 4.69,2.34 L 4.69,2.34 Z"></path></g><g transform="translate(808 716.0000610351562) rotate(0 8.00006103515625 -0.5)" stroke="none"><path fill="#1e1e1e" d="M 0,-5.04 Q 0,-5.04 2.01,-5.11 4.02,-5.19 6.22,-5.35 8.43,-5.51 11.14,-5.92 13.86,-6.33 14.77,-6.42 15.69,-6.51 16.59,-6.30 17.49,-6.09 18.28,-5.60 19.06,-5.11 19.65,-4.40 20.24,-3.69 20.57,-2.83 20.90,-1.97 20.94,-1.05 20.97,-0.12 20.72,0.75 20.46,1.64 19.93,2.40 19.40,3.15 18.66,3.70 17.92,4.25 17.04,4.53 16.16,4.82 15.24,4.81 14.31,4.79 13.44,4.49 12.57,4.18 11.84,3.61 11.12,3.04 10.61,2.27 10.10,1.50 9.87,0.61 9.63,-0.27 9.69,-1.19 9.75,-2.11 10.11,-2.97 10.46,-3.82 11.07,-4.52 11.67,-5.21 12.47,-5.68 13.27,-6.14 14.17,-6.33 15.08,-6.52 15.99,-6.40 16.91,-6.29 17.74,-5.89 18.57,-5.49 19.24,-4.85 19.90,-4.21 20.32,-3.39 20.74,-2.56 20.88,-1.65 21.02,-0.74 20.85,0.16 20.69,1.07 20.25,1.88 19.81,2.69 19.13,3.31 18.45,3.94 17.61,4.32 16.76,4.69 16.76,4.69 16.77,4.69 12.60,5.10 8.43,5.51 6.22,5.35 4.02,5.19 2.01,5.11 0,5.04 -0.60,4.96 -1.20,4.89 -1.77,4.68 -2.34,4.46 -2.84,4.11 -3.34,3.77 -3.74,3.31 -4.15,2.86 -4.43,2.32 -4.71,1.78 -4.86,1.19 -5.00,0.60 -5.00,-0.00 -5.00,-0.60 -4.86,-1.19 -4.71,-1.78 -4.43,-2.32 -4.14,-2.86 -3.74,-3.31 -3.34,-3.77 -2.84,-4.11 -2.34,-4.46 -1.77,-4.68 -1.20,-4.89 -0.60,-4.96 0.00,-5.04 0.00,-5.04 L 0,-5.04 Z"></path></g><g transform="translate(853 719.0000610351562) rotate(0 -2.49993896484375 16.5)" stroke="none"><path fill="#1e1e1e" d="M 2.37,4.75 Q 2.37,4.75 0.68,5.66 -1.00,6.58 -3.20,8.60 -5.41,10.63 -7.16,13.04 -8.91,15.45 -10.27,18.45 -11.63,21.44 -10.90,23.49 -10.18,25.54 -7.58,25.97 -4.99,26.40 -1.64,25.70 1.70,25.01 3.48,22.52 5.27,20.02 5.71,17.63 6.15,15.24 6.22,12.92 6.29,10.60 6.87,11.54 7.46,12.48 6.35,12.58 5.24,12.69 4.15,12.44 3.06,12.19 2.11,11.60 1.16,11.02 0.45,10.16 -0.25,9.30 -0.65,8.26 -1.05,7.21 -1.10,6.10 -1.15,4.99 -0.84,3.91 -0.52,2.84 0.10,1.93 0.74,1.01 1.63,0.34 2.53,-0.31 3.59,-0.65 4.65,-1.00 5.77,-0.99 6.89,-0.97 7.94,-0.60 8.99,-0.23 9.87,0.44 10.75,1.13 11.37,2.06 11.98,2.99 12.27,4.07 12.56,5.15 12.48,6.26 12.41,7.37 11.98,8.40 11.56,9.44 10.83,10.28 10.09,11.12 9.13,11.68 8.17,12.25 7.08,12.47 5.98,12.70 4.88,12.57 3.77,12.43 2.76,11.95 1.75,11.47 0.95,10.70 0.15,9.92 -0.35,8.93 -0.86,7.94 -1.03,6.83 -1.20,5.73 -1.00,4.63 -0.81,3.53 -0.27,2.55 0.25,1.57 1.07,0.81 1.89,0.06 2.91,-0.39 3.92,-0.85 3.92,-0.85 3.92,-0.85 6.28,-1.36 8.63,-1.87 10.95,-1.21 13.27,-0.54 15.64,2.32 18.01,5.20 18.81,8.94 19.61,12.69 19.38,16.10 19.16,19.51 18.50,22.19 17.83,24.88 16.06,27.59 14.28,30.31 11.93,32.56 9.59,34.81 6.04,36.40 2.50,37.98 -1.69,38.61 -5.89,39.24 -9.79,38.55 -13.69,37.85 -17.07,35.24 -20.45,32.62 -21.78,29.99 -23.11,27.35 -23.29,24.43 -23.47,21.51 -22.16,17.53 -20.85,13.55 -18.55,9.71 -16.26,5.88 -13.14,2.83 -10.02,-0.20 -7.96,-1.66 -5.89,-3.13 -4.13,-3.94 -2.37,-4.75 -1.77,-4.96 -1.17,-5.18 -0.53,-5.24 0.10,-5.31 0.73,-5.22 1.37,-5.13 1.96,-4.89 2.56,-4.65 3.08,-4.28 3.60,-3.90 4.01,-3.42 4.43,-2.93 4.71,-2.35 5.00,-1.78 5.14,-1.16 5.28,-0.53 5.27,0.10 5.26,0.74 5.09,1.36 4.93,1.98 4.62,2.54 4.31,3.10 3.87,3.57 3.44,4.04 2.91,4.40 2.37,4.75 2.37,4.75 L 2.37,4.75 Z"></path></g><g transform="translate(382 606.0000610351562) rotate(0 0 15.5)" stroke="none"><path fill="#1e1e1e" d="M 5.00,1.00 Q 5.00,1.00 4.40,3.87 3.80,6.74 3.64,10.50 3.47,14.26 3.93,17.88 4.39,21.50 5.76,25.25 7.14,29.00 7.24,29.88 7.35,30.76 7.17,31.63 6.99,32.50 6.54,33.27 6.08,34.04 5.41,34.62 4.74,35.20 3.92,35.54 3.10,35.88 2.21,35.94 1.32,35.99 0.46,35.76 -0.39,35.54 -1.13,35.04 -1.87,34.55 -2.41,33.85 -2.96,33.15 -3.25,32.31 -3.54,31.47 -3.55,30.58 -3.56,29.69 -3.29,28.85 -3.01,28.00 -2.48,27.29 -1.95,26.57 -1.22,26.07 -0.49,25.56 0.35,25.31 1.21,25.07 2.10,25.11 2.98,25.14 3.81,25.47 4.64,25.79 5.33,26.35 6.01,26.92 6.48,27.68 6.94,28.44 7.14,29.30 7.34,30.17 7.26,31.05 7.17,31.94 6.80,32.75 6.44,33.56 5.83,34.21 5.23,34.86 4.45,35.29 3.67,35.71 2.79,35.87 1.92,36.02 1.04,35.88 0.16,35.75 -0.62,35.34 -1.41,34.93 -2.03,34.29 -2.65,33.65 -3.03,32.85 -3.41,32.05 -3.41,32.05 -3.41,32.05 -4.20,29.86 -4.99,27.68 -5.51,25.53 -6.03,23.39 -6.60,18.55 -7.16,13.71 -6.98,11.51 -6.80,9.31 -6.45,7.03 -6.10,4.75 -5.55,1.87 -5.00,-1.00 -4.81,-1.58 -4.62,-2.17 -4.29,-2.69 -3.96,-3.21 -3.52,-3.64 -3.08,-4.06 -2.55,-4.37 -2.01,-4.68 -1.42,-4.86 -0.83,-5.03 -0.22,-5.06 0.39,-5.09 0.99,-4.97 1.59,-4.84 2.15,-4.58 2.71,-4.32 3.19,-3.93 3.66,-3.55 4.04,-3.06 4.41,-2.57 4.65,-2.00 4.89,-1.43 5.00,-0.83 5.10,-0.22 5.05,0.38 5.00,1.00 5.00,1.00 L 5.00,1.00 Z"></path></g><g transform="translate(54 512.0000610351562) rotate(0 18 -7)" stroke="none"><path fill="#1e1e1e" d="M -3.28,-3.94 Q -3.28,-3.94 -1.59,-5.42 0.09,-6.90 3.22,-9.71 6.36,-12.53 9.47,-14.62 12.58,-16.71 15.40,-18.99 18.21,-21.28 19.96,-22.65 21.70,-24.02 25.96,-25.16 30.21,-26.30 32.56,-23.52 34.91,-20.73 34.61,-17.96 34.30,-15.18 33.47,-12.35 32.64,-9.51 32.62,-6.22 32.59,-2.93 32.96,-0.20 33.33,2.52 33.52,1.53 33.70,0.54 34.80,0.43 35.90,0.33 36.98,0.58 38.05,0.84 38.99,1.42 39.93,2.00 40.63,2.85 41.33,3.71 41.73,4.74 42.12,5.77 42.17,6.88 42.21,7.98 41.90,9.04 41.59,10.10 40.95,11.01 40.32,11.91 39.43,12.57 38.54,13.22 37.49,13.56 36.44,13.90 35.33,13.88 34.23,13.86 33.19,13.50 32.15,13.13 31.28,12.45 30.41,11.77 29.80,10.84 29.19,9.92 28.91,8.85 28.63,7.78 28.71,6.68 28.79,5.58 29.21,4.56 29.63,3.54 30.36,2.70 31.09,1.87 32.04,1.32 33.00,0.76 34.08,0.54 35.16,0.32 36.26,0.45 37.36,0.59 38.35,1.07 39.35,1.55 40.14,2.32 40.93,3.09 41.43,4.07 41.94,5.06 42.10,6.15 42.26,7.24 42.07,8.33 41.87,9.42 41.34,10.39 40.81,11.36 39.99,12.10 39.18,12.85 38.17,13.30 37.16,13.75 37.16,13.75 37.16,13.75 33.39,13.94 29.63,14.13 26.05,11.73 22.47,9.32 21.28,6.33 20.08,3.34 19.78,0.07 19.48,-3.19 19.63,-6.08 19.78,-8.98 20.36,-11.81 20.94,-14.64 22.52,-16.20 24.11,-17.77 26.78,-16.51 29.46,-15.25 26.80,-13.78 24.14,-12.31 21.40,-10.49 18.67,-8.67 14.47,-5.28 10.26,-1.89 8.53,-0.37 6.80,1.15 5.04,2.54 3.28,3.94 2.76,4.28 2.24,4.61 1.66,4.81 1.07,5.02 0.46,5.07 -0.15,5.13 -0.76,5.04 -1.37,4.94 -1.95,4.71 -2.52,4.47 -3.02,4.10 -3.52,3.73 -3.91,3.26 -4.31,2.78 -4.58,2.23 -4.85,1.67 -4.98,1.06 -5.11,0.46 -5.09,-0.15 -5.07,-0.77 -4.91,-1.36 -4.74,-1.96 -4.44,-2.50 -4.13,-3.04 -3.71,-3.49 -3.28,-3.94 -3.28,-3.94 L -3.28,-3.94 Z"></path></g><g transform="translate(108 496.00006103515625) rotate(0 1 11.5)" stroke="none"><path fill="#1e1e1e" d="M 3.70,3.70 Q 3.70,3.70 1.68,5.69 -0.34,7.68 -1.73,10.35 -3.11,13.01 -2.70,15.49 -2.30,17.97 -0.41,16.61 1.47,15.26 3.25,13.38 5.04,11.49 6.52,11.92 8.01,12.36 6.90,12.61 5.79,12.85 4.66,12.74 3.53,12.62 2.50,12.14 1.46,11.67 0.63,10.89 -0.19,10.11 -0.72,9.11 -1.26,8.11 -1.45,6.99 -1.64,5.87 -1.46,4.74 -1.28,3.62 -0.75,2.61 -0.22,1.61 0.59,0.82 1.42,0.04 2.45,-0.43 3.48,-0.91 4.60,-1.04 5.73,-1.17 6.85,-0.93 7.96,-0.69 8.93,-0.11 9.91,0.47 10.65,1.33 11.39,2.19 11.81,3.25 12.24,4.30 12.31,5.44 12.37,6.57 12.07,7.67 11.77,8.77 11.14,9.71 10.50,10.65 9.60,11.34 8.70,12.04 7.62,12.40 6.55,12.77 5.41,12.77 4.27,12.78 3.19,12.42 2.11,12.06 1.21,11.38 0.30,10.69 -0.33,9.75 -0.98,8.81 -1.28,7.72 -1.59,6.63 -1.53,5.49 -1.48,4.35 -1.06,3.30 -0.64,2.24 0.08,1.37 0.81,0.50 1.78,-0.08 2.76,-0.67 2.76,-0.67 2.75,-0.67 7.15,-0.86 11.54,-1.05 14.00,1.12 16.46,3.30 17.20,5.96 17.95,8.63 17.65,12.50 17.34,16.36 15.87,18.66 14.40,20.96 12.62,22.57 10.84,24.18 7.91,25.94 4.98,27.71 2.74,28.14 0.51,28.56 -2.81,28.57 -6.14,28.58 -9.57,26.01 -13.01,23.45 -13.98,21.10 -14.95,18.76 -14.68,15.32 -14.40,11.89 -12.78,8.45 -11.17,5.00 -9.44,2.68 -7.70,0.36 -5.70,-1.67 -3.70,-3.70 -3.21,-4.09 -2.71,-4.48 -2.13,-4.74 -1.56,-5.00 -0.93,-5.12 -0.31,-5.23 0.31,-5.19 0.94,-5.15 1.54,-4.96 2.15,-4.78 2.69,-4.45 3.23,-4.12 3.68,-3.68 4.12,-3.23 4.45,-2.69 4.78,-2.15 4.97,-1.54 5.15,-0.94 5.19,-0.31 5.23,0.31 5.12,0.93 5.00,1.56 4.74,2.13 4.48,2.71 4.09,3.21 3.70,3.70 3.70,3.70 L 3.70,3.70 Z"></path></g><g transform="translate(139 498.00006103515625) rotate(0 9 10.5)" stroke="none"><path fill="#1e1e1e" d="M 4.44,2.53 Q 4.44,2.53 3.33,4.57 2.22,6.61 1.56,8.96 0.90,11.32 3.19,12.54 5.47,13.76 7.81,13.69 10.14,13.62 12.96,12.52 15.78,11.43 15.23,9.79 14.67,8.14 13.78,7.57 12.89,6.99 12.23,6.16 11.57,5.32 11.21,4.32 10.85,3.32 10.83,2.26 10.81,1.20 11.13,0.19 11.45,-0.82 12.07,-1.67 12.70,-2.53 13.56,-3.15 14.43,-3.76 15.45,-4.06 16.47,-4.37 17.53,-4.33 18.59,-4.30 19.58,-3.92 20.58,-3.55 21.40,-2.88 22.22,-2.21 22.79,-1.31 23.36,-0.41 23.60,0.61 23.85,1.65 23.76,2.70 23.67,3.76 23.24,4.73 22.81,5.71 22.10,6.49 21.38,7.28 20.46,7.79 19.53,8.31 18.48,8.50 17.44,8.69 16.39,8.54 15.34,8.39 14.39,7.91 13.44,7.44 12.69,6.68 11.95,5.92 11.48,4.97 11.02,4.01 10.88,2.96 10.75,1.91 10.95,0.87 11.16,-0.17 11.69,-1.09 12.22,-2.01 13.02,-2.71 13.81,-3.41 14.79,-3.83 15.77,-4.24 16.83,-4.32 17.89,-4.40 18.92,-4.13 19.94,-3.87 19.94,-3.87 19.94,-3.87 22.86,-1.56 25.77,0.75 27.14,3.12 28.51,5.49 28.81,7.60 29.11,9.70 28.31,12.58 27.51,15.47 25.36,18.09 23.20,20.71 20.67,21.96 18.14,23.21 14.47,23.94 10.81,24.67 8.38,24.65 5.96,24.63 3.34,23.91 0.73,23.19 -3.70,20.48 -8.13,17.76 -9.03,13.62 -9.92,9.48 -8.37,5.45 -6.82,1.43 -5.63,-0.54 -4.44,-2.53 -4.07,-3.03 -3.70,-3.52 -3.22,-3.91 -2.75,-4.31 -2.19,-4.57 -1.64,-4.84 -1.03,-4.96 -0.43,-5.09 0.18,-5.07 0.79,-5.05 1.39,-4.88 1.98,-4.71 2.51,-4.40 3.05,-4.10 3.50,-3.67 3.94,-3.25 4.27,-2.73 4.61,-2.21 4.80,-1.62 5.00,-1.04 5.05,-0.43 5.11,0.18 5.01,0.79 4.91,1.40 4.67,1.96 4.43,2.53 4.44,2.53 L 4.44,2.53 Z"></path></g><g transform="translate(179 500.00006103515625) rotate(0 10 6.5)" stroke="none"><path fill="#1e1e1e" d="M 4.97,1.86 Q 4.97,1.86 4.13,4.17 3.29,6.47 5.27,8.06 7.25,9.65 9.90,9.67 12.54,9.70 14.70,8.71 16.85,7.72 14.93,6.73 13.01,5.74 10.77,4.68 8.53,3.63 7.76,3.82 6.98,4.01 5.88,3.77 4.77,3.53 3.80,2.94 2.83,2.36 2.09,1.50 1.36,0.64 0.93,-0.41 0.51,-1.46 0.45,-2.59 0.38,-3.72 0.69,-4.81 0.99,-5.90 1.62,-6.84 2.25,-7.78 3.16,-8.47 4.06,-9.16 5.13,-9.52 6.20,-9.89 7.34,-9.89 8.47,-9.89 9.54,-9.53 10.62,-9.17 11.52,-8.49 12.42,-7.80 13.06,-6.87 13.70,-5.93 14.00,-4.84 14.31,-3.75 14.25,-2.62 14.19,-1.48 13.77,-0.43 13.36,0.61 12.63,1.48 11.89,2.34 10.92,2.93 9.95,3.51 8.85,3.76 7.74,4.01 6.61,3.89 5.49,3.77 4.46,3.29 3.43,2.82 2.61,2.04 1.78,1.26 1.25,0.26 0.72,-0.73 0.53,-1.85 0.35,-2.96 0.53,-4.08 0.71,-5.20 1.24,-6.20 1.77,-7.21 2.59,-7.99 3.41,-8.77 4.44,-9.24 5.46,-9.72 6.59,-9.85 7.72,-9.97 7.71,-9.97 7.71,-9.97 11.40,-9.17 15.09,-8.36 17.58,-7.12 20.07,-5.89 22.11,-4.15 24.15,-2.41 25.80,-0.45 27.45,1.50 28.44,3.99 29.43,6.48 29.20,9.21 28.97,11.93 27.16,14.62 25.35,17.32 22.18,19.01 19.01,20.70 15.74,21.45 12.48,22.21 9.27,22.05 6.06,21.88 1.91,20.65 -2.23,19.42 -3.87,17.86 -5.50,16.30 -6.65,13.41 -7.80,10.51 -7.27,6.61 -6.74,2.72 -5.86,0.42 -4.97,-1.86 -4.68,-2.43 -4.38,-3.00 -3.96,-3.48 -3.54,-3.96 -3.01,-4.33 -2.48,-4.70 -1.89,-4.92 -1.29,-5.15 -0.65,-5.23 -0.01,-5.31 0.61,-5.24 1.25,-5.16 1.85,-4.94 2.45,-4.71 2.98,-4.35 3.51,-3.99 3.93,-3.51 4.36,-3.03 4.66,-2.47 4.96,-1.90 5.12,-1.28 5.27,-0.66 5.27,-0.01 5.28,0.62 5.13,1.24 4.97,1.86 4.97,1.86 L 4.97,1.86 Z"></path></g><g transform="translate(65 371.00006103515625) rotate(0 2 14.5)" stroke="none"><path fill="#1e1e1e" d="M 0.84,-5.09 Q 0.84,-5.09 2.63,-4.86 4.42,-4.64 7.56,-1.94 10.70,0.75 10.37,4.77 10.04,8.79 8.12,11.76 6.20,14.73 4.06,17.81 1.92,20.89 6.01,21.65 10.09,22.40 11.06,22.87 12.03,23.34 12.79,24.09 13.56,24.84 14.05,25.79 14.53,26.75 14.69,27.81 14.85,28.87 14.65,29.93 14.46,30.99 13.94,31.93 13.43,32.87 12.63,33.59 11.84,34.32 10.86,34.75 9.88,35.18 8.81,35.28 7.74,35.38 6.70,35.13 5.65,34.88 4.74,34.32 3.83,33.75 3.15,32.92 2.47,32.09 2.09,31.08 1.71,30.08 1.67,29.01 1.63,27.93 1.93,26.91 2.24,25.88 2.86,25.00 3.47,24.12 4.34,23.49 5.20,22.85 6.23,22.52 7.25,22.20 8.32,22.22 9.40,22.24 10.41,22.60 11.42,22.96 12.26,23.62 13.11,24.28 13.69,25.18 14.28,26.08 14.55,27.12 14.82,28.16 14.74,29.23 14.67,30.30 14.25,31.29 13.84,32.28 13.13,33.09 12.42,33.89 11.49,34.43 10.56,34.97 9.51,35.18 8.46,35.39 7.39,35.26 6.33,35.12 6.33,35.12 6.33,35.13 4.81,34.64 3.30,34.16 0.16,32.96 -2.98,31.75 -5.49,30.34 -8.00,28.92 -9.17,26.83 -10.34,24.74 -10.37,21.95 -10.41,19.15 -8.69,16.35 -6.97,13.56 -5.13,11.30 -3.30,9.05 -0.41,7.42 2.47,5.79 0.81,5.44 -0.84,5.09 -1.44,4.91 -2.04,4.74 -2.58,4.42 -3.11,4.11 -3.56,3.68 -4.01,3.24 -4.34,2.72 -4.67,2.19 -4.86,1.60 -5.06,1.01 -5.10,0.39 -5.15,-0.22 -5.05,-0.84 -4.95,-1.45 -4.70,-2.02 -4.45,-2.59 -4.08,-3.09 -3.70,-3.59 -3.22,-3.98 -2.74,-4.37 -2.17,-4.63 -1.61,-4.90 -1.00,-5.02 -0.39,-5.14 0.22,-5.11 0.84,-5.09 0.84,-5.09 L 0.84,-5.09 Z"></path></g><g transform="translate(114 370.00006103515625) rotate(0 -5 9.5)" stroke="none"><path fill="#1e1e1e" d="M 2.66,4.44 Q 2.66,4.44 -0.26,6.07 -3.19,7.71 -6.16,10.27 -9.14,12.84 -6.63,11.21 -4.12,9.59 -2.49,7.68 -0.85,5.76 -0.38,8.11 0.09,10.46 -0.85,9.94 -1.81,9.43 -2.56,8.63 -3.30,7.84 -3.75,6.84 -4.20,5.85 -4.31,4.77 -4.42,3.68 -4.18,2.62 -3.94,1.56 -3.37,0.63 -2.80,-0.29 -1.97,-0.99 -1.13,-1.69 -0.12,-2.08 0.89,-2.48 1.98,-2.53 3.06,-2.58 4.11,-2.28 5.16,-1.98 6.06,-1.37 6.95,-0.75 7.61,0.11 8.26,0.99 8.60,2.02 8.94,3.05 8.93,4.14 8.92,5.23 8.57,6.26 8.21,7.29 7.55,8.16 6.88,9.02 5.98,9.62 5.07,10.23 4.02,10.51 2.97,10.79 1.88,10.73 0.79,10.66 -0.21,10.25 -1.21,9.84 -2.04,9.13 -2.86,8.42 -3.42,7.48 -3.97,6.54 -4.20,5.48 -4.43,4.41 -4.30,3.33 -4.18,2.25 -3.71,1.26 -3.25,0.28 -2.49,-0.50 -1.74,-1.28 -0.77,-1.79 0.19,-2.29 1.26,-2.46 2.34,-2.63 3.41,-2.44 4.49,-2.26 4.48,-2.26 4.48,-2.26 8.02,1.15 11.56,4.58 11.65,6.87 11.73,9.17 9.63,12.49 7.54,15.81 5.99,17.46 4.44,19.11 1.44,20.84 -1.55,22.56 -4.45,23.41 -7.34,24.26 -11.17,24.28 -14.99,24.30 -17.92,21.45 -20.85,18.61 -20.71,15.01 -20.57,11.42 -18.30,8.19 -16.04,4.96 -14.19,3.45 -12.35,1.93 -10.33,0.56 -8.30,-0.81 -5.48,-2.62 -2.66,-4.44 -2.09,-4.69 -1.52,-4.95 -0.91,-5.06 -0.29,-5.17 0.32,-5.13 0.95,-5.09 1.54,-4.90 2.14,-4.71 2.67,-4.39 3.21,-4.06 3.65,-3.62 4.09,-3.18 4.41,-2.64 4.73,-2.11 4.91,-1.51 5.10,-0.91 5.13,-0.29 5.17,0.33 5.05,0.94 4.94,1.55 4.68,2.12 4.42,2.69 4.03,3.18 3.65,3.67 3.15,4.06 2.66,4.44 2.66,4.44 L 2.66,4.44 Z"></path></g><g transform="translate(136 372.00006103515625) rotate(0 11 12)" stroke="none"><path fill="#1e1e1e" d="M 4.16,2.97 Q 4.16,2.97 2.76,4.99 1.35,7.02 0.23,10.38 -0.88,13.74 1.61,15.76 4.11,17.77 6.63,17.95 9.16,18.13 11.77,17.54 14.38,16.95 16.97,15.71 19.57,14.48 20.97,12.22 22.38,9.97 20.58,8.51 18.79,7.05 17.37,6.92 15.95,6.79 14.88,6.56 13.81,6.32 12.86,5.76 11.92,5.19 11.21,4.36 10.50,3.52 10.09,2.50 9.68,1.48 9.62,0.38 9.56,-0.70 9.85,-1.76 10.14,-2.82 10.76,-3.73 11.37,-4.64 12.25,-5.31 13.12,-5.97 14.16,-6.33 15.20,-6.68 16.30,-6.68 17.40,-6.68 18.44,-6.33 19.48,-5.98 20.36,-5.32 21.24,-4.66 21.85,-3.75 22.47,-2.84 22.77,-1.78 23.06,-0.72 23.00,0.37 22.95,1.46 22.54,2.48 22.13,3.51 21.42,4.34 20.71,5.18 19.77,5.75 18.83,6.32 17.76,6.56 16.69,6.79 15.59,6.68 14.50,6.56 13.50,6.10 12.51,5.64 11.71,4.88 10.91,4.13 10.39,3.16 9.88,2.19 9.70,1.10 9.52,0.02 9.69,-1.06 9.87,-2.14 10.39,-3.11 10.90,-4.08 11.70,-4.84 12.49,-5.60 13.49,-6.06 14.49,-6.52 15.58,-6.64 16.67,-6.76 16.67,-6.76 16.67,-6.76 19.60,-6.02 22.54,-5.28 25.08,-4.05 27.63,-2.82 29.45,-1.12 31.27,0.58 32.43,2.49 33.58,4.40 34.01,6.99 34.43,9.58 33.69,13.31 32.96,17.04 30.41,20.07 27.86,23.10 24.72,24.79 21.58,26.48 17.47,27.70 13.36,28.92 8.61,28.77 3.86,28.61 1.23,27.77 -1.39,26.93 -3.79,25.23 -6.18,23.54 -8.88,19.53 -11.58,15.52 -11.35,12.93 -11.13,10.33 -10.31,8.10 -9.50,5.87 -8.30,3.45 -7.10,1.02 -5.63,-0.97 -4.16,-2.97 -3.75,-3.43 -3.33,-3.88 -2.82,-4.23 -2.30,-4.57 -1.72,-4.78 -1.14,-4.99 -0.53,-5.05 0.08,-5.12 0.69,-5.03 1.30,-4.95 1.87,-4.72 2.45,-4.49 2.95,-4.13 3.45,-3.77 3.85,-3.30 4.26,-2.84 4.53,-2.28 4.81,-1.73 4.95,-1.13 5.09,-0.53 5.08,0.08 5.07,0.69 4.91,1.29 4.75,1.89 4.46,2.43 4.16,2.97 4.16,2.97 L 4.16,2.97 Z"></path></g><g transform="translate(179 377.00006103515625) rotate(0 12 1)" stroke="none"><path fill="#1e1e1e" d="M 5.28,0.58 Q 5.28,0.58 5.00,3.15 4.71,5.73 5.73,8.00 6.75,10.27 9.49,10.00 12.24,9.73 14.57,8.94 16.90,8.15 16.02,6.00 15.15,3.85 13.22,2.25 11.30,0.64 9.09,-1.26 6.88,-3.18 4.57,-4.85 2.26,-6.52 1.11,-7.20 -0.02,-7.89 -0.84,-8.63 -1.65,-9.36 -2.18,-10.32 -2.72,-11.28 -2.92,-12.35 -3.12,-13.43 -2.96,-14.51 -2.81,-15.60 -2.32,-16.58 -1.83,-17.56 -1.05,-18.33 -0.27,-19.10 0.70,-19.58 1.69,-20.06 2.77,-20.20 3.86,-20.34 4.93,-20.13 6.01,-19.92 6.96,-19.38 7.91,-18.83 8.63,-18.01 9.36,-17.19 9.79,-16.19 10.22,-15.18 10.30,-14.09 10.38,-12.99 10.11,-11.93 9.84,-10.87 9.25,-9.95 8.65,-9.03 7.80,-8.35 6.94,-7.67 5.91,-7.30 4.88,-6.92 3.78,-6.90 2.69,-6.88 1.65,-7.20 0.60,-7.53 -0.28,-8.17 -1.16,-8.82 -1.80,-9.71 -2.43,-10.60 -2.75,-11.65 -3.06,-12.70 -3.03,-13.79 -2.99,-14.89 -2.61,-15.92 -2.22,-16.94 -1.53,-17.79 -0.84,-18.64 0.07,-19.23 1.00,-19.81 2.06,-20.07 3.13,-20.33 4.22,-20.23 5.31,-20.14 6.31,-19.70 7.32,-19.26 7.31,-19.26 7.31,-19.26 9.80,-17.42 12.29,-15.58 15.29,-13.40 18.30,-11.22 20.43,-9.20 22.56,-7.17 25.16,-4.44 27.76,-1.71 29.25,1.48 30.74,4.68 30.71,7.35 30.69,10.02 28.93,12.94 27.17,15.86 25.46,17.26 23.74,18.67 20.60,19.71 17.46,20.75 13.34,21.36 9.22,21.96 5.38,21.16 1.54,20.36 -1.17,17.81 -3.90,15.25 -4.77,13.05 -5.64,10.86 -5.75,7.74 -5.86,4.61 -5.57,2.01 -5.28,-0.58 -5.13,-1.21 -4.99,-1.83 -4.70,-2.40 -4.40,-2.97 -3.98,-3.46 -3.56,-3.94 -3.04,-4.31 -2.51,-4.68 -1.92,-4.91 -1.32,-5.15 -0.68,-5.23 -0.05,-5.31 0.58,-5.24 1.22,-5.17 1.82,-4.95 2.42,-4.73 2.95,-4.37 3.48,-4.01 3.91,-3.54 4.34,-3.06 4.65,-2.50 4.95,-1.93 5.11,-1.31 5.27,-0.69 5.28,-0.05 5.28,0.58 5.28,0.58 L 5.28,0.58 Z"></path></g><g transform="translate(52 217.00009155273438) rotate(0 11.5 6.999969482421875)" stroke="none"><path fill="#1e1e1e" d="M -4.68,2.34 Q -4.68,2.34 -5.37,1.01 -6.06,-0.31 -5.76,-3.76 -5.46,-7.21 -3.70,-9.25 -1.94,-11.29 0.07,-12.58 2.10,-13.88 4.96,-14.90 7.83,-15.92 11.60,-16.24 15.37,-16.55 18.26,-14.81 21.15,-13.06 22.07,-11.05 23.00,-9.05 22.94,-5.63 22.89,-2.21 21.80,0.25 20.72,2.72 19.33,4.67 17.93,6.62 16.73,3.53 15.54,0.44 17.81,0.63 20.08,0.83 23.36,2.04 26.63,3.26 29.11,5.84 31.58,8.43 32.25,11.23 32.91,14.04 32.36,16.28 31.81,18.52 30.64,20.46 29.47,22.40 27.76,23.90 26.05,25.41 23.45,27.04 20.85,28.67 18.46,29.67 16.07,30.68 12.91,31.00 9.75,31.32 6.92,30.83 4.09,30.35 0.29,26.84 -3.49,23.33 -3.82,22.20 -4.14,21.06 -4.08,19.88 -4.03,18.70 -3.60,17.60 -3.16,16.50 -2.41,15.60 -1.65,14.69 -0.64,14.08 0.36,13.46 1.51,13.20 2.67,12.94 3.84,13.06 5.02,13.18 6.09,13.67 7.17,14.16 8.03,14.97 8.89,15.77 9.45,16.82 10.01,17.86 10.21,19.02 10.41,20.19 10.22,21.35 10.04,22.52 9.49,23.57 8.94,24.61 8.09,25.43 7.24,26.25 6.17,26.75 5.10,27.25 3.93,27.39 2.75,27.52 1.60,27.27 0.44,27.03 -0.56,26.42 -1.58,25.82 -2.35,24.93 -3.12,24.03 -3.56,22.93 -4.01,21.84 -4.08,20.66 -4.15,19.48 -3.84,18.34 -3.53,17.20 -2.87,16.22 -2.22,15.24 -1.28,14.52 -0.34,13.80 0.76,13.41 1.88,13.03 3.06,13.02 4.24,13.02 5.37,13.39 6.49,13.76 7.43,14.47 8.38,15.18 9.05,16.15 9.71,17.12 9.71,17.12 9.71,17.12 10.03,17.39 10.34,17.65 12.48,16.66 14.62,15.66 16.86,15.33 19.10,14.99 16.41,14.41 13.73,13.84 11.51,13.38 9.29,12.92 7.59,11.42 5.89,9.92 5.39,5.77 4.88,1.63 6.98,-1.19 9.07,-4.03 6.42,-4.16 3.76,-4.28 4.22,-3.31 4.68,-2.34 4.89,-1.74 5.11,-1.15 5.17,-0.52 5.23,0.10 5.15,0.72 5.06,1.35 4.82,1.94 4.59,2.52 4.22,3.03 3.85,3.55 3.37,3.96 2.89,4.37 2.32,4.65 1.76,4.93 1.14,5.07 0.52,5.21 -0.10,5.20 -0.73,5.18 -1.34,5.02 -1.95,4.86 -2.50,4.55 -3.06,4.25 -3.52,3.82 -3.99,3.39 -4.33,2.86 -4.68,2.34 -4.68,2.34 L -4.68,2.34 Z"></path></g><g transform="translate(117 207.00006103515625) rotate(0 -5.5 11)" stroke="none"><path fill="#1e1e1e" d="M 0,5.20 Q 0,5.20 -1.71,5.28 -3.42,5.36 -6.08,7.90 -8.74,10.44 -10.48,11.91 -12.22,13.39 -13.08,16.12 -13.94,18.86 -11.60,17.74 -9.26,16.62 -6.67,15.61 -4.08,14.61 -1.85,13.48 0.38,12.35 0.77,11.54 1.17,10.73 0.12,11.19 -0.93,11.65 -2.07,11.75 -3.21,11.85 -4.32,11.58 -5.44,11.30 -6.40,10.69 -7.37,10.08 -8.10,9.19 -8.82,8.30 -9.22,7.22 -9.62,6.15 -9.65,5.00 -9.69,3.86 -9.36,2.76 -9.03,1.66 -8.36,0.73 -7.70,-0.19 -6.77,-0.87 -5.84,-1.54 -4.75,-1.88 -3.66,-2.22 -2.51,-2.20 -1.36,-2.17 -0.29,-1.78 0.78,-1.39 1.68,-0.68 2.57,0.03 3.20,0.99 3.82,1.95 4.10,3.07 4.38,4.18 4.29,5.32 4.21,6.46 3.76,7.52 3.31,8.57 2.55,9.43 1.79,10.29 0.79,10.85 -0.19,11.42 -1.32,11.64 -2.44,11.86 -3.58,11.71 -4.72,11.56 -5.75,11.06 -6.77,10.56 -7.59,9.75 -8.40,8.94 -8.92,7.92 -9.43,6.89 -9.59,5.76 -9.75,4.62 -9.54,3.50 -9.33,2.37 -8.77,1.37 -8.21,0.37 -7.36,-0.39 -6.51,-1.16 -6.51,-1.16 -6.51,-1.16 -2.69,-2.55 1.11,-3.95 3.53,-3.68 5.94,-3.40 8.92,-1.49 11.90,0.41 13.43,3.01 14.96,5.60 15.28,7.75 15.60,9.89 14.73,12.89 13.85,15.89 12.36,17.82 10.87,19.75 7.47,22.28 4.08,24.82 0.69,26.31 -2.70,27.81 -6.07,28.52 -9.44,29.24 -12.69,28.97 -15.93,28.70 -19.07,27.01 -22.20,25.33 -23.50,23.42 -24.80,21.51 -24.73,17.64 -24.66,13.77 -23.55,11.08 -22.44,8.40 -19.34,5.56 -16.24,2.73 -13.80,0.16 -11.36,-2.39 -7.41,-3.88 -3.47,-5.36 -1.73,-5.28 0,-5.20 0.62,-5.13 1.24,-5.05 1.83,-4.83 2.42,-4.61 2.93,-4.25 3.45,-3.89 3.87,-3.42 4.28,-2.95 4.57,-2.40 4.87,-1.84 5.02,-1.23 5.17,-0.62 5.17,0.00 5.17,0.62 5.02,1.23 4.87,1.84 4.57,2.40 4.28,2.95 3.87,3.42 3.45,3.89 2.93,4.25 2.42,4.61 1.83,4.83 1.24,5.05 0.62,5.13 -0.00,5.20 -0.00,5.20 L 0,5.20 Z"></path></g><g transform="translate(149 207.00006103515625) rotate(0 3.5 11.000015258789062)" stroke="none"><path fill="#1e1e1e" d="M 4.60,2.63 Q 4.60,2.63 3.48,4.66 2.36,6.69 1.28,9.13 0.19,11.57 0.08,14.36 -0.03,17.15 2.41,15.89 4.86,14.63 6.72,13.19 8.59,11.76 6.48,12.24 4.38,12.72 2.90,13.87 1.43,15.03 0.58,14.87 -0.26,14.72 -1.05,14.36 -1.83,14.01 -2.51,13.48 -3.19,12.95 -3.72,12.27 -4.25,11.59 -4.61,10.81 -4.96,10.02 -5.12,9.17 -5.28,8.32 -5.22,7.46 -5.17,6.60 -4.92,5.78 -4.66,4.95 -4.21,4.22 -3.77,3.48 -3.16,2.87 -2.55,2.26 -1.81,1.81 -1.07,1.36 -0.25,1.11 0.56,0.85 1.42,0.80 2.28,0.75 5.05,2.34 7.82,3.94 8.29,4.99 8.77,6.05 8.88,7.20 8.99,8.35 8.73,9.48 8.47,10.61 7.86,11.59 7.26,12.58 6.37,13.32 5.48,14.06 4.40,14.47 3.32,14.89 2.16,14.94 1.00,14.99 -0.10,14.67 -1.21,14.35 -2.16,13.69 -3.11,13.03 -3.80,12.10 -4.49,11.17 -4.85,10.07 -5.21,8.97 -5.19,7.81 -5.18,6.65 -4.80,5.56 -4.42,4.47 -3.71,3.55 -3.00,2.64 -2.03,2.00 -1.07,1.36 0.04,1.06 1.16,0.77 2.32,0.84 3.47,0.92 4.54,1.36 5.61,1.80 6.48,2.56 7.36,3.32 7.94,4.31 8.53,5.31 8.77,6.45 9.00,7.58 8.86,8.73 8.73,9.88 8.23,10.92 7.73,11.97 6.93,12.80 6.12,13.63 5.09,14.16 4.06,14.69 2.92,14.87 1.78,15.04 0.64,14.84 -0.49,14.64 -1.51,14.09 -2.53,13.53 -0.54,14.28 1.43,15.03 0.58,14.87 -0.26,14.72 -1.04,14.36 -1.83,14.01 -2.51,13.48 -3.19,12.95 -3.72,12.27 -4.25,11.59 -4.61,10.81 -4.96,10.02 -5.12,9.17 -5.28,8.32 -5.22,7.46 -5.17,6.60 -4.92,5.78 -4.66,4.95 -4.21,4.22 -3.77,3.48 -3.16,2.87 -2.55,2.26 -1.81,1.81 -1.08,1.36 -0.25,1.11 0.56,0.85 1.42,0.80 2.28,0.75 4.14,-0.09 6.00,-0.94 8.96,-0.09 11.93,0.76 14.44,2.97 16.96,5.19 18.38,7.29 19.81,9.39 19.96,13.31 20.11,17.24 18.14,19.87 16.17,22.50 13.13,24.69 10.09,26.88 8.00,27.33 5.90,27.78 2.18,27.94 -1.53,28.09 -5.16,26.42 -8.80,24.74 -10.45,21.42 -12.11,18.10 -12.08,15.35 -12.05,12.60 -11.21,10.09 -10.37,7.59 -8.66,4.47 -6.96,1.35 -5.78,-0.63 -4.60,-2.63 -4.22,-3.14 -3.84,-3.66 -3.35,-4.06 -2.85,-4.47 -2.28,-4.75 -1.70,-5.02 -1.07,-5.15 -0.45,-5.29 0.18,-5.26 0.82,-5.24 1.44,-5.06 2.05,-4.89 2.61,-4.57 3.17,-4.25 3.63,-3.81 4.09,-3.37 4.44,-2.83 4.78,-2.29 4.99,-1.69 5.19,-1.08 5.25,-0.44 5.30,0.19 5.20,0.82 5.10,1.45 4.85,2.04 4.60,2.63 4.60,2.63 L 4.60,2.63 Z"></path></g><g transform="translate(190 207.00006103515625) rotate(0 3 11.000015258789062)" stroke="none"><path fill="#1e1e1e" d="M 4.24,3.03 Q 4.24,3.03 2.82,5.05 1.41,7.08 -0.06,9.13 -1.54,11.17 -2.27,13.21 -3.01,15.25 -0.26,15.20 2.47,15.15 5.72,14.33 8.97,13.51 6.51,13.05 4.04,12.59 2.31,12.08 0.58,11.57 -0.50,11.57 -1.59,11.58 -2.63,11.24 -3.66,10.90 -4.54,10.24 -5.41,9.59 -6.03,8.69 -6.65,7.79 -6.95,6.74 -7.25,5.69 -7.19,4.60 -7.14,3.51 -6.75,2.50 -6.35,1.48 -5.65,0.64 -4.95,-0.18 -4.02,-0.75 -3.09,-1.32 -2.02,-1.56 -0.96,-1.80 0.12,-1.69 1.20,-1.58 2.20,-1.13 3.19,-0.68 3.99,0.06 4.79,0.80 5.30,1.76 5.82,2.72 6.00,3.80 6.19,4.87 6.02,5.95 5.85,7.03 5.34,8.00 4.84,8.96 4.05,9.72 3.27,10.48 2.28,10.94 1.29,11.40 0.21,11.53 -0.87,11.66 -1.93,11.43 -3.00,11.20 -3.94,10.64 -4.88,10.09 -5.59,9.26 -6.30,8.43 -6.71,7.42 -7.12,6.41 -7.19,5.32 -7.26,4.23 -6.97,3.18 -6.69,2.13 -6.08,1.22 -5.47,0.31 -4.61,-0.34 -3.74,-1.01 -2.71,-1.37 -1.68,-1.72 -1.68,-1.72 -1.68,-1.72 1.68,-1.45 5.04,-1.17 8.04,0.07 11.04,1.32 13.88,3.45 16.73,5.58 18.53,8.09 20.32,10.60 20.19,14.69 20.07,18.77 18.00,20.94 15.94,23.10 13.13,24.30 10.32,25.49 6.26,26.10 2.20,26.72 -0.69,26.35 -3.59,25.98 -5.70,24.81 -7.80,23.63 -10.58,20.53 -13.35,17.43 -13.59,14.91 -13.83,12.39 -11.96,8.64 -10.09,4.89 -8.62,2.92 -7.16,0.96 -5.70,-1.03 -4.24,-3.03 -3.82,-3.49 -3.39,-3.95 -2.87,-4.30 -2.34,-4.65 -1.75,-4.87 -1.16,-5.08 -0.54,-5.15 0.08,-5.21 0.70,-5.13 1.33,-5.04 1.91,-4.81 2.49,-4.57 3.01,-4.21 3.52,-3.84 3.93,-3.37 4.34,-2.89 4.62,-2.33 4.90,-1.77 5.04,-1.15 5.18,-0.54 5.17,0.08 5.16,0.71 5.00,1.32 4.84,1.92 4.54,2.48 4.24,3.03 4.24,3.03 L 4.24,3.03 Z"></path></g><g transform="translate(248 219.00006103515625) rotate(0 5.5 -2)" stroke="none"><path fill="#1e1e1e" d="M -3.03,-4.04 Q -3.03,-4.04 -1.92,-4.98 -0.82,-5.92 1.20,-7.12 3.24,-8.32 7.70,-8.47 12.17,-8.62 13.00,-8.20 13.83,-7.79 14.48,-7.13 15.13,-6.48 15.54,-5.65 15.95,-4.82 16.07,-3.90 16.20,-2.99 16.02,-2.08 15.84,-1.17 15.38,-0.37 14.93,0.43 14.24,1.04 13.55,1.66 12.70,2.02 11.85,2.39 10.92,2.46 10.00,2.53 9.11,2.31 8.21,2.08 7.43,1.58 6.65,1.08 6.07,0.36 5.50,-0.35 5.18,-1.22 4.86,-2.09 4.84,-3.02 4.82,-3.94 5.09,-4.82 5.37,-5.71 5.91,-6.46 6.45,-7.21 7.20,-7.74 7.95,-8.28 8.84,-8.55 9.72,-8.82 10.65,-8.79 11.57,-8.77 12.44,-8.44 13.31,-8.12 14.03,-7.54 14.75,-6.96 15.24,-6.18 15.74,-5.40 15.96,-4.50 16.18,-3.60 16.10,-2.68 16.02,-1.76 15.66,-0.91 15.29,-0.06 14.67,0.61 14.05,1.30 13.24,1.75 12.44,2.21 11.53,2.38 10.62,2.55 9.70,2.42 8.79,2.30 8.79,2.30 8.79,2.30 7.11,2.39 5.42,2.47 4.22,3.26 3.03,4.04 2.50,4.34 1.97,4.64 1.39,4.81 0.80,4.98 0.19,5.01 -0.41,5.03 -1.00,4.91 -1.60,4.79 -2.15,4.52 -2.70,4.26 -3.17,3.88 -3.64,3.49 -4.01,3.00 -4.37,2.52 -4.61,1.96 -4.85,1.40 -4.95,0.79 -5.04,0.19 -4.99,-0.40 -4.94,-1.01 -4.75,-1.59 -4.56,-2.17 -4.23,-2.68 -3.90,-3.19 -3.47,-3.62 -3.03,-4.04 -3.03,-4.04 L -3.03,-4.04 Z"></path></g><g transform="translate(237 387.00006103515625) rotate(0 13 2)" stroke="none"><path fill="#1e1e1e" d="M 4.92,-0.98 Q 4.92,-0.98 4.70,-0.32 4.49,0.33 6.51,-1.20 8.53,-2.73 10.80,-3.14 13.08,-3.54 16.64,-4.30 20.19,-5.06 22.48,-5.61 24.78,-6.15 25.67,-6.19 26.56,-6.22 27.41,-5.97 28.26,-5.72 28.99,-5.21 29.72,-4.70 30.25,-3.99 30.78,-3.27 31.05,-2.43 31.32,-1.58 31.31,-0.69 31.30,0.19 31.00,1.03 30.70,1.87 30.16,2.57 29.61,3.27 28.86,3.76 28.12,4.25 27.26,4.47 26.40,4.70 25.51,4.64 24.63,4.58 23.80,4.23 22.98,3.89 22.31,3.31 21.64,2.72 21.20,1.95 20.75,1.18 20.57,0.31 20.39,-0.55 20.50,-1.43 20.61,-2.31 20.99,-3.12 21.38,-3.92 22.00,-4.55 22.62,-5.19 23.41,-5.60 24.20,-6.00 25.08,-6.13 25.96,-6.26 26.84,-6.11 27.71,-5.95 28.49,-5.52 29.27,-5.10 29.88,-4.44 30.48,-3.79 30.84,-2.97 31.20,-2.16 31.29,-1.28 31.37,-0.39 31.17,0.47 30.96,1.33 30.49,2.09 30.02,2.84 29.34,3.41 28.65,3.97 27.82,4.29 26.99,4.61 26.99,4.61 26.99,4.61 22.98,5.16 18.96,5.70 14.67,6.29 10.39,6.88 5.36,7.66 0.33,8.45 -1.50,6.93 -3.34,5.41 -4.13,3.19 -4.92,0.98 -4.96,0.38 -5.01,-0.22 -4.91,-0.81 -4.81,-1.41 -4.57,-1.97 -4.33,-2.52 -3.97,-3.00 -3.60,-3.49 -3.13,-3.87 -2.66,-4.25 -2.11,-4.51 -1.57,-4.76 -0.97,-4.88 -0.38,-5.00 0.22,-4.97 0.82,-4.95 1.40,-4.78 1.98,-4.61 2.50,-4.30 3.03,-4.00 3.46,-3.57 3.90,-3.15 4.22,-2.64 4.54,-2.13 4.73,-1.55 4.92,-0.98 4.92,-0.98 L 4.92,-0.98 Z"></path></g></svg>