<svg version="1.1" xmlns="http://www.w3.org/2000/svg" viewBox="0 0 620.9999389648438 366.9999694824219" width="620.9999389648438" height="366.9999694824219" filter="invert(93%) hue-rotate(180deg)" class="excalidraw-svg"><!-- svg-source:excalidraw --><metadata></metadata><defs><style class="style-fonts">
      </style></defs><g transform="translate(17.99993896484375 188.99996948242188) rotate(0 -1.99993896484375 6)" stroke="none"><path fill="#1e1e1e" d="M 1.02,5.10 Q 1.02,5.10 -0.40,5.47 -1.82,5.84 -4.08,4.29 -6.35,2.74 -6.57,1.64 -6.79,0.54 -6.64,-0.56 -6.50,-1.67 -6.01,-2.67 -5.52,-3.68 -4.73,-4.48 -3.95,-5.27 -2.95,-5.77 -1.95,-6.28 -0.84,-6.44 0.26,-6.59 1.36,-6.39 2.46,-6.19 3.43,-5.64 4.41,-5.10 5.16,-4.27 5.92,-3.44 6.36,-2.42 6.81,-1.39 6.91,-0.28 7.01,0.83 6.75,1.91 6.48,3.00 5.89,3.95 5.29,4.89 4.42,5.60 3.55,6.31 2.51,6.70 1.46,7.09 0.34,7.13 -0.77,7.17 -1.84,6.84 -2.91,6.52 -3.82,5.88 -4.74,5.23 -5.39,4.32 -6.05,3.42 -6.39,2.35 -6.72,1.29 -6.70,0.17 -6.68,-0.94 -6.30,-1.99 -5.92,-3.05 -5.22,-3.92 -4.53,-4.80 -3.59,-5.41 -2.65,-6.02 -1.56,-6.29 -0.48,-6.57 0.62,-6.49 1.74,-6.40 2.77,-5.97 3.80,-5.53 4.64,-4.79 5.48,-4.05 6.03,-3.08 6.59,-2.10 6.59,-2.11 6.59,-2.11 7.97,0.14 9.35,2.39 9.86,6.31 10.36,10.23 8.62,13.07 6.89,15.91 3.53,17.17 0.16,18.42 -3.02,17.98 -6.22,17.54 -8.30,15.94 -10.38,14.34 -11.69,12.38 -13.00,10.42 -13.18,6.90 -13.36,3.37 -11.65,0.70 -9.93,-1.95 -6.93,-3.32 -3.92,-4.69 -2.47,-4.89 -1.02,-5.10 -0.39,-5.14 0.23,-5.19 0.84,-5.09 1.46,-4.99 2.04,-4.74 2.61,-4.49 3.11,-4.11 3.61,-3.73 4.01,-3.24 4.40,-2.76 4.67,-2.19 4.94,-1.62 5.06,-1.01 5.18,-0.39 5.15,0.22 5.13,0.85 4.95,1.45 4.77,2.05 4.46,2.59 4.14,3.14 3.70,3.59 3.27,4.04 2.74,4.37 2.21,4.70 1.61,4.90 1.01,5.10 1.01,5.10 L 1.02,5.10 Z"></path></g><g transform="translate(37.99993896484375 139.99996948242188) rotate(0 18 55.5)" stroke="none"><path fill="#1e1e1e" d="M 2.94,-3.93 Q 2.94,-3.93 5.24,-2.20 7.55,-0.48 9.38,0.73 11.21,1.94 15.05,5.08 18.89,8.21 20.72,10.08 22.54,11.95 24.71,14.00 26.87,16.05 28.68,17.99 30.50,19.93 31.92,21.65 33.34,23.36 35.06,25.91 36.79,28.45 38.00,30.58 39.22,32.71 40.50,35.30 41.79,37.88 42.76,41.13 43.73,44.37 44.85,48.48 45.97,52.59 46.13,55.34 46.28,58.10 45.75,63.26 45.22,68.43 44.31,71.39 43.39,74.35 42.78,76.47 42.18,78.58 41.23,80.73 40.27,82.88 39.01,85.34 37.74,87.80 36.59,89.88 35.44,91.95 33.27,94.70 31.09,97.46 29.65,99.25 28.22,101.05 24.91,104.69 21.60,108.33 19.53,109.75 17.46,111.17 15.25,112.50 13.04,113.83 10.67,114.71 8.30,115.59 5.57,115.95 2.85,116.32 -1.27,116.12 -5.40,115.93 -6.29,115.60 -7.18,115.26 -7.92,114.65 -8.66,114.05 -9.17,113.24 -9.67,112.43 -9.89,111.50 -10.12,110.57 -10.03,109.62 -9.94,108.67 -9.56,107.80 -9.17,106.93 -8.53,106.22 -7.89,105.52 -7.05,105.05 -6.22,104.59 -5.28,104.42 -4.34,104.25 -3.39,104.39 -2.45,104.52 -1.60,104.96 -0.75,105.39 -0.08,106.07 0.58,106.75 1.00,107.61 1.41,108.47 1.53,109.42 1.65,110.36 1.47,111.30 1.28,112.23 0.80,113.06 0.32,113.89 -0.38,114.52 -1.10,115.15 -1.98,115.52 -2.86,115.89 -3.81,115.96 -4.76,116.02 -5.69,115.79 -6.61,115.55 -7.41,115.02 -8.21,114.50 -8.80,113.75 -9.39,113.00 -9.71,112.11 -10.04,111.21 -10.05,110.25 -10.07,109.30 -9.78,108.39 -9.49,107.48 -8.93,106.71 -8.36,105.94 -7.58,105.39 -6.80,104.84 -5.89,104.57 -4.97,104.30 -4.02,104.33 -3.07,104.37 -3.07,104.37 -3.07,104.37 -0.72,104.67 1.62,104.97 4.47,104.63 7.31,104.28 10.71,102.28 14.10,100.29 15.68,98.82 17.27,97.36 19.90,94.20 22.52,91.03 25.19,86.97 27.86,82.90 29.04,80.44 30.21,77.98 31.60,74.67 32.99,71.35 33.70,68.71 34.41,66.06 34.89,62.34 35.37,58.61 35.17,55.08 34.98,51.54 34.38,49.44 33.79,47.34 33.09,44.99 32.39,42.64 30.31,38.52 28.23,34.40 26.59,32.12 24.95,29.84 22.51,26.71 20.07,23.58 16.18,19.84 12.30,16.10 8.82,13.14 5.34,10.18 3.49,8.78 1.64,7.38 -0.64,5.65 -2.94,3.93 -3.37,3.52 -3.80,3.11 -4.12,2.61 -4.43,2.11 -4.62,1.54 -4.81,0.98 -4.86,0.39 -4.91,-0.19 -4.81,-0.77 -4.72,-1.36 -4.48,-1.90 -4.25,-2.45 -3.90,-2.92 -3.54,-3.40 -3.08,-3.77 -2.63,-4.15 -2.09,-4.40 -1.56,-4.66 -0.97,-4.77 -0.39,-4.89 0.19,-4.87 0.78,-4.85 1.35,-4.68 1.92,-4.52 2.43,-4.22 2.94,-3.93 2.94,-3.93 L 2.94,-3.93 Z"></path></g><g transform="translate(53.99993896484375 86.99996948242188) rotate(0 43.5 105)" stroke="none"><path fill="#1e1e1e" d="M -1.06,-4.26 Q -1.06,-4.26 1.20,-4.93 3.48,-5.61 6.65,-6.24 9.81,-6.87 18.13,-3.84 26.45,-0.81 30.02,0.97 33.58,2.75 36.10,3.99 38.62,5.23 41.41,7.42 44.20,9.61 46.99,12.36 49.79,15.11 52.44,18.11 55.08,21.11 56.99,23.60 58.91,26.08 60.32,27.90 61.74,29.71 63.50,32.64 65.26,35.56 66.66,37.94 68.07,40.32 69.70,43.34 71.34,46.36 72.72,48.81 74.10,51.26 75.51,54.81 76.93,58.36 77.94,61.04 78.95,63.72 79.93,65.79 80.91,67.85 81.91,71.36 82.92,74.87 83.70,77.43 84.48,79.99 85.28,83.43 86.09,86.87 86.60,89.36 87.11,91.84 87.76,95.00 88.40,98.15 88.82,100.90 89.24,103.66 89.59,107.04 89.94,110.43 90.46,112.54 90.99,114.65 91.18,118.26 91.37,121.87 91.52,124.47 91.67,127.08 91.63,130.51 91.60,133.95 91.68,136.55 91.75,139.14 91.84,141.40 91.93,143.66 91.62,146.87 91.30,150.08 91.25,152.38 91.19,154.69 90.47,158.10 89.75,161.50 89.24,163.79 88.73,166.08 87.51,169.06 86.28,172.03 85.20,174.25 84.11,176.47 81.34,180.36 78.56,184.25 76.68,186.55 74.81,188.84 73.09,190.82 71.37,192.80 67.94,195.39 64.51,197.98 61.21,199.99 57.91,202.00 55.82,203.45 53.74,204.89 50.96,206.44 48.18,207.98 43.90,210.46 39.62,212.95 36.39,214.33 33.16,215.70 29.87,216.47 26.58,217.23 25.70,217.24 24.82,217.25 23.99,216.98 23.15,216.72 22.45,216.19 21.74,215.67 21.23,214.95 20.73,214.23 20.48,213.39 20.24,212.55 20.27,211.67 20.31,210.79 20.62,209.97 20.93,209.15 21.49,208.47 22.05,207.79 22.80,207.33 23.54,206.87 24.40,206.67 25.25,206.47 26.13,206.55 27.00,206.63 27.81,206.99 28.61,207.34 29.25,207.94 29.90,208.53 30.32,209.30 30.75,210.07 30.90,210.94 31.05,211.80 30.93,212.67 30.80,213.54 30.40,214.32 29.99,215.11 29.37,215.72 28.74,216.33 27.94,216.71 27.15,217.09 26.28,217.20 25.41,217.31 24.55,217.13 23.69,216.95 22.93,216.51 22.17,216.07 21.59,215.41 21.01,214.75 20.68,213.94 20.34,213.12 20.28,212.25 20.22,211.37 20.44,210.52 20.67,209.67 21.15,208.94 21.63,208.20 22.32,207.66 23.01,207.12 23.84,206.83 24.67,206.54 24.67,206.54 24.67,206.54 27.61,205.94 30.55,205.35 33.07,204.59 35.59,203.84 37.64,203.02 39.68,202.20 41.64,200.95 43.60,199.71 46.08,198.34 48.57,196.97 50.76,195.63 52.95,194.29 55.64,192.44 58.34,190.60 60.90,188.17 63.46,185.75 65.02,184.04 66.57,182.33 68.34,180.02 70.11,177.70 71.64,175.75 73.16,173.79 75.06,170.97 76.95,168.15 78.52,163.83 80.09,159.51 80.62,156.84 81.16,154.17 81.34,151.65 81.53,149.14 81.79,146.41 82.04,143.68 82.12,141.44 82.19,139.20 82.24,136.62 82.28,134.05 82.18,130.72 82.07,127.39 82.05,124.91 82.04,122.43 81.83,119.49 81.62,116.54 81.22,114.05 80.81,111.57 80.32,108.19 79.83,104.81 79.62,102.48 79.42,100.15 78.37,94.65 77.32,89.14 76.37,85.82 75.43,82.51 74.80,80.01 74.18,77.50 73.22,74.51 72.27,71.52 71.34,69.10 70.41,66.68 69.65,64.23 68.88,61.78 67.47,58.67 66.05,55.55 64.83,53.14 63.62,50.73 61.85,47.74 60.09,44.74 58.90,42.44 57.71,40.14 56.07,37.46 54.44,34.78 53.27,32.88 52.10,30.97 50.65,28.77 49.19,26.56 46.61,23.93 44.04,21.31 41.31,18.93 38.59,16.55 36.50,14.80 34.41,13.06 32.23,11.79 30.04,10.52 26.60,9.11 23.16,7.70 16.84,5.44 10.52,3.18 8.12,3.24 5.71,3.31 3.39,3.78 1.06,4.26 0.54,4.32 0.01,4.39 -0.51,4.33 -1.03,4.27 -1.53,4.08 -2.02,3.89 -2.46,3.59 -2.90,3.29 -3.25,2.90 -3.60,2.50 -3.85,2.04 -4.10,1.57 -4.23,1.05 -4.36,0.54 -4.36,0.01 -4.36,-0.51 -4.23,-1.03 -4.11,-1.54 -3.86,-2.01 -3.62,-2.48 -3.27,-2.88 -2.92,-3.27 -2.48,-3.58 -2.05,-3.88 -1.56,-4.07 -1.06,-4.26 -1.06,-4.26 L -1.06,-4.26 Z"></path></g><g transform="translate(83.99993896484375 38.999969482421875) rotate(0 71 158)" stroke="none"><path fill="#1e1e1e" d="M -1.46,-5.14 Q -1.46,-5.14 0.53,-5.76 2.53,-6.39 5.64,-6.97 8.75,-7.55 11.89,-7.73 15.04,-7.90 17.25,-7.62 19.47,-7.34 22.58,-6.93 25.68,-6.52 30.14,-4.78 34.59,-3.03 38.91,-1.09 43.22,0.84 45.48,2.03 47.74,3.22 49.88,4.79 52.01,6.37 54.75,8.44 57.49,10.52 59.65,11.95 61.80,13.38 64.79,16.02 67.77,18.65 70.12,20.51 72.47,22.36 75.49,25.49 78.50,28.62 80.87,30.60 83.23,32.59 86.23,35.72 89.22,38.85 91.51,41.30 93.81,43.75 96.61,47.21 99.42,50.66 101.62,53.23 103.81,55.80 105.73,58.40 107.65,61.00 110.18,64.36 112.71,67.72 114.85,70.68 116.98,73.63 119.24,77.62 121.49,81.61 123.38,84.64 125.26,87.68 127.43,91.99 129.59,96.30 131.20,99.55 132.82,102.80 134.55,107.14 136.27,111.49 137.47,114.82 138.66,118.16 139.89,122.14 141.12,126.13 142.11,129.30 143.10,132.48 143.67,136.88 144.24,141.29 144.65,144.61 145.06,147.93 145.14,151.99 145.22,156.04 145.34,159.48 145.47,162.91 145.08,167.36 144.68,171.81 144.68,175.04 144.68,178.28 143.92,182.99 143.16,187.71 142.64,191.40 142.12,195.09 140.90,199.64 139.68,204.20 138.99,207.77 138.30,211.33 136.70,215.89 135.10,220.46 133.98,223.84 132.85,227.22 131.08,231.25 129.31,235.29 122.38,245.82 115.45,256.36 111.33,261.67 107.22,266.98 103.44,271.53 99.66,276.08 96.89,279.00 94.12,281.92 90.91,285.09 87.70,288.27 84.27,291.38 80.84,294.48 78.69,296.77 76.54,299.06 74.47,301.05 72.39,303.04 69.34,305.12 66.28,307.20 64.28,308.71 62.27,310.23 58.01,313.03 53.76,315.84 51.74,316.89 49.73,317.94 47.20,318.79 44.67,319.64 40.62,321.14 36.58,322.63 35.75,322.74 34.92,322.84 34.10,322.67 33.28,322.50 32.55,322.08 31.83,321.66 31.28,321.03 30.73,320.40 30.41,319.62 30.09,318.85 30.03,318.01 29.97,317.18 30.18,316.37 30.40,315.56 30.86,314.86 31.32,314.16 31.98,313.64 32.64,313.12 33.43,312.84 34.22,312.57 35.05,312.55 35.89,312.54 36.69,312.80 37.49,313.05 38.16,313.55 38.84,314.05 39.32,314.74 39.80,315.42 40.03,316.23 40.27,317.03 40.23,317.87 40.20,318.70 39.90,319.49 39.60,320.27 39.07,320.92 38.53,321.56 37.82,322.00 37.11,322.45 36.30,322.64 35.48,322.83 34.65,322.75 33.81,322.67 33.05,322.33 32.28,321.99 31.66,321.42 31.05,320.86 30.65,320.12 30.24,319.39 30.10,318.56 29.95,317.74 30.07,316.91 30.20,316.08 30.58,315.33 30.96,314.59 31.56,314.00 32.16,313.42 32.92,313.06 33.67,312.69 33.67,312.69 33.67,312.69 37.82,311.55 41.98,310.41 45.76,309.28 49.53,308.14 53.73,305.90 57.93,303.66 60.13,302.41 62.32,301.15 65.10,299.41 67.88,297.67 70.05,296.08 72.22,294.50 74.65,292.44 77.08,290.39 80.38,287.33 83.67,284.27 86.81,281.05 89.95,277.83 92.63,275.17 95.32,272.51 98.98,268.00 102.65,263.49 106.56,258.30 110.48,253.11 117.03,243.00 123.59,232.89 125.14,228.94 126.69,224.98 127.96,221.74 129.24,218.50 130.57,214.25 131.91,209.99 132.73,206.34 133.56,202.69 134.53,198.38 135.50,194.08 136.08,190.45 136.67,186.82 137.16,182.42 137.65,178.03 137.87,174.72 138.10,171.40 138.23,167.21 138.37,163.01 138.40,159.63 138.43,156.24 138.27,152.39 138.12,148.53 137.98,145.40 137.84,142.28 137.12,138.28 136.40,134.28 135.70,131.21 135.00,128.14 133.61,124.20 132.22,120.25 131.31,117.11 130.41,113.97 128.55,109.83 126.68,105.70 125.26,102.53 123.84,99.35 121.56,95.32 119.28,91.28 117.49,88.20 115.69,85.12 113.34,81.50 110.99,77.88 109.06,75.08 107.12,72.29 104.13,68.91 101.14,65.53 99.54,63.08 97.95,60.63 95.93,58.09 93.91,55.54 90.85,52.38 87.80,49.21 85.78,46.91 83.76,44.61 80.65,41.97 77.55,39.33 75.04,37.21 72.53,35.09 69.48,32.62 66.44,30.15 64.00,28.30 61.56,26.45 58.70,24.42 55.83,22.40 53.68,20.98 51.53,19.57 48.20,17.65 44.87,15.72 41.74,13.70 38.61,11.68 33.88,9.81 29.16,7.94 26.22,6.73 23.28,5.52 20.40,5.02 17.51,4.51 15.11,4.20 12.71,3.89 9.11,3.99 5.51,4.09 3.49,4.61 1.46,5.14 0.83,5.24 0.19,5.34 -0.44,5.29 -1.08,5.23 -1.70,5.03 -2.31,4.82 -2.85,4.47 -3.39,4.13 -3.84,3.66 -4.28,3.19 -4.60,2.63 -4.93,2.07 -5.10,1.45 -5.28,0.83 -5.30,0.19 -5.33,-0.45 -5.20,-1.08 -5.06,-1.71 -4.79,-2.29 -4.51,-2.87 -4.10,-3.37 -3.69,-3.87 -3.17,-4.25 -2.65,-4.64 -2.06,-4.89 -1.46,-5.14 -1.46,-5.14 L -1.46,-5.14 Z"></path></g><g transform="translate(173.99993896484375 49.999969482421875) rotate(0 17 5)" stroke="none"><path fill="#1e1e1e" d="M 4.14,-3.31 Q 4.14,-3.31 5.35,-1.92 6.55,-0.52 8.57,2.31 10.58,5.15 12.41,6.26 14.25,7.37 15.33,4.88 16.41,2.38 17.88,0.83 19.35,-0.71 21.24,-2.28 23.14,-3.85 26.44,-6.61 29.74,-9.37 30.75,-9.82 31.76,-10.26 32.86,-10.36 33.96,-10.46 35.03,-10.20 36.11,-9.94 37.04,-9.35 37.98,-8.77 38.68,-7.91 39.38,-7.06 39.77,-6.02 40.16,-4.99 40.19,-3.88 40.23,-2.78 39.92,-1.72 39.60,-0.66 38.96,0.23 38.33,1.13 37.44,1.78 36.54,2.43 35.49,2.77 34.44,3.10 33.33,3.08 32.23,3.06 31.19,2.69 30.15,2.31 29.28,1.63 28.42,0.94 27.81,0.02 27.21,-0.90 26.94,-1.97 26.66,-3.04 26.74,-4.14 26.82,-5.24 27.25,-6.26 27.68,-7.28 28.41,-8.11 29.14,-8.94 30.10,-9.49 31.06,-10.04 32.14,-10.25 33.22,-10.47 34.32,-10.33 35.41,-10.19 36.41,-9.71 37.40,-9.22 38.19,-8.45 38.98,-7.67 39.47,-6.69 39.97,-5.70 40.13,-4.61 40.29,-3.52 40.09,-2.43 39.89,-1.34 39.35,-0.38 38.82,0.58 38.00,1.32 37.18,2.07 37.18,2.07 37.18,2.07 35.79,3.09 34.40,4.12 32.13,5.84 29.86,7.56 27.80,9.53 25.73,11.50 24.00,13.17 22.26,14.85 19.20,17.03 16.14,19.22 12.43,18.61 8.72,18.01 5.45,15.48 2.17,12.95 0.11,9.61 -1.95,6.27 -3.05,4.79 -4.14,3.31 -4.48,2.77 -4.82,2.22 -5.01,1.61 -5.21,1.01 -5.25,0.37 -5.30,-0.26 -5.19,-0.89 -5.08,-1.52 -4.82,-2.11 -4.57,-2.70 -4.18,-3.20 -3.79,-3.71 -3.29,-4.11 -2.79,-4.51 -2.21,-4.78 -1.63,-5.05 -1.00,-5.17 -0.37,-5.29 0.26,-5.26 0.90,-5.23 1.51,-5.04 2.13,-4.86 2.68,-4.53 3.23,-4.21 3.69,-3.76 4.14,-3.31 4.14,-3.31 L 4.14,-3.31 Z"></path></g><g transform="translate(187.99993896484375 52.999969482421875) rotate(0 59.5 -21.499984741210938)" stroke="none"><path fill="#1e1e1e" d="M -4.45,1.90 Q -4.45,1.90 -5.41,-0.23 -6.37,-2.36 -6.40,-5.47 -6.44,-8.57 -4.89,-12.99 -3.34,-17.41 -1.82,-19.57 -0.30,-21.74 2.33,-24.17 4.97,-26.61 6.78,-28.39 8.59,-30.17 10.84,-31.81 13.09,-33.44 16.39,-35.33 19.70,-37.21 22.28,-38.70 24.85,-40.19 27.11,-41.45 29.37,-42.71 33.39,-43.82 37.41,-44.93 42.12,-45.47 46.83,-46.01 50.28,-46.36 53.73,-46.70 58.27,-46.35 62.81,-46.00 66.47,-45.64 70.14,-45.29 74.72,-44.08 79.30,-42.88 82.97,-41.86 86.64,-40.84 89.66,-39.56 92.67,-38.28 96.40,-36.13 100.12,-33.99 102.90,-32.68 105.67,-31.37 108.85,-28.83 112.03,-26.29 114.00,-24.81 115.96,-23.32 117.95,-21.00 119.93,-18.69 121.35,-16.94 122.77,-15.20 123.94,-12.93 125.11,-10.66 125.83,-7.86 126.56,-5.05 126.59,-4.26 126.63,-3.47 126.41,-2.71 126.19,-1.95 125.74,-1.30 125.29,-0.65 124.66,-0.18 124.02,0.29 123.27,0.53 122.52,0.78 121.73,0.77 120.94,0.76 120.19,0.50 119.45,0.24 118.82,-0.23 118.20,-0.72 117.76,-1.37 117.32,-2.03 117.12,-2.80 116.91,-3.56 116.96,-4.35 117.01,-5.14 117.31,-5.87 117.61,-6.60 118.13,-7.20 118.65,-7.80 119.33,-8.20 120.01,-8.60 120.78,-8.76 121.56,-8.92 122.34,-8.83 123.13,-8.74 123.84,-8.40 124.55,-8.06 125.12,-7.51 125.69,-6.96 126.06,-6.26 126.42,-5.56 126.54,-4.78 126.66,-4.00 126.53,-3.22 126.39,-2.44 126.01,-1.74 125.64,-1.05 125.06,-0.51 124.48,0.02 123.76,0.34 123.04,0.67 122.25,0.75 121.46,0.82 120.69,0.65 119.92,0.47 119.25,0.05 118.58,-0.35 118.07,-0.96 117.56,-1.56 117.28,-2.30 116.99,-3.04 116.99,-3.04 116.99,-3.04 116.72,-4.98 116.44,-6.93 114.84,-10.22 113.25,-13.51 111.97,-15.41 110.70,-17.30 109.06,-18.94 107.42,-20.58 104.83,-22.70 102.24,-24.82 99.55,-26.34 96.86,-27.87 93.14,-29.70 89.41,-31.52 87.08,-32.82 84.74,-34.12 81.24,-35.11 77.74,-36.10 73.56,-36.93 69.38,-37.75 65.96,-38.10 62.54,-38.45 58.53,-38.40 54.52,-38.35 51.38,-38.06 48.23,-37.77 44.20,-36.83 40.16,-35.88 37.14,-34.83 34.11,-33.79 31.96,-32.68 29.82,-31.58 27.44,-30.21 25.07,-28.85 20.53,-25.70 15.99,-22.54 14.14,-20.75 12.29,-18.95 9.30,-15.75 6.31,-12.54 4.62,-9.11 2.92,-5.68 3.68,-3.79 4.45,-1.90 4.61,-1.34 4.77,-0.78 4.80,-0.20 4.82,0.37 4.71,0.95 4.59,1.52 4.34,2.05 4.09,2.57 3.73,3.03 3.36,3.48 2.89,3.83 2.43,4.18 1.89,4.41 1.35,4.64 0.78,4.74 0.20,4.83 -0.37,4.79 -0.95,4.74 -1.51,4.56 -2.06,4.37 -2.56,4.06 -3.05,3.75 -3.46,3.33 -3.86,2.91 -4.15,2.41 -4.45,1.90 -4.45,1.90 L -4.45,1.90 Z"></path></g><g transform="translate(320.99993896484375 90.99996948242188) rotate(0 -11.5 19)" stroke="none"><path fill="#1e1e1e" d="M -0.71,1.91 Q -0.71,1.91 -2.97,0.95 -5.24,0.00 -7.18,-0.38 -9.13,-0.77 -10.99,-0.67 -12.85,-0.56 -14.32,-0.42 -15.78,-0.29 -17.09,0.05 -18.41,0.40 -19.68,1.05 -20.95,1.71 -21.59,3.65 -22.22,5.59 -21.32,6.97 -20.42,8.36 -18.94,9.49 -17.46,10.61 -15.98,11.35 -14.50,12.08 -11.50,13.97 -8.50,15.85 -6.63,17.27 -4.76,18.70 -3.33,19.85 -1.90,21.00 -0.77,21.67 0.36,22.33 1.65,24.03 2.93,25.73 3.55,26.74 4.16,27.76 4.51,28.95 4.86,30.14 5.00,31.58 5.14,33.02 4.89,34.27 4.63,35.53 3.46,37.11 2.28,38.69 1.12,39.70 -0.03,40.71 -1.92,41.48 -3.80,42.25 -5.23,42.61 -6.65,42.96 -8.51,43.06 -10.37,43.16 -11.95,42.94 -13.53,42.71 -15.04,42.30 -16.55,41.89 -17.88,41.40 -19.21,40.92 -20.39,39.94 -21.58,38.96 -23.07,36.41 -24.56,33.87 -24.57,33.43 -24.58,33.00 -24.45,32.59 -24.32,32.17 -24.07,31.82 -23.82,31.47 -23.46,31.22 -23.11,30.96 -22.70,30.84 -22.28,30.71 -21.85,30.72 -21.41,30.74 -21.01,30.89 -20.60,31.04 -20.26,31.31 -19.93,31.58 -19.69,31.95 -19.46,32.31 -19.36,32.73 -19.25,33.15 -19.29,33.59 -19.32,34.02 -19.50,34.42 -19.67,34.81 -19.96,35.14 -20.25,35.46 -20.63,35.67 -21.00,35.88 -21.43,35.96 -21.86,36.05 -22.29,35.99 -22.72,35.93 -23.10,35.73 -23.49,35.54 -23.80,35.23 -24.10,34.93 -24.30,34.54 -24.49,34.15 -24.55,33.72 -24.60,33.29 -24.52,32.86 -24.44,32.44 -24.22,32.06 -24.01,31.68 -23.69,31.39 -23.36,31.11 -22.96,30.93 -22.57,30.76 -22.13,30.73 -21.70,30.70 -21.28,30.80 -20.86,30.91 -20.50,31.14 -20.13,31.37 -19.86,31.71 -19.59,32.05 -19.44,32.46 -19.29,32.87 -19.29,32.87 -19.29,32.87 -19.41,33.69 -19.54,34.51 -18.42,35.46 -17.31,36.41 -16.29,36.83 -15.27,37.25 -12.96,37.87 -10.65,38.49 -9.16,38.36 -7.66,38.24 -6.60,38.06 -5.54,37.88 -3.48,36.79 -1.41,35.71 -0.40,34.46 0.61,33.21 0.59,32.10 0.57,30.99 0.24,29.44 -0.08,27.89 -0.92,26.63 -1.77,25.37 -2.93,24.50 -4.10,23.62 -5.39,22.49 -6.68,21.36 -8.49,20.12 -10.31,18.88 -13.27,17.21 -16.23,15.54 -17.95,14.67 -19.67,13.80 -21.67,12.51 -23.66,11.21 -24.52,9.97 -25.37,8.73 -25.66,7.22 -25.95,5.71 -25.88,3.05 -25.80,0.39 -24.21,-0.70 -22.63,-1.81 -20.92,-2.56 -19.21,-3.32 -17.57,-3.59 -15.93,-3.87 -14.50,-3.84 -13.06,-3.82 -10.82,-3.97 -8.57,-4.13 -6.26,-3.79 -3.95,-3.45 -1.62,-2.68 0.71,-1.91 0.93,-1.79 1.15,-1.68 1.33,-1.52 1.52,-1.35 1.66,-1.15 1.80,-0.95 1.89,-0.72 1.97,-0.49 2.01,-0.25 2.04,-0.00 2.01,0.23 1.98,0.48 1.89,0.71 1.81,0.94 1.67,1.14 1.53,1.34 1.34,1.51 1.16,1.67 0.94,1.79 0.73,1.90 0.49,1.96 0.25,2.02 0.00,2.02 -0.23,2.02 -0.47,1.96 -0.71,1.91 -0.71,1.91 L -0.71,1.91 Z"></path></g><g transform="translate(340.99993896484375 109.99996948242188) rotate(0 7.5 24)" stroke="none"><path fill="#1e1e1e" d="M 1.82,0 Q 1.82,0 1.88,1.43 1.94,2.87 1.99,4.34 2.03,5.81 2.29,7.43 2.55,9.05 2.70,10.75 2.85,12.45 3.08,14.81 3.32,17.17 3.71,18.99 4.11,20.80 4.52,23.38 4.94,25.95 5.14,27.96 5.35,29.96 5.67,32.18 5.99,34.40 6.18,36.28 6.38,38.16 6.54,39.53 6.70,40.91 6.75,42.66 6.80,44.42 6.85,46.05 6.89,47.68 6.03,49.14 5.16,50.59 3.86,50.58 2.57,50.58 1.59,49.46 0.61,48.34 0.26,47.11 -0.09,45.89 -0.61,44.17 -1.13,42.46 -1.45,40.63 -1.76,38.80 -2.05,36.35 -2.34,33.90 -2.44,31.63 -2.53,29.36 -2.25,26.57 -1.97,23.78 -1.87,21.81 -1.76,19.84 -0.77,17.06 0.20,14.28 0.85,12.57 1.49,10.85 2.00,9.50 2.51,8.16 3.71,6.36 4.92,4.56 6.35,2.92 7.77,1.28 8.57,0.24 9.37,-0.79 10.40,-1.68 11.43,-2.57 13.49,-3.18 15.56,-3.79 16.92,-2.08 18.29,-0.37 17.73,2.43 17.16,5.25 16.58,6.24 16.00,7.23 15.59,8.24 15.19,9.25 14.61,10.26 14.04,11.26 13.13,12.35 12.23,13.43 11.18,14.86 10.14,16.30 6.65,17.03 3.16,17.76 2.77,17.51 2.38,17.25 2.09,16.89 1.81,16.53 1.65,16.09 1.49,15.65 1.48,15.19 1.47,14.73 1.61,14.28 1.75,13.84 2.03,13.47 2.30,13.09 2.68,12.82 3.06,12.56 3.50,12.42 3.95,12.29 4.41,12.31 4.87,12.32 5.31,12.49 5.74,12.65 6.10,12.94 6.46,13.24 6.71,13.63 6.95,14.02 7.06,14.47 7.17,14.92 7.13,15.39 7.09,15.85 6.90,16.27 6.72,16.70 6.40,17.04 6.09,17.38 5.69,17.61 5.28,17.83 4.82,17.92 4.37,18.00 3.91,17.93 3.45,17.87 3.04,17.66 2.62,17.45 2.30,17.12 1.97,16.79 1.77,16.37 1.56,15.95 1.51,15.49 1.45,15.03 1.54,14.58 1.63,14.12 1.86,13.72 2.09,13.32 2.44,13.01 2.79,12.71 3.21,12.53 3.64,12.35 4.10,12.31 4.57,12.28 5.02,12.39 5.47,12.51 5.46,12.51 5.46,12.51 5.48,12.82 5.49,13.14 6.79,11.50 8.09,9.86 9.20,8.52 10.31,7.17 11.39,5.14 12.47,3.11 13.65,1.76 14.82,0.41 13.46,1.02 12.09,1.63 11.18,2.51 10.28,3.39 9.04,4.92 7.80,6.44 6.79,8.03 5.79,9.63 5.15,10.85 4.51,12.07 3.82,13.69 3.12,15.31 2.31,17.67 1.49,20.03 1.42,22.04 1.34,24.05 1.19,26.56 1.04,29.08 1.29,31.17 1.54,33.25 2.07,35.65 2.59,38.05 2.83,39.51 3.08,40.96 3.91,43.58 4.74,46.20 3.90,46.89 3.06,47.59 3.08,46.03 3.10,44.48 3.10,42.78 3.09,41.09 3.12,39.76 3.14,38.44 3.02,36.67 2.90,34.91 2.48,32.60 2.05,30.30 1.86,28.43 1.66,26.56 1.13,24.08 0.61,21.60 0.14,19.65 -0.32,17.69 -0.77,15.22 -1.21,12.76 -1.30,11.22 -1.40,9.69 -1.72,7.75 -2.03,5.82 -1.99,4.35 -1.94,2.87 -1.88,1.43 -1.82,0 -1.79,-0.21 -1.77,-0.43 -1.69,-0.64 -1.61,-0.84 -1.49,-1.02 -1.36,-1.21 -1.20,-1.35 -1.03,-1.50 -0.84,-1.60 -0.64,-1.70 -0.43,-1.75 -0.21,-1.81 0.00,-1.81 0.22,-1.81 0.43,-1.75 0.64,-1.70 0.84,-1.60 1.03,-1.50 1.20,-1.35 1.36,-1.21 1.49,-1.02 1.61,-0.84 1.69,-0.64 1.77,-0.43 1.79,-0.21 1.82,0.00 1.82,0.00 L 1.82,0 Z"></path></g><g transform="translate(356.99993896484375 82.99996948242188) rotate(0 16 19)" stroke="none"><path fill="#1e1e1e" d="M 1.94,-0.77 Q 1.94,-0.77 2.53,0.65 3.13,2.08 3.68,3.58 4.24,5.08 4.77,6.21 5.31,7.34 5.64,8.64 5.98,9.93 7.08,15.27 8.19,20.62 8.89,23.44 9.60,26.27 9.90,28.46 10.20,30.64 10.67,31.97 11.13,33.30 11.89,34.73 12.65,36.17 12.94,34.63 13.23,33.10 14.02,31.57 14.81,30.04 15.29,29.09 15.76,28.14 16.25,27.16 16.73,26.17 17.25,25.14 17.77,24.11 18.54,23.31 19.31,22.50 20.23,21.05 21.16,19.61 21.57,19.41 21.99,19.22 22.27,18.98 22.56,18.73 22.89,18.56 23.22,18.39 23.59,18.31 23.95,18.22 24.32,18.23 24.70,18.23 25.06,18.32 25.42,18.42 25.75,18.60 26.08,18.77 26.36,19.02 26.63,19.28 26.84,19.59 27.05,19.90 27.18,20.25 27.31,20.60 27.35,20.97 27.39,21.34 27.34,21.71 27.29,22.08 27.15,22.43 27.02,22.78 26.80,23.08 26.59,23.39 27.07,22.24 27.56,21.10 28.00,22.37 28.44,23.64 28.94,25.10 29.44,26.56 29.68,27.83 29.92,29.11 30.40,31.07 30.88,33.02 31.37,34.15 31.86,35.28 32.11,35.03 32.35,34.77 32.84,34.95 33.32,35.14 33.73,35.47 34.13,35.81 34.41,36.25 34.68,36.69 34.80,37.20 34.92,37.71 34.87,38.23 34.82,38.75 34.61,39.23 34.40,39.71 34.04,40.09 33.69,40.48 33.23,40.73 32.77,40.98 32.26,41.07 31.74,41.17 31.23,41.09 30.71,41.01 30.24,40.77 29.78,40.53 29.41,40.16 29.05,39.79 28.82,39.31 28.60,38.84 28.53,38.32 28.47,37.80 28.57,37.29 28.68,36.78 28.94,36.33 29.20,35.88 29.60,35.53 29.99,35.19 30.48,34.99 30.96,34.79 31.48,34.75 32.00,34.72 32.51,34.85 33.01,34.98 33.45,35.27 33.89,35.56 34.21,35.97 34.53,36.38 34.71,36.87 34.88,37.37 34.89,37.89 34.89,38.41 34.73,38.91 34.57,39.41 34.26,39.83 33.95,40.25 33.52,40.55 33.10,40.85 32.59,41.00 32.09,41.14 31.57,41.12 31.05,41.10 31.05,41.10 31.05,41.10 28.34,38.72 25.62,36.35 25.06,34.49 24.49,32.62 24.01,30.79 23.53,28.95 23.06,27.49 22.60,26.03 22.21,24.74 21.83,23.46 21.91,21.34 21.99,19.22 22.27,18.98 22.56,18.73 22.89,18.56 23.22,18.39 23.59,18.31 23.95,18.22 24.32,18.23 24.70,18.23 25.06,18.32 25.42,18.42 25.75,18.60 26.08,18.77 26.36,19.02 26.63,19.28 26.84,19.59 27.05,19.90 27.18,20.25 27.31,20.60 27.35,20.97 27.39,21.34 27.34,21.71 27.29,22.08 27.15,22.43 27.02,22.78 26.80,23.08 26.59,23.39 25.48,24.16 24.37,24.93 23.55,25.87 22.74,26.81 22.26,27.77 21.78,28.73 21.26,29.72 20.75,30.71 20.23,31.70 19.70,32.68 19.15,33.66 18.60,34.63 17.48,36.07 16.37,37.52 15.44,38.51 14.50,39.50 13.32,39.79 12.13,40.09 11.12,39.76 10.11,39.42 9.30,38.01 8.49,36.59 8.03,35.49 7.57,34.38 7.17,32.80 6.77,31.22 6.38,29.26 5.98,27.30 5.06,24.43 4.13,21.56 2.65,15.33 1.16,9.09 0.67,7.82 0.18,6.55 -0.32,5.11 -0.83,3.66 -1.38,2.22 -1.94,0.77 -2.00,0.53 -2.07,0.28 -2.07,0.03 -2.08,-0.21 -2.02,-0.46 -1.97,-0.70 -1.85,-0.93 -1.74,-1.15 -1.58,-1.34 -1.41,-1.54 -1.21,-1.68 -1.00,-1.83 -0.77,-1.92 -0.53,-2.02 -0.28,-2.05 -0.03,-2.09 0.21,-2.06 0.46,-2.04 0.70,-1.95 0.93,-1.87 1.14,-1.73 1.35,-1.59 1.53,-1.40 1.70,-1.21 1.82,-0.99 1.94,-0.77 1.94,-0.77 L 1.94,-0.77 Z"></path></g><g transform="translate(411.99993896484375 104.99996948242188) rotate(0 -7 7.5)" stroke="none"><path fill="#1e1e1e" d="M -1.31,2.19 Q -1.31,2.19 -2.72,1.28 -4.13,0.38 -5.36,0.09 -6.60,-0.19 -8.18,0.02 -9.76,0.25 -11.26,1.22 -12.77,2.19 -13.37,3.24 -13.98,4.28 -14.77,5.52 -15.56,6.75 -15.80,8.54 -16.04,10.33 -15.83,11.95 -15.63,13.57 -14.44,14.22 -13.26,14.86 -11.28,14.16 -9.29,13.46 -8.18,12.18 -7.06,10.91 -6.23,10.09 -5.39,9.28 -4.87,7.74 -4.35,6.21 -3.86,5.20 -3.37,4.18 -2.32,2.94 -1.26,1.71 0.28,1.75 1.83,1.80 2.86,2.61 3.88,3.42 4.49,4.43 5.09,5.45 5.95,9.54 6.80,13.64 6.45,14.02 6.09,14.41 5.63,14.67 5.17,14.92 4.66,15.02 4.14,15.11 3.62,15.03 3.10,14.96 2.63,14.72 2.16,14.48 1.79,14.11 1.43,13.73 1.20,13.26 0.97,12.79 0.90,12.27 0.84,11.74 0.94,11.23 1.04,10.71 1.31,10.26 1.57,9.80 1.96,9.46 2.36,9.11 2.84,8.91 3.33,8.70 3.85,8.66 4.37,8.63 4.88,8.76 5.39,8.89 5.83,9.18 6.27,9.46 6.60,9.88 6.92,10.29 7.10,10.78 7.28,11.28 7.29,11.80 7.30,12.33 7.14,12.83 6.98,13.33 6.67,13.76 6.36,14.18 5.93,14.48 5.50,14.79 4.99,14.93 4.49,15.08 3.97,15.07 3.44,15.05 2.95,14.86 2.46,14.67 2.05,14.34 1.64,14.01 1.36,13.56 1.09,13.12 0.96,12.61 0.84,12.10 0.89,11.57 0.94,11.05 1.15,10.57 1.36,10.09 1.36,10.09 1.36,10.09 0.61,9.60 -0.13,9.11 -0.53,7.67 -0.94,6.23 0.51,6.48 1.97,6.73 1.10,8.59 0.23,10.44 -0.43,11.84 -1.10,13.24 -2.58,14.76 -4.06,16.28 -5.21,17.42 -6.36,18.56 -7.89,19.43 -9.42,20.30 -11.66,20.55 -13.89,20.79 -15.48,20.51 -17.07,20.23 -18.01,19.55 -18.95,18.86 -19.55,17.97 -20.16,17.08 -20.65,15.94 -21.14,14.81 -21.36,12.29 -21.57,9.78 -21.41,8.22 -21.25,6.66 -20.78,5.25 -20.31,3.85 -19.67,2.80 -19.02,1.74 -18.47,0.81 -17.91,-0.12 -16.83,-1.26 -15.74,-2.39 -14.48,-3.21 -13.22,-4.04 -12.16,-4.52 -11.09,-5.01 -9.63,-5.29 -8.18,-5.57 -5.94,-5.19 -3.71,-4.81 -2.66,-4.32 -1.61,-3.83 -0.15,-3.01 1.31,-2.19 1.55,-2.00 1.80,-1.81 1.99,-1.57 2.18,-1.32 2.30,-1.04 2.43,-0.76 2.49,-0.46 2.54,-0.16 2.53,0.14 2.51,0.45 2.42,0.74 2.33,1.04 2.17,1.30 2.01,1.56 1.79,1.78 1.58,2.00 1.31,2.16 1.05,2.32 0.76,2.41 0.46,2.51 0.16,2.53 -0.14,2.55 -0.44,2.49 -0.75,2.44 -1.03,2.31 -1.31,2.19 -1.31,2.19 L -1.31,2.19 Z"></path></g><g transform="translate(394.99993896484375 81.99996948242188) rotate(0 1 2)" stroke="none"><path fill="#1e1e1e" d="M 2.29,-0.76 Q 2.29,-0.76 2.82,0.57 3.34,1.91 3.61,2.21 3.87,2.51 4.03,2.88 4.18,3.25 4.21,3.65 4.24,4.04 4.14,4.43 4.04,4.82 3.82,5.15 3.60,5.48 3.29,5.73 2.98,5.98 2.60,6.11 2.22,6.25 1.83,6.25 1.43,6.26 1.05,6.14 0.67,6.02 0.34,5.78 0.02,5.55 -0.20,5.22 -0.43,4.90 -0.54,4.51 -0.65,4.13 -0.64,3.73 -0.63,3.33 -0.48,2.96 -0.34,2.59 -0.09,2.28 0.15,1.97 0.49,1.76 0.83,1.55 1.22,1.45 1.60,1.36 2.00,1.40 2.40,1.43 2.76,1.59 3.13,1.76 3.42,2.02 3.72,2.29 3.91,2.64 4.10,2.99 4.18,3.38 4.25,3.78 4.19,4.17 4.13,4.57 3.95,4.92 3.77,5.28 3.49,5.56 3.20,5.84 2.84,6.01 2.48,6.18 2.09,6.23 1.69,6.28 1.30,6.21 0.91,6.13 0.56,5.93 0.22,5.73 0.22,5.73 0.22,5.73 -1.03,3.24 -2.29,0.76 -2.35,0.47 -2.40,0.19 -2.39,-0.09 -2.38,-0.38 -2.30,-0.66 -2.22,-0.94 -2.07,-1.20 -1.93,-1.45 -1.73,-1.66 -1.52,-1.87 -1.28,-2.02 -1.03,-2.18 -0.75,-2.27 -0.48,-2.36 -0.19,-2.39 0.09,-2.41 0.38,-2.36 0.67,-2.32 0.94,-2.20 1.20,-2.09 1.44,-1.91 1.67,-1.74 1.85,-1.51 2.04,-1.29 2.16,-1.02 2.29,-0.76 2.29,-0.76 L 2.29,-0.76 Z"></path></g><g transform="translate(407.99993896484375 84.99996948242188) rotate(0 1.5 0.5)" stroke="none"><path fill="#1e1e1e" d="M 0.73,-2.21 Q 0.73,-2.21 1.98,-1.84 3.22,-1.47 3.56,-1.29 3.91,-1.11 4.18,-0.82 4.45,-0.54 4.62,-0.19 4.78,0.16 4.83,0.55 4.87,0.94 4.79,1.32 4.70,1.70 4.50,2.04 4.30,2.38 4.00,2.63 3.71,2.88 3.34,3.03 2.98,3.18 2.59,3.20 2.20,3.22 1.82,3.12 1.44,3.01 1.12,2.80 0.79,2.58 0.56,2.27 0.32,1.95 0.19,1.58 0.07,1.21 0.06,0.82 0.06,0.43 0.19,0.06 0.31,-0.30 0.55,-0.62 0.78,-0.93 1.11,-1.15 1.43,-1.37 1.81,-1.47 2.18,-1.58 2.58,-1.56 2.97,-1.54 3.33,-1.40 3.69,-1.25 3.99,-1.00 4.29,-0.75 4.50,-0.41 4.70,-0.08 4.78,0.29 4.87,0.68 4.83,1.07 4.79,1.45 4.62,1.81 4.46,2.17 4.19,2.45 3.92,2.74 3.58,2.92 3.23,3.11 2.85,3.17 2.46,3.23 2.07,3.17 1.69,3.11 1.69,3.11 1.69,3.11 0.47,2.66 -0.73,2.21 -0.99,2.09 -1.24,1.97 -1.46,1.79 -1.68,1.61 -1.84,1.39 -2.01,1.16 -2.12,0.90 -2.23,0.64 -2.28,0.37 -2.32,0.09 -2.30,-0.18 -2.28,-0.46 -2.19,-0.73 -2.10,-0.99 -1.95,-1.23 -1.80,-1.47 -1.60,-1.66 -1.40,-1.86 -1.15,-2.00 -0.91,-2.14 -0.64,-2.22 -0.37,-2.30 -0.09,-2.31 0.18,-2.32 0.46,-2.26 0.73,-2.21 0.73,-2.21 L 0.73,-2.21 Z"></path></g><g transform="translate(431.99993896484375 112.99996948242188) rotate(0 4 -7)" stroke="none"><path fill="#1e1e1e" d="M 1.88,-1.88 Q 1.88,-1.88 2.49,-1.34 3.09,-0.79 3.29,-0.53 3.50,-0.27 3.63,0.03 3.77,0.33 3.83,0.65 3.89,0.98 3.87,1.31 3.85,1.64 3.75,1.96 3.65,2.27 3.48,2.56 3.31,2.84 3.07,3.07 2.84,3.31 2.56,3.48 2.27,3.65 1.96,3.75 1.64,3.85 1.31,3.87 0.98,3.89 0.65,3.83 0.33,3.77 0.03,3.63 -0.27,3.50 -0.53,3.29 -0.79,3.09 -1.23,1.28 -1.67,-0.53 -1.76,-2.11 -1.85,-3.70 -1.88,-5.66 -1.91,-7.63 -1.54,-8.85 -1.18,-10.08 -0.75,-11.51 -0.32,-12.94 0.13,-13.93 0.59,-14.92 1.22,-15.87 1.85,-16.82 4.61,-17.94 7.36,-19.05 7.86,-19.03 8.36,-19.00 8.83,-18.81 9.30,-18.62 9.68,-18.29 10.06,-17.97 10.32,-17.53 10.57,-17.10 10.68,-16.61 10.79,-16.12 10.73,-15.62 10.67,-15.12 10.46,-14.66 10.25,-14.21 9.90,-13.84 9.55,-13.48 9.11,-13.25 8.66,-13.01 8.17,-12.93 7.67,-12.85 7.17,-12.94 6.68,-13.02 6.23,-13.26 5.79,-13.49 5.45,-13.86 5.10,-14.23 4.89,-14.68 4.68,-15.14 4.63,-15.64 4.58,-16.14 4.69,-16.63 4.80,-17.12 5.06,-17.55 5.32,-17.98 5.71,-18.31 6.09,-18.63 6.56,-18.82 7.03,-19.00 7.53,-19.03 8.03,-19.05 8.51,-18.92 9.00,-18.78 9.41,-18.49 9.83,-18.21 10.13,-17.81 10.43,-17.41 10.59,-16.93 10.75,-16.45 10.75,-15.95 10.75,-15.45 10.59,-14.97 10.42,-14.49 10.12,-14.10 9.81,-13.70 9.39,-13.42 8.98,-13.14 8.49,-13.00 8.01,-12.87 8.01,-12.87 8.01,-12.87 7.06,-12.60 6.12,-12.33 5.45,-10.92 4.78,-9.50 4.34,-8.49 3.91,-7.47 3.89,-5.61 3.87,-3.75 3.48,-2.27 3.09,-0.79 3.29,-0.53 3.50,-0.27 3.63,0.03 3.77,0.33 3.83,0.65 3.89,0.98 3.87,1.31 3.85,1.64 3.75,1.96 3.65,2.27 3.48,2.56 3.31,2.84 3.07,3.07 2.84,3.31 2.56,3.48 2.27,3.65 1.96,3.75 1.64,3.85 1.31,3.87 0.98,3.89 0.65,3.83 0.33,3.77 0.03,3.63 -0.27,3.50 -0.53,3.29 -0.79,3.09 -1.34,2.49 -1.88,1.88 -2.08,1.63 -2.28,1.38 -2.41,1.08 -2.55,0.79 -2.60,0.47 -2.66,0.16 -2.64,-0.16 -2.62,-0.48 -2.53,-0.78 -2.43,-1.09 -2.26,-1.37 -2.10,-1.64 -1.87,-1.87 -1.64,-2.10 -1.37,-2.27 -1.09,-2.43 -0.78,-2.53 -0.48,-2.62 -0.15,-2.64 0.16,-2.66 0.47,-2.60 0.79,-2.55 1.08,-2.41 1.38,-2.28 1.63,-2.08 1.88,-1.88 1.88,-1.88 L 1.88,-1.88 Z"></path></g><g transform="translate(458.99993896484375 101.99996948242188) rotate(0 0.5 4.5)" stroke="none"><path fill="#1e1e1e" d="M 2.43,0 Q 2.43,0 2.44,1.42 2.44,2.85 2.98,5.62 3.51,8.39 3.48,8.80 3.45,9.22 3.28,9.60 3.12,9.98 2.85,10.29 2.57,10.60 2.21,10.80 1.85,11.00 1.44,11.08 1.04,11.16 0.63,11.11 0.22,11.05 -0.15,10.87 -0.52,10.68 -0.81,10.39 -1.10,10.10 -1.29,9.73 -1.47,9.36 -1.53,8.95 -1.59,8.54 -1.51,8.13 -1.43,7.72 -1.23,7.36 -1.03,7.00 -0.72,6.73 -0.41,6.45 -0.03,6.28 0.34,6.12 0.75,6.09 1.17,6.05 1.57,6.15 1.97,6.25 2.32,6.47 2.67,6.69 2.93,7.02 3.19,7.34 3.33,7.73 3.48,8.12 3.49,8.53 3.50,8.94 3.38,9.34 3.26,9.74 3.02,10.07 2.78,10.41 2.44,10.65 2.10,10.89 1.71,11.02 1.31,11.14 0.90,11.13 0.48,11.12 0.09,10.98 -0.28,10.83 -0.61,10.57 -0.93,10.32 -1.15,9.97 -1.38,9.62 -1.48,9.22 -1.58,8.81 -1.58,8.81 -1.58,8.82 -1.71,7.32 -1.85,5.83 -2.14,4.36 -2.44,2.89 -2.44,1.44 -2.43,0 -2.40,-0.29 -2.36,-0.58 -2.26,-0.85 -2.15,-1.13 -1.99,-1.37 -1.82,-1.61 -1.60,-1.81 -1.38,-2.00 -1.12,-2.14 -0.86,-2.28 -0.57,-2.35 -0.29,-2.42 0.00,-2.42 0.29,-2.42 0.57,-2.35 0.86,-2.28 1.12,-2.14 1.38,-2.00 1.60,-1.81 1.82,-1.61 1.99,-1.37 2.15,-1.13 2.26,-0.85 2.36,-0.58 2.40,-0.29 2.43,0.00 2.43,0.00 L 2.43,0 Z"></path></g><g transform="translate(450.99993896484375 78.99996948242188) rotate(0 -1 -2.5)" stroke="none"><path fill="#1e1e1e" d="M -2.15,0.86 Q -2.15,0.86 -2.34,-2.46 -2.52,-5.79 -2.18,-5.97 -1.84,-6.14 -1.47,-6.20 -1.09,-6.26 -0.72,-6.20 -0.34,-6.13 -0.01,-5.95 0.32,-5.77 0.58,-5.49 0.84,-5.21 0.99,-4.87 1.15,-4.52 1.19,-4.14 1.23,-3.76 1.14,-3.39 1.06,-3.02 0.86,-2.70 0.66,-2.37 0.37,-2.13 0.08,-1.88 -0.27,-1.75 -0.62,-1.61 -1.00,-1.59 -1.38,-1.57 -1.75,-1.68 -2.11,-1.78 -2.43,-2.00 -2.74,-2.21 -2.97,-2.52 -3.20,-2.82 -3.32,-3.18 -3.43,-3.55 -3.43,-3.93 -3.43,-4.31 -3.30,-4.67 -3.18,-5.03 -2.95,-5.33 -2.71,-5.63 -2.40,-5.84 -2.08,-6.05 -1.71,-6.15 -1.35,-6.25 -0.97,-6.22 -0.59,-6.20 -0.23,-6.06 0.11,-5.91 0.40,-5.67 0.68,-5.42 0.88,-5.09 1.07,-4.76 1.15,-4.39 1.23,-4.02 1.18,-3.64 1.14,-3.26 0.98,-2.92 0.82,-2.57 0.55,-2.30 0.29,-2.03 0.29,-2.03 0.29,-2.03 1.22,-1.44 2.15,-0.86 2.22,-0.59 2.30,-0.32 2.30,-0.04 2.31,0.23 2.24,0.51 2.18,0.78 2.06,1.03 1.93,1.28 1.75,1.49 1.57,1.71 1.34,1.87 1.11,2.03 0.85,2.14 0.59,2.24 0.31,2.28 0.04,2.32 -0.23,2.29 -0.51,2.26 -0.77,2.17 -1.04,2.07 -1.27,1.92 -1.50,1.76 -1.69,1.56 -1.88,1.35 -2.02,1.10 -2.15,0.86 -2.15,0.86 L -2.15,0.86 Z"></path></g><g transform="translate(483.99993896484375 94.99996948242188) rotate(0 -7 13.5)" stroke="none"><path fill="#1e1e1e" d="M 0,2.56 Q 0,2.56 -1.72,2.50 -3.44,2.44 -4.74,2.46 -6.04,2.47 -8.07,2.93 -10.10,3.39 -9.37,4.59 -8.64,5.80 -6.94,7.65 -5.25,9.51 -3.33,11.52 -1.41,13.53 -0.68,14.34 0.04,15.14 0.62,16.85 1.19,18.56 1.14,20.95 1.09,23.34 -0.50,25.47 -2.09,27.60 -4.41,28.57 -6.73,29.54 -8.97,29.36 -11.21,29.17 -12.19,28.71 -13.17,28.24 -14.59,25.47 -16.01,22.70 -15.99,22.21 -15.98,21.71 -15.80,21.24 -15.63,20.77 -15.31,20.39 -15.00,20.00 -14.58,19.73 -14.16,19.47 -13.67,19.35 -13.19,19.23 -12.69,19.28 -12.20,19.32 -11.74,19.52 -11.28,19.72 -10.91,20.05 -10.54,20.39 -10.30,20.82 -10.06,21.26 -9.97,21.75 -9.88,22.24 -9.95,22.73 -10.02,23.22 -10.24,23.67 -10.46,24.11 -10.82,24.46 -11.17,24.81 -11.62,25.03 -12.07,25.25 -12.56,25.32 -13.06,25.38 -13.54,25.28 -14.03,25.19 -14.46,24.94 -14.90,24.69 -15.23,24.32 -15.56,23.95 -15.75,23.49 -15.95,23.03 -15.98,22.53 -16.02,22.04 -15.90,21.55 -15.78,21.07 -15.51,20.65 -15.23,20.23 -14.84,19.92 -14.45,19.61 -13.99,19.45 -13.52,19.28 -13.02,19.27 -12.52,19.26 -12.05,19.40 -11.57,19.55 -11.17,19.85 -10.76,20.14 -10.48,20.55 -10.19,20.95 -10.04,21.43 -9.90,21.91 -9.90,21.91 -9.90,21.90 -9.47,22.91 -9.03,23.92 -7.86,23.87 -6.69,23.83 -5.48,23.35 -4.26,22.87 -4.17,21.38 -4.08,19.88 -4.80,18.40 -5.51,16.92 -6.35,15.94 -7.18,14.96 -8.36,13.96 -9.54,12.97 -10.36,11.99 -11.17,11.01 -12.30,9.94 -13.43,8.88 -14.23,7.63 -15.03,6.38 -15.44,5.23 -15.85,4.09 -15.54,2.63 -15.24,1.18 -14.14,0.12 -13.04,-0.93 -10.99,-1.41 -8.95,-1.88 -7.51,-2.18 -6.08,-2.47 -4.76,-2.46 -3.44,-2.44 -1.72,-2.50 0,-2.56 0.30,-2.52 0.61,-2.48 0.90,-2.37 1.19,-2.26 1.44,-2.09 1.69,-1.91 1.90,-1.68 2.10,-1.45 2.25,-1.18 2.39,-0.90 2.46,-0.60 2.54,-0.30 2.54,0.00 2.54,0.30 2.46,0.60 2.39,0.90 2.25,1.18 2.10,1.45 1.90,1.68 1.69,1.91 1.44,2.09 1.19,2.26 0.90,2.37 0.61,2.48 0.30,2.52 -0.00,2.56 -0.00,2.56 L 0,2.56 Z"></path></g><g transform="translate(502.99993896484375 98.99996948242188) rotate(0 -1.5 9.5)" stroke="none"><path fill="#1e1e1e" d="M 1.08,2.17 Q 1.08,2.17 -0.02,2.75 -1.14,3.33 -2.04,4.48 -2.94,5.63 -3.37,6.96 -3.81,8.29 -3.43,9.42 -3.05,10.55 -1.28,12.36 0.48,14.17 2.41,15.18 4.34,16.19 4.67,16.46 5.00,16.72 5.23,17.08 5.45,17.44 5.55,17.85 5.65,18.26 5.62,18.68 5.58,19.10 5.41,19.48 5.24,19.87 4.96,20.18 4.68,20.50 4.31,20.70 3.94,20.91 3.53,20.99 3.11,21.06 2.70,21.01 2.28,20.95 1.90,20.76 1.53,20.57 1.23,20.27 0.93,19.97 0.75,19.59 0.56,19.21 0.50,18.80 0.45,18.38 0.53,17.96 0.61,17.55 0.82,17.18 1.03,16.82 1.34,16.54 1.66,16.26 2.05,16.09 2.43,15.93 2.85,15.89 3.27,15.86 3.68,15.96 4.09,16.07 4.45,16.30 4.80,16.52 5.06,16.85 5.33,17.18 5.47,17.58 5.62,17.98 5.62,18.40 5.63,18.82 5.51,19.22 5.38,19.63 5.14,19.97 4.89,20.31 4.55,20.55 4.20,20.80 3.80,20.92 3.40,21.04 2.97,21.03 2.55,21.02 2.16,20.87 1.76,20.72 1.76,20.72 1.76,20.72 -0.56,19.30 -2.90,17.87 -5.48,15.67 -8.06,13.46 -8.56,12.40 -9.07,11.34 -8.99,8.85 -8.91,6.36 -8.41,5.08 -7.90,3.80 -7.32,2.90 -6.74,2.00 -5.96,1.23 -5.17,0.46 -4.31,-0.28 -3.45,-1.03 -2.27,-1.60 -1.08,-2.17 -0.81,-2.27 -0.53,-2.37 -0.24,-2.40 0.04,-2.43 0.33,-2.39 0.62,-2.35 0.90,-2.24 1.17,-2.13 1.41,-1.96 1.65,-1.79 1.84,-1.56 2.03,-1.34 2.16,-1.08 2.29,-0.81 2.35,-0.53 2.42,-0.24 2.41,0.04 2.41,0.34 2.33,0.62 2.26,0.90 2.11,1.16 1.97,1.42 1.77,1.63 1.57,1.85 1.33,2.01 1.08,2.17 1.08,2.17 L 1.08,2.17 Z"></path></g><g transform="translate(515.9999389648438 71.99996948242188) rotate(0 16.5 23)" stroke="none"><path fill="#1e1e1e" d="M 1.88,0 Q 1.88,0 1.90,1.72 1.91,3.44 1.98,4.75 2.04,6.06 2.22,8.23 2.41,10.39 2.74,12.77 3.07,15.15 3.55,16.64 4.04,18.14 4.47,20.62 4.91,23.11 5.43,24.61 5.95,26.12 6.41,28.61 6.86,31.11 7.39,32.61 7.92,34.12 8.47,35.28 9.02,36.44 9.78,37.70 10.54,38.97 11.22,40.11 11.89,41.26 13.03,42.23 14.16,43.19 15.51,42.57 16.87,41.94 17.89,40.99 18.92,40.04 20.53,38.75 22.14,37.46 23.20,36.39 24.26,35.32 26.59,34.93 28.93,34.55 29.92,35.04 30.92,35.53 31.83,36.89 32.73,38.25 33.46,39.77 34.20,41.28 34.83,42.60 35.46,43.91 35.66,44.39 35.87,44.86 35.91,45.38 35.95,45.89 35.83,46.39 35.70,46.90 35.42,47.33 35.15,47.77 34.74,48.09 34.34,48.42 33.86,48.60 33.37,48.77 32.85,48.79 32.34,48.80 31.84,48.65 31.35,48.50 30.93,48.20 30.51,47.90 30.20,47.48 29.90,47.06 29.75,46.56 29.60,46.07 29.61,45.55 29.62,45.04 29.80,44.55 29.98,44.06 30.30,43.66 30.63,43.26 31.06,42.98 31.50,42.70 32.00,42.57 32.50,42.45 33.02,42.49 33.53,42.53 34.01,42.74 34.48,42.94 34.87,43.29 35.25,43.63 35.51,44.08 35.76,44.53 35.86,45.04 35.96,45.55 35.89,46.06 35.82,46.57 35.59,47.03 35.36,47.50 35.00,47.86 34.63,48.23 34.17,48.46 33.71,48.69 33.19,48.76 32.68,48.83 32.17,48.73 31.66,48.64 31.21,48.38 30.76,48.13 30.42,47.74 30.07,47.36 30.07,47.36 30.07,47.36 29.28,45.70 28.50,44.04 27.65,42.25 26.80,40.47 26.07,41.30 25.33,42.14 23.94,43.15 22.56,44.17 21.53,45.03 20.50,45.90 19.55,46.41 18.61,46.92 16.71,47.20 14.81,47.49 13.37,47.22 11.92,46.96 11.08,46.21 10.24,45.45 9.25,44.37 8.26,43.28 7.69,42.09 7.12,40.90 6.31,39.37 5.49,37.85 5.05,36.50 4.60,35.15 4.13,33.46 3.66,31.77 3.12,29.46 2.58,27.15 2.12,25.46 1.65,23.77 1.12,21.45 0.59,19.13 0.15,17.43 -0.28,15.72 -0.77,13.29 -1.26,10.85 -1.65,8.46 -2.04,6.06 -1.98,4.75 -1.91,3.44 -1.90,1.72 -1.88,0 -1.85,-0.22 -1.83,-0.45 -1.75,-0.66 -1.67,-0.87 -1.54,-1.06 -1.41,-1.25 -1.24,-1.40 -1.07,-1.55 -0.87,-1.65 -0.66,-1.76 -0.44,-1.81 -0.22,-1.87 0.00,-1.87 0.22,-1.87 0.44,-1.81 0.66,-1.76 0.87,-1.65 1.07,-1.55 1.24,-1.40 1.41,-1.25 1.54,-1.06 1.67,-0.87 1.75,-0.66 1.83,-0.45 1.85,-0.22 1.88,0.00 1.88,0.00 L 1.88,0 Z"></path></g><g transform="translate(559.0001831054688 114.99996948242188) rotate(0 5.9998779296875 -3.5)" stroke="none"><path fill="#1e1e1e" d="M -1.10,-2.20 Q -1.10,-2.20 0.04,-2.79 1.18,-3.38 2.23,-3.94 3.29,-4.49 4.68,-5.33 6.08,-6.16 8.39,-8.03 10.69,-9.90 10.53,-10.97 10.37,-12.04 9.05,-12.41 7.72,-12.78 6.41,-12.65 5.10,-12.52 3.86,-11.86 2.61,-11.19 1.54,-9.78 0.47,-8.37 0.83,-6.14 1.20,-3.92 2.36,-2.25 3.52,-0.59 4.33,0.63 5.14,1.85 6.07,2.68 6.99,3.50 7.81,4.23 8.62,4.95 10.13,5.48 11.64,6.02 13.27,5.30 14.89,4.58 15.20,4.72 15.50,4.85 15.76,5.06 16.02,5.27 16.22,5.53 16.42,5.79 16.56,6.10 16.69,6.40 16.75,6.73 16.81,7.06 16.79,7.39 16.76,7.72 16.66,8.04 16.56,8.35 16.39,8.64 16.21,8.92 15.98,9.15 15.74,9.39 15.45,9.56 15.17,9.73 14.85,9.82 14.53,9.92 14.20,9.94 13.87,9.95 13.54,9.89 13.21,9.83 12.26,8.45 11.30,7.08 11.39,6.64 11.48,6.21 11.71,5.82 11.94,5.44 12.27,5.15 12.61,4.85 13.02,4.68 13.44,4.52 13.88,4.49 14.33,4.46 14.76,4.57 15.19,4.69 15.56,4.94 15.93,5.18 16.21,5.54 16.48,5.89 16.63,6.31 16.77,6.73 16.78,7.18 16.78,7.62 16.64,8.05 16.50,8.47 16.24,8.83 15.97,9.19 15.60,9.44 15.23,9.70 14.81,9.82 14.38,9.94 13.93,9.92 13.49,9.90 13.07,9.74 12.65,9.58 12.31,9.29 11.97,9.01 11.74,8.63 11.50,8.25 11.40,7.81 11.30,7.38 11.35,6.93 11.39,6.49 11.57,6.08 11.76,5.68 12.06,5.35 12.37,5.02 12.76,4.81 13.15,4.60 13.59,4.52 14.03,4.45 14.47,4.51 14.91,4.58 15.31,4.79 15.70,4.99 16.01,5.31 16.32,5.64 16.51,6.04 16.70,6.44 15.80,5.51 14.89,4.58 15.20,4.72 15.50,4.85 15.76,5.06 16.02,5.27 16.22,5.53 16.42,5.79 16.56,6.10 16.69,6.40 16.75,6.73 16.81,7.06 16.79,7.39 16.76,7.72 16.66,8.04 16.56,8.35 16.39,8.64 16.21,8.92 15.98,9.15 15.74,9.39 15.45,9.56 15.17,9.73 14.85,9.82 14.53,9.92 14.20,9.94 13.87,9.95 13.54,9.89 13.21,9.83 10.63,10.16 8.04,10.48 5.78,8.94 3.53,7.39 2.10,6.12 0.68,4.85 0.02,3.85 -0.62,2.85 -1.92,1.34 -3.21,-0.16 -3.73,-1.39 -4.26,-2.62 -4.70,-4.21 -5.14,-5.81 -5.24,-7.37 -5.34,-8.94 -4.93,-10.04 -4.52,-11.13 -3.58,-12.71 -2.65,-14.28 -1.57,-15.20 -0.49,-16.13 0.48,-16.69 1.46,-17.24 2.68,-17.68 3.90,-18.11 5.41,-18.33 6.91,-18.55 8.23,-18.31 9.55,-18.07 11.61,-17.21 13.67,-16.34 14.69,-15.33 15.72,-14.32 16.10,-13.13 16.49,-11.94 16.24,-10.59 16.00,-9.24 15.11,-7.93 14.21,-6.63 11.75,-4.24 9.28,-1.85 7.42,-0.89 5.56,0.07 4.49,0.57 3.41,1.08 2.25,1.64 1.10,2.20 0.82,2.30 0.54,2.40 0.24,2.43 -0.04,2.46 -0.34,2.41 -0.63,2.37 -0.91,2.26 -1.18,2.15 -1.42,1.98 -1.66,1.80 -1.86,1.58 -2.05,1.35 -2.18,1.09 -2.31,0.82 -2.38,0.53 -2.44,0.24 -2.44,-0.04 -2.43,-0.34 -2.36,-0.63 -2.28,-0.91 -2.14,-1.17 -1.99,-1.43 -1.79,-1.65 -1.59,-1.87 -1.34,-2.03 -1.10,-2.20 -1.10,-2.20 L -1.10,-2.20 Z"></path></g><g transform="translate(312.99993896484375 177.99996948242188) rotate(0 14 11.5)" stroke="none"><path fill="#1e1e1e" d="M 2.32,1.16 Q 2.32,1.16 1.75,2.31 1.19,3.46 0.69,4.70 0.19,5.94 0.00,7.66 -0.18,9.39 0.04,11.08 0.27,12.76 0.72,14.21 1.17,15.65 2.34,15.88 3.51,16.11 4.21,14.94 4.90,13.78 5.44,12.75 5.99,11.72 7.40,11.04 8.81,10.35 10.19,10.52 11.57,10.68 13.32,12.11 15.07,13.53 16.54,15.01 18.01,16.49 19.36,17.43 20.70,18.36 21.63,18.98 22.56,19.60 23.72,19.66 24.89,19.73 26.28,18.39 27.68,17.06 27.74,15.45 27.79,13.84 27.42,12.65 27.05,11.46 26.75,9.91 26.45,8.36 26.14,4.58 25.82,0.81 25.99,0.32 26.15,-0.15 26.46,-0.55 26.77,-0.96 27.20,-1.25 27.62,-1.53 28.12,-1.67 28.61,-1.80 29.12,-1.77 29.63,-1.74 30.10,-1.55 30.58,-1.36 30.97,-1.03 31.35,-0.69 31.62,-0.25 31.88,0.17 31.99,0.67 32.09,1.17 32.04,1.68 31.98,2.19 31.76,2.65 31.55,3.12 31.19,3.49 30.84,3.85 30.39,4.09 29.93,4.33 29.43,4.41 28.93,4.49 28.42,4.41 27.92,4.32 27.47,4.08 27.02,3.84 26.67,3.47 26.32,3.09 26.10,2.63 25.89,2.16 25.84,1.66 25.78,1.15 25.90,0.65 26.01,0.15 26.27,-0.28 26.54,-0.71 26.93,-1.04 27.32,-1.37 27.80,-1.56 28.27,-1.75 28.78,-1.77 29.29,-1.80 29.79,-1.66 30.28,-1.52 30.70,-1.23 31.12,-0.94 31.43,-0.53 31.74,-0.13 31.90,0.35 32.06,0.83 32.06,1.35 32.05,1.86 32.05,1.86 32.05,1.86 31.77,3.03 31.49,4.20 31.97,5.30 32.44,6.40 32.83,7.73 33.21,9.06 33.28,10.22 33.35,11.39 33.65,12.75 33.95,14.11 33.89,15.66 33.83,17.21 32.96,19.48 32.09,21.75 31.46,22.75 30.82,23.75 29.83,24.53 28.84,25.31 26.55,25.64 24.27,25.98 23.09,25.85 21.91,25.71 19.92,24.84 17.93,23.97 15.72,22.51 13.50,21.05 12.05,19.67 10.61,18.30 10.66,17.09 10.70,15.88 9.89,17.20 9.09,18.51 8.35,19.43 7.62,20.34 5.58,21.29 3.54,22.24 1.97,22.32 0.40,22.40 -1.34,21.00 -3.08,19.61 -3.63,18.66 -4.17,17.72 -4.62,15.93 -5.07,14.15 -5.36,12.73 -5.65,11.30 -5.59,10.14 -5.53,8.97 -5.07,6.51 -4.61,4.05 -4.05,2.59 -3.49,1.13 -2.90,-0.01 -2.32,-1.16 -2.15,-1.42 -1.98,-1.68 -1.74,-1.89 -1.51,-2.11 -1.24,-2.26 -0.96,-2.41 -0.66,-2.49 -0.36,-2.57 -0.05,-2.58 0.26,-2.58 0.56,-2.51 0.87,-2.44 1.15,-2.30 1.43,-2.16 1.67,-1.96 1.91,-1.76 2.09,-1.50 2.27,-1.25 2.39,-0.96 2.51,-0.67 2.55,-0.36 2.60,-0.05 2.56,0.26 2.53,0.57 2.43,0.86 2.32,1.16 2.32,1.16 L 2.32,1.16 Z"></path></g><g transform="translate(361.99993896484375 198.99996948242188) rotate(0 8.5 -2.5)" stroke="none"><path fill="#1e1e1e" d="M -0.61,-2.47 Q -0.61,-2.47 0.51,-2.78 1.65,-3.08 2.54,-3.80 3.44,-4.52 4.36,-5.08 5.28,-5.64 6.34,-7.62 7.40,-9.61 6.35,-9.35 5.29,-9.09 4.21,-7.93 3.14,-6.77 3.18,-5.42 3.22,-4.07 3.92,-2.18 4.62,-0.30 5.33,0.61 6.03,1.52 7.20,2.76 8.36,4.00 9.73,4.38 11.11,4.75 12.81,3.36 14.51,1.96 14.94,1.69 15.37,1.41 15.87,1.28 16.37,1.15 16.88,1.19 17.39,1.23 17.86,1.43 18.34,1.63 18.72,1.97 19.10,2.32 19.36,2.76 19.61,3.21 19.71,3.71 19.81,4.21 19.75,4.72 19.68,5.23 19.45,5.69 19.23,6.15 18.87,6.52 18.51,6.88 18.05,7.11 17.59,7.34 17.08,7.42 16.57,7.49 16.07,7.39 15.56,7.30 15.11,7.05 14.66,6.80 14.32,6.42 13.98,6.04 13.77,5.57 13.57,5.10 13.52,4.58 13.48,4.07 13.60,3.57 13.72,3.08 13.99,2.64 14.27,2.21 14.67,1.88 15.07,1.56 15.55,1.38 16.03,1.20 16.54,1.19 17.05,1.17 17.55,1.32 18.04,1.47 18.46,1.76 18.87,2.06 19.18,2.48 19.48,2.89 19.63,3.38 19.78,3.87 19.77,4.39 19.76,4.90 19.59,5.38 19.41,5.86 19.09,6.27 18.77,6.67 18.77,6.67 18.77,6.67 17.12,8.06 15.46,9.44 12.92,10.19 10.39,10.94 8.25,10.34 6.11,9.74 5.03,8.97 3.95,8.21 2.67,6.76 1.38,5.32 0.35,4.10 -0.67,2.89 -1.51,1.54 -2.35,0.19 -2.72,-2.11 -3.08,-4.43 -2.82,-6.30 -2.55,-8.17 -1.19,-10.26 0.17,-12.35 1.22,-13.24 2.28,-14.12 3.95,-14.63 5.63,-15.13 7.70,-14.74 9.78,-14.35 10.67,-13.72 11.56,-13.08 12.09,-11.90 12.61,-10.72 12.47,-9.11 12.34,-7.51 11.07,-5.05 9.79,-2.59 9.02,-1.75 8.24,-0.92 6.67,0.02 5.10,0.97 4.02,1.45 2.94,1.93 1.78,2.20 0.61,2.47 0.31,2.51 0.00,2.55 -0.29,2.51 -0.60,2.48 -0.89,2.37 -1.17,2.26 -1.43,2.09 -1.68,1.91 -1.89,1.68 -2.09,1.45 -2.24,1.18 -2.38,0.91 -2.45,0.61 -2.53,0.31 -2.53,0.00 -2.53,-0.29 -2.46,-0.59 -2.39,-0.89 -2.24,-1.17 -2.10,-1.44 -1.90,-1.67 -1.69,-1.90 -1.44,-2.08 -1.19,-2.25 -0.90,-2.36 -0.61,-2.47 -0.61,-2.47 L -0.61,-2.47 Z"></path></g><g transform="translate(384.99993896484375 168.99996948242188) rotate(0 6 16)" stroke="none"><path fill="#1e1e1e" d="M 2.18,-0.36 Q 2.18,-0.36 2.44,1.36 2.70,3.09 3.04,4.93 3.38,6.78 3.62,8.23 3.85,9.68 4.41,11.20 4.96,12.71 5.54,13.96 6.12,15.21 6.88,16.90 7.63,18.59 8.26,19.48 8.90,20.36 9.55,22.15 10.20,23.94 11.07,25.59 11.95,27.23 13.04,28.99 14.13,30.75 14.22,31.13 14.32,31.52 14.28,31.91 14.25,32.31 14.10,32.67 13.94,33.04 13.67,33.33 13.41,33.62 13.06,33.82 12.72,34.01 12.33,34.09 11.94,34.16 11.55,34.11 11.16,34.06 10.80,33.88 10.45,33.70 10.17,33.42 9.89,33.14 9.71,32.79 9.53,32.43 9.48,32.04 9.43,31.65 9.50,31.26 9.58,30.87 9.77,30.53 9.97,30.18 10.26,29.92 10.56,29.65 10.92,29.49 11.28,29.34 11.68,29.31 12.07,29.27 12.46,29.37 12.84,29.47 13.18,29.68 13.51,29.89 13.76,30.20 14.01,30.51 14.14,30.88 14.28,31.25 14.29,31.65 14.30,32.05 14.19,32.43 14.07,32.80 13.84,33.13 13.61,33.45 13.28,33.68 12.96,33.91 12.58,34.03 12.20,34.14 11.81,34.13 11.41,34.12 11.04,33.98 10.67,33.85 10.36,33.60 10.05,33.35 9.84,33.02 9.62,32.68 9.62,32.68 9.62,32.68 8.42,30.17 7.22,27.66 6.68,26.52 6.15,25.38 5.68,24.01 5.22,22.64 4.59,21.49 3.95,20.35 3.08,18.62 2.20,16.90 1.66,15.52 1.11,14.15 0.37,12.20 -0.37,10.24 -0.48,8.94 -0.59,7.64 -1.07,5.72 -1.55,3.80 -1.87,2.08 -2.18,0.36 -2.19,0.09 -2.21,-0.16 -2.15,-0.43 -2.10,-0.69 -1.99,-0.93 -1.87,-1.17 -1.71,-1.38 -1.54,-1.59 -1.32,-1.75 -1.11,-1.91 -0.87,-2.02 -0.62,-2.12 -0.36,-2.17 -0.09,-2.21 0.16,-2.19 0.43,-2.17 0.68,-2.09 0.94,-2.00 1.16,-1.86 1.39,-1.72 1.58,-1.53 1.76,-1.33 1.90,-1.10 2.03,-0.87 2.11,-0.62 2.18,-0.36 2.18,-0.36 L 2.18,-0.36 Z"></path></g><g transform="translate(400.99993896484375 165.99996948242188) rotate(0 4.5 14.5)" stroke="none"><path fill="#1e1e1e" d="M 2.01,-0.33 Q 2.01,-0.33 2.29,1.39 2.57,3.11 2.75,4.49 2.94,5.86 3.17,8.10 3.39,10.34 3.99,12.32 4.60,14.30 4.99,15.87 5.38,17.43 5.82,18.84 6.26,20.25 8.13,23.36 10.00,26.48 10.12,26.80 10.24,27.12 10.24,27.46 10.25,27.80 10.15,28.13 10.05,28.46 9.85,28.73 9.65,29.01 9.37,29.21 9.10,29.41 8.77,29.51 8.44,29.61 8.10,29.60 7.76,29.59 7.44,29.47 7.12,29.35 6.85,29.13 6.59,28.92 6.40,28.63 6.22,28.34 6.14,28.01 6.06,27.68 6.08,27.34 6.11,27.00 6.25,26.69 6.38,26.37 6.61,26.12 6.84,25.87 7.14,25.70 7.44,25.53 7.77,25.47 8.11,25.40 8.45,25.45 8.78,25.50 9.09,25.65 9.40,25.80 9.64,26.04 9.88,26.29 10.03,26.59 10.18,26.90 10.23,27.24 10.27,27.58 10.21,27.91 10.14,28.25 9.97,28.54 9.80,28.84 9.55,29.07 9.29,29.29 8.98,29.43 8.67,29.56 8.33,29.59 7.99,29.62 7.65,29.53 7.32,29.45 7.04,29.27 6.75,29.08 6.53,28.82 6.32,28.55 6.32,28.55 6.32,28.55 4.41,24.94 2.49,21.33 2.10,19.76 1.70,18.19 1.49,16.81 1.27,15.42 0.43,13.17 -0.39,10.91 -0.85,8.59 -1.30,6.26 -1.36,5.02 -1.42,3.78 -1.71,2.05 -2.01,0.33 -2.02,0.08 -2.03,-0.15 -1.98,-0.39 -1.93,-0.63 -1.83,-0.86 -1.73,-1.08 -1.57,-1.27 -1.42,-1.46 -1.22,-1.61 -1.02,-1.76 -0.80,-1.86 -0.57,-1.95 -0.33,-2.00 -0.09,-2.04 0.15,-2.02 0.40,-2.00 0.63,-1.92 0.86,-1.84 1.07,-1.71 1.28,-1.58 1.45,-1.41 1.62,-1.23 1.75,-1.02 1.87,-0.80 1.94,-0.57 2.01,-0.33 2.01,-0.33 L 2.01,-0.33 Z"></path></g><g transform="translate(425.99993896484375 192.99996948242188) rotate(0 8.5 -2.5)" stroke="none"><path fill="#1e1e1e" d="M -1.18,-2.36 Q -1.18,-2.36 -0.03,-2.94 1.11,-3.51 2.14,-4.04 3.17,-4.56 4.01,-5.66 4.86,-6.76 6.49,-8.14 8.11,-9.52 8.47,-10.72 8.83,-11.92 9.32,-10.86 9.82,-9.80 8.89,-9.04 7.97,-8.27 7.19,-7.02 6.40,-5.76 5.90,-4.28 5.39,-2.81 5.85,-0.81 6.32,1.17 7.21,1.91 8.10,2.64 9.28,3.60 10.47,4.55 11.86,4.64 13.25,4.73 14.59,4.32 15.94,3.92 16.46,3.88 16.99,3.85 17.49,3.98 18.00,4.12 18.43,4.41 18.87,4.69 19.19,5.11 19.51,5.52 19.69,6.01 19.86,6.51 19.87,7.03 19.87,7.56 19.71,8.05 19.55,8.55 19.24,8.97 18.93,9.39 18.50,9.69 18.07,9.99 17.56,10.14 17.06,10.28 16.54,10.26 16.02,10.24 15.53,10.05 15.04,9.86 14.64,9.53 14.23,9.19 13.96,8.75 13.68,8.30 13.56,7.79 13.45,7.28 13.50,6.76 13.55,6.24 13.76,5.76 13.98,5.29 14.33,4.90 14.69,4.52 15.15,4.27 15.61,4.02 16.12,3.93 16.64,3.83 17.15,3.91 17.67,3.99 18.14,4.23 18.60,4.47 18.97,4.85 19.33,5.22 19.56,5.70 19.78,6.17 19.84,6.69 19.91,7.21 19.80,7.72 19.69,8.23 19.43,8.68 19.16,9.14 18.77,9.48 18.37,9.82 17.89,10.02 17.41,10.22 17.41,10.22 17.41,10.22 14.39,10.61 11.37,11.01 9.21,10.41 7.05,9.81 5.33,8.42 3.62,7.03 2.81,6.22 2.00,5.41 1.25,4.40 0.50,3.38 0.06,2.21 -0.38,1.04 -0.70,-0.26 -1.03,-1.58 -0.94,-2.79 -0.85,-4.00 -0.13,-6.20 0.57,-8.41 1.08,-9.43 1.59,-10.45 2.55,-11.76 3.50,-13.08 4.80,-14.15 6.11,-15.22 7.34,-15.67 8.57,-16.12 9.96,-16.00 11.34,-15.89 12.33,-15.45 13.31,-15.01 13.91,-13.95 14.50,-12.90 14.56,-11.56 14.61,-10.21 13.75,-8.39 12.90,-6.57 11.50,-5.32 10.10,-4.07 8.75,-2.74 7.40,-1.41 6.54,-0.64 5.68,0.13 4.58,0.67 3.48,1.21 2.33,1.79 1.18,2.36 0.88,2.46 0.58,2.57 0.26,2.60 -0.05,2.64 -0.36,2.59 -0.68,2.55 -0.97,2.43 -1.27,2.31 -1.53,2.12 -1.78,1.94 -1.99,1.69 -2.20,1.45 -2.34,1.17 -2.48,0.88 -2.55,0.57 -2.62,0.26 -2.62,-0.05 -2.61,-0.36 -2.53,-0.67 -2.45,-0.98 -2.29,-1.26 -2.14,-1.54 -1.92,-1.77 -1.71,-2.01 -1.44,-2.18 -1.18,-2.36 -1.18,-2.36 L -1.18,-2.36 Z"></path></g><g transform="translate(451.99993896484375 194.99996948242188) rotate(0 8 -5)" stroke="none"><path fill="#1e1e1e" d="M -2.27,-1.13 Q -2.27,-1.13 -1.71,-2.29 -1.15,-3.44 -0.97,-4.55 -0.79,-5.66 0.02,-7.04 0.84,-8.41 2.30,-10.32 3.76,-12.22 6.06,-12.43 8.35,-12.63 9.58,-12.30 10.81,-11.97 11.74,-11.43 12.67,-10.89 13.58,-9.83 14.49,-8.76 15.29,-7.11 16.09,-5.47 16.92,-3.37 17.74,-1.27 17.86,-0.93 17.98,-0.59 18.01,-0.23 18.04,0.11 17.99,0.47 17.93,0.82 17.80,1.15 17.66,1.48 17.45,1.77 17.24,2.06 16.96,2.28 16.69,2.51 16.37,2.67 16.04,2.83 15.69,2.90 15.34,2.98 14.99,2.96 14.63,2.95 14.29,2.86 13.94,2.76 13.63,2.59 13.32,2.41 13.06,2.16 12.80,1.92 12.60,1.62 12.41,1.32 12.86,1.86 13.31,2.41 12.98,2.06 12.64,1.72 12.44,1.29 12.23,0.85 12.17,0.38 12.11,-0.09 12.21,-0.56 12.31,-1.03 12.55,-1.44 12.79,-1.86 13.15,-2.17 13.51,-2.49 13.96,-2.67 14.40,-2.86 14.88,-2.89 15.36,-2.92 15.82,-2.80 16.29,-2.68 16.69,-2.41 17.09,-2.15 17.38,-1.77 17.68,-1.39 17.84,-0.94 18.00,-0.49 18.00,-0.01 18.01,0.46 17.86,0.92 17.72,1.38 17.43,1.76 17.14,2.15 16.75,2.42 16.36,2.70 15.90,2.83 15.44,2.97 14.96,2.95 14.48,2.93 14.03,2.75 13.58,2.58 13.21,2.28 12.84,1.97 12.59,1.56 12.34,1.16 12.23,0.69 12.12,0.22 12.16,-0.25 12.21,-0.72 12.40,-1.16 12.60,-1.60 12.93,-1.95 13.25,-2.31 13.67,-2.54 14.09,-2.77 14.57,-2.85 15.04,-2.93 15.51,-2.86 15.99,-2.79 16.87,-2.03 17.74,-1.27 17.86,-0.93 17.98,-0.59 18.01,-0.23 18.04,0.11 17.99,0.47 17.93,0.82 17.80,1.15 17.66,1.48 17.45,1.77 17.24,2.05 16.96,2.28 16.69,2.51 16.37,2.67 16.04,2.83 15.69,2.90 15.34,2.98 14.99,2.96 14.63,2.95 14.29,2.86 13.94,2.76 13.63,2.59 13.32,2.41 13.06,2.16 12.80,1.92 12.60,1.62 12.41,1.32 12.04,0.11 11.67,-1.08 10.80,-2.96 9.94,-4.84 9.41,-5.86 8.89,-6.87 7.75,-7.04 6.60,-7.20 5.55,-5.85 4.49,-4.50 3.97,-2.83 3.45,-1.15 2.86,-0.00 2.27,1.13 2.10,1.39 1.93,1.64 1.71,1.85 1.48,2.06 1.21,2.21 0.94,2.36 0.65,2.44 0.35,2.52 0.04,2.52 -0.25,2.53 -0.55,2.46 -0.85,2.39 -1.13,2.25 -1.40,2.12 -1.63,1.92 -1.87,1.72 -2.05,1.47 -2.23,1.22 -2.34,0.94 -2.45,0.65 -2.50,0.35 -2.54,0.04 -2.51,-0.25 -2.48,-0.56 -2.37,-0.84 -2.27,-1.13 -2.27,-1.13 L -2.27,-1.13 Z"></path></g><g transform="translate(502.99993896484375 176.99996948242188) rotate(0 -9 9.5)" stroke="none"><path fill="#1e1e1e" d="M -2.06,0.58 Q -2.06,0.58 -2.53,-1.44 -3.01,-3.48 -3.75,-5.06 -4.48,-6.64 -5.17,-7.92 -5.85,-9.19 -6.87,-11.17 -7.89,-13.15 -8.90,-14.47 -9.91,-15.80 -11.14,-17.22 -12.38,-18.64 -13.22,-19.45 -14.06,-20.26 -15.32,-20.49 -16.59,-20.73 -16.47,-19.28 -16.35,-17.83 -15.61,-14.88 -14.87,-11.92 -14.14,-10.24 -13.42,-8.55 -12.75,-6.85 -12.08,-5.16 -10.78,-2.51 -9.48,0.14 -8.61,2.56 -7.74,4.98 -6.55,7.97 -5.36,10.96 -4.30,13.38 -3.25,15.79 -2.21,18.60 -1.17,21.41 -0.45,23.46 0.25,25.52 0.58,27.96 0.91,30.41 1.40,31.86 1.89,33.32 1.84,35.37 1.79,37.42 1.84,38.48 1.90,39.55 1.56,40.68 1.22,41.80 -0.33,42.89 -1.88,43.98 -3.22,43.80 -4.56,43.62 -5.52,43.12 -6.49,42.61 -8.08,40.41 -9.66,38.22 -9.83,37.83 -9.99,37.44 -10.03,37.02 -10.06,36.61 -9.96,36.20 -9.86,35.79 -9.63,35.43 -9.40,35.08 -9.07,34.82 -8.75,34.55 -8.35,34.41 -7.95,34.27 -7.53,34.26 -7.11,34.24 -6.71,34.37 -6.31,34.49 -5.97,34.74 -5.63,34.98 -5.38,35.33 -5.14,35.67 -5.01,36.07 -4.89,36.47 -4.90,36.89 -4.92,37.32 -5.06,37.71 -5.21,38.10 -5.47,38.43 -5.74,38.76 -6.09,38.99 -6.45,39.21 -6.85,39.31 -7.26,39.41 -7.68,39.38 -8.10,39.34 -8.49,39.18 -8.87,39.01 -9.19,38.73 -9.50,38.45 -9.71,38.08 -9.91,37.71 -9.99,37.30 -10.07,36.89 -10.01,36.47 -9.95,36.05 -9.77,35.68 -9.58,35.30 -9.28,35.00 -8.98,34.71 -8.61,34.52 -8.23,34.33 -7.81,34.28 -7.39,34.22 -6.98,34.30 -6.57,34.38 -6.20,34.59 -5.84,34.80 -5.56,35.11 -5.28,35.42 -5.28,35.42 -5.28,35.42 -3.80,37.72 -2.32,40.01 -1.89,38.62 -1.47,37.22 -1.30,35.65 -1.13,34.08 -1.48,32.43 -1.83,30.78 -2.12,28.62 -2.41,26.46 -3.16,24.45 -3.90,22.44 -4.96,19.74 -6.01,17.05 -7.15,14.62 -8.30,12.19 -9.60,9.20 -10.90,6.21 -11.82,4.03 -12.73,1.85 -14.29,-0.89 -15.85,-3.65 -16.48,-5.21 -17.12,-6.78 -18.12,-8.70 -19.12,-10.62 -19.98,-12.90 -20.84,-15.19 -21.07,-16.69 -21.30,-18.19 -20.44,-20.85 -19.59,-23.52 -18.30,-24.15 -17.02,-24.77 -15.79,-24.59 -14.56,-24.40 -13.00,-23.72 -11.43,-23.04 -10.58,-22.03 -9.73,-21.01 -8.35,-19.50 -6.96,-17.99 -5.85,-16.47 -4.75,-14.95 -3.51,-12.94 -2.26,-10.94 -1.67,-9.60 -1.08,-8.27 -0.18,-6.41 0.71,-4.56 1.38,-2.57 2.06,-0.58 2.10,-0.33 2.14,-0.07 2.12,0.17 2.09,0.43 2.01,0.68 1.93,0.92 1.79,1.14 1.65,1.36 1.46,1.54 1.28,1.71 1.05,1.84 0.83,1.97 0.58,2.04 0.33,2.11 0.07,2.12 -0.18,2.13 -0.43,2.08 -0.68,2.03 -0.91,1.92 -1.15,1.80 -1.35,1.64 -1.55,1.47 -1.70,1.27 -1.86,1.06 -1.96,0.82 -2.06,0.58 -2.06,0.58 L -2.06,0.58 Z"></path></g><g transform="translate(491.99993896484375 199.99996948242188) rotate(0 7.5 -6)" stroke="none"><path fill="#1e1e1e" d="M -2.30,-0.76 Q -2.30,-0.76 -1.66,-2.47 -1.02,-4.18 -0.46,-5.38 0.09,-6.59 0.58,-7.63 1.07,-8.67 2.10,-9.76 3.14,-10.84 4.38,-11.72 5.62,-12.59 8.08,-13.13 10.54,-13.67 12.20,-14.02 13.85,-14.36 14.26,-14.36 14.67,-14.37 15.06,-14.24 15.45,-14.12 15.77,-13.87 16.10,-13.63 16.34,-13.29 16.57,-12.96 16.68,-12.57 16.80,-12.17 16.78,-11.77 16.76,-11.36 16.62,-10.98 16.47,-10.60 16.21,-10.28 15.95,-9.97 15.60,-9.75 15.25,-9.54 14.86,-9.44 14.46,-9.35 14.05,-9.39 13.64,-9.43 13.27,-9.60 12.90,-9.76 12.60,-10.04 12.30,-10.32 12.10,-10.68 11.91,-11.04 11.84,-11.44 11.77,-11.84 11.83,-12.24 11.89,-12.65 12.08,-13.01 12.26,-13.37 12.56,-13.66 12.85,-13.94 13.22,-14.12 13.59,-14.30 13.99,-14.34 14.40,-14.39 14.80,-14.31 15.20,-14.23 15.55,-14.02 15.90,-13.81 16.17,-13.51 16.44,-13.20 16.59,-12.82 16.75,-12.44 16.78,-12.03 16.80,-11.63 16.70,-11.23 16.59,-10.84 16.37,-10.50 16.14,-10.16 15.82,-9.91 15.50,-9.65 15.11,-9.52 14.73,-9.38 14.73,-9.38 14.73,-9.38 13.19,-9.16 11.66,-8.94 10.19,-8.55 8.73,-8.16 7.07,-7.25 5.40,-6.34 4.36,-4.52 3.32,-2.71 2.81,-0.97 2.30,0.76 2.18,1.03 2.05,1.29 1.86,1.52 1.68,1.75 1.45,1.92 1.21,2.10 0.94,2.21 0.67,2.33 0.38,2.38 0.09,2.42 -0.19,2.40 -0.48,2.38 -0.76,2.28 -1.04,2.19 -1.28,2.03 -1.53,1.88 -1.73,1.67 -1.94,1.46 -2.08,1.20 -2.23,0.95 -2.31,0.67 -2.39,0.39 -2.41,0.09 -2.42,-0.19 -2.36,-0.48 -2.30,-0.76 -2.30,-0.76 L -2.30,-0.76 Z"></path></g><g transform="translate(525.9999389648438 192.99996948242188) rotate(0 3 -1)" stroke="none"><path fill="#1e1e1e" d="M 2.48,0.35 Q 2.48,0.35 2.07,2.34 1.66,4.34 1.87,5.94 2.09,7.54 2.03,7.83 1.96,8.12 1.83,8.38 1.69,8.65 1.50,8.87 1.31,9.10 1.06,9.27 0.82,9.44 0.55,9.55 0.27,9.66 -0.01,9.70 -0.31,9.74 -0.60,9.71 -0.90,9.68 -1.18,9.57 -1.46,9.47 -1.70,9.31 -1.95,9.14 -2.15,8.92 -2.35,8.70 -2.49,8.44 -2.63,8.18 -2.71,7.90 -2.78,7.61 -2.79,7.31 -2.79,7.02 -2.72,5.53 -2.64,4.05 -2.32,2.77 -2.00,1.49 -1.57,-0.13 -1.14,-1.76 -0.68,-3.31 -0.22,-4.86 0.32,-5.78 0.88,-6.70 2.46,-8.77 4.04,-10.85 4.30,-11.27 4.56,-11.69 4.95,-12.01 5.33,-12.32 5.79,-12.50 6.25,-12.67 6.75,-12.69 7.24,-12.71 7.72,-12.57 8.19,-12.43 8.59,-12.15 9.00,-11.86 9.29,-11.47 9.59,-11.07 9.74,-10.60 9.89,-10.12 9.88,-9.63 9.87,-9.14 9.71,-8.67 9.54,-8.20 9.23,-7.81 8.93,-7.43 8.52,-7.15 8.10,-6.88 7.62,-6.76 7.15,-6.63 6.65,-6.67 6.16,-6.70 5.70,-6.89 5.25,-7.08 4.87,-7.41 4.50,-7.74 4.25,-8.16 4.01,-8.59 3.91,-9.08 3.81,-9.56 3.87,-10.05 3.93,-10.54 4.15,-10.99 4.36,-11.43 4.71,-11.79 5.05,-12.14 5.49,-12.36 5.93,-12.59 6.42,-12.66 6.91,-12.73 7.40,-12.65 7.88,-12.56 8.32,-12.32 8.75,-12.08 9.09,-11.72 9.42,-11.35 9.62,-10.90 9.82,-10.45 9.87,-9.96 9.91,-9.46 9.80,-8.98 9.68,-8.50 9.68,-8.50 9.68,-8.50 7.75,-5.94 5.82,-3.37 5.22,-2.38 4.61,-1.40 4.08,0.05 3.55,1.50 3.09,2.84 2.62,4.17 2.36,5.86 2.09,7.54 2.03,7.83 1.96,8.12 1.83,8.38 1.69,8.65 1.50,8.87 1.31,9.10 1.06,9.27 0.82,9.44 0.55,9.55 0.27,9.66 -0.01,9.70 -0.31,9.74 -0.60,9.71 -0.90,9.68 -1.18,9.57 -1.46,9.47 -1.70,9.31 -1.95,9.14 -2.15,8.92 -2.35,8.70 -2.49,8.44 -2.63,8.18 -2.71,7.90 -2.78,7.61 -2.79,7.31 -2.79,7.02 -2.96,6.63 -3.12,6.25 -2.96,4.97 -2.81,3.70 -2.64,1.67 -2.48,-0.35 -2.41,-0.64 -2.33,-0.94 -2.18,-1.20 -2.03,-1.47 -1.83,-1.69 -1.62,-1.91 -1.37,-2.08 -1.12,-2.25 -0.83,-2.35 -0.55,-2.45 -0.24,-2.48 0.05,-2.51 0.35,-2.47 0.65,-2.42 0.93,-2.31 1.21,-2.20 1.46,-2.02 1.70,-1.84 1.90,-1.61 2.09,-1.38 2.23,-1.11 2.36,-0.84 2.43,-0.54 2.50,-0.25 2.49,0.05 2.48,0.35 2.48,0.35 L 2.48,0.35 Z"></path></g><g transform="translate(544.9999389648438 180.99996948242188) rotate(0 2.5 6)" stroke="none"><path fill="#1e1e1e" d="M 2.16,1.08 Q 2.16,1.08 1.61,2.22 1.06,3.37 0.87,5.45 0.68,7.53 0.94,8.71 1.19,9.89 2.34,9.03 3.49,8.17 3.50,6.97 3.51,5.76 3.44,4.68 3.37,3.60 2.44,3.92 1.50,4.23 1.23,4.01 0.95,3.79 0.73,3.51 0.52,3.23 0.38,2.91 0.23,2.59 0.17,2.24 0.11,1.89 0.13,1.54 0.15,1.19 0.26,0.85 0.37,0.52 0.55,0.22 0.74,-0.07 0.99,-0.32 1.24,-0.57 1.54,-0.75 1.84,-0.93 2.18,-1.04 2.52,-1.14 2.87,-1.16 3.22,-1.18 3.57,-1.11 3.92,-1.05 4.24,-0.90 4.56,-0.76 5.11,1.14 5.65,3.04 5.38,3.42 5.10,3.80 4.71,4.08 4.33,4.36 3.88,4.49 3.42,4.63 2.95,4.62 2.48,4.61 2.03,4.44 1.59,4.28 1.22,3.98 0.85,3.68 0.59,3.28 0.34,2.88 0.23,2.42 0.11,1.97 0.15,1.49 0.19,1.02 0.38,0.59 0.57,0.15 0.88,-0.19 1.20,-0.54 1.61,-0.78 2.03,-1.01 2.49,-1.10 2.96,-1.18 3.43,-1.12 3.89,-1.06 4.32,-0.84 4.74,-0.63 5.08,-0.30 5.41,0.03 5.62,0.45 5.83,0.88 5.89,1.35 5.96,1.82 5.87,2.28 5.78,2.75 5.54,3.16 5.31,3.57 4.96,3.89 4.60,4.20 4.17,4.39 3.73,4.57 3.26,4.61 2.79,4.65 2.33,4.53 1.87,4.42 1.47,4.16 1.07,3.91 0.78,3.54 0.48,3.17 0.32,2.72 0.16,2.28 0.14,1.81 0.13,1.33 0.82,2.78 1.51,4.23 1.23,4.01 0.95,3.79 0.74,3.51 0.52,3.23 0.38,2.91 0.23,2.59 0.17,2.24 0.11,1.89 0.13,1.54 0.15,1.19 0.26,0.85 0.37,0.52 0.55,0.22 0.74,-0.07 0.99,-0.32 1.24,-0.57 1.54,-0.75 1.84,-0.93 2.18,-1.04 2.52,-1.14 2.87,-1.16 3.22,-1.18 3.57,-1.11 3.92,-1.05 4.24,-0.90 4.56,-0.76 6.18,-0.66 7.81,-0.56 8.28,0.66 8.76,1.89 8.75,3.59 8.75,5.30 8.72,6.88 8.70,8.46 8.00,9.95 7.30,11.43 5.62,13.01 3.93,14.59 1.11,14.77 -1.71,14.94 -2.85,13.18 -3.99,11.43 -4.18,9.25 -4.38,7.07 -4.23,5.81 -4.08,4.56 -3.72,2.89 -3.36,1.22 -2.76,0.07 -2.16,-1.08 -2.00,-1.32 -1.84,-1.56 -1.62,-1.76 -1.41,-1.96 -1.15,-2.10 -0.90,-2.24 -0.62,-2.32 -0.33,-2.39 -0.04,-2.40 0.24,-2.40 0.52,-2.34 0.81,-2.27 1.07,-2.14 1.33,-2.01 1.55,-1.82 1.77,-1.64 1.95,-1.40 2.12,-1.16 2.22,-0.89 2.33,-0.62 2.37,-0.33 2.41,-0.04 2.39,0.24 2.36,0.53 2.26,0.80 2.16,1.08 2.16,1.08 L 2.16,1.08 Z"></path></g><g transform="translate(560.9999389648438 192.99996948242188) rotate(0 6 -4.5)" stroke="none"><path fill="#1e1e1e" d="M -2.43,-0.97 Q -2.43,-0.97 -1.83,-2.40 -1.22,-3.83 -0.63,-4.92 -0.04,-6.01 1.58,-7.70 3.21,-9.39 4.65,-10.36 6.10,-11.34 8.12,-11.39 10.13,-11.44 11.09,-10.87 12.05,-10.30 12.88,-9.00 13.71,-7.70 13.92,-6.44 14.12,-5.17 14.13,-4.79 14.14,-4.40 14.05,-4.03 13.97,-3.65 13.80,-3.30 13.62,-2.96 13.37,-2.66 13.12,-2.37 12.81,-2.14 12.50,-1.92 12.14,-1.77 11.78,-1.63 11.40,-1.57 11.02,-1.52 10.63,-1.56 10.25,-1.60 9.88,-1.73 9.52,-1.86 9.20,-2.07 8.88,-2.28 8.62,-2.57 8.35,-2.85 8.17,-3.19 7.98,-3.53 7.88,-3.90 7.78,-4.27 8.27,-6.18 8.76,-8.09 8.93,-8.57 9.10,-9.06 9.42,-9.47 9.74,-9.88 10.17,-10.17 10.60,-10.45 11.10,-10.59 11.60,-10.72 12.12,-10.69 12.63,-10.65 13.11,-10.46 13.59,-10.26 13.98,-9.92 14.37,-9.58 14.64,-9.14 14.90,-8.69 15.01,-8.18 15.11,-7.68 15.05,-7.16 14.99,-6.65 14.77,-6.18 14.54,-5.71 14.18,-5.34 13.82,-4.97 13.36,-4.73 12.90,-4.49 12.39,-4.42 11.88,-4.34 11.37,-4.43 10.86,-4.52 10.41,-4.76 9.95,-5.01 9.60,-5.39 9.25,-5.77 9.04,-6.24 8.82,-6.71 8.77,-7.23 8.72,-7.74 8.84,-8.25 8.96,-8.75 9.23,-9.19 9.50,-9.63 9.90,-9.96 10.29,-10.29 10.78,-10.48 11.26,-10.67 11.78,-10.69 12.29,-10.71 12.79,-10.57 13.29,-10.43 13.71,-10.13 14.14,-9.84 14.45,-9.42 14.76,-9.00 14.92,-8.51 15.08,-8.02 15.07,-7.50 15.07,-6.99 15.07,-6.99 15.07,-6.99 14.59,-6.08 14.12,-5.17 14.13,-4.79 14.14,-4.40 14.05,-4.03 13.97,-3.65 13.80,-3.30 13.62,-2.96 13.37,-2.66 13.12,-2.37 12.81,-2.14 12.50,-1.92 12.14,-1.77 11.78,-1.63 11.40,-1.58 11.02,-1.52 10.63,-1.56 10.25,-1.60 9.89,-1.73 9.52,-1.86 9.20,-2.07 8.88,-2.28 8.62,-2.57 8.35,-2.85 8.17,-3.19 7.98,-3.53 7.88,-3.90 7.78,-4.27 7.82,-5.15 7.86,-6.03 6.61,-5.18 5.36,-4.33 4.44,-3.12 3.52,-1.91 2.98,-0.47 2.43,0.97 2.28,1.25 2.13,1.53 1.92,1.76 1.70,1.99 1.44,2.17 1.17,2.34 0.88,2.45 0.58,2.56 0.26,2.59 -0.04,2.62 -0.36,2.58 -0.67,2.53 -0.96,2.42 -1.26,2.30 -1.52,2.11 -1.77,1.93 -1.98,1.69 -2.18,1.45 -2.33,1.17 -2.47,0.88 -2.54,0.57 -2.61,0.26 -2.60,-0.04 -2.60,-0.36 -2.52,-0.67 -2.43,-0.97 -2.43,-0.97 L -2.43,-0.97 Z"></path></g><g transform="translate(583.9999389648438 165.99996948242188) rotate(0 3 13)" stroke="none"><path fill="#1e1e1e" d="M 2.19,-1.09 Q 2.19,-1.09 2.79,0.04 3.38,1.18 3.93,3.01 4.49,4.84 4.78,6.26 5.07,7.69 5.39,9.33 5.71,10.97 6.45,13.00 7.19,15.04 7.54,16.22 7.89,17.39 8.22,19.72 8.55,22.05 8.62,23.80 8.69,25.55 8.63,25.98 8.57,26.41 8.37,26.81 8.17,27.20 7.86,27.50 7.55,27.81 7.16,28.00 6.76,28.19 6.33,28.25 5.89,28.31 5.46,28.22 5.03,28.13 4.65,27.91 4.27,27.70 3.98,27.37 3.69,27.04 3.52,26.64 3.35,26.23 3.32,25.79 3.29,25.36 3.40,24.93 3.51,24.51 3.75,24.14 3.99,23.77 4.33,23.50 4.67,23.23 5.09,23.08 5.50,22.94 5.94,22.93 6.37,22.92 6.79,23.05 7.21,23.18 7.56,23.44 7.92,23.70 8.17,24.06 8.42,24.42 8.55,24.84 8.67,25.26 8.66,25.69 8.64,26.13 8.49,26.54 8.33,26.95 8.06,27.29 7.78,27.63 7.41,27.86 7.04,28.10 6.61,28.20 6.19,28.30 5.75,28.26 5.31,28.22 4.91,28.05 4.51,27.87 4.19,27.57 3.86,27.28 3.65,26.90 3.44,26.51 3.36,26.08 3.28,25.65 3.28,25.65 3.28,25.65 3.26,24.00 3.25,22.34 3.13,20.56 3.01,18.79 2.55,16.64 2.10,14.49 1.62,13.26 1.14,12.02 0.70,10.28 0.25,8.54 0.09,7.43 -0.06,6.31 -0.57,4.86 -1.08,3.41 -1.64,2.25 -2.19,1.09 -2.29,0.82 -2.39,0.54 -2.42,0.24 -2.45,-0.04 -2.41,-0.34 -2.37,-0.63 -2.26,-0.91 -2.15,-1.18 -1.98,-1.42 -1.80,-1.66 -1.58,-1.85 -1.35,-2.05 -1.09,-2.18 -0.82,-2.31 -0.53,-2.38 -0.24,-2.44 0.04,-2.44 0.34,-2.43 0.63,-2.35 0.91,-2.28 1.17,-2.13 1.43,-1.99 1.65,-1.79 1.87,-1.59 2.03,-1.34 2.19,-1.09 2.19,-1.09 L 2.19,-1.09 Z"></path></g><g transform="translate(589.0001831054688 187.99996948242188) rotate(0 10.9998779296875 -5)" stroke="none"><path fill="#1e1e1e" d="M -1.44,-1.92 Q -1.44,-1.92 -0.29,-2.78 0.85,-3.65 1.99,-4.39 3.13,-5.13 4.98,-6.51 6.83,-7.90 8.22,-8.43 9.61,-8.96 11.29,-9.36 12.97,-9.76 14.11,-10.21 15.25,-10.65 17.73,-11.43 20.21,-12.20 20.63,-12.25 21.05,-12.30 21.46,-12.21 21.88,-12.13 22.24,-11.91 22.61,-11.70 22.88,-11.38 23.16,-11.06 23.32,-10.67 23.48,-10.28 23.51,-9.86 23.54,-9.43 23.43,-9.03 23.32,-8.62 23.09,-8.26 22.85,-7.91 22.52,-7.65 22.19,-7.39 21.79,-7.25 21.39,-7.11 20.97,-7.11 20.54,-7.10 20.14,-7.24 19.74,-7.37 19.40,-7.62 19.06,-7.87 18.82,-8.22 18.58,-8.56 18.46,-8.97 18.34,-9.38 18.36,-9.80 18.38,-10.22 18.53,-10.62 18.68,-11.01 18.95,-11.34 19.22,-11.66 19.58,-11.88 19.94,-12.11 20.35,-12.20 20.77,-12.30 21.19,-12.26 21.61,-12.21 21.99,-12.04 22.38,-11.87 22.69,-11.58 23.00,-11.29 23.20,-10.92 23.40,-10.55 23.48,-10.13 23.55,-9.72 23.49,-9.30 23.42,-8.88 23.23,-8.51 23.03,-8.13 22.73,-7.84 22.43,-7.54 22.04,-7.36 21.66,-7.18 21.66,-7.18 21.66,-7.18 19.34,-6.56 17.02,-5.94 15.65,-5.44 14.27,-4.94 11.97,-4.31 9.68,-3.68 7.70,-2.30 5.72,-0.93 4.73,-0.36 3.74,0.20 2.59,1.06 1.44,1.92 1.19,2.06 0.93,2.21 0.66,2.29 0.38,2.37 0.09,2.38 -0.19,2.39 -0.47,2.33 -0.76,2.27 -1.02,2.15 -1.28,2.02 -1.50,1.84 -1.73,1.66 -1.90,1.43 -2.08,1.19 -2.19,0.93 -2.30,0.66 -2.35,0.38 -2.39,0.09 -2.37,-0.19 -2.35,-0.48 -2.26,-0.75 -2.16,-1.03 -2.01,-1.27 -1.85,-1.52 -1.64,-1.72 -1.44,-1.92 -1.44,-1.92 L -1.44,-1.92 Z"></path></g><g transform="translate(60.99993896484375 165.99990844726562) rotate(0 10 10)" stroke="none"><path fill="#1e1e1e" d="M 0,-2.57 Q 0,-2.57 1.44,-2.56 2.89,-2.55 4.38,-2.24 5.87,-1.93 6.96,-1.45 8.06,-0.97 9.24,-0.33 10.43,0.29 11.25,1.10 12.08,1.90 13.27,2.66 14.47,3.42 16.06,4.17 17.65,4.92 19.01,6.44 20.37,7.96 20.86,9.30 21.36,10.64 21.70,12.54 22.03,14.45 22.59,16.88 23.15,19.31 23.12,19.83 23.08,20.34 22.87,20.82 22.67,21.30 22.33,21.69 21.98,22.08 21.53,22.33 21.08,22.59 20.57,22.69 20.06,22.79 19.55,22.73 19.04,22.66 18.57,22.43 18.10,22.20 17.73,21.84 17.37,21.47 17.13,21.01 16.90,20.55 16.83,20.03 16.75,19.52 16.85,19.01 16.94,18.50 17.20,18.05 17.45,17.59 17.83,17.24 18.22,16.89 18.69,16.69 19.17,16.48 19.69,16.43 20.20,16.39 20.71,16.51 21.21,16.63 21.65,16.91 22.09,17.19 22.42,17.59 22.74,17.99 22.92,18.48 23.11,18.97 23.12,19.48 23.14,20.00 22.99,20.50 22.84,21.00 22.54,21.42 22.24,21.84 21.82,22.15 21.40,22.45 20.91,22.61 20.41,22.76 19.89,22.75 19.37,22.74 18.88,22.56 18.40,22.39 17.99,22.07 17.58,21.74 17.30,21.31 17.02,20.87 16.89,20.37 16.76,19.87 16.76,19.87 16.76,19.87 16.71,18.63 16.66,17.39 16.16,15.21 15.65,13.03 14.68,11.11 13.70,9.19 12.67,8.75 11.64,8.31 9.78,6.71 7.93,5.12 6.76,4.44 5.59,3.76 4.22,3.15 2.85,2.55 1.42,2.56 0,2.57 -0.30,2.53 -0.61,2.49 -0.90,2.38 -1.19,2.27 -1.45,2.10 -1.70,1.92 -1.91,1.69 -2.11,1.46 -2.26,1.18 -2.40,0.91 -2.48,0.61 -2.55,0.31 -2.55,-0.00 -2.55,-0.31 -2.48,-0.61 -2.40,-0.91 -2.26,-1.18 -2.11,-1.46 -1.91,-1.69 -1.70,-1.92 -1.45,-2.10 -1.19,-2.27 -0.90,-2.38 -0.61,-2.49 -0.30,-2.53 0.00,-2.57 0.00,-2.57 L 0,-2.57 Z"></path></g><g transform="translate(50.99993896484375 148.99990844726562) rotate(0 0 0.5)" stroke="none"><path fill="#1e1e1e" d="M 2.33,0.57 Q 2.33,0.57 2.27,0.94 2.21,1.32 2.03,1.65 1.85,1.98 1.58,2.24 1.31,2.50 0.96,2.66 0.62,2.82 0.24,2.86 -0.12,2.90 -0.49,2.82 -0.86,2.74 -1.18,2.54 -1.51,2.35 -1.75,2.06 -2.00,1.77 -2.14,1.42 -2.28,1.07 -2.30,0.69 -2.32,0.32 -2.22,-0.04 -2.11,-0.40 -1.90,-0.71 -1.69,-1.03 -1.39,-1.25 -1.09,-1.48 -0.73,-1.60 -0.37,-1.72 0.00,-1.72 0.37,-1.72 0.73,-1.60 1.09,-1.48 1.39,-1.25 1.69,-1.03 1.90,-0.71 2.11,-0.40 2.22,-0.04 2.32,0.32 2.30,0.70 2.28,1.07 2.14,1.42 2.00,1.77 1.75,2.06 1.51,2.35 1.18,2.54 0.86,2.74 0.49,2.82 0.12,2.90 -0.24,2.86 -0.62,2.82 -0.96,2.66 -1.31,2.50 -1.58,2.24 -1.85,1.98 -2.03,1.65 -2.21,1.31 -2.27,0.94 -2.33,0.57 -2.33,0.57 -2.33,0.57 -2.37,0.28 -2.40,-0.00 -2.36,-0.28 -2.33,-0.57 -2.23,-0.84 -2.12,-1.11 -1.96,-1.35 -1.79,-1.59 -1.58,-1.78 -1.36,-1.97 -1.10,-2.11 -0.85,-2.24 -0.57,-2.31 -0.28,-2.38 0.00,-2.38 0.29,-2.38 0.57,-2.31 0.85,-2.24 1.11,-2.11 1.36,-1.97 1.58,-1.78 1.80,-1.59 1.96,-1.35 2.12,-1.11 2.23,-0.84 2.33,-0.57 2.33,0.00 L 2.33,0.57 Z"></path></g></svg>