<svg version="1.1" xmlns="http://www.w3.org/2000/svg" viewBox="0 0 620.9999389648438 366.9999694824219" width="620.9999389648438" height="366.9999694824219" class="excalidraw-svg"><!-- svg-source:excalidraw --><metadata></metadata><defs><style class="style-fonts">
      </style></defs><g transform="translate(17.99993896484375 188.99996948242188) rotate(0 -1.99993896484375 6)" stroke="none"><path fill="#1e1e1e" d="M 1.02,5.10 Q 1.02,5.10 -0.40,5.47 -1.82,5.84 -4.16,4.14 -6.51,2.44 -6.73,1.33 -6.95,0.23 -6.80,-0.88 -6.66,-1.99 -6.16,-3.01 -5.67,-4.02 -4.88,-4.82 -4.09,-5.62 -3.08,-6.13 -2.08,-6.63 -0.96,-6.79 0.14,-6.95 1.25,-6.75 2.35,-6.54 3.34,-5.99 4.32,-5.44 5.08,-4.61 5.83,-3.78 6.28,-2.75 6.74,-1.72 6.83,-0.60 6.93,0.52 6.67,1.61 6.40,2.70 5.80,3.66 5.20,4.61 4.33,5.32 3.46,6.03 2.40,6.42 1.35,6.82 0.22,6.86 -0.89,6.89 -1.97,6.57 -3.05,6.25 -3.97,5.60 -4.88,4.95 -5.55,4.03 -6.21,3.12 -6.55,2.05 -6.88,0.98 -6.86,-0.14 -6.84,-1.26 -6.45,-2.32 -6.07,-3.38 -5.37,-4.26 -4.67,-5.14 -3.73,-5.76 -2.78,-6.37 -1.69,-6.65 -0.60,-6.93 0.51,-6.84 1.63,-6.76 2.67,-6.32 3.71,-5.88 4.55,-5.13 5.39,-4.39 5.95,-3.41 6.51,-2.43 6.51,-2.43 6.51,-2.44 6.83,-1.88 7.15,-1.31 8.25,0.53 9.35,2.39 9.86,6.31 10.36,10.23 8.62,13.07 6.89,15.91 3.53,17.17 0.16,18.42 -3.02,17.98 -6.22,17.54 -8.30,15.94 -10.38,14.34 -11.69,12.38 -13.00,10.42 -13.18,6.90 -13.36,3.37 -11.65,0.70 -9.93,-1.95 -6.93,-3.32 -3.92,-4.69 -2.47,-4.89 -1.02,-5.10 -0.39,-5.14 0.23,-5.19 0.84,-5.09 1.46,-4.99 2.04,-4.74 2.61,-4.49 3.11,-4.11 3.61,-3.73 4.01,-3.24 4.40,-2.76 4.67,-2.19 4.94,-1.62 5.06,-1.01 5.18,-0.39 5.15,0.22 5.13,0.85 4.95,1.45 4.77,2.05 4.46,2.59 4.14,3.14 3.70,3.59 3.27,4.04 2.74,4.37 2.21,4.70 1.61,4.90 1.01,5.10 1.01,5.10 L 1.02,5.10 Z"></path></g><g transform="translate(37.99993896484375 139.99996948242188) rotate(0 18 55.5)" stroke="none"><path fill="#1e1e1e" d="M 2.94,-3.93 Q 2.94,-3.93 5.24,-2.20 7.55,-0.48 9.38,0.73 11.21,1.94 15.05,5.08 18.89,8.21 20.72,10.08 22.54,11.95 24.71,14.00 26.87,16.05 28.68,17.99 30.50,19.93 31.92,21.65 33.34,23.36 35.06,25.91 36.79,28.45 38.00,30.58 39.22,32.71 40.50,35.30 41.79,37.88 42.76,41.13 43.73,44.37 44.85,48.48 45.97,52.59 46.13,55.34 46.28,58.10 45.75,63.26 45.22,68.43 44.31,71.39 43.39,74.35 42.78,76.47 42.18,78.58 41.23,80.73 40.27,82.88 39.01,85.34 37.74,87.80 36.59,89.88 35.44,91.95 33.27,94.70 31.09,97.46 29.65,99.25 28.22,101.05 24.91,104.69 21.60,108.33 19.53,109.75 17.46,111.17 15.25,112.50 13.04,113.83 10.67,114.71 8.30,115.59 5.57,115.95 2.85,116.32 -1.65,116.06 -6.16,115.81 -7.06,115.47 -7.96,115.13 -8.70,114.52 -9.44,113.91 -9.95,113.10 -10.46,112.29 -10.68,111.36 -10.91,110.42 -10.82,109.47 -10.73,108.51 -10.35,107.63 -9.96,106.76 -9.31,106.05 -8.67,105.34 -7.83,104.88 -6.99,104.41 -6.04,104.24 -5.10,104.07 -4.15,104.21 -3.20,104.34 -2.35,104.78 -1.49,105.21 -0.82,105.90 -0.15,106.58 0.26,107.44 0.68,108.31 0.80,109.26 0.92,110.21 0.73,111.15 0.54,112.09 0.06,112.92 -0.41,113.75 -1.13,114.39 -1.85,115.02 -2.73,115.39 -3.62,115.76 -4.57,115.83 -5.53,115.90 -6.46,115.66 -7.39,115.42 -8.19,114.89 -8.99,114.37 -9.59,113.62 -10.18,112.86 -10.50,111.96 -10.83,111.06 -10.84,110.10 -10.86,109.14 -10.57,108.23 -10.28,107.31 -9.71,106.54 -9.15,105.76 -8.36,105.21 -7.58,104.66 -6.66,104.39 -5.74,104.11 -4.78,104.15 -3.82,104.18 -3.82,104.18 -3.83,104.18 -1.10,104.58 1.62,104.97 4.47,104.63 7.31,104.28 10.71,102.28 14.10,100.29 15.68,98.82 17.27,97.36 19.90,94.20 22.52,91.03 25.19,86.97 27.86,82.90 29.04,80.44 30.21,77.98 31.60,74.67 32.99,71.35 33.70,68.71 34.41,66.06 34.89,62.34 35.37,58.61 35.17,55.08 34.98,51.54 34.38,49.44 33.79,47.34 33.09,44.99 32.39,42.64 30.31,38.52 28.23,34.40 26.59,32.12 24.95,29.84 22.51,26.71 20.07,23.58 16.18,19.84 12.30,16.10 8.82,13.14 5.34,10.18 3.49,8.78 1.64,7.38 -0.64,5.65 -2.94,3.93 -3.37,3.52 -3.80,3.11 -4.12,2.61 -4.43,2.11 -4.62,1.54 -4.81,0.98 -4.86,0.39 -4.91,-0.19 -4.81,-0.77 -4.72,-1.36 -4.48,-1.90 -4.25,-2.45 -3.90,-2.92 -3.54,-3.40 -3.08,-3.77 -2.63,-4.15 -2.09,-4.40 -1.56,-4.66 -0.97,-4.77 -0.39,-4.89 0.19,-4.87 0.78,-4.85 1.35,-4.68 1.92,-4.52 2.43,-4.22 2.94,-3.93 2.94,-3.93 L 2.94,-3.93 Z"></path></g><g transform="translate(53.99993896484375 86.99996948242188) rotate(0 43.5 105)" stroke="none"><path fill="#1e1e1e" d="M -1.06,-4.26 Q -1.06,-4.26 1.20,-4.93 3.48,-5.61 6.65,-6.24 9.81,-6.87 18.13,-3.84 26.45,-0.81 30.02,0.97 33.58,2.75 36.10,3.99 38.62,5.23 41.41,7.42 44.20,9.61 46.99,12.36 49.79,15.11 52.44,18.11 55.08,21.11 56.99,23.60 58.91,26.08 60.32,27.90 61.74,29.71 63.50,32.64 65.26,35.56 66.66,37.94 68.07,40.32 69.70,43.34 71.34,46.36 72.72,48.81 74.10,51.26 75.51,54.81 76.93,58.36 77.94,61.04 78.95,63.72 79.93,65.79 80.91,67.85 81.91,71.36 82.92,74.87 83.70,77.43 84.48,79.99 85.28,83.43 86.09,86.87 86.60,89.36 87.11,91.84 87.76,95.00 88.40,98.15 88.82,100.90 89.24,103.66 89.59,107.04 89.94,110.43 90.46,112.54 90.99,114.65 91.18,118.26 91.37,121.87 91.52,124.47 91.67,127.08 91.63,130.51 91.60,133.95 91.68,136.55 91.75,139.14 91.84,141.40 91.93,143.66 91.62,146.87 91.30,150.08 91.25,152.38 91.19,154.69 90.47,158.10 89.75,161.50 89.24,163.79 88.73,166.08 87.51,169.06 86.28,172.03 85.20,174.25 84.11,176.47 81.34,180.36 78.56,184.25 76.68,186.55 74.81,188.84 73.09,190.82 71.37,192.80 67.94,195.39 64.51,197.98 61.21,199.99 57.91,202.00 55.82,203.45 53.74,204.89 50.96,206.44 48.18,207.98 43.90,210.46 39.62,212.95 36.39,214.33 33.16,215.70 29.57,216.61 25.98,217.51 25.08,217.53 24.17,217.54 23.31,217.26 22.44,216.98 21.71,216.45 20.98,215.91 20.46,215.16 19.94,214.42 19.69,213.55 19.43,212.68 19.47,211.78 19.50,210.87 19.83,210.02 20.15,209.18 20.73,208.48 21.31,207.78 22.08,207.30 22.85,206.82 23.73,206.61 24.61,206.40 25.51,206.49 26.42,206.57 27.24,206.94 28.07,207.31 28.74,207.93 29.41,208.54 29.84,209.33 30.28,210.13 30.44,211.02 30.60,211.91 30.46,212.81 30.33,213.71 29.92,214.52 29.50,215.32 28.86,215.96 28.21,216.59 27.39,216.98 26.57,217.37 25.67,217.48 24.77,217.59 23.88,217.41 23.00,217.23 22.21,216.77 21.43,216.32 20.83,215.64 20.23,214.95 19.89,214.11 19.54,213.28 19.48,212.37 19.42,211.47 19.65,210.59 19.88,209.71 20.37,208.96 20.87,208.20 21.59,207.64 22.30,207.08 23.15,206.78 24.01,206.48 24.01,206.48 24.01,206.48 27.28,205.91 30.55,205.35 33.07,204.59 35.59,203.84 37.64,203.02 39.68,202.20 41.64,200.95 43.60,199.71 46.08,198.34 48.57,196.97 50.76,195.63 52.95,194.29 55.64,192.44 58.34,190.60 60.90,188.17 63.46,185.75 65.02,184.04 66.57,182.33 68.34,180.02 70.11,177.70 71.64,175.75 73.16,173.79 75.06,170.97 76.95,168.15 78.52,163.83 80.09,159.51 80.62,156.84 81.16,154.17 81.34,151.65 81.53,149.14 81.79,146.41 82.04,143.68 82.12,141.44 82.19,139.20 82.24,136.62 82.28,134.05 82.18,130.72 82.07,127.39 82.05,124.91 82.04,122.43 81.83,119.49 81.62,116.54 81.22,114.05 80.81,111.57 80.32,108.19 79.83,104.81 79.62,102.48 79.42,100.15 78.37,94.65 77.32,89.14 76.37,85.82 75.43,82.51 74.80,80.01 74.18,77.50 73.22,74.51 72.27,71.52 71.34,69.10 70.41,66.68 69.65,64.23 68.88,61.78 67.47,58.67 66.05,55.55 64.83,53.14 63.62,50.73 61.85,47.74 60.09,44.74 58.90,42.44 57.71,40.14 56.07,37.46 54.44,34.78 53.27,32.88 52.10,30.97 50.65,28.77 49.19,26.56 46.61,23.93 44.04,21.31 41.31,18.93 38.59,16.55 36.50,14.80 34.41,13.06 32.23,11.79 30.04,10.52 26.60,9.11 23.16,7.70 16.84,5.44 10.52,3.18 8.12,3.24 5.71,3.31 3.39,3.78 1.06,4.26 0.54,4.32 0.01,4.39 -0.51,4.33 -1.03,4.27 -1.53,4.08 -2.02,3.89 -2.46,3.59 -2.90,3.29 -3.25,2.90 -3.60,2.50 -3.85,2.04 -4.10,1.57 -4.23,1.05 -4.36,0.54 -4.36,0.01 -4.36,-0.51 -4.23,-1.03 -4.11,-1.54 -3.86,-2.01 -3.62,-2.48 -3.27,-2.88 -2.92,-3.27 -2.48,-3.58 -2.05,-3.88 -1.56,-4.07 -1.06,-4.26 -1.06,-4.26 L -1.06,-4.26 Z"></path></g><g transform="translate(83.99993896484375 38.999969482421875) rotate(0 71 158)" stroke="none"><path fill="#1e1e1e" d="M -1.46,-5.14 Q -1.46,-5.14 0.53,-5.76 2.53,-6.39 5.64,-6.97 8.75,-7.55 11.89,-7.73 15.04,-7.90 17.25,-7.62 19.47,-7.34 22.58,-6.93 25.68,-6.52 30.14,-4.78 34.59,-3.03 38.91,-1.09 43.22,0.84 45.48,2.03 47.74,3.22 49.88,4.79 52.01,6.37 54.75,8.44 57.49,10.52 59.65,11.95 61.80,13.38 64.79,16.02 67.77,18.65 70.12,20.51 72.47,22.36 75.49,25.49 78.50,28.62 80.87,30.60 83.23,32.59 86.23,35.72 89.22,38.85 91.51,41.30 93.81,43.75 96.61,47.21 99.42,50.66 101.62,53.23 103.81,55.80 105.73,58.40 107.65,61.00 110.18,64.36 112.71,67.72 114.85,70.68 116.98,73.63 119.24,77.62 121.49,81.61 123.38,84.64 125.26,87.68 127.43,91.99 129.59,96.30 131.20,99.55 132.82,102.80 134.55,107.14 136.27,111.49 137.47,114.82 138.66,118.16 139.89,122.14 141.12,126.13 142.11,129.30 143.10,132.48 143.67,136.88 144.24,141.29 144.65,144.61 145.06,147.93 145.14,151.99 145.22,156.04 145.34,159.48 145.47,162.91 145.08,167.36 144.68,171.81 144.68,175.04 144.68,178.28 143.92,182.99 143.16,187.71 142.64,191.40 142.12,195.09 140.90,199.64 139.68,204.20 138.99,207.77 138.30,211.33 136.70,215.89 135.10,220.46 133.98,223.84 132.85,227.22 131.08,231.25 129.31,235.29 122.38,245.82 115.45,256.36 111.33,261.67 107.22,266.98 103.44,271.53 99.66,276.08 96.89,279.00 94.12,281.92 90.91,285.09 87.70,288.27 84.27,291.38 80.84,294.48 78.69,296.77 76.54,299.06 74.47,301.05 72.39,303.04 69.34,305.12 66.28,307.20 64.28,308.71 62.27,310.23 58.01,313.03 53.76,315.84 51.74,316.89 49.73,317.94 47.20,318.79 44.67,319.64 40.06,321.32 35.46,323.00 34.62,323.10 33.79,323.21 32.96,323.04 32.13,322.87 31.41,322.44 30.68,322.02 30.12,321.38 29.57,320.75 29.24,319.97 28.92,319.19 28.86,318.35 28.80,317.51 29.02,316.69 29.23,315.87 29.69,315.17 30.16,314.46 30.82,313.94 31.49,313.42 32.28,313.14 33.08,312.86 33.92,312.85 34.77,312.84 35.57,313.10 36.37,313.35 37.05,313.85 37.73,314.36 38.21,315.05 38.70,315.74 38.93,316.55 39.17,317.36 39.14,318.20 39.10,319.04 38.80,319.83 38.50,320.62 37.96,321.27 37.43,321.92 36.71,322.37 35.99,322.81 35.17,323.00 34.35,323.20 33.51,323.12 32.67,323.04 31.90,322.70 31.13,322.35 30.51,321.78 29.89,321.21 29.48,320.47 29.08,319.73 28.93,318.90 28.78,318.07 28.91,317.23 29.03,316.40 29.41,315.65 29.80,314.90 30.40,314.31 31.01,313.72 31.77,313.36 32.53,312.99 32.53,312.99 32.53,312.99 37.25,311.70 41.98,310.41 45.76,309.28 49.53,308.14 53.73,305.90 57.93,303.66 60.13,302.41 62.32,301.15 65.10,299.41 67.88,297.67 70.05,296.08 72.22,294.50 74.65,292.44 77.08,290.39 80.38,287.33 83.67,284.27 86.81,281.05 89.95,277.83 92.63,275.17 95.32,272.51 98.98,268.00 102.65,263.49 106.56,258.30 110.48,253.11 117.03,243.00 123.59,232.89 125.14,228.94 126.69,224.98 127.96,221.74 129.24,218.50 130.57,214.25 131.91,209.99 132.73,206.34 133.56,202.69 134.53,198.38 135.50,194.08 136.08,190.45 136.67,186.82 137.16,182.42 137.65,178.03 137.87,174.72 138.10,171.40 138.23,167.21 138.37,163.01 138.40,159.63 138.43,156.24 138.27,152.39 138.12,148.53 137.98,145.40 137.84,142.28 137.12,138.28 136.40,134.28 135.70,131.21 135.00,128.14 133.61,124.20 132.22,120.25 131.31,117.11 130.41,113.97 128.55,109.83 126.68,105.70 125.26,102.53 123.84,99.35 121.56,95.32 119.28,91.28 117.49,88.20 115.69,85.12 113.34,81.50 110.99,77.88 109.06,75.08 107.12,72.29 104.13,68.91 101.14,65.53 99.54,63.08 97.95,60.63 95.93,58.09 93.91,55.54 90.85,52.38 87.80,49.21 85.78,46.91 83.76,44.61 80.65,41.97 77.55,39.33 75.04,37.21 72.53,35.09 69.48,32.62 66.44,30.15 64.00,28.30 61.56,26.45 58.70,24.42 55.83,22.40 53.68,20.98 51.53,19.57 48.20,17.65 44.87,15.72 41.74,13.70 38.61,11.68 33.88,9.81 29.16,7.94 26.22,6.73 23.28,5.52 20.40,5.02 17.51,4.51 15.11,4.20 12.71,3.89 9.11,3.99 5.51,4.09 3.49,4.61 1.46,5.14 0.83,5.24 0.19,5.34 -0.44,5.29 -1.08,5.23 -1.70,5.03 -2.31,4.82 -2.85,4.47 -3.39,4.13 -3.84,3.66 -4.28,3.19 -4.60,2.63 -4.93,2.07 -5.10,1.45 -5.28,0.83 -5.30,0.19 -5.33,-0.45 -5.20,-1.08 -5.06,-1.71 -4.79,-2.29 -4.51,-2.87 -4.10,-3.37 -3.69,-3.87 -3.17,-4.25 -2.65,-4.64 -2.06,-4.89 -1.46,-5.14 -1.46,-5.14 L -1.46,-5.14 Z"></path></g><g transform="translate(173.99993896484375 49.999969482421875) rotate(0 17 5)" stroke="none"><path fill="#1e1e1e" d="M 4.14,-3.31 Q 4.14,-3.31 5.35,-1.92 6.55,-0.52 8.57,2.31 10.58,5.15 12.41,6.26 14.25,7.37 15.33,4.88 16.41,2.38 17.88,0.83 19.35,-0.71 21.24,-2.28 23.14,-3.85 24.72,-5.43 26.31,-7.00 28.28,-8.38 30.25,-9.75 31.27,-10.20 32.28,-10.65 33.39,-10.75 34.50,-10.85 35.58,-10.59 36.66,-10.33 37.60,-9.74 38.54,-9.15 39.25,-8.29 39.95,-7.42 40.34,-6.38 40.73,-5.34 40.77,-4.23 40.81,-3.12 40.49,-2.06 40.18,-0.99 39.53,-0.08 38.89,0.81 37.99,1.47 37.10,2.13 36.04,2.46 34.98,2.80 33.87,2.77 32.75,2.75 31.71,2.38 30.66,2.00 29.79,1.31 28.92,0.62 28.31,-0.30 27.70,-1.23 27.43,-2.31 27.15,-3.38 27.23,-4.49 27.31,-5.60 27.75,-6.63 28.18,-7.65 28.91,-8.48 29.65,-9.32 30.61,-9.87 31.57,-10.43 32.66,-10.64 33.76,-10.86 34.86,-10.72 35.96,-10.58 36.96,-10.09 37.96,-9.61 38.75,-8.83 39.54,-8.05 40.05,-7.06 40.55,-6.06 40.71,-4.96 40.87,-3.86 40.66,-2.77 40.46,-1.68 39.92,-0.70 39.38,0.26 38.56,1.01 37.74,1.76 37.74,1.76 37.74,1.75 36.07,2.94 34.40,4.12 32.13,5.84 29.86,7.56 27.80,9.53 25.73,11.50 24.00,13.17 22.26,14.85 19.20,17.03 16.14,19.22 12.43,18.61 8.72,18.01 5.45,15.48 2.17,12.95 0.11,9.61 -1.95,6.27 -3.05,4.79 -4.14,3.31 -4.48,2.77 -4.82,2.22 -5.01,1.61 -5.21,1.01 -5.25,0.37 -5.30,-0.26 -5.19,-0.89 -5.08,-1.52 -4.82,-2.11 -4.57,-2.70 -4.18,-3.20 -3.79,-3.71 -3.29,-4.11 -2.79,-4.51 -2.21,-4.78 -1.63,-5.05 -1.00,-5.17 -0.37,-5.29 0.26,-5.26 0.90,-5.23 1.51,-5.04 2.13,-4.86 2.68,-4.53 3.23,-4.21 3.69,-3.76 4.14,-3.31 4.14,-3.31 L 4.14,-3.31 Z"></path></g><g transform="translate(187.99993896484375 52.999969482421875) rotate(0 59.5 -21.499984741210938)" stroke="none"><path fill="#1e1e1e" d="M -4.45,1.90 Q -4.45,1.90 -5.41,-0.23 -6.37,-2.36 -6.40,-5.47 -6.44,-8.57 -4.89,-12.99 -3.34,-17.41 -1.82,-19.57 -0.30,-21.74 2.33,-24.17 4.97,-26.61 6.78,-28.39 8.59,-30.17 10.84,-31.81 13.09,-33.44 16.39,-35.33 19.70,-37.21 22.28,-38.70 24.85,-40.19 27.11,-41.45 29.37,-42.71 33.39,-43.82 37.41,-44.93 42.12,-45.47 46.83,-46.01 50.28,-46.36 53.73,-46.70 58.27,-46.35 62.81,-46.00 66.47,-45.64 70.14,-45.29 74.72,-44.08 79.30,-42.88 82.97,-41.86 86.64,-40.84 89.66,-39.56 92.67,-38.28 96.40,-36.13 100.12,-33.99 102.90,-32.68 105.67,-31.37 108.85,-28.83 112.03,-26.29 114.00,-24.81 115.96,-23.32 117.95,-21.00 119.93,-18.69 121.35,-16.94 122.77,-15.20 123.94,-12.93 125.11,-10.66 125.97,-7.34 126.83,-4.01 126.87,-3.21 126.90,-2.42 126.68,-1.65 126.46,-0.88 126.01,-0.22 125.55,0.43 124.91,0.90 124.27,1.38 123.51,1.63 122.75,1.88 121.95,1.87 121.15,1.86 120.39,1.60 119.64,1.34 119.01,0.85 118.38,0.36 117.93,-0.30 117.49,-0.96 117.28,-1.73 117.08,-2.51 117.13,-3.30 117.18,-4.10 117.48,-4.84 117.79,-5.58 118.31,-6.19 118.83,-6.79 119.52,-7.20 120.21,-7.60 120.99,-7.77 121.77,-7.93 122.57,-7.84 123.36,-7.74 124.08,-7.40 124.81,-7.06 125.38,-6.50 125.96,-5.95 126.32,-5.24 126.69,-4.53 126.81,-3.74 126.94,-2.95 126.80,-2.16 126.66,-1.37 126.28,-0.67 125.90,0.02 125.31,0.57 124.73,1.11 124.00,1.44 123.27,1.77 122.48,1.85 121.68,1.93 120.90,1.75 120.12,1.57 119.44,1.15 118.76,0.73 118.25,0.12 117.74,-0.49 117.45,-1.23 117.16,-1.98 117.16,-1.98 117.16,-1.98 116.80,-4.46 116.44,-6.93 114.84,-10.22 113.25,-13.51 111.97,-15.41 110.70,-17.30 109.06,-18.94 107.42,-20.58 104.83,-22.70 102.24,-24.82 99.55,-26.34 96.86,-27.87 93.14,-29.70 89.41,-31.52 87.08,-32.82 84.74,-34.12 81.24,-35.11 77.74,-36.10 73.56,-36.93 69.38,-37.75 65.96,-38.10 62.54,-38.45 58.53,-38.40 54.52,-38.35 51.38,-38.06 48.23,-37.77 44.20,-36.83 40.16,-35.88 37.14,-34.83 34.11,-33.79 31.96,-32.68 29.82,-31.58 27.44,-30.21 25.07,-28.85 20.53,-25.70 15.99,-22.54 14.14,-20.75 12.29,-18.95 9.30,-15.75 6.31,-12.54 4.62,-9.11 2.92,-5.68 3.68,-3.79 4.45,-1.90 4.61,-1.34 4.77,-0.78 4.80,-0.20 4.82,0.37 4.71,0.95 4.59,1.52 4.34,2.05 4.09,2.57 3.73,3.03 3.36,3.48 2.89,3.83 2.43,4.18 1.89,4.41 1.35,4.64 0.78,4.74 0.20,4.83 -0.37,4.79 -0.95,4.74 -1.51,4.56 -2.06,4.37 -2.56,4.06 -3.05,3.75 -3.46,3.33 -3.86,2.91 -4.15,2.41 -4.45,1.90 -4.45,1.90 L -4.45,1.90 Z"></path></g><g transform="translate(320.99993896484375 90.99996948242188) rotate(0 -11.5 19)" stroke="none"><path fill="#1e1e1e" d="M -0.71,1.91 Q -0.71,1.91 -2.97,0.95 -5.24,0.00 -7.18,-0.38 -9.13,-0.77 -10.99,-0.67 -12.85,-0.56 -14.32,-0.42 -15.78,-0.29 -17.09,0.05 -18.41,0.40 -19.68,1.05 -20.95,1.71 -21.59,3.65 -22.22,5.59 -21.32,6.97 -20.42,8.36 -18.94,9.49 -17.46,10.61 -15.98,11.35 -14.50,12.08 -11.50,13.97 -8.50,15.85 -6.63,17.27 -4.76,18.70 -3.33,19.85 -1.90,21.00 -0.77,21.67 0.36,22.33 1.65,24.03 2.93,25.73 3.55,26.74 4.16,27.76 4.51,28.95 4.86,30.14 5.00,31.58 5.14,33.02 4.89,34.27 4.63,35.53 3.46,37.11 2.28,38.69 1.12,39.70 -0.03,40.71 -1.92,41.48 -3.80,42.25 -5.23,42.61 -6.65,42.96 -8.51,43.06 -10.37,43.16 -11.95,42.94 -13.53,42.71 -15.04,42.30 -16.55,41.89 -17.88,41.40 -19.21,40.92 -20.39,39.94 -21.58,38.96 -23.11,36.23 -24.65,33.50 -24.66,33.06 -24.67,32.63 -24.54,32.21 -24.41,31.79 -24.16,31.44 -23.90,31.08 -23.55,30.83 -23.19,30.57 -22.77,30.44 -22.36,30.32 -21.92,30.33 -21.48,30.34 -21.07,30.49 -20.66,30.64 -20.32,30.92 -19.98,31.19 -19.75,31.56 -19.51,31.93 -19.41,32.36 -19.30,32.78 -19.34,33.22 -19.37,33.65 -19.55,34.05 -19.72,34.45 -20.01,34.78 -20.31,35.10 -20.69,35.32 -21.07,35.53 -21.50,35.61 -21.93,35.70 -22.36,35.64 -22.79,35.58 -23.18,35.38 -23.58,35.19 -23.88,34.88 -24.19,34.57 -24.39,34.18 -24.58,33.78 -24.64,33.35 -24.70,32.92 -24.61,32.49 -24.53,32.06 -24.31,31.68 -24.10,31.30 -23.77,31.01 -23.45,30.72 -23.04,30.54 -22.64,30.37 -22.21,30.34 -21.77,30.30 -21.35,30.41 -20.92,30.51 -20.55,30.75 -20.19,30.99 -19.91,31.33 -19.64,31.67 -19.49,32.08 -19.34,32.49 -19.34,32.49 -19.34,32.49 -19.44,33.50 -19.54,34.51 -18.42,35.46 -17.31,36.41 -16.29,36.83 -15.27,37.25 -12.96,37.87 -10.65,38.49 -9.16,38.36 -7.66,38.24 -6.60,38.06 -5.54,37.88 -3.48,36.79 -1.41,35.71 -0.40,34.46 0.61,33.21 0.59,32.10 0.57,30.99 0.24,29.44 -0.08,27.89 -0.92,26.63 -1.77,25.37 -2.93,24.50 -4.10,23.62 -5.39,22.49 -6.68,21.36 -8.49,20.12 -10.31,18.88 -13.27,17.21 -16.23,15.54 -17.95,14.67 -19.67,13.80 -21.67,12.51 -23.66,11.21 -24.52,9.97 -25.37,8.73 -25.66,7.22 -25.95,5.71 -25.88,3.05 -25.80,0.39 -24.21,-0.70 -22.63,-1.81 -20.92,-2.56 -19.21,-3.32 -17.57,-3.59 -15.93,-3.87 -14.50,-3.84 -13.06,-3.82 -10.82,-3.97 -8.57,-4.13 -6.26,-3.79 -3.95,-3.45 -1.62,-2.68 0.71,-1.91 0.93,-1.79 1.15,-1.68 1.33,-1.52 1.52,-1.35 1.66,-1.15 1.80,-0.95 1.89,-0.72 1.97,-0.49 2.01,-0.25 2.04,-0.00 2.01,0.23 1.98,0.48 1.89,0.71 1.81,0.94 1.67,1.14 1.53,1.34 1.34,1.51 1.16,1.67 0.94,1.79 0.73,1.90 0.49,1.96 0.25,2.02 0.00,2.02 -0.23,2.02 -0.47,1.96 -0.71,1.91 -0.71,1.91 L -0.71,1.91 Z"></path></g><g transform="translate(340.99993896484375 109.99996948242188) rotate(0 7.5 24)" stroke="none"><path fill="#1e1e1e" d="M 1.82,0 Q 1.82,0 1.88,1.43 1.94,2.87 1.99,4.34 2.03,5.81 2.29,7.43 2.55,9.05 2.70,10.75 2.85,12.45 3.08,14.81 3.32,17.17 3.71,18.99 4.11,20.80 4.52,23.38 4.94,25.95 5.14,27.96 5.35,29.96 5.67,32.18 5.99,34.40 6.18,36.28 6.38,38.16 6.54,39.53 6.70,40.91 6.75,42.66 6.80,44.42 6.85,46.05 6.89,47.68 6.03,49.14 5.16,50.59 3.86,50.58 2.57,50.58 1.59,49.46 0.61,48.34 0.26,47.11 -0.09,45.89 -0.61,44.17 -1.13,42.46 -1.45,40.63 -1.76,38.80 -2.05,36.35 -2.34,33.90 -2.44,31.63 -2.53,29.36 -2.25,26.57 -1.97,23.78 -1.87,21.81 -1.76,19.84 -0.77,17.06 0.20,14.28 0.85,12.57 1.49,10.85 2.00,9.50 2.51,8.16 3.71,6.36 4.92,4.56 6.35,2.92 7.77,1.28 8.57,0.24 9.37,-0.79 10.40,-1.68 11.43,-2.57 13.49,-3.18 15.56,-3.79 16.92,-2.08 18.29,-0.37 17.73,2.43 17.16,5.25 16.58,6.24 16.00,7.23 15.59,8.24 15.19,9.25 14.61,10.26 14.04,11.26 13.13,12.35 12.23,13.43 11.18,14.86 10.14,16.30 6.49,16.97 2.84,17.64 2.44,17.38 2.05,17.13 1.76,16.76 1.47,16.40 1.32,15.96 1.16,15.52 1.15,15.05 1.14,14.58 1.28,14.14 1.42,13.69 1.70,13.32 1.97,12.94 2.35,12.67 2.73,12.40 3.18,12.27 3.63,12.13 4.09,12.15 4.56,12.17 5.00,12.33 5.43,12.50 5.80,12.79 6.16,13.09 6.40,13.48 6.65,13.88 6.76,14.33 6.87,14.78 6.83,15.25 6.79,15.71 6.60,16.14 6.41,16.57 6.10,16.91 5.78,17.26 5.38,17.48 4.97,17.71 4.51,17.79 4.05,17.88 3.59,17.81 3.13,17.75 2.71,17.54 2.29,17.32 1.97,16.99 1.64,16.66 1.44,16.24 1.23,15.82 1.17,15.36 1.11,14.89 1.20,14.44 1.30,13.98 1.53,13.58 1.76,13.17 2.11,12.86 2.46,12.55 2.89,12.37 3.32,12.19 3.79,12.16 4.25,12.12 4.70,12.24 5.16,12.35 5.15,12.35 5.15,12.35 5.32,12.75 5.49,13.14 6.79,11.50 8.09,9.86 9.20,8.52 10.31,7.17 11.39,5.14 12.47,3.11 13.65,1.76 14.82,0.41 13.46,1.02 12.09,1.63 11.18,2.51 10.28,3.39 9.04,4.92 7.80,6.44 6.79,8.03 5.79,9.63 5.15,10.85 4.51,12.07 3.82,13.69 3.12,15.31 2.31,17.67 1.49,20.03 1.42,22.04 1.34,24.05 1.19,26.56 1.04,29.08 1.29,31.17 1.54,33.25 2.07,35.65 2.59,38.05 2.83,39.51 3.08,40.96 3.91,43.58 4.74,46.20 3.90,46.89 3.06,47.59 3.08,46.03 3.10,44.48 3.10,42.78 3.09,41.09 3.12,39.76 3.14,38.44 3.02,36.67 2.90,34.91 2.48,32.60 2.05,30.30 1.86,28.43 1.66,26.56 1.13,24.08 0.61,21.60 0.14,19.65 -0.32,17.69 -0.77,15.22 -1.21,12.76 -1.30,11.22 -1.40,9.69 -1.72,7.75 -2.03,5.82 -1.99,4.35 -1.94,2.87 -1.88,1.43 -1.82,0 -1.79,-0.21 -1.77,-0.43 -1.69,-0.64 -1.61,-0.84 -1.49,-1.02 -1.36,-1.21 -1.20,-1.35 -1.03,-1.50 -0.84,-1.60 -0.64,-1.70 -0.43,-1.75 -0.21,-1.81 0.00,-1.81 0.22,-1.81 0.43,-1.75 0.64,-1.70 0.84,-1.60 1.03,-1.50 1.20,-1.35 1.36,-1.21 1.49,-1.02 1.61,-0.84 1.69,-0.64 1.77,-0.43 1.79,-0.21 1.82,0.00 1.82,0.00 L 1.82,0 Z"></path></g><g transform="translate(356.99993896484375 82.99996948242188) rotate(0 16 19)" stroke="none"><path fill="#1e1e1e" d="M 1.94,-0.77 Q 1.94,-0.77 2.53,0.65 3.13,2.08 3.68,3.58 4.24,5.08 4.77,6.21 5.31,7.34 5.64,8.64 5.98,9.93 7.08,15.27 8.19,20.62 8.89,23.44 9.60,26.27 9.90,28.46 10.20,30.64 10.67,31.97 11.13,33.30 11.89,34.73 12.65,36.17 12.94,34.63 13.23,33.10 14.02,31.57 14.81,30.04 15.29,29.09 15.76,28.14 16.25,27.16 16.73,26.17 17.25,25.14 17.77,24.11 18.54,23.31 19.31,22.50 20.23,21.05 21.16,19.61 21.57,19.41 21.99,19.22 22.27,18.98 22.56,18.73 22.89,18.56 23.22,18.39 23.59,18.31 23.95,18.22 24.32,18.23 24.70,18.23 25.06,18.32 25.42,18.42 25.75,18.60 26.08,18.77 26.36,19.02 26.63,19.28 26.84,19.59 27.05,19.90 27.18,20.25 27.31,20.60 27.35,20.97 27.39,21.34 27.34,21.71 27.29,22.08 27.15,22.43 27.02,22.78 26.80,23.08 26.59,23.39 27.07,22.24 27.56,21.10 28.00,22.37 28.44,23.64 28.94,25.10 29.44,26.56 29.68,27.83 29.92,29.11 30.40,31.07 30.88,33.02 31.37,34.15 31.86,35.28 32.25,35.05 32.65,34.82 33.14,35.01 33.63,35.19 34.03,35.53 34.43,35.86 34.71,36.31 34.99,36.75 35.11,37.26 35.23,37.77 35.18,38.30 35.13,38.82 34.92,39.30 34.70,39.78 34.35,40.16 33.99,40.55 33.53,40.80 33.07,41.05 32.56,41.14 32.04,41.24 31.52,41.16 31.00,41.08 30.54,40.84 30.07,40.60 29.70,40.23 29.34,39.85 29.11,39.38 28.88,38.91 28.82,38.39 28.76,37.87 28.86,37.35 28.97,36.84 29.23,36.39 29.50,35.93 29.89,35.59 30.29,35.24 30.77,35.04 31.25,34.84 31.78,34.80 32.30,34.77 32.81,34.90 33.31,35.03 33.75,35.32 34.19,35.61 34.51,36.02 34.84,36.44 35.01,36.93 35.19,37.43 35.19,37.95 35.20,38.47 35.04,38.97 34.88,39.47 34.57,39.89 34.26,40.32 33.83,40.62 33.40,40.92 32.89,41.06 32.39,41.21 31.87,41.19 31.34,41.17 31.34,41.17 31.34,41.17 28.48,38.76 25.62,36.35 25.06,34.49 24.49,32.62 24.01,30.79 23.53,28.95 23.06,27.49 22.60,26.03 22.21,24.74 21.83,23.46 21.91,21.34 21.99,19.22 22.27,18.98 22.56,18.73 22.89,18.56 23.22,18.39 23.59,18.31 23.95,18.22 24.32,18.23 24.70,18.23 25.06,18.32 25.42,18.42 25.75,18.60 26.08,18.77 26.36,19.02 26.63,19.28 26.84,19.59 27.05,19.90 27.18,20.25 27.31,20.60 27.35,20.97 27.39,21.34 27.34,21.71 27.29,22.08 27.15,22.43 27.02,22.78 26.80,23.08 26.59,23.39 25.48,24.16 24.37,24.93 23.55,25.87 22.74,26.81 22.26,27.77 21.78,28.73 21.26,29.72 20.75,30.71 20.23,31.70 19.70,32.68 19.15,33.66 18.60,34.63 17.48,36.07 16.37,37.52 15.44,38.51 14.50,39.50 13.32,39.79 12.13,40.09 11.12,39.76 10.11,39.42 9.30,38.01 8.49,36.59 8.03,35.49 7.57,34.38 7.17,32.80 6.77,31.22 6.38,29.26 5.98,27.30 5.06,24.43 4.13,21.56 2.65,15.33 1.16,9.09 0.67,7.82 0.18,6.55 -0.32,5.11 -0.83,3.66 -1.38,2.22 -1.94,0.77 -2.00,0.53 -2.07,0.28 -2.07,0.03 -2.08,-0.21 -2.02,-0.46 -1.97,-0.70 -1.85,-0.93 -1.74,-1.15 -1.58,-1.34 -1.41,-1.54 -1.21,-1.68 -1.00,-1.83 -0.77,-1.92 -0.53,-2.02 -0.28,-2.05 -0.03,-2.09 0.21,-2.06 0.46,-2.04 0.70,-1.95 0.93,-1.87 1.14,-1.73 1.35,-1.59 1.53,-1.40 1.70,-1.21 1.82,-0.99 1.94,-0.77 1.94,-0.77 L 1.94,-0.77 Z"></path></g><g transform="translate(411.99993896484375 104.99996948242188) rotate(0 -7 7.5)" stroke="none"><path fill="#1e1e1e" d="M -1.31,2.19 Q -1.31,2.19 -2.72,1.28 -4.13,0.38 -5.36,0.09 -6.60,-0.19 -8.18,0.02 -9.76,0.25 -11.26,1.22 -12.77,2.19 -13.37,3.24 -13.98,4.28 -14.77,5.52 -15.56,6.75 -15.80,8.54 -16.04,10.33 -15.83,11.95 -15.63,13.57 -14.44,14.22 -13.26,14.86 -11.28,14.16 -9.29,13.46 -8.18,12.18 -7.06,10.91 -6.23,10.09 -5.39,9.28 -4.87,7.74 -4.35,6.21 -3.86,5.20 -3.37,4.18 -2.32,2.94 -1.26,1.71 0.28,1.75 1.83,1.80 2.86,2.61 3.88,3.42 4.49,4.43 5.09,5.45 5.63,6.44 6.16,7.43 6.45,10.61 6.74,13.79 6.39,14.18 6.03,14.57 5.56,14.83 5.10,15.09 4.58,15.18 4.05,15.28 3.53,15.20 3.00,15.12 2.53,14.88 2.06,14.64 1.68,14.26 1.31,13.89 1.08,13.41 0.85,12.93 0.78,12.40 0.72,11.88 0.82,11.36 0.93,10.84 1.19,10.38 1.46,9.92 1.85,9.57 2.25,9.21 2.74,9.01 3.23,8.80 3.76,8.77 4.29,8.73 4.81,8.86 5.32,8.99 5.76,9.28 6.21,9.57 6.54,9.99 6.87,10.41 7.04,10.91 7.22,11.41 7.23,11.94 7.24,12.47 7.08,12.97 6.92,13.48 6.61,13.91 6.29,14.34 5.86,14.64 5.43,14.95 4.92,15.10 4.41,15.25 3.88,15.23 3.35,15.21 2.85,15.02 2.35,14.84 1.94,14.50 1.53,14.16 1.25,13.71 0.97,13.26 0.85,12.75 0.72,12.23 0.77,11.70 0.82,11.17 1.03,10.69 1.25,10.20 1.25,10.20 1.25,10.20 1.02,10.65 0.79,11.09 0.32,10.10 -0.13,9.11 -0.53,7.67 -0.94,6.23 0.51,6.48 1.97,6.73 1.10,8.59 0.23,10.44 -0.43,11.84 -1.10,13.24 -2.58,14.76 -4.06,16.28 -5.21,17.42 -6.36,18.56 -7.89,19.43 -9.42,20.30 -11.66,20.55 -13.89,20.79 -15.48,20.51 -17.07,20.23 -18.01,19.55 -18.95,18.86 -19.55,17.97 -20.16,17.08 -20.65,15.94 -21.14,14.81 -21.36,12.29 -21.57,9.78 -21.41,8.22 -21.25,6.66 -20.78,5.25 -20.31,3.85 -19.67,2.80 -19.02,1.74 -18.47,0.81 -17.91,-0.12 -16.83,-1.26 -15.74,-2.39 -14.48,-3.21 -13.22,-4.04 -12.16,-4.52 -11.09,-5.01 -9.63,-5.29 -8.18,-5.57 -5.94,-5.19 -3.71,-4.81 -2.66,-4.32 -1.61,-3.83 -0.15,-3.01 1.31,-2.19 1.55,-2.00 1.80,-1.81 1.99,-1.57 2.18,-1.32 2.30,-1.04 2.43,-0.76 2.49,-0.46 2.54,-0.16 2.53,0.14 2.51,0.45 2.42,0.74 2.33,1.04 2.17,1.30 2.01,1.56 1.79,1.78 1.58,2.00 1.31,2.16 1.05,2.32 0.76,2.41 0.46,2.51 0.16,2.53 -0.14,2.55 -0.44,2.49 -0.75,2.44 -1.03,2.31 -1.31,2.19 -1.31,2.19 L -1.31,2.19 Z"></path></g><g transform="translate(394.99993896484375 81.99996948242188) rotate(0 1 2)" stroke="none"><path fill="#1e1e1e" d="M 2.30,-0.76 Q 2.30,-0.76 2.94,0.64 3.58,2.06 3.85,2.36 4.12,2.67 4.27,3.04 4.43,3.41 4.46,3.82 4.49,4.22 4.39,4.61 4.29,5.01 4.06,5.34 3.84,5.68 3.53,5.94 3.21,6.19 2.83,6.32 2.44,6.46 2.04,6.47 1.63,6.47 1.25,6.35 0.86,6.23 0.53,5.99 0.21,5.75 -0.02,5.42 -0.25,5.09 -0.36,4.70 -0.48,4.31 -0.46,3.91 -0.45,3.50 -0.31,3.12 -0.16,2.74 0.08,2.43 0.34,2.12 0.68,1.90 1.03,1.69 1.42,1.59 1.81,1.50 2.22,1.53 2.62,1.57 2.99,1.73 3.36,1.90 3.66,2.17 3.96,2.44 4.16,2.80 4.35,3.15 4.43,3.55 4.50,3.95 4.44,4.35 4.38,4.75 4.20,5.11 4.02,5.47 3.73,5.76 3.44,6.04 3.07,6.22 2.71,6.40 2.31,6.45 1.90,6.50 1.51,6.42 1.11,6.34 0.76,6.13 0.41,5.93 0.41,5.93 0.41,5.93 -0.94,3.35 -2.30,0.76 -2.36,0.48 -2.42,0.19 -2.41,-0.09 -2.39,-0.39 -2.31,-0.67 -2.23,-0.95 -2.08,-1.20 -1.94,-1.46 -1.73,-1.67 -1.53,-1.88 -1.28,-2.04 -1.04,-2.19 -0.76,-2.28 -0.48,-2.38 -0.19,-2.40 0.09,-2.42 0.38,-2.38 0.67,-2.33 0.94,-2.21 1.21,-2.10 1.45,-1.92 1.68,-1.75 1.87,-1.52 2.05,-1.29 2.18,-1.03 2.30,-0.76 2.30,-0.76 L 2.30,-0.76 Z"></path></g><g transform="translate(407.99993896484375 84.99996948242188) rotate(0 1.5 0.5)" stroke="none"><path fill="#1e1e1e" d="M 0.74,-2.22 Q 0.74,-2.22 2.25,-1.77 3.77,-1.33 4.12,-1.14 4.48,-0.96 4.75,-0.67 5.03,-0.38 5.19,-0.02 5.36,0.33 5.41,0.72 5.45,1.12 5.37,1.51 5.28,1.90 5.08,2.24 4.87,2.58 4.57,2.84 4.27,3.10 3.90,3.25 3.53,3.40 3.13,3.42 2.74,3.44 2.35,3.34 1.97,3.23 1.64,3.01 1.31,2.79 1.07,2.47 0.83,2.15 0.70,1.78 0.57,1.40 0.57,1.00 0.57,0.60 0.69,0.23 0.82,-0.14 1.06,-0.46 1.30,-0.78 1.63,-1.00 1.96,-1.22 2.34,-1.33 2.72,-1.44 3.12,-1.42 3.52,-1.40 3.89,-1.25 4.26,-1.11 4.56,-0.85 4.86,-0.59 5.07,-0.25 5.28,0.08 5.36,0.47 5.45,0.85 5.41,1.25 5.37,1.65 5.20,2.01 5.03,2.37 4.76,2.66 4.49,2.95 4.14,3.14 3.79,3.32 3.39,3.39 3.00,3.45 2.61,3.39 2.22,3.33 2.22,3.33 2.22,3.33 0.74,2.77 -0.74,2.22 -0.99,2.10 -1.25,1.98 -1.47,1.80 -1.69,1.62 -1.86,1.39 -2.03,1.17 -2.14,0.91 -2.25,0.65 -2.29,0.37 -2.34,0.09 -2.32,-0.18 -2.29,-0.46 -2.20,-0.73 -2.11,-1.00 -1.96,-1.24 -1.81,-1.48 -1.61,-1.67 -1.40,-1.87 -1.16,-2.01 -0.92,-2.15 -0.64,-2.23 -0.37,-2.31 -0.09,-2.32 0.18,-2.33 0.46,-2.28 0.74,-2.22 0.74,-2.22 L 0.74,-2.22 Z"></path></g><g transform="translate(431.99993896484375 112.99996948242188) rotate(0 4 -7)" stroke="none"><path fill="#1e1e1e" d="M 1.88,-1.88 Q 1.88,-1.88 2.49,-1.34 3.09,-0.79 3.29,-0.53 3.50,-0.27 3.63,0.03 3.77,0.33 3.83,0.65 3.89,0.98 3.87,1.31 3.85,1.64 3.75,1.96 3.65,2.27 3.48,2.56 3.31,2.84 3.07,3.07 2.84,3.31 2.56,3.48 2.27,3.65 1.96,3.75 1.64,3.85 1.31,3.87 0.98,3.89 0.65,3.83 0.33,3.77 0.03,3.63 -0.27,3.50 -0.53,3.29 -0.79,3.09 -1.23,1.28 -1.67,-0.53 -1.76,-2.11 -1.85,-3.70 -1.88,-5.66 -1.91,-7.63 -1.54,-8.85 -1.18,-10.08 -0.75,-11.51 -0.32,-12.94 0.13,-13.93 0.59,-14.92 1.22,-15.87 1.85,-16.82 4.76,-17.96 7.67,-19.10 8.17,-19.07 8.68,-19.04 9.15,-18.85 9.61,-18.66 10.00,-18.33 10.38,-18.01 10.64,-17.57 10.90,-17.14 11.00,-16.65 11.11,-16.15 11.05,-15.65 11.00,-15.15 10.78,-14.69 10.57,-14.23 10.22,-13.87 9.87,-13.50 9.43,-13.27 8.98,-13.03 8.48,-12.95 7.98,-12.87 7.49,-12.96 6.99,-13.04 6.54,-13.28 6.10,-13.52 5.75,-13.89 5.41,-14.25 5.20,-14.71 4.99,-15.17 4.93,-15.67 4.88,-16.18 4.99,-16.67 5.10,-17.16 5.36,-17.59 5.62,-18.02 6.01,-18.35 6.40,-18.67 6.87,-18.86 7.34,-19.04 7.84,-19.07 8.34,-19.10 8.83,-18.96 9.32,-18.82 9.73,-18.54 10.15,-18.25 10.45,-17.85 10.76,-17.45 10.92,-16.97 11.08,-16.49 11.07,-15.98 11.07,-15.48 10.91,-15.00 10.75,-14.52 10.44,-14.12 10.13,-13.72 9.71,-13.44 9.29,-13.16 8.81,-13.02 8.32,-12.89 8.32,-12.89 8.32,-12.89 7.22,-12.61 6.12,-12.33 5.45,-10.92 4.78,-9.50 4.34,-8.49 3.91,-7.47 3.89,-5.61 3.87,-3.75 3.48,-2.27 3.09,-0.79 3.29,-0.53 3.50,-0.27 3.63,0.03 3.77,0.33 3.83,0.65 3.89,0.98 3.87,1.31 3.85,1.64 3.75,1.96 3.65,2.27 3.48,2.56 3.31,2.84 3.07,3.07 2.84,3.31 2.56,3.48 2.27,3.65 1.96,3.75 1.64,3.85 1.31,3.87 0.98,3.89 0.65,3.83 0.33,3.77 0.03,3.63 -0.27,3.50 -0.53,3.29 -0.79,3.09 -1.34,2.49 -1.88,1.88 -2.08,1.63 -2.28,1.38 -2.41,1.08 -2.55,0.79 -2.60,0.47 -2.66,0.16 -2.64,-0.16 -2.62,-0.48 -2.53,-0.78 -2.43,-1.09 -2.26,-1.37 -2.10,-1.64 -1.87,-1.87 -1.64,-2.10 -1.37,-2.27 -1.09,-2.43 -0.78,-2.53 -0.48,-2.62 -0.15,-2.64 0.16,-2.66 0.47,-2.60 0.79,-2.55 1.08,-2.41 1.38,-2.28 1.63,-2.08 1.88,-1.88 1.88,-1.88 L 1.88,-1.88 Z"></path></g><g transform="translate(458.99993896484375 101.99996948242188) rotate(0 0.5 4.5)" stroke="none"><path fill="#1e1e1e" d="M 2.45,0 Q 2.45,0 2.45,1.42 2.45,2.85 3.02,5.82 3.58,8.78 3.55,9.20 3.51,9.62 3.35,10.00 3.18,10.39 2.90,10.70 2.62,11.01 2.26,11.22 1.89,11.43 1.48,11.51 1.07,11.59 0.65,11.53 0.24,11.48 -0.13,11.29 -0.51,11.11 -0.80,10.81 -1.10,10.51 -1.29,10.14 -1.47,9.76 -1.53,9.35 -1.59,8.93 -1.51,8.52 -1.43,8.10 -1.23,7.74 -1.02,7.37 -0.71,7.09 -0.40,6.81 -0.01,6.64 0.36,6.48 0.78,6.44 1.20,6.41 1.61,6.51 2.02,6.61 2.37,6.83 2.73,7.06 2.99,7.39 3.25,7.71 3.40,8.11 3.54,8.50 3.56,8.92 3.57,9.34 3.44,9.74 3.32,10.14 3.08,10.49 2.83,10.83 2.49,11.07 2.15,11.32 1.75,11.44 1.35,11.57 0.93,11.56 0.51,11.54 0.12,11.40 -0.27,11.26 -0.60,10.99 -0.92,10.73 -1.15,10.38 -1.38,10.02 -1.48,9.62 -1.58,9.21 -1.58,9.21 -1.58,9.21 -1.72,7.52 -1.86,5.83 -2.15,4.36 -2.45,2.89 -2.45,1.44 -2.45,0 -2.41,-0.29 -2.38,-0.58 -2.27,-0.86 -2.17,-1.14 -2.00,-1.38 -1.83,-1.62 -1.61,-1.82 -1.39,-2.01 -1.13,-2.15 -0.86,-2.29 -0.58,-2.36 -0.29,-2.43 0.00,-2.43 0.29,-2.43 0.58,-2.36 0.87,-2.29 1.13,-2.15 1.39,-2.01 1.61,-1.82 1.83,-1.62 2.00,-1.38 2.17,-1.14 2.27,-0.86 2.38,-0.58 2.41,-0.29 2.45,0.00 2.45,0.00 L 2.45,0 Z"></path></g><g transform="translate(450.99993896484375 78.99996948242188) rotate(0 -1 -2.5)" stroke="none"><path fill="#1e1e1e" d="M -2.16,0.86 Q -2.16,0.86 -2.29,-2.51 -2.42,-5.90 -2.08,-6.08 -1.74,-6.26 -1.36,-6.31 -0.98,-6.37 -0.60,-6.31 -0.22,-6.24 0.11,-6.06 0.45,-5.88 0.71,-5.60 0.97,-5.32 1.13,-4.96 1.29,-4.61 1.33,-4.23 1.37,-3.85 1.28,-3.47 1.20,-3.10 1.00,-2.77 0.80,-2.44 0.50,-2.19 0.21,-1.95 -0.14,-1.81 -0.50,-1.67 -0.89,-1.65 -1.27,-1.63 -1.64,-1.74 -2.01,-1.84 -2.33,-2.06 -2.64,-2.28 -2.87,-2.59 -3.11,-2.90 -3.23,-3.26 -3.35,-3.63 -3.34,-4.01 -3.34,-4.40 -3.21,-4.76 -3.09,-5.13 -2.85,-5.43 -2.62,-5.73 -2.30,-5.95 -1.98,-6.16 -1.61,-6.26 -1.23,-6.36 -0.85,-6.34 -0.47,-6.31 -0.11,-6.17 0.24,-6.02 0.53,-5.77 0.82,-5.52 1.02,-5.19 1.21,-4.86 1.29,-4.48 1.37,-4.11 1.33,-3.72 1.28,-3.34 1.12,-2.99 0.95,-2.64 0.69,-2.37 0.42,-2.09 0.42,-2.09 0.42,-2.09 1.29,-1.48 2.16,-0.86 2.23,-0.59 2.31,-0.32 2.31,-0.04 2.32,0.23 2.25,0.51 2.19,0.78 2.06,1.03 1.94,1.29 1.76,1.50 1.57,1.71 1.34,1.88 1.12,2.04 0.85,2.15 0.59,2.25 0.32,2.29 0.04,2.33 -0.23,2.30 -0.51,2.27 -0.78,2.17 -1.04,2.08 -1.28,1.92 -1.51,1.77 -1.70,1.56 -1.89,1.35 -2.03,1.11 -2.16,0.86 -2.16,0.86 L -2.16,0.86 Z"></path></g><g transform="translate(483.99993896484375 94.99996948242188) rotate(0 -7 13.5)" stroke="none"><path fill="#1e1e1e" d="M 0,2.56 Q 0,2.56 -1.72,2.50 -3.44,2.44 -4.74,2.46 -6.04,2.47 -8.07,2.93 -10.10,3.39 -9.37,4.59 -8.64,5.80 -6.94,7.65 -5.25,9.51 -3.33,11.52 -1.41,13.53 -0.68,14.34 0.04,15.14 0.62,16.85 1.19,18.56 1.14,20.95 1.09,23.34 -0.50,25.47 -2.09,27.60 -4.41,28.57 -6.73,29.54 -8.97,29.36 -11.21,29.17 -12.19,28.71 -13.17,28.24 -14.62,25.32 -16.06,22.40 -16.04,21.90 -16.03,21.40 -15.85,20.93 -15.68,20.46 -15.36,20.07 -15.05,19.68 -14.62,19.42 -14.20,19.15 -13.71,19.03 -13.23,18.91 -12.73,18.96 -12.23,19.00 -11.77,19.20 -11.32,19.40 -10.95,19.74 -10.58,20.07 -10.33,20.51 -10.09,20.95 -10.00,21.44 -9.90,21.93 -9.97,22.42 -10.05,22.92 -10.27,23.37 -10.49,23.81 -10.85,24.16 -11.21,24.52 -11.65,24.74 -12.10,24.95 -12.60,25.02 -13.10,25.08 -13.59,24.99 -14.08,24.89 -14.51,24.64 -14.95,24.39 -15.28,24.02 -15.61,23.65 -15.80,23.18 -16.00,22.72 -16.04,22.23 -16.07,21.73 -15.95,21.24 -15.83,20.76 -15.56,20.34 -15.28,19.92 -14.89,19.61 -14.50,19.30 -14.03,19.13 -13.56,18.96 -13.06,18.95 -12.56,18.93 -12.08,19.08 -11.61,19.23 -11.20,19.53 -10.80,19.82 -10.51,20.23 -10.22,20.64 -10.07,21.12 -9.93,21.60 -9.93,21.59 -9.93,21.59 -9.48,22.75 -9.03,23.92 -7.86,23.87 -6.69,23.83 -5.48,23.35 -4.26,22.87 -4.17,21.38 -4.08,19.88 -4.80,18.40 -5.51,16.92 -6.35,15.94 -7.18,14.96 -8.36,13.96 -9.54,12.97 -10.36,11.99 -11.17,11.01 -12.30,9.94 -13.43,8.88 -14.23,7.63 -15.03,6.38 -15.44,5.23 -15.85,4.09 -15.54,2.63 -15.24,1.18 -14.14,0.12 -13.04,-0.93 -10.99,-1.41 -8.95,-1.88 -7.51,-2.18 -6.08,-2.47 -4.76,-2.46 -3.44,-2.44 -1.72,-2.50 0,-2.56 0.30,-2.52 0.61,-2.48 0.90,-2.37 1.19,-2.26 1.44,-2.09 1.69,-1.91 1.90,-1.68 2.10,-1.45 2.25,-1.18 2.39,-0.90 2.46,-0.60 2.54,-0.30 2.54,0.00 2.54,0.30 2.46,0.60 2.39,0.90 2.25,1.18 2.10,1.45 1.90,1.68 1.69,1.91 1.44,2.09 1.19,2.26 0.90,2.37 0.61,2.48 0.30,2.52 -0.00,2.56 -0.00,2.56 L 0,2.56 Z"></path></g><g transform="translate(502.99993896484375 98.99996948242188) rotate(0 -1.5 9.5)" stroke="none"><path fill="#1e1e1e" d="M 1.08,2.17 Q 1.08,2.17 -0.02,2.75 -1.14,3.33 -2.04,4.48 -2.94,5.63 -3.37,6.96 -3.81,8.29 -3.43,9.42 -3.05,10.55 -1.28,12.36 0.48,14.17 2.87,15.48 5.25,16.79 5.57,17.04 5.89,17.30 6.11,17.65 6.33,18.00 6.43,18.40 6.53,18.80 6.50,19.21 6.46,19.62 6.30,20.00 6.13,20.37 5.86,20.68 5.58,20.98 5.22,21.18 4.86,21.39 4.46,21.46 4.05,21.54 3.65,21.48 3.24,21.42 2.87,21.24 2.50,21.06 2.21,20.76 1.92,20.47 1.74,20.10 1.56,19.73 1.51,19.32 1.45,18.92 1.53,18.51 1.61,18.11 1.81,17.75 2.02,17.39 2.33,17.12 2.63,16.85 3.01,16.69 3.39,16.52 3.80,16.49 4.21,16.46 4.61,16.56 5.01,16.66 5.35,16.89 5.70,17.11 5.96,17.43 6.21,17.75 6.35,18.14 6.49,18.53 6.50,18.94 6.51,19.35 6.39,19.74 6.27,20.13 6.03,20.47 5.79,20.80 5.45,21.04 5.12,21.28 4.72,21.40 4.33,21.52 3.92,21.50 3.51,21.49 3.12,21.35 2.73,21.20 2.74,21.20 2.74,21.20 -0.08,19.54 -2.90,17.87 -5.48,15.67 -8.06,13.46 -8.56,12.40 -9.07,11.34 -8.99,8.85 -8.91,6.36 -8.41,5.08 -7.90,3.80 -7.32,2.90 -6.74,2.00 -5.96,1.23 -5.17,0.46 -4.31,-0.28 -3.45,-1.03 -2.27,-1.60 -1.08,-2.17 -0.81,-2.27 -0.53,-2.37 -0.24,-2.40 0.04,-2.43 0.33,-2.39 0.62,-2.35 0.90,-2.24 1.17,-2.13 1.41,-1.96 1.65,-1.79 1.84,-1.56 2.03,-1.34 2.16,-1.08 2.29,-0.81 2.35,-0.53 2.42,-0.24 2.41,0.04 2.41,0.34 2.33,0.62 2.26,0.90 2.11,1.16 1.97,1.42 1.77,1.63 1.57,1.85 1.33,2.01 1.08,2.17 1.08,2.17 L 1.08,2.17 Z"></path></g><g transform="translate(515.9999389648438 71.99996948242188) rotate(0 16.5 23)" stroke="none"><path fill="#1e1e1e" d="M 1.88,0 Q 1.88,0 1.90,1.72 1.91,3.44 1.98,4.75 2.04,6.06 2.22,8.23 2.41,10.39 2.74,12.77 3.07,15.15 3.55,16.64 4.04,18.14 4.47,20.62 4.91,23.11 5.43,24.61 5.95,26.12 6.41,28.61 6.86,31.11 7.39,32.61 7.92,34.12 8.47,35.28 9.02,36.44 9.78,37.70 10.54,38.97 11.22,40.11 11.89,41.26 13.03,42.23 14.16,43.19 15.51,42.57 16.87,41.94 17.89,40.99 18.92,40.04 20.53,38.75 22.14,37.46 23.20,36.39 24.26,35.32 26.59,34.93 28.93,34.55 29.92,35.04 30.92,35.53 31.83,36.89 32.73,38.25 33.46,39.77 34.20,41.28 34.94,42.78 35.69,44.27 35.90,44.74 36.10,45.22 36.14,45.74 36.19,46.25 36.06,46.75 35.94,47.26 35.66,47.69 35.38,48.13 34.98,48.46 34.57,48.78 34.09,48.96 33.60,49.14 33.08,49.15 32.57,49.17 32.07,49.02 31.58,48.86 31.15,48.56 30.73,48.26 30.43,47.84 30.13,47.42 29.98,46.93 29.82,46.43 29.84,45.91 29.85,45.39 30.03,44.91 30.21,44.42 30.53,44.02 30.85,43.61 31.29,43.33 31.73,43.06 32.23,42.93 32.73,42.80 33.25,42.85 33.76,42.89 34.24,43.09 34.72,43.30 35.10,43.64 35.49,43.99 35.74,44.44 36.00,44.89 36.10,45.40 36.20,45.91 36.13,46.42 36.06,46.93 35.83,47.40 35.60,47.86 35.23,48.23 34.87,48.59 34.40,48.82 33.94,49.05 33.42,49.13 32.91,49.20 32.40,49.10 31.89,49.00 31.44,48.75 30.99,48.49 30.64,48.11 30.30,47.72 30.30,47.72 30.30,47.72 29.40,45.88 28.50,44.04 27.65,42.25 26.80,40.47 26.07,41.30 25.33,42.14 23.94,43.15 22.56,44.17 21.53,45.03 20.50,45.90 19.55,46.41 18.61,46.92 16.71,47.20 14.81,47.49 13.37,47.22 11.92,46.96 11.08,46.21 10.24,45.45 9.25,44.37 8.26,43.28 7.69,42.09 7.12,40.90 6.31,39.37 5.49,37.85 5.05,36.50 4.60,35.15 4.13,33.46 3.66,31.77 3.12,29.46 2.58,27.15 2.12,25.46 1.65,23.77 1.12,21.45 0.59,19.13 0.15,17.43 -0.28,15.72 -0.77,13.29 -1.26,10.85 -1.65,8.46 -2.04,6.06 -1.98,4.75 -1.91,3.44 -1.90,1.72 -1.88,0 -1.85,-0.22 -1.83,-0.45 -1.75,-0.66 -1.67,-0.87 -1.54,-1.06 -1.41,-1.25 -1.24,-1.40 -1.07,-1.55 -0.87,-1.65 -0.66,-1.76 -0.44,-1.81 -0.22,-1.87 0.00,-1.87 0.22,-1.87 0.44,-1.81 0.66,-1.76 0.87,-1.65 1.07,-1.55 1.24,-1.40 1.41,-1.25 1.54,-1.06 1.67,-0.87 1.75,-0.66 1.83,-0.45 1.85,-0.22 1.88,0.00 1.88,0.00 L 1.88,0 Z"></path></g><g transform="translate(559.0001831054688 114.99996948242188) rotate(0 5.9998779296875 -3.5)" stroke="none"><path fill="#1e1e1e" d="M -1.10,-2.20 Q -1.10,-2.20 0.04,-2.79 1.18,-3.38 2.23,-3.94 3.29,-4.49 4.68,-5.33 6.08,-6.16 8.39,-8.03 10.69,-9.90 10.53,-10.97 10.37,-12.04 9.05,-12.41 7.72,-12.78 6.41,-12.65 5.10,-12.52 3.86,-11.86 2.61,-11.19 1.54,-9.78 0.47,-8.37 0.83,-6.14 1.20,-3.92 2.36,-2.25 3.52,-0.59 4.33,0.63 5.14,1.85 6.07,2.68 6.99,3.50 7.81,4.23 8.62,4.95 10.13,5.48 11.64,6.02 12.98,5.10 14.33,4.18 14.66,4.26 14.99,4.35 15.29,4.50 15.60,4.66 15.85,4.89 16.11,5.11 16.30,5.39 16.50,5.67 16.62,5.99 16.74,6.31 16.78,6.65 16.83,6.99 16.79,7.33 16.75,7.66 16.63,7.98 16.50,8.30 16.31,8.58 16.12,8.87 15.86,9.09 15.61,9.32 15.31,9.48 15.01,9.64 14.68,9.72 14.34,9.80 14.00,9.81 13.66,9.81 12.41,8.34 11.17,6.87 11.26,6.42 11.36,5.97 11.59,5.58 11.82,5.18 12.17,4.88 12.51,4.58 12.94,4.41 13.36,4.24 13.82,4.21 14.28,4.18 14.72,4.30 15.16,4.42 15.54,4.67 15.92,4.92 16.20,5.28 16.48,5.65 16.63,6.08 16.78,6.51 16.79,6.97 16.79,7.43 16.65,7.86 16.51,8.30 16.23,8.67 15.96,9.03 15.58,9.29 15.21,9.55 14.77,9.68 14.33,9.81 13.87,9.79 13.41,9.76 12.98,9.60 12.56,9.43 12.21,9.14 11.85,8.85 11.61,8.46 11.37,8.07 11.27,7.62 11.17,7.17 11.22,6.72 11.26,6.26 11.45,5.84 11.64,5.43 11.95,5.09 12.26,4.76 12.66,4.54 13.07,4.32 13.52,4.24 13.97,4.16 14.42,4.23 14.87,4.30 15.28,4.52 15.69,4.73 16.01,5.06 16.32,5.39 16.52,5.80 16.72,6.21 15.52,5.20 14.33,4.18 14.66,4.26 14.99,4.35 15.29,4.50 15.60,4.66 15.85,4.89 16.11,5.11 16.30,5.39 16.50,5.67 16.62,5.99 16.74,6.31 16.78,6.65 16.83,6.99 16.79,7.33 16.75,7.66 16.63,7.98 16.51,8.30 16.31,8.58 16.12,8.87 15.86,9.09 15.61,9.32 15.31,9.48 15.01,9.64 14.68,9.72 14.34,9.80 14.00,9.81 13.66,9.81 13.19,10.66 12.71,11.51 10.38,11.00 8.04,10.48 5.78,8.94 3.53,7.39 2.10,6.12 0.68,4.85 0.02,3.85 -0.62,2.85 -1.92,1.34 -3.21,-0.16 -3.73,-1.39 -4.26,-2.62 -4.70,-4.21 -5.14,-5.81 -5.24,-7.37 -5.34,-8.94 -4.93,-10.04 -4.52,-11.13 -3.58,-12.71 -2.65,-14.28 -1.57,-15.20 -0.49,-16.13 0.48,-16.69 1.46,-17.24 2.68,-17.68 3.90,-18.11 5.41,-18.33 6.91,-18.55 8.23,-18.31 9.55,-18.07 11.61,-17.21 13.67,-16.34 14.69,-15.33 15.72,-14.32 16.10,-13.13 16.49,-11.94 16.24,-10.59 16.00,-9.24 15.11,-7.93 14.21,-6.63 11.75,-4.24 9.28,-1.85 7.42,-0.89 5.56,0.07 4.49,0.57 3.41,1.08 2.25,1.64 1.10,2.20 0.82,2.30 0.54,2.40 0.24,2.43 -0.04,2.46 -0.34,2.41 -0.63,2.37 -0.91,2.26 -1.18,2.15 -1.42,1.98 -1.66,1.80 -1.86,1.58 -2.05,1.35 -2.18,1.09 -2.31,0.82 -2.38,0.53 -2.44,0.24 -2.44,-0.04 -2.43,-0.34 -2.36,-0.63 -2.28,-0.91 -2.14,-1.17 -1.99,-1.43 -1.79,-1.65 -1.59,-1.87 -1.34,-2.03 -1.10,-2.20 -1.10,-2.20 L -1.10,-2.20 Z"></path></g><g transform="translate(312.99993896484375 177.99996948242188) rotate(0 14 11.5)" stroke="none"><path fill="#1e1e1e" d="M 2.32,1.16 Q 2.32,1.16 1.75,2.31 1.19,3.46 0.69,4.70 0.19,5.94 0.00,7.66 -0.18,9.39 0.04,11.08 0.27,12.76 0.72,14.21 1.17,15.65 2.34,15.88 3.51,16.11 4.21,14.94 4.90,13.78 5.44,12.75 5.99,11.72 7.40,11.04 8.81,10.35 10.19,10.52 11.57,10.68 13.32,12.11 15.07,13.53 16.54,15.01 18.01,16.49 19.36,17.43 20.70,18.36 21.63,18.98 22.56,19.60 23.72,19.66 24.89,19.73 26.28,18.39 27.68,17.06 27.74,15.45 27.79,13.84 27.42,12.65 27.05,11.46 26.75,9.91 26.45,8.36 25.83,6.42 25.21,4.49 25.53,2.48 25.84,0.47 26.01,-0.01 26.18,-0.50 26.49,-0.91 26.81,-1.32 27.24,-1.61 27.66,-1.90 28.16,-2.04 28.66,-2.17 29.18,-2.14 29.69,-2.11 30.17,-1.92 30.65,-1.73 31.05,-1.39 31.44,-1.05 31.70,-0.61 31.97,-0.17 32.08,0.33 32.19,0.83 32.13,1.35 32.07,1.86 31.85,2.33 31.63,2.80 31.28,3.17 30.92,3.55 30.46,3.79 30.00,4.03 29.49,4.11 28.98,4.19 28.47,4.10 27.96,4.02 27.51,3.77 27.05,3.53 26.70,3.15 26.34,2.78 26.13,2.31 25.91,1.84 25.86,1.32 25.81,0.81 25.92,0.30 26.03,-0.19 26.30,-0.63 26.57,-1.07 26.96,-1.41 27.36,-1.74 27.84,-1.93 28.32,-2.12 28.84,-2.14 29.35,-2.17 29.85,-2.03 30.35,-1.89 30.78,-1.60 31.20,-1.31 31.51,-0.89 31.82,-0.48 31.99,0.00 32.15,0.49 32.15,1.01 32.15,1.53 32.15,1.52 32.15,1.52 31.82,2.86 31.49,4.20 31.97,5.30 32.44,6.40 32.83,7.73 33.21,9.06 33.28,10.22 33.35,11.39 33.65,12.75 33.95,14.11 33.89,15.66 33.83,17.21 32.96,19.48 32.09,21.75 31.46,22.75 30.82,23.75 29.83,24.53 28.84,25.31 26.55,25.64 24.27,25.98 23.09,25.85 21.91,25.71 19.92,24.84 17.93,23.97 15.72,22.51 13.50,21.05 12.05,19.67 10.61,18.30 10.66,17.09 10.70,15.88 9.89,17.20 9.09,18.51 8.35,19.43 7.62,20.34 5.58,21.29 3.54,22.24 1.97,22.32 0.40,22.40 -1.34,21.00 -3.08,19.61 -3.63,18.66 -4.17,17.72 -4.62,15.93 -5.07,14.15 -5.36,12.73 -5.65,11.30 -5.59,10.14 -5.53,8.97 -5.07,6.51 -4.61,4.05 -4.05,2.59 -3.49,1.13 -2.90,-0.01 -2.32,-1.16 -2.15,-1.42 -1.98,-1.68 -1.74,-1.89 -1.51,-2.11 -1.24,-2.26 -0.96,-2.41 -0.66,-2.49 -0.36,-2.57 -0.05,-2.58 0.26,-2.58 0.56,-2.51 0.87,-2.44 1.15,-2.30 1.43,-2.16 1.67,-1.96 1.91,-1.76 2.09,-1.50 2.27,-1.25 2.39,-0.96 2.51,-0.67 2.55,-0.36 2.60,-0.05 2.56,0.26 2.53,0.57 2.43,0.86 2.32,1.16 2.32,1.16 L 2.32,1.16 Z"></path></g><g transform="translate(361.99993896484375 198.99996948242188) rotate(0 8.5 -2.5)" stroke="none"><path fill="#1e1e1e" d="M -0.61,-2.47 Q -0.61,-2.47 0.51,-2.78 1.65,-3.08 2.54,-3.80 3.44,-4.52 4.36,-5.08 5.28,-5.64 6.34,-7.62 7.40,-9.61 6.35,-9.35 5.29,-9.09 4.21,-7.93 3.14,-6.77 3.18,-5.42 3.22,-4.07 3.92,-2.18 4.62,-0.30 5.33,0.61 6.03,1.52 7.20,2.76 8.36,4.00 9.73,4.38 11.11,4.75 12.98,3.20 14.86,1.64 15.29,1.36 15.73,1.08 16.22,0.96 16.72,0.83 17.23,0.87 17.75,0.91 18.22,1.11 18.69,1.31 19.08,1.65 19.46,1.99 19.72,2.44 19.97,2.88 20.07,3.39 20.17,3.89 20.10,4.40 20.04,4.91 19.81,5.37 19.58,5.84 19.22,6.20 18.86,6.57 18.40,6.80 17.94,7.03 17.43,7.10 16.92,7.17 16.42,7.08 15.91,6.98 15.47,6.73 15.02,6.48 14.67,6.10 14.33,5.72 14.12,5.25 13.92,4.78 13.87,4.26 13.83,3.75 13.95,3.25 14.07,2.75 14.35,2.32 14.62,1.89 15.02,1.56 15.42,1.24 15.90,1.06 16.38,0.88 16.90,0.86 17.41,0.85 17.90,0.99 18.39,1.14 18.81,1.44 19.23,1.74 19.53,2.15 19.83,2.57 19.99,3.06 20.14,3.55 20.13,4.07 20.12,4.58 19.94,5.06 19.77,5.55 19.45,5.95 19.13,6.35 19.13,6.35 19.13,6.35 17.30,7.90 15.46,9.44 12.92,10.19 10.39,10.94 8.25,10.34 6.11,9.74 5.03,8.97 3.95,8.21 2.67,6.76 1.38,5.32 0.35,4.10 -0.67,2.89 -1.51,1.54 -2.35,0.19 -2.72,-2.11 -3.08,-4.43 -2.82,-6.30 -2.55,-8.17 -1.19,-10.26 0.17,-12.35 1.22,-13.24 2.28,-14.12 3.95,-14.63 5.63,-15.13 7.70,-14.74 9.78,-14.35 10.67,-13.72 11.56,-13.08 12.09,-11.90 12.61,-10.72 12.47,-9.11 12.34,-7.51 11.07,-5.05 9.79,-2.59 9.02,-1.75 8.24,-0.92 6.67,0.02 5.10,0.97 4.02,1.45 2.94,1.93 1.78,2.20 0.61,2.47 0.31,2.51 0.00,2.55 -0.29,2.51 -0.60,2.48 -0.89,2.37 -1.17,2.26 -1.43,2.09 -1.68,1.91 -1.89,1.68 -2.09,1.45 -2.24,1.18 -2.38,0.91 -2.45,0.61 -2.53,0.31 -2.53,0.00 -2.53,-0.29 -2.46,-0.59 -2.39,-0.89 -2.24,-1.17 -2.10,-1.44 -1.90,-1.67 -1.69,-1.90 -1.44,-2.08 -1.19,-2.25 -0.90,-2.36 -0.61,-2.47 -0.61,-2.47 L -0.61,-2.47 Z"></path></g><g transform="translate(384.99993896484375 168.99996948242188) rotate(0 6 16)" stroke="none"><path fill="#1e1e1e" d="M 2.18,-0.36 Q 2.18,-0.36 2.44,1.36 2.70,3.09 3.04,4.93 3.38,6.78 3.62,8.23 3.85,9.68 4.41,11.20 4.96,12.71 5.54,13.96 6.12,15.21 6.88,16.90 7.63,18.59 8.26,19.48 8.90,20.36 9.55,22.15 10.20,23.94 11.07,25.59 11.95,27.23 13.11,29.13 14.27,31.02 14.37,31.41 14.46,31.79 14.43,32.19 14.40,32.59 14.24,32.96 14.08,33.33 13.81,33.63 13.55,33.93 13.20,34.12 12.85,34.32 12.46,34.40 12.06,34.47 11.66,34.42 11.27,34.36 10.91,34.18 10.55,34.01 10.27,33.72 9.98,33.44 9.80,33.08 9.63,32.72 9.57,32.32 9.52,31.93 9.59,31.53 9.67,31.14 9.87,30.79 10.06,30.44 10.36,30.17 10.66,29.91 11.03,29.75 11.40,29.59 11.80,29.56 12.20,29.53 12.59,29.62 12.97,29.72 13.31,29.94 13.65,30.15 13.90,30.46 14.15,30.78 14.29,31.15 14.43,31.53 14.44,31.93 14.45,32.33 14.33,32.71 14.21,33.10 13.98,33.42 13.75,33.75 13.42,33.98 13.09,34.21 12.71,34.33 12.33,34.45 11.93,34.44 11.53,34.43 11.15,34.29 10.77,34.15 10.46,33.90 10.15,33.65 9.93,33.31 9.72,32.97 9.72,32.97 9.72,32.97 8.47,30.32 7.22,27.66 6.68,26.52 6.15,25.38 5.68,24.01 5.22,22.64 4.59,21.49 3.95,20.35 3.08,18.62 2.20,16.90 1.66,15.52 1.11,14.15 0.37,12.20 -0.37,10.24 -0.48,8.94 -0.59,7.64 -1.07,5.72 -1.55,3.80 -1.87,2.08 -2.18,0.36 -2.19,0.09 -2.21,-0.16 -2.15,-0.43 -2.10,-0.69 -1.99,-0.93 -1.87,-1.17 -1.71,-1.38 -1.54,-1.59 -1.32,-1.75 -1.11,-1.91 -0.87,-2.02 -0.62,-2.12 -0.36,-2.17 -0.09,-2.21 0.16,-2.19 0.43,-2.17 0.68,-2.09 0.94,-2.00 1.16,-1.86 1.39,-1.72 1.58,-1.53 1.76,-1.33 1.90,-1.10 2.03,-0.87 2.11,-0.62 2.18,-0.36 2.18,-0.36 L 2.18,-0.36 Z"></path></g><g transform="translate(400.99993896484375 165.99996948242188) rotate(0 4.5 14.5)" stroke="none"><path fill="#1e1e1e" d="M 1.88,-0.31 Q 1.88,-0.31 2.18,1.40 2.47,3.13 2.67,4.50 2.86,5.87 3.10,8.11 3.33,10.34 3.94,12.33 4.55,14.31 4.95,15.88 5.35,17.44 5.79,18.85 6.24,20.26 7.41,22.45 8.57,24.64 9.53,26.40 10.48,28.16 10.58,28.42 10.67,28.68 10.68,28.95 10.69,29.23 10.61,29.49 10.52,29.76 10.36,29.98 10.20,30.21 9.98,30.37 9.75,30.53 9.49,30.61 9.22,30.69 8.95,30.68 8.67,30.67 8.41,30.58 8.15,30.48 7.94,30.31 7.72,30.13 7.57,29.90 7.42,29.67 7.36,29.40 7.29,29.13 7.31,28.85 7.34,28.58 7.45,28.33 7.56,28.07 7.74,27.87 7.93,27.66 8.17,27.53 8.41,27.39 8.68,27.34 8.95,27.29 9.23,27.32 9.50,27.36 9.75,27.49 9.99,27.61 10.19,27.81 10.38,28.00 10.51,28.25 10.63,28.50 10.67,28.77 10.70,29.04 10.65,29.32 10.60,29.59 10.46,29.83 10.32,30.07 10.12,30.25 9.91,30.44 9.66,30.55 9.40,30.65 9.13,30.68 8.85,30.70 8.58,30.63 8.32,30.56 8.08,30.41 7.85,30.26 7.68,30.05 7.51,29.83 7.51,29.83 7.51,29.83 6.50,28.10 5.49,26.38 4.01,23.85 2.52,21.33 2.13,19.76 1.74,18.19 1.53,16.80 1.31,15.41 0.48,13.16 -0.33,10.90 -0.78,8.58 -1.22,6.25 -1.27,5.01 -1.32,3.76 -1.60,2.04 -1.88,0.31 -1.89,0.08 -1.90,-0.14 -1.86,-0.37 -1.81,-0.59 -1.71,-0.80 -1.62,-1.01 -1.47,-1.19 -1.33,-1.37 -1.14,-1.51 -0.96,-1.65 -0.75,-1.74 -0.53,-1.83 -0.31,-1.87 -0.08,-1.91 0.14,-1.89 0.37,-1.87 0.59,-1.80 0.81,-1.73 1.00,-1.60 1.20,-1.48 1.36,-1.32 1.52,-1.15 1.64,-0.95 1.75,-0.75 1.82,-0.53 1.88,-0.31 1.88,-0.31 L 1.88,-0.31 Z"></path></g><g transform="translate(425.99993896484375 192.99996948242188) rotate(0 8.5 -2.5)" stroke="none"><path fill="#1e1e1e" d="M -1.18,-2.36 Q -1.18,-2.36 -0.03,-2.94 1.11,-3.51 2.14,-4.04 3.17,-4.56 4.01,-5.66 4.86,-6.76 6.49,-8.14 8.11,-9.52 8.47,-10.72 8.83,-11.92 9.32,-10.86 9.82,-9.80 8.89,-9.04 7.97,-8.27 7.19,-7.02 6.40,-5.76 5.90,-4.28 5.39,-2.81 5.85,-0.81 6.32,1.17 7.21,1.91 8.10,2.64 9.28,3.60 10.47,4.55 11.86,4.64 13.25,4.73 14.75,4.27 16.25,3.81 16.78,3.77 17.31,3.74 17.82,3.87 18.33,4.01 18.77,4.30 19.22,4.59 19.54,5.01 19.87,5.43 20.04,5.93 20.22,6.43 20.22,6.96 20.23,7.49 20.07,7.99 19.90,8.49 19.59,8.92 19.27,9.34 18.84,9.65 18.40,9.95 17.90,10.09 17.39,10.24 16.86,10.22 16.33,10.20 15.84,10.01 15.34,9.82 14.93,9.48 14.53,9.14 14.25,8.69 13.97,8.24 13.85,7.73 13.73,7.21 13.78,6.68 13.83,6.16 14.05,5.67 14.27,5.19 14.63,4.80 14.99,4.41 15.45,4.16 15.91,3.91 16.44,3.82 16.96,3.72 17.48,3.80 18.00,3.88 18.47,4.13 18.94,4.37 19.31,4.75 19.68,5.13 19.91,5.61 20.14,6.08 20.20,6.61 20.26,7.13 20.16,7.65 20.05,8.17 19.78,8.63 19.51,9.08 19.11,9.43 18.71,9.78 18.22,9.98 17.74,10.18 17.74,10.18 17.74,10.18 16.01,10.67 14.27,11.16 12.82,11.08 11.37,11.01 9.21,10.41 7.05,9.81 5.33,8.42 3.62,7.03 2.81,6.22 2.00,5.41 1.25,4.40 0.50,3.38 0.06,2.21 -0.38,1.04 -0.70,-0.26 -1.03,-1.58 -0.94,-2.79 -0.85,-4.00 -0.13,-6.20 0.57,-8.41 1.08,-9.43 1.59,-10.45 2.55,-11.76 3.50,-13.08 4.80,-14.15 6.11,-15.22 7.34,-15.67 8.57,-16.12 9.96,-16.00 11.34,-15.89 12.33,-15.45 13.31,-15.01 13.91,-13.95 14.50,-12.90 14.56,-11.56 14.61,-10.21 13.75,-8.39 12.90,-6.57 11.50,-5.32 10.10,-4.07 8.75,-2.74 7.40,-1.41 6.54,-0.64 5.68,0.13 4.58,0.67 3.48,1.21 2.33,1.79 1.18,2.36 0.88,2.46 0.58,2.57 0.26,2.60 -0.05,2.64 -0.36,2.59 -0.68,2.55 -0.97,2.43 -1.27,2.31 -1.53,2.12 -1.78,1.94 -1.99,1.69 -2.20,1.45 -2.34,1.17 -2.48,0.88 -2.55,0.57 -2.62,0.26 -2.62,-0.05 -2.61,-0.36 -2.53,-0.67 -2.45,-0.98 -2.29,-1.26 -2.14,-1.54 -1.92,-1.77 -1.71,-2.01 -1.44,-2.18 -1.18,-2.36 -1.18,-2.36 L -1.18,-2.36 Z"></path></g><g transform="translate(451.99993896484375 194.99996948242188) rotate(0 8 -5)" stroke="none"><path fill="#1e1e1e" d="M -2.27,-1.13 Q -2.27,-1.13 -1.71,-2.29 -1.15,-3.44 -0.97,-4.55 -0.79,-5.66 0.02,-7.04 0.84,-8.41 2.30,-10.32 3.76,-12.22 6.06,-12.43 8.35,-12.63 9.58,-12.30 10.81,-11.97 11.74,-11.43 12.67,-10.89 13.58,-9.83 14.49,-8.76 15.29,-7.11 16.09,-5.47 16.88,-3.38 17.67,-1.30 17.79,-0.96 17.90,-0.62 17.93,-0.26 17.97,0.09 17.91,0.44 17.86,0.79 17.72,1.13 17.58,1.46 17.37,1.74 17.16,2.03 16.88,2.26 16.61,2.49 16.29,2.65 15.96,2.81 15.61,2.88 15.26,2.96 14.90,2.95 14.55,2.93 14.20,2.84 13.86,2.74 13.54,2.57 13.23,2.39 12.97,2.14 12.71,1.90 12.52,1.60 12.32,1.30 12.77,1.84 13.23,2.39 12.89,2.04 12.56,1.70 12.35,1.26 12.14,0.83 12.08,0.35 12.02,-0.12 12.12,-0.59 12.22,-1.06 12.46,-1.47 12.70,-1.89 13.07,-2.21 13.43,-2.52 13.87,-2.71 14.32,-2.89 14.80,-2.92 15.28,-2.95 15.74,-2.83 16.21,-2.71 16.61,-2.44 17.01,-2.18 17.31,-1.80 17.60,-1.42 17.76,-0.97 17.92,-0.51 17.93,-0.03 17.93,0.44 17.79,0.90 17.64,1.35 17.35,1.74 17.07,2.13 16.67,2.40 16.28,2.68 15.82,2.81 15.36,2.95 14.87,2.93 14.39,2.91 13.94,2.73 13.50,2.56 13.13,2.26 12.75,1.95 12.50,1.54 12.25,1.13 12.14,0.66 12.03,0.19 12.07,-0.27 12.12,-0.75 12.32,-1.19 12.51,-1.63 12.84,-1.98 13.17,-2.34 13.59,-2.57 14.01,-2.80 14.48,-2.88 14.96,-2.97 15.43,-2.90 15.91,-2.82 16.79,-2.06 17.67,-1.30 17.79,-0.96 17.90,-0.62 17.93,-0.26 17.97,0.09 17.91,0.44 17.86,0.79 17.72,1.13 17.58,1.46 17.37,1.74 17.16,2.03 16.88,2.26 16.61,2.49 16.29,2.65 15.96,2.81 15.61,2.88 15.26,2.96 14.91,2.95 14.55,2.93 14.20,2.84 13.86,2.74 13.54,2.57 13.23,2.39 12.97,2.14 12.71,1.90 12.52,1.60 12.32,1.30 11.99,0.10 11.67,-1.08 10.80,-2.96 9.94,-4.84 9.41,-5.86 8.89,-6.87 7.75,-7.04 6.60,-7.20 5.55,-5.85 4.49,-4.50 3.97,-2.83 3.45,-1.15 2.86,-0.00 2.27,1.13 2.10,1.39 1.93,1.64 1.71,1.85 1.48,2.06 1.21,2.21 0.94,2.36 0.65,2.44 0.35,2.52 0.04,2.52 -0.25,2.53 -0.55,2.46 -0.85,2.39 -1.13,2.25 -1.40,2.12 -1.63,1.92 -1.87,1.72 -2.05,1.47 -2.23,1.22 -2.34,0.94 -2.45,0.65 -2.50,0.35 -2.54,0.04 -2.51,-0.25 -2.48,-0.56 -2.37,-0.84 -2.27,-1.13 -2.27,-1.13 L -2.27,-1.13 Z"></path></g><g transform="translate(502.99993896484375 176.99996948242188) rotate(0 -9 9.5)" stroke="none"><path fill="#1e1e1e" d="M -2.06,0.58 Q -2.06,0.58 -2.53,-1.44 -3.01,-3.48 -3.75,-5.06 -4.48,-6.64 -5.17,-7.92 -5.85,-9.19 -6.87,-11.17 -7.89,-13.15 -8.90,-14.47 -9.91,-15.80 -11.14,-17.22 -12.38,-18.64 -13.22,-19.45 -14.06,-20.26 -15.32,-20.49 -16.59,-20.73 -16.47,-19.28 -16.35,-17.83 -15.61,-14.88 -14.87,-11.92 -14.14,-10.24 -13.42,-8.55 -12.75,-6.85 -12.08,-5.16 -10.78,-2.51 -9.48,0.14 -8.61,2.56 -7.74,4.98 -6.55,7.97 -5.36,10.96 -4.30,13.38 -3.25,15.79 -2.21,18.60 -1.17,21.41 -0.45,23.46 0.25,25.52 0.58,27.96 0.91,30.41 1.40,31.86 1.89,33.32 1.84,35.37 1.79,37.42 1.84,38.48 1.90,39.55 1.56,40.68 1.22,41.80 -0.33,42.89 -1.88,43.98 -3.22,43.80 -4.56,43.62 -5.52,43.12 -6.49,42.61 -8.32,39.99 -10.16,37.37 -10.32,36.99 -10.48,36.61 -10.52,36.20 -10.55,35.78 -10.45,35.38 -10.35,34.98 -10.12,34.63 -9.90,34.28 -9.58,34.02 -9.25,33.76 -8.86,33.62 -8.47,33.48 -8.06,33.47 -7.64,33.46 -7.25,33.58 -6.85,33.70 -6.52,33.94 -6.18,34.19 -5.94,34.52 -5.70,34.86 -5.58,35.26 -5.46,35.65 -5.47,36.07 -5.48,36.48 -5.62,36.87 -5.77,37.26 -6.03,37.58 -6.29,37.91 -6.64,38.13 -6.99,38.35 -7.39,38.45 -7.79,38.55 -8.20,38.52 -8.62,38.48 -9.00,38.32 -9.38,38.15 -9.69,37.87 -10.00,37.60 -10.20,37.24 -10.40,36.87 -10.48,36.47 -10.56,36.06 -10.50,35.65 -10.44,35.24 -10.26,34.87 -10.07,34.50 -9.78,34.20 -9.49,33.91 -9.11,33.73 -8.74,33.54 -8.33,33.49 -7.92,33.43 -7.51,33.51 -7.11,33.59 -6.75,33.80 -6.39,34.00 -6.11,34.31 -5.83,34.62 -5.83,34.62 -5.83,34.62 -4.07,37.32 -2.32,40.01 -1.89,38.62 -1.47,37.22 -1.30,35.65 -1.13,34.08 -1.48,32.43 -1.83,30.78 -2.12,28.62 -2.41,26.46 -3.16,24.45 -3.90,22.44 -4.96,19.74 -6.01,17.05 -7.15,14.62 -8.30,12.19 -9.60,9.20 -10.90,6.21 -11.82,4.03 -12.73,1.85 -14.29,-0.89 -15.85,-3.65 -16.48,-5.21 -17.12,-6.78 -18.12,-8.70 -19.12,-10.62 -19.98,-12.90 -20.84,-15.19 -21.07,-16.69 -21.30,-18.19 -20.44,-20.85 -19.59,-23.52 -18.30,-24.15 -17.02,-24.77 -15.79,-24.59 -14.56,-24.40 -13.00,-23.72 -11.43,-23.04 -10.58,-22.03 -9.73,-21.01 -8.35,-19.50 -6.96,-17.99 -5.85,-16.47 -4.75,-14.95 -3.51,-12.94 -2.26,-10.94 -1.67,-9.60 -1.08,-8.27 -0.18,-6.41 0.71,-4.56 1.38,-2.57 2.06,-0.58 2.10,-0.33 2.14,-0.07 2.12,0.17 2.09,0.43 2.01,0.68 1.93,0.92 1.79,1.14 1.65,1.36 1.46,1.54 1.28,1.71 1.05,1.84 0.83,1.97 0.58,2.04 0.33,2.11 0.07,2.12 -0.18,2.13 -0.43,2.08 -0.68,2.03 -0.91,1.92 -1.15,1.80 -1.35,1.64 -1.55,1.47 -1.70,1.27 -1.86,1.06 -1.96,0.82 -2.06,0.58 -2.06,0.58 L -2.06,0.58 Z"></path></g><g transform="translate(491.99993896484375 199.99996948242188) rotate(0 7.5 -6)" stroke="none"><path fill="#1e1e1e" d="M -2.31,-0.77 Q -2.31,-0.77 -1.67,-2.47 -1.03,-4.18 -0.47,-5.39 0.08,-6.59 0.58,-7.63 1.07,-8.67 2.10,-9.76 3.14,-10.85 4.38,-11.72 5.62,-12.59 8.08,-13.13 10.54,-13.67 12.55,-14.08 14.55,-14.49 14.97,-14.50 15.38,-14.50 15.77,-14.38 16.16,-14.25 16.49,-14.00 16.81,-13.76 17.05,-13.42 17.28,-13.09 17.40,-12.69 17.51,-12.30 17.49,-11.89 17.48,-11.48 17.33,-11.10 17.18,-10.71 16.92,-10.40 16.66,-10.08 16.31,-9.87 15.96,-9.65 15.56,-9.56 15.16,-9.47 14.75,-9.50 14.35,-9.54 13.97,-9.71 13.60,-9.88 13.30,-10.16 12.99,-10.44 12.80,-10.80 12.60,-11.16 12.53,-11.56 12.46,-11.97 12.52,-12.37 12.58,-12.78 12.77,-13.14 12.96,-13.51 13.25,-13.79 13.55,-14.08 13.92,-14.25 14.29,-14.43 14.70,-14.48 15.10,-14.53 15.50,-14.44 15.91,-14.36 16.26,-14.15 16.61,-13.95 16.88,-13.64 17.15,-13.33 17.31,-12.95 17.46,-12.57 17.49,-12.16 17.52,-11.75 17.41,-11.35 17.31,-10.96 17.08,-10.62 16.86,-10.27 16.53,-10.02 16.21,-9.77 15.82,-9.63 15.43,-9.50 15.43,-9.50 15.44,-9.50 13.55,-9.22 11.66,-8.94 10.20,-8.55 8.73,-8.16 7.07,-7.25 5.40,-6.33 4.37,-4.52 3.33,-2.71 2.82,-0.97 2.31,0.77 2.18,1.03 2.06,1.30 1.87,1.52 1.68,1.75 1.45,1.93 1.21,2.10 0.94,2.22 0.67,2.34 0.38,2.38 0.09,2.43 -0.19,2.41 -0.48,2.38 -0.76,2.29 -1.04,2.20 -1.29,2.04 -1.54,1.88 -1.74,1.67 -1.94,1.46 -2.09,1.21 -2.24,0.95 -2.32,0.67 -2.40,0.39 -2.41,0.09 -2.42,-0.19 -2.37,-0.48 -2.31,-0.77 -2.31,-0.77 L -2.31,-0.77 Z"></path></g><g transform="translate(525.9999389648438 192.99996948242188) rotate(0 3 -1)" stroke="none"><path fill="#1e1e1e" d="M 2.48,0.35 Q 2.48,0.35 2.07,2.34 1.66,4.34 1.87,5.94 2.09,7.54 2.03,7.83 1.96,8.12 1.83,8.38 1.69,8.65 1.50,8.87 1.31,9.10 1.06,9.27 0.82,9.44 0.55,9.55 0.27,9.66 -0.01,9.70 -0.31,9.74 -0.60,9.71 -0.90,9.68 -1.18,9.57 -1.46,9.47 -1.70,9.31 -1.95,9.14 -2.15,8.92 -2.35,8.70 -2.49,8.44 -2.63,8.18 -2.71,7.90 -2.78,7.61 -2.79,7.31 -2.79,7.02 -2.72,5.53 -2.64,4.05 -2.32,2.77 -2.00,1.49 -1.57,-0.13 -1.14,-1.76 -0.68,-3.31 -0.22,-4.86 0.32,-5.78 0.88,-6.70 1.95,-8.00 3.03,-9.30 3.58,-10.24 4.13,-11.19 4.39,-11.62 4.66,-12.04 5.05,-12.36 5.44,-12.68 5.91,-12.86 6.38,-13.04 6.88,-13.06 7.38,-13.08 7.86,-12.94 8.34,-12.79 8.75,-12.50 9.17,-12.22 9.46,-11.81 9.76,-11.41 9.91,-10.93 10.07,-10.45 10.06,-9.95 10.05,-9.44 9.88,-8.97 9.72,-8.50 9.41,-8.10 9.10,-7.71 8.67,-7.43 8.25,-7.16 7.77,-7.03 7.28,-6.90 6.78,-6.94 6.28,-6.97 5.82,-7.17 5.35,-7.36 4.97,-7.69 4.60,-8.02 4.34,-8.46 4.09,-8.89 3.99,-9.38 3.89,-9.88 3.95,-10.37 4.02,-10.87 4.23,-11.33 4.45,-11.78 4.80,-12.14 5.15,-12.50 5.60,-12.73 6.05,-12.95 6.55,-13.03 7.04,-13.10 7.54,-13.01 8.03,-12.92 8.47,-12.68 8.91,-12.44 9.25,-12.07 9.59,-11.70 9.80,-11.24 10.00,-10.78 10.05,-10.28 10.09,-9.78 9.98,-9.29 9.86,-8.80 9.86,-8.80 9.86,-8.80 8.69,-6.97 7.52,-5.13 6.67,-4.25 5.82,-3.37 5.22,-2.38 4.61,-1.40 4.08,0.05 3.55,1.50 3.09,2.84 2.62,4.17 2.36,5.86 2.09,7.54 2.03,7.83 1.96,8.12 1.83,8.38 1.69,8.65 1.50,8.87 1.31,9.10 1.06,9.27 0.82,9.44 0.55,9.55 0.27,9.66 -0.01,9.70 -0.31,9.74 -0.60,9.71 -0.90,9.68 -1.18,9.57 -1.46,9.47 -1.70,9.31 -1.95,9.14 -2.15,8.92 -2.35,8.70 -2.49,8.44 -2.63,8.18 -2.71,7.90 -2.78,7.61 -2.79,7.31 -2.79,7.02 -2.96,6.63 -3.12,6.25 -2.96,4.97 -2.81,3.70 -2.64,1.67 -2.48,-0.35 -2.41,-0.64 -2.33,-0.94 -2.18,-1.20 -2.03,-1.47 -1.83,-1.69 -1.62,-1.91 -1.37,-2.08 -1.12,-2.25 -0.83,-2.35 -0.55,-2.45 -0.24,-2.48 0.05,-2.51 0.35,-2.47 0.65,-2.42 0.93,-2.31 1.21,-2.20 1.46,-2.02 1.70,-1.84 1.90,-1.61 2.09,-1.38 2.23,-1.11 2.36,-0.84 2.43,-0.54 2.50,-0.25 2.49,0.05 2.48,0.35 2.48,0.35 L 2.48,0.35 Z"></path></g><g transform="translate(544.9999389648438 180.99996948242188) rotate(0 2.5 6)" stroke="none"><path fill="#1e1e1e" d="M 2.16,1.08 Q 2.16,1.08 1.61,2.22 1.06,3.37 0.87,5.45 0.68,7.53 0.94,8.71 1.19,9.89 2.34,9.03 3.49,8.17 3.50,6.97 3.51,5.76 3.44,4.68 3.37,3.60 3.04,2.85 2.72,2.10 2.44,1.88 2.16,1.66 1.94,1.37 1.72,1.09 1.58,0.77 1.43,0.44 1.37,0.09 1.31,-0.25 1.33,-0.60 1.35,-0.96 1.46,-1.30 1.57,-1.64 1.75,-1.94 1.94,-2.24 2.19,-2.49 2.45,-2.74 2.75,-2.93 3.06,-3.11 3.40,-3.21 3.74,-3.32 4.09,-3.34 4.45,-3.36 4.80,-3.29 5.15,-3.22 5.47,-3.08 5.79,-2.93 5.85,-0.26 5.91,2.40 5.77,2.85 5.63,3.31 5.35,3.69 5.07,4.08 4.69,4.36 4.30,4.63 3.84,4.77 3.39,4.91 2.91,4.90 2.44,4.88 1.99,4.72 1.54,4.55 1.17,4.26 0.80,3.96 0.55,3.56 0.29,3.15 0.18,2.69 0.06,2.23 0.10,1.76 0.14,1.28 0.33,0.84 0.52,0.41 0.84,0.05 1.15,-0.29 1.57,-0.53 1.98,-0.76 2.45,-0.85 2.92,-0.94 3.39,-0.87 3.86,-0.81 4.29,-0.59 4.72,-0.38 5.05,-0.05 5.39,0.28 5.60,0.71 5.81,1.14 5.87,1.61 5.94,2.08 5.85,2.55 5.76,3.01 5.52,3.43 5.29,3.84 4.93,4.16 4.58,4.48 4.14,4.66 3.70,4.85 3.23,4.89 2.75,4.93 2.29,4.81 1.83,4.70 1.43,4.44 1.03,4.18 0.73,3.81 0.43,3.44 0.27,2.99 0.10,2.54 0.09,2.07 0.08,1.59 0.08,1.59 0.08,1.59 1.40,1.85 2.72,2.10 2.44,1.88 2.16,1.66 1.94,1.37 1.72,1.09 1.58,0.77 1.43,0.44 1.37,0.09 1.31,-0.25 1.33,-0.60 1.35,-0.96 1.46,-1.30 1.57,-1.64 1.75,-1.94 1.94,-2.24 2.19,-2.49 2.45,-2.74 2.75,-2.93 3.06,-3.11 3.40,-3.21 3.74,-3.32 4.09,-3.34 4.45,-3.36 4.80,-3.29 5.15,-3.22 5.47,-3.08 5.79,-2.93 6.80,-1.74 7.81,-0.56 8.28,0.66 8.76,1.89 8.75,3.59 8.75,5.30 8.72,6.88 8.70,8.46 8.00,9.95 7.30,11.43 5.62,13.01 3.93,14.59 1.11,14.77 -1.71,14.94 -2.85,13.18 -3.99,11.43 -4.18,9.25 -4.38,7.07 -4.23,5.81 -4.08,4.56 -3.72,2.89 -3.36,1.22 -2.76,0.07 -2.16,-1.08 -2.00,-1.32 -1.84,-1.56 -1.62,-1.76 -1.41,-1.96 -1.15,-2.10 -0.90,-2.24 -0.62,-2.32 -0.33,-2.39 -0.04,-2.40 0.24,-2.40 0.52,-2.34 0.81,-2.27 1.07,-2.14 1.33,-2.01 1.55,-1.82 1.77,-1.64 1.95,-1.40 2.12,-1.16 2.22,-0.89 2.33,-0.62 2.37,-0.33 2.41,-0.04 2.39,0.24 2.36,0.53 2.26,0.80 2.16,1.08 2.16,1.08 L 2.16,1.08 Z"></path></g><g transform="translate(560.9999389648438 192.99996948242188) rotate(0 6 -4.5)" stroke="none"><path fill="#1e1e1e" d="M -2.43,-0.97 Q -2.43,-0.97 -1.83,-2.40 -1.22,-3.83 -0.63,-4.92 -0.04,-6.01 1.58,-7.70 3.21,-9.39 4.65,-10.36 6.10,-11.34 8.12,-11.39 10.13,-11.44 11.09,-10.87 12.05,-10.30 12.88,-9.00 13.71,-7.70 13.92,-6.44 14.12,-5.17 14.13,-4.79 14.14,-4.40 14.05,-4.03 13.97,-3.65 13.80,-3.30 13.62,-2.96 13.37,-2.66 13.12,-2.37 12.81,-2.14 12.50,-1.92 12.14,-1.77 11.78,-1.63 11.40,-1.57 11.02,-1.52 10.63,-1.56 10.25,-1.60 9.88,-1.73 9.52,-1.86 9.20,-2.07 8.88,-2.28 8.62,-2.57 8.35,-2.85 8.17,-3.19 7.98,-3.53 7.88,-3.90 7.78,-4.27 8.31,-6.41 8.84,-8.55 9.01,-9.03 9.18,-9.52 9.50,-9.93 9.82,-10.34 10.25,-10.63 10.68,-10.91 11.18,-11.05 11.68,-11.18 12.20,-11.15 12.72,-11.11 13.19,-10.92 13.67,-10.72 14.07,-10.38 14.46,-10.04 14.72,-9.60 14.98,-9.15 15.09,-8.64 15.19,-8.14 15.13,-7.62 15.07,-7.11 14.85,-6.64 14.63,-6.17 14.27,-5.80 13.91,-5.43 13.45,-5.19 12.99,-4.95 12.47,-4.87 11.96,-4.79 11.45,-4.88 10.94,-4.97 10.49,-5.22 10.03,-5.47 9.68,-5.85 9.33,-6.23 9.11,-6.70 8.90,-7.17 8.85,-7.69 8.80,-8.20 8.92,-8.71 9.03,-9.21 9.30,-9.65 9.58,-10.09 9.97,-10.42 10.37,-10.76 10.86,-10.94 11.34,-11.13 11.86,-11.15 12.37,-11.17 12.87,-11.03 13.37,-10.89 13.80,-10.59 14.22,-10.30 14.53,-9.88 14.84,-9.47 15.00,-8.97 15.16,-8.48 15.15,-7.96 15.15,-7.44 15.15,-7.44 15.15,-7.44 14.64,-6.31 14.12,-5.17 14.13,-4.79 14.14,-4.40 14.05,-4.03 13.97,-3.65 13.80,-3.30 13.62,-2.96 13.37,-2.66 13.12,-2.37 12.81,-2.14 12.50,-1.92 12.14,-1.77 11.78,-1.63 11.40,-1.58 11.02,-1.52 10.63,-1.56 10.25,-1.60 9.89,-1.73 9.52,-1.86 9.20,-2.07 8.88,-2.28 8.62,-2.57 8.35,-2.85 8.17,-3.19 7.98,-3.53 7.88,-3.90 7.78,-4.27 7.82,-5.15 7.86,-6.03 6.61,-5.18 5.36,-4.33 4.44,-3.12 3.52,-1.91 2.98,-0.47 2.43,0.97 2.28,1.25 2.13,1.53 1.92,1.76 1.70,1.99 1.44,2.17 1.17,2.34 0.88,2.45 0.58,2.56 0.26,2.59 -0.04,2.62 -0.36,2.58 -0.67,2.53 -0.96,2.42 -1.26,2.30 -1.52,2.11 -1.77,1.93 -1.98,1.69 -2.18,1.45 -2.33,1.17 -2.47,0.88 -2.54,0.57 -2.61,0.26 -2.60,-0.04 -2.60,-0.36 -2.52,-0.67 -2.43,-0.97 -2.43,-0.97 L -2.43,-0.97 Z"></path></g><g transform="translate(583.9999389648438 165.99996948242188) rotate(0 3 13)" stroke="none"><path fill="#1e1e1e" d="M 2.19,-1.09 Q 2.19,-1.09 2.79,0.04 3.38,1.18 3.93,3.01 4.49,4.84 4.78,6.26 5.07,7.69 5.39,9.33 5.71,10.97 6.45,13.00 7.19,15.04 7.54,16.22 7.89,17.39 8.22,19.72 8.55,22.05 8.64,24.00 8.72,25.94 8.66,26.38 8.60,26.82 8.40,27.21 8.20,27.60 7.88,27.91 7.57,28.22 7.17,28.42 6.78,28.61 6.34,28.67 5.90,28.72 5.47,28.64 5.03,28.55 4.65,28.33 4.27,28.11 3.98,27.78 3.68,27.45 3.51,27.04 3.34,26.63 3.31,26.19 3.28,25.75 3.39,25.32 3.50,24.90 3.74,24.53 3.98,24.16 4.32,23.88 4.67,23.61 5.09,23.46 5.50,23.31 5.94,23.30 6.39,23.29 6.81,23.43 7.23,23.56 7.58,23.82 7.94,24.08 8.20,24.44 8.45,24.80 8.58,25.23 8.70,25.65 8.69,26.09 8.67,26.53 8.52,26.94 8.36,27.36 8.08,27.70 7.80,28.04 7.43,28.28 7.05,28.51 6.62,28.61 6.19,28.72 5.75,28.68 5.31,28.64 4.91,28.46 4.51,28.28 4.18,27.98 3.85,27.69 3.64,27.30 3.43,26.92 3.35,26.48 3.27,26.05 3.27,26.05 3.27,26.05 3.26,24.19 3.25,22.34 3.13,20.56 3.01,18.79 2.55,16.64 2.10,14.49 1.62,13.26 1.14,12.02 0.70,10.28 0.25,8.54 0.09,7.43 -0.06,6.31 -0.57,4.86 -1.08,3.41 -1.64,2.25 -2.19,1.09 -2.29,0.82 -2.39,0.54 -2.42,0.24 -2.45,-0.04 -2.41,-0.34 -2.37,-0.63 -2.26,-0.91 -2.15,-1.18 -1.98,-1.42 -1.80,-1.66 -1.58,-1.85 -1.35,-2.05 -1.09,-2.18 -0.82,-2.31 -0.53,-2.38 -0.24,-2.44 0.04,-2.44 0.34,-2.43 0.63,-2.35 0.91,-2.28 1.17,-2.13 1.43,-1.99 1.65,-1.79 1.87,-1.59 2.03,-1.34 2.19,-1.09 2.19,-1.09 L 2.19,-1.09 Z"></path></g><g transform="translate(589.0001831054688 187.99996948242188) rotate(0 10.9998779296875 -5)" stroke="none"><path fill="#1e1e1e" d="M -1.42,-1.89 Q -1.42,-1.89 -0.27,-2.76 0.86,-3.63 2.00,-4.37 3.14,-5.11 4.99,-6.50 6.84,-7.89 8.23,-8.42 9.61,-8.95 11.29,-9.35 12.97,-9.76 14.11,-10.20 15.25,-10.65 18.27,-11.54 21.29,-12.43 21.70,-12.48 22.10,-12.53 22.51,-12.45 22.91,-12.36 23.26,-12.16 23.62,-11.95 23.89,-11.64 24.16,-11.33 24.31,-10.95 24.47,-10.57 24.49,-10.16 24.52,-9.75 24.42,-9.35 24.31,-8.95 24.08,-8.61 23.86,-8.27 23.53,-8.02 23.21,-7.77 22.82,-7.63 22.43,-7.49 22.02,-7.49 21.61,-7.49 21.22,-7.61 20.83,-7.74 20.50,-7.98 20.17,-8.23 19.94,-8.57 19.70,-8.90 19.59,-9.30 19.47,-9.69 19.49,-10.10 19.51,-10.51 19.66,-10.90 19.80,-11.28 20.07,-11.60 20.33,-11.91 20.68,-12.13 21.03,-12.34 21.43,-12.44 21.83,-12.53 22.24,-12.49 22.65,-12.45 23.02,-12.28 23.40,-12.11 23.70,-11.83 24.00,-11.55 24.20,-11.19 24.39,-10.83 24.46,-10.43 24.53,-10.02 24.47,-9.62 24.41,-9.21 24.22,-8.85 24.03,-8.48 23.74,-8.20 23.44,-7.91 23.07,-7.73 22.70,-7.56 22.70,-7.56 22.70,-7.56 19.86,-6.75 17.02,-5.95 15.64,-5.45 14.27,-4.95 11.97,-4.32 9.67,-3.69 7.69,-2.32 5.71,-0.94 4.72,-0.37 3.73,0.18 2.57,1.04 1.42,1.89 1.17,2.04 0.92,2.18 0.65,2.26 0.37,2.34 0.09,2.35 -0.19,2.36 -0.47,2.30 -0.75,2.24 -1.01,2.12 -1.26,2.00 -1.49,1.82 -1.71,1.64 -1.88,1.41 -2.05,1.18 -2.16,0.92 -2.27,0.65 -2.32,0.37 -2.37,0.09 -2.34,-0.19 -2.32,-0.47 -2.23,-0.74 -2.14,-1.01 -1.98,-1.26 -1.83,-1.50 -1.62,-1.70 -1.42,-1.89 -1.42,-1.89 L -1.42,-1.89 Z"></path></g><g transform="translate(60.99993896484375 165.99990844726562) rotate(0 10 10)" stroke="none"><path fill="#1e1e1e" d="M 0,-2.57 Q 0,-2.57 1.44,-2.56 2.89,-2.55 4.38,-2.24 5.87,-1.93 6.96,-1.45 8.06,-0.97 9.24,-0.33 10.43,0.29 11.25,1.10 12.08,1.90 13.27,2.66 14.47,3.42 16.06,4.17 17.65,4.92 19.01,6.44 20.37,7.96 20.86,9.30 21.36,10.64 21.70,12.54 22.03,14.45 22.61,17.08 23.20,19.72 23.16,20.23 23.12,20.75 22.91,21.23 22.71,21.71 22.37,22.10 22.02,22.49 21.57,22.75 21.12,23.00 20.61,23.11 20.10,23.21 19.58,23.14 19.07,23.07 18.60,22.84 18.14,22.62 17.77,22.25 17.40,21.88 17.16,21.42 16.93,20.96 16.86,20.44 16.78,19.93 16.88,19.41 16.97,18.90 17.23,18.45 17.48,18.00 17.86,17.65 18.25,17.30 18.73,17.09 19.20,16.88 19.72,16.84 20.24,16.79 20.74,16.91 21.25,17.04 21.69,17.31 22.13,17.59 22.46,17.99 22.78,18.40 22.97,18.89 23.15,19.37 23.16,19.89 23.18,20.41 23.03,20.91 22.88,21.41 22.58,21.83 22.28,22.25 21.86,22.56 21.44,22.87 20.94,23.02 20.45,23.18 19.93,23.16 19.41,23.15 18.92,22.98 18.43,22.80 18.02,22.48 17.62,22.15 17.33,21.72 17.05,21.28 16.92,20.78 16.79,20.27 16.79,20.27 16.79,20.27 16.73,18.83 16.66,17.39 16.16,15.21 15.65,13.03 14.68,11.11 13.70,9.19 12.67,8.75 11.64,8.31 9.78,6.71 7.93,5.12 6.76,4.44 5.59,3.76 4.22,3.15 2.85,2.55 1.42,2.56 0,2.57 -0.30,2.53 -0.61,2.49 -0.90,2.38 -1.19,2.27 -1.45,2.10 -1.70,1.92 -1.91,1.69 -2.11,1.46 -2.26,1.18 -2.40,0.91 -2.48,0.61 -2.55,0.31 -2.55,-0.00 -2.55,-0.31 -2.48,-0.61 -2.40,-0.91 -2.26,-1.18 -2.11,-1.46 -1.91,-1.69 -1.70,-1.92 -1.45,-2.10 -1.19,-2.27 -0.90,-2.38 -0.61,-2.49 -0.30,-2.53 0.00,-2.57 0.00,-2.57 L 0,-2.57 Z"></path></g><g transform="translate(50.99993896484375 148.99990844726562) rotate(0 0 0.5)" stroke="none"><path fill="#1e1e1e" d="M 2.38,1 Q 2.38,1 2.32,1.38 2.26,1.76 2.07,2.10 1.89,2.44 1.61,2.70 1.33,2.97 0.98,3.13 0.63,3.29 0.25,3.33 -0.12,3.38 -0.50,3.29 -0.88,3.21 -1.21,3.01 -1.54,2.81 -1.79,2.52 -2.04,2.22 -2.18,1.87 -2.32,1.51 -2.35,1.12 -2.37,0.74 -2.26,0.37 -2.16,-0.00 -1.94,-0.32 -1.73,-0.64 -1.42,-0.87 -1.11,-1.10 -0.75,-1.23 -0.38,-1.35 0.00,-1.35 0.38,-1.35 0.75,-1.23 1.11,-1.10 1.42,-0.87 1.73,-0.63 1.94,-0.32 2.16,-0.00 2.26,0.37 2.37,0.74 2.35,1.12 2.32,1.51 2.18,1.87 2.04,2.23 1.79,2.52 1.54,2.81 1.21,3.01 0.88,3.21 0.50,3.29 0.12,3.38 -0.25,3.33 -0.63,3.29 -0.98,3.13 -1.33,2.97 -1.61,2.70 -1.89,2.44 -2.07,2.10 -2.26,1.76 -2.32,1.38 -2.38,0.99 -2.38,0.99 -2.38,1 -2.47,0.70 -2.55,0.40 -2.56,0.08 -2.57,-0.22 -2.51,-0.52 -2.44,-0.83 -2.31,-1.11 -2.17,-1.39 -1.97,-1.63 -1.78,-1.87 -1.53,-2.06 -1.28,-2.24 -0.99,-2.36 -0.70,-2.48 -0.39,-2.53 -0.08,-2.58 0.22,-2.55 0.53,-2.53 0.82,-2.43 1.12,-2.33 1.38,-2.16 1.64,-1.99 1.86,-1.76 2.07,-1.54 2.23,-1.27 2.38,-0.99 2.38,0.00 L 2.38,1 Z"></path></g></svg>