<svg version="1.1" xmlns="http://www.w3.org/2000/svg" viewBox="0 0 499.86126708984375 460.2778625488281" width="499.86126708984375" height="460.2778625488281" class="excalidraw-svg"><!-- svg-source:excalidraw --><metadata></metadata><defs><style class="style-fonts">
      </style></defs><g transform="translate(182.22222900390625 109.30560302734375) rotate(0 11.805572509765625 -15.972213745117188)" stroke="none"><path fill="#1e1e1e" d="M -1.90,-0.71 Q -1.90,-0.71 -1.30,-2.31 -0.71,-3.90 -0.24,-5.65 0.21,-7.40 0.59,-9.01 0.96,-10.61 1.83,-12.60 2.70,-14.59 3.47,-16.70 4.24,-18.81 5.00,-20.93 5.76,-23.04 6.20,-24.57 6.63,-26.10 6.98,-27.52 7.32,-28.94 7.98,-30.74 8.64,-32.54 10.62,-33.45 12.61,-34.36 13.91,-33.62 15.20,-32.87 15.98,-31.68 16.75,-30.49 17.93,-28.65 19.11,-26.80 19.74,-25.56 20.38,-24.32 20.99,-22.78 21.61,-21.23 22.08,-20.25 22.56,-19.27 23.13,-18.06 23.71,-16.86 24.90,-14.60 26.09,-12.34 26.22,-11.91 26.36,-11.48 26.34,-11.03 26.33,-10.58 26.18,-10.16 26.02,-9.74 25.74,-9.39 25.46,-9.04 25.08,-8.80 24.70,-8.56 24.27,-8.45 23.83,-8.34 23.38,-8.38 22.94,-8.41 22.52,-8.59 22.11,-8.77 21.78,-9.07 21.44,-9.37 21.22,-9.76 21.00,-10.15 20.92,-10.59 20.83,-11.03 20.89,-11.48 20.95,-11.92 21.15,-12.32 21.35,-12.73 21.67,-13.04 21.99,-13.36 22.39,-13.56 22.79,-13.76 23.24,-13.82 23.68,-13.88 24.12,-13.80 24.56,-13.71 24.95,-13.49 25.35,-13.27 25.65,-12.93 25.95,-12.60 26.12,-12.19 26.30,-11.77 26.34,-11.33 26.37,-10.88 26.26,-10.44 26.16,-10.01 25.91,-9.63 25.67,-9.25 25.32,-8.97 24.97,-8.69 24.55,-8.54 24.13,-8.38 23.68,-8.37 23.23,-8.36 22.80,-8.49 22.37,-8.62 22.01,-8.88 21.64,-9.14 21.38,-9.51 21.12,-9.87 21.12,-9.87 21.12,-9.87 20.04,-12.21 18.96,-14.55 18.34,-15.81 17.72,-17.06 17.27,-18.12 16.81,-19.18 15.75,-21.48 14.68,-23.77 13.43,-25.81 12.18,-27.85 12.35,-29.19 12.51,-30.53 11.71,-29.22 10.90,-27.91 10.42,-26.45 9.93,-25.00 9.37,-23.52 8.80,-22.03 8.15,-19.89 7.49,-17.74 6.82,-15.46 6.14,-13.19 5.48,-11.42 4.81,-9.66 4.40,-8.07 3.99,-6.49 3.55,-4.48 3.10,-2.48 2.50,-0.88 1.90,0.71 1.79,0.93 1.68,1.15 1.51,1.33 1.35,1.52 1.15,1.66 0.95,1.80 0.72,1.88 0.49,1.97 0.25,2.00 0.00,2.03 -0.23,2.00 -0.48,1.98 -0.71,1.89 -0.94,1.80 -1.14,1.66 -1.34,1.53 -1.50,1.34 -1.67,1.16 -1.78,0.94 -1.90,0.72 -1.96,0.49 -2.02,0.25 -2.02,0.00 -2.02,-0.23 -1.96,-0.47 -1.90,-0.71 -1.90,-0.71 L -1.90,-0.71 Z"></path></g><g transform="translate(194.72222900390625 82.2222900390625) rotate(0 3.8194580078125 178.12498474121094)" stroke="none"><path fill="#1e1e1e" d="M 1.58,0.15 Q 1.58,0.15 1.37,2.15 1.16,4.14 1.04,6.34 0.93,8.54 0.70,10.55 0.47,12.57 0.35,15.73 0.22,18.88 0.16,23.03 0.09,27.18 0.06,30.55 0.03,33.91 0.01,37.14 -0.00,40.37 -0.01,45.73 -0.02,51.09 -0.03,55.57 -0.04,60.04 0.15,66.52 0.34,72.99 0.42,78.16 0.50,83.32 0.54,87.92 0.57,92.51 0.98,99.62 1.40,106.72 1.57,112.37 1.75,118.02 2.22,125.78 2.69,133.55 2.89,139.47 3.10,145.39 3.58,152.87 4.06,160.35 4.27,166.15 4.48,171.95 4.96,179.18 5.45,186.41 5.66,191.91 5.86,197.40 6.15,204.32 6.44,211.24 6.76,216.36 7.08,221.49 7.22,225.89 7.36,230.29 7.41,236.35 7.47,242.42 7.50,246.99 7.52,251.57 7.53,257.50 7.54,263.44 7.55,267.76 7.55,272.08 7.75,277.49 7.95,282.89 8.04,287.01 8.13,291.12 8.16,296.07 8.20,301.02 8.21,304.72 8.23,308.41 8.44,312.95 8.64,317.49 8.73,321.04 8.82,324.59 9.05,328.87 9.29,333.15 9.39,336.19 9.49,339.23 9.54,342.93 9.58,346.62 9.79,349.34 10.01,352.06 10.19,354.10 10.37,356.14 10.35,356.36 10.33,356.57 10.24,356.77 10.16,356.97 10.01,357.14 9.87,357.30 9.68,357.41 9.48,357.51 9.27,357.55 9.06,357.59 8.84,357.56 8.62,357.53 8.43,357.44 8.23,357.34 8.08,357.18 7.92,357.03 7.83,356.83 7.73,356.64 7.70,356.42 7.67,356.20 7.72,355.99 7.76,355.78 7.87,355.59 7.97,355.40 8.14,355.25 8.30,355.11 8.50,355.02 8.70,354.93 8.92,354.92 9.14,354.90 9.35,354.95 9.56,355.01 9.74,355.12 9.93,355.24 10.06,355.41 10.20,355.58 10.27,355.79 10.35,355.99 10.35,356.21 10.36,356.43 10.29,356.64 10.23,356.85 10.10,357.03 9.97,357.20 9.80,357.33 9.62,357.46 9.41,357.52 9.20,357.58 8.98,357.58 8.76,357.57 8.56,357.49 8.36,357.42 8.19,357.28 8.02,357.14 7.90,356.96 7.78,356.77 7.73,356.56 7.68,356.35 7.68,356.35 7.68,356.35 7.53,354.31 7.39,352.26 7.17,349.46 6.95,346.65 6.91,342.98 6.87,339.32 6.77,336.31 6.67,333.30 6.43,328.98 6.19,324.66 6.10,321.13 6.02,317.61 5.81,313.02 5.60,308.43 5.59,304.73 5.57,301.04 5.54,296.11 5.50,291.18 5.41,287.08 5.33,282.99 5.13,277.54 4.92,272.08 4.92,267.76 4.92,263.45 4.91,257.51 4.89,251.58 4.87,247.01 4.85,242.45 4.79,236.41 4.73,230.37 4.59,226.01 4.46,221.65 4.14,216.50 3.81,211.35 3.52,204.43 3.24,197.50 3.03,192.05 2.82,186.59 2.34,179.32 1.85,172.05 1.64,166.28 1.44,160.52 0.95,153.00 0.46,145.48 0.26,139.59 0.06,133.71 -0.40,125.91 -0.88,118.10 -1.06,112.49 -1.23,106.88 -1.65,99.70 -2.07,92.53 -2.11,87.95 -2.14,83.37 -2.23,78.22 -2.32,73.07 -2.52,66.56 -2.73,60.04 -2.73,55.57 -2.74,51.09 -2.74,45.72 -2.74,40.36 -2.75,37.13 -2.75,33.90 -2.75,30.53 -2.75,27.16 -2.72,22.97 -2.70,18.79 -2.63,15.50 -2.55,12.20 -2.31,10.31 -2.07,8.42 -2.01,6.13 -1.96,3.83 -1.77,1.83 -1.58,-0.15 -1.54,-0.34 -1.49,-0.53 -1.41,-0.70 -1.32,-0.87 -1.20,-1.02 -1.07,-1.16 -0.92,-1.27 -0.76,-1.39 -0.59,-1.46 -0.41,-1.53 -0.22,-1.56 -0.03,-1.58 0.15,-1.57 0.34,-1.55 0.52,-1.48 0.70,-1.42 0.86,-1.31 1.02,-1.21 1.15,-1.07 1.28,-0.93 1.38,-0.76 1.47,-0.59 1.52,-0.40 1.57,-0.22 1.57,-0.03 1.58,0.15 1.58,0.15 L 1.58,0.15 Z"></path></g><g transform="translate(194.02777099609375 437.7778625488281) rotate(0 9.027801513671875 3.472198486328125)" stroke="none"><path fill="#1e1e1e" d="M -2.58,-0.51 Q -2.58,-0.51 -2.41,-1.52 -2.24,-2.52 -2.17,-3.76 -2.09,-4.99 -1.95,-5.14 -1.82,-5.29 -1.76,-5.63 -1.69,-5.98 -1.55,-6.30 -1.41,-6.62 -1.20,-6.89 -0.98,-7.17 -0.71,-7.39 -0.44,-7.60 -0.12,-7.75 0.19,-7.89 0.53,-7.96 0.87,-8.02 1.22,-8.00 1.57,-7.99 1.90,-7.88 2.24,-7.78 2.54,-7.60 2.84,-7.42 3.09,-7.18 3.34,-6.93 3.52,-6.64 3.70,-6.34 3.81,-6.01 3.91,-5.67 3.93,-5.32 3.96,-4.98 4.74,-3.69 5.52,-2.40 6.06,-0.69 6.61,1.01 7.23,2.44 7.85,3.87 8.24,5.17 8.63,6.47 9.29,7.88 9.94,9.30 10.36,7.77 10.77,6.23 11.31,5.23 11.86,4.24 12.56,3.12 13.26,2.01 16.18,0.11 19.10,-1.77 19.58,-1.52 20.05,-1.27 20.43,-0.88 20.80,-0.49 21.03,-0.01 21.26,0.47 21.32,1.01 21.38,1.54 21.27,2.07 21.16,2.60 20.88,3.06 20.61,3.53 20.20,3.88 19.79,4.23 19.29,4.43 18.79,4.64 18.25,4.67 17.71,4.70 17.19,4.56 16.67,4.42 16.22,4.12 15.77,3.82 15.44,3.39 15.11,2.96 14.94,2.45 14.76,1.94 14.76,1.40 14.76,0.86 14.92,0.35 15.09,-0.15 15.42,-0.58 15.74,-1.01 16.19,-1.32 16.63,-1.63 17.15,-1.77 17.67,-1.92 18.21,-1.89 18.75,-1.87 19.25,-1.67 19.75,-1.47 20.17,-1.13 20.58,-0.78 20.86,-0.32 21.14,0.13 21.26,0.66 21.38,1.18 21.33,1.72 21.27,2.26 21.05,2.75 20.82,3.24 20.45,3.63 20.08,4.03 19.61,4.28 19.13,4.54 18.60,4.63 18.07,4.72 17.54,4.64 17.00,4.55 17.00,4.55 17.00,4.55 17.56,5.69 18.11,6.84 17.44,7.87 16.77,8.91 15.81,10.17 14.85,11.43 13.94,12.47 13.02,13.51 11.34,14.27 9.65,15.03 8.49,14.78 7.34,14.54 5.82,13.11 4.30,11.67 3.57,9.96 2.84,8.25 2.19,6.44 1.53,4.64 1.17,3.63 0.80,2.62 0.51,1.60 0.22,0.57 -0.07,-0.96 -0.36,-2.50 -1.09,-3.89 -1.82,-5.29 -1.76,-5.63 -1.69,-5.98 -1.55,-6.30 -1.41,-6.62 -1.20,-6.89 -0.98,-7.17 -0.71,-7.39 -0.44,-7.60 -0.12,-7.75 0.19,-7.89 0.53,-7.96 0.87,-8.02 1.22,-8.00 1.57,-7.99 1.90,-7.88 2.24,-7.78 2.54,-7.60 2.84,-7.42 3.09,-7.18 3.33,-6.93 3.52,-6.64 3.70,-6.34 3.81,-6.01 3.91,-5.67 3.93,-5.32 3.96,-4.98 3.67,-4.56 3.38,-4.14 3.21,-2.80 3.04,-1.46 2.81,-0.47 2.58,0.51 2.48,0.81 2.38,1.12 2.21,1.39 2.05,1.66 1.82,1.88 1.59,2.10 1.31,2.26 1.04,2.42 0.73,2.51 0.43,2.60 0.11,2.61 -0.20,2.63 -0.51,2.56 -0.82,2.50 -1.11,2.37 -1.40,2.23 -1.64,2.03 -1.89,1.83 -2.08,1.58 -2.28,1.32 -2.40,1.03 -2.53,0.74 -2.58,0.43 -2.63,0.11 -2.61,-0.20 -2.58,-0.51 -2.58,-0.51 L -2.58,-0.51 Z"></path></g><g transform="translate(18.3333740234375 274.5833740234375) rotate(0 195.83331298828125 -6.944427490234375)" stroke="none"><path fill="#1e1e1e" d="M 0.35,-1.77 Q 0.35,-1.77 1.37,-1.66 2.38,-1.55 3.67,-1.53 4.96,-1.51 6.14,-1.53 7.31,-1.56 9.39,-1.43 11.48,-1.30 13.37,-1.27 15.26,-1.23 17.26,-1.18 19.26,-1.12 22.90,-1.05 26.55,-0.98 29.65,-1.13 32.74,-1.28 38.11,-1.33 43.48,-1.38 48.15,-1.39 52.82,-1.40 60.17,-1.59 67.53,-1.79 73.87,-1.87 80.20,-1.94 89.87,-2.17 99.55,-2.40 107.24,-2.69 114.94,-2.99 126.00,-3.51 137.05,-4.03 145.74,-4.45 154.44,-4.87 166.12,-5.44 177.80,-6.02 186.76,-6.46 195.72,-6.91 207.70,-7.69 219.68,-8.48 228.57,-9.02 237.47,-9.55 251.82,-10.57 266.17,-11.60 275.47,-12.23 284.77,-12.87 294.51,-13.54 304.25,-14.21 311.01,-14.49 317.76,-14.78 325.41,-15.10 333.07,-15.42 338.33,-15.55 343.59,-15.69 349.42,-15.75 355.26,-15.81 359.17,-15.63 363.08,-15.46 367.14,-15.18 371.19,-14.91 373.94,-14.59 376.69,-14.27 379.44,-13.93 382.20,-13.60 384.02,-13.32 385.85,-13.03 388.92,-12.54 391.98,-12.05 392.24,-11.95 392.49,-11.86 392.70,-11.69 392.91,-11.52 393.05,-11.29 393.20,-11.06 393.26,-10.80 393.32,-10.54 393.30,-10.27 393.28,-10.00 393.17,-9.75 393.06,-9.51 392.88,-9.31 392.70,-9.11 392.46,-8.98 392.23,-8.84 391.96,-8.79 391.70,-8.75 391.43,-8.78 391.16,-8.82 390.92,-8.94 390.68,-9.06 390.49,-9.25 390.30,-9.45 390.18,-9.69 390.07,-9.93 390.03,-10.20 390.00,-10.47 390.05,-10.73 390.10,-10.99 390.23,-11.23 390.37,-11.46 390.57,-11.64 390.77,-11.82 391.02,-11.93 391.27,-12.03 391.54,-12.05 391.81,-12.07 392.07,-12.01 392.33,-11.94 392.55,-11.79 392.78,-11.65 392.95,-11.44 393.12,-11.22 393.21,-10.97 393.30,-10.72 393.31,-10.45 393.31,-10.18 393.23,-9.92 393.15,-9.66 392.99,-9.45 392.83,-9.23 392.61,-9.07 392.39,-8.91 392.14,-8.84 391.88,-8.76 391.61,-8.77 391.34,-8.78 391.34,-8.78 391.34,-8.78 388.32,-9.48 385.30,-10.19 383.59,-10.59 381.88,-10.99 379.13,-11.32 376.38,-11.66 373.70,-11.97 371.01,-12.28 366.99,-12.56 362.96,-12.83 359.12,-13.00 355.29,-13.18 349.47,-13.12 343.66,-13.06 338.42,-12.93 333.18,-12.79 325.53,-12.47 317.87,-12.15 311.15,-11.87 304.43,-11.58 294.69,-10.91 284.95,-10.24 275.66,-9.61 266.36,-8.97 251.99,-7.94 237.63,-6.92 228.74,-6.38 219.85,-5.84 207.85,-5.05 195.85,-4.26 186.89,-3.82 177.93,-3.37 166.25,-2.79 154.57,-2.20 145.87,-1.78 137.18,-1.35 126.11,-0.81 115.04,-0.28 107.33,0.02 99.61,0.33 89.93,0.57 80.24,0.82 73.93,0.93 67.61,1.03 60.22,1.27 52.84,1.50 48.18,1.57 43.53,1.63 38.24,1.75 32.94,1.87 29.75,2.12 26.55,2.37 22.90,2.44 19.25,2.50 17.25,2.55 15.24,2.60 13.35,2.62 11.45,2.65 9.31,2.74 7.18,2.84 5.94,2.74 4.71,2.65 3.16,2.50 1.60,2.35 0.62,2.06 -0.35,1.77 -0.56,1.70 -0.76,1.63 -0.95,1.52 -1.13,1.40 -1.29,1.25 -1.44,1.09 -1.55,0.90 -1.66,0.71 -1.72,0.50 -1.78,0.29 -1.79,0.07 -1.80,-0.13 -1.76,-0.35 -1.71,-0.56 -1.62,-0.76 -1.53,-0.96 -1.39,-1.13 -1.25,-1.30 -1.08,-1.43 -0.91,-1.56 -0.71,-1.65 -0.51,-1.73 -0.29,-1.77 -0.07,-1.80 0.13,-1.79 0.35,-1.77 0.35,-1.77 L 0.35,-1.77 Z"></path></g><g transform="translate(399.5833740234375 254.44448852539062) rotate(0 10.763916015625 10.416671752929688)" stroke="none"><path fill="#1e1e1e" d="M 0,-2.51 Q 0,-2.51 1.59,-2.48 3.19,-2.45 5.01,-2.20 6.82,-1.95 7.89,-1.92 8.96,-1.88 10.07,-1.65 11.18,-1.42 12.65,-0.88 14.12,-0.34 15.17,0.06 16.22,0.46 17.38,1.08 18.54,1.71 20.29,2.94 22.04,4.17 22.89,6.41 23.74,8.66 23.43,9.73 23.12,10.80 22.10,11.94 21.08,13.08 19.00,14.35 16.93,15.62 15.27,16.50 13.62,17.39 12.18,17.95 10.74,18.52 9.70,19.07 8.66,19.63 7.59,21.45 6.52,23.28 6.20,23.44 5.89,23.60 5.54,23.69 5.19,23.77 4.84,23.77 4.48,23.76 4.13,23.68 3.79,23.59 3.47,23.42 3.16,23.25 2.89,23.01 2.63,22.78 2.43,22.48 2.23,22.19 2.10,21.85 1.98,21.52 1.94,21.16 1.90,20.81 1.94,20.45 1.99,20.10 2.12,19.77 2.25,19.43 2.45,19.14 2.65,18.85 2.92,18.62 3.19,18.38 5.23,18.74 7.26,19.11 7.47,19.53 7.69,19.96 7.75,20.44 7.81,20.91 7.72,21.38 7.63,21.85 7.40,22.27 7.16,22.69 6.80,23.00 6.45,23.32 6.01,23.51 5.57,23.70 5.09,23.74 4.61,23.78 4.15,23.66 3.68,23.55 3.28,23.29 2.88,23.03 2.58,22.65 2.28,22.28 2.11,21.83 1.95,21.38 1.94,20.90 1.92,20.42 2.07,19.97 2.21,19.51 2.49,19.12 2.77,18.73 3.16,18.45 3.55,18.18 4.00,18.04 4.46,17.90 4.94,17.91 5.42,17.92 5.87,18.09 6.32,18.25 6.69,18.56 7.06,18.86 7.32,19.26 7.58,19.66 7.69,20.13 7.81,20.59 7.77,21.07 7.73,21.55 7.54,21.99 7.35,22.43 7.03,22.78 6.71,23.14 6.29,23.37 5.87,23.61 5.40,23.70 4.93,23.79 4.46,23.72 3.98,23.66 3.55,23.44 3.13,23.23 4.82,23.25 6.52,23.28 6.20,23.44 5.89,23.60 5.54,23.69 5.19,23.77 4.84,23.77 4.48,23.76 4.13,23.68 3.79,23.59 3.47,23.42 3.16,23.25 2.89,23.01 2.63,22.78 2.43,22.48 2.23,22.19 2.10,21.85 1.98,21.52 1.94,21.16 1.90,20.81 1.94,20.45 1.99,20.10 2.12,19.77 2.25,19.44 2.45,19.14 2.65,18.85 2.92,18.62 3.19,18.38 4.53,16.48 5.88,14.58 7.16,13.86 8.44,13.13 9.65,12.56 10.86,12.00 12.46,11.19 14.07,10.39 15.03,9.84 15.99,9.30 16.99,8.64 17.99,7.97 16.96,7.14 15.94,6.31 14.16,5.36 12.38,4.41 10.48,3.71 8.57,3.02 7.42,2.88 6.26,2.75 4.73,2.60 3.19,2.45 1.59,2.48 0,2.51 -0.30,2.48 -0.60,2.44 -0.88,2.33 -1.17,2.23 -1.42,2.05 -1.67,1.88 -1.87,1.65 -2.07,1.43 -2.21,1.16 -2.35,0.89 -2.42,0.59 -2.50,0.30 -2.50,-0.00 -2.50,-0.30 -2.42,-0.59 -2.35,-0.89 -2.21,-1.16 -2.07,-1.43 -1.87,-1.65 -1.67,-1.88 -1.42,-2.05 -1.17,-2.23 -0.88,-2.33 -0.60,-2.44 -0.30,-2.48 0.00,-2.51 0.00,-2.51 L 0,-2.51 Z"></path></g><g transform="translate(26.66668701171875 265.55560302734375) rotate(0 -6.25 10.416671752929688)" stroke="none"><path fill="#1e1e1e" d="M 1.57,1.97 Q 1.57,1.97 0.58,2.78 -0.40,3.59 -1.30,4.23 -2.20,4.87 -3.13,5.51 -4.06,6.16 -5.97,7.41 -7.87,8.67 -8.81,9.27 -9.75,9.88 -10.56,10.58 -11.36,11.27 -12.26,12.26 -13.16,13.24 -11.19,14.26 -9.21,15.28 -6.66,15.80 -4.11,16.31 -2.70,16.67 -1.29,17.02 1.68,17.60 4.67,18.18 5.08,18.33 5.49,18.48 5.83,18.75 6.17,19.02 6.41,19.39 6.64,19.76 6.75,20.18 6.85,20.61 6.82,21.04 6.78,21.48 6.61,21.88 6.44,22.28 6.15,22.61 5.85,22.93 5.47,23.15 5.09,23.36 4.66,23.45 4.24,23.53 3.80,23.47 3.37,23.41 2.98,23.22 2.59,23.02 2.28,22.71 1.97,22.40 1.77,22.01 1.58,21.62 1.52,21.19 1.46,20.76 1.54,20.33 1.63,19.90 1.84,19.52 2.06,19.14 2.38,18.85 2.71,18.55 3.11,18.38 3.51,18.21 3.95,18.17 4.38,18.14 4.80,18.24 5.23,18.35 5.60,18.58 5.96,18.82 6.24,19.16 6.51,19.50 6.66,19.91 6.81,20.32 6.83,20.76 6.84,21.19 6.71,21.61 6.58,22.03 6.33,22.38 6.07,22.74 5.72,22.99 5.36,23.25 4.94,23.38 4.53,23.50 4.09,23.49 3.65,23.48 3.65,23.48 3.65,23.48 0.53,22.89 -2.59,22.29 -3.81,22.00 -5.03,21.71 -6.75,21.51 -8.47,21.31 -9.87,21.04 -11.27,20.76 -12.50,20.34 -13.72,19.91 -14.82,19.47 -15.92,19.03 -17.38,17.45 -18.84,15.86 -18.94,14.48 -19.04,13.10 -18.10,11.42 -17.16,9.73 -16.04,8.42 -14.92,7.10 -12.94,5.67 -10.97,4.24 -8.99,2.97 -7.01,1.70 -5.30,0.65 -3.59,-0.39 -2.58,-1.18 -1.57,-1.97 -1.31,-2.13 -1.06,-2.29 -0.77,-2.38 -0.48,-2.48 -0.17,-2.50 0.12,-2.52 0.42,-2.47 0.72,-2.41 1.00,-2.29 1.28,-2.17 1.52,-1.98 1.76,-1.80 1.95,-1.56 2.14,-1.32 2.27,-1.05 2.40,-0.77 2.46,-0.47 2.52,-0.17 2.50,0.12 2.48,0.43 2.40,0.72 2.31,1.01 2.15,1.27 2.00,1.53 1.79,1.75 1.57,1.97 1.57,1.97 L 1.57,1.97 Z"></path></g><g stroke-linecap="round"><g transform="translate(196.11114501953125 269.02783203125) rotate(0 68.40277099609375 -74.99998474121094)"><path d="M0 0 C22.8 -25, 114 -125, 136.81 -150 M0 0 C22.8 -25, 114 -125, 136.81 -150" stroke="#099268" stroke-width="4" fill="none"></path></g><g transform="translate(196.11114501953125 269.02783203125) rotate(0 68.40277099609375 -74.99998474121094)"><path d="M127.29 -126.88 C130.51 -134.7, 133.73 -142.52, 136.81 -150 M127.29 -126.88 C130.64 -135.01, 133.99 -143.15, 136.81 -150" stroke="#099268" stroke-width="4" fill="none"></path></g><g transform="translate(196.11114501953125 269.02783203125) rotate(0 68.40277099609375 -74.99998474121094)"><path d="M114.66 -138.4 C122.15 -142.33, 129.64 -146.25, 136.81 -150 M114.66 -138.4 C122.45 -142.48, 130.24 -146.56, 136.81 -150" stroke="#099268" stroke-width="4" fill="none"></path></g></g><mask></mask><g transform="translate(288.47222900390625 161.388916015625) rotate(0 -44.097198486328125 -20.138900756835938)" stroke="none"><path fill="#099268" d="M -2.38,1.19 Q -2.38,1.19 -2.81,0.41 -3.24,-0.37 -4.03,-1.79 -4.81,-3.22 -5.58,-4.63 -6.36,-6.03 -7.39,-6.91 -8.42,-7.78 -9.95,-9.03 -11.49,-10.28 -13.17,-11.66 -14.85,-13.05 -16.71,-14.50 -18.57,-15.95 -20.64,-17.28 -22.71,-18.62 -24.10,-19.53 -25.50,-20.45 -26.76,-21.28 -28.02,-22.10 -30.22,-23.53 -32.43,-24.95 -34.63,-26.06 -36.83,-27.17 -37.89,-27.60 -38.94,-28.03 -40.40,-28.96 -41.86,-29.89 -42.87,-30.35 -43.88,-30.81 -45.02,-31.19 -46.16,-31.56 -47.31,-31.93 -48.46,-32.30 -49.85,-32.92 -51.24,-33.54 -52.22,-33.97 -53.21,-34.39 -54.25,-34.71 -55.30,-35.04 -56.31,-35.41 -57.31,-35.78 -58.38,-36.09 -59.45,-36.41 -60.70,-36.51 -61.95,-36.62 -63.14,-36.86 -64.34,-37.10 -65.62,-37.17 -66.90,-37.23 -68.86,-36.92 -70.82,-36.62 -72.13,-36.52 -73.45,-36.43 -74.61,-36.13 -75.76,-35.83 -77.49,-35.44 -79.22,-35.04 -80.23,-34.70 -81.24,-34.36 -82.55,-33.66 -83.86,-32.97 -85.78,-32.12 -87.70,-31.27 -88.26,-31.29 -88.83,-31.30 -89.36,-31.49 -89.89,-31.68 -90.33,-32.03 -90.77,-32.38 -91.07,-32.85 -91.38,-33.33 -91.51,-33.87 -91.65,-34.42 -91.61,-34.98 -91.57,-35.54 -91.35,-36.06 -91.13,-36.57 -90.75,-37.00 -90.38,-37.42 -89.89,-37.70 -89.40,-37.97 -88.85,-38.08 -88.30,-38.19 -87.74,-38.12 -87.19,-38.05 -86.68,-37.80 -86.18,-37.55 -85.78,-37.16 -85.38,-36.76 -85.12,-36.26 -84.87,-35.75 -84.79,-35.20 -84.71,-34.64 -84.82,-34.09 -84.92,-33.53 -85.19,-33.04 -85.47,-32.55 -85.89,-32.17 -86.30,-31.80 -86.82,-31.57 -87.33,-31.35 -87.89,-31.30 -88.45,-31.25 -89.00,-31.38 -89.55,-31.52 -90.02,-31.82 -90.50,-32.12 -90.85,-32.55 -91.21,-32.99 -91.40,-33.52 -91.60,-34.05 -91.62,-34.61 -91.64,-35.17 -91.47,-35.71 -91.31,-36.25 -90.99,-36.71 -90.66,-37.16 -90.20,-37.49 -89.75,-37.82 -89.21,-37.99 -88.68,-38.16 -88.68,-38.16 -88.68,-38.16 -87.09,-38.78 -85.51,-39.39 -83.87,-40.18 -82.23,-40.97 -80.53,-41.49 -78.82,-42.02 -77.40,-42.15 -75.97,-42.28 -74.35,-42.52 -72.73,-42.76 -71.63,-42.80 -70.53,-42.83 -68.58,-43.01 -66.62,-43.20 -64.87,-42.98 -63.11,-42.77 -61.56,-42.45 -60.00,-42.14 -58.94,-41.92 -57.87,-41.70 -55.76,-40.95 -53.64,-40.20 -51.38,-39.30 -49.12,-38.40 -47.94,-37.90 -46.76,-37.39 -45.62,-37.00 -44.48,-36.61 -43.04,-36.12 -41.61,-35.64 -40.33,-35.03 -39.06,-34.41 -37.95,-33.74 -36.85,-33.08 -35.62,-32.57 -34.40,-32.05 -33.12,-31.45 -31.84,-30.84 -30.56,-30.19 -29.29,-29.54 -28.17,-28.81 -27.05,-28.09 -26.07,-27.52 -25.08,-26.96 -23.74,-26.22 -22.40,-25.47 -20.95,-24.41 -19.49,-23.35 -18.35,-22.63 -17.21,-21.91 -15.95,-21.19 -14.69,-20.47 -13.87,-19.78 -13.06,-19.09 -12.11,-18.46 -11.15,-17.83 -9.43,-16.50 -7.72,-15.16 -6.18,-13.96 -4.65,-12.76 -3.28,-11.48 -1.90,-10.21 -1.24,-9.07 -0.57,-7.93 -0.12,-6.85 0.31,-5.77 0.98,-4.29 1.65,-2.82 2.02,-2.00 2.38,-1.19 2.49,-0.89 2.60,-0.58 2.63,-0.26 2.67,0.05 2.62,0.37 2.58,0.69 2.45,0.98 2.33,1.28 2.15,1.54 1.96,1.81 1.71,2.01 1.47,2.22 1.18,2.37 0.89,2.51 0.58,2.58 0.26,2.65 -0.05,2.65 -0.37,2.64 -0.68,2.56 -0.99,2.47 -1.27,2.32 -1.56,2.16 -1.79,1.94 -2.03,1.73 -2.21,1.46 -2.38,1.19 -2.38,1.19 L -2.38,1.19 Z"></path></g><g transform="translate(228.05560302734375 175.97225952148438) rotate(0 -8.68060302734375 -3.47222900390625)" stroke="none"><path fill="#099268" d="M -1.19,2.38 Q -1.19,2.38 -2.00,2.02 -2.80,1.65 -4.14,1.59 -5.48,1.53 -6.68,1.70 -7.89,1.87 -9.37,2.46 -10.85,3.04 -12.12,4.17 -13.39,5.30 -14.11,6.20 -14.83,7.09 -14.56,8.41 -14.29,9.73 -13.22,10.48 -12.15,11.24 -10.60,11.88 -9.04,12.53 -7.75,12.53 -6.46,12.53 -5.18,11.92 -3.90,11.32 -3.28,10.22 -2.65,9.13 -2.73,7.90 -2.80,6.67 -3.04,5.06 -3.28,3.44 -3.82,2.34 -4.37,1.24 -5.30,-0.00 -6.24,-1.25 -7.23,-2.60 -8.22,-3.96 -8.97,-5.05 -9.72,-6.15 -10.49,-7.34 -11.26,-8.52 -11.72,-9.72 -12.18,-10.93 -12.63,-12.45 -13.07,-13.97 -12.75,-15.16 -12.43,-16.34 -11.59,-18.03 -10.75,-19.72 -9.86,-20.38 -8.97,-21.04 -8.09,-21.96 -7.20,-22.89 -5.96,-23.76 -4.71,-24.62 -3.35,-25.46 -1.98,-26.30 -1.40,-26.42 -0.83,-26.53 -0.25,-26.46 0.32,-26.39 0.85,-26.13 1.38,-25.88 1.80,-25.47 2.22,-25.06 2.49,-24.54 2.75,-24.02 2.84,-23.44 2.92,-22.86 2.82,-22.28 2.72,-21.70 2.43,-21.19 2.15,-20.67 1.72,-20.28 1.29,-19.88 0.75,-19.64 0.22,-19.40 -0.36,-19.35 -0.94,-19.30 -1.51,-19.43 -2.08,-19.57 -2.58,-19.88 -3.08,-20.19 -3.45,-20.64 -3.82,-21.09 -4.03,-21.64 -4.24,-22.19 -4.26,-22.77 -4.29,-23.36 -4.12,-23.92 -3.96,-24.48 -3.62,-24.97 -3.28,-25.45 -2.81,-25.79 -2.34,-26.14 -1.78,-26.32 -1.22,-26.50 -0.63,-26.49 -0.05,-26.48 0.50,-26.28 1.05,-26.09 1.51,-25.72 1.97,-25.36 2.29,-24.87 2.61,-24.38 2.76,-23.81 2.91,-23.25 2.87,-22.66 2.83,-22.08 2.60,-21.54 2.38,-20.99 1.99,-20.55 1.60,-20.11 1.10,-19.82 0.59,-19.52 0.59,-19.52 0.59,-19.52 -1.13,-18.29 -2.86,-17.05 -3.68,-16.31 -4.49,-15.56 -5.45,-15.01 -6.41,-14.46 -5.79,-12.87 -5.17,-11.29 -4.25,-10.13 -3.32,-8.97 -2.08,-7.23 -0.85,-5.50 0.19,-4.06 1.23,-2.62 1.76,-1.51 2.28,-0.41 2.95,1.26 3.62,2.93 3.87,4.90 4.12,6.87 4.02,8.48 3.92,10.08 2.98,12.39 2.05,14.70 0.71,16.05 -0.62,17.39 -1.95,18.11 -3.29,18.82 -4.97,19.08 -6.66,19.35 -8.26,19.25 -9.85,19.15 -11.04,18.75 -12.24,18.35 -13.67,17.90 -15.09,17.45 -16.32,16.52 -17.55,15.59 -18.41,14.58 -19.27,13.57 -20.01,12.04 -20.74,10.51 -20.93,8.77 -21.11,7.04 -20.56,5.30 -20.01,3.57 -18.80,2.20 -17.60,0.83 -16.69,-0.02 -15.79,-0.87 -14.32,-1.73 -12.85,-2.59 -11.06,-3.20 -9.27,-3.81 -7.19,-3.96 -5.11,-4.10 -3.78,-3.99 -2.45,-3.87 -1.42,-3.56 -0.38,-3.25 0.40,-2.82 1.19,-2.38 1.46,-2.21 1.73,-2.03 1.95,-1.79 2.16,-1.56 2.32,-1.27 2.47,-0.99 2.56,-0.68 2.64,-0.37 2.65,-0.05 2.65,0.26 2.58,0.58 2.51,0.89 2.37,1.18 2.22,1.47 2.01,1.71 1.81,1.96 1.54,2.15 1.28,2.34 0.98,2.46 0.68,2.58 0.37,2.62 0.05,2.67 -0.26,2.63 -0.58,2.60 -0.89,2.49 -1.19,2.38 -1.19,2.38 L -1.19,2.38 Z"></path></g><g transform="translate(161.388916015625 10.6944580078125) rotate(0 0.34722900390625 19.097213745117188)" stroke="none"><path fill="#1e1e1e" d="M 1.94,-0.32 Q 1.94,-0.32 2.20,0.86 2.47,2.05 2.56,3.87 2.65,5.70 2.64,7.66 2.62,9.61 2.55,11.84 2.47,14.07 2.41,16.41 2.35,18.75 2.31,20.95 2.26,23.14 2.27,25.07 2.28,27.00 2.37,28.42 2.46,29.84 2.53,31.24 2.60,32.64 2.02,36.55 1.45,40.46 1.16,40.65 0.87,40.84 0.53,40.93 0.20,41.02 -0.14,40.99 -0.48,40.97 -0.80,40.84 -1.13,40.71 -1.39,40.48 -1.65,40.25 -1.82,39.95 -2.00,39.65 -2.07,39.31 -2.14,38.97 -2.09,38.63 -2.05,38.28 -1.90,37.97 -1.75,37.66 -1.51,37.41 -1.27,37.16 -0.96,37.00 -0.65,36.84 -0.31,36.79 0.02,36.74 0.37,36.80 0.71,36.86 1.01,37.03 1.32,37.20 1.55,37.45 1.79,37.71 1.93,38.02 2.07,38.34 2.10,38.68 2.13,39.03 2.05,39.37 1.98,39.70 1.79,40.00 1.61,40.29 1.34,40.52 1.07,40.74 0.75,40.86 0.43,40.98 0.08,41.00 -0.26,41.01 -0.59,40.91 -0.92,40.82 -1.21,40.62 -1.49,40.42 -1.70,40.14 -1.90,39.86 -2.01,39.53 -2.12,39.20 -2.11,38.85 -2.11,38.51 -1.99,38.18 -1.87,37.85 -1.66,37.58 -1.45,37.31 -1.45,37.31 -1.45,37.31 -1.33,34.98 -1.21,32.65 -1.14,31.24 -1.07,29.84 -0.99,28.42 -0.90,27.00 -0.89,25.07 -0.88,23.15 -0.93,20.95 -0.98,18.76 -1.06,16.43 -1.13,14.09 -1.24,11.89 -1.34,9.69 -1.43,7.80 -1.51,5.91 -1.59,4.32 -1.67,2.74 -1.81,1.53 -1.94,0.32 -1.95,0.08 -1.96,-0.15 -1.91,-0.38 -1.86,-0.61 -1.76,-0.83 -1.66,-1.04 -1.51,-1.22 -1.36,-1.41 -1.18,-1.55 -0.99,-1.70 -0.77,-1.79 -0.55,-1.88 -0.32,-1.92 -0.08,-1.96 0.14,-1.94 0.38,-1.93 0.61,-1.85 0.83,-1.78 1.03,-1.65 1.23,-1.52 1.40,-1.35 1.56,-1.18 1.68,-0.98 1.80,-0.77 1.87,-0.55 1.94,-0.32 1.94,-0.32 L 1.94,-0.32 Z"></path></g><g transform="translate(175.9722900390625 28.75) rotate(0 16.666656494140625 11.458343505859375)" stroke="none"><path fill="#1e1e1e" d="M 2.65,0 Q 2.65,0 2.66,1.19 2.68,2.38 3.01,3.99 3.33,5.60 3.71,7.30 4.08,9.00 4.47,10.41 4.85,11.82 4.98,13.35 5.12,14.89 5.29,15.99 5.46,17.10 5.92,17.64 6.38,18.19 6.37,18.58 6.36,18.97 6.26,19.35 6.16,19.73 5.97,20.07 5.78,20.41 5.52,20.70 5.25,20.99 4.93,21.20 4.60,21.42 4.23,21.55 3.87,21.68 3.48,21.72 3.09,21.76 2.70,21.71 2.31,21.65 1.95,21.51 1.59,21.36 1.27,21.14 0.95,20.91 0.70,20.61 0.45,20.31 0.27,19.96 0.10,19.61 0.01,19.23 -0.07,18.85 0.54,17.47 1.15,16.09 1.91,15.13 2.66,14.17 3.92,12.82 5.17,11.47 6.08,10.00 6.99,8.52 7.68,7.61 8.36,6.70 9.24,5.61 10.11,4.53 10.85,3.74 11.59,2.96 13.22,2.06 14.84,1.16 16.15,1.28 17.46,1.41 18.90,2.85 20.34,4.29 20.86,5.95 21.38,7.60 21.72,8.63 22.07,9.66 22.16,10.94 22.25,12.23 23.02,10.73 23.79,9.22 24.48,8.30 25.18,7.37 26.01,6.49 26.83,5.61 28.11,5.08 29.39,4.54 30.91,4.83 32.44,5.11 33.32,6.03 34.20,6.94 34.46,8.04 34.72,9.13 35.10,10.65 35.49,12.17 35.78,13.33 36.07,14.50 36.39,15.93 36.71,17.36 36.78,18.43 36.85,19.51 36.19,22.28 35.52,25.05 35.10,25.46 34.69,25.86 34.16,26.11 33.64,26.37 33.06,26.43 32.48,26.50 31.91,26.39 31.34,26.27 30.84,25.97 30.34,25.68 29.96,25.24 29.57,24.80 29.35,24.26 29.13,23.73 29.09,23.14 29.05,22.56 29.20,22.00 29.35,21.44 29.67,20.95 29.99,20.47 30.45,20.11 30.91,19.75 31.46,19.56 32.01,19.37 32.59,19.36 33.18,19.36 33.73,19.54 34.28,19.72 34.75,20.06 35.22,20.41 35.55,20.89 35.88,21.36 36.04,21.92 36.20,22.48 36.18,23.06 36.15,23.64 35.95,24.19 35.74,24.73 35.36,25.18 34.99,25.63 34.50,25.93 34.00,26.24 33.44,26.37 32.87,26.50 32.29,26.44 31.71,26.39 31.18,26.15 30.65,25.91 30.22,25.52 29.80,25.12 29.52,24.61 29.24,24.10 29.14,23.53 29.04,22.95 29.13,22.38 29.21,21.80 29.48,21.28 29.75,20.77 29.75,20.77 29.75,20.77 29.73,19.77 29.71,18.78 29.31,16.86 28.91,14.95 28.97,13.05 29.02,11.15 30.44,10.94 31.85,10.72 31.04,11.61 30.24,12.49 29.07,13.67 27.91,14.84 27.27,15.71 26.62,16.59 25.17,17.72 23.72,18.86 22.49,19.15 21.27,19.43 19.99,19.15 18.71,18.87 17.82,17.93 16.93,16.99 16.45,15.97 15.96,14.96 15.53,12.93 15.10,10.90 14.52,9.09 13.94,7.28 15.24,7.54 16.54,7.81 15.59,8.77 14.64,9.74 13.82,10.87 13.00,12.00 12.24,12.85 11.47,13.70 10.34,15.13 9.21,16.56 8.38,17.64 7.54,18.72 6.53,19.57 5.51,20.41 5.94,19.30 6.38,18.19 6.37,18.58 6.36,18.97 6.26,19.35 6.16,19.73 5.97,20.07 5.78,20.41 5.52,20.70 5.25,20.99 4.93,21.20 4.60,21.42 4.23,21.55 3.87,21.68 3.48,21.72 3.09,21.76 2.70,21.71 2.31,21.65 1.95,21.51 1.59,21.36 1.27,21.14 0.95,20.91 0.70,20.61 0.45,20.31 0.27,19.96 0.10,19.61 0.01,19.23 -0.07,18.85 -0.20,18.50 -0.34,18.15 -0.67,16.60 -1.00,15.06 -1.04,13.51 -1.08,11.97 -1.39,10.34 -1.70,8.71 -1.99,6.90 -2.27,5.09 -2.47,3.74 -2.68,2.40 -2.66,1.20 -2.65,0 -2.61,-0.31 -2.57,-0.63 -2.46,-0.93 -2.35,-1.23 -2.17,-1.49 -1.98,-1.76 -1.74,-1.97 -1.50,-2.18 -1.22,-2.33 -0.94,-2.48 -0.63,-2.56 -0.32,-2.63 0.00,-2.63 0.32,-2.63 0.63,-2.56 0.94,-2.48 1.22,-2.33 1.50,-2.18 1.74,-1.97 1.98,-1.76 2.17,-1.49 2.35,-1.23 2.46,-0.93 2.57,-0.63 2.61,-0.31 2.65,0.00 2.65,0.00 L 2.65,0 Z"></path></g><g transform="translate(438.47222900390625 243.33334350585938) rotate(0 0.00006103515625 15.277786254882812)" stroke="none"><path fill="#1e1e1e" d="M 2.40,0.40 Q 2.40,0.40 2.23,1.60 2.06,2.80 2.00,4.92 1.93,7.04 1.90,9.62 1.87,12.20 1.88,13.48 1.89,14.77 1.86,16.31 1.83,17.85 1.85,20.35 1.87,22.86 1.95,24.62 2.02,26.38 2.08,29.16 2.14,31.94 2.06,32.39 1.99,32.85 1.77,33.25 1.56,33.66 1.23,33.97 0.89,34.29 0.48,34.48 0.06,34.67 -0.39,34.72 -0.84,34.77 -1.29,34.67 -1.74,34.58 -2.13,34.34 -2.53,34.10 -2.82,33.75 -3.12,33.40 -3.29,32.98 -3.46,32.55 -3.49,32.09 -3.51,31.63 -3.39,31.19 -3.26,30.75 -3.01,30.37 -2.75,29.99 -2.38,29.71 -2.02,29.43 -1.58,29.29 -1.15,29.14 -0.69,29.14 -0.23,29.14 0.20,29.29 0.63,29.43 1.00,29.71 1.36,29.99 1.62,30.37 1.88,30.75 2.00,31.19 2.12,31.63 2.10,32.09 2.07,32.55 1.90,32.98 1.73,33.40 1.43,33.75 1.14,34.10 0.74,34.34 0.35,34.58 -0.09,34.67 -0.54,34.77 -0.99,34.72 -1.45,34.67 -1.87,34.48 -2.28,34.29 -2.62,33.97 -2.95,33.66 -3.16,33.25 -3.38,32.84 -3.45,32.39 -3.53,31.94 -3.53,31.94 -3.53,31.94 -3.47,29.16 -3.41,26.38 -3.33,24.62 -3.26,22.86 -3.24,20.35 -3.21,17.85 -3.24,16.30 -3.27,14.75 -3.25,13.47 -3.24,12.18 -3.23,9.54 -3.22,6.91 -3.04,4.44 -2.86,1.98 -2.63,0.79 -2.40,-0.40 -2.32,-0.68 -2.24,-0.96 -2.09,-1.22 -1.94,-1.47 -1.74,-1.68 -1.53,-1.89 -1.28,-2.05 -1.03,-2.21 -0.75,-2.30 -0.47,-2.39 -0.18,-2.41 0.10,-2.43 0.39,-2.39 0.68,-2.34 0.95,-2.22 1.22,-2.10 1.46,-1.93 1.69,-1.75 1.88,-1.52 2.06,-1.29 2.19,-1.03 2.31,-0.76 2.37,-0.47 2.43,-0.18 2.42,0.10 2.40,0.40 2.40,0.40 L 2.40,0.40 Z"></path></g><g transform="translate(434.30560302734375 242.63888549804688) rotate(0 12.15283203125 15.972244262695312)" stroke="none"><path fill="#1e1e1e" d="M -1.88,-1.88 Q -1.88,-1.88 -1.08,-2.70 -0.29,-3.52 0.90,-4.28 2.10,-5.05 4.20,-5.87 6.29,-6.69 8.21,-6.63 10.12,-6.58 11.96,-5.89 13.80,-5.20 14.69,-4.51 15.59,-3.82 16.34,-2.91 17.09,-1.99 17.54,-0.59 18.00,0.79 18.17,2.72 18.34,4.65 18.12,5.76 17.89,6.86 17.61,7.89 17.33,8.92 16.94,9.97 16.55,11.02 15.72,12.08 14.89,13.15 13.98,14.49 13.07,15.84 11.99,16.88 10.91,17.92 9.57,19.01 8.23,20.09 6.59,20.87 4.94,21.64 2.85,20.31 0.77,18.97 0.90,17.60 1.04,16.23 2.36,15.21 3.69,14.18 4.86,14.09 6.02,13.99 7.12,14.41 8.21,14.83 9.72,15.84 11.23,16.86 12.48,18.11 13.72,19.36 15.32,21.05 16.92,22.75 17.65,23.71 18.38,24.68 19.10,25.52 19.83,26.36 20.51,27.31 21.19,28.25 22.35,29.54 23.52,30.82 24.71,32.04 25.90,33.26 26.12,33.56 26.35,33.87 26.49,34.22 26.64,34.57 26.69,34.94 26.75,35.32 26.72,35.70 26.68,36.07 26.56,36.43 26.43,36.79 26.23,37.11 26.02,37.43 25.75,37.69 25.47,37.95 25.14,38.13 24.81,38.32 24.44,38.42 24.08,38.52 23.70,38.53 23.32,38.55 22.95,38.47 22.58,38.39 22.24,38.22 21.90,38.05 21.60,37.81 21.31,37.57 22.14,38.03 22.97,38.49 22.50,38.31 22.02,38.13 21.63,37.81 21.24,37.48 20.97,37.05 20.70,36.62 20.58,36.12 20.47,35.63 20.51,35.12 20.56,34.61 20.77,34.15 20.98,33.68 21.32,33.31 21.67,32.93 22.11,32.69 22.56,32.44 23.06,32.35 23.56,32.27 24.07,32.34 24.57,32.42 25.02,32.65 25.48,32.88 25.83,33.25 26.19,33.61 26.41,34.07 26.63,34.53 26.69,35.03 26.75,35.54 26.65,36.04 26.55,36.54 26.29,36.98 26.03,37.42 25.65,37.75 25.27,38.08 24.80,38.28 24.33,38.47 23.82,38.51 23.31,38.54 22.82,38.41 22.32,38.29 21.90,38.01 21.47,37.73 21.16,37.32 20.85,36.92 20.68,36.44 20.51,35.96 20.50,35.45 20.49,34.95 20.65,34.46 20.81,33.98 21.11,33.57 21.41,33.16 21.83,32.87 22.25,32.57 22.73,32.43 23.22,32.29 24.56,32.77 25.90,33.26 26.12,33.56 26.35,33.87 26.49,34.22 26.64,34.57 26.69,34.94 26.75,35.32 26.72,35.70 26.68,36.07 26.56,36.43 26.43,36.79 26.23,37.11 26.02,37.43 25.75,37.69 25.47,37.95 25.14,38.13 24.81,38.32 24.44,38.42 24.08,38.52 23.70,38.53 23.32,38.55 22.95,38.47 22.58,38.39 22.24,38.22 21.90,38.05 21.61,37.81 21.31,37.57 19.41,35.58 17.51,33.60 16.33,32.10 15.16,30.60 13.74,28.97 12.33,27.33 10.64,25.75 8.96,24.17 8.17,23.44 7.39,22.71 6.42,21.57 5.44,20.43 5.78,18.97 6.12,17.52 5.42,16.15 4.72,14.78 5.72,14.03 6.71,13.27 7.76,12.02 8.82,10.76 10.04,9.05 11.26,7.35 11.68,6.06 12.10,4.77 12.08,3.15 12.06,1.53 11.18,0.60 10.30,-0.33 9.32,-0.75 8.34,-1.17 7.27,-1.18 6.19,-1.20 4.83,-0.43 3.48,0.32 2.68,1.10 1.88,1.88 1.62,2.07 1.37,2.27 1.08,2.40 0.79,2.54 0.47,2.59 0.16,2.65 -0.15,2.63 -0.47,2.61 -0.78,2.52 -1.09,2.42 -1.36,2.26 -1.64,2.09 -1.86,1.86 -2.09,1.64 -2.26,1.36 -2.42,1.09 -2.52,0.78 -2.61,0.47 -2.63,0.15 -2.65,-0.16 -2.59,-0.47 -2.54,-0.79 -2.40,-1.08 -2.27,-1.37 -2.07,-1.62 -1.88,-1.88 -1.88,-1.88 L -1.88,-1.88 Z"></path></g><g transform="translate(467.63897705078125 269.0278015136719) rotate(0 8.68060302734375 -2.083343505859375)" stroke="none"><path fill="#1e1e1e" d="M 0,-2.66 Q 0,-2.66 0.99,-2.69 1.99,-2.72 3.47,-3.09 4.95,-3.46 6.08,-4.06 7.20,-4.66 7.91,-5.58 8.61,-6.50 8.89,-7.75 9.17,-9.00 8.02,-9.65 6.87,-10.30 5.51,-9.77 4.14,-9.25 3.20,-8.48 2.26,-7.72 1.15,-6.52 0.03,-5.33 -0.63,-3.92 -1.30,-2.52 -1.38,-1.36 -1.46,-0.21 -1.15,0.86 -0.84,1.94 -0.12,3.04 0.60,4.15 1.62,4.81 2.65,5.48 4.04,5.83 5.43,6.18 7.12,6.33 8.81,6.49 10.47,6.10 12.13,5.71 13.98,5.35 15.83,4.99 18.42,3.79 21.01,2.60 21.51,2.48 22.02,2.37 22.53,2.42 23.04,2.47 23.51,2.68 23.98,2.89 24.36,3.25 24.74,3.60 24.99,4.05 25.23,4.51 25.32,5.01 25.41,5.52 25.33,6.03 25.25,6.54 25.01,7.00 24.77,7.46 24.40,7.82 24.03,8.18 23.56,8.40 23.10,8.62 22.58,8.68 22.07,8.74 21.57,8.63 21.06,8.52 20.62,8.26 20.17,8.00 19.84,7.61 19.50,7.22 19.30,6.74 19.11,6.26 19.07,5.75 19.04,5.23 19.18,4.73 19.31,4.24 19.60,3.81 19.88,3.38 20.29,3.06 20.70,2.74 21.19,2.58 21.67,2.41 22.19,2.40 22.71,2.40 23.20,2.56 23.69,2.72 24.10,3.03 24.51,3.34 24.81,3.76 25.10,4.19 25.24,4.68 25.39,5.18 25.36,5.69 25.34,6.21 25.15,6.69 24.97,7.17 24.63,7.57 24.30,7.96 23.86,8.23 23.42,8.50 23.42,8.50 23.42,8.50 22.19,8.97 20.95,9.44 19.16,10.23 17.37,11.02 15.45,11.39 13.54,11.76 12.31,12.07 11.08,12.38 9.82,12.58 8.55,12.78 7.21,12.74 5.87,12.69 4.81,12.52 3.75,12.35 2.54,12.05 1.33,11.74 0.17,11.29 -0.98,10.83 -1.91,10.20 -2.84,9.57 -4.24,8.06 -5.64,6.55 -6.27,5.46 -6.90,4.36 -7.26,3.33 -7.62,2.29 -7.74,-0.17 -7.87,-2.63 -7.20,-4.78 -6.54,-6.93 -5.96,-8.12 -5.38,-9.31 -4.66,-10.26 -3.94,-11.21 -2.54,-12.54 -1.13,-13.88 -0.09,-14.61 0.94,-15.35 2.08,-15.70 3.22,-16.06 4.67,-16.38 6.12,-16.71 8.08,-16.49 10.05,-16.28 11.18,-15.90 12.32,-15.52 13.68,-14.19 15.05,-12.87 15.39,-10.78 15.74,-8.69 15.57,-7.31 15.39,-5.94 14.61,-4.43 13.84,-2.91 12.66,-1.63 11.48,-0.35 10.32,0.33 9.17,1.01 7.22,1.62 5.27,2.24 3.63,2.48 1.99,2.72 0.99,2.69 0,2.66 -0.31,2.63 -0.63,2.59 -0.93,2.47 -1.24,2.36 -1.50,2.18 -1.77,1.99 -1.98,1.75 -2.19,1.51 -2.34,1.23 -2.49,0.94 -2.57,0.63 -2.65,0.32 -2.65,-0.00 -2.65,-0.32 -2.57,-0.63 -2.49,-0.94 -2.34,-1.23 -2.19,-1.51 -1.98,-1.75 -1.77,-1.99 -1.50,-2.18 -1.24,-2.36 -0.93,-2.47 -0.63,-2.59 -0.31,-2.63 0.00,-2.66 0.00,-2.66 L 0,-2.66 Z"></path></g></svg>