<svg version="1.1" xmlns="http://www.w3.org/2000/svg" viewBox="0 0 812.7688320292149 484.58331298828125" width="812.7688320292149" height="484.58331298828125" class="excalidraw-svg"><!-- svg-source:excalidraw --><metadata></metadata><defs><style class="style-fonts">
      </style></defs><g stroke-linecap="round"><g transform="translate(197.21322900187113 474.58331298828125) rotate(0 0 -232.29165649414062)"><path d="M0 0 C0 -117.24, 0 -234.47, 0 -464.58 M0 0 C0 -133.27, 0 -266.54, 0 -464.58" stroke="#1e1e1e" stroke-width="4" fill="none"></path></g><g transform="translate(197.21322900187113 474.58331298828125) rotate(0 0 -232.29165649414062)"><path d="M0 0 L-6.34 -13.59 L6.34 -13.59 L0 0" stroke="none" stroke-width="0" fill="#1e1e1e" fill-rule="evenodd"></path><path d="M0 0 C-1.6 -3.43, -3.2 -6.86, -6.34 -13.59 M0 0 C-1.82 -3.9, -3.64 -7.8, -6.34 -13.59 M-6.34 -13.59 C-2.62 -13.59, 1.09 -13.59, 6.34 -13.59 M-6.34 -13.59 C-2.92 -13.59, 0.51 -13.59, 6.34 -13.59 M6.34 -13.59 C4.1 -8.8, 1.86 -4, 0 0 M6.34 -13.59 C4.39 -9.41, 2.44 -5.23, 0 0 M0 0 C0 0, 0 0, 0 0 M0 0 C0 0, 0 0, 0 0" stroke="#1e1e1e" stroke-width="4" fill="none"></path></g><g transform="translate(197.21322900187113 474.58331298828125) rotate(0 0 -232.29165649414062)"><path d="M0 -464.58 L6.34 -450.99 L-6.34 -450.99 L0 -464.58" stroke="none" stroke-width="0" fill="#1e1e1e" fill-rule="evenodd"></path><path d="M0 -464.58 C1.6 -461.15, 3.2 -457.72, 6.34 -450.99 M0 -464.58 C1.82 -460.68, 3.64 -456.78, 6.34 -450.99 M6.34 -450.99 C2.62 -450.99, -1.09 -450.99, -6.34 -450.99 M6.34 -450.99 C2.92 -450.99, -0.51 -450.99, -6.34 -450.99 M-6.34 -450.99 C-4.1 -455.79, -1.86 -460.58, 0 -464.58 M-6.34 -450.99 C-4.39 -455.17, -2.44 -459.35, 0 -464.58 M0 -464.58 C0 -464.58, 0 -464.58, 0 -464.58 M0 -464.58 C0 -464.58, 0 -464.58, 0 -464.58" stroke="#1e1e1e" stroke-width="4" fill="none"></path></g></g><mask></mask><g stroke-linecap="round"><g transform="translate(162.66467553507425 242.46533203125) rotate(0 296.18060302734375 0)"><path d="M0 0 C204.38 0, 408.76 0, 592.36 0 M0 0 C210.28 0, 420.57 0, 592.36 0" stroke="#1e1e1e" stroke-width="4" fill="none"></path></g><g transform="translate(162.66467553507425 242.46533203125) rotate(0 296.18060302734375 0)"><path d="M592.36 0 L578.77 6.34 L578.77 -6.34 L592.36 0" stroke="none" stroke-width="0" fill="#1e1e1e" fill-rule="evenodd"></path><path d="M592.36 0 C587.67 2.19, 582.98 4.37, 578.77 6.34 M592.36 0 C587.54 2.25, 582.71 4.5, 578.77 6.34 M578.77 6.34 C578.77 2.95, 578.77 -0.44, 578.77 -6.34 M578.77 6.34 C578.77 2.67, 578.77 -1.01, 578.77 -6.34 M578.77 -6.34 C582.9 -4.41, 587.04 -2.48, 592.36 0 M578.77 -6.34 C581.97 -4.85, 585.17 -3.35, 592.36 0 M592.36 0 C592.36 0, 592.36 0, 592.36 0 M592.36 0 C592.36 0, 592.36 0, 592.36 0" stroke="#1e1e1e" stroke-width="4" fill="none"></path></g></g><mask></mask><g transform="translate(197.90768700968363 54.444427490234375) rotate(0 212.5 63.541656494140625)" stroke="none"><path fill="#2f9e44" d="M 0.96,-1.28 Q 0.96,-1.28 3.33,0.54 5.70,2.37 7.92,4.16 10.13,5.96 11.67,7.08 13.21,8.19 15.02,9.48 16.84,10.78 18.45,11.92 20.06,13.06 22.11,14.56 24.17,16.07 26.64,17.92 29.12,19.77 30.92,20.93 32.72,22.09 35.31,23.80 37.90,25.51 39.76,26.62 41.63,27.73 44.40,29.19 47.17,30.66 49.37,31.89 51.58,33.13 54.85,34.63 58.13,36.12 60.71,37.16 63.29,38.19 67.99,40.03 72.69,41.88 77.28,43.66 81.87,45.44 85.01,46.59 88.15,47.74 92.07,49.03 95.98,50.31 98.89,51.47 101.80,52.63 105.58,53.91 109.36,55.18 113.37,56.53 117.39,57.87 120.48,58.84 123.58,59.81 127.71,61.22 131.84,62.64 134.82,63.85 137.80,65.06 140.42,65.96 143.03,66.85 146.99,68.45 150.94,70.05 156.60,72.32 162.26,74.59 166.04,75.94 169.82,77.30 174.04,78.88 178.26,80.46 181.46,81.73 184.66,83.01 187.38,83.94 190.10,84.86 192.65,85.66 195.20,86.45 198.89,87.59 202.57,88.72 206.92,90.00 211.28,91.28 215.92,92.63 220.57,93.97 223.94,94.94 227.32,95.91 232.73,97.32 238.14,98.72 241.81,99.51 245.49,100.31 249.86,101.25 254.23,102.18 258.69,103.18 263.14,104.18 267.61,105.00 272.07,105.82 275.36,106.37 278.66,106.91 282.43,107.34 286.19,107.77 289.02,108.16 291.85,108.54 294.06,108.91 296.27,109.27 299.37,109.62 302.46,109.97 305.98,110.32 309.50,110.67 313.78,111.02 318.06,111.37 320.91,111.72 323.76,112.07 325.92,112.21 328.08,112.36 329.99,112.37 331.91,112.39 334.56,112.63 337.22,112.87 339.36,113.18 341.51,113.49 344.19,113.82 346.87,114.15 349.76,114.29 352.65,114.43 355.92,114.69 359.19,114.95 361.41,115.27 363.63,115.59 366.29,115.71 368.95,115.84 371.73,116.10 374.52,116.36 376.46,116.43 378.41,116.50 381.07,116.76 383.73,117.02 387.08,117.54 390.44,118.05 392.48,118.46 394.53,118.87 396.75,119.25 398.97,119.63 401.37,120.20 403.77,120.77 405.33,120.91 406.88,121.05 408.25,121.26 409.61,121.48 411.25,121.98 412.89,122.49 415.63,123.15 418.36,123.81 420.04,124.25 421.72,124.69 423.49,124.94 425.27,125.19 425.57,125.28 425.86,125.37 426.11,125.56 426.36,125.74 426.54,125.99 426.71,126.25 426.80,126.54 426.89,126.84 426.88,127.15 426.87,127.46 426.76,127.75 426.65,128.03 426.45,128.27 426.26,128.51 426.00,128.68 425.73,128.84 425.43,128.91 425.13,128.98 424.82,128.96 424.52,128.93 424.23,128.80 423.95,128.68 423.72,128.47 423.49,128.26 423.34,127.99 423.20,127.72 423.14,127.42 423.08,127.11 423.13,126.81 423.17,126.50 423.31,126.22 423.45,125.95 423.67,125.73 423.90,125.52 424.17,125.38 424.45,125.25 424.76,125.21 425.07,125.17 425.37,125.23 425.67,125.29 425.94,125.45 426.21,125.60 426.41,125.83 426.61,126.06 426.73,126.35 426.85,126.63 426.88,126.94 426.90,127.25 426.82,127.55 426.74,127.85 426.57,128.11 426.40,128.37 426.16,128.56 425.92,128.75 425.63,128.85 425.34,128.96 425.03,128.96 424.72,128.97 424.72,128.97 424.72,128.97 422.73,128.53 420.73,128.10 419.19,127.60 417.64,127.11 414.68,126.53 411.71,125.94 410.26,125.40 408.82,124.85 407.63,124.46 406.43,124.07 404.79,123.73 403.15,123.40 400.84,122.85 398.53,122.31 396.25,121.94 393.97,121.57 392.00,121.15 390.03,120.73 386.75,120.23 383.47,119.74 380.87,119.51 378.26,119.28 376.27,119.13 374.27,118.99 371.55,118.73 368.82,118.48 366.04,118.35 363.26,118.21 361.12,117.91 358.98,117.61 355.75,117.35 352.53,117.10 349.54,116.96 346.55,116.82 343.84,116.50 341.13,116.18 339.05,115.90 336.98,115.61 334.40,115.40 331.82,115.19 329.86,115.08 327.91,114.98 325.67,114.82 323.44,114.67 320.64,114.33 317.85,113.98 313.54,113.63 309.24,113.28 305.70,112.93 302.17,112.58 299.01,112.22 295.84,111.87 293.67,111.51 291.49,111.15 288.69,110.76 285.89,110.38 282.06,109.94 278.23,109.51 274.91,108.95 271.60,108.40 267.08,107.57 262.57,106.75 258.12,105.75 253.68,104.75 249.31,103.81 244.94,102.88 241.21,102.07 237.48,101.26 232.03,99.85 226.59,98.43 223.22,97.46 219.84,96.49 215.19,95.15 210.54,93.80 206.17,92.52 201.80,91.23 198.11,90.10 194.42,88.96 191.84,88.15 189.25,87.35 186.47,86.40 183.69,85.45 180.51,84.18 177.34,82.92 173.13,81.35 168.93,79.77 165.10,78.40 161.28,77.02 155.62,74.75 149.96,72.48 146.07,70.91 142.18,69.34 139.50,68.42 136.81,67.50 133.90,66.31 130.99,65.12 126.89,63.72 122.79,62.31 119.67,61.34 116.56,60.36 112.54,59.02 108.52,57.67 104.67,56.37 100.82,55.08 97.99,53.94 95.16,52.81 91.20,51.51 87.24,50.22 84.08,49.06 80.92,47.90 76.32,46.12 71.73,44.34 67.02,42.49 62.31,40.65 59.67,39.60 57.03,38.54 53.65,37.00 50.27,35.46 48.10,34.24 45.92,33.03 43.09,31.54 40.25,30.06 38.33,28.92 36.40,27.79 33.82,26.11 31.24,24.42 29.34,23.23 27.44,22.04 24.96,20.23 22.48,18.42 20.39,16.96 18.30,15.49 16.74,14.34 15.17,13.18 13.28,11.91 11.39,10.63 9.85,9.45 8.30,8.26 6.09,6.54 3.87,4.81 1.45,3.05 -0.96,1.28 -1.10,1.15 -1.24,1.01 -1.34,0.85 -1.45,0.69 -1.51,0.50 -1.57,0.32 -1.59,0.12 -1.60,-0.06 -1.57,-0.25 -1.54,-0.44 -1.46,-0.62 -1.39,-0.80 -1.27,-0.95 -1.16,-1.11 -1.01,-1.23 -0.86,-1.35 -0.68,-1.44 -0.51,-1.52 -0.32,-1.56 -0.13,-1.60 0.06,-1.59 0.25,-1.58 0.44,-1.53 0.62,-1.47 0.79,-1.38 0.96,-1.28 0.96,-1.28 L 0.96,-1.28 Z"></path></g><g transform="translate(194.43551904093363 429.4444274902344) rotate(0 216.66668701171875 -61.458343505859375)" stroke="none"><path fill="#2f9e44" d="M -1.01,-1.69 Q -1.01,-1.69 -0.05,-2.35 0.90,-3.01 1.76,-3.80 2.62,-4.60 3.51,-5.28 4.40,-5.96 5.80,-6.81 7.20,-7.66 9.38,-9.07 11.56,-10.47 13.76,-11.86 15.95,-13.25 17.45,-14.28 18.96,-15.30 20.44,-16.19 21.91,-17.08 26.31,-19.93 30.71,-22.78 33.62,-24.59 36.53,-26.41 40.57,-28.95 44.61,-31.50 47.34,-33.18 50.07,-34.85 53.24,-36.76 56.40,-38.66 59.01,-39.90 61.61,-41.13 64.87,-42.82 68.13,-44.51 71.74,-46.24 75.35,-47.97 78.07,-49.30 80.79,-50.62 84.16,-52.19 87.53,-53.76 89.93,-55.00 92.32,-56.25 95.57,-57.80 98.82,-59.34 102.43,-60.80 106.03,-62.27 108.55,-63.28 111.06,-64.30 113.13,-65.13 115.20,-65.96 117.30,-66.72 119.39,-67.48 121.25,-68.22 123.12,-68.96 126.12,-70.06 129.13,-71.16 131.61,-72.03 134.09,-72.89 137.37,-73.87 140.65,-74.84 144.41,-76.05 148.17,-77.25 150.76,-78.15 153.35,-79.06 156.68,-80.06 160.01,-81.05 162.61,-81.87 165.20,-82.68 168.31,-83.63 171.41,-84.58 174.73,-85.58 178.05,-86.58 180.48,-87.21 182.91,-87.84 185.92,-88.70 188.92,-89.56 191.22,-90.14 193.53,-90.71 196.26,-91.54 199.00,-92.37 201.20,-92.94 203.40,-93.50 206.34,-94.14 209.29,-94.78 211.53,-95.25 213.78,-95.72 216.69,-96.51 219.60,-97.30 222.67,-98.05 225.73,-98.79 228.04,-99.31 230.34,-99.82 233.12,-100.44 235.89,-101.06 237.85,-101.54 239.82,-102.02 242.25,-102.61 244.68,-103.20 246.73,-103.66 248.78,-104.12 251.02,-104.70 253.26,-105.28 255.00,-105.79 256.75,-106.30 258.95,-106.69 261.15,-107.07 264.22,-107.81 267.29,-108.55 269.41,-109.06 271.53,-109.58 274.08,-110.00 276.63,-110.43 278.46,-110.85 280.29,-111.27 282.72,-111.62 285.14,-111.97 286.92,-112.36 288.69,-112.75 291.10,-113.08 293.50,-113.41 295.27,-113.80 297.04,-114.19 299.23,-114.51 301.42,-114.83 302.88,-115.25 304.33,-115.67 306.50,-115.81 308.66,-115.95 310.04,-116.28 311.41,-116.61 313.45,-116.89 315.50,-117.16 317.01,-117.38 318.51,-117.59 320.28,-117.84 322.05,-118.09 323.48,-118.27 324.90,-118.46 326.84,-118.64 328.78,-118.83 330.14,-119.18 331.49,-119.52 333.55,-119.80 335.62,-120.07 337.12,-120.28 338.63,-120.48 340.62,-120.68 342.62,-120.87 344.87,-121.11 347.13,-121.35 348.93,-121.52 350.74,-121.68 352.85,-121.88 354.97,-122.07 356.51,-122.26 358.05,-122.44 360.14,-122.45 362.22,-122.46 364.30,-122.44 366.37,-122.42 367.85,-122.51 369.33,-122.60 370.40,-122.87 371.48,-123.14 373.51,-123.21 375.55,-123.27 376.77,-123.39 378.00,-123.50 379.62,-123.71 381.24,-123.91 383.04,-124.00 384.84,-124.10 386.19,-124.19 387.54,-124.29 389.66,-124.70 391.78,-125.12 393.75,-125.28 395.72,-125.44 396.95,-125.46 398.19,-125.49 399.54,-125.30 400.89,-125.11 402.09,-125.08 403.29,-125.06 405.10,-125.09 406.90,-125.11 408.46,-125.15 410.01,-125.20 411.63,-125.23 413.24,-125.27 414.66,-125.33 416.09,-125.39 417.37,-125.41 418.66,-125.44 419.87,-125.46 421.07,-125.48 422.51,-125.50 423.95,-125.51 425.23,-125.55 426.52,-125.59 427.93,-125.63 429.34,-125.67 431.25,-126.03 433.17,-126.39 433.73,-126.32 434.29,-126.26 434.80,-126.02 435.31,-125.78 435.71,-125.39 436.12,-125.00 436.38,-124.50 436.64,-124.00 436.72,-123.44 436.81,-122.88 436.71,-122.33 436.62,-121.77 436.35,-121.28 436.08,-120.78 435.67,-120.40 435.26,-120.01 434.75,-119.78 434.23,-119.55 433.67,-119.49 433.11,-119.44 432.56,-119.56 432.01,-119.69 431.53,-119.98 431.05,-120.28 430.69,-120.71 430.33,-121.14 430.13,-121.67 429.92,-122.19 429.90,-122.75 429.87,-123.32 430.03,-123.86 430.18,-124.40 430.50,-124.86 430.82,-125.33 431.27,-125.66 431.72,-126.00 432.26,-126.18 432.79,-126.35 433.36,-126.35 433.92,-126.34 434.45,-126.16 434.98,-125.97 435.43,-125.63 435.88,-125.28 436.19,-124.82 436.50,-124.35 436.65,-123.80 436.79,-123.26 436.76,-122.70 436.72,-122.14 436.51,-121.61 436.30,-121.09 435.93,-120.67 435.56,-120.24 435.07,-119.95 434.59,-119.67 434.04,-119.55 433.49,-119.43 433.49,-119.43 433.49,-119.43 431.42,-119.10 429.34,-118.77 427.93,-118.81 426.52,-118.85 425.23,-118.89 423.95,-118.92 422.51,-118.94 421.07,-118.95 419.34,-118.99 417.61,-119.03 416.01,-119.08 414.41,-119.13 412.92,-119.16 411.43,-119.19 409.97,-119.24 408.50,-119.29 406.69,-119.34 404.88,-119.39 403.16,-119.52 401.44,-119.64 399.82,-119.98 398.20,-120.31 396.05,-120.35 393.89,-120.39 391.96,-120.39 390.03,-120.38 388.85,-120.21 387.68,-120.03 386.36,-120.05 385.05,-120.06 383.40,-119.98 381.74,-119.89 379.93,-119.66 378.12,-119.44 376.92,-119.48 375.72,-119.52 373.91,-119.41 372.11,-119.30 370.73,-119.17 369.35,-119.04 367.88,-119.11 366.40,-119.18 364.35,-119.12 362.30,-119.06 360.30,-118.98 358.31,-118.89 356.83,-118.86 355.35,-118.83 353.18,-118.51 351.00,-118.19 349.29,-118.10 347.59,-118.00 345.34,-117.62 343.08,-117.24 341.04,-116.92 339.01,-116.59 337.61,-116.52 336.21,-116.45 334.25,-116.06 332.30,-115.68 330.77,-115.42 329.24,-115.15 327.22,-114.85 325.21,-114.55 323.88,-114.51 322.56,-114.48 320.70,-114.22 318.84,-113.96 317.42,-113.90 316.01,-113.85 314.02,-113.51 312.02,-113.16 310.46,-112.96 308.90,-112.77 306.98,-112.62 305.06,-112.46 303.47,-112.19 301.89,-111.91 299.75,-111.54 297.62,-111.16 295.77,-110.85 293.93,-110.54 291.60,-110.17 289.27,-109.80 287.42,-109.49 285.56,-109.18 283.22,-108.81 280.87,-108.44 278.98,-108.10 277.08,-107.76 274.64,-107.34 272.19,-106.92 270.07,-106.38 267.96,-105.84 264.81,-105.05 261.66,-104.27 259.57,-103.86 257.48,-103.46 255.71,-103.07 253.94,-102.68 251.65,-102.08 249.37,-101.47 247.34,-101.03 245.32,-100.58 242.88,-99.98 240.44,-99.38 238.45,-98.94 236.46,-98.49 233.69,-97.88 230.92,-97.26 228.63,-96.75 226.35,-96.24 223.32,-95.50 220.29,-94.77 217.30,-93.96 214.32,-93.15 212.08,-92.68 209.85,-92.22 206.95,-91.59 204.05,-90.95 201.91,-90.41 199.76,-89.86 196.96,-89.01 194.16,-88.16 191.90,-87.60 189.64,-87.04 186.61,-86.17 183.57,-85.30 181.19,-84.68 178.81,-84.06 175.50,-83.06 172.18,-82.06 169.09,-81.11 165.99,-80.17 163.38,-79.34 160.77,-78.52 157.50,-77.54 154.22,-76.56 151.61,-75.64 148.99,-74.72 145.20,-73.50 141.41,-72.29 138.20,-71.32 134.98,-70.36 132.52,-69.49 130.06,-68.62 127.08,-67.51 124.09,-66.40 122.19,-65.70 120.29,-65.01 118.24,-64.26 116.18,-63.52 114.12,-62.68 112.05,-61.85 109.54,-60.84 107.03,-59.82 103.49,-58.38 99.96,-56.94 96.76,-55.42 93.56,-53.89 91.11,-52.61 88.66,-51.33 85.32,-49.77 81.98,-48.20 79.26,-46.86 76.53,-45.52 72.97,-43.80 69.41,-42.07 66.12,-40.34 62.83,-38.60 60.36,-37.41 57.90,-36.21 54.77,-34.28 51.65,-32.34 48.97,-30.62 46.29,-28.90 42.29,-26.28 38.30,-23.66 35.48,-21.77 32.65,-19.88 28.24,-16.83 23.83,-13.78 22.44,-13.01 21.04,-12.23 19.54,-11.22 18.05,-10.20 16.00,-8.67 13.95,-7.14 11.79,-5.44 9.63,-3.74 7.54,-2.47 5.45,-1.20 4.27,-0.29 3.08,0.61 2.05,1.15 1.01,1.69 0.79,1.78 0.58,1.88 0.34,1.92 0.11,1.96 -0.12,1.95 -0.36,1.93 -0.58,1.86 -0.81,1.79 -1.01,1.67 -1.22,1.54 -1.38,1.37 -1.55,1.21 -1.67,1.00 -1.80,0.80 -1.87,0.57 -1.94,0.34 -1.95,0.11 -1.96,-0.12 -1.92,-0.35 -1.88,-0.59 -1.78,-0.80 -1.68,-1.02 -1.53,-1.21 -1.38,-1.39 -1.20,-1.54 -1.01,-1.69 -1.01,-1.69 L -1.01,-1.69 Z"></path></g><g transform="translate(193.74106103312113 59.3055419921875) rotate(0 203.125 158.15970611572266)" stroke="none"><path fill="#1971c2" d="M 0.37,-2.26 Q 0.37,-2.26 1.58,-2.10 2.78,-1.94 4.93,-1.68 7.08,-1.43 9.32,-0.57 11.56,0.29 13.95,1.72 16.33,3.14 17.72,3.87 19.12,4.59 20.67,5.85 22.22,7.11 23.18,7.70 24.14,8.29 25.54,10.05 26.93,11.80 27.68,12.57 28.43,13.34 29.38,14.53 30.33,15.73 31.19,17.13 32.06,18.53 32.75,19.35 33.45,20.18 34.25,21.50 35.05,22.82 35.61,23.75 36.17,24.67 36.77,25.59 37.38,26.51 38.65,28.65 39.92,30.79 40.89,32.46 41.85,34.12 42.79,36.35 43.73,38.59 44.22,39.78 44.72,40.98 45.61,43.26 46.50,45.55 46.73,46.64 46.97,47.72 47.20,49.10 47.44,50.48 48.12,53.91 48.80,57.33 49.04,58.84 49.28,60.34 49.54,61.93 49.80,63.52 49.97,64.90 50.14,66.29 50.36,67.76 50.59,69.24 50.75,70.37 50.91,71.50 51.14,72.87 51.37,74.25 51.46,75.99 51.55,77.74 51.79,78.89 52.04,80.03 52.02,82.36 51.99,84.69 52.12,86.75 52.25,88.81 52.40,90.36 52.55,91.90 52.76,93.69 52.97,95.47 53.13,96.91 53.29,98.34 53.51,100.08 53.72,101.81 54.04,103.32 54.35,104.82 54.55,106.18 54.75,107.53 54.86,108.73 54.98,109.92 55.17,111.52 55.35,113.12 55.49,114.50 55.63,115.89 55.77,117.81 55.92,119.73 56.05,121.22 56.19,122.71 56.39,124.46 56.58,126.21 56.71,127.86 56.83,129.50 56.97,131.53 57.11,133.56 57.24,135.30 57.36,137.04 57.47,138.38 57.57,139.73 57.68,142.66 57.80,145.60 57.83,147.69 57.87,149.79 58.04,152.23 58.22,154.68 58.34,156.57 58.46,158.46 58.56,160.07 58.66,161.69 58.81,163.92 58.96,166.14 59.01,168.77 59.06,171.40 59.16,173.10 59.25,174.81 59.52,176.23 59.80,177.64 59.83,179.99 59.86,182.34 59.93,184.11 60.01,185.89 60.16,187.98 60.32,190.07 60.46,191.83 60.59,193.58 60.58,195.75 60.57,197.91 60.63,199.63 60.70,201.35 60.65,203.48 60.61,205.62 60.88,207.02 61.15,208.41 61.20,210.54 61.26,212.67 61.34,214.36 61.42,216.04 61.62,217.88 61.82,219.72 61.86,222.00 61.90,224.29 62.01,225.84 62.12,227.40 62.33,229.18 62.54,230.96 62.72,232.18 62.90,233.40 62.95,235.17 63.01,236.93 63.06,238.47 63.11,240.01 63.18,241.27 63.25,242.53 63.29,243.87 63.34,245.21 63.62,247.20 63.90,249.18 64.04,250.41 64.17,251.63 64.23,252.96 64.28,254.30 64.28,255.87 64.27,257.44 64.27,258.91 64.27,260.38 64.30,261.60 64.32,262.82 64.52,263.96 64.71,265.10 64.90,267.43 65.09,269.75 65.33,271.67 65.58,273.59 65.70,274.82 65.81,276.05 65.92,277.96 66.02,279.87 66.36,281.25 66.70,282.62 66.80,284.12 66.89,285.63 67.22,286.92 67.54,288.22 67.64,289.31 67.74,290.41 68.05,291.90 68.36,293.38 68.80,295.21 69.24,297.03 69.86,298.23 70.49,299.43 71.22,300.29 71.94,301.15 72.90,302.11 73.86,303.08 74.74,304.01 75.63,304.95 76.86,306.19 78.08,307.42 79.35,308.48 80.63,309.54 81.66,310.24 82.68,310.94 84.36,311.47 86.04,311.99 87.08,312.31 88.12,312.64 89.60,312.45 91.09,312.26 92.38,311.92 93.67,311.58 94.55,310.25 95.42,308.92 96.23,307.42 97.03,305.92 97.85,304.54 98.67,303.16 99.20,301.81 99.72,300.47 100.10,298.99 100.48,297.51 100.86,296.49 101.23,295.47 101.58,294.04 101.93,292.62 102.30,291.60 102.67,290.59 103.01,289.42 103.35,288.25 104.05,285.88 104.75,283.52 105.21,281.34 105.67,279.15 106.02,277.93 106.38,276.71 106.76,274.97 107.14,273.22 107.45,272.03 107.76,270.83 108.12,269.60 108.49,268.36 108.86,266.95 109.24,265.54 109.66,263.12 110.08,260.70 110.41,259.39 110.75,258.08 111.12,255.86 111.49,253.64 111.57,252.56 111.66,251.49 111.96,249.89 112.26,248.29 112.63,246.63 113.00,244.96 113.37,242.40 113.75,239.85 113.88,238.35 114.02,236.86 114.03,235.79 114.04,234.73 114.26,232.08 114.49,229.42 114.65,227.72 114.81,226.02 114.91,224.28 115.00,222.53 115.31,220.48 115.62,218.43 116.01,214.63 116.41,210.83 116.82,207.96 117.22,205.10 117.62,202.86 118.02,200.63 118.09,199.13 118.16,197.63 118.43,195.73 118.70,193.83 118.71,192.67 118.73,191.51 118.70,190.45 118.66,189.38 118.82,186.73 118.97,184.08 119.24,181.59 119.51,179.10 119.62,177.60 119.73,176.11 119.74,174.85 119.75,173.59 119.95,172.25 120.16,170.92 120.24,169.58 120.32,168.24 120.61,166.50 120.89,164.77 120.96,163.55 121.03,162.33 121.08,160.83 121.14,159.34 121.37,156.51 121.60,153.67 121.69,151.21 121.77,148.74 121.98,147.33 122.19,145.92 122.24,144.07 122.28,142.23 122.33,140.70 122.39,139.16 122.37,138.10 122.34,137.03 122.40,135.37 122.46,133.72 122.43,132.61 122.40,131.51 122.63,129.86 122.86,128.22 122.92,127.07 122.98,125.93 123.01,124.65 123.04,123.38 123.03,122.23 123.03,121.08 123.25,119.60 123.47,118.11 123.55,116.88 123.63,115.65 123.88,113.14 124.13,110.63 124.19,108.93 124.24,107.23 124.60,105.20 124.97,103.17 125.31,101.46 125.65,99.75 125.74,97.73 125.82,95.71 126.02,93.41 126.22,91.10 126.25,89.86 126.29,88.61 126.52,87.51 126.75,86.41 127.04,84.72 127.33,83.02 127.67,81.15 128.00,79.27 128.33,77.73 128.66,76.19 128.96,74.91 129.26,73.63 129.62,72.32 129.97,71.01 130.41,69.90 130.84,68.79 131.49,67.03 132.14,65.27 132.88,63.71 133.61,62.16 134.33,61.31 135.05,60.45 136.07,59.42 137.10,58.39 138.61,57.59 140.13,56.79 142.15,57.04 144.17,57.29 145.46,57.51 146.74,57.73 148.30,58.21 149.85,58.70 151.39,59.35 152.92,60.00 153.74,60.77 154.57,61.54 155.70,62.39 156.83,63.24 157.43,64.12 158.04,65.00 158.99,66.36 159.95,67.72 160.84,68.57 161.73,69.41 162.67,70.66 163.60,71.91 164.91,73.59 166.21,75.27 167.03,76.80 167.85,78.34 168.61,80.12 169.37,81.91 169.60,82.99 169.83,84.08 170.21,85.58 170.59,87.08 170.93,88.20 171.27,89.32 171.60,91.48 171.93,93.63 172.25,95.42 172.58,97.21 172.91,99.03 173.24,100.86 173.42,101.93 173.60,103.01 173.92,104.57 174.23,106.13 174.38,107.58 174.52,109.04 174.85,111.12 175.17,113.19 175.33,114.60 175.49,116.00 175.61,117.13 175.73,118.26 175.83,120.08 175.94,121.90 176.22,122.93 176.50,123.96 176.68,126.86 176.86,129.77 177.00,131.36 177.13,132.95 177.31,134.77 177.49,136.59 177.66,137.83 177.82,139.07 178.03,140.73 178.24,142.39 178.43,146.41 178.62,150.43 178.67,152.53 178.72,154.62 178.83,156.13 178.94,157.63 179.18,159.17 179.41,160.71 179.48,162.69 179.55,164.68 179.77,166.41 180.00,168.15 180.25,170.11 180.50,172.07 180.57,174.40 180.64,176.74 180.88,178.64 181.12,180.54 181.31,182.01 181.50,183.48 181.78,185.02 182.05,186.56 182.24,187.69 182.44,188.82 182.71,190.21 182.97,191.60 183.30,192.97 183.62,194.35 183.83,195.44 184.04,196.52 184.29,197.90 184.55,199.27 184.72,200.36 184.90,201.44 185.15,202.56 185.40,203.68 185.51,205.37 185.62,207.05 185.71,208.13 185.80,209.21 185.83,210.50 185.87,211.78 186.04,213.17 186.21,214.55 186.34,215.67 186.47,216.78 186.52,218.10 186.58,219.42 186.78,221.83 186.97,224.23 187.44,226.32 187.91,228.41 188.21,230.13 188.51,231.85 188.88,233.57 189.25,235.30 189.63,237.03 190.00,238.77 190.38,240.46 190.76,242.15 191.21,244.40 191.67,246.64 192.06,248.16 192.46,249.67 192.84,250.84 193.22,252.01 193.47,253.12 193.73,254.23 194.18,255.53 194.63,256.84 195.12,258.17 195.61,259.51 196.26,261.20 196.91,262.90 197.35,264.07 197.78,265.25 198.33,266.63 198.88,268.02 199.29,269.07 199.69,270.13 200.32,271.06 200.96,272.00 202.00,273.34 203.05,274.68 204.31,274.59 205.57,274.50 206.63,273.90 207.69,273.30 208.56,272.46 209.44,271.63 210.67,270.41 211.91,269.19 213.21,267.64 214.51,266.09 215.11,265.04 215.71,263.98 216.44,262.43 217.16,260.88 217.83,259.81 218.49,258.73 219.56,256.98 220.63,255.22 221.28,254.13 221.93,253.04 222.79,251.38 223.65,249.71 224.68,247.59 225.70,245.47 226.03,244.45 226.36,243.43 226.77,242.35 227.19,241.27 227.81,239.87 228.44,238.46 229.15,237.01 229.87,235.56 230.32,234.42 230.77,233.29 231.15,232.09 231.53,230.88 232.18,229.27 232.83,227.66 233.26,226.41 233.70,225.16 234.09,223.74 234.48,222.32 234.60,221.20 234.72,220.08 235.27,218.35 235.81,216.61 236.53,213.70 237.25,210.79 237.55,208.96 237.86,207.13 238.24,205.11 238.63,203.09 238.92,201.55 239.22,200.02 239.58,198.24 239.94,196.46 240.29,194.67 240.65,192.89 241.28,190.51 241.91,188.13 242.19,186.04 242.46,183.94 242.69,182.49 242.92,181.04 242.98,179.59 243.05,178.13 243.38,175.84 243.72,173.54 244.06,171.54 244.39,169.53 244.72,167.67 245.05,165.81 245.44,163.65 245.83,161.49 245.87,160.19 245.92,158.88 246.14,157.25 246.36,155.63 246.67,152.72 246.97,149.82 247.36,146.08 247.75,142.33 247.92,140.33 248.09,138.33 248.13,136.50 248.18,134.67 248.36,132.97 248.54,131.28 248.58,129.86 248.61,128.45 248.52,126.50 248.43,124.54 248.62,122.86 248.80,121.18 248.99,119.29 249.18,117.40 249.21,116.17 249.23,114.94 249.47,113.86 249.71,112.78 250.05,110.93 250.40,109.08 250.73,107.50 251.07,105.92 251.74,104.04 252.41,102.15 253.23,100.81 254.04,99.47 255.08,98.75 256.11,98.03 257.48,97.01 258.84,95.98 259.99,95.81 261.13,95.64 263.09,95.86 265.04,96.08 266.69,97.34 268.33,98.61 269.20,100.58 270.07,102.56 270.28,103.62 270.49,104.69 270.94,105.99 271.38,107.30 272.15,109.29 272.91,111.29 273.25,112.31 273.58,113.34 274.00,114.89 274.42,116.43 274.91,117.71 275.41,118.98 275.82,120.03 276.24,121.08 276.58,122.11 276.93,123.14 277.26,124.46 277.60,125.79 278.26,127.58 278.92,129.38 279.24,130.72 279.56,132.06 279.87,133.44 280.18,134.81 280.84,136.97 281.51,139.13 281.83,140.49 282.15,141.85 282.59,143.77 283.03,145.70 283.23,148.03 283.44,150.36 283.45,152.61 283.46,154.85 283.67,156.56 283.87,158.27 284.04,159.49 284.21,160.72 284.29,162.09 284.37,163.47 284.37,165.05 284.37,166.64 284.72,168.88 285.07,171.13 285.11,172.52 285.16,173.91 285.41,175.91 285.66,177.91 285.78,180.10 285.90,182.29 286.06,183.64 286.22,184.98 286.37,187.23 286.53,189.49 286.73,190.63 286.93,191.77 287.03,193.25 287.14,194.73 287.18,196.16 287.22,197.59 287.23,199.00 287.25,200.41 287.43,201.63 287.62,202.85 287.83,204.65 288.04,206.44 288.19,207.89 288.34,209.34 288.58,210.61 288.83,211.89 288.96,213.40 289.09,214.91 289.30,216.42 289.50,217.93 289.64,219.29 289.78,220.65 289.94,222.47 290.10,224.29 290.13,225.45 290.16,226.61 290.37,228.50 290.57,230.38 290.80,231.51 291.02,232.63 291.37,233.75 291.72,234.86 292.26,236.46 292.79,238.05 293.32,239.08 293.85,240.10 294.66,241.27 295.48,242.43 296.46,243.22 297.44,244.00 298.41,244.65 299.39,245.29 300.97,245.26 302.55,245.22 304.04,244.93 305.54,244.64 306.97,244.54 308.41,244.44 309.50,244.41 310.59,244.38 311.87,243.56 313.15,242.75 313.92,241.71 314.70,240.67 315.68,239.10 316.65,237.53 317.21,236.17 317.77,234.82 318.23,233.28 318.69,231.74 319.28,230.28 319.88,228.82 320.28,227.67 320.69,226.52 321.10,225.47 321.51,224.41 321.86,223.34 322.20,222.26 322.58,220.99 322.96,219.73 323.35,218.64 323.73,217.55 324.14,216.21 324.54,214.87 324.83,213.70 325.11,212.53 325.46,211.49 325.81,210.45 326.17,209.09 326.53,207.72 326.96,205.24 327.40,202.76 327.73,201.57 328.07,200.39 328.41,199.05 328.76,197.72 328.90,196.48 329.03,195.23 329.31,194.02 329.58,192.81 329.89,191.59 330.20,190.37 330.57,188.14 330.94,185.91 331.02,184.25 331.11,182.59 331.35,181.53 331.60,180.46 331.94,177.93 332.29,175.40 332.65,173.01 333.01,170.61 333.12,169.34 333.23,168.06 333.51,166.53 333.79,165.00 334.11,163.84 334.43,162.67 334.75,161.49 335.06,160.31 335.41,159.00 335.76,157.70 335.91,156.35 336.07,154.99 336.33,153.73 336.60,152.47 336.91,151.21 337.22,149.95 337.57,147.84 337.91,145.74 338.24,144.40 338.56,143.07 338.91,141.70 339.26,140.33 339.38,139.13 339.51,137.93 340.09,134.97 340.68,132.01 340.87,130.57 341.05,129.13 341.33,128.02 341.61,126.91 341.89,125.49 342.17,124.07 342.47,122.37 342.78,120.67 343.12,119.38 343.46,118.10 343.79,116.97 344.11,115.85 344.80,114.27 345.49,112.69 345.72,111.45 345.94,110.21 346.79,108.76 347.65,107.32 348.84,106.04 350.03,104.76 351.81,104.87 353.58,104.98 354.51,105.96 355.43,106.94 356.38,108.17 357.33,109.39 357.59,110.55 357.85,111.72 358.08,113.24 358.31,114.76 358.71,115.87 359.12,116.99 359.73,118.33 360.34,119.66 361.02,121.39 361.69,123.12 362.48,125.08 363.26,127.04 363.93,128.51 364.60,129.98 365.45,132.03 366.30,134.08 366.66,135.20 367.01,136.31 367.71,138.42 368.41,140.52 368.86,141.68 369.31,142.85 369.74,144.34 370.18,145.84 370.90,147.48 371.61,149.11 372.01,150.43 372.42,151.75 372.76,153.10 373.09,154.45 373.29,155.54 373.48,156.62 374.04,158.11 374.60,159.60 374.86,161.96 375.11,164.32 375.14,165.46 375.16,166.59 375.33,168.65 375.51,170.71 375.62,171.78 375.73,172.85 375.77,173.95 375.82,175.04 375.84,176.11 375.87,177.18 376.05,178.74 376.24,180.30 376.37,181.47 376.50,182.65 376.69,183.71 376.89,184.77 377.02,187.24 377.15,189.71 377.22,191.34 377.29,192.96 377.29,194.10 377.28,195.24 377.28,196.30 377.28,197.37 377.60,198.78 377.91,200.20 377.94,201.48 377.96,202.76 378.17,204.32 378.38,205.89 378.69,207.36 379.00,208.83 379.24,210.39 379.48,211.95 379.65,213.03 379.81,214.11 380.13,215.61 380.46,217.11 380.68,218.38 380.90,219.65 381.38,220.85 381.86,222.04 382.14,223.57 382.42,225.11 382.72,226.38 383.02,227.66 383.11,229.18 383.20,230.71 383.63,231.95 384.07,233.19 384.88,234.78 385.69,236.37 386.92,237.78 388.14,239.19 388.87,240.03 389.60,240.87 390.05,241.96 390.49,243.05 391.78,242.70 393.07,242.36 394.19,241.70 395.30,241.05 396.31,240.39 397.32,239.73 398.80,239.08 400.29,238.43 401.59,236.24 402.90,234.05 403.19,233.54 403.48,233.04 403.91,232.66 404.35,232.28 404.88,232.06 405.42,231.83 405.99,231.79 406.57,231.75 407.13,231.89 407.69,232.04 408.18,232.36 408.66,232.67 409.02,233.13 409.38,233.58 409.57,234.13 409.77,234.68 409.78,235.25 409.79,235.83 409.61,236.39 409.44,236.94 409.09,237.40 408.75,237.87 408.28,238.20 407.80,238.54 407.25,238.70 406.69,238.87 406.11,238.84 405.53,238.82 404.99,238.62 404.45,238.41 404.00,238.05 403.56,237.68 403.25,237.19 402.94,236.70 402.81,236.13 402.67,235.57 402.73,234.99 402.78,234.41 403.01,233.89 403.25,233.36 403.64,232.93 404.03,232.50 404.54,232.22 405.04,231.94 405.61,231.84 406.18,231.73 406.76,231.82 407.33,231.90 407.85,232.17 408.36,232.43 408.77,232.84 409.17,233.26 409.43,233.78 409.68,234.30 409.75,234.87 409.82,235.45 409.71,236.02 409.59,236.58 409.59,236.58 409.59,236.58 408.37,238.80 407.14,241.03 405.71,242.57 404.27,244.12 403.18,244.69 402.08,245.25 401.08,245.81 400.08,246.36 398.92,247.11 397.77,247.86 395.96,248.56 394.16,249.26 393.05,249.63 391.94,250.00 390.86,249.97 389.79,249.94 388.74,249.74 387.69,249.53 386.50,248.36 385.31,247.19 384.79,246.25 384.27,245.32 383.38,244.14 382.49,242.96 381.31,241.64 380.13,240.32 379.39,239.12 378.65,237.92 378.18,236.78 377.72,235.64 377.37,234.40 377.01,233.17 376.74,232.06 376.47,230.94 376.39,229.42 376.31,227.89 376.03,226.19 375.75,224.49 375.43,223.38 375.10,222.28 374.74,220.50 374.38,218.71 374.04,216.96 373.70,215.20 373.39,212.92 373.07,210.64 372.73,208.83 372.39,207.01 372.15,204.98 371.92,202.94 371.86,201.27 371.79,199.60 371.56,198.52 371.32,197.45 371.31,196.35 371.31,195.25 371.30,194.14 371.29,193.02 371.31,191.45 371.33,189.87 371.17,187.89 371.02,185.91 370.69,183.80 370.37,181.70 370.15,180.52 369.92,179.34 369.91,177.30 369.89,175.26 369.80,173.41 369.71,171.57 369.46,169.15 369.20,166.72 369.13,164.66 369.06,162.59 368.73,161.04 368.41,159.49 367.97,157.72 367.53,155.95 367.17,154.71 366.80,153.48 366.13,151.61 365.46,149.75 365.05,148.68 364.64,147.61 364.21,146.39 363.78,145.18 363.13,143.74 362.48,142.30 361.76,140.32 361.04,138.34 360.33,136.37 359.62,134.40 358.89,132.89 358.16,131.38 357.42,129.63 356.68,127.89 355.68,125.88 354.69,123.87 354.06,122.41 353.42,120.95 352.65,119.19 351.89,117.44 351.54,115.72 351.20,114.01 351.13,112.14 351.05,110.26 352.54,109.97 354.03,109.67 353.21,110.70 352.38,111.73 351.94,113.22 351.50,114.70 350.98,115.66 350.47,116.61 349.92,117.68 349.37,118.75 348.99,119.79 348.61,120.83 348.16,122.53 347.71,124.24 347.28,125.65 346.84,127.06 346.37,128.38 345.90,129.70 345.73,131.42 345.55,133.14 345.17,135.80 344.79,138.47 344.63,140.03 344.47,141.59 344.16,142.95 343.85,144.31 343.56,145.60 343.27,146.88 343.03,147.99 342.78,149.10 342.59,150.16 342.40,151.22 341.84,153.35 341.28,155.48 341.14,157.25 341.00,159.03 340.67,160.38 340.34,161.72 339.71,163.82 339.09,165.93 338.88,167.20 338.68,168.47 338.58,170.01 338.49,171.55 338.29,172.88 338.09,174.21 337.96,175.29 337.82,176.37 337.63,177.59 337.44,178.82 337.31,180.44 337.19,182.06 336.91,183.39 336.64,184.72 336.50,185.81 336.35,186.90 336.13,188.25 335.91,189.59 335.73,190.65 335.54,191.72 334.98,193.75 334.43,195.78 334.29,197.37 334.14,198.95 333.54,201.35 332.94,203.75 332.73,205.15 332.53,206.55 332.37,207.73 332.20,208.91 331.62,211.42 331.04,213.93 330.81,215.00 330.57,216.07 330.31,217.11 330.05,218.15 329.41,219.71 328.77,221.28 328.45,222.64 328.12,224.01 327.43,226.19 326.74,228.38 326.02,230.68 325.30,232.97 325.09,234.05 324.87,235.13 324.53,236.20 324.18,237.27 323.79,238.36 323.39,239.46 322.80,240.66 322.21,241.86 321.64,242.82 321.08,243.78 319.88,245.27 318.69,246.77 317.87,247.58 317.06,248.39 315.75,249.47 314.45,250.55 312.52,250.97 310.60,251.38 309.23,251.36 307.86,251.34 306.79,251.36 305.73,251.39 304.62,251.67 303.51,251.94 302.35,251.92 301.19,251.90 300.04,251.81 298.89,251.73 297.50,251.28 296.10,250.84 295.04,250.07 293.98,249.31 292.81,248.31 291.63,247.30 290.80,246.29 289.98,245.29 289.27,243.89 288.57,242.49 287.97,240.86 287.38,239.24 287.07,237.89 286.75,236.54 286.49,234.96 286.24,233.38 286.12,232.32 286.00,231.26 285.41,228.97 284.81,226.67 284.82,225.54 284.83,224.41 284.87,222.73 284.90,221.05 284.83,219.85 284.76,218.66 284.48,216.97 284.20,215.29 284.11,214.02 284.03,212.76 283.77,211.26 283.52,209.77 283.42,208.48 283.32,207.20 282.96,205.40 282.59,203.60 282.37,202.04 282.14,200.47 282.12,199.10 282.11,197.73 282.07,196.39 282.03,195.06 281.96,193.81 281.89,192.57 281.67,191.08 281.45,189.59 281.46,187.51 281.47,185.43 281.38,184.17 281.29,182.91 280.84,180.86 280.39,178.80 280.19,176.43 280.00,174.06 279.97,172.78 279.94,171.49 279.88,170.39 279.83,169.29 279.64,168.01 279.44,166.72 279.40,165.20 279.36,163.67 279.33,162.46 279.30,161.24 279.22,160.15 279.14,159.05 278.76,157.19 278.38,155.34 277.95,152.97 277.53,150.60 277.41,148.81 277.30,147.03 276.92,145.18 276.53,143.33 276.16,142.04 275.79,140.76 275.45,139.64 275.11,138.53 274.73,137.43 274.34,136.32 273.95,135.01 273.57,133.70 272.91,131.61 272.25,129.53 271.81,128.55 271.37,127.58 270.67,125.56 269.97,123.55 269.25,121.98 268.54,120.41 267.89,118.46 267.25,116.50 266.81,115.17 266.38,113.84 265.68,112.29 264.97,110.74 264.66,109.72 264.35,108.69 263.96,107.67 263.58,106.65 263.44,105.39 263.30,104.12 262.72,102.86 262.13,101.59 261.11,102.23 260.08,102.87 259.04,103.98 258.00,105.08 257.55,106.29 257.09,107.51 256.73,108.54 256.36,109.58 255.94,111.29 255.51,113.00 255.16,114.11 254.81,115.22 254.57,116.90 254.34,118.58 254.03,120.12 253.71,121.66 253.30,123.16 252.89,124.66 252.69,126.68 252.49,128.70 252.33,130.24 252.18,131.79 251.91,133.28 251.65,134.77 251.58,136.66 251.52,138.55 251.43,140.59 251.34,142.62 251.12,146.48 250.90,150.34 250.69,152.18 250.48,154.01 250.28,155.13 250.08,156.24 249.78,157.76 249.48,159.27 249.23,160.63 248.99,161.98 248.70,164.20 248.41,166.42 248.08,168.24 247.74,170.06 247.47,171.99 247.19,173.93 247.02,176.19 246.85,178.44 246.66,180.13 246.46,181.82 246.10,183.06 245.73,184.29 245.54,186.61 245.35,188.93 244.89,191.27 244.44,193.62 244.10,195.40 243.77,197.17 243.45,199.04 243.12,200.90 242.76,202.28 242.40,203.67 242.17,205.67 241.94,207.68 241.73,209.65 241.53,211.63 241.05,214.85 240.57,218.06 240.17,219.41 239.78,220.75 239.58,222.15 239.37,223.54 238.98,225.21 238.60,226.87 238.15,228.15 237.70,229.43 237.21,230.95 236.73,232.46 236.31,233.88 235.89,235.30 235.39,236.57 234.90,237.84 234.34,239.20 233.78,240.57 232.92,242.90 232.07,245.24 231.12,247.55 230.18,249.85 229.75,251.22 229.31,252.58 228.42,254.32 227.53,256.06 226.89,257.38 226.24,258.70 225.27,260.43 224.29,262.17 223.49,263.75 222.69,265.33 222.19,266.51 221.69,267.68 220.81,269.19 219.92,270.70 218.91,272.05 217.89,273.40 216.91,274.40 215.94,275.41 214.84,276.49 213.75,277.57 212.80,278.40 211.85,279.23 210.38,279.95 208.92,280.66 207.75,281.13 206.59,281.60 205.33,281.86 204.08,282.12 202.86,281.73 201.64,281.33 200.36,280.60 199.07,279.87 198.09,278.87 197.11,277.88 196.25,276.87 195.38,275.86 194.63,274.60 193.88,273.35 193.24,271.66 192.61,269.96 192.16,268.86 191.71,267.75 191.34,266.60 190.96,265.44 190.27,263.70 189.59,261.97 188.96,260.16 188.33,258.35 187.94,257.13 187.56,255.91 187.30,254.17 187.04,252.43 186.70,250.92 186.36,249.42 185.96,247.59 185.55,245.76 185.22,244.63 184.90,243.50 184.58,241.87 184.27,240.24 183.96,238.47 183.64,236.71 183.35,234.89 183.05,233.07 182.82,231.86 182.59,230.65 182.52,228.90 182.45,227.14 182.15,226.03 181.85,224.91 181.60,222.24 181.36,219.58 181.29,217.40 181.22,215.23 180.98,213.54 180.73,211.86 180.73,209.62 180.73,207.39 180.63,206.02 180.53,204.65 180.24,202.37 179.96,200.09 179.66,197.67 179.36,195.25 179.08,193.78 178.79,192.30 178.56,189.71 178.32,187.13 178.11,185.44 177.89,183.75 177.87,182.36 177.84,180.96 177.57,178.94 177.30,176.93 177.11,174.77 176.93,172.62 176.58,170.63 176.23,168.65 175.97,166.76 175.72,164.87 175.60,163.06 175.47,161.24 175.26,159.51 175.05,157.78 175.05,156.32 175.05,154.85 174.85,152.79 174.64,150.74 174.22,146.88 173.80,143.02 173.52,141.26 173.23,139.49 173.17,138.35 173.12,137.20 172.78,135.29 172.45,133.37 172.30,131.86 172.16,130.34 171.68,127.82 171.21,125.30 170.88,123.96 170.55,122.61 170.08,119.78 169.61,116.95 169.21,114.45 168.80,111.94 168.45,109.96 168.09,107.99 167.71,106.13 167.33,104.27 166.96,102.21 166.60,100.15 166.25,98.29 165.90,96.44 165.50,94.53 165.09,92.63 164.77,91.40 164.44,90.16 164.08,88.75 163.73,87.34 163.32,85.88 162.92,84.41 162.27,83.01 161.62,81.61 160.95,80.41 160.28,79.20 159.36,78.10 158.45,76.99 157.80,76.06 157.15,75.13 156.26,73.97 155.36,72.81 154.22,71.58 153.07,70.34 152.16,69.13 151.24,67.92 150.20,67.05 149.15,66.17 147.99,65.55 146.84,64.92 145.64,64.72 144.44,64.52 143.46,63.92 142.49,63.32 141.02,64.08 139.55,64.84 138.98,66.06 138.40,67.29 137.75,68.58 137.11,69.87 136.71,70.92 136.32,71.97 135.96,73.00 135.60,74.02 135.22,75.40 134.85,76.78 134.48,77.91 134.11,79.04 133.73,80.56 133.36,82.08 133.21,83.29 133.06,84.49 132.69,86.17 132.33,87.84 132.05,89.03 131.77,90.22 131.42,92.00 131.07,93.79 131.01,94.88 130.96,95.97 130.86,97.11 130.77,98.26 130.59,99.43 130.42,100.60 130.18,102.16 129.94,103.72 129.79,106.49 129.64,109.26 129.51,110.34 129.39,111.42 129.13,113.70 128.88,115.99 128.78,117.46 128.69,118.94 128.50,120.05 128.31,121.16 128.27,122.34 128.23,123.53 128.19,124.90 128.15,126.28 128.04,127.59 127.92,128.91 127.76,130.21 127.59,131.52 127.55,132.62 127.52,133.73 127.57,135.40 127.62,137.06 127.59,138.14 127.55,139.22 127.49,141.77 127.43,144.32 127.30,145.55 127.16,146.79 126.94,147.83 126.72,148.88 126.69,150.42 126.65,151.96 126.52,153.11 126.39,154.27 126.23,155.80 126.07,157.33 126.01,158.40 125.95,159.47 125.92,161.09 125.88,162.71 125.75,164.08 125.61,165.46 125.42,167.00 125.23,168.54 124.89,171.15 124.56,173.76 124.48,175.08 124.41,176.40 124.32,178.14 124.22,179.87 123.99,181.22 123.76,182.57 123.61,183.64 123.46,184.72 123.24,186.05 123.03,187.37 122.94,188.46 122.85,189.56 122.73,190.71 122.60,191.87 122.39,193.09 122.19,194.32 121.94,196.14 121.68,197.96 121.47,199.54 121.25,201.12 120.97,203.31 120.70,205.49 120.46,208.30 120.22,211.12 120.03,215.00 119.85,218.89 119.72,220.76 119.60,222.63 119.62,224.44 119.64,226.26 119.62,228.20 119.61,230.15 119.43,231.45 119.25,232.75 119.20,233.85 119.15,234.94 119.07,236.07 118.98,237.19 118.90,238.95 118.82,240.72 118.60,242.13 118.38,243.53 118.21,244.71 118.04,245.89 117.80,247.52 117.56,249.15 117.37,250.57 117.17,252.00 117.04,253.31 116.91,254.63 116.70,255.98 116.48,257.32 116.29,258.38 116.10,259.44 115.82,260.56 115.53,261.69 115.31,263.08 115.10,264.48 114.92,265.63 114.74,266.78 114.44,268.37 114.14,269.96 113.84,271.07 113.53,272.17 113.01,274.18 112.49,276.19 112.30,277.25 112.11,278.31 111.83,279.38 111.54,280.45 111.30,281.67 111.07,282.89 110.47,285.20 109.88,287.51 109.71,288.63 109.55,289.75 109.23,291.31 108.91,292.86 108.43,294.57 107.96,296.27 107.51,297.71 107.06,299.15 106.63,300.99 106.19,302.84 105.83,303.88 105.47,304.92 104.75,306.34 104.02,307.75 103.32,309.16 102.62,310.57 101.71,312.11 100.80,313.65 100.02,314.76 99.24,315.87 98.31,316.66 97.37,317.45 96.12,317.89 94.86,318.33 93.14,318.81 91.42,319.28 89.25,319.45 87.08,319.61 84.83,318.92 82.58,318.23 81.52,317.85 80.46,317.47 79.10,316.90 77.73,316.32 76.43,315.13 75.13,313.94 74.10,313.17 73.07,312.41 71.81,311.13 70.55,309.86 69.79,309.04 69.04,308.23 68.01,307.13 66.98,306.03 65.91,304.56 64.85,303.10 64.04,301.47 63.24,299.85 63.15,298.78 63.05,297.72 62.47,295.84 61.88,293.97 61.63,292.31 61.37,290.64 61.37,289.27 61.37,287.90 61.10,286.08 60.82,284.25 60.81,283.18 60.81,282.10 60.56,280.12 60.32,278.14 60.25,276.33 60.19,274.52 59.99,272.21 59.79,269.91 59.74,267.89 59.68,265.86 59.48,264.35 59.27,262.84 59.29,261.62 59.31,260.40 59.30,258.95 59.29,257.49 59.25,255.97 59.21,254.44 59.16,252.21 59.11,249.97 58.99,247.59 58.87,245.22 58.90,243.88 58.94,242.55 59.00,241.30 59.05,240.06 59.07,238.54 59.09,237.02 59.06,235.36 59.04,233.70 59.04,232.53 59.04,231.37 58.82,229.43 58.59,227.49 58.62,225.95 58.66,224.42 58.51,222.26 58.37,220.11 58.13,218.11 57.90,216.12 57.91,214.46 57.92,212.81 57.81,210.84 57.69,208.88 57.55,207.26 57.42,205.63 57.36,203.51 57.30,201.38 57.33,199.68 57.36,197.97 57.27,195.87 57.18,193.76 57.13,192.08 57.09,190.40 56.81,188.18 56.54,185.97 56.53,184.22 56.52,182.47 56.37,180.31 56.22,178.15 56.06,176.52 55.90,174.89 55.92,173.20 55.93,171.51 55.80,168.98 55.66,166.46 55.37,164.12 55.09,161.78 55.10,160.21 55.12,158.64 55.04,156.82 54.95,154.99 54.65,152.47 54.35,149.94 54.20,147.91 54.05,145.87 53.72,142.87 53.40,139.87 53.42,138.57 53.44,137.28 53.35,135.65 53.27,134.02 52.92,131.90 52.57,129.78 52.49,128.28 52.41,126.77 52.12,124.89 51.83,123.02 51.76,121.63 51.70,120.24 51.36,118.23 51.03,116.22 50.97,114.96 50.92,113.70 50.66,111.92 50.41,110.14 50.41,109.06 50.42,107.97 50.36,106.79 50.30,105.61 50.01,103.98 49.72,102.36 49.44,100.51 49.17,98.65 49.12,97.32 49.08,95.98 48.80,94.08 48.52,92.18 48.47,90.72 48.41,89.25 48.05,87.07 47.69,84.90 47.46,82.91 47.23,80.93 46.99,79.49 46.75,78.06 46.63,76.56 46.51,75.06 46.19,72.54 45.87,70.01 45.59,68.38 45.31,66.76 45.23,65.57 45.14,64.37 44.81,62.74 44.48,61.10 44.27,59.73 44.06,58.37 43.38,56.10 42.70,53.83 42.36,52.68 42.03,51.53 41.63,49.38 41.24,47.23 40.91,46.18 40.58,45.13 40.15,44.14 39.71,43.15 39.08,41.74 38.45,40.34 37.73,38.49 37.01,36.64 36.47,35.60 35.94,34.56 35.20,32.84 34.46,31.12 33.74,30.16 33.03,29.20 31.96,27.24 30.89,25.27 30.27,24.18 29.66,23.09 28.89,22.00 28.11,20.92 27.41,19.74 26.71,18.55 25.85,17.42 24.99,16.30 24.31,15.41 23.62,14.51 22.57,13.28 21.53,12.05 20.51,11.30 19.49,10.54 18.25,9.58 17.02,8.62 15.62,7.90 14.22,7.18 11.90,6.15 9.59,5.12 7.83,4.32 6.07,3.52 4.03,3.13 2.00,2.74 0.81,2.50 -0.37,2.26 -0.64,2.18 -0.90,2.10 -1.14,1.96 -1.38,1.82 -1.58,1.63 -1.78,1.44 -1.92,1.20 -2.07,0.97 -2.16,0.70 -2.24,0.44 -2.26,0.17 -2.28,-0.10 -2.24,-0.37 -2.19,-0.64 -2.08,-0.90 -1.97,-1.15 -1.81,-1.37 -1.64,-1.59 -1.42,-1.76 -1.21,-1.94 -0.96,-2.06 -0.71,-2.17 -0.44,-2.23 -0.17,-2.28 0.10,-2.27 0.37,-2.26 0.37,-2.26 L 0.37,-2.26 Z"></path></g><g transform="translate(597.2132290018711 294.0277404785156) rotate(0 8.3333740234375 -20.833328247070312)" stroke="none"><path fill="#1971c2" d="M -1.79,-1.79 Q -1.79,-1.79 -0.79,-2.79 0.20,-3.78 1.04,-5.17 1.89,-6.55 2.44,-7.60 2.99,-8.64 4.00,-10.67 5.02,-12.69 5.77,-14.72 6.52,-16.76 6.90,-17.85 7.28,-18.95 7.94,-20.98 8.60,-23.01 9.55,-25.22 10.50,-27.43 11.06,-29.09 11.62,-30.75 12.02,-32.10 12.43,-33.45 12.78,-34.51 13.14,-35.57 13.45,-36.98 13.76,-38.39 13.87,-40.09 13.98,-41.79 14.07,-42.22 14.16,-42.64 14.38,-43.01 14.61,-43.39 14.94,-43.67 15.27,-43.95 15.67,-44.12 16.07,-44.28 16.50,-44.31 16.94,-44.33 17.36,-44.22 17.78,-44.10 18.14,-43.86 18.50,-43.62 18.76,-43.28 19.03,-42.93 19.17,-42.52 19.31,-42.11 19.31,-41.68 19.31,-41.24 19.18,-40.83 19.04,-40.42 18.78,-40.07 18.52,-39.72 18.16,-39.48 17.80,-39.23 17.38,-39.11 16.97,-38.99 16.53,-39.02 16.10,-39.04 15.69,-39.20 15.29,-39.35 14.96,-39.63 14.63,-39.91 14.40,-40.28 14.17,-40.65 14.08,-41.08 13.98,-41.50 14.03,-41.93 14.07,-42.37 14.25,-42.76 14.43,-43.16 14.73,-43.47 15.03,-43.79 15.41,-44.00 15.79,-44.20 16.22,-44.27 16.65,-44.35 17.08,-44.28 17.51,-44.21 17.89,-44.01 18.28,-43.81 18.58,-43.49 18.88,-43.18 19.06,-42.79 19.24,-42.39 19.29,-41.96 19.34,-41.53 19.34,-41.53 19.34,-41.53 18.76,-38.39 18.18,-35.25 17.53,-33.65 16.88,-32.05 16.44,-30.74 16.00,-29.43 15.53,-27.65 15.05,-25.87 14.51,-23.74 13.96,-21.61 13.57,-20.06 13.17,-18.50 12.46,-16.88 11.76,-15.27 10.82,-12.75 9.89,-10.23 8.81,-8.17 7.74,-6.10 6.53,-4.08 5.32,-2.07 4.55,-1.13 3.79,-0.20 2.79,0.79 1.79,1.79 1.55,1.98 1.31,2.17 1.03,2.29 0.75,2.42 0.45,2.48 0.15,2.53 -0.15,2.51 -0.45,2.49 -0.75,2.40 -1.04,2.31 -1.30,2.15 -1.56,1.99 -1.78,1.78 -1.99,1.56 -2.15,1.30 -2.31,1.04 -2.40,0.74 -2.49,0.45 -2.51,0.15 -2.53,-0.15 -2.48,-0.45 -2.42,-0.75 -2.29,-1.03 -2.17,-1.31 -1.98,-1.55 -1.79,-1.79 -1.79,-1.79 L -1.79,-1.79 Z"></path></g><g transform="translate(341.6576870096836 117.63885498046875) rotate(0 -4.861114501953125 4.16668701171875)" stroke="none"><path fill="#e03131" d="M -0.64,2.58 Q -0.64,2.58 -1.39,2.42 -2.13,2.26 -3.39,2.76 -4.65,3.26 -5.22,4.40 -5.78,5.55 -6.11,5.94 -6.44,6.32 -6.86,6.25 -7.29,6.17 -7.68,6.00 -8.07,5.83 -8.41,5.56 -8.75,5.30 -9.01,4.97 -9.28,4.63 -9.46,4.24 -9.64,3.85 -9.72,3.43 -9.79,3.01 -9.77,2.58 -9.75,2.15 -9.62,1.74 -9.50,1.33 -9.28,0.96 -9.06,0.59 -8.75,0.29 -8.45,-0.01 -8.09,-0.23 -7.72,-0.45 -7.31,-0.58 -6.90,-0.71 -6.48,-0.74 -6.05,-0.77 -4.71,-0.04 -3.36,0.69 -3.11,1.20 -2.85,1.72 -2.77,2.29 -2.69,2.86 -2.79,3.42 -2.90,3.99 -3.18,4.49 -3.46,4.99 -3.89,5.38 -4.32,5.76 -4.85,5.99 -5.37,6.22 -5.95,6.27 -6.52,6.32 -7.08,6.18 -7.64,6.05 -8.12,5.74 -8.61,5.43 -8.97,4.98 -9.34,4.54 -9.54,4.00 -9.74,3.46 -9.75,2.88 -9.77,2.31 -9.60,1.75 -9.44,1.20 -9.10,0.74 -8.77,0.27 -8.30,-0.06 -7.84,-0.40 -7.29,-0.57 -6.74,-0.74 -6.16,-0.73 -5.59,-0.71 -5.05,-0.52 -4.51,-0.32 -4.06,0.03 -3.61,0.39 -3.29,0.87 -2.98,1.36 -2.84,1.91 -2.70,2.47 -2.74,3.04 -2.79,3.62 -3.02,4.15 -3.24,4.68 -3.62,5.11 -4.01,5.54 -4.51,5.82 -5.01,6.11 -5.57,6.22 -6.14,6.33 -6.71,6.25 -7.28,6.18 -7.79,5.92 -8.31,5.67 -7.38,6.00 -6.44,6.32 -6.86,6.25 -7.29,6.17 -7.68,6.00 -8.07,5.83 -8.41,5.56 -8.75,5.30 -9.01,4.97 -9.28,4.63 -9.46,4.24 -9.64,3.85 -9.72,3.43 -9.79,3.01 -9.77,2.58 -9.75,2.15 -9.62,1.74 -9.50,1.33 -9.28,0.96 -9.06,0.59 -8.76,0.29 -8.45,-0.01 -8.09,-0.23 -7.72,-0.45 -7.31,-0.58 -6.90,-0.71 -6.48,-0.74 -6.05,-0.77 -7.13,-1.65 -8.20,-2.52 -6.36,-2.53 -4.51,-2.53 -3.35,-2.16 -2.20,-1.79 -1.30,-1.15 -0.40,-0.51 0.44,0.53 1.28,1.57 1.68,3.24 2.07,4.91 1.96,5.98 1.84,7.05 1.21,8.44 0.59,9.84 -0.57,10.73 -1.73,11.63 -2.86,11.97 -3.98,12.30 -5.27,12.14 -6.55,11.98 -8.06,11.26 -9.57,10.53 -10.91,9.05 -12.26,7.56 -12.39,6.32 -12.51,5.09 -12.13,4.03 -11.76,2.98 -11.04,1.95 -10.33,0.92 -9.49,0.17 -8.65,-0.57 -7.38,-1.43 -6.10,-2.28 -4.68,-2.60 -3.25,-2.91 -2.15,-2.98 -1.05,-3.05 -0.20,-2.82 0.64,-2.58 0.94,-2.46 1.24,-2.35 1.50,-2.17 1.77,-1.98 1.98,-1.74 2.19,-1.50 2.34,-1.22 2.49,-0.93 2.57,-0.62 2.64,-0.31 2.64,0.00 2.64,0.33 2.56,0.64 2.48,0.95 2.33,1.23 2.18,1.52 1.97,1.76 1.76,2.00 1.49,2.18 1.23,2.36 0.92,2.47 0.62,2.58 0.30,2.62 -0.00,2.66 -0.32,2.62 -0.64,2.58 -0.64,2.58 L -0.64,2.58 Z"></path></g><g transform="translate(456.2410610331211 155.83331298828125) rotate(0 -2.430572509765625 4.8610992431640625)" stroke="none"><path fill="#e03131" d="M -0.64,2.58 Q -0.64,2.58 -1.39,2.42 -2.13,2.25 -2.73,3.41 -3.33,4.56 -3.25,5.76 -3.18,6.95 -3.04,5.88 -2.91,4.80 -3.48,3.87 -4.06,2.95 -3.45,2.94 -2.84,2.93 -3.06,3.45 -3.28,3.97 -3.66,4.39 -4.04,4.82 -4.54,5.10 -5.03,5.38 -5.59,5.48 -6.15,5.59 -6.71,5.51 -7.28,5.44 -7.78,5.18 -8.29,4.93 -8.70,4.53 -9.10,4.13 -9.35,3.62 -9.60,3.11 -9.68,2.55 -9.76,1.98 -9.65,1.43 -9.54,0.87 -9.26,0.37 -8.98,-0.11 -8.56,-0.49 -8.14,-0.87 -7.62,-1.10 -7.09,-1.32 -6.53,-1.37 -5.96,-1.41 -5.41,-1.28 -4.86,-1.14 -4.38,-0.83 -3.90,-0.53 -3.54,-0.08 -3.19,0.35 -2.99,0.88 -2.79,1.42 -2.78,1.98 -2.76,2.55 -2.93,3.10 -3.10,3.64 -3.43,4.10 -3.76,4.56 -4.22,4.89 -4.68,5.23 -5.23,5.39 -5.77,5.56 -6.34,5.54 -6.91,5.53 -7.44,5.33 -7.97,5.14 -8.42,4.78 -8.86,4.42 -9.17,3.95 -9.47,3.47 -9.61,2.91 -9.75,2.36 -9.70,1.80 -9.65,1.23 -9.65,1.23 -9.65,1.23 -6.09,-1.28 -2.53,-3.81 -1.57,-3.28 -0.61,-2.75 0.70,-1.59 2.02,-0.43 2.78,1.11 3.55,2.66 3.84,4.09 4.14,5.52 3.84,7.50 3.55,9.47 2.70,10.66 1.85,11.86 0.65,12.53 -0.54,13.19 -1.68,13.29 -2.81,13.39 -3.98,12.93 -5.14,12.47 -6.29,11.65 -7.44,10.83 -8.05,9.96 -8.66,9.09 -8.85,7.20 -9.05,5.32 -8.85,4.12 -8.65,2.92 -7.50,1.24 -6.34,-0.44 -4.92,-1.61 -3.49,-2.78 -2.27,-2.92 -1.05,-3.05 -0.20,-2.82 0.64,-2.58 0.94,-2.46 1.24,-2.35 1.50,-2.17 1.77,-1.98 1.98,-1.74 2.19,-1.50 2.34,-1.22 2.49,-0.93 2.56,-0.62 2.64,-0.31 2.64,0.00 2.64,0.32 2.56,0.64 2.48,0.95 2.33,1.23 2.18,1.52 1.97,1.75 1.75,1.99 1.49,2.18 1.22,2.36 0.92,2.47 0.62,2.58 0.30,2.62 -0.00,2.66 -0.32,2.62 -0.64,2.58 -0.64,2.58 L -0.64,2.58 Z"></path></g><g stroke-linecap="round"><g transform="translate(337.49106103312107 244.02774047851562) rotate(0 7.105427357601002e-15 -83.68055725097658)"><path d="M0 0 C0 -27.89, 0 -139.47, 0 -167.36 M0 0 C0 -27.89, 0 -139.47, 0 -167.36" stroke="#e03131" stroke-width="4" fill="none"></path></g></g><mask></mask><g stroke-linecap="round"><g transform="translate(454.8521450174961 242.9860992431641) rotate(0 7.105427357601002e-15 -83.68055725097658)"><path d="M0 0 C0 -27.89, 0 -139.47, 0 -167.36 M0 0 C0 -27.89, 0 -139.47, 0 -167.36" stroke="#e03131" stroke-width="4" fill="none"></path></g></g><mask></mask><g stroke-linecap="round"><g transform="translate(336.1021450174961 91.94442749023438) rotate(0 56.59722900390625 0)"><path d="M0 0 C29.36 0, 58.71 0, 113.19 0 M0 0 C28.8 0, 57.61 0, 113.19 0" stroke="#e03131" stroke-width="4" fill="none"></path></g><g transform="translate(336.1021450174961 91.94442749023438) rotate(0 56.59722900390625 0)"><path d="M0 0 L13.59 -6.34 L13.59 6.34 L0 0" stroke="none" stroke-width="0" fill="#e03131" fill-rule="evenodd"></path><path d="M0 0 C3.53 -1.64, 7.05 -3.29, 13.59 -6.34 M0 0 C3.46 -1.61, 6.92 -3.23, 13.59 -6.34 M13.59 -6.34 C13.59 -2.61, 13.59 1.13, 13.59 6.34 M13.59 -6.34 C13.59 -1.85, 13.59 2.63, 13.59 6.34 M13.59 6.34 C10.68 4.98, 7.76 3.62, 0 0 M13.59 6.34 C9.26 4.32, 4.92 2.3, 0 0 M0 0 C0 0, 0 0, 0 0 M0 0 C0 0, 0 0, 0 0" stroke="#e03131" stroke-width="4" fill="none"></path></g><g transform="translate(336.1021450174961 91.94442749023438) rotate(0 56.59722900390625 0)"><path d="M113.19 0 L99.6 6.34 L99.6 -6.34 L113.19 0" stroke="none" stroke-width="0" fill="#e03131" fill-rule="evenodd"></path><path d="M113.19 0 C109.67 1.64, 106.14 3.29, 99.6 6.34 M113.19 0 C109.74 1.61, 106.28 3.23, 99.6 6.34 M99.6 6.34 C99.6 2.61, 99.6 -1.13, 99.6 -6.34 M99.6 6.34 C99.6 1.85, 99.6 -2.63, 99.6 -6.34 M99.6 -6.34 C102.52 -4.98, 105.44 -3.62, 113.19 0 M99.6 -6.34 C103.94 -4.32, 108.27 -2.3, 113.19 0 M113.19 0 C113.19 0, 113.19 0, 113.19 0 M113.19 0 C113.19 0, 113.19 0, 113.19 0" stroke="#e03131" stroke-width="4" fill="none"></path></g></g><mask></mask><g transform="translate(368.7410610331211 48.1944580078125) rotate(0 13.541656494140625 -2.0833740234375)" stroke="none"><path fill="#e03131" d="M -2.28,-0.68 Q -2.28,-0.68 -1.56,-2.64 -0.84,-4.61 -0.14,-6.06 0.55,-7.51 1.21,-8.97 1.87,-10.43 2.60,-11.66 3.33,-12.88 3.95,-14.19 4.57,-15.51 5.32,-16.69 6.06,-17.88 6.69,-19.03 7.32,-20.18 8.48,-21.87 9.64,-23.55 11.03,-24.66 12.41,-25.76 13.95,-25.63 15.49,-25.49 16.59,-24.44 17.69,-23.39 18.49,-21.74 19.30,-20.09 19.62,-18.99 19.94,-17.90 20.20,-16.50 20.46,-15.09 21.08,-12.73 21.70,-10.38 21.95,-8.50 22.20,-6.61 22.35,-5.14 22.51,-3.68 22.69,-1.94 22.86,-0.20 23.16,1.05 23.47,2.30 23.78,3.90 24.08,5.50 24.94,7.58 25.79,9.65 26.27,11.09 26.74,12.53 27.54,14.12 28.33,15.71 28.88,16.88 29.44,18.05 29.60,18.47 29.76,18.88 29.77,19.32 29.79,19.76 29.67,20.19 29.55,20.61 29.30,20.98 29.04,21.34 28.69,21.61 28.33,21.87 27.91,22.01 27.49,22.14 27.05,22.14 26.61,22.13 26.19,21.99 25.77,21.84 25.42,21.57 25.07,21.30 24.83,20.93 24.58,20.56 24.47,20.13 24.36,19.71 24.39,19.26 24.41,18.82 24.58,18.41 24.75,18.00 25.04,17.67 25.33,17.34 25.71,17.11 26.09,16.89 26.53,16.80 26.96,16.71 27.40,16.76 27.84,16.81 28.24,17.00 28.64,17.19 28.96,17.50 29.27,17.81 29.48,18.20 29.68,18.59 29.75,19.03 29.81,19.47 29.74,19.90 29.66,20.34 29.45,20.73 29.24,21.12 28.91,21.42 28.59,21.72 28.18,21.90 27.78,22.08 27.34,22.13 26.90,22.17 26.47,22.07 26.04,21.97 25.66,21.74 25.29,21.50 25.00,21.16 24.72,20.82 24.72,20.82 24.72,20.82 24.04,19.24 23.36,17.66 22.67,15.87 21.97,14.08 21.59,12.86 21.20,11.64 20.62,10.27 20.04,8.90 19.70,7.70 19.37,6.50 19.02,4.95 18.66,3.41 18.34,1.95 18.02,0.50 17.67,-1.30 17.33,-3.12 17.19,-4.38 17.06,-5.64 16.62,-7.35 16.18,-9.06 15.84,-10.35 15.50,-11.63 15.14,-12.76 14.79,-13.88 14.40,-15.73 14.00,-17.58 13.77,-18.88 13.54,-20.19 12.50,-19.01 11.45,-17.84 10.05,-15.70 8.65,-13.55 7.89,-11.97 7.13,-10.40 6.49,-9.52 5.84,-8.65 5.15,-7.06 4.45,-5.46 3.84,-4.42 3.23,-3.37 2.76,-1.34 2.28,0.68 2.17,0.94 2.05,1.21 1.88,1.44 1.70,1.67 1.48,1.85 1.25,2.02 0.99,2.15 0.73,2.27 0.45,2.32 0.16,2.38 -0.11,2.36 -0.40,2.35 -0.68,2.27 -0.95,2.18 -1.20,2.04 -1.45,1.89 -1.65,1.69 -1.86,1.49 -2.01,1.24 -2.16,1.00 -2.25,0.72 -2.34,0.45 -2.36,0.16 -2.38,-0.11 -2.33,-0.40 -2.28,-0.68 -2.28,-0.68 L -2.28,-0.68 Z"></path></g><g transform="translate(386.7966030253086 46.8055419921875) rotate(0 -7.291656494140625 10.416656494140625)" stroke="none"><path fill="#e03131" d="M 1.42,1.71 Q 1.42,1.71 0.23,2.71 -0.96,3.71 -2.07,5.20 -3.19,6.70 -4.10,8.10 -5.01,9.50 -5.78,10.85 -6.54,12.21 -8.20,14.77 -9.86,17.33 -11.31,19.68 -12.75,22.02 -12.99,22.28 -13.23,22.54 -13.54,22.71 -13.84,22.88 -14.19,22.94 -14.54,23.01 -14.89,22.96 -15.24,22.91 -15.55,22.75 -15.87,22.59 -16.11,22.34 -16.36,22.08 -16.51,21.77 -16.67,21.45 -16.71,21.10 -16.76,20.75 -16.69,20.40 -16.62,20.06 -16.44,19.75 -16.27,19.45 -16.00,19.21 -15.74,18.98 -15.41,18.84 -15.09,18.71 -14.73,18.68 -14.38,18.66 -14.04,18.75 -13.70,18.83 -13.40,19.03 -13.11,19.22 -12.89,19.50 -12.67,19.77 -12.55,20.10 -12.43,20.44 -12.43,20.79 -12.42,21.14 -12.53,21.48 -12.63,21.81 -12.84,22.10 -13.05,22.38 -13.34,22.59 -13.63,22.79 -13.97,22.89 -14.30,22.99 -14.66,22.98 -15.01,22.97 -15.34,22.84 -15.67,22.72 -15.94,22.49 -16.21,22.27 -16.40,21.97 -16.59,21.67 -16.67,21.33 -16.75,20.99 -16.72,20.63 -16.69,20.28 -16.55,19.96 -16.40,19.64 -16.40,19.64 -16.40,19.64 -14.90,17.45 -13.39,15.26 -11.98,12.62 -10.58,9.98 -9.79,8.51 -8.99,7.04 -8.11,5.54 -7.23,4.04 -5.53,2.15 -3.82,0.27 -2.62,-0.71 -1.42,-1.71 -1.20,-1.85 -0.97,-2.00 -0.72,-2.08 -0.46,-2.17 -0.19,-2.20 0.06,-2.22 0.33,-2.18 0.59,-2.14 0.84,-2.04 1.09,-1.93 1.31,-1.78 1.52,-1.62 1.69,-1.41 1.86,-1.20 1.98,-0.96 2.10,-0.72 2.16,-0.46 2.21,-0.20 2.20,0.06 2.20,0.33 2.12,0.59 2.05,0.85 1.92,1.08 1.79,1.31 1.60,1.51 1.42,1.71 1.42,1.71 L 1.42,1.71 Z"></path></g><g transform="translate(772.9076259745274 269.72216796875) rotate(0 11.80560302734375 13.54168701171875)" stroke="none"><path fill="#1e1e1e" d="M -0.36,-2.37 Q -0.36,-2.37 2.25,-2.63 4.86,-2.89 6.96,-3.15 9.06,-3.41 10.40,-3.64 11.74,-3.87 13.31,-3.79 14.88,-3.71 16.92,-3.50 18.96,-3.29 19.84,-2.66 20.72,-2.03 21.24,-0.74 21.76,0.54 21.67,2.04 21.57,3.55 21.30,4.65 21.02,5.75 20.17,7.22 19.32,8.69 17.70,11.27 16.08,13.86 15.20,14.96 14.32,16.07 13.10,17.44 11.89,18.82 10.78,20.18 9.66,21.53 9.08,22.49 8.50,23.44 7.85,24.48 7.20,25.52 8.33,25.86 9.47,26.20 11.01,26.02 12.55,25.85 14.21,25.42 15.86,24.99 17.34,24.58 18.82,24.18 20.39,23.29 21.95,22.40 22.41,22.20 22.87,22.01 23.36,21.97 23.86,21.93 24.34,22.05 24.82,22.17 25.24,22.44 25.66,22.71 25.97,23.09 26.29,23.48 26.46,23.95 26.63,24.42 26.64,24.92 26.66,25.41 26.51,25.89 26.36,26.36 26.07,26.77 25.78,27.17 25.38,27.46 24.97,27.75 24.50,27.90 24.02,28.04 23.52,28.03 23.02,28.02 22.56,27.84 22.09,27.67 21.70,27.36 21.31,27.05 21.05,26.63 20.78,26.21 20.66,25.73 20.54,25.24 20.58,24.75 20.62,24.25 20.82,23.79 21.01,23.34 21.35,22.96 21.68,22.59 22.11,22.35 22.55,22.11 23.04,22.01 23.53,21.92 24.02,21.99 24.51,22.05 24.96,22.28 25.40,22.50 25.76,22.85 26.11,23.20 26.33,23.65 26.55,24.09 26.62,24.59 26.68,25.08 26.59,25.57 26.49,26.06 26.25,26.49 26.00,26.93 25.63,27.26 25.26,27.59 25.26,27.59 25.26,27.59 23.14,28.71 21.02,29.83 18.48,30.44 15.94,31.05 14.81,31.35 13.68,31.65 12.39,31.86 11.09,32.07 9.27,31.95 7.45,31.83 6.24,31.60 5.04,31.36 3.99,30.64 2.94,29.92 2.38,28.57 1.82,27.21 2.48,25.02 3.14,22.83 3.85,21.83 4.55,20.82 5.30,19.78 6.05,18.74 7.11,17.28 8.17,15.83 9.26,14.34 10.35,12.85 11.13,11.91 11.90,10.97 12.73,9.66 13.55,8.35 14.70,6.26 15.84,4.17 16.68,2.70 17.51,1.24 15.99,0.89 14.46,0.54 13.33,0.36 12.21,0.17 10.96,0.25 9.72,0.33 7.61,0.81 5.51,1.29 2.93,1.83 0.36,2.37 0.07,2.38 -0.21,2.39 -0.49,2.33 -0.78,2.27 -1.04,2.14 -1.30,2.02 -1.52,1.83 -1.74,1.64 -1.91,1.41 -2.09,1.18 -2.20,0.91 -2.31,0.64 -2.35,0.36 -2.40,0.07 -2.37,-0.21 -2.35,-0.50 -2.25,-0.77 -2.16,-1.04 -2.00,-1.29 -1.84,-1.53 -1.63,-1.73 -1.42,-1.93 -1.17,-2.07 -0.92,-2.21 -0.64,-2.29 -0.36,-2.37 -0.36,-2.37 L -0.36,-2.37 Z"></path></g><g transform="translate(775.6855800760899 284.9999694824219) rotate(0 13.5416259765625 -1.04168701171875)" stroke="none"><path fill="#1e1e1e" d="M -0.29,-2.38 Q -0.29,-2.38 1.30,-2.56 2.90,-2.74 4.53,-2.98 6.16,-3.23 7.56,-3.39 8.95,-3.55 10.65,-3.75 12.36,-3.95 13.61,-4.26 14.86,-4.58 16.59,-4.73 18.32,-4.87 19.42,-4.98 20.52,-5.09 24.31,-4.77 28.10,-4.45 28.46,-4.23 28.81,-4.00 29.07,-3.67 29.33,-3.35 29.47,-2.95 29.62,-2.56 29.63,-2.14 29.64,-1.73 29.52,-1.33 29.39,-0.93 29.15,-0.59 28.90,-0.25 28.56,-0.00 28.22,0.23 27.82,0.35 27.42,0.47 27.01,0.46 26.59,0.45 26.19,0.31 25.80,0.16 25.48,-0.09 25.15,-0.35 24.93,-0.71 24.70,-1.06 24.60,-1.47 24.50,-1.87 24.54,-2.29 24.57,-2.71 24.74,-3.09 24.90,-3.47 25.18,-3.79 25.46,-4.10 25.83,-4.30 26.19,-4.51 26.60,-4.58 27.01,-4.66 27.43,-4.61 27.84,-4.55 28.22,-4.36 28.59,-4.18 28.89,-3.88 29.18,-3.58 29.37,-3.21 29.55,-2.83 29.61,-2.42 29.66,-2.00 29.58,-1.59 29.50,-1.18 29.30,-0.82 29.09,-0.46 28.78,-0.18 28.47,0.09 28.08,0.26 27.70,0.42 27.28,0.45 26.86,0.49 26.46,0.39 26.05,0.28 26.05,0.29 26.05,0.29 24.23,0.02 22.41,-0.23 20.56,-0.26 18.70,-0.29 17.29,-0.17 15.88,-0.06 14.44,0.22 13.00,0.52 11.19,0.83 9.38,1.13 8.16,1.21 6.93,1.29 5.20,1.62 3.48,1.94 1.89,2.16 0.29,2.38 0.00,2.39 -0.28,2.39 -0.56,2.32 -0.84,2.25 -1.10,2.12 -1.36,1.98 -1.57,1.79 -1.79,1.60 -1.96,1.36 -2.12,1.12 -2.23,0.85 -2.33,0.58 -2.37,0.29 -2.40,0.00 -2.37,-0.27 -2.33,-0.56 -2.23,-0.83 -2.13,-1.11 -1.97,-1.35 -1.80,-1.59 -1.59,-1.78 -1.37,-1.97 -1.11,-2.11 -0.86,-2.24 -0.58,-2.31 -0.29,-2.38 -0.29,-2.38 L -0.29,-2.38 Z"></path></g><g transform="translate(37.7777099609375 57.61661210838747) rotate(0 -12.499969482421875 18.750015258789062)" stroke="none"><path fill="#1e1e1e" d="M -1.92,1.28 Q -1.92,1.28 -2.73,0.09 -3.53,-1.08 -4.86,-1.54 -6.18,-2.00 -7.35,-2.06 -8.52,-2.12 -10.42,-1.55 -12.32,-0.98 -14.09,0.10 -15.86,1.20 -17.06,2.15 -18.26,3.09 -19.11,3.90 -19.97,4.71 -20.62,5.56 -21.26,6.40 -22.17,7.55 -23.09,8.70 -23.54,9.92 -24.00,11.13 -24.43,12.22 -24.86,13.31 -24.77,14.49 -24.69,15.67 -23.59,16.04 -22.50,16.41 -20.86,16.45 -19.21,16.50 -18.10,16.35 -16.98,16.21 -15.94,15.96 -14.90,15.72 -13.65,15.16 -12.40,14.61 -11.38,14.10 -10.37,13.59 -9.35,12.78 -8.34,11.97 -7.47,11.17 -6.60,10.37 -5.70,9.36 -4.80,8.35 -4.04,7.32 -3.27,6.30 -2.59,5.17 -1.90,4.03 -1.47,3.01 -1.03,1.99 -0.65,0.70 -0.27,-0.58 -0.14,-2.22 -0.00,-3.86 -0.22,-4.61 -0.44,-5.36 -0.38,-5.70 -0.32,-6.03 -0.18,-6.34 -0.05,-6.65 0.15,-6.92 0.36,-7.18 0.63,-7.39 0.89,-7.60 1.20,-7.74 1.51,-7.88 1.84,-7.95 2.18,-8.01 2.52,-7.99 2.85,-7.97 3.18,-7.87 3.50,-7.77 3.79,-7.59 4.08,-7.42 4.32,-7.18 4.56,-6.94 4.74,-6.65 4.91,-6.36 5.02,-6.04 5.12,-5.71 5.14,-5.38 5.16,-5.04 4.43,-3.59 3.70,-2.15 3.13,-0.35 2.55,1.44 2.02,4.80 1.48,8.15 1.06,10.13 0.63,12.10 0.39,14.39 0.14,16.68 0.06,18.48 -0.01,20.28 -0.12,22.63 -0.24,24.98 -0.20,26.58 -0.17,28.19 -0.05,30.18 0.06,32.17 0.15,34.10 0.23,36.02 0.36,37.23 0.48,38.44 1.29,39.50 2.10,40.56 2.12,40.82 2.14,41.08 2.09,41.33 2.05,41.59 1.95,41.82 1.84,42.06 1.69,42.26 1.53,42.47 1.33,42.63 1.12,42.79 0.89,42.90 0.65,43.01 0.40,43.06 0.15,43.11 -0.10,43.10 -0.36,43.08 -0.61,43.01 -0.86,42.93 -1.08,42.80 -1.30,42.67 -1.49,42.49 -1.67,42.31 -1.81,42.09 -1.94,41.87 -2.02,41.62 -2.10,41.38 -2.03,40.75 -1.97,40.12 -1.78,39.82 -1.59,39.53 -1.32,39.31 -1.05,39.10 -0.72,38.98 -0.40,38.86 -0.05,38.85 0.29,38.84 0.62,38.94 0.95,39.05 1.23,39.25 1.52,39.45 1.72,39.73 1.92,40.02 2.02,40.35 2.12,40.68 2.11,41.03 2.10,41.38 1.98,41.70 1.86,42.03 1.64,42.30 1.43,42.57 1.13,42.75 0.84,42.94 0.50,43.02 0.17,43.11 -0.17,43.08 -0.52,43.05 -0.84,42.91 -1.15,42.77 -1.41,42.54 -1.67,42.31 -1.84,42.01 -2.01,41.70 -2.08,41.36 -2.14,41.02 -2.09,40.68 -2.05,40.33 -1.89,40.02 -1.74,39.71 -1.49,39.47 -1.24,39.22 -0.93,39.07 -0.62,38.91 -0.28,38.87 0.06,38.82 0.40,38.89 0.74,38.95 1.04,39.13 1.34,39.30 1.57,39.56 1.81,39.81 1.94,40.13 2.08,40.45 2.11,40.80 2.13,41.15 2.12,40.85 2.10,40.56 2.12,40.82 2.14,41.08 2.09,41.33 2.05,41.59 1.95,41.82 1.84,42.06 1.69,42.26 1.53,42.47 1.33,42.63 1.12,42.79 0.89,42.90 0.65,43.01 0.40,43.06 0.15,43.11 -0.10,43.10 -0.36,43.08 -0.61,43.01 -0.86,42.93 -1.08,42.80 -1.30,42.67 -1.49,42.49 -1.67,42.31 -1.81,42.09 -1.94,41.87 -2.02,41.62 -2.10,41.38 -2.58,41.25 -3.05,41.12 -3.21,39.84 -3.36,38.56 -3.31,37.37 -3.25,36.18 -3.34,34.34 -3.42,32.50 -3.69,30.33 -3.95,28.16 -3.90,26.55 -3.85,24.94 -3.92,22.55 -3.98,20.15 -3.95,18.30 -3.91,16.45 -3.89,13.91 -3.88,11.37 -3.68,9.51 -3.48,7.65 -3.40,4.92 -3.32,2.19 -3.09,0.89 -2.87,-0.39 -2.49,-1.47 -2.12,-2.54 -1.28,-3.95 -0.44,-5.36 -0.38,-5.70 -0.32,-6.03 -0.18,-6.34 -0.05,-6.65 0.15,-6.92 0.36,-7.18 0.63,-7.39 0.89,-7.60 1.20,-7.74 1.51,-7.88 1.84,-7.95 2.18,-8.01 2.51,-7.99 2.85,-7.97 3.18,-7.87 3.50,-7.77 3.79,-7.59 4.08,-7.42 4.32,-7.18 4.56,-6.94 4.74,-6.65 4.91,-6.36 5.02,-6.04 5.12,-5.72 5.14,-5.38 5.16,-5.04 5.25,-5.04 5.33,-5.04 5.20,-3.27 5.07,-1.50 4.83,-0.35 4.59,0.79 4.12,2.46 3.66,4.13 3.07,5.38 2.47,6.63 1.66,8.02 0.84,9.41 -0.02,10.56 -0.90,11.71 -1.99,13.00 -3.08,14.29 -4.06,15.15 -5.04,16.01 -6.50,17.23 -7.97,18.45 -9.03,18.95 -10.08,19.44 -11.83,20.33 -13.58,21.21 -14.90,21.51 -16.23,21.82 -18.77,21.97 -21.32,22.13 -22.71,21.97 -24.11,21.82 -25.18,21.40 -26.26,20.98 -27.42,20.04 -28.59,19.09 -29.20,17.82 -29.82,16.55 -29.90,15.28 -29.97,14.01 -29.66,12.70 -29.35,11.38 -28.87,10.39 -28.39,9.39 -27.65,7.59 -26.91,5.79 -25.95,4.54 -24.99,3.28 -24.05,2.23 -23.10,1.18 -22.10,0.35 -21.10,-0.47 -19.80,-1.51 -18.50,-2.56 -16.27,-4.26 -14.04,-5.96 -12.43,-6.51 -10.81,-7.06 -9.54,-7.22 -8.26,-7.37 -6.70,-7.28 -5.13,-7.19 -3.86,-6.79 -2.58,-6.40 -1.12,-5.05 0.34,-3.70 1.13,-2.49 1.92,-1.28 2.05,-1.03 2.17,-0.78 2.23,-0.51 2.30,-0.24 2.29,0.03 2.29,0.31 2.22,0.58 2.14,0.85 2.01,1.10 1.88,1.34 1.69,1.55 1.50,1.75 1.27,1.91 1.04,2.06 0.77,2.16 0.51,2.25 0.23,2.28 -0.03,2.31 -0.31,2.27 -0.59,2.23 -0.84,2.13 -1.10,2.03 -1.33,1.86 -1.56,1.70 -1.74,1.49 -1.92,1.28 -1.92,1.28 L -1.92,1.28 Z"></path></g><g transform="translate(69.72216796875 24.28328386131716) rotate(0 -7.638885498046875 25.69445037841797)" stroke="none"><path fill="#1e1e1e" d="M 1.20,1.20 Q 1.20,1.20 0.03,2.42 -1.13,3.64 -2.15,5.19 -3.18,6.73 -4.01,8.09 -4.83,9.45 -5.79,11.45 -6.75,13.46 -8.01,16.15 -9.26,18.85 -9.98,20.91 -10.70,22.98 -11.42,25.45 -12.14,27.92 -12.64,30.52 -13.14,33.12 -13.32,35.00 -13.50,36.88 -13.38,38.78 -13.26,40.68 -12.94,42.04 -12.61,43.39 -12.07,44.65 -11.54,45.91 -10.48,47.27 -9.43,48.63 -7.60,48.91 -5.76,49.18 -5.42,49.32 -5.08,49.45 -4.81,49.69 -4.53,49.92 -4.34,50.24 -4.15,50.55 -4.07,50.90 -4.00,51.26 -4.03,51.62 -4.07,51.99 -4.23,52.32 -4.38,52.65 -4.63,52.91 -4.88,53.18 -5.20,53.35 -5.52,53.52 -5.88,53.58 -6.24,53.64 -6.60,53.58 -6.96,53.52 -7.29,53.35 -7.61,53.18 -7.86,52.91 -8.11,52.65 -8.26,52.32 -8.42,51.99 -8.46,51.63 -8.49,51.26 -8.42,50.91 -8.34,50.55 -8.15,50.24 -7.96,49.93 -7.69,49.69 -7.41,49.45 -7.07,49.32 -6.73,49.18 -6.37,49.16 -6.00,49.14 -5.65,49.24 -5.30,49.34 -5.00,49.54 -4.70,49.75 -4.48,50.04 -4.25,50.33 -4.14,50.67 -4.02,51.02 -4.02,51.38 -4.02,51.75 -4.14,52.09 -4.25,52.44 -4.47,52.73 -4.69,53.02 -5.00,53.22 -5.30,53.43 -5.65,53.53 -6.00,53.62 -6.36,53.60 -6.73,53.58 -6.73,53.58 -6.73,53.58 -9.51,52.64 -12.30,51.70 -13.26,50.50 -14.22,49.31 -14.58,48.21 -14.94,47.11 -15.41,45.54 -15.89,43.96 -16.05,42.40 -16.22,40.84 -16.32,38.70 -16.42,36.57 -16.17,34.58 -15.93,32.60 -15.43,29.87 -14.94,27.14 -14.25,24.59 -13.56,22.03 -12.86,19.80 -12.15,17.56 -10.98,14.82 -9.82,12.09 -8.84,9.77 -7.86,7.46 -6.95,6.17 -6.03,4.88 -4.84,3.01 -3.65,1.14 -2.43,-0.02 -1.20,-1.20 -1.04,-1.32 -0.87,-1.45 -0.69,-1.53 -0.50,-1.62 -0.30,-1.66 -0.10,-1.69 0.10,-1.68 0.30,-1.67 0.50,-1.61 0.69,-1.55 0.87,-1.44 1.04,-1.33 1.19,-1.19 1.33,-1.04 1.44,-0.87 1.55,-0.69 1.61,-0.50 1.67,-0.30 1.68,-0.10 1.69,0.10 1.66,0.30 1.62,0.50 1.53,0.69 1.45,0.87 1.32,1.04 1.20,1.20 1.20,1.20 L 1.20,1.20 Z"></path></g><g transform="translate(135.71231199513244 46.0154698627569) rotate(0 9.375 13.888900756835938)" stroke="none"><path fill="#1e1e1e" d="M 0.37,-2.59 Q 0.37,-2.59 1.76,-2.38 3.16,-2.17 4.26,-2.11 5.37,-2.05 6.66,-1.81 7.94,-1.57 9.86,-1.27 11.78,-0.96 12.98,-0.32 14.18,0.31 15.49,1.59 16.79,2.88 17.09,4.43 17.39,5.99 16.60,8.46 15.82,10.93 15.08,12.42 14.35,13.90 13.01,16.17 11.68,18.43 10.57,20.32 9.45,22.22 8.78,23.25 8.12,24.28 9.32,23.97 10.52,23.67 12.16,23.18 13.81,22.68 15.63,21.62 17.45,20.57 17.97,20.44 18.49,20.31 19.02,20.36 19.55,20.40 20.04,20.61 20.53,20.83 20.93,21.19 21.33,21.54 21.59,22.01 21.85,22.48 21.95,23.00 22.05,23.53 21.97,24.06 21.90,24.58 21.66,25.06 21.42,25.54 21.04,25.92 20.67,26.29 20.19,26.53 19.71,26.77 19.18,26.84 18.65,26.91 18.12,26.81 17.60,26.70 17.13,26.44 16.67,26.18 16.31,25.78 15.96,25.38 15.75,24.89 15.54,24.39 15.49,23.86 15.45,23.33 15.58,22.81 15.71,22.29 16.00,21.84 16.29,21.39 16.71,21.06 17.13,20.73 17.63,20.54 18.13,20.36 18.67,20.35 19.20,20.33 19.71,20.49 20.22,20.65 20.65,20.96 21.09,21.28 21.40,21.71 21.71,22.15 21.86,22.66 22.02,23.17 22.00,23.70 21.99,24.24 21.80,24.74 21.62,25.24 21.28,25.66 20.94,26.07 20.49,26.36 20.04,26.65 20.04,26.64 20.04,26.64 18.44,27.43 16.83,28.22 15.78,28.54 14.72,28.86 13.38,29.28 12.04,29.71 9.90,29.93 7.75,30.15 6.58,30.13 5.40,30.11 4.20,29.19 3.00,28.27 2.61,26.88 2.22,25.49 2.89,23.40 3.57,21.31 4.23,20.31 4.90,19.31 5.52,18.37 6.14,17.43 6.74,16.48 7.34,15.53 8.54,13.54 9.74,11.56 10.28,10.54 10.82,9.52 11.01,7.33 11.19,5.14 10.00,4.55 8.81,3.96 6.90,3.58 4.99,3.19 3.70,3.08 2.42,2.97 1.02,2.78 -0.37,2.59 -0.67,2.51 -0.98,2.43 -1.25,2.27 -1.53,2.12 -1.76,1.91 -1.99,1.69 -2.17,1.43 -2.34,1.16 -2.45,0.87 -2.55,0.57 -2.58,0.25 -2.62,-0.05 -2.57,-0.36 -2.53,-0.68 -2.41,-0.97 -2.29,-1.26 -2.10,-1.52 -1.92,-1.77 -1.68,-1.98 -1.44,-2.18 -1.16,-2.32 -0.87,-2.47 -0.56,-2.53 -0.26,-2.60 0.05,-2.60 0.37,-2.59 0.37,-2.59 L 0.37,-2.59 Z"></path></g><g transform="translate(137.10122801075744 58.51550038033503) rotate(0 7.986083984375 -0.0000152587890625)" stroke="none"><path fill="#1e1e1e" d="M -0.52,-2.60 Q -0.52,-2.60 0.47,-2.83 1.46,-3.06 2.87,-3.17 4.28,-3.28 5.39,-3.12 6.49,-2.97 7.84,-2.95 9.19,-2.94 10.43,-2.71 11.66,-2.48 13.90,-2.65 16.14,-2.82 16.62,-2.94 17.10,-3.06 17.60,-3.02 18.10,-2.98 18.55,-2.78 19.01,-2.59 19.38,-2.25 19.75,-1.92 20.00,-1.49 20.24,-1.06 20.33,-0.57 20.43,-0.08 20.36,0.40 20.29,0.89 20.07,1.34 19.85,1.79 19.50,2.14 19.15,2.49 18.71,2.71 18.26,2.93 17.77,3.00 17.28,3.07 16.79,2.97 16.30,2.88 15.87,2.64 15.43,2.39 15.10,2.02 14.77,1.65 14.57,1.20 14.37,0.74 14.33,0.24 14.29,-0.24 14.41,-0.72 14.53,-1.21 14.80,-1.63 15.07,-2.05 15.45,-2.36 15.84,-2.67 16.31,-2.84 16.77,-3.01 17.27,-3.03 17.77,-3.04 18.24,-2.89 18.72,-2.75 19.12,-2.46 19.53,-2.17 19.82,-1.77 20.11,-1.36 20.25,-0.89 20.40,-0.41 20.39,0.08 20.37,0.57 20.20,1.04 20.03,1.51 19.72,1.89 19.41,2.28 18.99,2.55 18.57,2.82 18.57,2.82 18.57,2.82 15.21,3.16 11.85,3.51 10.41,3.18 8.98,2.85 7.12,2.67 5.26,2.48 3.89,2.37 2.52,2.26 1.52,2.43 0.52,2.60 0.20,2.63 -0.11,2.65 -0.43,2.60 -0.75,2.55 -1.04,2.42 -1.33,2.29 -1.59,2.10 -1.85,1.91 -2.05,1.66 -2.25,1.41 -2.39,1.12 -2.52,0.83 -2.58,0.51 -2.65,0.20 -2.63,-0.11 -2.62,-0.43 -2.53,-0.74 -2.44,-1.05 -2.28,-1.32 -2.12,-1.60 -1.89,-1.83 -1.67,-2.06 -1.40,-2.23 -1.13,-2.40 -0.82,-2.50 -0.52,-2.60 -0.52,-2.60 L -0.52,-2.60 Z"></path></g><g transform="translate(120.1640906107013 62.76331153945756) rotate(0 0.347198486328125 9.027786254882812)" stroke="none"><path fill="#1e1e1e" d="M 2.61,-0.37 Q 2.61,-0.37 2.79,1.03 2.98,2.44 2.89,3.93 2.80,5.43 2.80,7.22 2.79,9.02 2.99,10.51 3.19,12.00 3.42,15.00 3.66,18.01 3.58,18.48 3.51,18.96 3.29,19.39 3.08,19.81 2.73,20.15 2.39,20.48 1.96,20.69 1.52,20.90 1.05,20.96 0.57,21.01 0.10,20.92 -0.36,20.82 -0.78,20.58 -1.19,20.34 -1.51,19.98 -1.82,19.61 -2.01,19.17 -2.19,18.73 -2.22,18.25 -2.25,17.77 -2.13,17.31 -2.01,16.84 -1.75,16.44 -1.48,16.04 -1.10,15.74 -0.73,15.45 -0.27,15.29 0.17,15.13 0.65,15.12 1.13,15.12 1.59,15.26 2.04,15.41 2.43,15.70 2.82,15.98 3.09,16.37 3.36,16.77 3.50,17.23 3.63,17.69 3.61,18.17 3.60,18.65 3.42,19.10 3.25,19.55 2.95,19.92 2.64,20.29 2.23,20.54 1.82,20.79 1.36,20.90 0.89,21.01 0.41,20.97 -0.06,20.92 -0.49,20.72 -0.93,20.53 -1.29,20.20 -1.64,19.88 -1.87,19.46 -2.10,19.04 -2.18,18.56 -2.27,18.09 -2.27,18.09 -2.27,18.09 -2.32,15.70 -2.38,13.31 -2.58,12.15 -2.79,10.99 -2.71,8.91 -2.64,6.84 -2.41,4.99 -2.18,3.14 -2.40,1.76 -2.61,0.37 -2.61,0.05 -2.62,-0.26 -2.55,-0.57 -2.48,-0.88 -2.34,-1.16 -2.20,-1.45 -1.99,-1.69 -1.79,-1.93 -1.53,-2.12 -1.27,-2.31 -0.98,-2.42 -0.68,-2.54 -0.37,-2.59 -0.05,-2.63 0.26,-2.60 0.57,-2.57 0.87,-2.46 1.17,-2.36 1.44,-2.18 1.70,-2.01 1.92,-1.77 2.13,-1.54 2.29,-1.26 2.44,-0.98 2.52,-0.68 2.61,-0.37 2.61,-0.37 L 2.61,-0.37 Z"></path></g><g transform="translate(80.481659450231 25.918640696876196) rotate(0 2.43060302734375 18.75000762939453)" stroke="none"><path fill="#1e1e1e" d="M 1.62,1.22 Q 1.62,1.22 1.09,2.06 0.55,2.90 -0.06,5.05 -0.68,7.20 -0.79,8.36 -0.90,9.52 -1.30,11.64 -1.70,13.76 -1.79,15.22 -1.87,16.68 -2.02,18.85 -2.18,21.03 -2.08,23.09 -1.99,25.14 -1.66,26.56 -1.34,27.98 -0.97,29.14 -0.60,30.30 -0.21,31.61 0.16,32.92 1.14,34.38 2.12,35.85 3.25,36.29 4.39,36.73 5.42,35.37 6.46,34.01 6.75,33.64 7.04,33.27 7.43,33.01 7.83,32.75 8.28,32.62 8.74,32.50 9.21,32.53 9.68,32.57 10.12,32.75 10.56,32.93 10.91,33.24 11.27,33.55 11.51,33.95 11.75,34.36 11.85,34.82 11.94,35.29 11.89,35.76 11.83,36.23 11.62,36.65 11.42,37.08 11.09,37.42 10.76,37.76 10.34,37.97 9.92,38.19 9.46,38.26 8.99,38.33 8.52,38.25 8.06,38.17 7.64,37.94 7.23,37.72 6.91,37.37 6.59,37.02 6.39,36.59 6.20,36.16 6.15,35.69 6.11,35.22 6.21,34.76 6.32,34.30 6.57,33.90 6.82,33.49 7.18,33.19 7.55,32.89 7.99,32.72 8.43,32.55 8.90,32.53 9.37,32.51 9.83,32.64 10.28,32.78 10.67,33.04 11.06,33.31 11.34,33.69 11.62,34.07 11.77,34.52 11.91,34.97 11.91,35.45 11.90,35.92 11.74,36.36 11.59,36.81 11.59,36.81 11.59,36.81 10.32,38.45 9.04,40.09 7.27,40.91 5.50,41.73 4.42,41.81 3.33,41.89 1.43,40.89 -0.46,39.90 -1.61,38.19 -2.75,36.48 -3.34,35.23 -3.92,33.99 -4.21,32.64 -4.50,31.30 -4.76,29.97 -5.02,28.65 -5.25,27.04 -5.48,25.44 -5.74,23.19 -6.00,20.95 -6.06,18.65 -6.12,16.35 -5.97,14.80 -5.82,13.24 -5.68,11.08 -5.55,8.91 -5.32,7.52 -5.09,6.12 -4.64,4.30 -4.18,2.47 -3.56,1.38 -2.94,0.29 -2.28,-0.46 -1.62,-1.22 -1.45,-1.39 -1.28,-1.57 -1.08,-1.70 -0.87,-1.83 -0.64,-1.91 -0.40,-1.99 -0.16,-2.01 0.08,-2.03 0.32,-1.99 0.56,-1.95 0.79,-1.85 1.01,-1.76 1.21,-1.61 1.40,-1.46 1.56,-1.27 1.71,-1.08 1.82,-0.86 1.92,-0.64 1.97,-0.40 2.02,-0.16 2.01,0.07 2.00,0.32 1.94,0.56 1.87,0.79 1.75,1.00 1.62,1.22 1.62,1.22 L 1.62,1.22 Z"></path></g><g transform="translate(67.981659450231 52.30752619492307) rotate(0 9.027801513671875 -2.0833282470703125)" stroke="none"><path fill="#1e1e1e" d="M 0.40,-2.40 Q 0.40,-2.40 1.58,-2.23 2.77,-2.06 4.15,-2.48 5.53,-2.90 7.03,-3.41 8.54,-3.93 10.16,-4.37 11.78,-4.81 14.33,-6.05 16.88,-7.29 17.30,-7.42 17.72,-7.54 18.16,-7.52 18.60,-7.50 19.00,-7.35 19.41,-7.19 19.75,-6.91 20.09,-6.63 20.32,-6.26 20.55,-5.89 20.65,-5.47 20.75,-5.04 20.71,-4.60 20.66,-4.17 20.49,-3.77 20.31,-3.37 20.01,-3.05 19.72,-2.73 19.33,-2.52 18.95,-2.31 18.52,-2.23 18.09,-2.15 17.66,-2.22 17.22,-2.28 16.83,-2.48 16.44,-2.68 16.14,-3.00 15.83,-3.31 15.65,-3.70 15.46,-4.10 15.40,-4.53 15.35,-4.97 15.44,-5.39 15.53,-5.82 15.75,-6.20 15.97,-6.58 16.30,-6.87 16.63,-7.15 17.03,-7.32 17.43,-7.49 17.87,-7.52 18.31,-7.55 18.73,-7.44 19.15,-7.32 19.52,-7.08 19.88,-6.84 20.15,-6.50 20.42,-6.15 20.57,-5.74 20.71,-5.33 20.72,-4.89 20.72,-4.45 20.59,-4.04 20.46,-3.62 20.20,-3.27 19.94,-2.92 19.58,-2.67 19.22,-2.42 19.22,-2.42 19.22,-2.42 16.23,-1.00 13.24,0.40 12.06,0.74 10.88,1.08 8.85,1.66 6.82,2.24 5.68,2.49 4.53,2.73 3.27,2.79 2.01,2.86 0.80,2.63 -0.40,2.40 -0.68,2.32 -0.96,2.23 -1.21,2.09 -1.47,1.94 -1.68,1.73 -1.89,1.53 -2.05,1.28 -2.20,1.03 -2.29,0.75 -2.39,0.47 -2.41,0.18 -2.43,-0.10 -2.38,-0.39 -2.33,-0.68 -2.22,-0.95 -2.10,-1.22 -1.92,-1.46 -1.75,-1.69 -1.52,-1.88 -1.29,-2.06 -1.02,-2.19 -0.76,-2.31 -0.47,-2.37 -0.18,-2.43 0.10,-2.41 0.40,-2.40 0.40,-2.40 L 0.40,-2.40 Z"></path></g><g transform="translate(161.59815157441574 20.912643432617188) rotate(0 5.902801513671875 26.736122131347656)" stroke="none"><path fill="#1e1e1e" d="M 1.02,-1.63 Q 1.02,-1.63 2.60,-0.61 4.19,0.40 5.39,1.24 6.60,2.07 7.69,3.65 8.79,5.23 9.61,6.65 10.43,8.07 10.96,10.31 11.50,12.55 11.94,14.19 12.38,15.83 12.79,17.33 13.21,18.82 13.30,21.44 13.40,24.06 13.40,26.93 13.39,29.80 13.40,31.81 13.41,33.82 13.18,36.34 12.94,38.86 12.92,40.48 12.91,42.10 12.67,44.06 12.43,46.01 12.43,47.19 12.43,48.37 12.24,49.79 12.05,51.21 10.40,53.25 8.75,55.29 8.42,55.42 8.10,55.55 7.76,55.57 7.41,55.59 7.08,55.50 6.75,55.41 6.46,55.22 6.17,55.03 5.96,54.75 5.75,54.48 5.64,54.15 5.53,53.82 5.53,53.48 5.52,53.13 5.63,52.81 5.74,52.48 5.95,52.20 6.16,51.92 6.44,51.73 6.73,51.53 7.06,51.44 7.39,51.34 7.74,51.36 8.08,51.38 8.40,51.50 8.73,51.63 8.99,51.85 9.25,52.08 9.43,52.37 9.61,52.67 9.69,53.00 9.77,53.34 9.73,53.68 9.70,54.03 9.55,54.34 9.41,54.66 9.17,54.91 8.94,55.16 8.63,55.32 8.33,55.49 7.99,55.55 7.65,55.60 7.30,55.55 6.96,55.50 6.66,55.33 6.35,55.17 6.11,54.93 5.87,54.68 5.73,54.36 5.58,54.05 5.54,53.71 5.50,53.36 5.57,53.02 5.65,52.69 5.82,52.39 6.00,52.09 6.26,51.87 6.52,51.64 6.52,51.64 6.52,51.64 7.31,51.05 8.10,50.46 8.39,49.26 8.69,48.06 8.88,46.83 9.08,45.60 9.31,43.77 9.54,41.93 9.68,40.28 9.83,38.62 9.97,36.24 10.10,33.87 10.05,31.87 10.00,29.88 9.87,27.09 9.73,24.30 9.50,22.05 9.27,19.80 8.93,18.31 8.59,16.81 8.18,15.17 7.77,13.53 7.26,11.81 6.75,10.08 6.04,8.76 5.33,7.44 4.71,6.32 4.10,5.20 3.14,4.40 2.19,3.59 0.58,2.61 -1.02,1.63 -1.20,1.48 -1.38,1.34 -1.52,1.15 -1.66,0.97 -1.75,0.75 -1.84,0.54 -1.88,0.31 -1.92,0.08 -1.90,-0.14 -1.88,-0.37 -1.81,-0.59 -1.74,-0.81 -1.62,-1.01 -1.49,-1.21 -1.33,-1.37 -1.16,-1.53 -0.96,-1.65 -0.76,-1.76 -0.54,-1.83 -0.31,-1.89 -0.08,-1.90 0.14,-1.92 0.37,-1.87 0.60,-1.82 0.81,-1.73 1.02,-1.63 1.02,-1.63 L 1.02,-1.63 Z"></path></g><g transform="translate(102.60035754582572 62.5083645251446) rotate(0 -1.4343551669989836 5.498326455230455)" stroke="none"><path fill="#1e1e1e" d="M -0.29,2.62 Q -0.29,2.62 -1.53,2.49 -2.76,2.37 -3.84,2.61 -4.92,2.86 -5.69,3.96 -6.46,5.06 -5.91,6.27 -5.37,7.48 -3.94,7.77 -2.52,8.05 -0.86,7.58 0.80,7.11 2.03,6.10 3.27,5.08 1.98,4.43 0.70,3.78 -0.30,4.40 -1.32,5.02 -1.86,5.19 -2.40,5.35 -2.96,5.34 -3.52,5.32 -4.05,5.13 -4.58,4.93 -5.02,4.58 -5.45,4.23 -5.76,3.75 -6.06,3.28 -6.19,2.73 -6.33,2.19 -6.28,1.63 -6.24,1.07 -6.02,0.55 -5.79,0.03 -5.42,-0.38 -5.04,-0.79 -4.55,-1.07 -4.06,-1.35 -3.51,-1.45 -2.96,-1.56 -2.40,-1.48 -1.84,-1.41 -1.34,-1.16 -0.83,-0.91 -0.44,-0.51 -0.04,-0.11 0.20,0.38 0.45,0.89 0.53,1.45 0.60,2.00 0.50,2.56 0.39,3.11 0.11,3.60 -0.15,4.09 -0.57,4.46 -0.99,4.84 -1.51,5.06 -2.03,5.28 -2.59,5.33 -3.15,5.37 -3.69,5.24 -4.24,5.10 -4.71,4.80 -5.19,4.49 -5.54,4.06 -5.89,3.62 -6.09,3.09 -6.28,2.56 -6.29,2.00 -6.31,1.44 -6.14,0.90 -5.98,0.36 -5.65,-0.09 -5.32,-0.54 -4.86,-0.87 -4.41,-1.20 -4.41,-1.20 -4.41,-1.20 -1.18,-1.96 2.04,-2.71 3.20,-2.35 4.36,-1.98 5.43,-1.37 6.49,-0.75 7.74,0.54 8.99,1.83 9.28,3.18 9.58,4.52 9.50,5.70 9.42,6.88 8.85,8.12 8.27,9.37 7.44,10.29 6.61,11.20 4.57,12.40 2.53,13.60 0.92,14.04 -0.68,14.48 -2.57,14.54 -4.45,14.60 -6.03,14.08 -7.61,13.56 -9.29,12.20 -10.97,10.84 -11.69,9.28 -12.41,7.73 -12.55,6.67 -12.68,5.61 -12.35,3.96 -12.03,2.30 -11.39,1.23 -10.74,0.17 -9.71,-0.63 -8.67,-1.45 -7.17,-2.17 -5.67,-2.89 -3.92,-2.90 -2.18,-2.92 -0.94,-2.77 0.29,-2.62 0.60,-2.55 0.91,-2.48 1.19,-2.33 1.47,-2.19 1.72,-1.98 1.96,-1.77 2.14,-1.51 2.32,-1.25 2.44,-0.95 2.56,-0.65 2.60,-0.34 2.64,-0.02 2.60,0.29 2.57,0.60 2.46,0.90 2.35,1.20 2.17,1.46 1.99,1.73 1.76,1.94 1.52,2.16 1.24,2.31 0.96,2.46 0.65,2.54 0.34,2.62 0.02,2.62 -0.29,2.62 -0.29,2.62 L -0.29,2.62 Z"></path></g><g transform="translate(548.7017371577065 106.93350424067035) rotate(0 6.964515813354922 -1.7411442562000445)" stroke="none"><path fill="#2f9e44" d="M -0.36,-2.58 Q -0.36,-2.58 1.03,-2.77 2.43,-2.96 3.99,-3.19 5.55,-3.43 6.89,-4.08 8.23,-4.73 9.47,-5.61 10.71,-6.49 11.77,-7.26 12.82,-8.02 11.55,-8.25 10.28,-8.48 8.67,-8.40 7.06,-8.31 5.05,-8.03 3.04,-7.76 1.58,-7.09 0.12,-6.43 -0.85,-5.61 -1.83,-4.79 -2.38,-3.85 -2.93,-2.91 -2.37,-1.31 -1.81,0.28 -0.64,1.43 0.51,2.59 2.04,3.37 3.56,4.15 5.46,4.66 7.36,5.16 8.46,5.23 9.56,5.31 11.32,5.16 13.09,5.02 14.16,4.39 15.24,3.76 15.92,2.91 16.59,2.06 16.99,1.04 17.39,0.02 17.69,-0.38 17.98,-0.79 18.39,-1.09 18.79,-1.39 19.27,-1.54 19.76,-1.69 20.26,-1.68 20.76,-1.67 21.24,-1.49 21.71,-1.32 22.11,-1.01 22.50,-0.69 22.77,-0.27 23.05,0.14 23.17,0.63 23.30,1.12 23.26,1.62 23.22,2.12 23.02,2.59 22.83,3.05 22.49,3.43 22.16,3.81 21.72,4.06 21.28,4.31 20.79,4.40 20.29,4.50 19.79,4.44 19.29,4.37 18.84,4.15 18.39,3.93 18.03,3.57 17.67,3.22 17.44,2.77 17.22,2.32 17.15,1.82 17.08,1.32 17.17,0.82 17.26,0.33 17.51,-0.10 17.75,-0.54 18.13,-0.88 18.50,-1.22 18.96,-1.42 19.42,-1.62 19.93,-1.67 20.43,-1.71 20.92,-1.59 21.41,-1.47 21.84,-1.20 22.26,-0.93 22.58,-0.54 22.90,-0.15 23.07,0.31 23.25,0.79 23.27,1.29 23.28,1.79 23.14,2.28 22.99,2.76 22.99,2.76 22.99,2.76 21.57,4.96 20.15,7.17 19.23,8.04 18.30,8.91 17.19,9.53 16.08,10.16 15.06,10.50 14.04,10.85 11.62,11.02 9.21,11.19 7.93,11.12 6.65,11.05 4.01,10.44 1.36,9.83 -0.11,9.24 -1.60,8.64 -2.58,7.95 -3.57,7.25 -4.85,6.16 -6.14,5.06 -7.24,3.24 -8.35,1.42 -8.73,-0.94 -9.12,-3.30 -8.25,-5.50 -7.37,-7.70 -6.66,-8.58 -5.95,-9.46 -4.36,-10.65 -2.78,-11.84 -1.56,-12.48 -0.33,-13.12 0.75,-13.46 1.84,-13.81 4.00,-14.15 6.15,-14.48 8.63,-14.61 11.11,-14.75 12.68,-14.48 14.25,-14.22 15.46,-13.51 16.68,-12.81 17.53,-11.67 18.37,-10.53 18.62,-9.39 18.87,-8.26 18.35,-6.68 17.83,-5.11 16.47,-3.82 15.10,-2.54 13.82,-1.78 12.53,-1.02 10.59,-0.10 8.64,0.81 7.54,1.15 6.44,1.49 4.80,1.82 3.16,2.16 1.76,2.37 0.36,2.58 0.05,2.58 -0.25,2.59 -0.56,2.52 -0.87,2.45 -1.15,2.31 -1.43,2.17 -1.67,1.97 -1.91,1.76 -2.09,1.51 -2.28,1.25 -2.39,0.96 -2.51,0.67 -2.56,0.36 -2.60,0.05 -2.57,-0.25 -2.54,-0.57 -2.43,-0.86 -2.33,-1.16 -2.16,-1.42 -1.98,-1.68 -1.75,-1.90 -1.52,-2.11 -1.25,-2.26 -0.97,-2.41 -0.67,-2.49 -0.36,-2.58 -0.36,-2.58 L -0.36,-2.58 Z"></path></g><g transform="translate(571.6845536457546 81.16483245812412) rotate(0 3.830551029934952 -1.3928970415264814)" stroke="none"><path fill="#2f9e44" d="M -0.94,-2.35 Q -0.94,-2.35 0.04,-2.78 1.03,-3.22 3.75,-4.28 6.47,-5.35 6.91,-5.47 7.35,-5.60 7.81,-5.57 8.27,-5.55 8.69,-5.38 9.12,-5.21 9.47,-4.91 9.81,-4.61 10.05,-4.22 10.29,-3.83 10.38,-3.38 10.48,-2.93 10.43,-2.48 10.38,-2.02 10.19,-1.61 10.00,-1.19 9.68,-0.86 9.37,-0.53 8.96,-0.31 8.56,-0.10 8.11,-0.02 7.65,0.04 7.20,-0.02 6.75,-0.10 6.35,-0.31 5.94,-0.53 5.63,-0.86 5.31,-1.19 5.12,-1.61 4.93,-2.02 4.88,-2.48 4.83,-2.94 4.93,-3.38 5.03,-3.83 5.26,-4.22 5.50,-4.61 5.85,-4.91 6.20,-5.21 6.62,-5.38 7.05,-5.55 7.51,-5.57 7.96,-5.59 8.41,-5.47 8.85,-5.35 9.23,-5.09 9.60,-4.83 9.88,-4.47 10.16,-4.11 10.30,-3.67 10.45,-3.24 10.45,-2.78 10.45,-2.32 10.30,-1.89 10.16,-1.45 9.88,-1.09 9.60,-0.72 9.22,-0.47 8.84,-0.21 8.84,-0.21 8.84,-0.21 7.17,0.25 5.50,0.72 4.23,1.17 2.96,1.61 1.95,1.98 0.94,2.35 0.64,2.43 0.35,2.51 0.04,2.52 -0.26,2.52 -0.55,2.45 -0.85,2.39 -1.13,2.25 -1.40,2.11 -1.63,1.91 -1.87,1.71 -2.04,1.46 -2.22,1.22 -2.34,0.93 -2.45,0.65 -2.49,0.34 -2.53,0.04 -2.50,-0.25 -2.47,-0.56 -2.37,-0.85 -2.26,-1.13 -2.10,-1.39 -1.93,-1.64 -1.70,-1.85 -1.47,-2.06 -1.21,-2.21 -0.94,-2.35 -0.94,-2.35 L -0.94,-2.35 Z"></path></g><g transform="translate(603.7212774180313 71.41452256171624) rotate(0 -7.660979636979562 -8.009165640207868)" stroke="none"><path fill="#2f9e44" d="M -2.40,1.02 Q -2.40,1.02 -2.97,-0.38 -3.55,-1.79 -4.56,-3.31 -5.56,-4.83 -6.57,-5.72 -7.57,-6.62 -8.64,-6.97 -9.72,-7.32 -11.38,-7.38 -13.04,-7.45 -14.27,-6.94 -15.50,-6.43 -15.82,-5.21 -16.13,-3.99 -14.42,-4.73 -12.71,-5.47 -11.50,-6.22 -10.30,-6.97 -8.62,-8.28 -6.94,-9.58 -5.14,-11.26 -3.33,-12.94 -2.06,-14.15 -0.79,-15.36 0.60,-16.78 2.01,-18.20 2.42,-18.49 2.82,-18.78 3.30,-18.92 3.78,-19.06 4.27,-19.05 4.77,-19.03 5.24,-18.86 5.70,-18.68 6.09,-18.37 6.47,-18.05 6.74,-17.63 7.00,-17.21 7.12,-16.73 7.24,-16.25 7.20,-15.75 7.15,-15.25 6.95,-14.80 6.76,-14.34 6.42,-13.97 6.09,-13.61 5.65,-13.36 5.22,-13.12 4.73,-13.03 4.24,-12.94 3.75,-13.01 3.25,-13.08 2.81,-13.30 2.37,-13.53 2.02,-13.88 1.67,-14.23 1.45,-14.68 1.23,-15.13 1.16,-15.62 1.10,-16.11 1.20,-16.60 1.29,-17.09 1.54,-17.52 1.79,-17.95 2.16,-18.28 2.53,-18.61 2.99,-18.81 3.45,-19.00 3.94,-19.04 4.44,-19.08 4.92,-18.95 5.40,-18.83 5.82,-18.56 6.24,-18.29 6.55,-17.90 6.86,-17.51 7.03,-17.04 7.20,-16.58 7.21,-16.08 7.22,-15.58 7.07,-15.11 6.92,-14.63 6.63,-14.23 6.34,-13.83 6.34,-13.83 6.34,-13.83 4.27,-11.88 2.21,-9.93 0.56,-8.47 -1.08,-7.01 -2.11,-5.86 -3.13,-4.70 -4.76,-3.34 -6.39,-1.99 -8.63,-0.64 -10.88,0.70 -11.90,1.00 -12.92,1.30 -14.15,1.49 -15.39,1.67 -17.46,1.05 -19.52,0.42 -20.52,-0.81 -21.51,-2.06 -21.73,-3.12 -21.95,-4.19 -21.37,-6.57 -20.78,-8.94 -19.05,-10.66 -17.31,-12.38 -15.08,-12.85 -12.85,-13.32 -10.65,-13.14 -8.46,-12.97 -7.12,-12.56 -5.77,-12.15 -4.89,-11.54 -4.01,-10.94 -2.52,-9.32 -1.03,-7.70 -0.42,-6.70 0.17,-5.70 0.66,-4.75 1.14,-3.81 1.77,-2.42 2.40,-1.02 2.48,-0.72 2.57,-0.42 2.59,-0.10 2.60,0.20 2.54,0.51 2.47,0.82 2.34,1.10 2.21,1.39 2.01,1.63 1.81,1.88 1.56,2.07 1.31,2.25 1.02,2.38 0.73,2.50 0.42,2.55 0.11,2.61 -0.20,2.58 -0.51,2.56 -0.81,2.46 -1.11,2.36 -1.38,2.19 -1.64,2.02 -1.86,1.80 -2.08,1.57 -2.24,1.30 -2.40,1.02 -2.40,1.02 L -2.40,1.02 Z"></path></g><g transform="translate(612.0787208786353 52.61036659252494) rotate(0 8.009150337346512 8.35741285488146)" stroke="none"><path fill="#2f9e44" d="M -0.91,-2.44 Q -0.91,-2.44 0.70,-2.98 2.33,-3.52 4.50,-4.04 6.68,-4.55 7.83,-4.36 8.99,-4.16 9.90,-3.46 10.80,-2.76 11.25,-1.36 11.70,0.02 11.53,1.11 11.36,2.20 10.79,3.32 10.21,4.43 9.27,6.24 8.34,8.04 7.66,9.29 6.99,10.54 5.85,12.35 4.72,14.16 5.82,14.57 6.92,14.98 8.56,14.93 10.19,14.89 11.51,14.87 12.82,14.85 14.19,14.49 15.55,14.14 16.09,14.15 16.62,14.16 17.12,14.34 17.63,14.52 18.04,14.86 18.46,15.19 18.75,15.64 19.04,16.09 19.17,16.61 19.30,17.12 19.26,17.66 19.22,18.19 19.01,18.68 18.80,19.17 18.45,19.57 18.09,19.97 17.63,20.24 17.16,20.50 16.64,20.60 16.12,20.71 15.59,20.64 15.06,20.57 14.58,20.33 14.10,20.10 13.72,19.72 13.34,19.34 13.10,18.87 12.86,18.39 12.79,17.86 12.71,17.33 12.81,16.80 12.91,16.28 13.17,15.81 13.43,15.35 13.83,14.99 14.22,14.63 14.71,14.42 15.20,14.20 15.74,14.16 16.27,14.11 16.79,14.24 17.31,14.37 17.76,14.65 18.21,14.94 18.55,15.35 18.88,15.77 19.07,16.27 19.25,16.77 19.27,17.31 19.29,17.84 19.13,18.35 18.98,18.86 18.67,19.30 18.36,19.73 17.92,20.05 17.49,20.36 16.98,20.52 16.47,20.68 16.47,20.68 16.47,20.68 14.03,21.02 11.58,21.36 10.35,21.35 9.12,21.34 7.69,21.37 6.26,21.40 5.09,21.52 3.93,21.64 1.90,20.56 -0.11,19.48 -0.77,17.28 -1.42,15.07 -0.79,13.02 -0.16,10.97 0.85,9.47 1.87,7.96 2.48,6.66 3.09,5.36 4.09,3.43 5.09,1.51 6.12,1.10 7.14,0.70 5.61,0.91 4.07,1.12 2.49,1.78 0.91,2.44 0.61,2.51 0.30,2.59 -0.00,2.59 -0.32,2.58 -0.62,2.51 -0.93,2.43 -1.21,2.28 -1.49,2.14 -1.72,1.93 -1.95,1.72 -2.13,1.46 -2.31,1.20 -2.42,0.90 -2.53,0.61 -2.57,0.30 -2.60,-0.00 -2.57,-0.32 -2.53,-0.63 -2.41,-0.92 -2.30,-1.22 -2.12,-1.47 -1.94,-1.73 -1.71,-1.94 -1.47,-2.15 -1.19,-2.29 -0.91,-2.44 -0.91,-2.44 L -0.91,-2.44 Z"></path></g><g transform="translate(609.9893294077616 60.96777944740637) rotate(0 9.402077984595678 -1.3928970415264814)" stroke="none"><path fill="#2f9e44" d="M 0,-2.59 Q 0,-2.59 0.99,-2.62 1.99,-2.65 3.78,-2.98 5.57,-3.30 6.79,-3.36 8.01,-3.42 9.10,-3.61 10.19,-3.80 12.29,-4.14 14.39,-4.49 16.22,-5.02 18.05,-5.55 18.51,-5.59 18.97,-5.64 19.42,-5.54 19.87,-5.44 20.27,-5.20 20.67,-4.95 20.96,-4.60 21.26,-4.24 21.43,-3.81 21.60,-3.38 21.62,-2.92 21.65,-2.46 21.52,-2.01 21.39,-1.56 21.13,-1.18 20.87,-0.80 20.50,-0.52 20.13,-0.24 19.69,-0.10 19.25,0.04 18.78,0.04 18.32,0.03 17.88,-0.11 17.44,-0.26 17.08,-0.54 16.71,-0.82 16.45,-1.21 16.19,-1.59 16.07,-2.04 15.95,-2.49 15.98,-2.95 16.00,-3.41 16.18,-3.84 16.35,-4.27 16.65,-4.62 16.96,-4.97 17.36,-5.21 17.75,-5.45 18.21,-5.55 18.66,-5.64 19.12,-5.59 19.58,-5.54 20.00,-5.34 20.42,-5.14 20.76,-4.82 21.09,-4.50 21.30,-4.09 21.52,-3.68 21.59,-3.22 21.66,-2.76 21.59,-2.31 21.51,-1.85 21.29,-1.44 21.07,-1.03 20.73,-0.72 20.39,-0.40 19.97,-0.21 19.55,-0.02 19.55,-0.02 19.55,-0.02 17.52,0.49 15.48,1.02 13.30,1.33 11.11,1.65 9.66,1.89 8.20,2.13 6.54,2.18 4.88,2.23 3.44,2.44 2.00,2.65 1.00,2.62 0,2.59 -0.30,2.55 -0.61,2.51 -0.91,2.40 -1.20,2.29 -1.46,2.11 -1.71,1.93 -1.92,1.70 -2.13,1.47 -2.27,1.19 -2.42,0.91 -2.49,0.61 -2.57,0.31 -2.57,-0.00 -2.57,-0.31 -2.49,-0.61 -2.42,-0.91 -2.27,-1.19 -2.13,-1.47 -1.92,-1.70 -1.71,-1.93 -1.46,-2.11 -1.20,-2.29 -0.91,-2.40 -0.61,-2.51 -0.30,-2.55 0.00,-2.59 0.00,-2.59 L 0,-2.59 Z"></path></g><g transform="translate(539.6479522963683 122.25537169746156) rotate(0 -5.571710588996325 16.714825709762835)" stroke="none"><path fill="#2f9e44" d="M 1.85,0.92 Q 1.85,0.92 1.51,1.75 1.18,2.59 0.31,5.16 -0.55,7.73 -2.32,12.31 -4.08,16.88 -5.05,19.57 -6.02,22.26 -6.87,24.44 -7.72,26.61 -8.22,28.30 -8.72,29.99 -9.07,31.36 -9.43,32.72 -9.65,34.26 -9.87,35.80 -9.97,36.11 -10.06,36.41 -10.25,36.67 -10.44,36.93 -10.71,37.12 -10.97,37.30 -11.28,37.39 -11.59,37.49 -11.91,37.47 -12.23,37.46 -12.53,37.35 -12.83,37.23 -13.08,37.03 -13.33,36.83 -13.50,36.55 -13.67,36.28 -13.74,35.97 -13.82,35.66 -13.79,35.34 -13.76,35.01 -13.63,34.72 -13.50,34.43 -13.28,34.19 -13.06,33.95 -12.78,33.80 -12.50,33.64 -12.18,33.58 -11.87,33.53 -11.55,33.57 -11.23,33.62 -10.95,33.77 -10.66,33.91 -10.43,34.14 -10.21,34.37 -10.07,34.66 -9.93,34.95 -9.89,35.27 -9.85,35.59 -9.91,35.90 -9.98,36.22 -10.14,36.50 -10.30,36.77 -10.54,36.99 -10.78,37.20 -11.08,37.32 -11.37,37.45 -11.70,37.47 -12.02,37.49 -12.33,37.41 -12.64,37.33 -12.91,37.16 -13.18,36.98 -13.38,36.73 -13.57,36.47 -13.68,36.17 -13.79,35.87 -13.80,35.55 -13.80,35.23 -13.80,35.23 -13.80,35.23 -13.39,33.40 -12.98,31.58 -12.48,30.28 -11.99,28.98 -11.42,27.23 -10.85,25.48 -10.14,23.32 -9.42,21.15 -8.60,18.36 -7.78,15.56 -6.26,11.00 -4.75,6.43 -4.23,4.53 -3.71,2.62 -3.25,1.61 -2.78,0.61 -2.31,-0.15 -1.85,-0.92 -1.71,-1.13 -1.57,-1.34 -1.39,-1.51 -1.20,-1.67 -0.99,-1.79 -0.77,-1.91 -0.53,-1.98 -0.28,-2.04 -0.04,-2.05 0.20,-2.05 0.45,-2.00 0.69,-1.94 0.91,-1.83 1.14,-1.72 1.33,-1.56 1.52,-1.40 1.66,-1.19 1.81,-0.99 1.90,-0.76 1.99,-0.53 2.03,-0.28 2.06,-0.04 2.04,0.20 2.01,0.45 1.93,0.69 1.85,0.92 1.85,0.92 L 1.85,0.92 Z"></path></g><g transform="translate(520.8436739042867 148.7205685150775) rotate(0 8.009211548791768 5.223295042848434)" stroke="none"><path fill="#2f9e44" d="M 2.47,-0.99 Q 2.47,-0.99 2.90,0.00 3.32,0.99 4.36,2.43 5.40,3.88 6.17,4.91 6.94,5.94 7.85,6.87 8.76,7.80 7.11,8.27 5.47,8.75 6.46,7.79 7.45,6.83 8.95,5.14 10.44,3.44 14.41,2.59 18.38,1.73 18.71,2.18 19.03,2.62 19.20,3.14 19.37,3.66 19.37,4.21 19.36,4.76 19.18,5.28 19.00,5.80 18.66,6.23 18.32,6.67 17.86,6.97 17.40,7.27 16.87,7.41 16.34,7.55 15.79,7.52 15.25,7.48 14.74,7.27 14.23,7.06 13.81,6.70 13.40,6.34 13.12,5.87 12.84,5.39 12.73,4.86 12.62,4.32 12.69,3.77 12.75,3.23 12.99,2.73 13.22,2.23 13.61,1.84 13.99,1.45 14.48,1.19 14.97,0.94 15.51,0.86 16.05,0.78 16.59,0.87 17.14,0.97 17.62,1.23 18.10,1.49 18.47,1.90 18.85,2.30 19.07,2.80 19.30,3.30 19.35,3.85 19.40,4.40 19.28,4.93 19.15,5.47 18.87,5.94 18.58,6.40 18.15,6.75 17.73,7.10 17.22,7.30 16.70,7.50 16.16,7.52 15.61,7.55 15.08,7.39 14.55,7.24 14.10,6.93 13.65,6.61 13.65,6.61 13.65,6.61 14.58,7.43 15.52,8.25 14.45,9.17 13.39,10.10 12.31,11.09 11.24,12.07 10.16,12.57 9.07,13.08 6.25,12.15 3.43,11.23 2.60,10.13 1.77,9.03 1.01,7.70 0.25,6.37 -0.73,4.69 -1.72,3.01 -2.10,2.00 -2.47,0.99 -2.56,0.68 -2.64,0.36 -2.65,0.04 -2.65,-0.27 -2.58,-0.58 -2.51,-0.90 -2.36,-1.18 -2.22,-1.47 -2.01,-1.72 -1.80,-1.96 -1.54,-2.15 -1.28,-2.34 -0.98,-2.46 -0.68,-2.58 -0.36,-2.62 -0.04,-2.67 0.27,-2.63 0.59,-2.60 0.89,-2.49 1.19,-2.38 1.46,-2.20 1.73,-2.03 1.95,-1.79 2.17,-1.55 2.32,-1.27 2.47,-0.99 2.47,-0.99 L 2.47,-0.99 Z"></path></g></svg>