<svg version="1.1" xmlns="http://www.w3.org/2000/svg" viewBox="0 0 916.3341206715521 609.4771831898072" width="916.3341206715521" height="609.4771831898072" class="excalidraw-svg"><!-- svg-source:excalidraw --><metadata></metadata><defs><style class="style-fonts">
      </style></defs><g transform="translate(231.1900777028021 89.24226379394531) rotate(0 23.13873291015625 14.26361083984375)" stroke="none"><path fill="#1e1e1e" d="M -5.27,-0.87 Q -5.27,-0.87 -4.94,-3.07 -4.62,-5.27 -3.72,-8.62 -2.82,-11.97 -1.68,-14.06 -0.54,-16.14 1.31,-18.96 3.17,-21.78 5.83,-24.60 8.50,-27.43 11.45,-29.69 14.40,-31.95 17.55,-33.53 20.70,-35.10 24.37,-35.40 28.04,-35.70 31.44,-33.89 34.85,-32.09 36.16,-30.11 37.48,-28.13 38.63,-23.57 39.79,-19.01 39.91,-14.19 40.04,-9.37 39.79,-6.96 39.53,-4.54 38.90,-1.29 38.26,1.95 37.86,4.25 37.47,6.55 36.36,9.96 35.25,13.37 34.71,15.66 34.18,17.95 33.56,20.22 32.94,22.48 31.57,25.75 30.20,29.02 29.35,31.27 28.50,33.53 27.34,36.29 26.19,39.06 25.37,41.07 24.56,43.08 23.44,45.43 22.33,47.79 20.93,51.01 19.53,54.23 17.14,53.44 14.75,52.64 16.49,51.32 18.23,49.99 21.63,48.84 25.04,47.69 28.23,46.81 31.42,45.93 33.79,45.47 36.16,45.01 38.43,44.54 40.70,44.06 43.24,43.61 45.78,43.16 46.90,43.26 48.01,43.37 49.04,43.82 50.07,44.27 50.89,45.03 51.72,45.79 52.26,46.77 52.80,47.75 53.00,48.86 53.20,49.96 53.04,51.07 52.88,52.18 52.37,53.18 51.86,54.18 51.06,54.96 50.26,55.75 49.25,56.24 48.24,56.72 47.13,56.86 46.01,57.00 44.91,56.78 43.81,56.56 42.84,56.00 41.87,55.43 41.13,54.59 40.39,53.75 39.96,52.71 39.53,51.68 39.45,50.56 39.37,49.44 39.65,48.36 39.93,47.27 40.55,46.33 41.16,45.39 42.04,44.70 42.92,44.01 43.98,43.63 45.04,43.26 46.16,43.24 47.28,43.22 48.35,43.56 49.42,43.90 50.32,44.56 51.23,45.23 51.87,46.14 52.51,47.06 52.83,48.14 53.15,49.21 53.11,50.33 53.07,51.45 52.67,52.50 52.27,53.55 51.56,54.42 50.85,55.28 49.90,55.88 48.94,56.47 47.85,56.73 46.76,56.99 46.76,56.99 46.76,56.99 45.87,57.03 44.98,57.07 41.83,57.73 38.68,58.38 35.82,58.91 32.97,59.44 29.92,60.05 26.88,60.67 23.58,61.73 20.28,62.80 17.83,63.35 15.37,63.89 13.25,63.71 11.13,63.54 9.19,62.10 7.26,60.65 7.26,56.66 7.26,52.66 8.38,50.80 9.51,48.94 11.03,46.03 12.56,43.13 14.45,39.14 16.34,35.16 17.38,32.39 18.41,29.62 19.28,27.42 20.16,25.23 21.71,20.33 23.26,15.43 23.84,12.87 24.43,10.31 25.09,7.44 25.76,4.58 26.11,2.40 26.47,0.23 26.74,-2.75 27.01,-5.74 27.18,-9.74 27.36,-13.75 27.07,-16.81 26.79,-19.87 25.06,-21.38 23.34,-22.88 21.00,-21.36 18.67,-19.84 16.59,-18.18 14.51,-16.52 12.67,-14.36 10.83,-12.20 9.40,-10.30 7.97,-8.41 7.02,-5.94 6.08,-3.47 5.67,-1.29 5.27,0.87 5.09,1.49 4.91,2.11 4.58,2.67 4.26,3.23 3.81,3.69 3.36,4.15 2.81,4.49 2.27,4.84 1.66,5.04 1.04,5.24 0.40,5.29 -0.23,5.34 -0.87,5.23 -1.50,5.13 -2.10,4.87 -2.69,4.62 -3.20,4.23 -3.72,3.84 -4.12,3.34 -4.53,2.84 -4.80,2.25 -5.08,1.67 -5.20,1.04 -5.33,0.40 -5.30,-0.23 -5.27,-0.87 -5.27,-0.87 L -5.27,-0.87 Z"></path></g><g transform="translate(280.6372212574896 53.74174499511719) rotate(0 8.8751220703125 -0.316986083984375)" stroke="none"><path fill="#1e1e1e" d="M 0,-5.21 Q 0,-5.21 2.00,-5.27 4.00,-5.34 6.65,-5.49 9.29,-5.64 11.99,-5.81 14.68,-5.97 15.59,-6.27 16.51,-6.57 17.49,-6.61 18.47,-6.65 19.41,-6.38 20.35,-6.10 21.16,-5.54 21.97,-4.98 22.55,-4.20 23.14,-3.41 23.44,-2.48 23.74,-1.54 23.73,-0.56 23.72,0.41 23.39,1.34 23.07,2.26 22.47,3.04 21.87,3.81 21.05,4.35 20.23,4.89 19.28,5.15 18.33,5.40 17.35,5.33 16.37,5.27 15.47,4.90 14.56,4.52 13.82,3.88 13.08,3.23 12.58,2.39 12.09,1.54 11.89,0.58 11.69,-0.37 11.80,-1.34 11.92,-2.32 12.34,-3.20 12.76,-4.09 13.45,-4.79 14.13,-5.50 15.00,-5.95 15.87,-6.40 16.84,-6.55 17.82,-6.69 18.78,-6.52 19.75,-6.35 20.61,-5.88 21.47,-5.41 22.14,-4.69 22.80,-3.97 23.21,-3.08 23.61,-2.18 23.70,-1.21 23.80,-0.23 23.57,0.72 23.35,1.67 22.84,2.51 22.32,3.34 21.57,3.97 20.81,4.59 19.90,4.95 18.98,5.30 18.98,5.30 18.98,5.30 16.85,5.64 14.73,5.97 12.01,5.81 9.29,5.64 6.65,5.49 4.00,5.34 2.00,5.27 0,5.21 -0.62,5.13 -1.24,5.06 -1.83,4.84 -2.42,4.61 -2.94,4.26 -3.45,3.90 -3.87,3.43 -4.29,2.96 -4.58,2.40 -4.87,1.84 -5.02,1.23 -5.17,0.62 -5.17,-0.00 -5.17,-0.62 -5.02,-1.23 -4.87,-1.84 -4.58,-2.40 -4.29,-2.96 -3.87,-3.43 -3.45,-3.90 -2.94,-4.26 -2.42,-4.61 -1.83,-4.84 -1.24,-5.06 -0.62,-5.13 0.00,-5.21 0.00,-5.21 L 0,-5.21 Z"></path></g><g transform="translate(312.3341206715521 51.20597839355469) rotate(0 9.8260498046875 -10.459976196289062)" stroke="none"><path fill="#1e1e1e" d="M -4.43,-2.95 Q -4.43,-2.95 -3.39,-4.63 -2.34,-6.30 -1.20,-8.39 -0.06,-10.49 1.09,-12.49 2.25,-14.50 3.70,-16.95 5.15,-19.39 6.48,-21.34 7.81,-23.29 8.95,-25.62 10.09,-27.94 15.70,-29.77 21.31,-31.59 22.82,-29.57 24.33,-27.55 24.47,-24.66 24.61,-21.78 24.65,-18.66 24.69,-15.53 24.83,-13.29 24.97,-11.05 25.11,-7.99 25.26,-4.94 25.54,-2.60 25.82,-0.27 26.22,2.64 26.61,5.55 26.56,6.69 26.50,7.82 26.08,8.87 25.67,9.93 24.93,10.80 24.20,11.66 23.23,12.25 22.26,12.84 21.16,13.09 20.05,13.33 18.92,13.21 17.79,13.10 16.76,12.62 15.73,12.15 14.90,11.37 14.08,10.59 13.54,9.59 13.01,8.59 12.82,7.47 12.64,6.36 12.82,5.24 13.00,4.12 13.52,3.11 14.05,2.11 14.87,1.33 15.69,0.54 16.72,0.06 17.75,-0.41 18.88,-0.53 20.01,-0.66 21.11,-0.42 22.22,-0.18 23.20,0.40 24.17,0.98 24.91,1.84 25.64,2.70 26.07,3.75 26.49,4.81 26.55,5.94 26.62,7.07 26.32,8.17 26.02,9.26 25.39,10.20 24.75,11.14 23.85,11.83 22.95,12.52 21.88,12.88 20.80,13.25 19.67,13.25 18.53,13.26 17.46,12.90 16.38,12.54 15.48,11.85 14.57,11.17 13.93,10.23 13.29,9.30 12.99,8.20 12.68,7.11 12.68,7.11 12.68,7.11 12.27,3.05 11.86,-1.01 11.61,-3.74 11.36,-6.47 11.09,-9.45 10.82,-12.42 10.82,-15.05 10.82,-17.68 12.15,-20.07 13.48,-22.46 17.76,-22.36 22.03,-22.26 20.73,-20.00 19.42,-17.74 17.64,-15.40 15.87,-13.05 14.59,-11.32 13.31,-9.58 11.44,-6.94 9.58,-4.30 8.15,-2.28 6.72,-0.25 5.57,1.34 4.43,2.95 4.01,3.44 3.59,3.93 3.07,4.30 2.55,4.67 1.95,4.91 1.35,5.15 0.72,5.24 0.08,5.33 -0.55,5.26 -1.19,5.19 -1.79,4.97 -2.40,4.75 -2.93,4.40 -3.47,4.04 -3.90,3.57 -4.33,3.09 -4.64,2.53 -4.95,1.97 -5.11,1.34 -5.28,0.72 -5.29,0.08 -5.30,-0.55 -5.15,-1.18 -5.01,-1.81 -4.72,-2.38 -4.43,-2.95 -4.43,-2.95 L -4.43,-2.95 Z"></path></g><g transform="translate(385.87092487077086 138.68943786621094) rotate(0 0.316986083984375 7.924224853515625)" stroke="none"><path fill="#1e1e1e" d="M 5.19,0 Q 5.19,0 5.26,2.00 5.32,4.00 5.47,6.29 5.62,8.57 6.10,11.84 6.57,15.12 6.53,16.09 6.49,17.05 6.15,17.96 5.80,18.86 5.18,19.61 4.57,20.36 3.74,20.87 2.92,21.38 1.98,21.60 1.03,21.82 0.07,21.73 -0.89,21.63 -1.77,21.24 -2.66,20.84 -3.37,20.19 -4.08,19.53 -4.55,18.68 -5.01,17.83 -5.18,16.88 -5.35,15.92 -5.20,14.96 -5.06,14.01 -4.62,13.14 -4.18,12.28 -3.48,11.61 -2.79,10.93 -1.91,10.51 -1.04,10.09 -0.08,9.98 0.87,9.86 1.82,10.06 2.77,10.25 3.61,10.74 4.45,11.23 5.08,11.96 5.72,12.69 6.09,13.58 6.46,14.48 6.53,15.45 6.59,16.41 6.34,17.35 6.10,18.29 5.56,19.10 5.03,19.90 4.27,20.50 3.50,21.10 2.59,21.42 1.67,21.74 0.71,21.75 -0.25,21.76 -1.17,21.47 -2.10,21.17 -2.88,20.59 -3.65,20.02 -4.21,19.22 -4.76,18.43 -5.03,17.50 -5.31,16.57 -5.31,16.57 -5.31,16.57 -5.46,12.57 -5.62,8.57 -5.47,6.29 -5.32,4.00 -5.26,2.00 -5.19,0 -5.11,-0.62 -5.04,-1.24 -4.82,-1.82 -4.59,-2.41 -4.24,-2.92 -3.88,-3.44 -3.41,-3.85 -2.95,-4.27 -2.39,-4.56 -1.84,-4.85 -1.23,-5.00 -0.62,-5.15 0.00,-5.15 0.62,-5.15 1.23,-5.00 1.84,-4.85 2.39,-4.56 2.95,-4.27 3.41,-3.85 3.88,-3.44 4.24,-2.92 4.59,-2.41 4.82,-1.82 5.04,-1.24 5.11,-0.62 5.19,0.00 5.19,0.00 L 5.19,0 Z"></path></g><g transform="translate(424.5411519215521 77.83137512207031) rotate(0 21.55389404296875 30.429031372070312)" stroke="none"><path fill="#1e1e1e" d="M -2.60,-4.55 Q -2.60,-4.55 -0.03,-5.98 2.53,-7.40 6.80,-9.56 11.06,-11.72 15.42,-13.01 19.79,-14.30 23.66,-14.72 27.53,-15.14 31.16,-14.39 34.79,-13.64 36.57,-12.36 38.34,-11.08 40.34,-7.74 42.34,-4.40 42.59,-1.84 42.83,0.71 42.22,3.93 41.62,7.15 40.96,9.25 40.31,11.35 38.95,14.19 37.58,17.03 36.46,19.18 35.34,21.33 33.37,24.16 31.39,27.00 29.84,29.15 28.30,31.30 25.99,33.89 23.69,36.48 22.09,38.44 20.50,40.41 18.22,42.88 15.94,45.34 14.35,47.29 12.75,49.23 9.95,52.79 7.14,56.34 5.93,58.82 4.73,61.30 7.54,61.88 10.35,62.47 13.39,62.81 16.42,63.15 19.82,63.54 23.22,63.93 26.29,63.71 29.35,63.49 31.46,63.04 33.57,62.59 35.96,61.61 38.34,60.63 39.79,59.78 41.23,58.93 42.23,58.58 43.22,58.23 44.28,58.22 45.34,58.20 46.34,58.52 47.35,58.85 48.20,59.47 49.05,60.10 49.65,60.97 50.26,61.83 50.55,62.85 50.85,63.86 50.81,64.92 50.77,65.97 50.39,66.96 50.01,67.94 49.34,68.76 48.67,69.57 47.77,70.13 46.87,70.69 45.84,70.93 44.81,71.17 43.76,71.07 42.71,70.97 41.75,70.54 40.78,70.11 40.01,69.39 39.23,68.68 38.72,67.75 38.21,66.83 38.03,65.79 37.84,64.75 38.00,63.70 38.16,62.66 38.64,61.72 39.12,60.78 39.88,60.04 40.63,59.30 41.59,58.85 42.54,58.39 43.59,58.26 44.63,58.13 45.67,58.35 46.70,58.56 47.62,59.09 48.53,59.62 49.22,60.42 49.92,61.21 50.32,62.19 50.73,63.17 50.80,64.22 50.87,65.27 50.60,66.29 50.33,67.32 49.75,68.20 49.17,69.08 48.34,69.73 47.51,70.38 47.51,70.38 47.51,70.38 44.15,71.96 40.79,73.55 38.60,74.33 36.41,75.12 33.07,75.62 29.72,76.13 26.11,76.28 22.51,76.43 18.62,75.98 14.73,75.54 11.07,75.00 7.40,74.47 3.51,72.84 -0.36,71.22 -2.90,67.96 -5.44,64.70 -5.82,62.55 -6.19,60.39 -4.97,56.97 -3.74,53.55 -2.41,51.52 -1.08,49.49 1.84,46.03 4.76,42.57 6.45,40.58 8.13,38.60 10.14,36.10 12.15,33.61 13.78,31.62 15.41,29.62 17.26,27.19 19.12,24.76 20.48,22.82 21.85,20.87 24.27,16.50 26.68,12.13 27.63,9.82 28.58,7.52 29.46,4.45 30.35,1.39 29.18,-1.12 28.01,-3.63 24.99,-3.53 21.96,-3.43 18.63,-2.66 15.31,-1.90 11.49,-0.16 7.66,1.57 5.13,3.06 2.60,4.55 2.02,4.80 1.43,5.04 0.81,5.14 0.18,5.24 -0.44,5.19 -1.07,5.13 -1.67,4.93 -2.27,4.73 -2.80,4.39 -3.33,4.05 -3.77,3.59 -4.21,3.13 -4.52,2.58 -4.83,2.03 -5.01,1.42 -5.18,0.81 -5.20,0.18 -5.22,-0.44 -5.10,-1.06 -4.97,-1.68 -4.69,-2.25 -4.42,-2.82 -4.02,-3.31 -3.61,-3.80 -3.11,-4.17 -2.60,-4.55 -2.60,-4.55 L -2.60,-4.55 Z"></path></g><g transform="translate(468.91682330827086 48.03630065917969) rotate(0 11.093902587890625 -1.5848541259765625)" stroke="none"><path fill="#1e1e1e" d="M -0.73,-5.17 Q -0.73,-5.17 1.81,-5.55 4.36,-5.92 7.54,-6.47 10.72,-7.02 13.35,-7.48 15.99,-7.93 18.40,-8.48 20.82,-9.02 21.79,-9.09 22.76,-9.15 23.70,-8.90 24.64,-8.65 25.46,-8.12 26.27,-7.58 26.86,-6.81 27.46,-6.04 27.78,-5.13 28.11,-4.21 28.12,-3.23 28.13,-2.26 27.83,-1.34 27.53,-0.41 26.95,0.36 26.37,1.14 25.57,1.70 24.77,2.25 23.84,2.52 22.90,2.80 21.93,2.75 20.96,2.71 20.05,2.36 19.14,2.01 18.39,1.39 17.64,0.77 17.13,-0.05 16.62,-0.87 16.40,-1.82 16.18,-2.77 16.28,-3.74 16.37,-4.71 16.77,-5.59 17.17,-6.48 17.83,-7.20 18.49,-7.91 19.34,-8.38 20.20,-8.84 21.16,-9.01 22.11,-9.18 23.08,-9.03 24.04,-8.89 24.90,-8.44 25.77,-7.99 26.44,-7.29 27.12,-6.60 27.54,-5.72 27.96,-4.84 28.07,-3.87 28.19,-2.91 27.99,-1.96 27.79,-1.00 27.30,-0.16 26.81,0.67 26.08,1.30 25.34,1.94 24.44,2.31 23.54,2.68 23.54,2.68 23.54,2.68 20.67,3.11 17.80,3.53 15.11,3.74 12.42,3.95 9.13,4.21 5.84,4.47 3.29,4.82 0.73,5.17 0.10,5.18 -0.52,5.20 -1.13,5.06 -1.75,4.92 -2.31,4.64 -2.87,4.36 -3.35,3.95 -3.83,3.54 -4.20,3.03 -4.57,2.52 -4.81,1.94 -5.04,1.35 -5.13,0.73 -5.22,0.10 -5.16,-0.51 -5.10,-1.14 -4.88,-1.73 -4.67,-2.33 -4.33,-2.85 -3.98,-3.38 -3.52,-3.81 -3.05,-4.23 -2.50,-4.54 -1.95,-4.84 -1.34,-5.01 -0.73,-5.17 -0.73,-5.17 L -0.73,-5.17 Z"></path></g><g transform="translate(503.78340045670836 31.553878784179688) rotate(0 8.2412109375 10.459991455078125)" stroke="none"><path fill="#1e1e1e" d="M -2.66,-4.44 Q -2.66,-4.44 -0.87,-5.59 0.91,-6.73 4.09,-8.63 7.28,-10.54 9.87,-11.38 12.46,-12.22 15.35,-11.12 18.24,-10.03 19.71,-7.81 21.18,-5.58 20.75,-3.24 20.32,-0.90 19.13,1.30 17.94,3.50 16.40,5.90 14.87,8.29 13.77,10.31 12.66,12.32 11.64,15.38 10.62,18.43 13.57,19.30 16.52,20.18 17.65,20.37 18.78,20.56 19.78,21.10 20.79,21.64 21.58,22.48 22.36,23.32 22.83,24.36 23.31,25.40 23.43,26.54 23.54,27.68 23.29,28.79 23.04,29.91 22.44,30.89 21.85,31.87 20.97,32.60 20.09,33.34 19.03,33.76 17.96,34.18 16.82,34.23 15.67,34.29 14.57,33.97 13.47,33.66 12.52,33.01 11.58,32.37 10.89,31.45 10.20,30.53 9.85,29.45 9.49,28.36 9.49,27.21 9.50,26.07 9.87,24.99 10.24,23.90 10.94,22.99 11.64,22.09 12.59,21.45 13.54,20.81 14.65,20.51 15.75,20.21 16.90,20.28 18.04,20.35 19.10,20.78 20.16,21.21 21.03,21.96 21.90,22.70 22.48,23.69 23.07,24.67 23.31,25.79 23.55,26.91 23.42,28.05 23.29,29.19 22.80,30.22 22.31,31.26 21.52,32.09 20.73,32.91 19.71,33.45 18.70,33.98 17.57,34.15 16.44,34.33 16.44,34.33 16.44,34.33 13.81,34.28 11.17,34.23 8.97,33.99 6.77,33.75 4.63,32.71 2.49,31.68 0.98,30.01 -0.52,28.34 -1.51,25.90 -2.50,23.46 -2.56,20.58 -2.62,17.71 -1.99,15.12 -1.36,12.53 -0.70,10.35 -0.03,8.17 1.44,5.45 2.92,2.73 4.36,0.74 5.80,-1.24 7.42,-2.76 9.04,-4.28 10.09,-2.01 11.14,0.24 8.76,1.30 6.37,2.36 4.52,3.40 2.66,4.44 2.09,4.70 1.52,4.95 0.91,5.06 0.29,5.17 -0.32,5.13 -0.95,5.09 -1.54,4.90 -2.14,4.72 -2.67,4.39 -3.21,4.07 -3.65,3.62 -4.09,3.18 -4.41,2.64 -4.73,2.11 -4.91,1.51 -5.10,0.91 -5.13,0.29 -5.17,-0.33 -5.05,-0.94 -4.94,-1.55 -4.68,-2.12 -4.42,-2.69 -4.04,-3.18 -3.65,-3.67 -3.16,-4.06 -2.66,-4.44 -2.66,-4.44 L -2.66,-4.44 Z"></path></g><g transform="translate(583.6596211598334 144.39488220214844) rotate(0 -0.000030517578125 9.826034545898438)" stroke="none"><path fill="#1e1e1e" d="M 5.24,-0.43 Q 5.24,-0.43 5.47,1.74 5.70,3.92 5.96,6.25 6.22,8.58 6.12,11.24 6.02,13.90 5.64,17.62 5.27,21.34 4.84,22.24 4.42,23.14 3.73,23.86 3.04,24.57 2.15,25.03 1.27,25.49 0.29,25.64 -0.68,25.79 -1.66,25.62 -2.64,25.45 -3.52,24.98 -4.39,24.51 -5.07,23.78 -5.75,23.05 -6.16,22.14 -6.57,21.24 -6.66,20.25 -6.76,19.26 -6.54,18.29 -6.32,17.32 -5.80,16.47 -5.28,15.63 -4.51,14.99 -3.75,14.35 -2.82,13.99 -1.90,13.63 -0.90,13.59 0.08,13.54 1.04,13.82 1.99,14.09 2.81,14.66 3.63,15.22 4.22,16.02 4.82,16.82 5.13,17.76 5.43,18.71 5.43,19.70 5.42,20.70 5.09,21.64 4.76,22.57 4.16,23.36 3.55,24.15 2.72,24.70 1.89,25.25 0.93,25.51 -0.02,25.76 -1.01,25.70 -2.00,25.64 -2.93,25.26 -3.85,24.88 -4.60,24.23 -5.35,23.58 -5.85,22.73 -6.36,21.87 -6.56,20.90 -6.77,19.92 -6.65,18.94 -6.54,17.95 -6.54,17.95 -6.54,17.95 -6.28,16.85 -6.02,15.75 -5.59,13.41 -5.15,11.06 -5.06,7.94 -4.97,4.81 -5.10,2.62 -5.24,0.43 -5.21,-0.19 -5.19,-0.83 -5.02,-1.44 -4.84,-2.04 -4.53,-2.60 -4.21,-3.15 -3.77,-3.60 -3.33,-4.06 -2.80,-4.40 -2.26,-4.74 -1.66,-4.95 -1.06,-5.15 -0.43,-5.20 0.19,-5.25 0.82,-5.15 1.45,-5.05 2.03,-4.81 2.61,-4.56 3.12,-4.18 3.63,-3.80 4.03,-3.31 4.44,-2.82 4.71,-2.25 4.98,-1.67 5.11,-1.05 5.24,-0.43 5.24,-0.43 L 5.24,-0.43 Z"></path></g><g transform="translate(617.8922871754584 61.98292541503906) rotate(0 19.01812744140625 34.54960632324219)" stroke="none"><path fill="#1e1e1e" d="M -3.02,-4.32 Q -3.02,-4.32 -1.22,-5.63 0.57,-6.95 3.28,-8.38 5.99,-9.81 8.29,-10.83 10.59,-11.86 14.18,-12.99 17.77,-14.12 21.18,-13.95 24.58,-13.77 27.75,-11.64 30.93,-9.51 31.97,-7.12 33.02,-4.73 33.38,-2.20 33.73,0.32 33.48,4.92 33.22,9.52 31.83,14.43 30.44,19.33 28.58,24.08 26.73,28.83 25.89,30.84 25.05,32.84 23.64,35.62 22.22,38.39 19.95,42.90 17.68,47.41 15.42,51.75 13.15,56.09 11.42,59.75 9.70,63.41 8.88,65.79 8.07,68.17 10.89,69.20 13.71,70.22 15.81,69.17 17.91,68.11 20.57,67.02 23.22,65.92 25.62,65.01 28.03,64.11 30.91,63.26 33.79,62.42 35.78,62.28 37.77,62.15 38.89,62.29 40.00,62.43 41.02,62.92 42.03,63.41 42.83,64.19 43.64,64.98 44.15,65.98 44.66,66.98 44.82,68.10 44.98,69.21 44.78,70.32 44.58,71.42 44.04,72.41 43.49,73.39 42.67,74.15 41.84,74.91 40.81,75.37 39.78,75.82 38.66,75.93 37.54,76.03 36.44,75.77 35.35,75.51 34.40,74.91 33.44,74.32 32.73,73.45 32.01,72.58 31.62,71.53 31.22,70.47 31.17,69.35 31.13,68.23 31.45,67.15 31.77,66.07 32.42,65.15 33.07,64.23 33.97,63.56 34.88,62.90 35.95,62.56 37.02,62.21 38.15,62.23 39.27,62.25 40.33,62.63 41.39,63.01 42.28,63.70 43.16,64.40 43.77,65.34 44.39,66.28 44.67,67.37 44.96,68.46 44.88,69.58 44.80,70.70 44.36,71.74 43.93,72.78 43.18,73.62 42.44,74.47 41.47,75.03 40.49,75.60 39.39,75.82 38.29,76.04 38.29,76.04 38.29,76.04 37.05,75.86 35.81,75.69 33.30,76.52 30.79,77.35 28.40,78.32 26.00,79.29 23.74,80.26 21.49,81.22 18.14,82.32 14.79,83.43 12.36,83.67 9.94,83.92 6.48,83.21 3.02,82.50 0.46,80.17 -2.09,77.85 -3.07,74.12 -4.06,70.38 -3.53,67.24 -3.00,64.10 -1.79,61.37 -0.59,58.65 1.38,54.75 3.36,50.84 5.53,46.65 7.70,42.47 9.83,38.00 11.96,33.53 13.09,30.92 14.22,28.32 15.09,26.25 15.95,24.18 16.87,21.86 17.79,19.55 19.08,15.46 20.36,11.37 20.94,7.88 21.52,4.40 21.91,1.18 22.30,-2.03 19.95,-2.45 17.60,-2.86 14.28,-1.62 10.95,-0.37 8.83,0.73 6.71,1.84 4.87,3.08 3.02,4.32 2.46,4.62 1.90,4.92 1.28,5.07 0.67,5.23 0.03,5.24 -0.60,5.24 -1.22,5.09 -1.83,4.94 -2.40,4.65 -2.97,4.36 -3.44,3.94 -3.92,3.52 -4.29,3.00 -4.65,2.48 -4.88,1.89 -5.11,1.29 -5.19,0.66 -5.27,0.03 -5.20,-0.59 -5.13,-1.22 -4.91,-1.82 -4.68,-2.42 -4.33,-2.94 -3.97,-3.47 -3.50,-3.89 -3.02,-4.32 -3.02,-4.32 L -3.02,-4.32 Z"></path></g><g transform="translate(661.0001362965521 37.89326477050781) rotate(0 9.1920166015625 -1.267852783203125)" stroke="none"><path fill="#1e1e1e" d="M -0.46,-5.07 Q -0.46,-5.07 1.53,-5.33 3.53,-5.58 6.76,-6.24 9.99,-6.89 14.22,-7.85 18.45,-8.81 19.38,-8.85 20.32,-8.89 21.21,-8.64 22.11,-8.38 22.88,-7.85 23.65,-7.32 24.20,-6.57 24.76,-5.83 25.05,-4.94 25.35,-4.05 25.34,-3.12 25.33,-2.19 25.03,-1.31 24.72,-0.42 24.15,0.31 23.58,1.04 22.80,1.56 22.03,2.08 21.13,2.32 20.23,2.56 19.29,2.51 18.36,2.45 17.50,2.10 16.63,1.74 15.93,1.13 15.22,0.52 14.75,-0.27 14.27,-1.07 14.08,-1.99 13.89,-2.90 13.99,-3.83 14.10,-4.75 14.50,-5.60 14.90,-6.44 15.55,-7.11 16.19,-7.78 17.02,-8.21 17.85,-8.64 18.77,-8.79 19.69,-8.93 20.61,-8.77 21.53,-8.62 22.35,-8.17 23.17,-7.73 23.81,-7.05 24.45,-6.36 24.83,-5.51 25.22,-4.66 25.31,-3.73 25.40,-2.81 25.20,-1.90 24.99,-0.99 24.50,-0.19 24.01,0.59 23.30,1.19 22.58,1.79 21.71,2.13 20.84,2.47 20.84,2.47 20.84,2.47 16.44,3.21 12.03,3.95 8.25,4.40 4.48,4.85 2.47,4.96 0.46,5.07 -0.15,5.05 -0.76,5.04 -1.35,4.87 -1.95,4.71 -2.48,4.40 -3.02,4.10 -3.46,3.68 -3.91,3.26 -4.25,2.74 -4.58,2.23 -4.78,1.65 -4.98,1.07 -5.04,0.45 -5.09,-0.15 -5.00,-0.76 -4.91,-1.36 -4.67,-1.93 -4.44,-2.50 -4.07,-2.99 -3.71,-3.49 -3.24,-3.88 -2.76,-4.28 -2.21,-4.55 -1.66,-4.81 -1.06,-4.94 -0.46,-5.07 -0.46,-5.07 L -0.46,-5.07 Z"></path></g><g transform="translate(704.7418355153021 16.339370727539062) rotate(0 9.826019287109375 15.214515686035156)" stroke="none"><path fill="#1e1e1e" d="M -3.44,-3.93 Q -3.44,-3.93 -2.03,-5.26 -0.61,-6.59 1.81,-8.31 4.25,-10.03 7.15,-11.04 10.04,-12.05 13.44,-11.91 16.83,-11.77 18.68,-10.51 20.53,-9.25 21.83,-6.68 23.12,-4.11 23.11,-1.98 23.10,0.14 22.51,2.47 21.92,4.80 21.00,6.88 20.08,8.96 18.22,11.45 16.37,13.95 14.45,15.78 12.52,17.60 10.82,14.67 9.12,11.73 12.09,11.79 15.06,11.86 17.20,12.93 19.35,14.01 21.56,15.79 23.76,17.57 25.00,19.63 26.25,21.69 26.81,24.18 27.37,26.67 26.75,30.02 26.14,33.37 24.14,35.78 22.14,38.19 19.61,39.90 17.08,41.61 14.78,42.40 12.48,43.18 10.36,43.50 8.25,43.81 5.33,43.92 2.41,44.03 -2.34,37.92 -7.09,31.81 -6.62,30.72 -6.15,29.63 -5.36,28.76 -4.56,27.88 -3.53,27.30 -2.50,26.72 -1.33,26.50 -0.17,26.28 0.99,26.44 2.16,26.61 3.22,27.13 4.28,27.66 5.12,28.50 5.95,29.34 6.47,30.40 7.00,31.47 7.15,32.64 7.31,33.81 7.08,34.98 6.86,36.14 6.27,37.17 5.68,38.20 4.80,38.98 3.92,39.77 2.83,40.24 1.74,40.70 0.56,40.79 -0.61,40.88 -1.76,40.60 -2.91,40.31 -3.90,39.67 -4.90,39.03 -5.64,38.10 -6.38,37.18 -6.78,36.06 -7.19,34.95 -7.21,33.77 -7.24,32.58 -6.89,31.45 -6.54,30.32 -5.85,29.36 -5.15,28.40 -4.19,27.72 -3.23,27.03 -2.09,26.68 -0.96,26.34 0.21,26.38 1.40,26.41 2.51,26.82 3.62,27.24 4.54,27.98 5.46,28.72 6.09,29.72 6.73,30.72 7.01,31.87 7.29,33.02 7.19,34.20 7.09,35.38 7.09,35.38 7.09,35.38 4.73,32.42 2.36,29.47 4.97,29.48 7.57,29.49 10.13,28.09 12.68,26.69 10.71,25.74 8.75,24.79 6.65,24.35 4.55,23.92 2.60,23.00 0.65,22.08 -0.22,20.07 -1.11,18.06 0.36,13.64 1.84,9.23 3.40,7.75 4.97,6.27 6.51,4.69 8.05,3.11 9.76,1.37 11.46,-0.37 8.95,0.55 6.44,1.48 4.94,2.71 3.44,3.93 2.92,4.29 2.40,4.64 1.81,4.86 1.22,5.08 0.59,5.15 -0.03,5.23 -0.65,5.15 -1.28,5.07 -1.87,4.84 -2.45,4.61 -2.97,4.25 -3.49,3.89 -3.90,3.41 -4.32,2.94 -4.61,2.38 -4.90,1.82 -5.04,1.21 -5.19,0.59 -5.19,-0.03 -5.18,-0.66 -5.03,-1.27 -4.87,-1.88 -4.58,-2.44 -4.28,-2.99 -3.86,-3.46 -3.44,-3.93 -3.44,-3.93 L -3.44,-3.93 Z"></path></g><g transform="translate(763.0641011403021 134.25184631347656) rotate(0 -1.26788330078125 8.55816650390625)" stroke="none"><path fill="#1e1e1e" d="M 5.16,0.46 Q 5.16,0.46 5.05,2.48 4.93,4.49 4.67,6.99 4.40,9.48 3.95,11.93 3.51,14.38 3.51,15.80 3.52,17.22 3.34,18.19 3.16,19.15 2.69,20.01 2.21,20.87 1.49,21.53 0.77,22.19 -0.12,22.58 -1.02,22.98 -1.99,23.07 -2.97,23.15 -3.92,22.93 -4.88,22.70 -5.71,22.18 -6.54,21.66 -7.16,20.90 -7.78,20.14 -8.13,19.22 -8.47,18.30 -8.51,17.32 -8.54,16.34 -8.26,15.41 -7.98,14.47 -7.42,13.66 -6.85,12.86 -6.06,12.29 -5.27,11.71 -4.33,11.41 -3.40,11.11 -2.42,11.13 -1.44,11.15 -0.52,11.48 0.40,11.81 1.17,12.42 1.93,13.03 2.47,13.85 3.00,14.67 3.25,15.62 3.49,16.57 3.42,17.55 3.35,18.52 2.97,19.43 2.59,20.33 1.94,21.07 1.30,21.80 0.45,22.29 -0.39,22.78 -1.35,22.97 -2.32,23.17 -3.29,23.04 -4.26,22.92 -5.14,22.49 -6.02,22.06 -6.72,21.37 -7.42,20.69 -7.86,19.81 -8.31,18.94 -8.45,17.97 -8.59,17.00 -8.59,17.00 -8.59,17.00 -8.44,14.85 -8.29,12.69 -7.66,10.55 -7.03,8.41 -6.35,5.97 -5.66,3.52 -5.41,1.52 -5.16,-0.46 -5.03,-1.08 -4.90,-1.69 -4.63,-2.25 -4.35,-2.81 -3.95,-3.29 -3.55,-3.77 -3.05,-4.14 -2.54,-4.52 -1.97,-4.75 -1.39,-4.99 -0.77,-5.09 -0.15,-5.18 0.46,-5.13 1.08,-5.07 1.68,-4.86 2.27,-4.66 2.79,-4.32 3.32,-3.98 3.75,-3.53 4.18,-3.07 4.48,-2.53 4.79,-1.98 4.96,-1.38 5.13,-0.78 5.14,-0.15 5.16,0.47 5.16,0.47 L 5.16,0.46 Z"></path></g><g transform="translate(796.0289448903021 78.46531677246094) rotate(0 22.18780517578125 26.942367553710938)" stroke="none"><path fill="#1e1e1e" d="M -3.78,-3.78 Q -3.78,-3.78 -2.35,-5.29 -0.92,-6.79 1.03,-8.19 2.99,-9.59 5.31,-10.52 7.62,-11.45 10.96,-12.21 14.29,-12.98 18.48,-12.86 22.66,-12.75 26.03,-11.90 29.41,-11.04 32.42,-8.94 35.44,-6.84 37.41,-3.45 39.37,-0.05 39.63,2.09 39.89,4.24 39.73,6.80 39.57,9.36 39.06,11.58 38.56,13.80 37.72,16.16 36.89,18.51 35.20,22.21 33.52,25.91 32.11,28.17 30.70,30.43 28.15,34.37 25.60,38.30 23.27,41.89 20.94,45.47 19.55,48.25 18.16,51.03 17.44,53.14 16.73,55.24 20.07,54.98 23.41,54.71 26.10,54.46 28.80,54.22 31.49,54.01 34.18,53.79 36.32,53.33 38.45,52.86 40.34,52.35 42.22,51.84 43.31,51.67 44.40,51.49 45.49,51.68 46.58,51.86 47.55,52.38 48.52,52.90 49.28,53.71 50.03,54.51 50.49,55.52 50.95,56.52 51.07,57.62 51.18,58.71 50.94,59.79 50.70,60.87 50.13,61.81 49.55,62.76 48.71,63.47 47.86,64.18 46.84,64.58 45.81,64.99 44.71,65.04 43.61,65.10 42.54,64.80 41.48,64.50 40.57,63.87 39.66,63.25 38.99,62.37 38.33,61.49 37.98,60.44 37.63,59.39 37.64,58.29 37.64,57.19 38.00,56.14 38.36,55.10 39.03,54.22 39.70,53.34 40.62,52.73 41.53,52.11 42.60,51.82 43.66,51.53 44.76,51.60 45.87,51.66 46.89,52.07 47.91,52.49 48.75,53.20 49.59,53.92 50.15,54.87 50.72,55.82 50.95,56.90 51.18,57.98 51.06,59.07 50.94,60.17 50.47,61.17 50.00,62.17 49.24,62.97 48.48,63.77 47.50,64.28 46.52,64.79 46.52,64.79 46.52,64.79 44.32,65.36 42.12,65.92 38.96,66.57 35.79,67.22 32.69,67.46 29.59,67.70 26.40,67.95 23.21,68.20 19.95,68.10 16.69,67.99 13.68,67.36 10.66,66.73 7.67,64.33 4.67,61.93 4.05,58.69 3.42,55.45 4.10,53.38 4.77,51.31 5.99,48.36 7.21,45.41 9.05,42.05 10.89,38.70 13.20,35.04 15.52,31.39 17.73,27.74 19.94,24.08 21.06,22.06 22.19,20.04 23.51,17.24 24.83,14.44 25.78,11.48 26.73,8.52 26.91,5.58 27.09,2.64 25.24,1.09 23.40,-0.44 19.87,-0.91 16.35,-1.37 13.82,-1.04 11.30,-0.71 9.03,0.12 6.75,0.96 5.27,2.37 3.78,3.78 3.27,4.18 2.77,4.58 2.18,4.84 1.59,5.11 0.95,5.23 0.32,5.34 -0.32,5.30 -0.96,5.26 -1.58,5.07 -2.19,4.88 -2.75,4.55 -3.30,4.21 -3.75,3.75 -4.21,3.30 -4.55,2.75 -4.88,2.19 -5.07,1.58 -5.26,0.96 -5.30,0.32 -5.34,-0.32 -5.23,-0.95 -5.11,-1.59 -4.84,-2.18 -4.58,-2.77 -4.18,-3.27 -3.78,-3.78 -3.78,-3.78 L -3.78,-3.78 Z"></path></g><g transform="translate(847.3779439137396 48.67021179199219) rotate(0 9.19207763671875 -0.950897216796875)" stroke="none"><path fill="#1e1e1e" d="M -0.42,-5.07 Q -0.42,-5.07 1.75,-5.31 3.94,-5.55 6.46,-5.83 8.98,-6.11 13.25,-6.87 17.51,-7.62 18.45,-7.61 19.39,-7.60 20.27,-7.29 21.16,-6.98 21.89,-6.40 22.63,-5.83 23.15,-5.05 23.67,-4.26 23.90,-3.36 24.14,-2.45 24.08,-1.52 24.02,-0.58 23.66,0.27 23.30,1.14 22.69,1.85 22.07,2.55 21.26,3.03 20.46,3.50 19.54,3.69 18.62,3.88 17.69,3.77 16.76,3.65 15.91,3.25 15.07,2.85 14.40,2.19 13.72,1.54 13.30,0.71 12.87,-0.12 12.73,-1.04 12.59,-1.97 12.75,-2.89 12.91,-3.81 13.36,-4.64 13.81,-5.46 14.50,-6.10 15.19,-6.73 16.04,-7.11 16.90,-7.50 17.83,-7.59 18.77,-7.68 19.68,-7.46 20.59,-7.25 21.39,-6.76 22.18,-6.26 22.78,-5.54 23.38,-4.82 23.71,-3.95 24.05,-3.07 24.09,-2.13 24.13,-1.20 23.87,-0.30 23.60,0.59 23.07,1.36 22.53,2.13 21.78,2.69 21.03,3.24 20.14,3.53 19.24,3.82 19.24,3.82 19.25,3.82 14.28,4.38 9.32,4.94 7.06,4.88 4.80,4.83 2.61,4.95 0.42,5.07 -0.19,5.04 -0.80,5.02 -1.39,4.85 -1.98,4.68 -2.51,4.38 -3.04,4.07 -3.49,3.65 -3.93,3.22 -4.26,2.71 -4.59,2.19 -4.78,1.61 -4.98,1.03 -5.03,0.41 -5.08,-0.19 -4.98,-0.79 -4.89,-1.40 -4.65,-1.96 -4.41,-2.53 -4.04,-3.02 -3.68,-3.51 -3.20,-3.90 -2.73,-4.29 -2.17,-4.56 -1.62,-4.82 -1.02,-4.94 -0.42,-5.07 -0.42,-5.07 L -0.42,-5.07 Z"></path></g><g transform="translate(899.9947652028021 18.241195678710938) rotate(0 -2.5357666015625 19.335098266601562)" stroke="none"><path fill="#1e1e1e" d="M 0,5.23 Q 0,5.23 -1.25,5.31 -2.51,5.39 -3.16,7.73 -3.82,10.06 -4.37,12.20 -4.92,14.34 -2.75,14.89 -0.58,15.44 4.40,14.99 9.38,14.54 11.03,16.62 12.68,18.70 12.80,20.99 12.92,23.28 12.96,25.97 12.99,28.65 13.30,31.62 13.61,34.59 13.65,37.25 13.69,39.91 13.50,41.09 13.31,42.26 12.76,43.32 12.20,44.37 11.34,45.19 10.48,46.01 9.40,46.51 8.32,47.02 7.14,47.15 5.96,47.28 4.79,47.03 3.63,46.77 2.61,46.16 1.59,45.55 0.81,44.65 0.04,43.74 -0.39,42.64 -0.84,41.53 -0.90,40.34 -0.97,39.16 -0.65,38.01 -0.34,36.86 0.32,35.87 0.98,34.89 1.93,34.17 2.87,33.44 4.00,33.06 5.13,32.68 6.32,32.67 7.51,32.67 8.63,33.05 9.76,33.43 10.71,34.14 11.66,34.86 12.33,35.84 13.00,36.83 13.32,37.97 13.64,39.12 13.58,40.31 13.52,41.50 13.08,42.60 12.65,43.71 11.88,44.62 11.11,45.53 10.09,46.14 9.07,46.76 7.91,47.02 6.75,47.28 5.57,47.15 4.38,47.03 3.30,46.53 2.22,46.03 1.36,45.21 0.49,44.40 -0.06,43.35 -0.62,42.30 -0.82,41.12 -1.01,39.95 -1.01,39.95 -1.01,39.95 -1.04,36.61 -1.07,33.26 -1.32,30.19 -1.56,27.12 -0.11,25.45 1.33,23.78 5.88,23.55 10.42,23.32 8.42,25.25 6.42,27.18 4.13,28.12 1.84,29.06 -0.45,29.33 -2.76,29.59 -5.01,29.18 -7.26,28.77 -9.37,27.72 -11.47,26.67 -13.76,23.86 -16.06,21.06 -16.69,18.55 -17.33,16.03 -17.14,12.97 -16.95,9.90 -16.16,7.91 -15.37,5.92 -14.04,3.44 -12.71,0.95 -10.73,-0.99 -8.75,-2.93 -5.67,-4.16 -2.59,-5.39 -1.29,-5.31 0,-5.23 0.62,-5.15 1.25,-5.07 1.84,-4.85 2.43,-4.63 2.94,-4.27 3.46,-3.91 3.88,-3.44 4.30,-2.97 4.59,-2.41 4.89,-1.85 5.04,-1.24 5.19,-0.63 5.19,0.00 5.19,0.63 5.04,1.24 4.89,1.85 4.59,2.41 4.30,2.97 3.88,3.44 3.46,3.91 2.94,4.27 2.43,4.63 1.84,4.85 1.25,5.07 0.62,5.15 -0.00,5.23 -0.00,5.23 L 0,5.23 Z"></path></g><g transform="translate(162.14521135602655 482.651490876749) rotate(0 -16.301313127790166 28.0743408203125)" stroke="none"><path fill="#1e1e1e" d="M -3.41,4.09 Q -3.41,4.09 -5.01,2.83 -6.60,1.57 -8.95,0.11 -11.30,-1.35 -14.81,-1.70 -18.32,-2.04 -21.85,-0.86 -25.37,0.32 -27.80,2.47 -30.23,4.61 -33.20,8.32 -36.16,12.03 -37.30,14.14 -38.44,16.26 -39.81,19.27 -41.19,22.28 -41.95,24.61 -42.71,26.94 -43.12,30.01 -43.53,33.09 -43.36,35.34 -43.20,37.60 -42.78,40.76 -42.35,43.93 -40.78,47.54 -39.21,51.15 -36.18,53.72 -33.15,56.28 -31.08,57.11 -29.02,57.94 -24.66,58.18 -20.30,58.43 -18.16,58.13 -16.03,57.83 -13.60,56.72 -11.17,55.61 -9.42,54.36 -7.67,53.12 -5.14,51.03 -2.60,48.95 -0.75,47.15 1.09,45.35 3.02,42.88 4.95,40.41 6.22,38.28 7.48,36.16 8.46,33.37 9.43,30.58 10.07,28.21 10.71,25.85 10.68,23.34 10.65,20.83 10.26,17.48 9.86,14.14 8.36,11.85 6.86,9.56 4.09,9.12 1.32,8.69 -1.28,9.86 -3.89,11.04 -4.36,11.80 -4.83,12.56 -5.64,13.12 -6.46,13.68 -7.41,13.95 -8.36,14.22 -9.34,14.17 -10.33,14.12 -11.25,13.76 -12.17,13.40 -12.93,12.76 -13.69,12.13 -14.20,11.28 -14.71,10.44 -14.93,9.47 -15.15,8.51 -15.05,7.53 -14.95,6.54 -14.54,5.64 -14.13,4.74 -13.45,4.02 -12.78,3.30 -11.90,2.83 -11.03,2.37 -10.06,2.20 -9.08,2.04 -8.11,2.19 -7.13,2.35 -6.26,2.80 -5.38,3.26 -4.70,3.98 -4.01,4.69 -3.59,5.58 -3.17,6.48 -3.06,7.46 -2.95,8.44 -3.16,9.41 -3.36,10.38 -3.87,11.23 -4.37,12.08 -5.12,12.72 -5.87,13.36 -6.79,13.73 -7.71,14.11 -8.69,14.16 -9.68,14.22 -10.63,13.96 -11.59,13.70 -12.41,13.15 -13.23,12.60 -13.83,11.82 -14.43,11.04 -14.75,10.10 -15.08,9.17 -15.08,8.18 -15.09,7.19 -14.77,6.25 -14.46,5.31 -13.87,4.52 -13.28,3.73 -13.28,3.73 -13.28,3.73 -9.65,1.37 -6.02,-0.99 -1.78,-1.83 2.45,-2.67 4.95,-2.30 7.45,-1.92 9.58,-0.98 11.72,-0.03 14.77,3.59 17.83,7.21 19.02,11.97 20.22,16.74 20.09,18.86 19.97,20.99 19.83,24.73 19.70,28.46 18.86,30.99 18.02,33.51 16.74,37.32 15.46,41.13 13.89,43.51 12.31,45.89 9.99,49.12 7.66,52.35 5.65,54.17 3.63,55.98 0.73,58.72 -2.17,61.45 -4.62,62.98 -7.08,64.51 -10.88,66.24 -14.68,67.97 -17.40,68.24 -20.12,68.51 -23.97,68.60 -27.83,68.68 -30.43,68.00 -33.04,67.31 -36.19,65.88 -39.35,64.44 -41.53,62.65 -43.70,60.85 -46.05,58.04 -48.41,55.24 -49.27,53.00 -50.13,50.77 -50.91,48.13 -51.70,45.49 -52.41,41.76 -53.12,38.04 -53.18,35.11 -53.24,32.17 -52.96,27.94 -52.67,23.70 -51.79,21.09 -50.91,18.48 -49.66,14.77 -48.42,11.06 -47.05,8.37 -45.68,5.69 -43.81,2.71 -41.94,-0.27 -40.14,-2.30 -38.35,-4.32 -36.19,-6.34 -34.03,-8.35 -30.36,-10.26 -26.70,-12.18 -22.19,-13.06 -17.68,-13.95 -13.51,-13.35 -9.33,-12.76 -7.29,-11.89 -5.26,-11.01 -2.45,-8.90 0.36,-6.78 1.88,-5.44 3.41,-4.09 3.85,-3.62 4.29,-3.16 4.61,-2.60 4.92,-2.04 5.10,-1.42 5.27,-0.80 5.29,-0.15 5.31,0.48 5.17,1.11 5.04,1.74 4.76,2.31 4.47,2.89 4.06,3.39 3.65,3.88 3.13,4.26 2.62,4.64 2.02,4.89 1.43,5.13 0.79,5.23 0.16,5.33 -0.47,5.27 -1.11,5.21 -1.72,5.00 -2.33,4.79 -2.87,4.44 -3.41,4.09 -3.41,4.09 L -3.41,4.09 Z"></path></g><g transform="translate(194.74783761160688 529.7439504191598) rotate(0 -1.8113490513392776 11.773158482142833)" stroke="none"><path fill="#1e1e1e" d="M 5.06,0.38 Q 5.06,0.38 4.70,3.76 4.33,7.14 3.99,9.80 3.65,12.46 3.31,15.38 2.96,18.30 2.37,21.85 1.78,25.41 1.35,26.22 0.91,27.04 0.23,27.67 -0.44,28.30 -1.28,28.69 -2.12,29.07 -3.05,29.16 -3.97,29.26 -4.87,29.05 -5.77,28.84 -6.56,28.36 -7.35,27.88 -7.95,27.17 -8.54,26.46 -8.88,25.60 -9.22,24.73 -9.26,23.81 -9.30,22.88 -9.05,21.99 -8.80,21.10 -8.27,20.34 -7.75,19.57 -7.00,19.02 -6.26,18.46 -5.38,18.17 -4.50,17.89 -3.58,17.89 -2.65,17.90 -1.78,18.20 -0.90,18.50 -0.17,19.07 0.56,19.63 1.07,20.40 1.59,21.17 1.83,22.07 2.07,22.96 2.01,23.89 1.95,24.81 1.61,25.67 1.26,26.53 0.65,27.23 0.05,27.93 -0.74,28.40 -1.54,28.88 -2.44,29.07 -3.35,29.26 -4.27,29.15 -5.19,29.05 -6.03,28.65 -6.86,28.26 -7.53,27.61 -8.20,26.97 -8.63,26.15 -9.06,25.33 -9.20,24.41 -9.34,23.50 -9.19,22.59 -9.03,21.67 -9.03,21.67 -9.03,21.68 -8.62,20.92 -8.22,20.16 -7.82,17.96 -7.42,15.77 -6.80,13.38 -6.18,10.99 -5.78,8.69 -5.38,6.39 -5.22,3.00 -5.06,-0.38 -4.94,-0.99 -4.82,-1.59 -4.56,-2.14 -4.30,-2.69 -3.91,-3.17 -3.53,-3.65 -3.04,-4.02 -2.55,-4.39 -1.99,-4.63 -1.43,-4.87 -0.82,-4.97 -0.22,-5.07 0.38,-5.02 0.99,-4.98 1.57,-4.79 2.16,-4.59 2.67,-4.27 3.19,-3.94 3.62,-3.50 4.05,-3.06 4.35,-2.53 4.66,-2.00 4.83,-1.42 5.01,-0.83 5.03,-0.22 5.06,0.39 5.06,0.39 L 5.06,0.38 Z"></path></g><g transform="translate(225.53885323660688 479.02887996715083) rotate(0 13.584420340401806 29.885646275111583)" stroke="none"><path fill="#1e1e1e" d="M 4.57,2.61 Q 4.57,2.61 3.58,4.46 2.59,6.31 1.62,8.60 0.65,10.89 2.88,12.89 5.11,14.90 7.91,16.64 10.72,18.38 14.89,20.63 19.06,22.87 21.00,23.96 22.93,25.06 25.34,26.67 27.74,28.28 29.68,30.00 31.63,31.73 33.19,33.79 34.75,35.85 36.19,40.22 37.63,44.59 36.18,48.94 34.72,53.30 30.90,56.80 27.09,60.30 22.75,62.10 18.41,63.91 15.16,64.77 11.92,65.63 9.28,65.50 6.64,65.37 3.39,64.38 0.13,63.38 -2.72,60.78 -5.58,58.17 -6.76,55.63 -7.95,53.08 -8.16,52.04 -8.38,51.00 -8.25,49.94 -8.13,48.88 -7.67,47.92 -7.21,46.96 -6.47,46.19 -5.73,45.43 -4.79,44.94 -3.84,44.45 -2.79,44.29 -1.74,44.13 -0.69,44.31 0.35,44.50 1.29,45.00 2.22,45.51 2.95,46.29 3.67,47.07 4.11,48.05 4.54,49.02 4.65,50.08 4.75,51.14 4.51,52.17 4.27,53.21 3.71,54.12 3.15,55.02 2.34,55.70 1.52,56.38 0.52,56.77 -0.46,57.15 -1.52,57.20 -2.59,57.24 -3.61,56.95 -4.63,56.65 -5.51,56.05 -6.38,55.44 -7.02,54.58 -7.65,53.73 -7.98,52.72 -8.31,51.71 -8.30,50.64 -8.29,49.58 -7.94,48.57 -7.59,47.57 -6.93,46.72 -6.28,45.88 -5.39,45.30 -4.51,44.71 -3.48,44.43 -2.45,44.16 -1.38,44.23 -0.32,44.30 0.65,44.70 1.64,45.11 2.44,45.81 3.25,46.50 3.78,47.42 4.32,48.34 4.32,48.34 4.32,48.34 4.83,49.78 5.34,51.21 7.59,52.23 9.84,53.26 12.45,52.64 15.06,52.03 17.68,51.02 20.31,50.01 22.16,48.60 24.02,47.18 24.61,44.89 25.20,42.61 23.36,40.28 21.52,37.96 17.63,35.63 13.73,33.30 11.28,32.11 8.82,30.93 6.81,29.87 4.81,28.80 2.35,27.42 -0.09,26.03 -2.96,23.43 -5.83,20.83 -8.09,16.02 -10.35,11.21 -10.11,9.05 -9.87,6.90 -8.31,3.93 -6.75,0.97 -5.66,-0.82 -4.57,-2.61 -4.19,-3.12 -3.81,-3.63 -3.32,-4.04 -2.83,-4.44 -2.26,-4.71 -1.69,-4.99 -1.06,-5.12 -0.44,-5.25 0.18,-5.23 0.82,-5.20 1.43,-5.03 2.04,-4.86 2.59,-4.54 3.14,-4.22 3.60,-3.79 4.07,-3.35 4.41,-2.81 4.75,-2.28 4.95,-1.67 5.16,-1.07 5.21,-0.44 5.26,0.18 5.17,0.81 5.07,1.44 4.82,2.03 4.57,2.61 4.57,2.61 L 4.57,2.61 Z"></path></g><g transform="translate(230.97272600446405 472.68950705978466) rotate(0 26.263166155133916 -1.3584245954240828)" stroke="none"><path fill="#1e1e1e" d="M -1.11,-5.03 Q -1.11,-5.03 1.21,-5.59 3.55,-6.15 8.26,-6.96 12.97,-7.77 16.84,-8.02 20.71,-8.27 23.35,-8.26 26.00,-8.26 28.16,-8.29 30.31,-8.33 33.09,-8.05 35.86,-7.76 39.90,-7.40 43.94,-7.04 47.13,-6.67 50.32,-6.30 51.84,-6.14 53.36,-5.97 54.29,-5.68 55.23,-5.39 56.02,-4.82 56.81,-4.25 57.37,-3.45 57.94,-2.66 58.22,-1.72 58.51,-0.79 58.48,0.18 58.45,1.16 58.11,2.07 57.77,2.99 57.15,3.75 56.54,4.51 55.71,5.03 54.88,5.55 53.94,5.78 52.99,6.01 52.01,5.93 51.04,5.85 50.14,5.46 49.25,5.07 48.52,4.41 47.80,3.76 47.32,2.91 46.85,2.05 46.67,1.09 46.49,0.13 46.62,-0.82 46.76,-1.79 47.19,-2.66 47.63,-3.54 48.33,-4.23 49.02,-4.91 49.90,-5.34 50.77,-5.77 51.74,-5.90 52.71,-6.03 53.67,-5.84 54.63,-5.65 55.48,-5.17 56.32,-4.68 56.97,-3.96 57.62,-3.23 58.00,-2.33 58.39,-1.43 58.46,-0.45 58.54,0.51 58.30,1.46 58.06,2.40 57.53,3.22 57.00,4.05 56.23,4.65 55.47,5.26 54.55,5.60 53.63,5.93 52.66,5.95 51.68,5.97 51.68,5.97 51.68,5.97 49.88,5.67 48.07,5.37 45.17,4.85 42.27,4.33 38.48,3.85 34.70,3.38 32.52,3.15 30.34,2.91 28.20,2.89 26.06,2.87 23.50,2.91 20.94,2.95 17.38,2.94 13.82,2.94 9.82,3.51 5.82,4.07 3.47,4.55 1.11,5.03 0.50,5.10 -0.11,5.16 -0.73,5.07 -1.35,4.98 -1.92,4.74 -2.50,4.51 -3.00,4.14 -3.51,3.78 -3.91,3.30 -4.31,2.83 -4.59,2.27 -4.86,1.71 -5.00,1.11 -5.13,0.50 -5.12,-0.11 -5.10,-0.74 -4.94,-1.34 -4.78,-1.94 -4.48,-2.48 -4.18,-3.02 -3.75,-3.48 -3.33,-3.94 -2.81,-4.28 -2.29,-4.62 -1.70,-4.83 -1.11,-5.03 -1.11,-5.03 L -1.11,-5.03 Z"></path></g><g transform="translate(10 599.4771831898072) rotate(0 153.50359235491072 -4.0753173828125)" stroke="none"><path fill="#1e1e1e" d="M 0,-3.51 Q 0,-3.51 3.90,-3.47 7.81,-3.44 10.77,-3.57 13.73,-3.71 17.85,-3.60 21.97,-3.48 25.29,-3.56 28.60,-3.65 31.83,-3.72 35.07,-3.80 40.08,-3.64 45.10,-3.48 49.32,-3.38 53.53,-3.27 59.42,-3.44 65.31,-3.61 70.22,-3.66 75.13,-3.71 81.86,-3.96 88.59,-4.22 94.03,-4.58 99.47,-4.93 106.76,-5.34 114.06,-5.74 119.53,-5.90 125.00,-6.07 132.24,-6.39 139.48,-6.72 144.87,-7.11 150.26,-7.50 154.96,-7.67 159.66,-7.84 166.30,-8.16 172.95,-8.49 177.82,-8.89 182.70,-9.28 189.02,-9.45 195.35,-9.63 199.84,-9.70 204.34,-9.77 209.58,-10.06 214.82,-10.35 218.65,-10.57 222.49,-10.79 227.00,-10.81 231.52,-10.84 234.85,-10.77 238.19,-10.70 241.83,-10.66 245.46,-10.62 248.07,-10.77 250.67,-10.91 254.00,-10.71 257.33,-10.51 259.66,-10.55 262.00,-10.59 265.03,-10.59 268.07,-10.60 273.08,-10.49 278.08,-10.39 281.47,-10.46 284.86,-10.53 288.15,-10.67 291.44,-10.81 294.62,-10.94 297.81,-11.06 299.95,-11.18 302.08,-11.29 304.09,-11.30 306.10,-11.31 306.80,-11.23 307.51,-11.14 308.17,-10.89 308.83,-10.64 309.42,-10.24 310.00,-9.83 310.47,-9.30 310.94,-8.77 311.27,-8.14 311.60,-7.51 311.77,-6.82 311.94,-6.14 311.94,-5.43 311.94,-4.72 311.77,-4.03 311.60,-3.34 311.27,-2.71 310.94,-2.08 310.47,-1.55 310.00,-1.02 309.41,-0.62 308.83,-0.22 308.17,0.02 307.50,0.28 306.80,0.36 306.09,0.45 308.35,-0.59 310.60,-1.64 309.88,-1.02 309.16,-0.40 308.27,-0.05 307.39,0.30 306.44,0.36 305.49,0.41 304.57,0.16 303.65,-0.08 302.86,-0.61 302.07,-1.14 301.49,-1.89 300.91,-2.65 300.60,-3.55 300.29,-4.45 300.29,-5.40 300.29,-6.35 300.58,-7.26 300.88,-8.16 301.46,-8.92 302.03,-9.68 302.81,-10.22 303.60,-10.76 304.52,-11.02 305.43,-11.28 306.38,-11.23 307.33,-11.18 308.22,-10.83 309.11,-10.49 309.83,-9.87 310.56,-9.26 311.06,-8.45 311.55,-7.63 311.76,-6.71 311.97,-5.78 311.87,-4.83 311.77,-3.88 311.38,-3.02 310.98,-2.15 310.33,-1.46 309.68,-0.76 308.84,-0.31 308.00,0.13 307.06,0.29 306.13,0.45 305.19,0.30 304.25,0.15 303.40,-0.29 302.56,-0.73 301.90,-1.41 301.24,-2.10 300.84,-2.96 300.43,-3.83 300.33,-4.77 300.22,-5.72 300.42,-6.65 300.62,-7.58 303.36,-9.45 306.10,-11.31 306.80,-11.23 307.51,-11.14 308.17,-10.89 308.83,-10.64 309.42,-10.24 310.00,-9.83 310.47,-9.30 310.94,-8.77 311.27,-8.14 311.60,-7.51 311.77,-6.83 311.94,-6.14 311.94,-5.43 311.94,-4.72 311.77,-4.03 311.60,-3.34 311.27,-2.71 310.94,-2.08 310.47,-1.55 310.00,-1.02 309.41,-0.62 308.83,-0.22 308.17,0.02 307.50,0.28 306.80,0.36 306.09,0.45 304.16,0.43 302.22,0.42 300.01,0.31 297.80,0.19 294.58,0.05 291.37,-0.08 287.96,-0.28 284.56,-0.47 280.87,-0.87 277.18,-1.26 272.56,-1.74 267.93,-2.22 264.76,-2.32 261.60,-2.43 259.13,-2.70 256.67,-2.98 253.61,-3.34 250.55,-3.70 247.92,-3.93 245.29,-4.16 241.51,-4.32 237.73,-4.48 234.65,-4.89 231.58,-5.30 227.13,-5.22 222.67,-5.14 218.89,-5.11 215.11,-5.09 209.76,-4.79 204.42,-4.50 199.96,-4.42 195.49,-4.35 189.31,-4.18 183.13,-4.01 178.17,-3.60 173.21,-3.19 166.53,-2.85 159.85,-2.51 155.25,-2.34 150.65,-2.16 145.19,-1.75 139.73,-1.33 132.45,-0.98 125.18,-0.63 119.78,-0.43 114.38,-0.23 107.12,0.21 99.87,0.66 94.36,1.08 88.85,1.51 82.06,1.87 75.27,2.22 70.43,2.39 65.58,2.57 59.56,2.92 53.53,3.27 49.32,3.38 45.10,3.48 40.08,3.64 35.07,3.80 31.83,3.72 28.60,3.65 25.29,3.56 21.97,3.48 17.85,3.60 13.73,3.71 10.77,3.57 7.81,3.44 3.90,3.47 0,3.51 -0.42,3.46 -0.84,3.41 -1.23,3.26 -1.63,3.11 -1.98,2.86 -2.32,2.62 -2.61,2.31 -2.89,1.99 -3.08,1.62 -3.28,1.24 -3.38,0.83 -3.48,0.42 -3.48,-0.00 -3.48,-0.42 -3.38,-0.83 -3.28,-1.24 -3.08,-1.62 -2.89,-1.99 -2.60,-2.31 -2.32,-2.62 -1.98,-2.87 -1.63,-3.11 -1.23,-3.26 -0.84,-3.41 -0.41,-3.46 0.00,-3.51 0.00,-3.51 L 0,-3.51 Z"></path></g></svg>