<svg version="1.1" xmlns="http://www.w3.org/2000/svg" viewBox="0 0 670.83349609375 355" width="670.83349609375" height="355" class="excalidraw-svg"><!-- svg-source:excalidraw --><metadata></metadata><defs><style class="style-fonts">
      </style></defs><g stroke-linecap="round"><g transform="translate(310 310) rotate(0 0 -150)"><path d="M0 0 C0 -89.99, 0 -179.99, 0 -300 M0 0 C0 -94.79, 0 -189.58, 0 -300" stroke="#1e1e1e" stroke-width="4" fill="none"></path></g><g transform="translate(310 310) rotate(0 0 -150)"><path d="M0 -300 L6.34 -286.41 L-6.34 -286.41 L0 -300" stroke="none" stroke-width="0" fill="#1e1e1e" fill-rule="evenodd"></path><path d="M0 -300 C1.9 -295.92, 3.8 -291.84, 6.34 -286.41 M0 -300 C2 -295.7, 4.01 -291.41, 6.34 -286.41 M6.34 -286.41 C3.58 -286.41, 0.82 -286.41, -6.34 -286.41 M6.34 -286.41 C3.69 -286.41, 1.04 -286.41, -6.34 -286.41 M-6.34 -286.41 C-4.2 -291, -2.05 -295.6, 0 -300 M-6.34 -286.41 C-3.95 -291.52, -1.57 -296.64, 0 -300 M0 -300 C0 -300, 0 -300, 0 -300 M0 -300 C0 -300, 0 -300, 0 -300" stroke="#1e1e1e" stroke-width="4" fill="none"></path></g></g><mask></mask><g stroke-linecap="round"><g transform="translate(10 310) rotate(0 300 0)"><path d="M0 0 C175.17 0, 350.33 0, 600 0 M0 0 C148.07 0, 296.14 0, 600 0" stroke="#1e1e1e" stroke-width="4" fill="none"></path></g><g transform="translate(10 310) rotate(0 300 0)"><path d="M0 0 L13.59 -6.34 L13.59 6.34 L0 0" stroke="none" stroke-width="0" fill="#1e1e1e" fill-rule="evenodd"></path><path d="M0 0 C3.97 -1.85, 7.94 -3.7, 13.59 -6.34 M0 0 C3.35 -1.56, 6.71 -3.13, 13.59 -6.34 M13.59 -6.34 C13.59 -2.35, 13.59 1.63, 13.59 6.34 M13.59 -6.34 C13.59 -3.32, 13.59 -0.29, 13.59 6.34 M13.59 6.34 C10.02 4.67, 6.44 3, 0 0 M13.59 6.34 C10.73 5, 7.86 3.67, 0 0 M0 0 C0 0, 0 0, 0 0 M0 0 C0 0, 0 0, 0 0" stroke="#1e1e1e" stroke-width="4" fill="none"></path></g><g transform="translate(10 310) rotate(0 300 0)"><path d="M600 0 L586.41 6.34 L586.41 -6.34 L600 0" stroke="none" stroke-width="0" fill="#1e1e1e" fill-rule="evenodd"></path><path d="M600 0 C596.03 1.85, 592.06 3.7, 586.41 6.34 M600 0 C596.65 1.56, 593.29 3.13, 586.41 6.34 M586.41 6.34 C586.41 2.35, 586.41 -1.63, 586.41 -6.34 M586.41 6.34 C586.41 3.32, 586.41 0.29, 586.41 -6.34 M586.41 -6.34 C589.98 -4.67, 593.56 -3, 600 0 M586.41 -6.34 C589.27 -5, 592.14 -3.67, 600 0 M600 0 C600 0, 600 0, 600 0 M600 0 C600 0, 600 0, 600 0" stroke="#1e1e1e" stroke-width="4" fill="none"></path></g></g><mask></mask><g stroke-linecap="round"><g transform="translate(10 110) rotate(0 300 0)"><path d="M0 0 C100 0, 500 0, 600 0 M0 0 C100 0, 500 0, 600 0" stroke="#2f9e44" stroke-width="4" fill="none"></path></g></g><mask></mask><g stroke-linecap="round"><g transform="translate(110 110) rotate(0 200 100)"><path d="M0 0 C33.33 33.33, 133.33 200, 200 200 C266.67 200, 366.67 33.33, 400 0 M0 0 C33.33 33.33, 133.33 200, 200 200 C266.67 200, 366.67 33.33, 400 0" stroke="#1971c2" stroke-width="4" fill="none"></path></g></g><mask></mask><g transform="translate(345.08447265625 182.786376953125) rotate(0 1.25 18.333343505859375)" stroke="none"><path fill="#1e1e1e" d="M -1.95,0 Q -1.95,0 -2.00,-1.43 -2.05,-2.87 -2.10,-3.24 -2.15,-3.61 -2.12,-3.87 -2.09,-4.13 -2.00,-4.37 -1.90,-4.61 -1.76,-4.83 -1.61,-5.04 -1.41,-5.22 -1.22,-5.39 -0.99,-5.51 -0.76,-5.63 -0.51,-5.69 -0.25,-5.75 0.00,-5.75 0.26,-5.75 0.51,-5.69 0.76,-5.63 0.99,-5.51 1.22,-5.39 1.41,-5.21 1.61,-5.04 1.76,-4.83 1.90,-4.61 2.00,-4.37 2.09,-4.13 2.12,-3.87 2.15,-3.61 2.22,-2.44 2.28,-1.26 2.33,-0.18 2.38,0.89 2.48,5.13 2.58,9.36 2.58,12.17 2.57,14.98 2.77,17.79 2.98,20.60 3.04,22.81 3.11,25.03 3.12,27.17 3.13,29.32 3.35,31.35 3.58,33.37 3.67,35.77 3.77,38.16 3.53,40.07 3.29,41.98 3.20,42.23 3.10,42.48 2.94,42.69 2.77,42.90 2.54,43.04 2.31,43.19 2.05,43.25 1.79,43.32 1.52,43.29 1.26,43.27 1.01,43.16 0.76,43.06 0.57,42.88 0.37,42.70 0.23,42.46 0.10,42.23 0.05,41.97 0.00,41.70 0.04,41.44 0.08,41.17 0.20,40.93 0.32,40.69 0.51,40.50 0.70,40.31 0.94,40.19 1.18,40.07 1.44,40.04 1.71,40.00 1.97,40.05 2.24,40.11 2.47,40.24 2.70,40.37 2.88,40.57 3.06,40.77 3.17,41.02 3.27,41.27 3.29,41.53 3.31,41.80 3.25,42.06 3.18,42.32 3.04,42.55 2.89,42.77 2.68,42.94 2.47,43.11 2.22,43.20 1.97,43.29 1.70,43.30 1.43,43.30 1.18,43.23 0.92,43.15 0.70,42.99 0.49,42.83 0.33,42.61 0.17,42.39 0.10,42.14 0.02,41.88 0.03,41.61 0.03,41.34 0.03,41.34 0.03,41.35 0.46,39.81 0.90,38.28 0.77,36.01 0.64,33.74 0.34,31.57 0.05,29.40 -0.04,27.30 -0.13,25.20 -0.30,23.07 -0.48,20.94 -0.84,18.03 -1.21,15.12 -1.42,12.36 -1.62,9.60 -2.00,5.25 -2.38,0.90 -2.33,-0.18 -2.28,-1.26 -2.22,-2.44 -2.15,-3.61 -2.12,-3.87 -2.09,-4.13 -2.00,-4.37 -1.90,-4.61 -1.76,-4.83 -1.61,-5.04 -1.41,-5.21 -1.22,-5.39 -0.99,-5.51 -0.76,-5.63 -0.51,-5.69 -0.26,-5.75 -0.00,-5.75 0.25,-5.75 0.51,-5.69 0.76,-5.63 0.99,-5.51 1.22,-5.39 1.41,-5.22 1.61,-5.04 1.76,-4.83 1.90,-4.61 2.00,-4.37 2.09,-4.13 2.12,-3.87 2.15,-3.61 2.10,-3.24 2.05,-2.87 2.00,-1.43 1.95,0 1.92,0.23 1.89,0.46 1.81,0.68 1.72,0.90 1.59,1.10 1.46,1.29 1.28,1.45 1.10,1.60 0.90,1.71 0.69,1.82 0.46,1.88 0.23,1.93 -0.00,1.93 -0.23,1.93 -0.46,1.88 -0.69,1.82 -0.90,1.71 -1.10,1.60 -1.28,1.45 -1.46,1.29 -1.59,1.10 -1.72,0.90 -1.81,0.68 -1.89,0.46 -1.92,0.23 -1.95,-0.00 -1.95,-0.00 L -1.95,0 Z"></path></g><g transform="translate(337.58447265625 184.45306396484375) rotate(0 21.24993896484375 12.499984741210938)" stroke="none"><path fill="#1e1e1e" d="M -1.36,1.81 Q -1.36,1.81 -2.35,1.12 -3.34,0.44 -4.23,-0.50 -5.11,-1.45 -5.85,-3.39 -6.59,-5.33 -6.34,-6.53 -6.09,-7.73 -4.94,-8.97 -3.79,-10.22 -2.57,-10.79 -1.35,-11.37 1.61,-11.85 4.59,-12.32 7.68,-12.22 10.78,-12.12 12.83,-11.82 14.89,-11.52 17.47,-10.83 20.06,-10.14 21.97,-9.35 23.88,-8.56 26.35,-7.20 28.83,-5.84 30.61,-4.79 32.38,-3.73 34.57,-2.29 36.76,-0.84 38.29,0.53 39.82,1.91 41.40,3.74 42.98,5.57 44.00,6.80 45.01,8.03 45.95,9.87 46.88,11.71 47.38,13.31 47.88,14.91 48.06,16.87 48.25,18.83 48.14,20.31 48.03,21.79 47.15,23.60 46.26,25.40 45.41,26.66 44.56,27.93 43.72,28.99 42.88,30.04 41.11,31.28 39.34,32.52 37.84,33.34 36.34,34.15 33.90,34.90 31.46,35.64 29.49,36.18 27.51,36.72 24.84,36.93 22.18,37.14 20.37,37.27 18.56,37.40 16.33,37.39 14.10,37.38 12.54,37.23 10.97,37.09 8.75,37.02 6.52,36.96 6.21,36.89 5.90,36.82 5.63,36.65 5.36,36.48 5.16,36.23 4.95,35.98 4.84,35.69 4.73,35.39 4.72,35.07 4.70,34.75 4.79,34.44 4.88,34.14 5.07,33.87 5.25,33.61 5.51,33.42 5.77,33.24 6.07,33.14 6.38,33.04 6.69,33.05 7.01,33.05 7.31,33.16 7.62,33.27 7.87,33.46 8.12,33.66 8.29,33.93 8.47,34.20 8.55,34.51 8.63,34.82 8.60,35.13 8.58,35.45 8.46,35.75 8.34,36.04 8.12,36.28 7.91,36.52 7.64,36.68 7.36,36.84 7.05,36.90 6.73,36.97 6.42,36.93 6.10,36.89 5.81,36.75 5.53,36.61 5.30,36.39 5.07,36.16 4.93,35.88 4.78,35.59 4.73,35.28 4.69,34.96 4.75,34.65 4.80,34.33 4.96,34.05 5.11,33.77 5.35,33.56 5.58,33.34 5.87,33.21 6.17,33.08 6.48,33.06 6.80,33.03 6.80,33.03 6.80,33.03 9.16,33.29 11.52,33.56 12.78,33.85 14.04,34.15 16.20,34.05 18.36,33.95 20.10,33.87 21.85,33.80 24.17,33.52 26.49,33.24 28.35,32.64 30.21,32.03 32.30,31.21 34.39,30.38 35.64,29.76 36.90,29.15 38.23,28.14 39.56,27.13 40.37,26.29 41.17,25.44 41.96,24.48 42.74,23.52 43.68,21.32 44.62,19.13 44.49,17.46 44.36,15.79 44.13,14.49 43.89,13.20 43.10,11.60 42.31,10.00 41.53,8.78 40.74,7.56 39.21,5.89 37.68,4.21 36.39,2.97 35.11,1.73 32.93,0.40 30.76,-0.93 29.03,-1.91 27.30,-2.89 24.91,-4.06 22.52,-5.24 20.87,-5.90 19.22,-6.56 16.81,-7.03 14.40,-7.49 12.60,-7.65 10.80,-7.81 8.21,-7.68 5.62,-7.54 3.11,-6.80 0.59,-6.06 -0.42,-5.64 -1.44,-5.23 -0.96,-4.27 -0.48,-3.31 0.43,-2.56 1.36,-1.81 1.56,-1.62 1.75,-1.43 1.90,-1.20 2.05,-0.97 2.13,-0.71 2.22,-0.45 2.24,-0.18 2.27,0.08 2.22,0.35 2.18,0.63 2.07,0.88 1.96,1.13 1.80,1.35 1.63,1.57 1.42,1.74 1.21,1.91 0.96,2.03 0.72,2.15 0.45,2.20 0.18,2.26 -0.08,2.25 -0.36,2.24 -0.62,2.16 -0.88,2.09 -1.12,1.95 -1.36,1.81 -1.36,1.81 L -1.36,1.81 Z"></path></g><g transform="translate(330 11.6666259765625) rotate(0 13.75 22.500015258789062)" stroke="none"><path fill="#1e1e1e" d="M 2.61,0 Q 2.61,0 2.65,0.94 2.68,1.89 3.06,3.75 3.44,5.61 4.05,7.38 4.66,9.15 4.88,10.30 5.10,11.46 5.73,13.20 6.37,14.95 7.22,16.38 8.07,17.80 9.35,16.91 10.62,16.02 11.47,14.39 12.31,12.76 13.28,10.96 14.25,9.17 14.95,7.39 15.65,5.62 16.49,3.99 17.33,2.36 19.07,1.10 20.81,-0.14 22.07,-0.02 23.32,0.10 24.72,1.58 26.12,3.06 26.97,5.05 27.82,7.03 28.25,8.49 28.68,9.96 28.98,11.31 29.27,12.67 29.51,14.39 29.76,16.11 29.90,17.68 30.03,19.26 30.09,20.67 30.14,22.07 30.03,24.12 29.91,26.17 29.53,28.58 29.15,30.99 28.78,32.79 28.41,34.58 28.05,35.91 27.68,37.24 26.98,38.98 26.28,40.73 25.77,41.84 25.25,42.96 24.54,44.18 23.83,45.40 22.84,46.42 21.86,47.44 20.39,48.03 18.91,48.62 16.62,48.67 14.32,48.72 13.28,48.31 12.24,47.90 11.06,46.74 9.88,45.59 8.68,43.44 7.47,41.29 7.33,40.85 7.19,40.42 7.19,39.96 7.20,39.50 7.35,39.07 7.50,38.63 7.79,38.27 8.07,37.91 8.45,37.66 8.84,37.40 9.28,37.29 9.73,37.17 10.18,37.20 10.64,37.23 11.07,37.41 11.49,37.58 11.84,37.88 12.18,38.19 12.41,38.58 12.65,38.98 12.74,39.43 12.83,39.88 12.78,40.33 12.72,40.79 12.52,41.20 12.32,41.62 12.00,41.95 11.68,42.28 11.27,42.49 10.87,42.70 10.41,42.77 9.96,42.83 9.50,42.75 9.05,42.67 8.65,42.45 8.25,42.23 7.94,41.89 7.62,41.56 7.44,41.14 7.25,40.72 7.21,40.26 7.16,39.80 7.27,39.36 7.37,38.91 7.61,38.52 7.86,38.13 8.21,37.84 8.56,37.54 8.99,37.38 9.42,37.21 9.88,37.20 10.34,37.18 10.78,37.31 11.22,37.43 11.60,37.70 11.97,37.96 12.25,38.33 12.52,38.70 12.52,38.70 12.52,38.70 13.92,41.09 15.32,43.48 16.42,43.64 17.51,43.80 18.70,43.36 19.89,42.92 21.08,41.07 22.28,39.22 22.86,37.55 23.44,35.88 23.84,34.81 24.24,33.75 24.55,32.15 24.85,30.56 24.93,28.40 25.00,26.23 24.83,24.28 24.66,22.33 24.60,21.07 24.53,19.82 24.37,18.53 24.21,17.24 23.57,14.66 22.93,12.09 22.20,10.43 21.48,8.78 21.02,7.42 20.57,6.06 21.92,5.35 23.26,4.65 22.35,6.19 21.44,7.74 21.02,8.95 20.60,10.17 20.05,11.42 19.51,12.67 18.80,13.93 18.09,15.20 17.21,16.92 16.34,18.63 15.72,19.94 15.11,21.25 14.28,22.24 13.46,23.24 11.88,24.04 10.30,24.84 9.04,24.93 7.77,25.02 6.65,24.56 5.54,24.09 4.44,22.67 3.34,21.25 2.53,20.08 1.72,18.91 1.30,17.86 0.87,16.80 0.50,15.72 0.13,14.63 -0.29,12.75 -0.72,10.87 -1.09,9.72 -1.45,8.57 -1.81,6.49 -2.17,4.40 -2.43,3.17 -2.68,1.94 -2.65,0.97 -2.61,0 -2.57,-0.31 -2.54,-0.62 -2.42,-0.92 -2.31,-1.21 -2.13,-1.47 -1.95,-1.73 -1.72,-1.94 -1.48,-2.15 -1.20,-2.30 -0.92,-2.44 -0.62,-2.52 -0.31,-2.59 0.00,-2.59 0.31,-2.59 0.62,-2.52 0.92,-2.44 1.20,-2.30 1.48,-2.15 1.72,-1.94 1.95,-1.73 2.13,-1.47 2.31,-1.21 2.42,-0.92 2.54,-0.62 2.57,-0.31 2.61,0.00 2.61,0.00 L 2.61,0 Z"></path></g><g transform="translate(633.33349609375 316.666748046875) rotate(0 12.5 12.083251953125)" stroke="none"><path fill="#1e1e1e" d="M -1.83,1.09 Q -1.83,1.09 -2.59,-0.11 -3.35,-1.33 -3.49,-2.58 -3.62,-3.84 -3.57,-3.69 -3.52,-3.53 -3.52,-3.82 -3.53,-4.11 -3.46,-4.39 -3.39,-4.67 -3.26,-4.93 -3.13,-5.19 -2.94,-5.41 -2.75,-5.63 -2.51,-5.79 -2.27,-5.96 -2.00,-6.06 -1.73,-6.17 -1.45,-6.20 -1.16,-6.24 -0.87,-6.21 -0.59,-6.18 -0.31,-6.08 -0.04,-5.98 0.19,-5.81 0.43,-5.65 0.62,-5.44 0.81,-5.22 0.95,-4.97 1.09,-4.71 1.16,-4.43 1.23,-4.15 2.54,-3.21 3.85,-2.28 5.36,-0.30 6.87,1.67 8.12,2.87 9.37,4.06 10.92,5.95 12.47,7.83 13.63,9.34 14.80,10.85 16.33,12.37 17.86,13.90 19.09,15.03 20.32,16.15 21.60,17.68 22.88,19.20 23.91,20.23 24.93,21.25 25.87,22.14 26.80,23.02 28.19,25.42 29.58,27.81 29.61,28.16 29.63,28.51 29.55,28.84 29.46,29.18 29.28,29.47 29.09,29.76 28.82,29.98 28.55,30.20 28.22,30.32 27.90,30.44 27.55,30.45 27.20,30.45 26.87,30.35 26.54,30.25 26.26,30.05 25.97,29.84 25.77,29.56 25.57,29.28 25.47,28.95 25.37,28.61 25.38,28.27 25.39,27.92 25.51,27.59 25.63,27.27 25.85,27.00 26.07,26.73 26.36,26.54 26.65,26.35 26.99,26.27 27.33,26.19 27.67,26.22 28.02,26.25 28.34,26.38 28.65,26.52 28.91,26.75 29.17,26.99 29.34,27.29 29.51,27.59 29.58,27.93 29.64,28.27 29.59,28.62 29.55,28.96 29.39,29.27 29.24,29.58 28.99,29.83 28.74,30.07 28.43,30.23 28.12,30.38 27.78,30.43 27.43,30.47 27.09,30.41 26.75,30.34 26.45,30.17 26.15,30.00 25.92,29.74 25.68,29.48 25.55,29.16 25.41,28.84 25.41,28.84 25.41,28.84 24.63,27.34 23.85,25.85 22.98,24.84 22.10,23.84 21.13,22.68 20.15,21.52 18.98,20.14 17.80,18.77 16.65,17.60 15.49,16.43 13.66,14.80 11.83,13.18 10.72,11.78 9.61,10.38 8.07,8.80 6.52,7.23 5.00,5.92 3.48,4.61 1.84,2.96 0.20,1.31 -1.06,-0.08 -2.33,-1.49 -2.93,-2.51 -3.52,-3.53 -3.52,-3.82 -3.53,-4.11 -3.46,-4.39 -3.39,-4.67 -3.26,-4.93 -3.13,-5.19 -2.94,-5.41 -2.75,-5.62 -2.51,-5.79 -2.27,-5.96 -2.00,-6.06 -1.73,-6.17 -1.45,-6.20 -1.16,-6.24 -0.87,-6.21 -0.59,-6.18 -0.31,-6.08 -0.04,-5.98 0.19,-5.81 0.43,-5.65 0.62,-5.44 0.81,-5.22 0.95,-4.97 1.09,-4.71 1.16,-4.43 1.23,-4.15 0.85,-3.80 0.48,-3.46 1.15,-2.27 1.83,-1.09 1.93,-0.86 2.04,-0.62 2.08,-0.37 2.13,-0.12 2.11,0.13 2.09,0.39 2.02,0.63 1.94,0.88 1.81,1.10 1.67,1.32 1.49,1.50 1.31,1.68 1.09,1.81 0.86,1.95 0.62,2.02 0.37,2.10 0.12,2.11 -0.13,2.13 -0.38,2.08 -0.64,2.03 -0.87,1.93 -1.11,1.82 -1.31,1.66 -1.51,1.50 -1.67,1.30 -1.83,1.09 -1.83,1.09 L -1.83,1.09 Z"></path></g><g transform="translate(630.83349609375 344.166748046875) rotate(0 13.333251953125 -17.0833740234375)" stroke="none"><path fill="#1e1e1e" d="M -1.85,-0.30 Q -1.85,-0.30 -1.67,-1.75 -1.48,-3.20 -1.17,-4.45 -0.87,-5.70 0.09,-7.35 1.06,-9.00 1.59,-10.23 2.12,-11.46 5.23,-15.28 8.35,-19.10 10.39,-21.36 12.42,-23.62 14.56,-25.56 16.69,-27.51 18.02,-28.82 19.34,-30.12 20.93,-31.42 22.51,-32.72 24.48,-34.21 26.44,-35.69 26.71,-35.82 26.98,-35.95 27.28,-35.98 27.58,-36.02 27.87,-35.96 28.17,-35.89 28.43,-35.74 28.69,-35.59 28.88,-35.36 29.08,-35.13 29.19,-34.86 29.31,-34.58 29.33,-34.28 29.34,-33.98 29.27,-33.69 29.19,-33.40 29.02,-33.15 28.86,-32.90 28.62,-32.71 28.38,-32.53 28.10,-32.43 27.81,-32.33 27.51,-32.33 27.21,-32.32 26.92,-32.42 26.64,-32.51 26.40,-32.69 26.16,-32.87 25.99,-33.12 25.81,-33.37 25.73,-33.66 25.65,-33.95 25.66,-34.25 25.68,-34.55 25.79,-34.83 25.89,-35.11 26.09,-35.34 26.28,-35.57 26.54,-35.73 26.79,-35.88 27.09,-35.95 27.38,-36.02 27.68,-35.99 27.98,-35.96 28.25,-35.83 28.53,-35.71 28.75,-35.50 28.97,-35.30 29.11,-35.03 29.25,-34.77 29.30,-34.47 29.35,-34.18 29.31,-33.88 29.26,-33.58 29.12,-33.32 28.98,-33.05 28.77,-32.84 28.55,-32.63 28.55,-32.63 28.55,-32.63 26.59,-31.41 24.63,-30.18 23.16,-28.94 21.69,-27.70 20.33,-26.40 18.98,-25.11 17.06,-23.20 15.14,-21.30 13.28,-18.99 11.42,-16.68 8.75,-13.15 6.08,-9.61 5.39,-8.20 4.71,-6.79 3.57,-4.66 2.44,-2.54 2.15,-1.11 1.85,0.30 1.79,0.52 1.73,0.74 1.61,0.94 1.50,1.13 1.34,1.30 1.18,1.46 0.99,1.58 0.80,1.70 0.58,1.77 0.36,1.84 0.14,1.86 -0.08,1.88 -0.30,1.84 -0.53,1.80 -0.74,1.71 -0.94,1.62 -1.12,1.49 -1.31,1.35 -1.45,1.17 -1.59,1.00 -1.69,0.79 -1.78,0.58 -1.83,0.36 -1.87,0.14 -1.86,-0.08 -1.85,-0.30 -1.85,-0.30 L -1.85,-0.30 Z"></path></g></svg>