<svg version="1.1" xmlns="http://www.w3.org/2000/svg" viewBox="0 0 667.4998168945312 289.1666259765625" width="667.4998168945312" height="289.1666259765625" class="excalidraw-svg"><!-- svg-source:excalidraw --><metadata></metadata><defs><style class="style-fonts">
      </style></defs><g stroke-linecap="round"><g transform="translate(98.33331298828125 240) rotate(0 -0.5358855455627634 -87.4610789622413)"><path d="M0.19 1.11 C0.17 -27.77, -0.11 -144.76, 0.06 -174.28 M-1.17 0.65 C-1.36 -28.48, -1.23 -146.71, -0.86 -176.03" stroke="#1e1e1e" stroke-width="2" fill="none"></path></g><g transform="translate(98.33331298828125 240) rotate(0 -0.5358855455627634 -87.4610789622413)"><path d="M7.55 -152.49 C6.96 -159.78, 3.66 -165.3, -0.86 -176.03 M7.55 -152.49 C6.32 -158.03, 4.31 -161.67, -0.86 -176.03" stroke="#1e1e1e" stroke-width="2" fill="none"></path></g><g transform="translate(98.33331298828125 240) rotate(0 -0.5358855455627634 -87.4610789622413)"><path d="M-9.55 -152.59 C-4.77 -159.87, -2.7 -165.37, -0.86 -176.03 M-9.55 -152.59 C-7.17 -158.17, -5.57 -161.79, -0.86 -176.03" stroke="#1e1e1e" stroke-width="2" fill="none"></path></g></g><mask></mask><g stroke-linecap="round"><g transform="translate(65 224.16668701171875) rotate(0 281.28352352678775 -0.46719522752333376)"><path d="M-1.04 -0.51 C93.07 -0.22, 469.63 0.72, 563.6 0.88 M0.62 -1.82 C94.69 -1.79, 469.27 -0.81, 562.8 -0.78" stroke="#1e1e1e" stroke-width="2" fill="none"></path></g><g transform="translate(65 224.16668701171875) rotate(0 281.28352352678775 -0.46719522752333376)"><path d="M539.29 7.74 C543.48 6.59, 550.78 3.46, 562.8 -0.78 M539.29 7.74 C546.86 4.17, 554.56 2.57, 562.8 -0.78" stroke="#1e1e1e" stroke-width="2" fill="none"></path></g><g transform="translate(65 224.16668701171875) rotate(0 281.28352352678775 -0.46719522752333376)"><path d="M539.32 -9.36 C543.39 -6.89, 550.67 -6.4, 562.8 -0.78 M539.32 -9.36 C546.92 -7.09, 554.61 -2.85, 562.8 -0.78" stroke="#1e1e1e" stroke-width="2" fill="none"></path></g></g><mask></mask><g transform="translate(10 223.33334350585938) rotate(0 10 -4.1666717529296875)" stroke="none"><path fill="#1e1e1e" d="M -0.51,-2.55 Q -0.51,-2.55 0.64,-2.79 1.80,-3.02 2.78,-3.86 3.75,-4.69 5.15,-5.72 6.54,-6.75 8.26,-8.40 9.99,-10.05 11.10,-11.13 12.22,-12.22 13.74,-13.45 15.26,-14.68 17.21,-15.17 19.17,-15.66 20.16,-15.22 21.15,-14.79 21.62,-13.70 22.09,-12.61 21.87,-11.26 21.65,-9.90 21.61,-8.13 21.58,-6.35 21.57,-4.74 21.56,-3.12 21.58,-1.70 21.60,-0.28 22.22,1.49 22.85,3.28 23.05,3.78 23.25,4.28 23.27,4.82 23.30,5.36 23.16,5.88 23.01,6.40 22.71,6.84 22.41,7.29 21.98,7.61 21.55,7.94 21.04,8.11 20.53,8.28 19.99,8.28 19.45,8.28 18.94,8.11 18.43,7.93 18.00,7.61 17.58,7.28 17.27,6.83 16.97,6.39 16.83,5.87 16.69,5.35 16.72,4.81 16.75,4.28 16.95,3.78 17.15,3.28 17.49,2.87 17.84,2.46 18.31,2.18 18.77,1.90 19.29,1.79 19.82,1.67 20.35,1.73 20.89,1.79 21.38,2.02 21.87,2.24 22.26,2.61 22.65,2.98 22.90,3.46 23.15,3.94 23.24,4.47 23.32,5.00 23.23,5.53 23.15,6.06 22.89,6.54 22.64,7.01 22.25,7.38 21.86,7.75 21.37,7.98 20.88,8.20 20.35,8.26 19.81,8.32 19.28,8.20 18.76,8.08 18.30,7.81 17.84,7.53 17.49,7.12 17.14,6.71 17.14,6.71 17.14,6.71 16.41,5.01 15.67,3.31 15.36,2.09 15.04,0.88 15.06,-0.46 15.08,-1.81 15.08,-3.48 15.09,-5.15 15.12,-6.84 15.15,-8.53 15.58,-10.08 16.00,-11.64 17.07,-10.54 18.13,-9.44 17.16,-8.70 16.20,-7.97 14.87,-6.84 13.54,-5.71 12.67,-4.99 11.79,-4.26 10.68,-3.08 9.57,-1.90 8.19,-1.01 6.80,-0.12 5.86,0.48 4.92,1.09 3.95,1.58 2.98,2.07 1.74,2.31 0.51,2.55 0.19,2.57 -0.11,2.59 -0.42,2.54 -0.73,2.49 -1.02,2.37 -1.31,2.24 -1.56,2.05 -1.81,1.86 -2.00,1.62 -2.20,1.38 -2.33,1.09 -2.47,0.81 -2.53,0.50 -2.59,0.19 -2.58,-0.11 -2.56,-0.42 -2.47,-0.72 -2.38,-1.02 -2.23,-1.30 -2.07,-1.57 -1.85,-1.79 -1.63,-2.02 -1.37,-2.18 -1.10,-2.35 -0.80,-2.45 -0.51,-2.55 -0.51,-2.55 L -0.51,-2.55 Z"></path></g><g transform="translate(51.66668701171875 25.833343505859375) rotate(0 -4.583251953125 17.5)" stroke="none"><path fill="#1e1e1e" d="M 0,2.51 Q 0,2.51 -1.17,2.53 -2.35,2.56 -3.86,3.72 -5.37,4.89 -6.21,5.69 -7.04,6.48 -7.76,7.41 -8.47,8.33 -9.07,9.61 -9.67,10.88 -10.81,10.92 -11.96,10.96 -10.59,10.24 -9.21,9.52 -8.23,8.32 -7.24,7.12 -6.10,6.25 -4.95,5.38 -4.08,4.25 -3.20,3.12 -1.64,2.15 -0.08,1.19 1.22,1.06 2.53,0.94 3.57,1.50 4.61,2.05 5.29,2.95 5.97,3.84 6.37,5.24 6.77,6.64 6.96,9.24 7.15,11.83 7.16,12.97 7.18,14.11 7.14,15.57 7.10,17.02 7.10,18.12 7.11,19.21 6.81,20.88 6.51,22.54 6.12,23.81 5.74,25.09 5.34,26.28 4.94,27.48 4.46,28.47 3.98,29.46 3.27,30.56 2.57,31.67 1.17,33.38 -0.21,35.08 -1.45,35.75 -2.68,36.43 -4.07,37.05 -5.45,37.67 -6.72,37.49 -7.98,37.31 -8.89,36.66 -9.80,36.00 -10.46,34.73 -11.12,33.46 -11.25,32.14 -11.38,30.81 -11.14,29.46 -10.90,28.11 -10.80,26.80 -10.69,25.50 -10.55,25.00 -10.42,24.50 -10.13,24.07 -9.84,23.64 -9.43,23.32 -9.02,23.00 -8.53,22.83 -8.03,22.66 -7.52,22.66 -7.00,22.66 -6.50,22.82 -6.01,22.98 -5.59,23.29 -5.18,23.61 -4.88,24.03 -4.59,24.46 -4.45,24.96 -4.31,25.46 -4.33,25.98 -4.35,26.50 -4.54,26.98 -4.73,27.47 -5.07,27.86 -5.40,28.26 -5.84,28.53 -6.29,28.80 -6.79,28.92 -7.30,29.03 -7.82,28.98 -8.33,28.93 -8.81,28.71 -9.28,28.50 -9.66,28.14 -10.04,27.79 -10.29,27.33 -10.53,26.87 -10.62,26.36 -10.71,25.85 -10.63,25.34 -10.54,24.82 -10.30,24.36 -10.06,23.90 -9.69,23.54 -9.31,23.18 -8.84,22.96 -8.37,22.74 -7.86,22.68 -7.34,22.62 -6.83,22.73 -6.33,22.84 -5.88,23.10 -5.43,23.37 -5.09,23.76 -4.75,24.16 -4.56,24.64 -4.36,25.12 -4.33,25.64 -4.30,26.16 -4.30,26.16 -4.30,26.15 -4.67,28.28 -5.05,30.40 -5.84,31.15 -6.64,31.90 -5.51,31.44 -4.38,30.98 -3.34,29.79 -2.31,28.60 -1.39,27.14 -0.47,25.69 0.18,23.64 0.85,21.58 1.03,20.40 1.20,19.22 1.20,18.14 1.19,17.06 1.13,15.65 1.07,14.24 1.04,13.15 1.01,12.06 0.81,10.23 0.61,8.40 1.34,7.48 2.06,6.56 1.12,7.52 0.19,8.47 -0.51,9.30 -1.22,10.13 -2.58,11.32 -3.93,12.51 -5.13,13.71 -6.33,14.92 -7.75,15.61 -9.17,16.29 -10.35,16.57 -11.53,16.84 -12.64,16.52 -13.74,16.19 -14.57,14.57 -15.39,12.96 -15.35,11.74 -15.32,10.52 -14.53,8.88 -13.75,7.24 -13.04,6.22 -12.33,5.21 -11.33,4.02 -10.33,2.83 -9.40,2.05 -8.47,1.26 -6.62,-0.37 -4.77,-2.00 -3.60,-2.28 -2.43,-2.56 -1.21,-2.53 0,-2.51 0.30,-2.48 0.60,-2.44 0.88,-2.33 1.17,-2.22 1.42,-2.05 1.66,-1.88 1.87,-1.65 2.07,-1.43 2.21,-1.16 2.35,-0.89 2.42,-0.59 2.49,-0.30 2.49,0.00 2.49,0.30 2.42,0.59 2.35,0.89 2.21,1.16 2.07,1.43 1.87,1.65 1.66,1.88 1.41,2.05 1.17,2.22 0.88,2.33 0.60,2.44 0.30,2.48 -0.00,2.51 -0.00,2.51 L 0,2.51 Z"></path></g><g transform="translate(66.66668701171875 26.666656494140625) rotate(0 13.75 5)" stroke="none"><path fill="#1e1e1e" d="M 2.64,0 Q 2.64,0 2.65,1.19 2.66,2.39 2.73,4.02 2.79,5.65 3.16,6.70 3.53,7.75 2.16,7.59 0.79,7.42 1.63,6.39 2.47,5.36 3.43,4.11 4.40,2.86 5.29,1.86 6.19,0.87 9.21,-0.13 12.23,-1.15 13.15,0.14 14.07,1.43 14.14,2.78 14.20,4.13 13.54,3.13 12.88,2.13 14.02,1.74 15.15,1.35 16.21,0.69 17.28,0.03 19.06,-0.73 20.84,-1.50 22.74,-1.37 24.63,-1.24 25.69,-0.56 26.76,0.11 27.47,1.28 28.17,2.45 29.62,3.49 31.07,4.52 31.07,4.95 31.08,5.39 30.98,5.81 30.88,6.23 30.68,6.62 30.48,7.01 30.20,7.33 29.92,7.66 29.56,7.91 29.21,8.16 28.80,8.32 28.40,8.48 27.97,8.54 27.54,8.60 27.11,8.55 26.67,8.50 26.27,8.35 25.86,8.20 25.50,7.96 25.14,7.72 24.85,7.40 24.55,7.08 24.35,6.69 24.14,6.31 24.03,5.89 23.92,5.47 25.45,3.45 26.97,1.43 27.55,1.44 28.13,1.45 28.68,1.64 29.23,1.84 29.69,2.20 30.15,2.56 30.47,3.05 30.79,3.53 30.94,4.10 31.08,4.66 31.04,5.24 31.00,5.83 30.78,6.36 30.55,6.90 30.17,7.34 29.78,7.78 29.28,8.07 28.77,8.36 28.20,8.48 27.63,8.59 27.05,8.52 26.48,8.45 25.95,8.20 25.43,7.94 25.01,7.54 24.59,7.13 24.33,6.61 24.06,6.09 23.98,5.51 23.89,4.94 24.00,4.36 24.10,3.79 24.38,3.28 24.66,2.77 25.09,2.38 25.52,1.98 26.05,1.75 26.59,1.51 27.17,1.46 27.75,1.40 28.31,1.54 28.88,1.67 29.38,1.98 29.87,2.29 30.24,2.74 30.61,3.19 30.82,3.73 31.03,4.28 31.05,4.86 31.07,5.44 30.90,6.00 30.74,6.56 30.40,7.04 30.07,7.51 29.60,7.86 29.13,8.20 30.10,6.36 31.07,4.52 31.07,4.95 31.08,5.39 30.98,5.81 30.88,6.23 30.68,6.62 30.48,7.01 30.20,7.33 29.92,7.66 29.56,7.91 29.21,8.16 28.80,8.32 28.40,8.48 27.97,8.54 27.54,8.60 27.11,8.55 26.68,8.50 26.27,8.35 25.86,8.20 25.50,7.96 25.14,7.72 24.85,7.40 24.56,7.08 24.35,6.70 24.14,6.31 24.03,5.89 23.92,5.47 23.39,5.26 22.86,5.05 21.75,5.59 20.64,6.12 19.26,6.95 17.88,7.79 16.83,8.13 15.79,8.47 13.63,8.68 11.47,8.89 10.16,8.13 8.85,7.38 8.67,5.36 8.49,3.34 10.13,3.93 11.77,4.52 10.93,5.36 10.08,6.20 9.35,6.99 8.61,7.77 7.85,8.74 7.09,9.70 6.07,10.34 5.05,10.98 4.09,11.47 3.14,11.96 0.98,11.46 -1.16,10.95 -1.70,9.50 -2.24,8.06 -2.52,6.89 -2.79,5.73 -2.73,4.06 -2.66,2.39 -2.65,1.19 -2.64,0 -2.60,-0.31 -2.56,-0.63 -2.45,-0.92 -2.33,-1.22 -2.15,-1.48 -1.97,-1.75 -1.73,-1.96 -1.49,-2.17 -1.21,-2.32 -0.93,-2.46 -0.62,-2.54 -0.31,-2.62 0.00,-2.62 0.31,-2.62 0.62,-2.54 0.93,-2.46 1.21,-2.32 1.49,-2.17 1.73,-1.96 1.97,-1.75 2.15,-1.48 2.33,-1.22 2.45,-0.92 2.56,-0.63 2.60,-0.31 2.64,0.00 2.64,0.00 L 2.64,0 Z"></path></g><g transform="translate(135.8333740234375 13.333343505859375) rotate(0 -11.250030517578125 12.916656494140625)" stroke="none"><path fill="#1e1e1e" d="M 1.46,1.46 Q 1.46,1.46 1.03,1.99 0.60,2.52 -0.28,3.47 -1.18,4.42 -2.02,5.32 -2.86,6.22 -4.24,7.50 -5.62,8.77 -6.60,9.96 -7.57,11.16 -9.06,12.82 -10.55,14.49 -11.64,15.75 -12.73,17.02 -13.90,18.59 -15.06,20.17 -16.05,21.47 -17.04,22.76 -17.58,23.72 -18.12,24.68 -19.76,27.07 -21.41,29.45 -21.64,29.73 -21.87,30.01 -22.17,30.19 -22.48,30.38 -22.83,30.47 -23.18,30.55 -23.54,30.51 -23.90,30.48 -24.23,30.33 -24.55,30.18 -24.82,29.94 -25.08,29.70 -25.25,29.38 -25.43,29.06 -25.49,28.71 -25.55,28.36 -25.50,28.00 -25.44,27.64 -25.28,27.32 -25.11,27.00 -24.86,26.75 -24.60,26.50 -24.27,26.35 -23.95,26.19 -23.59,26.15 -23.23,26.11 -22.88,26.18 -22.53,26.25 -22.22,26.43 -21.91,26.62 -21.67,26.89 -21.44,27.16 -21.30,27.49 -21.16,27.82 -21.14,28.18 -21.12,28.54 -21.21,28.89 -21.30,29.24 -21.50,29.54 -21.70,29.84 -21.98,30.06 -22.26,30.28 -22.60,30.40 -22.94,30.52 -23.30,30.52 -23.66,30.53 -24.00,30.42 -24.35,30.31 -24.64,30.09 -24.92,29.88 -25.13,29.58 -25.34,29.29 -25.44,28.94 -25.54,28.60 -25.52,28.24 -25.51,27.88 -25.38,27.54 -25.25,27.20 -25.25,27.20 -25.25,27.21 -23.42,24.79 -21.60,22.38 -20.83,21.35 -20.06,20.32 -19.09,19.20 -18.12,18.08 -16.93,16.22 -15.75,14.36 -14.69,13.19 -13.62,12.02 -12.31,10.20 -11.00,8.37 -9.88,7.00 -8.77,5.62 -7.50,4.24 -6.22,2.86 -5.32,2.02 -4.42,1.18 -3.47,0.28 -2.52,-0.60 -1.99,-1.03 -1.46,-1.46 -1.26,-1.61 -1.07,-1.77 -0.84,-1.87 -0.61,-1.97 -0.37,-2.02 -0.12,-2.06 0.12,-2.05 0.37,-2.03 0.61,-1.96 0.85,-1.89 1.06,-1.76 1.27,-1.63 1.45,-1.45 1.63,-1.27 1.76,-1.06 1.89,-0.85 1.96,-0.61 2.03,-0.37 2.05,-0.12 2.06,0.12 2.02,0.37 1.97,0.61 1.87,0.84 1.77,1.07 1.61,1.26 1.46,1.46 1.46,1.46 L 1.46,1.46 Z"></path></g><g transform="translate(148.3333740234375 25.833343505859375) rotate(0 -2.91668701171875 19.166656494140625)" stroke="none"><path fill="#1e1e1e" d="M 1.15,2.30 Q 1.15,2.30 -0.30,2.99 -1.75,3.67 -3.03,4.91 -4.31,6.16 -5.30,6.98 -6.29,7.81 -7.41,9.40 -8.52,10.99 -8.98,12.29 -9.45,13.59 -10.54,12.96 -11.63,12.34 -10.35,11.84 -9.07,11.34 -7.91,9.82 -6.75,8.30 -5.56,6.87 -4.37,5.43 -3.27,4.12 -2.17,2.81 -0.46,1.75 1.25,0.68 2.65,0.87 4.06,1.06 5.10,2.07 6.15,3.07 6.70,4.02 7.24,4.96 7.80,6.54 8.35,8.12 8.95,10.41 9.55,12.70 9.62,13.82 9.70,14.94 9.64,16.65 9.58,18.36 9.58,19.55 9.59,20.73 9.25,22.63 8.91,24.54 8.53,25.92 8.15,27.30 7.73,28.74 7.32,30.17 6.89,31.40 6.46,32.63 5.66,34.42 4.87,36.21 3.85,37.82 2.83,39.43 1.62,40.05 0.42,40.68 -1.00,40.47 -2.42,40.25 -3.25,39.41 -4.08,38.56 -4.36,37.42 -4.63,36.27 -4.74,33.57 -4.84,30.86 -4.76,30.35 -4.68,29.84 -4.44,29.39 -4.21,28.93 -3.84,28.58 -3.47,28.22 -3.01,28.00 -2.54,27.78 -2.03,27.72 -1.52,27.66 -1.02,27.76 -0.52,27.87 -0.07,28.13 0.36,28.39 0.70,28.78 1.03,29.16 1.23,29.64 1.42,30.12 1.45,30.63 1.49,31.14 1.36,31.64 1.22,32.13 0.94,32.56 0.65,32.99 0.25,33.30 -0.15,33.62 -0.63,33.79 -1.12,33.96 -1.63,33.96 -2.14,33.97 -2.63,33.81 -3.12,33.65 -3.53,33.34 -3.95,33.03 -4.24,32.61 -4.53,32.19 -4.67,31.70 -4.81,31.20 -4.79,30.69 -4.77,30.18 -4.58,29.70 -4.40,29.22 -4.07,28.82 -3.74,28.43 -3.30,28.16 -2.87,27.89 -2.37,27.78 -1.86,27.66 -1.35,27.71 -0.84,27.76 -0.37,27.97 0.08,28.18 0.46,28.53 0.84,28.88 1.08,29.33 1.33,29.79 1.42,30.29 1.50,30.80 1.50,30.80 1.50,30.80 1.38,33.22 1.27,35.65 0.47,34.87 -0.31,34.09 0.19,32.91 0.70,31.73 1.42,30.27 2.14,28.81 2.79,26.29 3.44,23.77 3.57,22.28 3.70,20.79 3.68,19.63 3.66,18.47 3.53,16.93 3.41,15.38 3.31,13.73 3.20,12.07 2.70,11.11 2.20,10.15 2.32,8.59 2.45,7.04 1.51,8.07 0.57,9.10 -0.24,10.23 -1.06,11.36 -2.30,12.70 -3.54,14.04 -5.51,15.70 -7.47,17.36 -8.56,17.73 -9.65,18.10 -10.90,18.19 -12.15,18.28 -13.19,17.53 -14.24,16.78 -14.58,14.51 -14.93,12.24 -14.55,11.06 -14.18,9.88 -13.61,8.94 -13.05,8.00 -12.34,6.99 -11.64,5.98 -9.92,4.34 -8.20,2.69 -7.09,1.53 -5.98,0.37 -4.99,-0.21 -3.99,-0.79 -2.57,-1.55 -1.15,-2.30 -0.86,-2.41 -0.56,-2.51 -0.25,-2.54 0.05,-2.57 0.35,-2.53 0.66,-2.49 0.95,-2.37 1.24,-2.25 1.49,-2.07 1.74,-1.89 1.94,-1.65 2.15,-1.42 2.28,-1.14 2.42,-0.86 2.49,-0.56 2.56,-0.26 2.55,0.05 2.55,0.36 2.47,0.66 2.39,0.96 2.24,1.23 2.09,1.50 1.88,1.73 1.67,1.96 1.41,2.13 1.15,2.30 1.15,2.30 L 1.15,2.30 Z"></path></g><g transform="translate(179.16668701171875 23.333343505859375) rotate(0 0.416656494140625 -1.2500152587890625)" stroke="none"><path fill="#1e1e1e" d="M 0.61,2.46 Q 0.61,2.46 -0.32,2.73 -1.25,3.00 -2.85,3.79 -4.46,4.57 -5.38,5.78 -6.31,6.99 -6.34,8.11 -6.38,9.23 -5.66,8.14 -4.93,7.05 -4.11,6.08 -3.30,5.10 -2.60,4.12 -1.89,3.14 -0.67,1.34 0.54,-0.45 1.06,-1.42 1.59,-2.40 2.01,-3.40 2.43,-4.41 2.88,-5.43 3.34,-6.45 3.74,-7.48 4.14,-8.52 4.58,-10.19 5.02,-11.86 6.13,-10.73 7.25,-9.61 8.59,-10.24 9.93,-10.88 9.56,-9.52 9.19,-8.17 8.79,-6.37 8.39,-4.57 8.25,-2.80 8.11,-1.02 8.42,0.72 8.73,2.47 9.77,3.47 10.82,4.46 11.28,4.67 11.74,4.88 12.11,5.23 12.48,5.58 12.73,6.02 12.97,6.47 13.05,6.97 13.14,7.47 13.06,7.98 12.98,8.48 12.74,8.93 12.51,9.38 12.14,9.73 11.78,10.08 11.32,10.30 10.86,10.52 10.35,10.58 9.85,10.63 9.35,10.53 8.85,10.42 8.41,10.16 7.98,9.90 7.64,9.52 7.31,9.13 7.12,8.66 6.93,8.19 6.90,7.68 6.87,7.18 7.00,6.68 7.13,6.19 7.42,5.77 7.70,5.35 8.10,5.04 8.50,4.73 8.99,4.56 9.47,4.40 9.98,4.39 10.48,4.39 10.97,4.55 11.45,4.71 11.86,5.01 12.26,5.32 12.55,5.74 12.84,6.16 12.98,6.65 13.12,7.14 13.09,7.64 13.07,8.15 12.88,8.62 12.70,9.10 12.37,9.49 12.05,9.88 11.61,10.14 11.18,10.41 10.68,10.52 10.19,10.63 9.68,10.58 9.17,10.53 9.17,10.53 9.17,10.53 6.78,8.98 4.39,7.43 3.86,6.45 3.33,5.48 2.93,3.50 2.54,1.52 2.36,-0.79 2.19,-3.12 2.60,-5.48 3.01,-7.85 3.29,-9.32 3.58,-10.78 4.59,-12.38 5.60,-13.97 7.31,-14.51 9.01,-15.05 9.86,-12.58 10.70,-10.11 10.15,-8.28 9.59,-6.46 8.72,-4.33 7.84,-2.19 7.32,-0.90 6.80,0.38 6.25,1.43 5.69,2.47 4.41,4.53 3.13,6.58 2.42,7.66 1.71,8.75 0.94,9.74 0.17,10.72 -1.61,11.96 -3.40,13.20 -5.27,13.41 -7.15,13.61 -8.26,13.32 -9.38,13.03 -10.20,12.28 -11.02,11.54 -11.34,9.63 -11.66,7.72 -10.99,5.88 -10.32,4.05 -9.54,3.12 -8.76,2.19 -7.75,1.40 -6.75,0.62 -4.66,-0.71 -2.57,-2.04 -1.59,-2.25 -0.61,-2.46 -0.31,-2.50 -0.00,-2.53 0.29,-2.50 0.59,-2.46 0.88,-2.35 1.17,-2.25 1.42,-2.07 1.67,-1.90 1.88,-1.67 2.08,-1.44 2.22,-1.17 2.37,-0.90 2.44,-0.61 2.51,-0.31 2.52,-0.00 2.52,0.29 2.44,0.59 2.37,0.89 2.23,1.16 2.09,1.43 1.89,1.66 1.68,1.89 1.43,2.06 1.18,2.24 0.90,2.35 0.61,2.46 0.61,2.46 L 0.61,2.46 Z"></path></g><g transform="translate(213.3333740234375 17.5) rotate(0 -5.833343505859375 7.5)" stroke="none"><path fill="#1e1e1e" d="M 1.65,2.06 Q 1.65,2.06 0.44,2.99 -0.77,3.92 -0.94,5.94 -1.11,7.96 -1.15,9.03 -1.19,10.10 -1.87,11.53 -2.55,12.95 -4.07,14.88 -5.59,16.81 -8.57,17.50 -11.55,18.19 -12.06,18.13 -12.58,18.06 -13.04,17.83 -13.51,17.61 -13.88,17.24 -14.25,16.88 -14.48,16.42 -14.71,15.96 -14.79,15.44 -14.86,14.93 -14.77,14.42 -14.67,13.91 -14.42,13.46 -14.17,13.01 -13.79,12.66 -13.40,12.31 -12.93,12.10 -12.46,11.90 -11.94,11.85 -11.43,11.80 -10.92,11.93 -10.42,12.05 -9.98,12.32 -9.54,12.60 -9.22,13.00 -8.89,13.40 -8.71,13.89 -8.52,14.37 -8.51,14.89 -8.49,15.40 -8.64,15.90 -8.79,16.40 -9.08,16.82 -9.38,17.24 -9.80,17.55 -10.22,17.85 -10.71,18.01 -11.21,18.16 -11.72,18.15 -12.24,18.14 -12.73,17.97 -13.22,17.79 -13.62,17.47 -14.03,17.15 -14.31,16.71 -14.59,16.28 -14.72,15.78 -14.85,15.28 -14.81,14.76 -14.77,14.24 -14.57,13.77 -14.37,13.29 -14.03,12.90 -13.68,12.52 -13.23,12.26 -12.79,12.00 -12.28,11.90 -11.77,11.80 -11.77,11.80 -11.77,11.80 -10.45,11.97 -9.13,12.14 -8.08,10.79 -7.04,9.45 -6.65,7.92 -6.27,6.38 -6.38,5.27 -6.48,4.16 -6.01,2.89 -5.54,1.62 -4.78,0.77 -4.01,-0.08 -2.83,-1.07 -1.65,-2.06 -1.38,-2.23 -1.11,-2.40 -0.80,-2.49 -0.50,-2.59 -0.18,-2.61 0.13,-2.64 0.44,-2.58 0.76,-2.53 1.05,-2.40 1.34,-2.27 1.59,-2.08 1.85,-1.88 2.05,-1.64 2.24,-1.39 2.38,-1.10 2.51,-0.81 2.57,-0.49 2.63,-0.18 2.62,0.13 2.60,0.45 2.51,0.75 2.42,1.06 2.26,1.33 2.09,1.61 1.87,1.83 1.65,2.06 1.65,2.06 L 1.65,2.06 Z"></path></g><g transform="translate(84.9998779296875 110.00003051757812) rotate(0 202.49996948242188 82.91661071777344)" stroke="none"><path fill="#1e1e1e" d="M -0.26,-1.85 Q -0.26,-1.85 1.40,-2.11 3.08,-2.37 4.69,-2.72 6.30,-3.06 8.83,-3.14 11.36,-3.22 12.87,-3.34 14.38,-3.46 16.48,-3.43 18.58,-3.39 20.18,-3.45 21.78,-3.51 23.91,-3.44 26.03,-3.37 27.65,-3.42 29.27,-3.48 31.63,-3.41 34.00,-3.34 35.96,-3.33 37.93,-3.32 40.44,-3.27 42.95,-3.23 44.97,-3.22 47.00,-3.21 49.78,-3.18 52.56,-3.14 54.69,-3.12 56.83,-3.10 59.42,-3.08 62.00,-3.06 63.98,-3.30 65.96,-3.54 68.81,-3.63 71.65,-3.72 73.81,-3.76 75.96,-3.79 77.84,-3.86 79.72,-3.93 81.47,-3.99 83.23,-4.06 86.07,-4.26 88.91,-4.47 92.10,-4.55 95.29,-4.63 97.60,-4.65 99.91,-4.68 102.81,-4.68 105.71,-4.69 107.90,-4.69 110.09,-4.68 112.94,-4.68 115.79,-4.68 117.95,-4.67 120.12,-4.67 122.96,-4.66 125.80,-4.66 127.96,-4.66 130.13,-4.66 133.02,-4.41 135.91,-4.17 138.05,-4.07 140.19,-3.97 143.01,-3.92 145.82,-3.88 147.98,-3.86 150.14,-3.84 151.78,-3.92 153.41,-4.01 156.02,-3.98 158.63,-3.95 160.46,-3.99 162.29,-4.04 164.75,-4.01 167.20,-3.97 168.96,-4.03 170.72,-4.08 172.91,-4.04 175.10,-4.01 176.74,-4.08 178.39,-4.14 180.53,-4.10 182.67,-4.05 184.30,-4.12 185.92,-4.18 187.81,-4.19 189.70,-4.19 191.22,-4.26 192.75,-4.32 194.59,-4.32 196.43,-4.32 197.94,-4.37 199.44,-4.43 201.28,-4.41 203.11,-4.40 204.37,-4.47 205.63,-4.54 207.13,-4.58 208.62,-4.61 209.73,-4.67 210.85,-4.74 213.37,-4.56 215.89,-4.38 217.63,-4.34 219.36,-4.30 220.78,-4.36 222.21,-4.42 223.59,-4.48 224.97,-4.54 226.14,-4.59 227.31,-4.65 229.04,-4.37 230.77,-4.09 232.01,-4.07 233.25,-4.04 234.64,-4.07 236.03,-4.11 237.45,-4.12 238.87,-4.13 240.15,-4.15 241.43,-4.17 243.50,-3.86 245.56,-3.55 247.05,-3.44 248.55,-3.34 250.20,-3.31 251.86,-3.28 253.52,-3.27 255.18,-3.26 256.61,-3.28 258.04,-3.29 259.45,-3.30 260.86,-3.31 262.07,-2.99 263.29,-2.67 265.07,-2.16 266.86,-1.65 267.90,-1.11 268.95,-0.58 269.63,0.33 270.31,1.25 271.24,2.62 272.18,3.98 272.49,5.10 272.80,6.22 273.85,7.52 274.90,8.81 275.68,9.65 276.47,10.49 277.23,11.72 277.98,12.95 279.11,14.46 280.24,15.98 281.04,16.82 281.84,17.67 282.67,18.52 283.51,19.38 284.55,20.10 285.58,20.82 286.59,21.75 287.61,22.69 288.44,23.51 289.27,24.34 290.26,25.24 291.26,26.15 292.12,26.99 292.98,27.84 294.14,29.05 295.31,30.27 296.10,31.03 296.89,31.78 297.42,32.78 297.95,33.77 298.79,34.57 299.64,35.37 300.90,36.65 302.16,37.93 302.68,38.91 303.20,39.90 304.09,41.05 304.97,42.20 306.14,43.54 307.32,44.88 308.03,45.69 308.74,46.51 310.05,47.74 311.36,48.98 313.03,50.25 314.69,51.53 315.67,52.60 316.65,53.66 318.00,54.68 319.35,55.70 320.68,56.98 322.02,58.27 323.21,59.34 324.40,60.41 325.18,61.22 325.95,62.04 326.78,62.85 327.60,63.67 328.77,64.85 329.93,66.02 331.16,67.27 332.38,68.51 333.52,69.31 334.65,70.12 335.42,71.10 336.19,72.09 336.93,72.90 337.67,73.70 338.85,75.25 340.03,76.79 340.88,77.70 341.73,78.61 342.58,79.47 343.44,80.33 344.08,81.27 344.71,82.20 345.58,83.47 346.44,84.73 347.10,85.89 347.76,87.06 348.66,87.89 349.57,88.73 350.11,89.70 350.64,90.67 351.90,92.28 353.15,93.89 353.74,95.30 354.33,96.71 355.31,98.21 356.28,99.70 357.29,101.08 358.31,102.46 359.42,103.97 360.54,105.47 361.37,106.32 362.19,107.16 363.27,108.31 364.36,109.46 365.39,110.18 366.42,110.89 367.50,111.82 368.58,112.75 369.18,113.83 369.79,114.90 370.68,116.63 371.56,118.36 372.24,119.35 372.92,120.34 373.51,121.29 374.09,122.23 374.85,123.49 375.61,124.74 376.28,125.80 376.95,126.85 377.70,128.23 378.46,129.61 379.01,130.79 379.56,131.97 380.59,133.45 381.62,134.93 382.55,135.83 383.49,136.73 384.67,137.46 385.86,138.19 386.77,139.12 387.69,140.05 388.95,140.51 390.21,140.97 391.05,142.17 391.89,143.38 392.72,144.21 393.55,145.04 394.38,145.87 395.22,146.70 396.06,147.53 396.89,148.36 398.23,149.25 399.57,150.15 400.12,151.11 400.67,152.07 401.17,153.05 401.67,154.02 402.51,155.72 403.35,157.42 404.18,159.09 405.01,160.76 405.53,162.27 406.05,163.77 405.63,164.86 405.20,165.96 405.56,166.23 405.91,166.50 406.20,166.85 406.48,167.19 406.67,167.60 406.86,168.01 406.94,168.44 407.03,168.88 407.01,169.33 406.99,169.78 406.86,170.21 406.74,170.64 406.51,171.02 406.28,171.41 405.97,171.73 405.66,172.05 405.28,172.29 404.90,172.52 404.48,172.66 404.05,172.80 403.60,172.84 403.16,172.87 402.72,172.80 402.28,172.72 401.87,172.54 401.45,172.37 402.16,172.61 402.87,172.85 402.29,172.68 401.72,172.51 401.22,172.16 400.73,171.82 400.38,171.33 400.02,170.85 399.84,170.28 399.66,169.70 399.67,169.10 399.68,168.50 399.88,167.94 400.08,167.37 400.45,166.90 400.82,166.43 401.32,166.10 401.82,165.77 402.41,165.62 402.99,165.47 403.59,165.51 404.18,165.55 404.74,165.78 405.29,166.01 405.74,166.41 406.20,166.80 406.50,167.32 406.80,167.84 406.92,168.43 407.04,169.02 406.96,169.62 406.89,170.21 406.63,170.75 406.37,171.29 405.95,171.72 405.53,172.15 404.99,172.43 404.46,172.70 403.86,172.79 403.27,172.87 402.68,172.77 402.09,172.66 401.56,172.37 401.03,172.08 400.63,171.64 400.22,171.19 399.98,170.65 399.74,170.10 399.68,169.50 399.63,168.90 399.76,168.32 399.90,167.73 400.22,167.22 400.54,166.71 401.00,166.33 401.47,165.95 402.03,165.74 402.59,165.52 403.90,165.74 405.20,165.96 405.56,166.23 405.91,166.50 406.20,166.85 406.48,167.19 406.67,167.60 406.86,168.00 406.94,168.44 407.03,168.88 407.01,169.33 406.99,169.78 406.86,170.21 406.74,170.63 406.51,171.02 406.28,171.41 405.97,171.73 405.66,172.05 405.28,172.29 404.90,172.52 404.48,172.66 404.05,172.80 403.61,172.84 403.16,172.87 402.72,172.80 402.28,172.72 401.87,172.54 401.45,172.37 401.91,171.21 402.36,170.06 401.08,168.63 399.80,167.19 398.98,165.16 398.16,163.12 397.32,161.46 396.49,159.80 395.67,158.19 394.85,156.58 394.19,155.65 393.53,154.72 392.61,153.72 391.70,152.72 390.86,151.89 390.03,151.05 389.20,150.21 388.37,149.38 387.49,148.52 386.61,147.67 385.60,146.56 384.59,145.44 383.58,144.90 382.57,144.36 381.61,143.79 380.64,143.23 379.52,142.11 378.40,141.00 377.16,140.08 375.92,139.17 375.39,137.91 374.86,136.66 374.04,135.70 373.22,134.74 372.82,133.21 372.41,131.67 371.65,130.85 370.88,130.03 370.05,128.78 369.22,127.53 368.40,126.30 367.58,125.08 366.66,124.02 365.75,122.96 364.95,120.94 364.16,118.92 363.25,117.71 362.33,116.50 361.33,115.84 360.33,115.18 359.43,114.26 358.52,113.33 357.54,112.00 356.55,110.66 355.73,109.93 354.90,109.20 354.15,108.16 353.39,107.13 352.75,106.08 352.10,105.03 351.09,103.68 350.08,102.32 349.07,100.93 348.06,99.54 347.47,98.13 346.89,96.72 345.97,95.67 345.05,94.62 344.38,93.30 343.70,91.99 342.70,90.78 341.69,89.57 340.88,88.37 340.07,87.17 338.91,85.65 337.74,84.13 336.74,83.04 335.74,81.95 334.92,80.79 334.11,79.63 332.95,78.42 331.79,77.21 330.70,75.89 329.62,74.57 328.65,73.90 327.69,73.23 326.44,72.00 325.19,70.76 324.00,69.58 322.81,68.41 321.96,67.51 321.11,66.62 320.15,65.33 319.19,64.04 317.65,62.85 316.10,61.65 315.00,60.67 313.91,59.68 312.97,59.04 312.03,58.41 310.43,56.99 308.84,55.57 307.71,54.81 306.59,54.05 305.54,53.10 304.48,52.15 302.95,50.61 301.42,49.08 300.33,47.57 299.25,46.06 298.34,44.99 297.43,43.93 296.84,42.61 296.24,41.30 294.93,40.03 293.62,38.77 292.40,37.13 291.17,35.50 290.21,34.50 289.25,33.50 288.39,32.64 287.54,31.79 286.01,30.61 284.48,29.42 283.62,28.58 282.76,27.74 281.61,26.69 280.46,25.64 279.06,24.53 277.65,23.42 276.66,22.38 275.67,21.34 275.07,20.47 274.46,19.59 273.05,17.96 271.64,16.34 271.11,15.16 270.58,13.99 269.51,12.48 268.45,10.98 267.54,9.86 266.63,8.74 266.32,7.70 266.01,6.66 264.93,5.37 263.86,4.08 262.30,3.69 260.75,3.31 259.39,3.30 258.03,3.29 256.60,3.27 255.17,3.26 253.49,3.26 251.80,3.26 250.04,3.23 248.28,3.21 247.08,3.18 245.87,3.15 244.78,2.99 243.69,2.84 242.56,2.67 241.43,2.50 240.15,2.48 238.87,2.47 237.44,2.45 236.01,2.44 234.54,2.38 233.07,2.32 231.68,2.19 230.29,2.07 228.80,1.69 227.31,1.31 226.14,1.26 224.96,1.20 223.56,1.13 222.16,1.06 220.65,0.95 219.15,0.84 217.11,0.59 215.07,0.33 212.96,0.04 210.85,-0.25 209.73,-0.32 208.62,-0.38 207.13,-0.41 205.63,-0.45 204.37,-0.52 203.11,-0.59 201.28,-0.58 199.44,-0.56 197.94,-0.62 196.43,-0.67 194.59,-0.67 192.75,-0.67 191.22,-0.73 189.70,-0.80 187.81,-0.80 185.92,-0.81 184.30,-0.87 182.67,-0.94 180.53,-0.89 178.39,-0.85 176.74,-0.91 175.10,-0.98 172.91,-0.95 170.72,-0.91 168.96,-0.96 167.20,-1.02 164.74,-0.99 162.29,-0.96 160.46,-1.00 158.63,-1.05 156.01,-1.03 153.40,-1.01 151.76,-1.11 150.12,-1.20 147.95,-1.22 145.78,-1.24 142.92,-1.28 140.07,-1.33 137.88,-1.43 135.69,-1.53 132.91,-1.76 130.13,-2.00 127.96,-2.00 125.80,-1.99 122.96,-1.99 120.12,-1.99 117.96,-1.98 115.79,-1.97 112.94,-1.96 110.10,-1.95 107.91,-1.93 105.73,-1.91 102.84,-1.88 99.96,-1.85 97.67,-1.79 95.39,-1.72 92.28,-1.60 89.16,-1.47 86.20,-1.19 83.24,-0.91 81.49,-0.96 79.75,-1.01 77.88,-1.04 76.02,-1.07 73.89,-1.02 71.75,-0.97 69.02,-0.86 66.28,-0.75 64.14,-0.50 62.01,-0.26 59.42,-0.24 56.83,-0.23 54.69,-0.20 52.56,-0.18 49.78,-0.15 47.00,-0.12 44.97,-0.11 42.95,-0.10 40.44,-0.05 37.93,-0.00 35.96,0.00 34.00,0.01 31.64,0.08 29.27,0.15 27.65,0.10 26.04,0.05 23.92,0.13 21.81,0.21 20.22,0.17 18.62,0.13 16.58,0.22 14.53,0.31 13.05,0.31 11.57,0.31 9.33,0.53 7.08,0.74 5.35,1.08 3.62,1.41 1.94,1.63 0.26,1.85 0.03,1.86 -0.18,1.86 -0.40,1.81 -0.62,1.76 -0.83,1.66 -1.03,1.56 -1.20,1.42 -1.37,1.27 -1.51,1.09 -1.64,0.90 -1.72,0.69 -1.81,0.48 -1.84,0.26 -1.87,0.03 -1.85,-0.18 -1.83,-0.41 -1.75,-0.62 -1.68,-0.83 -1.55,-1.02 -1.43,-1.21 -1.26,-1.36 -1.09,-1.52 -0.90,-1.63 -0.70,-1.74 -0.48,-1.80 -0.26,-1.85 -0.26,-1.85 L -0.26,-1.85 Z"></path></g><g transform="translate(448.33319091796875 206.66665649414062) rotate(0 1.25 18.33331298828125)" stroke="none"><path fill="#1e1e1e" d="M -2.58,0 Q -2.58,0 -2.62,-0.95 -2.65,-1.91 -2.67,-2.08 -2.69,-2.25 -2.65,-2.57 -2.61,-2.89 -2.50,-3.20 -2.38,-3.50 -2.20,-3.77 -2.01,-4.03 -1.77,-4.25 -1.53,-4.46 -1.24,-4.62 -0.95,-4.77 -0.63,-4.84 -0.32,-4.92 0.00,-4.92 0.32,-4.92 0.64,-4.84 0.95,-4.77 1.24,-4.62 1.53,-4.46 1.77,-4.25 2.01,-4.03 2.20,-3.77 2.38,-3.50 2.50,-3.20 2.61,-2.89 2.65,-2.57 2.69,-2.25 2.77,-0.77 2.85,0.69 2.89,2.59 2.92,4.49 2.90,5.84 2.87,7.18 2.81,9.87 2.74,12.56 2.94,13.76 3.13,14.95 3.21,16.65 3.28,18.35 3.53,19.56 3.78,20.77 3.90,22.47 4.01,24.18 4.07,25.60 4.12,27.03 4.37,28.13 4.61,29.23 4.78,30.38 4.94,31.52 5.01,32.76 5.08,34.01 4.89,35.98 4.70,37.95 4.61,38.38 4.53,38.82 4.43,39.15 4.33,39.49 4.15,39.79 3.97,40.09 3.73,40.34 3.48,40.59 3.18,40.78 2.89,40.96 2.55,41.07 2.22,41.18 1.87,41.20 1.52,41.23 1.18,41.17 0.83,41.11 0.51,40.97 0.19,40.83 -0.08,40.62 -0.36,40.41 -0.58,40.13 -0.80,39.86 -0.94,39.54 -1.09,39.23 -1.16,38.88 -1.23,38.54 -1.21,38.19 -1.19,37.84 -0.85,39.04 -0.51,40.24 -0.76,39.84 -1.01,39.44 -1.12,38.99 -1.23,38.53 -1.18,38.06 -1.14,37.59 -0.95,37.16 -0.76,36.73 -0.44,36.39 -0.12,36.04 0.28,35.82 0.69,35.59 1.15,35.51 1.62,35.42 2.08,35.49 2.55,35.56 2.97,35.78 3.38,35.99 3.71,36.33 4.04,36.66 4.24,37.09 4.45,37.51 4.51,37.98 4.56,38.44 4.47,38.90 4.38,39.36 4.14,39.77 3.90,40.18 3.55,40.48 3.20,40.79 2.76,40.98 2.33,41.16 1.86,41.19 1.39,41.22 0.94,41.10 0.48,40.98 0.09,40.73 -0.29,40.47 -0.58,40.10 -0.87,39.73 -1.03,39.28 -1.19,38.84 -1.19,38.37 -1.20,37.90 -1.06,37.45 -0.92,37.01 -0.64,36.63 -0.36,36.25 0.02,35.98 0.40,35.71 0.85,35.58 1.30,35.45 1.77,35.46 2.24,35.48 2.68,35.65 3.12,35.82 3.82,37.32 4.53,38.82 4.43,39.15 4.33,39.49 4.15,39.79 3.97,40.09 3.73,40.34 3.48,40.59 3.18,40.78 2.89,40.96 2.55,41.07 2.22,41.18 1.87,41.20 1.52,41.23 1.18,41.17 0.83,41.11 0.51,40.97 0.19,40.83 -0.08,40.62 -0.36,40.41 -0.58,40.13 -0.80,39.86 -0.94,39.54 -1.09,39.23 -1.16,38.88 -1.23,38.54 -1.21,38.19 -1.19,37.84 -0.94,37.11 -0.68,36.37 -0.45,35.30 -0.22,34.23 -0.30,32.23 -0.39,30.24 -0.66,28.73 -0.94,27.23 -0.99,25.90 -1.03,24.57 -1.16,23.19 -1.29,21.80 -1.60,20.25 -1.92,18.69 -2.05,17.27 -2.17,15.85 -2.46,14.21 -2.74,12.57 -2.81,9.87 -2.87,7.18 -2.90,5.84 -2.92,4.49 -2.89,2.59 -2.85,0.69 -2.77,-0.77 -2.69,-2.25 -2.65,-2.57 -2.61,-2.89 -2.50,-3.20 -2.38,-3.50 -2.20,-3.77 -2.01,-4.03 -1.77,-4.25 -1.53,-4.46 -1.24,-4.62 -0.95,-4.77 -0.64,-4.84 -0.32,-4.92 -0.00,-4.92 0.32,-4.92 0.63,-4.84 0.95,-4.77 1.24,-4.62 1.53,-4.46 1.77,-4.25 2.01,-4.03 2.20,-3.77 2.38,-3.50 2.50,-3.20 2.61,-2.89 2.65,-2.57 2.69,-2.25 2.67,-2.08 2.65,-1.91 2.62,-0.95 2.58,0 2.54,0.30 2.50,0.61 2.39,0.90 2.28,1.20 2.11,1.45 1.93,1.71 1.70,1.92 1.46,2.12 1.19,2.27 0.91,2.41 0.61,2.49 0.31,2.56 -0.00,2.56 -0.31,2.56 -0.61,2.49 -0.91,2.41 -1.19,2.27 -1.46,2.12 -1.70,1.91 -1.93,1.71 -2.11,1.45 -2.28,1.20 -2.39,0.90 -2.50,0.61 -2.54,0.30 -2.58,-0.00 -2.58,-0.00 L -2.58,0 Z"></path></g><g transform="translate(459.99981689453125 150.83331298828125) rotate(0 -3.33331298828125 11.250030517578125)" stroke="none"><path fill="#1e1e1e" d="M -2.45,0.70 Q -2.45,0.70 -2.87,-0.99 -3.29,-2.68 -4.05,-3.94 -4.81,-5.20 -4.26,-3.41 -3.71,-1.61 -3.75,-0.43 -3.78,0.74 -3.88,2.44 -3.98,4.14 -3.97,5.34 -3.96,6.55 -3.87,8.35 -3.77,10.15 -3.44,11.29 -3.12,12.44 -2.79,14.26 -2.45,16.07 -2.24,17.38 -2.02,18.69 -1.32,20.61 -0.62,22.52 -0.38,23.66 -0.14,24.81 0.83,27.45 1.82,30.09 1.86,30.54 1.91,30.98 1.82,31.41 1.72,31.85 1.49,32.23 1.26,32.61 0.92,32.90 0.58,33.19 0.17,33.35 -0.24,33.52 -0.68,33.54 -1.13,33.57 -1.56,33.45 -1.99,33.33 -2.36,33.08 -2.72,32.83 -2.99,32.47 -3.26,32.12 -3.40,31.69 -3.55,31.27 -3.55,30.83 -3.55,30.38 -3.40,29.96 -3.26,29.54 -2.99,29.18 -2.72,28.83 -2.35,28.58 -1.98,28.33 -1.55,28.21 -1.12,28.09 -0.68,28.11 -0.23,28.14 0.17,28.30 0.58,28.47 0.92,28.76 1.26,29.05 1.49,29.43 1.72,29.81 1.82,30.25 1.91,30.68 1.86,31.12 1.81,31.57 1.63,31.97 1.44,32.38 1.13,32.70 0.83,33.02 0.43,33.23 0.04,33.44 -0.39,33.51 -0.83,33.58 -1.27,33.51 -1.71,33.44 -2.10,33.23 -2.50,33.02 -2.80,32.70 -3.11,32.37 -3.30,31.97 -3.48,31.56 -3.48,31.56 -3.48,31.56 -4.07,29.73 -4.66,27.89 -5.06,25.99 -5.47,24.09 -5.82,22.92 -6.17,21.75 -6.48,20.55 -6.78,19.34 -6.90,18.20 -7.01,17.07 -7.44,15.37 -7.88,13.68 -8.23,12.21 -8.59,10.74 -8.97,8.63 -9.34,6.53 -9.33,5.31 -9.31,4.10 -9.39,2.35 -9.46,0.61 -9.43,-0.66 -9.41,-1.94 -9.02,-4.23 -8.63,-6.53 -7.76,-7.81 -6.89,-9.09 -5.76,-9.47 -4.63,-9.85 -3.09,-9.35 -1.54,-8.84 -0.55,-7.58 0.42,-6.33 0.90,-5.17 1.37,-4.02 1.91,-2.36 2.45,-0.70 2.50,-0.39 2.55,-0.09 2.52,0.21 2.50,0.52 2.40,0.81 2.30,1.10 2.13,1.36 1.97,1.62 1.75,1.83 1.52,2.04 1.26,2.20 0.99,2.35 0.69,2.43 0.40,2.52 0.09,2.53 -0.21,2.54 -0.51,2.48 -0.81,2.42 -1.09,2.28 -1.37,2.15 -1.61,1.95 -1.84,1.76 -2.03,1.51 -2.21,1.26 -2.33,0.98 -2.45,0.70 -2.45,0.70 L -2.45,0.70 Z"></path></g><g transform="translate(448.33319091796875 170) rotate(0 9.58331298828125 -1.25)" stroke="none"><path fill="#1e1e1e" d="M -0.24,-2.45 Q -0.24,-2.45 2.16,-2.54 4.57,-2.63 5.93,-2.97 7.29,-3.30 8.50,-3.52 9.71,-3.74 11.91,-3.93 14.11,-4.12 16.28,-4.60 18.45,-5.07 18.88,-5.12 19.31,-5.16 19.73,-5.07 20.16,-4.98 20.53,-4.75 20.90,-4.53 21.18,-4.20 21.46,-3.87 21.61,-3.47 21.77,-3.07 21.80,-2.63 21.82,-2.20 21.70,-1.78 21.59,-1.37 21.34,-1.01 21.10,-0.65 20.75,-0.39 20.41,-0.13 20.00,0.00 19.59,0.13 19.16,0.13 18.72,0.13 18.31,-0.00 17.90,-0.13 17.56,-0.40 17.22,-0.66 16.97,-1.02 16.73,-1.38 16.62,-1.79 16.50,-2.21 16.53,-2.64 16.55,-3.07 16.71,-3.48 16.87,-3.88 17.15,-4.21 17.43,-4.54 17.81,-4.76 18.18,-4.98 18.60,-5.07 19.02,-5.17 19.45,-5.12 19.88,-5.07 20.27,-4.89 20.67,-4.71 20.98,-4.41 21.29,-4.11 21.50,-3.73 21.70,-3.34 21.77,-2.92 21.84,-2.49 21.76,-2.06 21.69,-1.64 21.49,-1.25 21.29,-0.87 20.97,-0.58 20.66,-0.28 20.26,-0.10 19.87,0.07 19.87,0.07 19.87,0.07 17.05,0.47 14.23,0.87 13.15,0.85 12.08,0.84 10.17,0.91 8.27,0.98 6.64,1.33 5.00,1.67 2.62,2.06 0.24,2.45 -0.05,2.45 -0.34,2.44 -0.63,2.36 -0.92,2.28 -1.18,2.14 -1.44,2.00 -1.66,1.79 -1.88,1.59 -2.04,1.34 -2.20,1.10 -2.30,0.82 -2.40,0.53 -2.43,0.24 -2.46,-0.05 -2.42,-0.34 -2.38,-0.64 -2.27,-0.91 -2.16,-1.19 -1.98,-1.43 -1.81,-1.67 -1.58,-1.86 -1.35,-2.06 -1.09,-2.19 -0.82,-2.32 -0.53,-2.39 -0.24,-2.45 -0.24,-2.45 L -0.24,-2.45 Z"></path></g><g transform="translate(475.83319091796875 165.83331298828125) rotate(0 10 -2.0833282470703125)" stroke="none"><path fill="#1e1e1e" d="M -0.29,-2.35 Q -0.29,-2.35 1.63,-2.50 3.56,-2.66 4.63,-2.82 5.71,-2.99 7.00,-3.27 8.28,-3.54 11.26,-4.25 14.24,-4.95 16.86,-5.71 19.49,-6.47 19.87,-6.49 20.25,-6.51 20.62,-6.41 20.99,-6.31 21.31,-6.09 21.62,-5.88 21.85,-5.57 22.09,-5.27 22.21,-4.91 22.33,-4.54 22.33,-4.16 22.33,-3.78 22.21,-3.42 22.09,-3.05 21.85,-2.75 21.62,-2.44 21.30,-2.23 20.99,-2.01 20.62,-1.91 20.25,-1.81 19.87,-1.83 19.49,-1.85 19.13,-1.99 18.77,-2.13 18.48,-2.38 18.19,-2.63 17.99,-2.96 17.80,-3.29 17.71,-3.66 17.63,-4.03 17.67,-4.42 17.72,-4.80 17.88,-5.14 18.04,-5.49 18.30,-5.77 18.56,-6.05 18.90,-6.22 19.24,-6.40 19.62,-6.47 20.00,-6.53 20.37,-6.47 20.75,-6.40 21.09,-6.22 21.43,-6.04 21.69,-5.77 21.95,-5.49 22.11,-5.14 22.28,-4.79 22.32,-4.41 22.36,-4.03 22.27,-3.66 22.19,-3.28 21.99,-2.96 21.80,-2.63 21.51,-2.38 21.21,-2.13 20.86,-1.99 20.50,-1.85 20.50,-1.85 20.50,-1.85 17.83,-1.20 15.15,-0.55 13.41,-0.10 11.67,0.34 10.44,0.69 9.21,1.05 6.66,1.37 4.10,1.70 2.20,2.02 0.29,2.35 0.00,2.35 -0.27,2.35 -0.55,2.28 -0.83,2.21 -1.08,2.08 -1.33,1.95 -1.55,1.76 -1.76,1.57 -1.93,1.34 -2.09,1.10 -2.19,0.84 -2.30,0.57 -2.33,0.29 -2.37,0.00 -2.33,-0.27 -2.30,-0.55 -2.20,-0.82 -2.10,-1.09 -1.94,-1.33 -1.78,-1.56 -1.56,-1.75 -1.35,-1.94 -1.10,-2.08 -0.84,-2.21 -0.57,-2.28 -0.29,-2.35 -0.29,-2.35 L -0.29,-2.35 Z"></path></g><g transform="translate(487.49981689453125 162.5) rotate(0 1.25 8.75)" stroke="none"><path fill="#1e1e1e" d="M 2.55,-0.42 Q 2.55,-0.42 2.77,1.01 3.00,2.45 3.14,3.63 3.28,4.81 3.32,6.31 3.36,7.81 3.38,9.14 3.40,10.47 3.82,11.95 4.24,13.43 4.72,15.08 5.20,16.73 5.25,17.18 5.30,17.63 5.20,18.08 5.11,18.52 4.88,18.91 4.64,19.30 4.30,19.60 3.95,19.89 3.53,20.06 3.11,20.23 2.66,20.26 2.20,20.29 1.77,20.17 1.33,20.05 0.95,19.79 0.57,19.54 0.30,19.18 0.02,18.82 -0.12,18.39 -0.26,17.96 -0.27,17.51 -0.27,17.05 -0.12,16.62 0.01,16.19 0.28,15.83 0.56,15.47 0.93,15.21 1.31,14.95 1.74,14.83 2.18,14.71 2.63,14.73 3.09,14.75 3.51,14.92 3.93,15.08 4.28,15.38 4.63,15.67 4.86,16.06 5.10,16.44 5.20,16.89 5.30,17.33 5.25,17.78 5.20,18.23 5.01,18.65 4.83,19.06 4.51,19.39 4.20,19.72 3.80,19.94 3.40,20.15 2.95,20.23 2.51,20.30 2.06,20.23 1.61,20.16 1.21,19.95 0.81,19.74 0.49,19.41 0.18,19.08 -0.00,18.67 -0.20,18.26 -0.20,18.26 -0.20,18.26 -0.73,15.59 -1.26,12.93 -1.52,11.77 -1.79,10.61 -1.80,9.29 -1.82,7.97 -1.93,5.63 -2.04,3.29 -2.29,1.86 -2.55,0.42 -2.56,0.11 -2.57,-0.19 -2.51,-0.50 -2.45,-0.80 -2.32,-1.09 -2.19,-1.37 -1.99,-1.61 -1.79,-1.85 -1.55,-2.04 -1.30,-2.23 -1.01,-2.35 -0.72,-2.48 -0.42,-2.53 -0.11,-2.58 0.19,-2.55 0.50,-2.53 0.80,-2.43 1.09,-2.34 1.36,-2.17 1.62,-2.00 1.84,-1.78 2.06,-1.56 2.21,-1.29 2.37,-1.02 2.46,-0.72 2.55,-0.42 2.55,-0.42 L 2.55,-0.42 Z"></path></g><g transform="translate(650.8331909179688 231.66665649414062) rotate(0 -7.083251953125 2.916656494140625)" stroke="none"><path fill="#1e1e1e" d="M -2.54,0 Q -2.54,0 -2.56,-1.19 -2.58,-2.39 -2.78,-3.63 -2.98,-4.88 -3.62,-6.13 -4.25,-7.38 -5.37,-9.06 -6.48,-10.74 -7.55,-11.12 -8.62,-11.49 -8.98,-10.48 -9.33,-9.47 -9.67,-8.36 -10.01,-7.26 -10.48,-5.89 -10.95,-4.53 -11.22,-2.81 -11.50,-1.09 -11.59,0.43 -11.68,1.95 -11.70,3.31 -11.71,4.66 -11.56,6.28 -11.40,7.90 -11.06,8.97 -10.72,10.05 -10.34,11.55 -9.96,13.04 -8.37,16.05 -6.79,19.06 -6.70,19.46 -6.61,19.87 -6.66,20.28 -6.71,20.69 -6.88,21.06 -7.06,21.44 -7.34,21.73 -7.63,22.03 -7.99,22.22 -8.36,22.42 -8.77,22.48 -9.17,22.55 -9.58,22.48 -9.99,22.41 -10.35,22.21 -10.71,22.02 -11.00,21.72 -11.28,21.42 -11.45,21.04 -11.62,20.67 -11.66,20.26 -11.71,19.85 -11.62,19.44 -11.53,19.04 -11.31,18.69 -11.10,18.34 -10.78,18.07 -10.47,17.80 -10.08,17.65 -9.70,17.50 -9.29,17.48 -8.87,17.46 -8.48,17.57 -8.08,17.69 -7.74,17.92 -7.40,18.15 -7.15,18.48 -6.90,18.81 -6.77,19.20 -6.64,19.59 -6.64,20.01 -6.65,20.42 -6.78,20.81 -6.91,21.20 -7.17,21.53 -7.42,21.85 -7.76,22.08 -8.10,22.31 -8.50,22.42 -8.90,22.53 -9.31,22.51 -9.72,22.48 -10.10,22.33 -10.49,22.17 -10.80,21.91 -11.11,21.64 -11.32,21.28 -11.53,20.93 -11.53,20.93 -11.53,20.93 -12.59,18.67 -13.65,16.40 -14.07,15.31 -14.50,14.22 -14.88,12.75 -15.26,11.28 -15.59,9.88 -15.92,8.47 -16.22,6.51 -16.51,4.55 -16.46,3.13 -16.41,1.71 -16.34,0.08 -16.27,-1.53 -16.17,-3.85 -16.07,-6.16 -15.65,-7.53 -15.23,-8.90 -14.61,-10.84 -13.99,-12.78 -13.20,-13.77 -12.41,-14.76 -10.90,-15.63 -9.39,-16.51 -8.20,-16.45 -7.00,-16.40 -5.50,-15.86 -4.01,-15.32 -2.60,-13.49 -1.20,-11.66 -0.59,-10.63 0.01,-9.60 1.02,-7.69 2.02,-5.77 2.30,-4.09 2.58,-2.40 2.56,-1.20 2.54,0 2.50,0.30 2.46,0.60 2.36,0.89 2.25,1.18 2.07,1.43 1.90,1.68 1.67,1.88 1.44,2.09 1.17,2.23 0.90,2.37 0.60,2.45 0.30,2.52 -0.00,2.52 -0.30,2.52 -0.60,2.45 -0.90,2.37 -1.17,2.23 -1.44,2.09 -1.67,1.88 -1.90,1.68 -2.07,1.43 -2.25,1.18 -2.36,0.89 -2.46,0.60 -2.50,0.30 -2.54,-0.00 -2.54,-0.00 L -2.54,0 Z"></path></g><g transform="translate(631.6666870117188 243.33331298828125) rotate(0 12.91656494140625 -1.25)" stroke="none"><path fill="#1e1e1e" d="M -0.39,-2.35 Q -0.39,-2.35 1.04,-2.59 2.48,-2.84 4.67,-2.83 6.86,-2.83 8.31,-3.10 9.77,-3.37 11.25,-3.54 12.74,-3.70 13.90,-4.01 15.06,-4.31 16.20,-4.50 17.35,-4.70 19.09,-4.73 20.83,-4.77 23.32,-4.91 25.80,-5.05 26.21,-4.99 26.62,-4.93 26.99,-4.74 27.36,-4.55 27.64,-4.25 27.93,-3.95 28.11,-3.58 28.29,-3.21 28.34,-2.80 28.39,-2.38 28.30,-1.98 28.22,-1.57 28.01,-1.22 27.80,-0.86 27.48,-0.59 27.17,-0.32 26.79,-0.16 26.41,-0.00 25.99,0.02 25.58,0.04 25.18,-0.05 24.78,-0.16 24.43,-0.39 24.09,-0.62 23.83,-0.94 23.58,-1.27 23.44,-1.66 23.31,-2.05 23.30,-2.47 23.30,-2.88 23.43,-3.28 23.55,-3.67 23.80,-4.00 24.05,-4.33 24.39,-4.57 24.73,-4.81 25.13,-4.92 25.52,-5.04 25.94,-5.02 26.35,-5.00 26.74,-4.85 27.12,-4.70 27.44,-4.44 27.76,-4.17 27.98,-3.82 28.20,-3.47 28.29,-3.06 28.38,-2.66 28.34,-2.25 28.30,-1.84 28.13,-1.46 27.96,-1.08 27.68,-0.78 27.40,-0.47 27.03,-0.28 26.67,-0.08 26.26,-0.01 25.86,0.05 25.86,0.05 25.86,0.05 23.42,-0.00 20.98,-0.07 18.52,0.04 16.05,0.17 14.59,0.45 13.13,0.73 11.83,0.80 10.52,0.87 8.80,1.17 7.08,1.46 5.17,1.67 3.26,1.88 1.82,2.11 0.39,2.35 0.10,2.36 -0.18,2.37 -0.46,2.32 -0.74,2.26 -1.00,2.14 -1.26,2.01 -1.48,1.83 -1.71,1.65 -1.88,1.42 -2.05,1.20 -2.17,0.93 -2.28,0.67 -2.33,0.38 -2.38,0.10 -2.35,-0.18 -2.33,-0.46 -2.24,-0.74 -2.15,-1.01 -2.00,-1.25 -1.85,-1.50 -1.64,-1.69 -1.43,-1.89 -1.19,-2.04 -0.94,-2.18 -0.66,-2.27 -0.39,-2.35 -0.39,-2.35 L -0.39,-2.35 Z"></path></g></svg>