<svg version="1.1" xmlns="http://www.w3.org/2000/svg" viewBox="0 0 685.6894933657728 269.00220459421985" width="685.6894933657728" height="269.00220459421985" class="excalidraw-svg"><!-- svg-source:excalidraw --><metadata></metadata><defs><style class="style-fonts">
      </style></defs><g stroke-linecap="round"><g transform="translate(85.68949336577282 140) rotate(0 -37 18.5)"><path d="M0 0 C-6.83 1.17, -28.67 0.83, -41 7 C-53.33 13.17, -68.5 32, -74 37 M0 0 C-6.83 1.17, -28.67 0.83, -41 7 C-53.33 13.17, -68.5 32, -74 37" stroke="#1971c2" stroke-width="4" fill="none"></path></g><g transform="translate(85.68949336577282 140) rotate(0 -37 18.5)"><path d="M-74 37 L-69.15 22.8 L-60.01 31.59 L-74 37" stroke="none" stroke-width="0" fill="#1971c2" fill-rule="evenodd"></path><path d="M-74 37 C-72.69 33.16, -71.38 29.33, -69.15 22.8 M-74 37 C-72.6 32.9, -71.2 28.8, -69.15 22.8 M-69.15 22.8 C-66.43 25.42, -63.71 28.03, -60.01 31.59 M-69.15 22.8 C-66.55 25.31, -63.94 27.81, -60.01 31.59 M-60.01 31.59 C-65.04 33.53, -70.06 35.48, -74 37 M-60.01 31.59 C-64.45 33.3, -68.89 35.02, -74 37 M-74 37 C-74 37, -74 37, -74 37 M-74 37 C-74 37, -74 37, -74 37" stroke="#1971c2" stroke-width="4" fill="none"></path></g></g><mask></mask><g stroke-linecap="round"><g transform="translate(11.689493365772819 191) rotate(0 15.65525331711359 28)"><path d="M0 0 C0.17 5, -4.5 20.67, 1 30 C6.5 39.33, 27.67 51.67, 33 56 M0 0 C0.17 5, -4.5 20.67, 1 30 C6.5 39.33, 27.67 51.67, 33 56" stroke="#1971c2" stroke-width="4" fill="none"></path></g><g transform="translate(11.689493365772819 191) rotate(0 15.65525331711359 28)"><path d="M33 56 L18.23 53.39 L25.5 43.01 L33 56" stroke="none" stroke-width="0" fill="#1971c2" fill-rule="evenodd"></path><path d="M33 56 C28.74 55.25, 24.47 54.49, 18.23 53.39 M33 56 C28.6 55.22, 24.21 54.45, 18.23 53.39 M18.23 53.39 C20.3 50.43, 22.37 47.47, 25.5 43.01 M18.23 53.39 C20.84 49.66, 23.46 45.93, 25.5 43.01 M25.5 43.01 C27.88 47.13, 30.26 51.25, 33 56 M25.5 43.01 C27.64 46.72, 29.78 50.43, 33 56 M33 56 C33 56, 33 56, 33 56 M33 56 C33 56, 33 56, 33 56" stroke="#1971c2" stroke-width="4" fill="none"></path></g></g><mask></mask><g stroke-linecap="round"><g transform="translate(57.68949336577282 248) rotate(0 40 5.0011022971099095)"><path d="M0 0 C6.83 1.83, 27.67 11.17, 41 11 C54.33 10.83, 73.5 1, 80 -1 M0 0 C6.83 1.83, 27.67 11.17, 41 11 C54.33 10.83, 73.5 1, 80 -1" stroke="#1971c2" stroke-width="4" fill="none"></path></g><g transform="translate(57.68949336577282 248) rotate(0 40 5.0011022971099095)"><path d="M80 -1 L69.66 9.87 L65.03 -1.93 L80 -1" stroke="none" stroke-width="0" fill="#1971c2" fill-rule="evenodd"></path><path d="M80 -1 C76.1 3.1, 72.19 7.21, 69.66 9.87 M80 -1 C77.49 1.64, 74.98 4.27, 69.66 9.87 M69.66 9.87 C68.32 6.44, 66.97 3.02, 65.03 -1.93 M69.66 9.87 C68.1 5.89, 66.54 1.92, 65.03 -1.93 M65.03 -1.93 C68.41 -1.72, 71.8 -1.51, 80 -1 M65.03 -1.93 C69.01 -1.69, 73 -1.44, 80 -1 M80 -1 C80 -1, 80 -1, 80 -1 M80 -1 C80 -1, 80 -1, 80 -1" stroke="#1971c2" stroke-width="4" fill="none"></path></g></g><mask></mask><g stroke-linecap="round"><g transform="translate(155.68949336577282 235) rotate(0 6.035926003852707 -29)"><path d="M0 0 C2 -4.33, 11.17 -16.33, 12 -26 C12.83 -35.67, 6.17 -52.67, 5 -58 M0 0 C2 -4.33, 11.17 -16.33, 12 -26 C12.83 -35.67, 6.17 -52.67, 5 -58" stroke="#1971c2" stroke-width="4" fill="none"></path></g><g transform="translate(155.68949336577282 235) rotate(0 6.035926003852707 -29)"><path d="M5 -58 L14.91 -46.74 L2.75 -43.17 L5 -58" stroke="none" stroke-width="0" fill="#1971c2" fill-rule="evenodd"></path><path d="M5 -58 C8.31 -54.24, 11.63 -50.47, 14.91 -46.74 M5 -58 C8.01 -54.58, 11.03 -51.15, 14.91 -46.74 M14.91 -46.74 C10.8 -45.53, 6.68 -44.33, 2.75 -43.17 M14.91 -46.74 C12.18 -45.94, 9.45 -45.14, 2.75 -43.17 M2.75 -43.17 C3.26 -46.54, 3.77 -49.91, 5 -58 M2.75 -43.17 C3.38 -47.35, 4.02 -51.52, 5 -58 M5 -58 C5 -58, 5 -58, 5 -58 M5 -58 C5 -58, 5 -58, 5 -58" stroke="#1971c2" stroke-width="4" fill="none"></path></g></g><mask></mask><g stroke-linecap="round"><g transform="translate(157.68949336577282 166) rotate(0 -30 -11)"><path d="M0 0 C-4.5 -2.67, -17 -12.33, -27 -16 C-37 -19.67, -54.5 -21, -60 -22 M0 0 C-4.5 -2.67, -17 -12.33, -27 -16 C-37 -19.67, -54.5 -21, -60 -22" stroke="#1971c2" stroke-width="4" fill="none"></path></g><g transform="translate(157.68949336577282 166) rotate(0 -30 -11)"><path d="M-60 -22 L-45.67 -26.45 L-47.39 -13.88 L-60 -22" stroke="none" stroke-width="0" fill="#1971c2" fill-rule="evenodd"></path><path d="M-60 -22 C-55.45 -23.41, -50.9 -24.82, -45.67 -26.45 M-60 -22 C-57.06 -22.91, -54.12 -23.82, -45.67 -26.45 M-45.67 -26.45 C-46.31 -21.77, -46.95 -17.1, -47.39 -13.88 M-45.67 -26.45 C-46.29 -21.9, -46.91 -17.35, -47.39 -13.88 M-47.39 -13.88 C-51.28 -16.39, -55.17 -18.89, -60 -22 M-47.39 -13.88 C-51.13 -16.29, -54.87 -18.7, -60 -22 M-60 -22 C-60 -22, -60 -22, -60 -22 M-60 -22 C-60 -22, -60 -22, -60 -22" stroke="#1971c2" stroke-width="4" fill="none"></path></g></g><mask></mask><g transform="translate(248.68949336577282 240) rotate(0 7.5 -15)" stroke="none"><path fill="#1971c2" d="M -2.16,1.08 Q -2.16,1.08 -2.76,-0.06 -3.35,-1.20 -3.86,-3.38 -4.37,-5.55 -4.64,-7.06 -4.92,-8.57 -4.99,-10.44 -5.07,-12.31 -4.84,-13.88 -4.61,-15.44 -4.82,-16.52 -5.03,-17.60 -5.25,-19.55 -5.48,-21.50 -6.00,-23.04 -6.52,-24.57 -6.41,-25.81 -6.30,-27.05 -5.63,-28.04 -4.96,-29.02 -3.34,-29.40 -1.71,-29.77 -0.34,-29.80 1.02,-29.83 2.74,-29.76 4.46,-29.69 5.82,-29.91 7.18,-30.13 8.85,-30.25 10.52,-30.36 12.20,-30.60 13.89,-30.84 15.79,-31.48 17.69,-32.12 18.07,-32.27 18.44,-32.42 18.84,-32.45 19.24,-32.47 19.63,-32.37 20.02,-32.26 20.36,-32.04 20.69,-31.82 20.94,-31.50 21.19,-31.18 21.32,-30.80 21.45,-30.42 21.45,-30.01 21.46,-29.61 21.33,-29.23 21.20,-28.85 20.96,-28.52 20.72,-28.20 20.39,-27.97 20.06,-27.74 19.67,-27.63 19.28,-27.52 18.88,-27.54 18.48,-27.56 18.10,-27.71 17.73,-27.85 17.42,-28.11 17.11,-28.37 16.90,-28.71 16.69,-29.06 16.60,-29.45 16.51,-29.84 16.55,-30.24 16.59,-30.64 16.76,-31.01 16.92,-31.38 17.20,-31.67 17.47,-31.97 17.83,-32.16 18.18,-32.35 18.58,-32.42 18.98,-32.48 19.37,-32.42 19.77,-32.36 20.13,-32.17 20.49,-31.99 20.77,-31.70 21.05,-31.41 21.22,-31.04 21.39,-30.68 21.44,-30.28 21.48,-29.88 21.40,-29.49 21.32,-29.09 21.11,-28.74 20.90,-28.40 20.60,-28.13 20.29,-27.87 20.30,-27.87 20.30,-27.87 17.53,-27.01 14.77,-26.14 12.86,-25.70 10.94,-25.26 9.54,-25.12 8.13,-24.98 6.33,-24.62 4.53,-24.25 2.86,-24.15 1.20,-24.04 0.03,-24.69 -1.13,-25.34 -0.77,-23.51 -0.41,-21.67 -0.42,-19.93 -0.42,-18.19 -0.26,-16.43 -0.11,-14.66 -0.37,-13.59 -0.64,-12.53 -0.52,-10.91 -0.40,-9.30 -0.23,-8.02 -0.05,-6.74 0.50,-5.07 1.05,-3.39 1.61,-2.23 2.16,-1.08 2.26,-0.80 2.35,-0.53 2.38,-0.24 2.41,0.04 2.37,0.33 2.33,0.62 2.22,0.89 2.11,1.16 1.94,1.40 1.77,1.63 1.55,1.82 1.33,2.01 1.07,2.14 0.81,2.27 0.52,2.34 0.24,2.40 -0.04,2.40 -0.33,2.39 -0.62,2.31 -0.90,2.24 -1.15,2.10 -1.41,1.96 -1.62,1.76 -1.84,1.56 -2.00,1.32 -2.16,1.08 -2.16,1.08 L -2.16,1.08 Z"></path></g><g transform="translate(247.68949336577282 228) rotate(0 7 -1)" stroke="none"><path fill="#1971c2" d="M -0.47,-2.37 Q -0.47,-2.37 0.96,-2.66 2.39,-2.94 3.79,-3.32 5.18,-3.70 6.85,-3.91 8.52,-4.12 11.21,-4.31 13.90,-4.49 14.30,-4.44 14.70,-4.39 15.06,-4.22 15.43,-4.04 15.72,-3.76 16.01,-3.48 16.19,-3.12 16.38,-2.76 16.44,-2.36 16.50,-1.96 16.42,-1.56 16.35,-1.16 16.16,-0.81 15.96,-0.45 15.66,-0.18 15.37,0.09 15.00,0.25 14.63,0.41 14.22,0.45 13.82,0.49 13.43,0.40 13.03,0.30 12.69,0.09 12.35,-0.11 12.09,-0.43 11.83,-0.74 11.69,-1.12 11.55,-1.49 11.53,-1.90 11.51,-2.30 11.63,-2.69 11.74,-3.08 11.97,-3.41 12.21,-3.74 12.53,-3.98 12.86,-4.22 13.24,-4.35 13.63,-4.47 14.03,-4.46 14.44,-4.46 14.82,-4.32 15.20,-4.19 15.52,-3.94 15.84,-3.69 16.06,-3.35 16.28,-3.01 16.38,-2.62 16.48,-2.23 16.46,-1.82 16.43,-1.42 16.27,-1.05 16.12,-0.67 15.85,-0.37 15.58,-0.06 15.23,0.13 14.89,0.33 14.49,0.41 14.09,0.49 14.09,0.49 14.09,0.49 11.58,0.56 9.07,0.63 7.76,0.77 6.46,0.91 4.90,1.35 3.35,1.79 1.91,2.08 0.47,2.37 0.18,2.39 -0.10,2.41 -0.39,2.36 -0.68,2.32 -0.95,2.20 -1.21,2.09 -1.45,1.91 -1.68,1.73 -1.86,1.51 -2.05,1.28 -2.17,1.02 -2.29,0.75 -2.35,0.47 -2.41,0.18 -2.39,-0.10 -2.38,-0.39 -2.30,-0.67 -2.22,-0.95 -2.07,-1.20 -1.92,-1.46 -1.72,-1.67 -1.52,-1.88 -1.27,-2.03 -1.02,-2.19 -0.75,-2.28 -0.47,-2.37 -0.47,-2.37 L -0.47,-2.37 Z"></path></g><g transform="translate(246.68949336577282 204) rotate(0 11.5 -6)" stroke="none"><path fill="#1971c2" d="M 0,-2.44 Q 0,-2.44 1.15,-2.47 2.3,-2.51 3.64,-2.52 4.99,-2.52 6.18,-2.78 7.38,-3.03 8.77,-3.40 10.15,-3.77 11.97,-4.17 13.79,-4.56 15.23,-4.81 16.68,-5.05 18.51,-5.66 20.34,-6.26 21.62,-6.46 22.89,-6.66 23.22,-6.65 23.54,-6.65 23.86,-6.57 24.18,-6.48 24.47,-6.33 24.76,-6.17 25.00,-5.95 25.24,-5.73 25.43,-5.46 25.61,-5.19 25.72,-4.88 25.83,-4.57 25.87,-4.24 25.90,-3.92 25.86,-3.59 25.82,-3.27 25.70,-2.96 25.58,-2.66 25.39,-2.39 25.20,-2.12 24.95,-1.91 24.70,-1.69 24.41,-1.55 24.12,-1.40 23.80,-1.32 23.48,-1.25 21.33,-1.70 19.18,-2.15 17.65,-3.47 16.12,-4.79 15.31,-5.90 14.51,-7.01 13.46,-8.76 12.42,-10.51 12.25,-10.96 12.08,-11.41 12.07,-11.89 12.05,-12.37 12.19,-12.83 12.32,-13.29 12.60,-13.68 12.88,-14.08 13.26,-14.36 13.65,-14.64 14.11,-14.79 14.57,-14.93 15.05,-14.93 15.53,-14.92 15.98,-14.76 16.43,-14.59 16.81,-14.30 17.19,-14.00 17.45,-13.59 17.71,-13.19 17.83,-12.73 17.95,-12.26 17.92,-11.78 17.88,-11.30 17.70,-10.86 17.51,-10.42 17.19,-10.06 16.88,-9.70 16.46,-9.46 16.04,-9.22 15.57,-9.12 15.10,-9.03 14.62,-9.09 14.15,-9.15 13.72,-9.36 13.28,-9.57 12.94,-9.90 12.60,-10.24 12.38,-10.67 12.16,-11.10 12.09,-11.57 12.03,-12.05 12.11,-12.52 12.20,-13.00 12.43,-13.42 12.66,-13.84 13.02,-14.16 13.37,-14.48 13.81,-14.68 14.25,-14.87 14.73,-14.91 15.21,-14.96 15.68,-14.85 16.15,-14.73 16.55,-14.48 16.96,-14.22 17.26,-13.85 17.57,-13.48 17.57,-13.48 17.57,-13.48 18.87,-11.23 20.18,-8.99 21.53,-7.82 22.89,-6.66 23.22,-6.65 23.54,-6.65 23.86,-6.57 24.18,-6.48 24.47,-6.33 24.76,-6.17 25.00,-5.95 25.24,-5.73 25.43,-5.46 25.61,-5.19 25.72,-4.88 25.83,-4.57 25.87,-4.25 25.90,-3.92 25.86,-3.59 25.82,-3.27 25.70,-2.96 25.58,-2.66 25.39,-2.39 25.20,-2.12 24.95,-1.91 24.70,-1.69 24.41,-1.55 24.12,-1.40 23.80,-1.32 23.48,-1.25 22.92,-1.26 22.37,-1.27 21.22,-1.20 20.06,-1.12 18.72,-0.74 17.38,-0.36 16.17,-0.21 14.95,-0.06 13.22,0.46 11.48,0.98 9.92,1.43 8.36,1.88 6.69,2.20 5.01,2.52 3.65,2.52 2.3,2.51 1.15,2.47 0,2.44 -0.29,2.40 -0.58,2.37 -0.86,2.26 -1.13,2.16 -1.37,1.99 -1.62,1.83 -1.81,1.60 -2.01,1.38 -2.14,1.12 -2.28,0.86 -2.35,0.58 -2.42,0.29 -2.42,-0.00 -2.42,-0.29 -2.35,-0.58 -2.28,-0.86 -2.14,-1.12 -2.01,-1.38 -1.81,-1.60 -1.62,-1.83 -1.37,-1.99 -1.13,-2.16 -0.86,-2.26 -0.58,-2.37 -0.29,-2.40 0.00,-2.44 0.00,-2.44 L 0,-2.44 Z"></path></g><g stroke-linecap="round"><g transform="translate(92.68949336577282 208) rotate(0 -1 -44.5)"><path d="M0 0 C-0.33 -14.83, -1.67 -74.17, -2 -89 M0 0 C-0.33 -14.83, -1.67 -74.17, -2 -89" stroke="#e03131" stroke-width="4" fill="none"></path></g><g transform="translate(92.68949336577282 208) rotate(0 -1 -44.5)"><path d="M-2 -89 L4.64 -75.55 L-8.03 -75.27 L-2 -89" stroke="none" stroke-width="0" fill="#e03131" fill-rule="evenodd"></path><path d="M-2 -89 C0.24 -84.46, 2.49 -79.92, 4.64 -75.55 M-2 -89 C0.08 -84.78, 2.17 -80.56, 4.64 -75.55 M4.64 -75.55 C1.3 -75.48, -2.04 -75.4, -8.03 -75.27 M4.64 -75.55 C-0.17 -75.44, -4.98 -75.33, -8.03 -75.27 M-8.03 -75.27 C-5.95 -80, -3.87 -84.73, -2 -89 M-8.03 -75.27 C-5.9 -80.13, -3.76 -84.99, -2 -89 M-2 -89 C-2 -89, -2 -89, -2 -89 M-2 -89 C-2 -89, -2 -89, -2 -89" stroke="#e03131" stroke-width="4" fill="none"></path></g></g><mask></mask><g transform="translate(191.68949336577282 142) rotate(0 17.5 11.5)" stroke="none"><path fill="#e03131" d="M 1.77,-1.01 Q 1.77,-1.01 2.84,1.04 3.90,3.10 4.72,4.53 5.53,5.97 6.64,8.03 7.75,10.09 8.79,12.16 9.84,14.24 10.84,16.28 11.84,18.32 12.83,19.99 13.83,21.67 14.56,22.54 15.29,23.41 16.13,21.90 16.98,20.39 18.26,18.59 19.54,16.80 20.68,14.92 21.82,13.04 23.24,11.03 24.66,9.01 26.17,7.26 27.69,5.52 28.86,4.16 30.03,2.81 31.07,1.62 32.11,0.43 30.20,0.05 28.29,-0.32 25.93,-0.58 23.58,-0.84 20.33,-0.70 17.08,-0.57 14.19,-0.53 11.29,-0.50 8.40,-0.22 5.52,0.05 2.45,0.87 -0.60,1.69 -0.88,1.70 -1.16,1.72 -1.43,1.65 -1.70,1.58 -1.94,1.42 -2.17,1.27 -2.35,1.05 -2.52,0.83 -2.61,0.56 -2.70,0.30 -2.71,0.02 -2.71,-0.25 -2.63,-0.52 -2.54,-0.79 -2.37,-1.01 -2.20,-1.24 -1.97,-1.40 -1.74,-1.56 -1.47,-1.64 -1.20,-1.72 -0.92,-1.71 -0.64,-1.69 -0.38,-1.59 -0.12,-1.49 0.09,-1.31 0.30,-1.14 0.45,-0.90 0.60,-0.66 0.66,-0.38 0.73,-0.11 0.70,0.16 0.67,0.44 0.56,0.69 0.44,0.95 0.25,1.16 0.06,1.36 -0.17,1.50 -0.42,1.63 -0.70,1.68 -0.97,1.73 -1.25,1.69 -1.53,1.65 -1.78,1.52 -2.03,1.39 -2.22,1.19 -2.42,0.99 -2.54,0.73 -2.66,0.48 -2.70,0.20 -2.73,-0.07 -2.67,-0.34 -2.62,-0.62 -2.47,-0.86 -2.33,-1.10 -2.12,-1.29 -1.91,-1.47 -1.65,-1.58 -1.39,-1.69 -1.39,-1.69 -1.39,-1.69 1.89,-2.35 5.18,-3.01 8.18,-3.39 11.18,-3.76 14.02,-3.91 16.86,-4.06 20.35,-4.36 23.83,-4.65 26.51,-4.57 29.18,-4.49 31.10,-4.14 33.02,-3.79 34.40,-3.09 35.79,-2.38 36.17,-1.09 36.55,0.20 35.62,1.55 34.69,2.89 33.58,3.96 32.47,5.03 31.28,6.27 30.08,7.52 28.74,9.19 27.41,10.85 26.17,12.81 24.93,14.77 23.88,16.83 22.83,18.89 21.65,20.94 20.48,23.00 19.51,24.24 18.53,25.47 17.46,26.16 16.39,26.84 14.48,26.21 12.58,25.58 11.87,24.41 11.16,23.25 10.13,21.49 9.09,19.74 8.02,17.76 6.95,15.78 5.83,13.82 4.71,11.86 3.44,9.83 2.16,7.80 1.42,6.37 0.69,4.94 -0.54,2.97 -1.77,1.01 -1.87,0.78 -1.96,0.56 -2.00,0.31 -2.04,0.07 -2.02,-0.17 -2.00,-0.41 -1.92,-0.65 -1.84,-0.88 -1.71,-1.09 -1.58,-1.30 -1.40,-1.47 -1.22,-1.64 -1.00,-1.76 -0.79,-1.88 -0.55,-1.95 -0.31,-2.02 -0.07,-2.03 0.17,-2.04 0.41,-1.98 0.65,-1.93 0.87,-1.83 1.10,-1.72 1.29,-1.56 1.48,-1.41 1.63,-1.21 1.77,-1.01 1.77,-1.01 L 1.77,-1.01 Z"></path></g><g transform="translate(240.68949336577282 147) rotate(0 9.5 9.5)" stroke="none"><path fill="#e03131" d="M 1.63,-1.08 Q 1.63,-1.08 2.71,0.66 3.79,2.42 5.21,3.58 6.63,4.74 9.03,6.78 11.43,8.82 13.03,10.29 14.63,11.76 16.17,13.26 17.72,14.77 19.05,15.61 20.38,16.46 20.61,16.56 20.85,16.66 21.04,16.83 21.23,17.00 21.35,17.23 21.48,17.45 21.53,17.70 21.58,17.95 21.54,18.21 21.51,18.46 21.39,18.69 21.28,18.92 21.10,19.10 20.92,19.28 20.69,19.39 20.46,19.51 20.21,19.54 19.95,19.58 19.70,19.53 19.45,19.48 19.23,19.35 19.00,19.23 18.83,19.04 18.66,18.85 18.56,18.61 18.46,18.38 18.44,18.12 18.42,17.87 18.48,17.62 18.54,17.37 18.68,17.15 18.82,16.94 19.02,16.78 19.22,16.62 19.46,16.53 19.70,16.44 19.95,16.43 20.21,16.43 20.45,16.50 20.70,16.58 20.91,16.73 21.11,16.88 21.26,17.08 21.41,17.29 21.49,17.54 21.56,17.78 21.56,18.04 21.55,18.29 21.46,18.53 21.37,18.77 21.21,18.97 21.05,19.17 20.84,19.31 20.62,19.45 20.37,19.51 20.12,19.57 19.87,19.55 19.61,19.53 19.61,19.53 19.61,19.53 17.66,18.21 15.71,16.89 14.16,15.46 12.62,14.03 11.01,12.65 9.40,11.28 6.96,9.33 4.51,7.39 2.66,5.93 0.80,4.47 -0.41,2.78 -1.63,1.08 -1.74,0.87 -1.84,0.66 -1.90,0.43 -1.95,0.20 -1.94,-0.03 -1.94,-0.26 -1.88,-0.49 -1.82,-0.72 -1.71,-0.93 -1.59,-1.14 -1.43,-1.31 -1.27,-1.49 -1.08,-1.62 -0.88,-1.75 -0.66,-1.83 -0.43,-1.91 -0.20,-1.93 0.03,-1.96 0.26,-1.93 0.50,-1.89 0.72,-1.81 0.94,-1.72 1.13,-1.58 1.32,-1.44 1.48,-1.26 1.63,-1.08 1.63,-1.08 L 1.63,-1.08 Z"></path></g><g transform="translate(242.68949336577282 164) rotate(0 9 -9.5)" stroke="none"><path fill="#e03131" d="M -1.48,-1.48 Q -1.48,-1.48 -0.66,-2.38 0.15,-3.29 1.75,-4.72 3.36,-6.15 5.17,-8.12 6.98,-10.09 9.01,-11.87 11.04,-13.64 12.42,-14.95 13.79,-16.26 14.80,-17.75 15.82,-19.24 15.98,-19.36 16.15,-19.48 16.34,-19.56 16.53,-19.64 16.73,-19.67 16.94,-19.71 17.14,-19.69 17.35,-19.67 17.54,-19.60 17.74,-19.54 17.91,-19.43 18.09,-19.31 18.23,-19.16 18.37,-19.02 18.47,-18.84 18.57,-18.66 18.63,-18.46 18.69,-18.26 18.69,-18.05 18.70,-17.85 18.66,-17.65 18.62,-17.44 18.53,-17.26 18.44,-17.07 18.30,-16.91 18.17,-16.75 17.39,-16.54 16.60,-16.33 16.35,-16.43 16.09,-16.54 15.88,-16.72 15.68,-16.91 15.54,-17.14 15.40,-17.38 15.34,-17.65 15.28,-17.93 15.32,-18.20 15.35,-18.48 15.47,-18.73 15.59,-18.98 15.79,-19.17 15.98,-19.37 16.22,-19.50 16.47,-19.62 16.74,-19.67 17.02,-19.71 17.29,-19.66 17.56,-19.61 17.81,-19.48 18.05,-19.34 18.24,-19.14 18.42,-18.94 18.54,-18.68 18.65,-18.43 18.68,-18.15 18.70,-17.88 18.64,-17.61 18.58,-17.34 18.43,-17.10 18.28,-16.87 18.07,-16.69 17.86,-16.52 17.60,-16.42 17.34,-16.32 17.06,-16.31 16.79,-16.30 16.52,-16.37 16.25,-16.45 16.03,-16.61 15.80,-16.77 15.64,-16.99 15.47,-17.21 15.39,-17.48 15.30,-17.74 15.31,-18.02 15.31,-18.30 15.40,-18.56 15.49,-18.82 15.66,-19.04 15.84,-19.25 16.07,-19.41 16.30,-19.56 16.57,-19.63 16.83,-19.70 16.33,-19.47 15.82,-19.24 15.98,-19.36 16.15,-19.48 16.34,-19.56 16.53,-19.64 16.73,-19.67 16.94,-19.71 17.14,-19.69 17.35,-19.67 17.54,-19.60 17.74,-19.54 17.91,-19.43 18.09,-19.31 18.23,-19.16 18.37,-19.02 18.47,-18.84 18.57,-18.66 18.63,-18.46 18.69,-18.26 18.69,-18.05 18.70,-17.85 18.66,-17.65 18.62,-17.44 18.53,-17.26 18.44,-17.07 18.30,-16.91 18.17,-16.75 17.13,-15.29 16.09,-13.83 14.69,-12.51 13.29,-11.18 11.50,-9.46 9.70,-7.74 7.93,-5.55 6.15,-3.36 4.72,-1.75 3.29,-0.15 2.38,0.66 1.48,1.48 1.28,1.64 1.08,1.79 0.85,1.90 0.62,2.00 0.37,2.05 0.12,2.09 -0.12,2.08 -0.37,2.06 -0.62,1.99 -0.86,1.91 -1.07,1.78 -1.29,1.65 -1.47,1.47 -1.65,1.29 -1.78,1.07 -1.91,0.86 -1.99,0.61 -2.06,0.37 -2.08,0.12 -2.09,-0.12 -2.05,-0.37 -2.00,-0.62 -1.90,-0.85 -1.79,-1.08 -1.64,-1.28 -1.48,-1.48 -1.48,-1.48 L -1.48,-1.48 Z"></path></g><g transform="translate(285.6894933657728 166) rotate(0 4.5 -14)" stroke="none"><path fill="#e03131" d="M -2.14,0.42 Q -2.14,0.42 -2.45,-1.00 -2.76,-2.43 -2.78,-4.94 -2.80,-7.44 -3.05,-10.09 -3.29,-12.75 -3.71,-14.37 -4.14,-15.99 -4.80,-18.11 -5.47,-20.23 -5.90,-21.47 -6.33,-22.71 -7.00,-23.96 -7.67,-25.22 -7.89,-26.89 -8.11,-28.57 -6.58,-29.50 -5.06,-30.42 -3.21,-30.56 -1.36,-30.70 0.17,-30.67 1.72,-30.64 3.24,-30.61 4.75,-30.58 6.68,-30.70 8.61,-30.83 10.43,-30.92 12.26,-31.02 14.07,-31.17 15.88,-31.33 16.25,-31.29 16.63,-31.25 16.97,-31.09 17.32,-30.93 17.59,-30.67 17.86,-30.40 18.04,-30.07 18.22,-29.73 18.28,-29.36 18.34,-28.99 18.27,-28.61 18.21,-28.24 18.03,-27.91 17.85,-27.57 17.58,-27.31 17.30,-27.05 16.96,-26.90 16.61,-26.74 16.24,-26.70 15.86,-26.66 15.49,-26.74 15.12,-26.82 14.80,-27.02 14.47,-27.22 14.23,-27.51 13.98,-27.80 13.85,-28.15 13.71,-28.50 13.69,-28.88 13.67,-29.26 13.77,-29.62 13.87,-29.99 14.09,-30.30 14.30,-30.61 14.60,-30.84 14.91,-31.07 15.27,-31.19 15.63,-31.31 16.00,-31.30 16.38,-31.30 16.74,-31.18 17.10,-31.06 17.40,-30.83 17.70,-30.60 17.91,-30.28 18.12,-29.97 18.22,-29.60 18.32,-29.24 18.30,-28.86 18.28,-28.48 18.14,-28.13 18.00,-27.78 17.75,-27.49 17.50,-27.21 17.18,-27.01 16.85,-26.82 16.48,-26.74 16.11,-26.66 16.11,-26.66 16.11,-26.66 14.34,-26.63 12.57,-26.61 10.90,-26.46 9.23,-26.31 7.00,-25.86 4.77,-25.40 3.25,-25.37 1.74,-25.34 0.22,-25.29 -1.28,-25.25 -2.42,-25.50 -3.55,-25.76 -3.13,-24.73 -2.71,-23.70 -2.49,-22.52 -2.27,-21.34 -1.43,-19.11 -0.58,-16.88 -0.14,-15.04 0.29,-13.20 0.73,-10.42 1.17,-7.65 1.39,-5.48 1.61,-3.31 1.88,-1.86 2.14,-0.42 2.16,-0.16 2.18,0.09 2.14,0.35 2.10,0.61 1.99,0.86 1.89,1.10 1.73,1.31 1.57,1.52 1.36,1.69 1.16,1.85 0.92,1.96 0.68,2.08 0.42,2.13 0.16,2.18 -0.09,2.17 -0.36,2.16 -0.61,2.08 -0.86,2.01 -1.09,1.87 -1.32,1.74 -1.51,1.56 -1.70,1.37 -1.84,1.15 -1.98,0.93 -2.06,0.68 -2.14,0.42 -2.14,0.42 L -2.14,0.42 Z"></path></g><g transform="translate(284.6894933657728 151) rotate(0 7 1)" stroke="none"><path fill="#e03131" d="M 0.28,-2.27 Q 0.28,-2.27 2.56,-1.86 4.85,-1.44 6.36,-1.35 7.86,-1.26 9.07,-1.26 10.28,-1.27 12.45,-0.76 14.63,-0.24 14.97,-0.08 15.31,0.07 15.59,0.33 15.86,0.59 16.03,0.92 16.21,1.26 16.27,1.63 16.33,2.00 16.27,2.38 16.20,2.75 16.03,3.08 15.85,3.41 15.57,3.67 15.30,3.93 14.95,4.09 14.61,4.25 14.24,4.29 13.86,4.33 13.49,4.24 13.12,4.16 12.80,3.96 12.48,3.77 12.23,3.48 11.99,3.19 11.85,2.84 11.71,2.49 11.69,2.11 11.67,1.73 11.78,1.37 11.88,1.01 12.09,0.69 12.31,0.38 12.61,0.16 12.91,-0.06 13.27,-0.18 13.63,-0.30 14.00,-0.30 14.38,-0.30 14.74,-0.18 15.10,-0.05 15.40,0.17 15.70,0.40 15.91,0.71 16.12,1.02 16.22,1.39 16.32,1.75 16.30,2.13 16.27,2.51 16.13,2.86 15.99,3.21 15.75,3.49 15.50,3.78 15.18,3.97 14.85,4.17 14.48,4.25 14.11,4.33 13.74,4.28 13.36,4.24 13.36,4.24 13.36,4.24 11.71,3.68 10.06,3.12 8.80,3.01 7.54,2.90 5.94,2.74 4.34,2.59 2.03,2.43 -0.28,2.27 -0.55,2.21 -0.82,2.14 -1.06,2.01 -1.31,1.88 -1.51,1.70 -1.72,1.51 -1.88,1.28 -2.03,1.06 -2.13,0.80 -2.23,0.54 -2.26,0.26 -2.29,-0.00 -2.26,-0.28 -2.22,-0.55 -2.12,-0.81 -2.02,-1.07 -1.87,-1.30 -1.71,-1.52 -1.50,-1.71 -1.29,-1.89 -1.05,-2.02 -0.80,-2.15 -0.53,-2.21 -0.26,-2.28 0.00,-2.27 0.28,-2.27 0.28,-2.27 L 0.28,-2.27 Z"></path></g><g stroke-linecap="round"><g transform="translate(381.0342400486592 199.49889770289008) rotate(0 -31 13.109375)"><path d="M0 0 C-6 -0.5, -25.67 -8.17, -36 -3 C-46.33 2.17, -57.67 25.33, -62 31 M0 0 C-6 -0.5, -25.67 -8.17, -36 -3 C-46.33 2.17, -57.67 25.33, -62 31" stroke="#1971c2" stroke-width="4" fill="none"></path></g><g transform="translate(381.0342400486592 199.49889770289008) rotate(0 -31 13.109375)"><path d="M-62 31 L-60.13 16.12 L-49.4 22.86 L-62 31" stroke="none" stroke-width="0" fill="#1971c2" fill-rule="evenodd"></path><path d="M-62 31 C-61.53 27.27, -61.06 23.54, -60.13 16.12 M-62 31 C-61.26 25.11, -60.52 19.21, -60.13 16.12 M-60.13 16.12 C-56.33 18.51, -52.52 20.9, -49.4 22.86 M-60.13 16.12 C-56.17 18.61, -52.21 21.09, -49.4 22.86 M-49.4 22.86 C-52.83 25.08, -56.25 27.29, -62 31 M-49.4 22.86 C-52.46 24.84, -55.53 26.82, -62 31 M-62 31 C-62 31, -62 31, -62 31 M-62 31 C-62 31, -62 31, -62 31" stroke="#1971c2" stroke-width="4" fill="none"></path></g></g><mask></mask><g stroke-linecap="round"><g transform="translate(363.0342400486592 213.49889770289008) rotate(0 1.3263896518693201 22)"><path d="M0 0 C-2.17 3.5, -15.67 13.67, -13 21 C-10.33 28.33, 11.17 40.17, 16 44 M0 0 C-2.17 3.5, -15.67 13.67, -13 21 C-10.33 28.33, 11.17 40.17, 16 44" stroke="#1971c2" stroke-width="4" fill="none"></path></g><g transform="translate(363.0342400486592 213.49889770289008) rotate(0 1.3263896518693201 22)"><path d="M16 44 L1.17 41.72 L8.22 31.18 L16 44" stroke="none" stroke-width="0" fill="#1971c2" fill-rule="evenodd"></path><path d="M16 44 C12.2 43.41, 8.39 42.83, 1.17 41.72 M16 44 C11.61 43.33, 7.23 42.65, 1.17 41.72 M1.17 41.72 C3.43 38.35, 5.68 34.97, 8.22 31.18 M1.17 41.72 C3.37 38.43, 5.57 35.13, 8.22 31.18 M8.22 31.18 C10.38 34.74, 12.54 38.3, 16 44 M8.22 31.18 C10.06 34.21, 11.9 37.25, 16 44 M16 44 C16 44, 16 44, 16 44 M16 44 C16 44, 16 44, 16 44" stroke="#1971c2" stroke-width="4" fill="none"></path></g></g><mask></mask><g stroke-linecap="round"><g transform="translate(369.0342400486592 232.49889770289008) rotate(0 34.5 -4.712888138258059)"><path d="M0 0 C5.67 1.33, 22.5 11, 34 8 C45.5 5, 63.17 -13.67, 69 -18 M0 0 C5.67 1.33, 22.5 11, 34 8 C45.5 5, 63.17 -13.67, 69 -18" stroke="#1971c2" stroke-width="4" fill="none"></path></g><g transform="translate(369.0342400486592 232.49889770289008) rotate(0 34.5 -4.712888138258059)"><path d="M69 -18 L62.94 -4.28 L54.59 -13.82 L69 -18" stroke="none" stroke-width="0" fill="#1971c2" fill-rule="evenodd"></path><path d="M69 -18 C66.95 -13.36, 64.9 -8.73, 62.94 -4.28 M69 -18 C67.66 -14.96, 66.31 -11.91, 62.94 -4.28 M62.94 -4.28 C60.19 -7.43, 57.43 -10.58, 54.59 -13.82 M62.94 -4.28 C60.4 -7.18, 57.87 -10.08, 54.59 -13.82 M54.59 -13.82 C60 -15.39, 65.41 -16.96, 69 -18 M54.59 -13.82 C59.48 -15.24, 64.36 -16.65, 69 -18 M69 -18 C69 -18, 69 -18, 69 -18 M69 -18 C69 -18, 69 -18, 69 -18" stroke="#1971c2" stroke-width="4" fill="none"></path></g></g><mask></mask><g stroke-linecap="round"><g transform="translate(400.0342400486592 224.49889770289008) rotate(0 11.757495114181467 -27.5)"><path d="M0 0 C3.83 -3.83, 20.33 -13.83, 23 -23 C25.67 -32.17, 17.17 -49.67, 16 -55 M0 0 C3.83 -3.83, 20.33 -13.83, 23 -23 C25.67 -32.17, 17.17 -49.67, 16 -55" stroke="#1971c2" stroke-width="4" fill="none"></path></g><g transform="translate(400.0342400486592 224.49889770289008) rotate(0 11.757495114181467 -27.5)"><path d="M16 -55 L26.34 -44.13 L14.32 -40.09 L16 -55" stroke="none" stroke-width="0" fill="#1971c2" fill-rule="evenodd"></path><path d="M16 -55 C20.03 -50.77, 24.06 -46.53, 26.34 -44.13 M16 -55 C18.6 -52.27, 21.2 -49.54, 26.34 -44.13 M26.34 -44.13 C21.91 -42.64, 17.48 -41.16, 14.32 -40.09 M26.34 -44.13 C22.41 -42.81, 18.49 -41.49, 14.32 -40.09 M14.32 -40.09 C14.86 -44.91, 15.4 -49.72, 16 -55 M14.32 -40.09 C14.66 -43.14, 15.01 -46.18, 16 -55 M16 -55 C16 -55, 16 -55, 16 -55 M16 -55 C16 -55, 16 -55, 16 -55" stroke="#1971c2" stroke-width="4" fill="none"></path></g></g><mask></mask><g stroke-linecap="round"><g transform="translate(412.0342400486592 200.49889770289008) rotate(0 -35 -10.5)"><path d="M0 0 C-4 -2.67, -12.33 -12.5, -24 -16 C-35.67 -19.5, -62.33 -20.17, -70 -21 M0 0 C-4 -2.67, -12.33 -12.5, -24 -16 C-35.67 -19.5, -62.33 -20.17, -70 -21" stroke="#1971c2" stroke-width="4" fill="none"></path></g><g transform="translate(412.0342400486592 200.49889770289008) rotate(0 -35 -10.5)"><path d="M-70 -21 L-55.99 -26.36 L-56.89 -13.72 L-70 -21" stroke="none" stroke-width="0" fill="#1971c2" fill-rule="evenodd"></path><path d="M-70 -21 C-66.77 -22.24, -63.55 -23.47, -55.99 -26.36 M-70 -21 C-65.38 -22.77, -60.76 -24.54, -55.99 -26.36 M-55.99 -26.36 C-56.25 -22.77, -56.5 -19.18, -56.89 -13.72 M-55.99 -26.36 C-56.21 -23.31, -56.42 -20.25, -56.89 -13.72 M-56.89 -13.72 C-61.91 -16.51, -66.93 -19.3, -70 -21 M-56.89 -13.72 C-60.49 -15.72, -64.1 -17.72, -70 -21 M-70 -21 C-70 -21, -70 -21, -70 -21 M-70 -21 C-70 -21, -70 -21, -70 -21" stroke="#1971c2" stroke-width="4" fill="none"></path></g></g><mask></mask><g stroke-linecap="round"><g transform="translate(383.0342400486592 222.49889770289008) rotate(0 -2.5 -102)"><path d="M0 0 C-0.83 -34, -4.17 -170, -5 -204 M0 0 C-0.83 -34, -4.17 -170, -5 -204" stroke="#e03131" stroke-width="4" fill="none"></path></g><g transform="translate(383.0342400486592 222.49889770289008) rotate(0 -2.5 -102)"><path d="M-5 -204 L1.67 -190.56 L-11 -190.25 L-5 -204" stroke="none" stroke-width="0" fill="#e03131" fill-rule="evenodd"></path><path d="M-5 -204 C-2.87 -199.7, -0.73 -195.4, 1.67 -190.56 M-5 -204 C-2.92 -199.8, -0.83 -195.61, 1.67 -190.56 M1.67 -190.56 C-1.85 -190.48, -5.37 -190.39, -11 -190.25 M1.67 -190.56 C-1.33 -190.49, -4.33 -190.42, -11 -190.25 M-11 -190.25 C-9.69 -193.27, -8.37 -196.29, -5 -204 M-11 -190.25 C-9.39 -193.96, -7.77 -197.66, -5 -204 M-5 -204 C-5 -204, -5 -204, -5 -204 M-5 -204 C-5 -204, -5 -204, -5 -204" stroke="#e03131" stroke-width="4" fill="none"></path></g></g><mask></mask><g stroke-linecap="round"><g transform="translate(402.1894933657728 214) rotate(0 -2.5 -102)"><path d="M0 0 C-0.83 -34, -4.17 -170, -5 -204 M0 0 C-0.83 -34, -4.17 -170, -5 -204" stroke="#e03131" stroke-width="4" fill="none"></path></g><g transform="translate(402.1894933657728 214) rotate(0 -2.5 -102)"><path d="M-5 -204 L1.67 -190.56 L-11 -190.25 L-5 -204" stroke="none" stroke-width="0" fill="#e03131" fill-rule="evenodd"></path><path d="M-5 -204 C-2.45 -198.87, 0.09 -193.75, 1.67 -190.56 M-5 -204 C-3.51 -200.99, -2.02 -197.99, 1.67 -190.56 M1.67 -190.56 C-1.73 -190.48, -5.12 -190.4, -11 -190.25 M1.67 -190.56 C-1.65 -190.48, -4.97 -190.4, -11 -190.25 M-11 -190.25 C-9.56 -193.55, -8.12 -196.85, -5 -204 M-11 -190.25 C-9.01 -194.82, -7.02 -199.38, -5 -204 M-5 -204 C-5 -204, -5 -204, -5 -204 M-5 -204 C-5 -204, -5 -204, -5 -204" stroke="#e03131" stroke-width="4" fill="none"></path></g></g><mask></mask><g stroke-linecap="round"><g transform="translate(363.1894933657728 216) rotate(0 -2.5 -102)"><path d="M0 0 C-0.83 -34, -4.17 -170, -5 -204 M0 0 C-0.83 -34, -4.17 -170, -5 -204" stroke="#e03131" stroke-width="4" fill="none"></path></g><g transform="translate(363.1894933657728 216) rotate(0 -2.5 -102)"><path d="M-5 -204 L1.67 -190.56 L-11 -190.25 L-5 -204" stroke="none" stroke-width="0" fill="#e03131" fill-rule="evenodd"></path><path d="M-5 -204 C-3.07 -200.12, -1.15 -196.24, 1.67 -190.56 M-5 -204 C-2.52 -199.01, -0.04 -194.02, 1.67 -190.56 M1.67 -190.56 C-3.19 -190.45, -8.05 -190.33, -11 -190.25 M1.67 -190.56 C-2.87 -190.45, -7.41 -190.34, -11 -190.25 M-11 -190.25 C-8.73 -195.45, -6.46 -200.65, -5 -204 M-11 -190.25 C-9.64 -193.38, -8.27 -196.51, -5 -204 M-5 -204 C-5 -204, -5 -204, -5 -204 M-5 -204 C-5 -204, -5 -204, -5 -204" stroke="#e03131" stroke-width="4" fill="none"></path></g></g><mask></mask><g stroke-linecap="round"><g transform="translate(113.68949336577282 195.5) rotate(0 -1 -44.5)"><path d="M0 0 C-0.33 -14.83, -1.67 -74.17, -2 -89 M0 0 C-0.33 -14.83, -1.67 -74.17, -2 -89" stroke="#e03131" stroke-width="4" fill="none"></path></g><g transform="translate(113.68949336577282 195.5) rotate(0 -1 -44.5)"><path d="M-2 -89 L4.64 -75.55 L-8.03 -75.27 L-2 -89" stroke="none" stroke-width="0" fill="#e03131" fill-rule="evenodd"></path><path d="M-2 -89 C-0.58 -86.13, 0.84 -83.25, 4.64 -75.55 M-2 -89 C0.27 -84.41, 2.53 -79.82, 4.64 -75.55 M4.64 -75.55 C0.4 -75.46, -3.84 -75.36, -8.03 -75.27 M4.64 -75.55 C1.15 -75.47, -2.34 -75.39, -8.03 -75.27 M-8.03 -75.27 C-6.44 -78.9, -4.84 -82.53, -2 -89 M-8.03 -75.27 C-5.9 -80.13, -3.76 -85, -2 -89 M-2 -89 C-2 -89, -2 -89, -2 -89 M-2 -89 C-2 -89, -2 -89, -2 -89" stroke="#e03131" stroke-width="4" fill="none"></path></g></g><mask></mask><g stroke-linecap="round"><g transform="translate(71.68949336577282 197.5) rotate(0 -1 -44.5)"><path d="M0 0 C-0.33 -14.83, -1.67 -74.17, -2 -89 M0 0 C-0.33 -14.83, -1.67 -74.17, -2 -89" stroke="#e03131" stroke-width="4" fill="none"></path></g><g transform="translate(71.68949336577282 197.5) rotate(0 -1 -44.5)"><path d="M-2 -89 L4.64 -75.55 L-8.03 -75.27 L-2 -89" stroke="none" stroke-width="0" fill="#e03131" fill-rule="evenodd"></path><path d="M-2 -89 C-0.08 -85.11, 1.85 -81.21, 4.64 -75.55 M-2 -89 C0.07 -84.81, 2.14 -80.62, 4.64 -75.55 M4.64 -75.55 C0.06 -75.45, -4.52 -75.35, -8.03 -75.27 M4.64 -75.55 C1.01 -75.47, -2.63 -75.39, -8.03 -75.27 M-8.03 -75.27 C-6.2 -79.43, -4.37 -83.6, -2 -89 M-8.03 -75.27 C-6.18 -79.49, -4.33 -83.71, -2 -89 M-2 -89 C-2 -89, -2 -89, -2 -89 M-2 -89 C-2 -89, -2 -89, -2 -89" stroke="#e03131" stroke-width="4" fill="none"></path></g></g><mask></mask><g transform="translate(586.6894933657728 103) rotate(0 -8.5 13.5)" stroke="none"><path fill="#935939" d="M 0.59,1.78 Q 0.59,1.78 -1.12,2.35 -2.84,2.92 -3.93,3.68 -5.02,4.45 -6.71,5.54 -8.39,6.64 -9.81,8.89 -11.23,11.15 -12.47,13.81 -13.70,16.48 -13.92,18.58 -14.14,20.69 -13.72,23.76 -13.30,26.83 -13.32,27.10 -13.34,27.38 -13.44,27.63 -13.54,27.89 -13.72,28.09 -13.91,28.30 -14.14,28.44 -14.38,28.58 -14.65,28.64 -14.92,28.70 -15.19,28.66 -15.47,28.63 -15.72,28.51 -15.96,28.39 -16.16,28.20 -16.36,28.01 -16.49,27.77 -16.61,27.52 -16.66,27.25 -16.70,26.98 -16.65,26.71 -16.60,26.44 -16.47,26.19 -16.34,25.95 -16.14,25.76 -15.94,25.58 -15.69,25.46 -15.43,25.35 -15.16,25.32 -14.89,25.30 -14.62,25.36 -14.35,25.42 -14.11,25.56 -13.88,25.71 -13.70,25.92 -13.53,26.13 -13.43,26.39 -13.33,26.65 -13.32,26.92 -13.30,27.20 -13.38,27.46 -13.46,27.73 -13.61,27.95 -13.77,28.18 -13.99,28.34 -14.21,28.51 -14.47,28.59 -14.74,28.68 -15.01,28.68 -15.29,28.67 -15.55,28.58 -15.81,28.49 -16.02,28.32 -16.24,28.15 -16.39,27.92 -16.55,27.69 -16.62,27.43 -16.69,27.16 -16.69,27.16 -16.69,27.16 -16.91,23.77 -17.13,20.39 -16.86,17.81 -16.59,15.24 -15.33,12.31 -14.07,9.37 -12.31,6.57 -10.55,3.77 -8.83,2.45 -7.10,1.12 -5.58,0.25 -4.05,-0.62 -2.32,-1.20 -0.59,-1.78 -0.37,-1.82 -0.15,-1.87 0.07,-1.86 0.30,-1.85 0.52,-1.79 0.73,-1.72 0.93,-1.61 1.13,-1.50 1.29,-1.34 1.45,-1.18 1.57,-0.99 1.69,-0.80 1.77,-0.59 1.84,-0.37 1.86,-0.14 1.87,0.07 1.84,0.30 1.80,0.52 1.71,0.73 1.62,0.94 1.49,1.12 1.35,1.30 1.17,1.44 1.00,1.58 0.79,1.68 0.59,1.78 0.59,1.78 L 0.59,1.78 Z"></path></g><g transform="translate(587.6894933657728 104) rotate(0 -2 23.5)" stroke="none"><path fill="#935939" d="M 2.13,0 Q 2.13,0 2.19,1.15 2.25,2.3 2.24,3.94 2.23,5.58 1.92,7.34 1.61,9.10 1.14,10.94 0.67,12.79 0.21,14.25 -0.24,15.72 -0.73,17.37 -1.23,19.03 -1.78,20.87 -2.33,22.72 -2.50,24.26 -2.68,25.79 -2.74,27.29 -2.80,28.78 -2.54,30.09 -2.28,31.39 -2.14,33.00 -2.00,34.61 -1.90,35.84 -1.80,37.07 -1.05,38.74 -0.30,40.41 0.15,41.80 0.62,43.18 1.05,44.81 1.48,46.43 1.50,46.84 1.53,47.25 1.42,47.65 1.31,48.05 1.08,48.39 0.86,48.74 0.53,48.99 0.20,49.24 -0.18,49.37 -0.57,49.51 -0.98,49.51 -1.39,49.51 -1.78,49.38 -2.17,49.25 -2.50,49.01 -2.83,48.76 -3.07,48.42 -3.30,48.08 -3.41,47.68 -3.53,47.29 -3.51,46.87 -3.49,46.46 -3.34,46.08 -3.19,45.70 -2.92,45.38 -2.66,45.06 -2.30,44.85 -1.95,44.63 -1.55,44.54 -1.15,44.45 -0.74,44.49 -0.33,44.54 0.04,44.71 0.41,44.88 0.71,45.16 1.01,45.44 1.21,45.80 1.40,46.17 1.47,46.57 1.54,46.98 1.48,47.39 1.41,47.79 1.22,48.16 1.03,48.52 0.73,48.81 0.44,49.09 0.06,49.27 -0.30,49.45 -0.71,49.49 -1.12,49.54 -1.52,49.45 -1.92,49.37 -2.28,49.16 -2.63,48.95 -2.90,48.63 -3.17,48.32 -3.32,47.94 -3.48,47.56 -3.48,47.56 -3.48,47.56 -3.74,46.15 -4.00,44.75 -4.46,43.38 -4.92,42.02 -5.30,40.84 -5.68,39.66 -6.00,38.49 -6.32,37.32 -6.31,36.11 -6.31,34.91 -6.38,33.49 -6.45,32.07 -6.69,30.32 -6.93,28.57 -6.81,26.93 -6.69,25.28 -6.45,23.50 -6.21,21.71 -5.77,19.79 -5.33,17.87 -4.86,16.08 -4.39,14.29 -3.93,13.07 -3.46,11.85 -3.11,10.07 -2.76,8.29 -2.50,6.93 -2.23,5.57 -2.24,3.93 -2.25,2.3 -2.19,1.15 -2.13,0 -2.10,-0.25 -2.07,-0.51 -1.98,-0.75 -1.88,-0.99 -1.74,-1.20 -1.59,-1.41 -1.40,-1.58 -1.21,-1.75 -0.98,-1.87 -0.75,-1.99 -0.50,-2.05 -0.25,-2.11 0.00,-2.11 0.25,-2.11 0.50,-2.05 0.75,-1.99 0.98,-1.87 1.21,-1.75 1.40,-1.58 1.59,-1.41 1.74,-1.20 1.88,-0.99 1.98,-0.75 2.07,-0.51 2.10,-0.25 2.13,0.00 2.13,0.00 L 2.13,0 Z"></path></g><g transform="translate(570.6894933657728 130) rotate(0 -0.5 6)" stroke="none"><path fill="#935939" d="M 2.52,-0.42 Q 2.52,-0.42 2.75,1.31 2.97,3.04 3.15,4.12 3.32,5.19 3.14,7.32 2.97,9.46 0.29,11.58 -2.38,13.71 -2.80,13.58 -3.23,13.44 -3.58,13.18 -3.94,12.92 -4.20,12.56 -4.46,12.20 -4.58,11.78 -4.71,11.35 -4.70,10.91 -4.68,10.46 -4.53,10.05 -4.37,9.63 -4.09,9.29 -3.81,8.95 -3.44,8.71 -3.06,8.47 -2.63,8.37 -2.20,8.26 -1.76,8.30 -1.32,8.34 -0.91,8.52 -0.51,8.69 -0.18,8.99 0.14,9.29 0.36,9.68 0.57,10.06 0.65,10.50 0.74,10.94 0.67,11.37 0.61,11.81 0.41,12.21 0.21,12.61 -0.09,12.92 -0.41,13.23 -0.81,13.42 -1.20,13.62 -1.64,13.68 -2.08,13.73 -2.52,13.65 -2.95,13.56 -3.34,13.34 -3.72,13.12 -4.02,12.79 -4.31,12.46 -4.49,12.05 -4.66,11.64 -4.69,11.20 -4.73,10.76 -4.62,10.33 -4.51,9.90 -4.27,9.53 -4.02,9.15 -3.68,8.88 -3.33,8.60 -2.91,8.45 -2.50,8.30 -2.05,8.29 -1.61,8.28 -1.61,8.28 -1.61,8.28 -1.64,7.67 -1.68,7.05 -1.75,5.45 -1.82,3.85 -2.17,2.13 -2.52,0.42 -2.54,0.11 -2.55,-0.19 -2.49,-0.49 -2.43,-0.80 -2.30,-1.08 -2.17,-1.36 -1.97,-1.60 -1.78,-1.84 -1.53,-2.02 -1.29,-2.21 -1.00,-2.33 -0.72,-2.46 -0.41,-2.51 -0.11,-2.56 0.19,-2.53 0.50,-2.51 0.79,-2.41 1.09,-2.32 1.35,-2.15 1.61,-1.99 1.82,-1.77 2.04,-1.54 2.19,-1.28 2.35,-1.01 2.44,-0.71 2.52,-0.42 2.52,-0.42 L 2.52,-0.42 Z"></path></g><g transform="translate(570.6894933657728 141) rotate(0 -16.5 -10)" stroke="none"><path fill="#935939" d="M 0,2.06 Q 0,2.06 -2.01,1.99 -4.02,1.92 -5.17,2.00 -6.32,2.08 -7.67,1.82 -9.01,1.56 -10.76,0.78 -12.50,0.00 -14.22,-1.32 -15.94,-2.65 -17.24,-3.75 -18.53,-4.86 -19.95,-6.63 -21.36,-8.40 -22.52,-9.62 -23.67,-10.84 -24.76,-11.91 -25.85,-12.98 -26.73,-14.10 -27.62,-15.23 -28.56,-15.92 -29.50,-16.61 -30.66,-16.11 -31.83,-15.62 -32.24,-15.50 -32.65,-15.37 -33.07,-15.38 -33.50,-15.40 -33.90,-15.55 -34.30,-15.70 -34.64,-15.96 -34.97,-16.23 -35.20,-16.60 -35.43,-16.96 -35.53,-17.37 -35.63,-17.79 -35.60,-18.21 -35.56,-18.64 -35.39,-19.03 -35.22,-19.43 -34.93,-19.75 -34.65,-20.06 -34.27,-20.27 -33.90,-20.48 -33.48,-20.56 -33.06,-20.64 -32.63,-20.58 -32.21,-20.52 -31.83,-20.33 -31.44,-20.14 -31.14,-19.84 -30.84,-19.53 -30.65,-19.15 -30.46,-18.76 -30.41,-18.34 -30.35,-17.91 -30.43,-17.49 -30.51,-17.07 -30.73,-16.70 -30.94,-16.33 -31.26,-16.05 -31.58,-15.76 -31.97,-15.59 -32.36,-15.42 -32.79,-15.39 -33.22,-15.36 -33.63,-15.46 -34.05,-15.57 -34.41,-15.80 -34.77,-16.03 -35.04,-16.37 -35.30,-16.70 -35.45,-17.10 -35.60,-17.50 -35.61,-17.93 -35.62,-18.36 -35.49,-18.77 -35.36,-19.18 -35.11,-19.53 -34.86,-19.87 -34.51,-20.12 -34.16,-20.37 -34.16,-20.37 -34.16,-20.37 -31.64,-21.21 -29.12,-22.05 -28.00,-21.25 -26.88,-20.46 -25.53,-19.07 -24.18,-17.67 -23.58,-16.70 -22.98,-15.73 -21.93,-14.58 -20.88,-13.43 -19.71,-12.14 -18.53,-10.85 -17.18,-9.41 -15.82,-7.98 -14.65,-6.94 -13.49,-5.91 -12.12,-4.93 -10.75,-3.94 -8.52,-3.01 -6.29,-2.08 -5.15,-2.00 -4.02,-1.92 -2.01,-1.99 0,-2.06 0.24,-2.03 0.49,-2.00 0.72,-1.92 0.96,-1.83 1.16,-1.69 1.37,-1.54 1.53,-1.36 1.70,-1.17 1.81,-0.95 1.93,-0.73 1.99,-0.49 2.05,-0.24 2.05,0.00 2.05,0.24 1.99,0.49 1.93,0.73 1.81,0.95 1.70,1.17 1.53,1.36 1.37,1.54 1.16,1.69 0.96,1.83 0.72,1.92 0.49,2.00 0.24,2.03 -0.00,2.06 -0.00,2.06 L 0,2.06 Z"></path></g><g transform="translate(538.6894933657728 136) rotate(0 -4 5.5)" stroke="none"><path fill="#935939" d="M 1.93,1.54 Q 1.93,1.54 0.72,2.93 -0.48,4.32 -1.25,5.28 -2.02,6.24 -3.01,8.04 -4.00,9.85 -4.81,10.98 -5.63,12.12 -5.87,12.47 -6.11,12.82 -6.45,13.07 -6.79,13.33 -7.20,13.46 -7.60,13.59 -8.02,13.59 -8.45,13.58 -8.85,13.44 -9.25,13.30 -9.59,13.04 -9.92,12.78 -10.16,12.42 -10.39,12.07 -10.50,11.66 -10.61,11.25 -10.58,10.83 -10.55,10.40 -10.39,10.01 -10.23,9.62 -9.95,9.30 -9.67,8.98 -9.30,8.76 -8.94,8.55 -8.52,8.46 -8.11,8.37 -7.69,8.42 -7.26,8.47 -6.88,8.66 -6.50,8.84 -6.19,9.14 -5.89,9.43 -5.69,9.81 -5.50,10.19 -5.43,10.61 -5.37,11.03 -5.44,11.44 -5.52,11.86 -5.72,12.23 -5.92,12.61 -6.24,12.90 -6.55,13.18 -6.93,13.36 -7.32,13.53 -7.74,13.57 -8.17,13.61 -8.58,13.52 -8.99,13.42 -9.36,13.20 -9.72,12.98 -9.99,12.65 -10.26,12.32 -10.41,11.93 -10.56,11.53 -10.58,11.10 -10.60,10.68 -10.48,10.27 -10.36,9.87 -10.36,9.87 -10.36,9.87 -9.36,8.55 -8.36,7.24 -7.77,6.24 -7.17,5.23 -6.42,4.16 -5.67,3.09 -4.89,2.26 -4.11,1.42 -3.02,-0.06 -1.93,-1.54 -1.72,-1.75 -1.50,-1.96 -1.25,-2.11 -0.99,-2.27 -0.70,-2.35 -0.42,-2.44 -0.12,-2.45 0.17,-2.47 0.46,-2.41 0.76,-2.35 1.03,-2.23 1.30,-2.10 1.53,-1.92 1.77,-1.73 1.95,-1.49 2.13,-1.26 2.25,-0.98 2.37,-0.71 2.42,-0.41 2.47,-0.12 2.45,0.17 2.43,0.47 2.34,0.75 2.25,1.04 2.09,1.29 1.93,1.54 1.93,1.54 L 1.93,1.54 Z"></path></g><g transform="translate(533.6894933657728 149) rotate(0 -3 13)" stroke="none"><path fill="#935939" d="M 2.32,0 Q 2.32,0 2.34,1.43 2.35,2.87 2.39,4.05 2.42,5.23 2.70,6.35 2.97,7.47 3.35,8.83 3.73,10.20 4.13,12.00 4.54,13.81 4.75,15.58 4.96,17.36 4.75,19.21 4.53,21.05 3.76,22.68 2.99,24.30 1.90,25.45 0.80,26.61 -0.85,27.23 -2.52,27.85 -3.83,27.96 -5.14,28.07 -6.77,27.06 -8.40,26.05 -9.34,24.14 -10.28,22.22 -10.64,20.45 -10.99,18.67 -11.27,17.00 -11.54,15.33 -11.53,14.92 -11.52,14.50 -11.37,14.11 -11.23,13.72 -10.97,13.40 -10.71,13.08 -10.35,12.85 -10.00,12.63 -9.60,12.53 -9.19,12.43 -8.78,12.47 -8.37,12.50 -7.98,12.67 -7.60,12.83 -7.29,13.11 -6.99,13.39 -6.78,13.75 -6.58,14.12 -6.50,14.53 -6.42,14.93 -6.48,15.35 -6.54,15.76 -6.73,16.13 -6.91,16.50 -7.21,16.80 -7.50,17.09 -7.88,17.27 -8.25,17.46 -8.66,17.51 -9.07,17.56 -9.48,17.48 -9.89,17.41 -10.25,17.20 -10.61,16.99 -10.89,16.68 -11.17,16.37 -11.33,15.99 -11.49,15.61 -11.52,15.19 -11.56,14.78 -11.45,14.37 -11.35,13.97 -11.13,13.62 -10.90,13.27 -10.58,13.01 -10.25,12.75 -9.86,12.61 -9.47,12.47 -9.05,12.46 -8.64,12.45 -8.24,12.57 -7.84,12.70 -7.51,12.94 -7.17,13.18 -6.93,13.52 -6.69,13.86 -6.57,14.26 -6.45,14.66 -6.45,14.66 -6.45,14.66 -6.29,16.20 -6.14,17.74 -5.93,18.96 -5.71,20.18 -5.08,21.83 -4.45,23.48 -3.36,23.23 -2.27,22.99 -1.10,21.67 0.06,20.36 0.25,19.11 0.45,17.87 0.27,16.42 0.09,14.97 -0.42,13.25 -0.94,11.53 -1.38,10.00 -1.82,8.48 -2.12,6.87 -2.42,5.25 -2.39,4.06 -2.35,2.87 -2.34,1.43 -2.32,0 -2.29,-0.27 -2.25,-0.55 -2.16,-0.81 -2.06,-1.08 -1.90,-1.31 -1.74,-1.54 -1.53,-1.72 -1.32,-1.91 -1.07,-2.04 -0.82,-2.17 -0.55,-2.24 -0.28,-2.31 0.00,-2.31 0.28,-2.31 0.55,-2.24 0.82,-2.17 1.07,-2.04 1.32,-1.91 1.53,-1.72 1.74,-1.54 1.90,-1.31 2.06,-1.08 2.16,-0.81 2.25,-0.55 2.29,-0.27 2.32,0.00 2.32,0.00 L 2.32,0 Z"></path></g><g transform="translate(535.6894933657728 123) rotate(0 -11.5 7.5)" stroke="none"><path fill="#935939" d="M 0.70,1.86 Q 0.70,1.86 -1.62,2.64 -3.94,3.41 -5.91,4.76 -7.88,6.12 -10.01,7.33 -12.15,8.55 -14.15,9.87 -16.15,11.20 -17.52,12.35 -18.88,13.50 -20.35,14.93 -21.82,16.35 -22.06,16.50 -22.31,16.65 -22.59,16.72 -22.88,16.78 -23.16,16.76 -23.45,16.73 -23.72,16.61 -23.98,16.49 -24.20,16.29 -24.41,16.10 -24.55,15.84 -24.69,15.59 -24.74,15.30 -24.79,15.02 -24.75,14.73 -24.70,14.44 -24.57,14.18 -24.44,13.93 -24.23,13.72 -24.02,13.52 -23.76,13.40 -23.50,13.27 -23.21,13.24 -22.92,13.20 -22.64,13.26 -22.35,13.32 -22.10,13.47 -21.85,13.61 -21.66,13.83 -21.47,14.05 -21.36,14.32 -21.25,14.59 -21.23,14.88 -21.21,15.17 -21.28,15.45 -21.36,15.73 -21.52,15.97 -21.68,16.21 -21.91,16.39 -22.14,16.57 -22.41,16.67 -22.68,16.76 -22.97,16.76 -23.26,16.77 -23.54,16.68 -23.82,16.59 -24.05,16.42 -24.28,16.24 -24.45,16.01 -24.61,15.77 -24.69,15.49 -24.78,15.21 -24.76,14.92 -24.75,14.63 -24.65,14.36 -24.54,14.09 -24.36,13.87 -24.17,13.64 -24.17,13.64 -24.17,13.64 -22.52,12.35 -20.87,11.05 -19.36,9.88 -17.85,8.71 -15.81,7.27 -13.76,5.83 -11.79,4.61 -9.82,3.39 -7.53,1.71 -5.25,0.03 -2.97,-0.91 -0.70,-1.86 -0.46,-1.92 -0.23,-1.98 0.00,-1.98 0.24,-1.97 0.48,-1.92 0.71,-1.86 0.92,-1.74 1.13,-1.63 1.31,-1.47 1.49,-1.31 1.63,-1.11 1.76,-0.92 1.85,-0.69 1.93,-0.47 1.96,-0.23 1.99,0.00 1.96,0.24 1.93,0.48 1.84,0.70 1.76,0.93 1.62,1.13 1.48,1.32 1.30,1.48 1.12,1.64 0.91,1.75 0.70,1.86 0.70,1.86 L 0.70,1.86 Z"></path></g><g transform="translate(522.6894933657728 164) rotate(0 -2 -11.5)" stroke="none"><path fill="#935939" d="M -2.37,0.59 Q -2.37,0.59 -2.68,-0.54 -3.00,-1.69 -3.40,-2.98 -3.79,-4.27 -4.23,-5.69 -4.67,-7.11 -5.10,-8.95 -5.53,-10.78 -5.75,-12.55 -5.97,-14.32 -6.10,-15.65 -6.23,-16.97 -6.31,-18.12 -6.40,-19.27 -5.85,-21.67 -5.31,-24.06 -5.08,-24.40 -4.85,-24.75 -4.52,-25.00 -4.19,-25.25 -3.80,-25.38 -3.41,-25.51 -3.00,-25.51 -2.59,-25.51 -2.20,-25.38 -1.80,-25.25 -1.48,-25.00 -1.15,-24.75 -0.91,-24.41 -0.68,-24.07 -0.57,-23.67 -0.46,-23.28 -0.48,-22.86 -0.50,-22.45 -0.65,-22.07 -0.81,-21.68 -1.07,-21.37 -1.34,-21.05 -1.69,-20.84 -2.05,-20.63 -2.45,-20.54 -2.85,-20.45 -3.26,-20.49 -3.67,-20.54 -4.05,-20.71 -4.42,-20.88 -4.72,-21.16 -5.02,-21.45 -5.22,-21.81 -5.41,-22.18 -5.48,-22.58 -5.55,-22.99 -5.48,-23.40 -5.41,-23.80 -5.22,-24.17 -5.03,-24.53 -4.73,-24.82 -4.43,-25.10 -4.06,-25.28 -3.68,-25.45 -3.27,-25.50 -2.86,-25.54 -2.46,-25.45 -2.06,-25.37 -1.70,-25.15 -1.35,-24.94 -1.08,-24.63 -0.81,-24.31 -0.66,-23.93 -0.51,-23.55 -0.48,-23.14 -0.46,-22.72 -0.57,-22.33 -0.68,-21.93 -0.68,-21.93 -0.68,-21.93 -1.08,-20.68 -1.48,-19.44 -1.49,-18.37 -1.50,-17.30 -1.46,-16.10 -1.41,-14.90 -1.22,-13.46 -1.03,-12.01 -0.49,-10.32 0.04,-8.63 0.52,-7.18 1.00,-5.72 1.43,-4.31 1.85,-2.90 2.11,-1.75 2.37,-0.59 2.40,-0.30 2.44,-0.00 2.40,0.28 2.37,0.57 2.27,0.85 2.16,1.12 2.00,1.37 1.83,1.61 1.61,1.81 1.39,2.00 1.13,2.14 0.87,2.28 0.58,2.35 0.30,2.42 0.00,2.42 -0.28,2.42 -0.57,2.35 -0.85,2.28 -1.12,2.15 -1.38,2.01 -1.60,1.82 -1.82,1.62 -1.99,1.38 -2.16,1.14 -2.26,0.86 -2.37,0.59 -2.37,0.59 L -2.37,0.59 Z"></path></g><g transform="translate(509.6894933657728 154) rotate(0 8 12.5)" stroke="none"><path fill="#935939" d="M 2.04,-0.81 Q 2.04,-0.81 2.62,0.62 3.21,2.06 3.53,3.75 3.85,5.45 4.12,7.82 4.39,10.19 4.79,11.99 5.19,13.78 5.85,15.62 6.51,17.46 7.36,18.69 8.21,19.91 9.07,20.57 9.93,21.22 11.17,21.81 12.40,22.40 13.71,22.11 15.01,21.82 15.38,21.72 15.76,21.62 16.14,21.64 16.53,21.67 16.89,21.81 17.24,21.96 17.54,22.21 17.83,22.46 18.03,22.80 18.22,23.13 18.30,23.51 18.38,23.89 18.34,24.27 18.29,24.65 18.13,25.00 17.96,25.35 17.69,25.63 17.42,25.91 17.08,26.09 16.74,26.27 16.36,26.32 15.97,26.38 15.59,26.32 15.21,26.25 14.87,26.07 14.53,25.88 14.27,25.60 14.01,25.32 13.85,24.97 13.69,24.61 13.65,24.23 13.61,23.84 13.70,23.47 13.78,23.09 13.99,22.76 14.19,22.43 14.49,22.18 14.78,21.94 15.14,21.80 15.50,21.66 15.89,21.64 16.28,21.62 16.65,21.73 17.02,21.84 17.34,22.06 17.65,22.28 17.88,22.59 18.12,22.90 18.24,23.26 18.36,23.63 18.35,24.02 18.35,24.40 18.22,24.77 18.10,25.13 17.86,25.44 17.62,25.74 17.30,25.96 16.98,26.17 16.98,26.17 16.98,26.17 14.00,26.47 11.01,26.76 9.12,25.46 7.23,24.16 6.17,23.05 5.12,21.94 4.16,20.36 3.21,18.79 2.33,16.74 1.46,14.70 0.95,12.77 0.44,10.85 -0.06,8.52 -0.58,6.18 -0.74,4.93 -0.91,3.68 -1.47,2.25 -2.04,0.81 -2.10,0.56 -2.17,0.30 -2.18,0.03 -2.18,-0.22 -2.12,-0.48 -2.06,-0.74 -1.95,-0.97 -1.83,-1.21 -1.65,-1.41 -1.48,-1.61 -1.27,-1.77 -1.05,-1.92 -0.81,-2.02 -0.56,-2.12 -0.30,-2.16 -0.03,-2.19 0.22,-2.17 0.48,-2.14 0.73,-2.05 0.98,-1.96 1.20,-1.81 1.42,-1.67 1.60,-1.47 1.78,-1.28 1.91,-1.04 2.04,-0.81 2.04,-0.81 L 2.04,-0.81 Z"></path></g><g transform="translate(501.6894933657728 163) rotate(0 9 9.5)" stroke="none"><path fill="#935939" d="M 2.13,-1.06 Q 2.13,-1.06 2.73,0.07 3.33,1.21 4.09,4.24 4.84,7.27 5.42,8.98 5.99,10.69 6.56,11.95 7.14,13.21 7.68,14.27 8.22,15.33 9.53,15.76 10.85,16.18 12.73,16.26 14.61,16.34 16.33,16.34 18.04,16.34 18.46,16.42 18.89,16.50 19.26,16.71 19.64,16.91 19.93,17.23 20.22,17.55 20.39,17.94 20.56,18.33 20.60,18.76 20.64,19.19 20.54,19.60 20.44,20.02 20.21,20.38 19.98,20.75 19.65,21.02 19.32,21.29 18.92,21.44 18.52,21.59 18.09,21.61 17.66,21.63 17.25,21.50 16.84,21.38 16.49,21.13 16.14,20.89 15.88,20.54 15.63,20.19 15.50,19.79 15.37,19.38 15.38,18.95 15.39,18.52 15.53,18.11 15.68,17.71 15.94,17.37 16.21,17.04 16.57,16.80 16.93,16.57 17.34,16.46 17.76,16.35 18.18,16.39 18.61,16.42 19.01,16.58 19.40,16.75 19.72,17.03 20.05,17.32 20.26,17.69 20.48,18.06 20.56,18.48 20.64,18.90 20.59,19.33 20.54,19.75 20.35,20.14 20.16,20.52 19.86,20.83 19.56,21.13 19.18,21.33 18.80,21.52 18.37,21.58 17.95,21.65 17.95,21.65 17.95,21.65 16.13,21.56 14.32,21.48 13.19,21.37 12.07,21.26 10.83,21.05 9.59,20.84 7.95,20.23 6.31,19.61 5.27,18.45 4.22,17.30 3.71,16.08 3.20,14.87 2.66,13.48 2.12,12.09 1.42,10.28 0.72,8.48 -0.15,5.93 -1.03,3.38 -1.58,2.22 -2.13,1.06 -2.23,0.79 -2.32,0.52 -2.35,0.23 -2.38,-0.04 -2.34,-0.33 -2.30,-0.61 -2.19,-0.88 -2.09,-1.15 -1.92,-1.38 -1.75,-1.61 -1.53,-1.80 -1.31,-1.98 -1.05,-2.11 -0.80,-2.24 -0.52,-2.31 -0.24,-2.37 0.04,-2.36 0.33,-2.36 0.61,-2.28 0.88,-2.21 1.14,-2.07 1.39,-1.93 1.60,-1.74 1.81,-1.54 1.97,-1.30 2.13,-1.06 2.13,-1.06 L 2.13,-1.06 Z"></path></g><g transform="translate(498.6894933657728 176) rotate(0 7.5 5.5)" stroke="none"><path fill="#935939" d="M 2.41,-0.80 Q 2.41,-0.80 2.91,0.93 3.41,2.67 4.10,3.74 4.80,4.80 6.18,5.83 7.56,6.87 8.95,7.47 10.34,8.07 12.69,8.13 15.04,8.19 15.48,8.27 15.93,8.35 16.33,8.57 16.73,8.79 17.03,9.12 17.34,9.46 17.52,9.87 17.71,10.29 17.75,10.74 17.79,11.19 17.69,11.63 17.58,12.07 17.34,12.46 17.11,12.84 16.75,13.13 16.40,13.42 15.98,13.58 15.56,13.74 15.10,13.76 14.65,13.78 14.21,13.65 13.78,13.52 13.41,13.26 13.03,13.00 12.77,12.64 12.50,12.27 12.36,11.84 12.22,11.41 12.23,10.95 12.23,10.50 12.39,10.07 12.54,9.64 12.82,9.29 13.10,8.93 13.48,8.68 13.86,8.43 14.30,8.32 14.73,8.20 15.19,8.23 15.64,8.26 16.06,8.44 16.48,8.61 16.82,8.91 17.16,9.21 17.39,9.60 17.62,10.00 17.71,10.44 17.80,10.89 17.74,11.34 17.69,11.79 17.49,12.20 17.29,12.60 16.98,12.93 16.66,13.25 16.25,13.46 15.85,13.67 15.40,13.73 14.95,13.80 14.95,13.80 14.95,13.80 11.97,13.51 8.98,13.22 7.03,12.22 5.08,11.21 3.61,10.25 2.15,9.29 1.46,8.31 0.77,7.32 -0.16,5.77 -1.11,4.22 -1.76,2.51 -2.41,0.80 -2.48,0.50 -2.54,0.20 -2.53,-0.10 -2.51,-0.41 -2.43,-0.70 -2.34,-1.00 -2.19,-1.26 -2.03,-1.53 -1.82,-1.75 -1.61,-1.97 -1.35,-2.14 -1.09,-2.30 -0.80,-2.40 -0.50,-2.49 -0.20,-2.52 0.10,-2.54 0.40,-2.49 0.71,-2.44 0.99,-2.32 1.27,-2.20 1.52,-2.02 1.76,-1.83 1.96,-1.60 2.15,-1.36 2.28,-1.08 2.42,-0.80 2.42,-0.80 L 2.41,-0.80 Z"></path></g><g transform="translate(497.6894933657728 175) rotate(0 6.5 -15)" stroke="none"><path fill="#935939" d="M -2.38,0 Q -2.38,0 -2.34,-1.72 -2.30,-3.44 -2.23,-5.33 -2.17,-7.21 -2.20,-8.59 -2.24,-9.96 -2.29,-11.12 -2.34,-12.29 -2.01,-14.13 -1.68,-15.96 -1.26,-17.40 -0.84,-18.83 -0.37,-20.06 0.08,-21.29 0.97,-22.60 1.87,-23.90 3.06,-25.41 4.25,-26.91 5.27,-27.68 6.29,-28.44 7.71,-29.38 9.12,-30.32 9.91,-31.04 10.69,-31.76 11.03,-32.08 11.38,-32.41 11.80,-32.60 12.23,-32.80 12.70,-32.85 13.16,-32.89 13.62,-32.79 14.08,-32.69 14.48,-32.44 14.89,-32.20 15.19,-31.84 15.49,-31.48 15.66,-31.04 15.83,-30.61 15.86,-30.14 15.88,-29.67 15.75,-29.22 15.63,-28.76 15.36,-28.38 15.09,-27.99 14.72,-27.71 14.34,-27.42 13.90,-27.27 13.45,-27.13 12.98,-27.13 12.51,-27.13 12.07,-27.28 11.62,-27.43 11.25,-27.72 10.88,-28.01 10.62,-28.40 10.35,-28.79 10.23,-29.24 10.11,-29.69 10.13,-30.16 10.16,-30.63 10.34,-31.07 10.51,-31.50 10.82,-31.86 11.12,-32.22 11.53,-32.46 11.93,-32.70 12.39,-32.80 12.85,-32.90 13.32,-32.84 13.78,-32.79 14.21,-32.59 14.64,-32.39 14.98,-32.07 15.32,-31.74 15.53,-31.33 15.75,-30.91 15.83,-30.45 15.90,-29.98 15.82,-29.52 15.74,-29.05 15.52,-28.64 15.30,-28.23 15.30,-28.23 15.30,-28.23 13.26,-26.62 11.22,-25.02 10.27,-24.48 9.31,-23.94 8.18,-23.11 7.04,-22.27 5.79,-20.84 4.54,-19.40 4.09,-18.40 3.63,-17.39 3.23,-16.28 2.83,-15.17 2.58,-13.72 2.34,-12.27 2.29,-11.12 2.24,-9.96 2.20,-8.59 2.17,-7.21 2.23,-5.33 2.30,-3.44 2.34,-1.72 2.38,0 2.35,0.28 2.31,0.57 2.21,0.84 2.11,1.11 1.95,1.34 1.78,1.58 1.57,1.77 1.35,1.96 1.10,2.10 0.84,2.23 0.56,2.30 0.28,2.37 -0.00,2.37 -0.28,2.37 -0.56,2.30 -0.84,2.23 -1.10,2.10 -1.35,1.96 -1.57,1.77 -1.78,1.58 -1.95,1.34 -2.11,1.11 -2.21,0.84 -2.32,0.57 -2.35,0.28 -2.38,-0.00 -2.38,-0.00 L -2.38,0 Z"></path></g><g transform="translate(585.6894933657728 153) rotate(0 0 16)" stroke="none"><path fill="#935939" d="M 2.46,-0.41 Q 2.46,-0.41 2.69,1.32 2.92,3.05 3.08,4.44 3.23,5.83 3.54,7.08 3.86,8.33 4.06,9.64 4.26,10.95 4.36,12.10 4.47,13.25 4.75,14.35 5.03,15.45 5.22,16.73 5.40,18.01 5.49,19.17 5.58,20.33 5.30,21.74 5.02,23.16 4.58,24.34 4.15,25.52 3.60,26.49 3.05,27.45 2.28,28.78 1.50,30.10 0.39,31.82 -0.71,33.54 -1.02,33.87 -1.33,34.19 -1.72,34.40 -2.12,34.61 -2.56,34.68 -3.00,34.75 -3.44,34.68 -3.88,34.61 -4.27,34.40 -4.66,34.19 -4.97,33.87 -5.28,33.54 -5.46,33.14 -5.65,32.73 -5.70,32.29 -5.75,31.84 -5.65,31.41 -5.56,30.97 -5.33,30.59 -5.10,30.21 -4.76,29.92 -4.42,29.63 -4.00,29.47 -3.59,29.30 -3.14,29.28 -2.70,29.25 -2.27,29.37 -1.84,29.49 -1.47,29.74 -1.10,29.99 -0.83,30.35 -0.56,30.70 -0.42,31.13 -0.27,31.55 -0.27,32.00 -0.27,32.44 -0.42,32.86 -0.56,33.29 -0.83,33.64 -1.10,34.00 -1.47,34.25 -1.84,34.50 -2.27,34.62 -2.70,34.74 -3.14,34.71 -3.59,34.69 -4.00,34.52 -4.42,34.36 -4.76,34.07 -5.10,33.78 -5.33,33.40 -5.56,33.01 -5.65,32.58 -5.75,32.14 -5.70,31.70 -5.65,31.26 -5.46,30.85 -5.28,30.45 -5.28,30.45 -5.28,30.45 -4.25,29.02 -3.23,27.59 -2.10,25.53 -0.97,23.48 -0.36,22.01 0.24,20.54 0.14,18.59 0.03,16.64 -0.30,15.10 -0.65,13.56 -0.75,11.51 -0.86,9.46 -1.23,7.88 -1.59,6.29 -1.68,5.06 -1.77,3.84 -2.11,2.12 -2.46,0.41 -2.47,0.10 -2.49,-0.19 -2.43,-0.48 -2.37,-0.78 -2.24,-1.05 -2.11,-1.32 -1.92,-1.56 -1.73,-1.79 -1.49,-1.97 -1.25,-2.15 -0.98,-2.27 -0.70,-2.39 -0.40,-2.44 -0.11,-2.49 0.18,-2.47 0.48,-2.44 0.77,-2.35 1.06,-2.26 1.31,-2.10 1.57,-1.94 1.78,-1.72 1.99,-1.50 2.14,-1.24 2.29,-0.98 2.37,-0.69 2.46,-0.41 2.46,-0.41 L 2.46,-0.41 Z"></path></g><g transform="translate(593.6894933657728 193) rotate(0 1 6)" stroke="none"><path fill="#935939" d="M 2.23,-0.63 Q 2.23,-0.63 2.69,1.40 3.14,3.45 3.45,4.98 3.75,6.52 4.01,9.19 4.27,11.87 4.23,12.23 4.19,12.60 4.04,12.94 3.88,13.27 3.63,13.54 3.38,13.81 3.05,13.98 2.73,14.15 2.36,14.21 2.00,14.27 1.63,14.21 1.27,14.15 0.95,13.98 0.62,13.81 0.37,13.54 0.11,13.28 -0.03,12.94 -0.19,12.61 -0.23,12.24 -0.27,11.88 -0.19,11.52 -0.11,11.16 0.07,10.84 0.26,10.52 0.54,10.28 0.82,10.05 1.16,9.91 1.50,9.77 1.87,9.75 2.24,9.73 2.59,9.83 2.95,9.93 3.25,10.13 3.56,10.34 3.78,10.63 4.01,10.93 4.12,11.27 4.24,11.62 4.24,11.99 4.24,12.36 4.13,12.71 4.01,13.06 3.79,13.35 3.56,13.65 3.26,13.85 2.95,14.06 2.60,14.16 2.24,14.26 1.88,14.24 1.51,14.22 1.17,14.08 0.82,13.95 0.54,13.71 0.26,13.47 0.07,13.16 -0.11,12.84 -0.19,12.48 -0.27,12.12 -0.27,12.12 -0.27,12.12 -0.37,9.68 -0.48,7.24 -0.66,5.92 -0.84,4.59 -1.54,2.61 -2.23,0.63 -2.28,0.36 -2.32,0.08 -2.30,-0.19 -2.27,-0.47 -2.18,-0.73 -2.09,-1.00 -1.94,-1.24 -1.79,-1.47 -1.59,-1.67 -1.39,-1.86 -1.14,-2.00 -0.90,-2.14 -0.63,-2.21 -0.36,-2.29 -0.08,-2.30 0.19,-2.31 0.47,-2.26 0.74,-2.20 0.99,-2.08 1.25,-1.96 1.46,-1.78 1.68,-1.60 1.85,-1.37 2.01,-1.15 2.12,-0.89 2.23,-0.63 2.23,-0.63 L 2.23,-0.63 Z"></path></g><g transform="translate(548.6894933657728 150) rotate(0 -7.5 5.5)" stroke="none"><path fill="#935939" d="M 1.59,1.59 Q 1.59,1.59 -0.79,3.80 -3.17,6.02 -5.14,7.56 -7.10,9.10 -8.24,9.90 -9.37,10.71 -11.85,11.86 -14.32,13.01 -14.66,13.06 -15.00,13.12 -15.34,13.06 -15.68,13.00 -15.98,12.84 -16.29,12.68 -16.52,12.43 -16.76,12.18 -16.90,11.87 -17.04,11.56 -17.08,11.21 -17.11,10.87 -17.04,10.54 -16.96,10.20 -16.79,9.91 -16.61,9.61 -16.35,9.39 -16.08,9.17 -15.76,9.05 -15.44,8.92 -15.10,8.90 -14.76,8.88 -14.43,8.98 -14.10,9.07 -13.81,9.26 -13.53,9.46 -13.32,9.73 -13.12,10.01 -13.01,10.33 -12.90,10.66 -12.90,11.00 -12.90,11.35 -13.01,11.67 -13.12,12.00 -13.33,12.27 -13.54,12.54 -13.83,12.73 -14.11,12.93 -14.44,13.02 -14.77,13.11 -15.12,13.09 -15.46,13.07 -15.78,12.94 -16.10,12.81 -16.36,12.59 -16.62,12.36 -16.79,12.07 -16.97,11.77 -17.04,11.44 -17.12,11.10 -17.08,10.76 -17.04,10.42 -16.89,10.11 -16.75,9.80 -16.51,9.55 -16.27,9.30 -15.97,9.14 -15.67,8.98 -15.67,8.98 -15.67,8.98 -13.56,8.16 -11.45,7.33 -10.45,6.82 -9.45,6.30 -7.73,4.74 -6.02,3.17 -3.80,0.79 -1.59,-1.59 -1.38,-1.76 -1.16,-1.93 -0.92,-2.04 -0.67,-2.15 -0.40,-2.20 -0.13,-2.25 0.13,-2.23 0.40,-2.22 0.66,-2.14 0.92,-2.05 1.15,-1.91 1.39,-1.77 1.58,-1.58 1.77,-1.39 1.91,-1.15 2.05,-0.92 2.14,-0.66 2.22,-0.40 2.23,-0.13 2.25,0.13 2.20,0.40 2.15,0.67 2.04,0.92 1.93,1.16 1.76,1.38 1.59,1.59 1.59,1.59 L 1.59,1.59 Z"></path></g><g transform="translate(523.6894933657728 181) rotate(0 10.5 8)" stroke="none"><path fill="#935939" d="M 1.16,-2.32 Q 1.16,-2.32 2.31,-1.75 3.47,-1.19 4.54,-0.67 5.62,-0.15 6.86,0.78 8.11,1.72 9.84,3.25 11.57,4.78 13.04,6.47 14.50,8.17 15.51,8.99 16.52,9.81 17.43,10.89 18.34,11.96 20.09,12.52 21.85,13.09 22.29,13.30 22.73,13.51 23.08,13.85 23.43,14.19 23.66,14.63 23.88,15.07 23.95,15.55 24.03,16.04 23.94,16.52 23.85,17.00 23.62,17.43 23.38,17.86 23.02,18.19 22.66,18.53 22.21,18.73 21.77,18.93 21.28,18.97 20.79,19.02 20.31,18.91 19.83,18.80 19.42,18.54 19.00,18.28 18.69,17.90 18.38,17.52 18.20,17.06 18.03,16.61 18.01,16.12 17.99,15.63 18.12,15.16 18.26,14.68 18.54,14.28 18.82,13.88 19.22,13.59 19.61,13.30 20.08,13.15 20.55,13.00 21.04,13.00 21.53,13.01 21.99,13.17 22.45,13.34 22.84,13.64 23.22,13.94 23.49,14.35 23.76,14.76 23.89,15.23 24.01,15.71 23.98,16.20 23.95,16.69 23.76,17.14 23.57,17.59 23.25,17.96 22.93,18.33 22.50,18.58 22.08,18.83 21.60,18.93 21.12,19.02 20.63,18.96 20.14,18.90 20.14,18.90 20.14,18.90 17.87,17.96 15.60,17.01 14.35,15.76 13.11,14.51 11.46,12.91 9.81,11.31 8.81,10.02 7.81,8.73 6.98,7.92 6.14,7.12 4.69,5.85 3.23,4.57 2.18,4.03 1.12,3.49 -0.01,2.90 -1.16,2.32 -1.42,2.15 -1.68,1.98 -1.89,1.74 -2.11,1.51 -2.26,1.24 -2.41,0.96 -2.49,0.66 -2.57,0.36 -2.58,0.05 -2.58,-0.26 -2.51,-0.56 -2.44,-0.87 -2.30,-1.15 -2.16,-1.43 -1.96,-1.67 -1.76,-1.91 -1.50,-2.09 -1.25,-2.27 -0.96,-2.39 -0.67,-2.51 -0.36,-2.55 -0.05,-2.60 0.26,-2.56 0.57,-2.53 0.86,-2.43 1.16,-2.32 1.16,-2.32 L 1.16,-2.32 Z"></path></g><g transform="translate(550.6894933657728 200) rotate(0 2.5 0.5)" stroke="none"><path fill="#935939" d="M 0.45,-2.25 Q 0.45,-2.25 2.96,-1.80 5.47,-1.35 5.83,-1.21 6.19,-1.07 6.49,-0.83 6.79,-0.58 7.00,-0.25 7.21,0.06 7.30,0.44 7.39,0.82 7.35,1.21 7.32,1.59 7.16,1.95 7.01,2.30 6.74,2.59 6.48,2.88 6.14,3.06 5.80,3.25 5.42,3.32 5.04,3.39 4.66,3.34 4.27,3.28 3.93,3.11 3.58,2.93 3.31,2.65 3.04,2.38 2.87,2.03 2.70,1.68 2.65,1.30 2.60,0.91 2.67,0.53 2.75,0.15 2.94,-0.18 3.14,-0.51 3.43,-0.77 3.72,-1.03 4.08,-1.18 4.43,-1.33 4.82,-1.35 5.21,-1.38 5.58,-1.29 5.96,-1.19 6.29,-0.98 6.61,-0.77 6.85,-0.46 7.09,-0.16 7.22,0.20 7.35,0.56 7.36,0.95 7.37,1.34 7.25,1.71 7.13,2.08 6.91,2.39 6.68,2.70 6.36,2.93 6.04,3.15 5.67,3.26 5.30,3.37 4.91,3.36 4.52,3.35 4.52,3.35 4.52,3.35 2.03,2.80 -0.45,2.25 -0.71,2.16 -0.97,2.07 -1.21,1.93 -1.44,1.78 -1.63,1.58 -1.82,1.38 -1.96,1.14 -2.10,0.90 -2.18,0.64 -2.26,0.37 -2.27,0.10 -2.28,-0.17 -2.23,-0.44 -2.18,-0.71 -2.06,-0.96 -1.94,-1.21 -1.77,-1.43 -1.59,-1.64 -1.37,-1.81 -1.15,-1.98 -0.90,-2.09 -0.64,-2.20 -0.37,-2.24 -0.10,-2.29 0.17,-2.27 0.45,-2.25 0.45,-2.25 L 0.45,-2.25 Z"></path></g><g transform="translate(561.6894933657728 201) rotate(0 12 17)" stroke="none"><path fill="#935939" d="M 1.13,-1.45 Q 1.13,-1.45 3.67,0.61 6.22,2.68 7.68,4.20 9.14,5.73 10.63,7.89 12.13,10.06 13.91,13.32 15.69,16.58 16.98,18.78 18.28,20.98 19.41,23.11 20.55,25.23 21.60,27.29 22.66,29.34 24.01,31.23 25.37,33.12 25.47,33.36 25.58,33.60 25.60,33.86 25.62,34.13 25.56,34.38 25.49,34.64 25.35,34.86 25.21,35.08 25.00,35.25 24.80,35.42 24.55,35.51 24.30,35.60 24.04,35.60 23.77,35.61 23.52,35.53 23.27,35.46 23.06,35.30 22.84,35.15 22.69,34.93 22.53,34.72 22.46,34.47 22.38,34.22 22.39,33.95 22.39,33.69 22.48,33.44 22.57,33.19 22.74,32.99 22.91,32.78 23.13,32.64 23.35,32.50 23.61,32.43 23.86,32.37 24.13,32.39 24.39,32.41 24.63,32.52 24.87,32.62 25.07,32.80 25.27,32.97 25.40,33.20 25.53,33.43 25.58,33.69 25.63,33.95 25.59,34.21 25.55,34.47 25.44,34.71 25.32,34.95 25.13,35.13 24.95,35.32 24.71,35.44 24.47,35.56 24.21,35.59 23.95,35.63 23.69,35.58 23.43,35.53 23.20,35.40 22.97,35.27 22.80,35.07 22.62,34.87 22.62,34.87 22.62,34.87 21.41,32.75 20.20,30.62 19.14,28.60 18.07,26.58 16.93,24.53 15.79,22.47 14.43,20.26 13.07,18.04 11.32,14.96 9.57,11.88 8.16,9.96 6.75,8.04 5.44,6.70 4.12,5.36 1.49,3.41 -1.13,1.45 -1.29,1.30 -1.44,1.14 -1.56,0.95 -1.68,0.76 -1.74,0.55 -1.81,0.33 -1.82,0.11 -1.84,-0.10 -1.80,-0.32 -1.76,-0.54 -1.67,-0.74 -1.58,-0.94 -1.44,-1.12 -1.30,-1.30 -1.13,-1.43 -0.96,-1.57 -0.75,-1.66 -0.55,-1.76 -0.33,-1.80 -0.11,-1.84 0.10,-1.82 0.32,-1.81 0.53,-1.75 0.75,-1.68 0.94,-1.57 1.13,-1.45 1.13,-1.45 L 1.13,-1.45 Z"></path></g><g transform="translate(588.6894933657728 179) rotate(0 3 4.5)" stroke="none"><path fill="#935939" d="M 2.05,-1.02 Q 2.05,-1.02 2.84,0.73 3.64,2.49 4.30,3.77 4.97,5.05 6.30,6.19 7.63,7.34 7.85,7.64 8.08,7.95 8.19,8.31 8.30,8.67 8.29,9.04 8.29,9.42 8.16,9.78 8.03,10.13 7.79,10.43 7.56,10.72 7.24,10.93 6.93,11.13 6.56,11.22 6.20,11.32 5.82,11.29 5.45,11.26 5.10,11.11 4.75,10.96 4.47,10.71 4.19,10.46 4.00,10.14 3.81,9.81 3.74,9.44 3.67,9.07 3.72,8.70 3.76,8.32 3.93,7.98 4.10,7.65 4.36,7.38 4.63,7.11 4.96,6.94 5.30,6.77 5.67,6.72 6.05,6.67 6.42,6.73 6.79,6.80 7.12,6.99 7.44,7.17 7.70,7.45 7.95,7.73 8.10,8.08 8.25,8.42 8.29,8.80 8.32,9.17 8.23,9.54 8.14,9.90 7.94,10.22 7.74,10.54 7.45,10.78 7.15,11.02 6.80,11.15 6.45,11.28 6.07,11.29 5.69,11.31 5.33,11.20 4.97,11.09 4.66,10.87 4.36,10.65 4.36,10.65 4.36,10.65 2.72,8.86 1.08,7.07 0.44,5.74 -0.19,4.40 -1.12,2.71 -2.05,1.02 -2.14,0.76 -2.23,0.50 -2.26,0.23 -2.29,-0.04 -2.25,-0.31 -2.21,-0.59 -2.11,-0.85 -2.01,-1.10 -1.85,-1.33 -1.68,-1.55 -1.47,-1.73 -1.26,-1.91 -1.01,-2.03 -0.77,-2.16 -0.50,-2.22 -0.23,-2.28 0.04,-2.27 0.32,-2.27 0.58,-2.20 0.85,-2.13 1.09,-1.99 1.34,-1.86 1.54,-1.67 1.74,-1.48 1.90,-1.25 2.05,-1.02 2.05,-1.02 L 2.05,-1.02 Z"></path></g><g transform="translate(547.6894933657728 171) rotate(0 10 10)" stroke="none"><path fill="#935939" d="M 1.83,-0.61 Q 1.83,-0.61 2.39,1.11 2.96,2.84 3.52,4.07 4.09,5.30 4.83,6.96 5.58,8.63 6.88,10.37 8.18,12.10 9.77,13.38 11.37,14.65 12.94,15.80 14.51,16.94 17.49,17.60 20.46,18.26 20.73,18.38 20.99,18.50 21.20,18.70 21.42,18.89 21.56,19.15 21.69,19.40 21.74,19.69 21.79,19.98 21.75,20.27 21.70,20.55 21.57,20.81 21.44,21.07 21.23,21.27 21.02,21.47 20.76,21.60 20.49,21.72 20.20,21.76 19.91,21.79 19.63,21.73 19.34,21.67 19.09,21.52 18.84,21.38 18.65,21.16 18.46,20.94 18.35,20.67 18.24,20.40 18.22,20.11 18.21,19.82 18.28,19.54 18.36,19.25 18.52,19.01 18.68,18.77 18.91,18.59 19.14,18.41 19.41,18.32 19.69,18.22 19.98,18.22 20.27,18.22 20.55,18.31 20.82,18.40 21.06,18.57 21.29,18.75 21.46,18.99 21.62,19.22 21.70,19.50 21.78,19.78 21.77,20.08 21.76,20.37 21.65,20.64 21.54,20.91 21.36,21.13 21.17,21.36 20.92,21.51 20.68,21.66 20.39,21.73 20.11,21.79 19.82,21.76 19.53,21.73 19.53,21.73 19.53,21.73 16.11,20.68 12.69,19.62 11.02,18.45 9.35,17.28 7.38,15.81 5.40,14.34 3.73,12.33 2.05,10.32 1.19,8.57 0.33,6.82 -0.16,5.44 -0.66,4.05 -1.24,2.33 -1.83,0.61 -1.88,0.38 -1.92,0.15 -1.91,-0.07 -1.90,-0.31 -1.84,-0.53 -1.77,-0.75 -1.66,-0.96 -1.54,-1.16 -1.38,-1.33 -1.22,-1.49 -1.02,-1.62 -0.82,-1.74 -0.60,-1.82 -0.38,-1.89 -0.15,-1.91 0.07,-1.93 0.30,-1.89 0.53,-1.85 0.75,-1.76 0.96,-1.67 1.15,-1.53 1.34,-1.39 1.48,-1.21 1.63,-1.03 1.73,-0.82 1.83,-0.61 1.83,-0.61 L 1.83,-0.61 Z"></path></g><g stroke-linecap="round"><g transform="translate(501.6894933657728 131) rotate(0 -7.017606783260646 40.5)"><path d="M0 0 C-2.33 5.33, -13.33 18.5, -14 32 C-14.67 45.5, -5.67 72.83, -4 81 M0 0 C-2.33 5.33, -13.33 18.5, -14 32 C-14.67 45.5, -5.67 72.83, -4 81" stroke="#1971c2" stroke-width="4" fill="none"></path></g><g transform="translate(501.6894933657728 131) rotate(0 -7.017606783260646 40.5)"><path d="M-4 81 L-13.55 69.44 L-1.28 66.25 L-4 81" stroke="none" stroke-width="0" fill="#1971c2" fill-rule="evenodd"></path><path d="M-4 81 C-6.81 77.6, -9.62 74.19, -13.55 69.44 M-4 81 C-7.59 76.65, -11.18 72.31, -13.55 69.44 M-13.55 69.44 C-9.2 68.31, -4.85 67.18, -1.28 66.25 M-13.55 69.44 C-9.37 68.35, -5.19 67.26, -1.28 66.25 M-1.28 66.25 C-2.33 71.94, -3.38 77.62, -4 81 M-1.28 66.25 C-2.19 71.16, -3.09 76.08, -4 81 M-4 81 C-4 81, -4 81, -4 81 M-4 81 C-4 81, -4 81, -4 81" stroke="#1971c2" stroke-width="4" fill="none"></path></g></g><mask></mask><g stroke-linecap="round"><g transform="translate(547.6894933657728 155) rotate(0 64 -63)"><path d="M0 0 C21.33 -21, 106.67 -105, 128 -126 M0 0 C21.33 -21, 106.67 -105, 128 -126" stroke="#e03131" stroke-width="4" fill="none"></path></g><g transform="translate(547.6894933657728 155) rotate(0 64 -63)"><path d="M128 -126 L122.76 -111.95 L113.86 -120.98 L128 -126" stroke="none" stroke-width="0" fill="#e03131" fill-rule="evenodd"></path><path d="M128 -126 C126.4 -121.71, 124.8 -117.41, 122.76 -111.95 M128 -126 C126.49 -121.96, 124.98 -117.91, 122.76 -111.95 M122.76 -111.95 C119.57 -115.19, 116.38 -118.43, 113.86 -120.98 M122.76 -111.95 C120.53 -114.21, 118.3 -116.47, 113.86 -120.98 M113.86 -120.98 C118.49 -122.62, 123.13 -124.27, 128 -126 M113.86 -120.98 C118.54 -122.64, 123.22 -124.3, 128 -126 M128 -126 C128 -126, 128 -126, 128 -126 M128 -126 C128 -126, 128 -126, 128 -126" stroke="#e03131" stroke-width="4" fill="none"></path></g></g><mask></mask><g stroke-linecap="round"><g transform="translate(495.896049570506 97.43900913187834) rotate(32.724232930798124 -8.513390862220604 40.5)"><path d="M0 0 C-2.83 6.83, -16.33 27.5, -17 41 C-17.67 54.5, -6.17 74.33, -4 81 M0 0 C-2.83 6.83, -16.33 27.5, -17 41 C-17.67 54.5, -6.17 74.33, -4 81" stroke="#1971c2" stroke-width="4" fill="none"></path></g><g transform="translate(495.896049570506 97.43900913187834) rotate(32.724232930798124 -8.513390862220604 40.5)"><path d="M-4 81 L-15.2 71.02 L-3.56 66.01 L-4 81" stroke="none" stroke-width="0" fill="#1971c2" fill-rule="evenodd"></path><path d="M-4 81 C-8.13 77.32, -12.27 73.63, -15.2 71.02 M-4 81 C-6.34 78.91, -8.69 76.82, -15.2 71.02 M-15.2 71.02 C-12.02 69.65, -8.83 68.28, -3.56 66.01 M-15.2 71.02 C-10.97 69.2, -6.75 67.38, -3.56 66.01 M-3.56 66.01 C-3.65 69.21, -3.75 72.42, -4 81 M-3.56 66.01 C-3.65 69.1, -3.74 72.2, -4 81 M-4 81 C-4 81, -4 81, -4 81 M-4 81 C-4 81, -4 81, -4 81" stroke="#1971c2" stroke-width="4" fill="none"></path></g></g><mask></mask></svg>