<svg xmlns="http://www.w3.org/2000/svg" xmlns:xlink="http://www.w3.org/1999/xlink" x="0" y="0" width="662.5" height="204.296875" style="
        width:662.5px;
        height:204.296875px;
        background: transparent;
        fill: none;
">
        
        
        <svg xmlns="http://www.w3.org/2000/svg" class="role-diagram-draw-area"><g class="shapes-region" style="stroke: black; fill: none;"><g class="grouped-shape"><g class="arrow-line"><path class="connection real" stroke-dasharray="" d="  M230.17,57.54 L223.05,72.49" style="stroke: rgb(5, 63, 117); stroke-opacity: 0.38; stroke-width: 1; fill: none; fill-opacity: 1;"/><g stroke="none" fill="rgb(5,63,117)" fill-opacity="0.38" transform="matrix(0.42972327873220534,-0.9029606324284816,0.9029606324284816,0.42972327873220534,221.7601344127455,75.19655365462393)" style="stroke: none; fill: rgb(5, 63, 117); stroke-width: 1;"><path d=" M3.57,-1.72 L0,0 L3.57,1.72 Z"/></g></g><g class="arrow-line"><path class="connection real" stroke-dasharray="" d="  M220.43,84.34 L223.64,99.15" style="stroke: rgb(5, 63, 117); stroke-opacity: 0.38; stroke-width: 1; fill: none; fill-opacity: 1;"/><g stroke="none" fill="rgb(5,63,117)" fill-opacity="0.38" transform="matrix(-0.21234822792753574,-0.9771940595890027,0.9771940595890027,-0.21234822792753574,224.2801316286519,102.07775553633871)" style="stroke: none; fill: rgb(5, 63, 117); stroke-width: 1;"><path d=" M3.57,-1.72 L0,0 L3.57,1.72 Z"/></g></g><g class="arrow-line"><path class="connection real" stroke-dasharray="" d="  M228.09,108.33 L237.25,123.3" style="stroke: rgb(5, 63, 117); stroke-opacity: 0.38; stroke-width: 1; fill: none; fill-opacity: 1;"/><g stroke="none" fill="rgb(5,63,117)" fill-opacity="0.38" transform="matrix(-0.5217542969475595,-0.8530958056494933,0.8530958056494933,-0.5217542969475595,238.81142388893645,125.85583579530311)" style="stroke: none; fill: rgb(5, 63, 117); stroke-width: 1;"><path d=" M3.57,-1.72 L0,0 L3.57,1.72 Z"/></g></g><g class="arrow-line"><path class="connection real" stroke-dasharray="" d="  M244.33,130.23 L256.25,140.54" style="stroke: rgb(5, 63, 117); stroke-opacity: 0.38; stroke-width: 1; fill: none; fill-opacity: 1;"/><g stroke="none" fill="rgb(5,63,117)" fill-opacity="0.38" transform="matrix(-0.7560819707727034,-0.6544769311996144,0.6544769311996144,-0.7560819707727034,258.5146203585567,142.50601577402983)" style="stroke: none; fill: rgb(5, 63, 117); stroke-width: 1;"><path d=" M3.57,-1.72 L0,0 L3.57,1.72 Z"/></g></g><g class="arrow-line"><path class="connection real" stroke-dasharray="" d="  M215.23,63.86 L208.11,78.81" style="stroke: rgb(5, 63, 117); stroke-opacity: 0.38; stroke-width: 1; fill: none; fill-opacity: 1;"/><g stroke="none" fill="rgb(5,63,117)" fill-opacity="0.38" transform="matrix(0.42972327873220534,-0.9029606324284816,0.9029606324284816,0.42972327873220534,206.8242620254409,81.51763472237394)" style="stroke: none; fill: rgb(5, 63, 117); stroke-width: 1;"><path d=" M3.57,-1.72 L0,0 L3.57,1.72 Z"/></g></g><g class="arrow-line"><path class="connection real" stroke-dasharray="" d="  M205.49,90.66 L208.71,105.47" style="stroke: rgb(5, 63, 117); stroke-opacity: 0.38; stroke-width: 1; fill: none; fill-opacity: 1;"/><g stroke="none" fill="rgb(5,63,117)" fill-opacity="0.38" transform="matrix(-0.21234822792753574,-0.9771940595890027,0.9771940595890027,-0.21234822792753574,209.3442592413472,108.39883660408873)" style="stroke: none; fill: rgb(5, 63, 117); stroke-width: 1;"><path d=" M3.57,-1.72 L0,0 L3.57,1.72 Z"/></g></g><g class="arrow-line"><path class="connection real" stroke-dasharray="" d="  M213.15,114.65 L222.31,129.62" style="stroke: rgb(5, 63, 117); stroke-opacity: 0.38; stroke-width: 1; fill: none; fill-opacity: 1;"/><g stroke="none" fill="rgb(5,63,117)" fill-opacity="0.38" transform="matrix(-0.5217542969475595,-0.8530958056494933,0.8530958056494933,-0.5217542969475595,223.87555150163172,132.17691686305312)" style="stroke: none; fill: rgb(5, 63, 117); stroke-width: 1;"><path d=" M3.57,-1.72 L0,0 L3.57,1.72 Z"/></g></g><g class="arrow-line"><path class="connection real" stroke-dasharray="" d="  M229.53,136.85 L241.45,147.17" style="stroke: rgb(5, 63, 117); stroke-opacity: 0.38; stroke-width: 1; fill: none; fill-opacity: 1;"/><g stroke="none" fill="rgb(5,63,117)" fill-opacity="0.38" transform="matrix(-0.7560819707727034,-0.6544769311996144,0.6544769311996144,-0.7560819707727034,243.71729661269055,149.1302723438684)" style="stroke: none; fill: rgb(5, 63, 117); stroke-width: 1;"><path d=" M3.57,-1.72 L0,0 L3.57,1.72 Z"/></g></g><g class="arrow-line"><path class="connection real" stroke-dasharray="" d="  M309.39,47.14 L296.59,36.64" style="stroke: rgb(5, 63, 117); stroke-opacity: 0.38; stroke-width: 1; fill: none; fill-opacity: 1;"/><g stroke="none" fill="rgb(5,63,117)" fill-opacity="0.38" transform="matrix(0.7730658116770668,0.6343258238603233,-0.6343258238603233,0.7730658116770668,294.26811096717495,34.735545519846795)" style="stroke: none; fill: rgb(5, 63, 117); stroke-width: 1;"><path d=" M3.57,-1.72 L0,0 L3.57,1.72 Z"/></g></g><g class="arrow-line"><path class="connection real" stroke-dasharray="" d="  M260.79,33.05 L244.05,38.33" style="stroke: rgb(5, 63, 117); stroke-opacity: 0.38; stroke-width: 1; fill: none; fill-opacity: 1;"/><g stroke="none" fill="rgb(5,63,117)" fill-opacity="0.38" transform="matrix(0.9535593708335299,-0.3012051232890346,0.3012051232890346,0.9535593708335299,241.1914110271558,39.237686004137004)" style="stroke: none; fill: rgb(5, 63, 117); stroke-width: 1;"><path d=" M3.57,-1.72 L0,0 L3.57,1.72 Z"/></g></g><g class="arrow-line"><path class="connection real" stroke-dasharray="" d="  M235.93,43.4 L223.04,52.49" style="stroke: rgb(5, 63, 117); stroke-opacity: 0.38; stroke-width: 1; fill: none; fill-opacity: 1;"/><g stroke="none" fill="rgb(5,63,117)" fill-opacity="0.38" transform="matrix(0.8171448983351289,-0.5764323161697927,0.5764323161697927,0.8171448983351289,220.59344325557137,54.21821981825252)" style="stroke: none; fill: rgb(5, 63, 117); stroke-width: 1;"><path d=" M3.57,-1.72 L0,0 L3.57,1.72 Z"/></g></g><g class="arrow-line"><path class="connection real" stroke-dasharray="" d="  M243.73,53.54 L238.75,67.8" style="stroke: rgb(5, 63, 117); stroke-opacity: 0.38; stroke-width: 1; fill: none; fill-opacity: 1;"/><g stroke="none" fill="rgb(5,63,117)" fill-opacity="0.38" transform="matrix(0.32969064526278663,-0.9440890203927844,0.9440890203927844,0.32969064526278663,237.7616135281224,70.62894914289944)" style="stroke: none; fill: rgb(5, 63, 117); stroke-width: 1;"><path d=" M3.57,-1.72 L0,0 L3.57,1.72 Z"/></g></g><g class="arrow-line"><path class="connection real" stroke-dasharray="" d="  M267.86,44.27 L254.14,51.15" style="stroke: rgb(5, 63, 117); stroke-opacity: 0.38; stroke-width: 1; fill: none; fill-opacity: 1;"/><g stroke="none" fill="rgb(5,63,117)" fill-opacity="0.38" transform="matrix(0.8938414241512636,-0.4483832160900328,0.4483832160900328,0.8938414241512636,251.46316745941826,52.49314392630873)" style="stroke: none; fill: rgb(5, 63, 117); stroke-width: 1;"><path d=" M3.57,-1.72 L0,0 L3.57,1.72 Z"/></g></g><g class="arrow-line"><path class="connection real" stroke-dasharray="" d="  M292.88,43.72 L277.74,43.28" style="stroke: rgb(5, 63, 117); stroke-opacity: 0.38; stroke-width: 1; fill: none; fill-opacity: 1;"/><g stroke="none" fill="rgb(5,63,117)" fill-opacity="0.38" transform="matrix(0.9995803274764746,0.028968412487117012,-0.028968412487117012,0.9995803274764746,274.74040672276635,43.197162263345234)" style="stroke: none; fill: rgb(5, 63, 117); stroke-width: 1;"><path d=" M3.57,-1.72 L0,0 L3.57,1.72 Z"/></g></g><g class="arrow-line"><path class="connection real" stroke-dasharray="" d="  M233.96,77.06 L237.25,91.31" style="stroke: rgb(5, 63, 117); stroke-opacity: 0.38; stroke-width: 1; fill: none; fill-opacity: 1;"/><g stroke="none" fill="rgb(5,63,117)" fill-opacity="0.38" transform="matrix(-0.22495105434386525,-0.9743700647852351,0.9743700647852351,-0.22495105434386525,237.91976599307586,94.2319967169285)" style="stroke: none; fill: rgb(5, 63, 117); stroke-width: 1;"><path d=" M3.57,-1.72 L0,0 L3.57,1.72 Z"/></g></g><g class="arrow-line"><path class="connection real" stroke-dasharray="" d="  M240.1,101.74 L249.49,113.95" style="stroke: rgb(5, 63, 117); stroke-opacity: 0.38; stroke-width: 1; fill: none; fill-opacity: 1;"/><g stroke="none" fill="rgb(5,63,117)" fill-opacity="0.38" transform="matrix(-0.6093151457290582,-0.7929281513385539,0.7929281513385539,-0.6093151457290582,251.31659090264048,116.32957260480009)" style="stroke: none; fill: rgb(5, 63, 117); stroke-width: 1;"><path d=" M3.57,-1.72 L0,0 L3.57,1.72 Z"/></g></g><g class="arrow-line"><path class="connection real" stroke-dasharray="" d="  M255.54,121.07 L267.46,131.39" style="stroke: rgb(5, 63, 117); stroke-opacity: 0.38; stroke-width: 1; fill: none; fill-opacity: 1;"/><g stroke="none" fill="rgb(5,63,117)" fill-opacity="0.38" transform="matrix(-0.7560819707727034,-0.6544769311996144,0.6544769311996144,-0.7560819707727034,269.7239563904518,133.352042310637)" style="stroke: none; fill: rgb(5, 63, 117); stroke-width: 1;"><path d=" M3.57,-1.72 L0,0 L3.57,1.72 Z"/></g></g><g class="arrow-line"><path class="connection real" stroke-dasharray="" d="  M255.27,151.47 L270.41,158.01" style="stroke: rgb(5, 63, 117); stroke-opacity: 0.38; stroke-width: 1; fill: none; fill-opacity: 1;"/><g stroke="none" fill="rgb(5,63,117)" fill-opacity="0.38" transform="matrix(-0.9181008531004035,-0.3963468475165552,0.3963468475165552,-0.9181008531004035,273.16741893705,159.2005403403851)" style="stroke: none; fill: rgb(5, 63, 117); stroke-width: 1;"><path d=" M3.57,-1.72 L0,0 L3.57,1.72 Z"/></g></g><g class="arrow-line"><path class="connection real" stroke-dasharray="" d="  M265.64,139.18 L280.79,145.71" style="stroke: rgb(5, 63, 117); stroke-opacity: 0.38; stroke-width: 1; fill: none; fill-opacity: 1;"/><g stroke="none" fill="rgb(5,63,117)" fill-opacity="0.38" transform="matrix(-0.9181008531004035,-0.3963468475165552,0.3963468475165552,-0.9181008531004035,283.5393437022641,146.9023414338796)" style="stroke: none; fill: rgb(5, 63, 117); stroke-width: 1;"><path d=" M3.57,-1.72 L0,0 L3.57,1.72 Z"/></g></g><g class="arrow-line"><path class="connection real" stroke-dasharray="" d="  M277.62,154.96 L291.54,156.87" style="stroke: rgb(5, 63, 117); stroke-opacity: 0.38; stroke-width: 1; fill: none; fill-opacity: 1;"/><g stroke="none" fill="rgb(5,63,117)" fill-opacity="0.38" transform="matrix(-0.9906766441575645,-0.13623430816320195,0.13623430816320195,-0.9906766441575645,294.51237017818823,157.28038561714362)" style="stroke: none; fill: rgb(5, 63, 117); stroke-width: 1;"><path d=" M3.57,-1.72 L0,0 L3.57,1.72 Z"/></g></g><g class="arrow-line"><path class="connection real" stroke-dasharray="" d="  M259.66,58.72 L250.43,71.36" style="stroke: rgb(5, 63, 117); stroke-opacity: 0.38; stroke-width: 1; fill: none; fill-opacity: 1;"/><g stroke="none" fill="rgb(5,63,117)" fill-opacity="0.38" transform="matrix(0.5896193390821542,-0.8076812706633252,0.8076812706633252,0.5896193390821542,248.6593218243439,73.78488899211584)" style="stroke: none; fill: rgb(5, 63, 117); stroke-width: 1;"><path d=" M3.57,-1.72 L0,0 L3.57,1.72 Z"/></g></g><g class="arrow-line"><path class="connection real" stroke-dasharray="" d="  M249.45,86.1 L255.26,99.35" style="stroke: rgb(5, 63, 117); stroke-opacity: 0.38; stroke-width: 1; fill: none; fill-opacity: 1;"/><g stroke="none" fill="rgb(5,63,117)" fill-opacity="0.38" transform="matrix(-0.40178795726384575,-0.9157327325141031,0.9157327325141031,-0.40178795726384575,256.46859660025746,102.10083865395939)" style="stroke: none; fill: rgb(5, 63, 117); stroke-width: 1;"><path d=" M3.57,-1.72 L0,0 L3.57,1.72 Z"/></g></g><g class="arrow-line"><path class="connection real" stroke-dasharray="" d="  M261.49,104.42 L273.62,114.05" style="stroke: rgb(5, 63, 117); stroke-opacity: 0.38; stroke-width: 1; fill: none; fill-opacity: 1;"/><g stroke="none" fill="rgb(5,63,117)" fill-opacity="0.38" transform="matrix(-0.7835850346509835,-0.6212845511285605,0.6212845511285605,-0.7835850346509835,275.9729304446349,115.90996869166207)" style="stroke: none; fill: rgb(5, 63, 117); stroke-width: 1;"><path d=" M3.57,-1.72 L0,0 L3.57,1.72 Z"/></g></g><g class="arrow-line"><path class="connection real" stroke-dasharray="" d="  M274.88,122.49 L288.22,127.1" style="stroke: rgb(5, 63, 117); stroke-opacity: 0.38; stroke-width: 1; fill: none; fill-opacity: 1;"/><g stroke="none" fill="rgb(5,63,117)" fill-opacity="0.38" transform="matrix(-0.9454048732726411,-0.3258981828613677,0.3258981828613677,-0.9454048732726411,291.06002285374154,128.07283012286467)" style="stroke: none; fill: rgb(5, 63, 117); stroke-width: 1;"><path d=" M3.57,-1.72 L0,0 L3.57,1.72 Z"/></g></g><g class="arrow-line"><path class="connection real" stroke-dasharray="" d="  M290.33,137.06 L300.85,139.83" style="stroke: rgb(5, 63, 117); stroke-opacity: 0.38; stroke-width: 1; fill: none; fill-opacity: 1;"/><g stroke="none" fill="rgb(5,63,117)" fill-opacity="0.38" transform="matrix(-0.9668679575740331,-0.2552770115318213,0.2552770115318213,-0.9668679575740331,303.74778946535105,140.59918103995994)" style="stroke: none; fill: rgb(5, 63, 117); stroke-width: 1;"><path d=" M3.57,-1.72 L0,0 L3.57,1.72 Z"/></g></g><g class="arrow-line"><path class="connection real" stroke-dasharray="" d="  M298.03,148.74 L311.22,150.01" style="stroke: rgb(5, 63, 117); stroke-opacity: 0.38; stroke-width: 1; fill: none; fill-opacity: 1;"/><g stroke="none" fill="rgb(5,63,117)" fill-opacity="0.38" transform="matrix(-0.9954295942026063,-0.09549828786755543,0.09549828786755543,-0.9954295942026063,314.2090197215513,150.29263956141236)" style="stroke: none; fill: rgb(5, 63, 117); stroke-width: 1;"><path d=" M3.57,-1.72 L0,0 L3.57,1.72 Z"/></g></g><g class="arrow-line"><path class="connection real" stroke-dasharray="" d="  M297.76,129.26 L311.11,133.86" style="stroke: rgb(5, 63, 117); stroke-opacity: 0.38; stroke-width: 1; fill: none; fill-opacity: 1;"/><g stroke="none" fill="rgb(5,63,117)" fill-opacity="0.38" transform="matrix(-0.9454048732726411,-0.3258981828613677,0.3258981828613677,-0.9454048732726411,313.9432861141348,134.8404520833453)" style="stroke: none; fill: rgb(5, 63, 117); stroke-width: 1;"><path d=" M3.57,-1.72 L0,0 L3.57,1.72 Z"/></g></g><g class="arrow-line"><path class="connection real" stroke-dasharray="" d="  M314.31,142.22 L329.33,142.2" style="stroke: rgb(5, 63, 117); stroke-opacity: 0.38; stroke-width: 1; fill: none; fill-opacity: 1;"/><g stroke="none" fill="rgb(5,63,117)" fill-opacity="0.38" transform="matrix(-0.9999990252244151,0.0013962629479127803,-0.0013962629479127803,-0.9999990252244151,332.33107328162265,142.19650437417278)" style="stroke: none; fill: rgb(5, 63, 117); stroke-width: 1;"><path d=" M3.57,-1.72 L0,0 L3.57,1.72 Z"/></g></g><g class="arrow-line"><path class="connection real" stroke-dasharray="" d="  M301.7,53.99 L286.55,53.55" style="stroke: rgb(5, 63, 117); stroke-opacity: 0.38; stroke-width: 1; fill: none; fill-opacity: 1;"/><g stroke="none" fill="rgb(5,63,117)" fill-opacity="0.38" transform="matrix(0.9995803274764746,0.028968412487117012,-0.028968412487117012,0.9995803274764746,283.55452813736576,53.46233462861514)" style="stroke: none; fill: rgb(5, 63, 117); stroke-width: 1;"><path d=" M3.57,-1.72 L0,0 L3.57,1.72 Z"/></g></g><g class="arrow-line"><path class="connection real" stroke-dasharray="" d="  M310.06,57.86 L297.68,65.72" style="stroke: rgb(5, 63, 117); stroke-opacity: 0.38; stroke-width: 1; fill: none; fill-opacity: 1;"/><g stroke="none" fill="rgb(5,63,117)" fill-opacity="0.38" transform="matrix(0.8443279255020147,-0.5358267949789971,0.5358267949789971,0.8443279255020147,295.14813267628995,67.32780915435421)" style="stroke: none; fill: rgb(5, 63, 117); stroke-width: 1;"><path d=" M3.57,-1.72 L0,0 L3.57,1.72 Z"/></g></g><g class="arrow-line"><path class="connection real" stroke-dasharray="" d="  M275.87,53.42 L265.1,63.28" style="stroke: rgb(5, 63, 117); stroke-opacity: 0.38; stroke-width: 1; fill: none; fill-opacity: 1;"/><g stroke="none" fill="rgb(5,63,117)" fill-opacity="0.38" transform="matrix(0.7377488080424873,-0.6750753263391347,0.6750753263391347,0.7377488080424873,262.8880269019055,65.30343877679834)" style="stroke: none; fill: rgb(5, 63, 117); stroke-width: 1;"><path d=" M3.57,-1.72 L0,0 L3.57,1.72 Z"/></g></g><g class="arrow-line"><path class="connection real" stroke-dasharray="" d="  M262.81,71.76 L260.98,86.19" style="stroke: rgb(5, 63, 117); stroke-opacity: 0.38; stroke-width: 1; fill: none; fill-opacity: 1;"/><g stroke="none" fill="rgb(5,63,117)" fill-opacity="0.38" transform="matrix(0.12637210473851038,-0.991982908695487,0.991982908695487,0.12637210473851038,260.59836175626685,89.16386487359824)" style="stroke: none; fill: rgb(5, 63, 117); stroke-width: 1;"><path d=" M3.57,-1.72 L0,0 L3.57,1.72 Z"/></g></g><g class="arrow-line"><path class="connection real" stroke-dasharray="" d="  M268.71,91.88 L278.62,101.24" style="stroke: rgb(5, 63, 117); stroke-opacity: 0.38; stroke-width: 1; fill: none; fill-opacity: 1;"/><g stroke="none" fill="rgb(5,63,117)" fill-opacity="0.38" transform="matrix(-0.7269343295366401,-0.6867069830292362,0.6867069830292362,-0.7269343295366401,280.79991897629463,103.29572907779806)" style="stroke: none; fill: rgb(5, 63, 117); stroke-width: 1;"><path d=" M3.57,-1.72 L0,0 L3.57,1.72 Z"/></g></g><g class="arrow-line"><path class="connection real" stroke-dasharray="" d="  M286.08,107.03 L295.99,116.39" style="stroke: rgb(5, 63, 117); stroke-opacity: 0.38; stroke-width: 1; fill: none; fill-opacity: 1;"/><g stroke="none" fill="rgb(5,63,117)" fill-opacity="0.38" transform="matrix(-0.7269343295366401,-0.6867069830292362,0.6867069830292362,-0.7269343295366401,298.16898519644656,118.44714942837834)" style="stroke: none; fill: rgb(5, 63, 117); stroke-width: 1;"><path d=" M3.57,-1.72 L0,0 L3.57,1.72 Z"/></g></g><g class="arrow-line"><path class="connection real" stroke-dasharray="" d="  M304.13,119.75 L317.48,124.35" style="stroke: rgb(5, 63, 117); stroke-opacity: 0.38; stroke-width: 1; fill: none; fill-opacity: 1;"/><g stroke="none" fill="rgb(5,63,117)" fill-opacity="0.38" transform="matrix(-0.9454048732726411,-0.3258981828613677,0.3258981828613677,-0.9454048732726411,320.31729400433113,125.33074528367399)" style="stroke: none; fill: rgb(5, 63, 117); stroke-width: 1;"><path d=" M3.57,-1.72 L0,0 L3.57,1.72 Z"/></g></g><g class="arrow-line"><path class="connection real" stroke-dasharray="" d="  M289.42,62.62 L277.04,70.48" style="stroke: rgb(5, 63, 117); stroke-opacity: 0.38; stroke-width: 1; fill: none; fill-opacity: 1;"/><g stroke="none" fill="rgb(5,63,117)" fill-opacity="0.38" transform="matrix(0.8443279255020147,-0.5358267949789971,0.5358267949789971,0.8443279255020147,274.5089624929361,72.08697443227445)" style="stroke: none; fill: rgb(5, 63, 117); stroke-width: 1;"><path d=" M3.57,-1.72 L0,0 L3.57,1.72 Z"/></g></g><g class="arrow-line"><path class="connection real" stroke-dasharray="" d="  M274.85,76.43 L279.8,87.26" style="stroke: rgb(5, 63, 117); stroke-opacity: 0.38; stroke-width: 1; fill: none; fill-opacity: 1;"/><g stroke="none" fill="rgb(5,63,117)" fill-opacity="0.38" transform="matrix(-0.4156459243156279,-0.9095265062656543,0.9095265062656543,-0.4156459243156279,281.0419452955347,89.99144693779533)" style="stroke: none; fill: rgb(5, 63, 117); stroke-width: 1;"><path d=" M3.57,-1.72 L0,0 L3.57,1.72 Z"/></g></g><g class="arrow-line"><path class="connection real" stroke-dasharray="" d="  M283.67,92.74 L293.58,102.1" style="stroke: rgb(5, 63, 117); stroke-opacity: 0.38; stroke-width: 1; fill: none; fill-opacity: 1;"/><g stroke="none" fill="rgb(5,63,117)" fill-opacity="0.38" transform="matrix(-0.7269343295366401,-0.6867069830292362,0.6867069830292362,-0.7269343295366401,295.760666654524,104.15510612447554)" style="stroke: none; fill: rgb(5, 63, 117); stroke-width: 1;"><path d=" M3.57,-1.72 L0,0 L3.57,1.72 Z"/></g></g><g class="arrow-line"><path class="connection real" stroke-dasharray="" d="  M300.62,106.98 L311.57,112.98" style="stroke: rgb(5, 63, 117); stroke-opacity: 0.38; stroke-width: 1; fill: none; fill-opacity: 1;"/><g stroke="none" fill="rgb(5,63,117)" fill-opacity="0.38" transform="matrix(-0.8768106907305969,-0.48083574390901257,0.48083574390901257,-0.8768106907305969,314.19572869621027,114.42148267704633)" style="stroke: none; fill: rgb(5, 63, 117); stroke-width: 1;"><path d=" M3.57,-1.72 L0,0 L3.57,1.72 Z"/></g></g><g class="arrow-line"><path class="connection real" stroke-dasharray="" d="  M292.5,70.56 L289.81,81.12" style="stroke: rgb(5, 63, 117); stroke-opacity: 0.38; stroke-width: 1; fill: none; fill-opacity: 1;"/><g stroke="none" fill="rgb(5,63,117)" fill-opacity="0.38" transform="matrix(0.247506354291969,-0.9688862702015641,0.9688862702015641,0.247506354291969,289.0640480799748,84.02339233733824)" style="stroke: none; fill: rgb(5, 63, 117); stroke-width: 1;"><path d=" M3.57,-1.72 L0,0 L3.57,1.72 Z"/></g></g><g class="arrow-line"><path class="connection real" stroke-dasharray="" d="  M294.52,86.4 L304.43,95.76" style="stroke: rgb(5, 63, 117); stroke-opacity: 0.38; stroke-width: 1; fill: none; fill-opacity: 1;"/><g stroke="none" fill="rgb(5,63,117)" fill-opacity="0.38" transform="matrix(-0.7269343295366401,-0.6867069830292362,0.6867069830292362,-0.7269343295366401,306.6101905774501,97.82262393769815)" style="stroke: none; fill: rgb(5, 63, 117); stroke-width: 1;"><path d=" M3.57,-1.72 L0,0 L3.57,1.72 Z"/></g></g><g class="arrow-line"><path class="connection real" stroke-dasharray="" d="  M302.08,71.68 L306.86,86.08" style="stroke: rgb(5, 63, 117); stroke-opacity: 0.38; stroke-width: 1; fill: none; fill-opacity: 1;"/><g stroke="none" fill="rgb(5,63,117)" fill-opacity="0.38" transform="matrix(-0.31432384884290376,-0.9493158157581614,0.9493158157581614,-0.31432384884290376,307.7986082468261,88.93040317435805)" style="stroke: none; fill: rgb(5, 63, 117); stroke-width: 1;"><path d=" M3.57,-1.72 L0,0 L3.57,1.72 Z"/></g></g><g class="arrow-line"><path class="connection real" stroke-dasharray="" d="  M312.36,100.79 L322.27,110.15" style="stroke: rgb(5, 63, 117); stroke-opacity: 0.38; stroke-width: 1; fill: none; fill-opacity: 1;"/><g stroke="none" fill="rgb(5,63,117)" fill-opacity="0.38" transform="matrix(-0.7269343295366401,-0.6867069830292362,0.6867069830292362,-0.7269343295366401,324.4535787151434,112.20754659190891)" style="stroke: none; fill: rgb(5, 63, 117); stroke-width: 1;"><path d=" M3.57,-1.72 L0,0 L3.57,1.72 Z"/></g></g><g class="arrow-line"><path class="connection real" stroke-dasharray="" d="  M322.81,118.83 L333.75,124.83" style="stroke: rgb(5, 63, 117); stroke-opacity: 0.38; stroke-width: 1; fill: none; fill-opacity: 1;"/><g stroke="none" fill="rgb(5,63,117)" fill-opacity="0.38" transform="matrix(-0.8768106907305969,-0.48083574390901257,0.48083574390901257,-0.8768106907305969,336.3789264030741,126.27341245654617)" style="stroke: none; fill: rgb(5, 63, 117); stroke-width: 1;"><path d=" M3.57,-1.72 L0,0 L3.57,1.72 Z"/></g></g><g class="arrow-line"><path class="connection real" stroke-dasharray="" d="  M326.75,131.96 L340.96,133.31" style="stroke: rgb(5, 63, 117); stroke-opacity: 0.38; stroke-width: 1; fill: none; fill-opacity: 1;"/><g stroke="none" fill="rgb(5,63,117)" fill-opacity="0.38" transform="matrix(-0.9955125531382248,-0.0946295754202306,0.0946295754202306,-0.9955125531382248,343.95089721679693,133.59002888997398)" style="stroke: none; fill: rgb(5, 63, 117); stroke-width: 1;"><path d=" M3.57,-1.72 L0,0 L3.57,1.72 Z"/></g></g><g class="arrow-line"><path class="connection real" stroke-dasharray="" d="  M201.48,50.74 L194.2,68.79" style="stroke: rgb(5, 63, 117); stroke-opacity: 0.38; stroke-width: 1; fill: none; fill-opacity: 1;"/><g stroke="none" fill="rgb(5,63,117)" fill-opacity="0.38" transform="matrix(0.3741210697568277,-0.9273798710151125,0.9273798710151125,0.3741210697568277,193.0742620254409,71.57061177807344)" style="stroke: none; fill: rgb(5, 63, 117); stroke-width: 1;"><path d=" M3.57,-1.72 L0,0 L3.57,1.72 Z"/></g></g><g class="arrow-line"><path class="connection real" stroke-dasharray="" d="  M191.9,113.15 L200.08,127.86" style="stroke: rgb(5, 63, 117); stroke-opacity: 0.38; stroke-width: 1; fill: none; fill-opacity: 1;"/><g stroke="none" fill="rgb(5,63,117)" fill-opacity="0.38" transform="matrix(-0.48572525386788623,-0.874111536221195,0.874111536221195,-0.48572525386788623,201.53332824707033,130.48333333333338)" style="stroke: none; fill: rgb(5, 63, 117); stroke-width: 1;"><path d=" M3.57,-1.72 L0,0 L3.57,1.72 Z"/></g></g><g class="arrow-line"><path class="connection real" stroke-dasharray="" d="  M207.03,140.09 L219.12,152.43" style="stroke: rgb(5, 63, 117); stroke-opacity: 0.38; stroke-width: 1; fill: none; fill-opacity: 1;"/><g stroke="none" fill="rgb(5,63,117)" fill-opacity="0.38" transform="matrix(-0.699788028863002,-0.7143505544619073,0.7143505544619073,-0.699788028863002,221.21729661269055,154.57227793782357)" style="stroke: none; fill: rgb(5, 63, 117); stroke-width: 1;"><path d=" M3.57,-1.72 L0,0 L3.57,1.72 Z"/></g></g><g class="arrow-line"><path class="connection real" stroke-dasharray="" d="  M300.89,32.27 L287.92,19.73" style="stroke: rgb(5, 63, 117); stroke-opacity: 0.38; stroke-width: 1; fill: none; fill-opacity: 1;"/><g stroke="none" fill="rgb(5,63,117)" fill-opacity="0.38" transform="matrix(0.7186119615049987,0.6954112803096728,-0.6954112803096728,0.7186119615049987,285.76811096717495,17.639366206468907)" style="stroke: none; fill: rgb(5, 63, 117); stroke-width: 1;"><path d=" M3.57,-1.72 L0,0 L3.57,1.72 Z"/></g></g><g class="arrow-line"><path class="connection real" stroke-dasharray="" d="  M252.29,20.65 L235.5,26.9" style="stroke: rgb(5, 63, 117); stroke-opacity: 0.38; stroke-width: 1; fill: none; fill-opacity: 1;"/><g stroke="none" fill="rgb(5,63,117)" fill-opacity="0.38" transform="matrix(0.9370384119054842,-0.34922630859322157,0.34922630859322157,0.9370384119054842,232.6914110271558,27.949811376755576)" style="stroke: none; fill: rgb(5, 63, 117); stroke-width: 1;"><path d=" M3.57,-1.72 L0,0 L3.57,1.72 Z"/></g></g><g class="arrow-line"><path class="connection real" stroke-dasharray="" d="  M226.68,31.86 L213.65,42.7" style="stroke: rgb(5, 63, 117); stroke-opacity: 0.38; stroke-width: 1; fill: none; fill-opacity: 1;"/><g stroke="none" fill="rgb(5,63,117)" fill-opacity="0.38" transform="matrix(0.7687302172043933,-0.6395731804546578,0.6395731804546578,0.7687302172043933,211.34344325557137,44.61991823350064)" style="stroke: none; fill: rgb(5, 63, 117); stroke-width: 1;"><path d=" M3.57,-1.72 L0,0 L3.57,1.72 Z"/></g></g><g class="arrow-line"><path class="connection real" stroke-dasharray="" d="  M229.52,157.34 L244.74,165.09" style="stroke: rgb(5, 63, 117); stroke-opacity: 0.38; stroke-width: 1; fill: none; fill-opacity: 1;"/><g stroke="none" fill="rgb(5,63,117)" fill-opacity="0.38" transform="matrix(-0.8910857469070925,-0.4538349828506271,0.4538349828506271,-0.8910857469070925,247.41741893705,166.4505403403851)" style="stroke: none; fill: rgb(5, 63, 117); stroke-width: 1;"><path d=" M3.57,-1.72 L0,0 L3.57,1.72 Z"/></g></g><g class="arrow-line"><path class="connection real" stroke-dasharray="" d="  M301.28,159.49 L314.47,160.76" style="stroke: rgb(5, 63, 117); stroke-opacity: 0.38; stroke-width: 1; fill: none; fill-opacity: 1;"/><g stroke="none" fill="rgb(5,63,117)" fill-opacity="0.38" transform="matrix(-0.9954295942026063,-0.09549828786755543,0.09549828786755543,-0.9954295942026063,317.45901972155133,161.04263956141241)" style="stroke: none; fill: rgb(5, 63, 117); stroke-width: 1;"><path d=" M3.57,-1.72 L0,0 L3.57,1.72 Z"/></g></g><g class="arrow-line"><path class="connection real" stroke-dasharray="" d="  M276.02,162.72 L292.16,167.61" style="stroke: rgb(5, 63, 117); stroke-opacity: 0.38; stroke-width: 1; fill: none; fill-opacity: 1;"/><g stroke="none" fill="rgb(5,63,117)" fill-opacity="0.38" transform="matrix(-0.9570669052188783,-0.2898671056445671,0.2898671056445671,-0.9570669052188783,295.0333282470704,168.48333333333335)" style="stroke: none; fill: rgb(5, 63, 117); stroke-width: 1;"><path d=" M3.57,-1.72 L0,0 L3.57,1.72 Z"/></g></g><g class="arrow-line"><path class="connection real" stroke-dasharray="" d="  M255.77,165.09 L271.66,169.87" style="stroke: rgb(5, 63, 117); stroke-opacity: 0.38; stroke-width: 1; fill: none; fill-opacity: 1;"/><g stroke="none" fill="rgb(5,63,117)" fill-opacity="0.38" transform="matrix(-0.9575713608048144,-0.2881962681340892,0.2881962681340892,-0.9575713608048144,274.53332824707036,170.73333333333335)" style="stroke: none; fill: rgb(5, 63, 117); stroke-width: 1;"><path d=" M3.57,-1.72 L0,0 L3.57,1.72 Z"/></g></g><g class="arrow-line"><path class="connection real" stroke-dasharray="" d="  M319.53,152.74 L332.98,150.82" style="stroke: rgb(5, 63, 117); stroke-opacity: 0.38; stroke-width: 1; fill: none; fill-opacity: 1;"/><g stroke="none" fill="rgb(5,63,117)" fill-opacity="0.38" transform="matrix(-0.9899003212382516,0.141765136801706,-0.141765136801706,-0.9899003212382516,335.95089721679693,150.39002888997396)" style="stroke: none; fill: rgb(5, 63, 117); stroke-width: 1;"><path d=" M3.57,-1.72 L0,0 L3.57,1.72 Z"/></g></g></g><g class="grouped-shape"><g class="shape"><path class="real" d=" M396.28,56.36 C420.28,29.56 508.68,44.76 488.68,64.76 C478.19,75.26 473.2,83 473.72,92.32 C474.19,100.76 479.18,110.5 488.68,124.76 C508.68,154.76 418.68,154.76 398.68,124.76 C378.68,94.76 383.88,69.96 396.28,56.36 Z" style="stroke: rgb(0, 0, 0); stroke-opacity: 1; stroke-width: 1; fill: rgb(0, 0, 0); fill-opacity: 0.2;"/></g><g class="arrow-line"><path class="connection real" stroke-dasharray="" d="  M430.68,41.94 L417.61,44.94" style="stroke: rgb(255, 0, 0); stroke-opacity: 1; stroke-width: 1; fill: none; fill-opacity: 1;"/><g stroke="none" fill="rgb(255,0,0)" fill-opacity="1" transform="matrix(0.9747222148491592,-0.22342024053238657,0.22342024053238657,0.9747222148491592,414.6833323160809,45.60952504475915)" style="stroke: none; fill: rgb(255, 0, 0); stroke-width: 1;"><path d=" M6.25,-3 L0,0 L6.25,3 Z"/></g></g><g class="arrow-line"><path class="connection real" stroke-dasharray="" d="  M385.48,78.36 L385.17,88.56" style="stroke: rgb(255, 0, 0); stroke-opacity: 1; stroke-width: 1; fill: none; fill-opacity: 1;"/><g stroke="none" fill="rgb(255,0,0)" fill-opacity="1" transform="matrix(0.03036406122413607,-0.9995389055889605,0.9995389055889605,0.03036406122413607,385.0833333333334,91.56285858154303)" style="stroke: none; fill: rgb(255, 0, 0); stroke-width: 1;"><path d=" M6.25,-3 L0,0 L6.25,3 Z"/></g></g><g class="arrow-line"><path class="connection real" stroke-dasharray="" d="  M389.41,107.08 L392.75,115.23" style="stroke: rgb(255, 0, 0); stroke-opacity: 1; stroke-width: 1; fill: none; fill-opacity: 1;"/><g stroke="none" fill="rgb(255,0,0)" fill-opacity="1" transform="matrix(-0.379133177300627,-0.9253421172031084,0.9253421172031084,-0.379133177300627,393.8833323160807,118.00952504475907)" style="stroke: none; fill: rgb(255, 0, 0); stroke-width: 1;"><path d=" M6.25,-3 L0,0 L6.25,3 Z"/></g></g><g class="arrow-line"><path class="connection real" stroke-dasharray="" d="  M400.28,52.36 L392.61,61.05" style="stroke: rgb(255, 0, 0); stroke-opacity: 1; stroke-width: 1; fill: none; fill-opacity: 1;"/><g stroke="none" fill="rgb(255,0,0)" fill-opacity="1" transform="matrix(0.6618353804402566,-0.749649204093155,0.749649204093155,0.6618353804402566,390.6237023154774,63.303741211221165)" style="stroke: none; fill: rgb(255, 0, 0); stroke-width: 1;"><path d=" M6.25,-3 L0,0 L6.25,3 Z"/></g></g><g class="arrow-line"><path class="connection real" stroke-dasharray="" d="  M401.41,128.33 L408.06,134.35" style="stroke: rgb(255, 0, 0); stroke-opacity: 1; stroke-width: 1; fill: none; fill-opacity: 1;"/><g stroke="none" fill="rgb(255,0,0)" fill-opacity="1" transform="matrix(-0.7413905009317422,-0.6710738596668628,0.6710738596668628,-0.7413905009317422,410.28333333333353,136.36285858154304)" style="stroke: none; fill: rgb(255, 0, 0); stroke-width: 1;"><path d=" M6.25,-3 L0,0 L6.25,3 Z"/></g></g><g class="arrow-line"><path class="connection real" stroke-dasharray="" d="  M420.28,140.29 L428.06,143.48" style="stroke: rgb(255, 0, 0); stroke-opacity: 1; stroke-width: 1; fill: none; fill-opacity: 1;"/><g stroke="none" fill="rgb(255,0,0)" fill-opacity="1" transform="matrix(-0.9254082743314805,-0.3789716688603929,0.3789716688603929,-0.9254082743314805,430.8333333333336,144.61285858154304)" style="stroke: none; fill: rgb(255, 0, 0); stroke-width: 1;"><path d=" M6.25,-3 L0,0 L6.25,3 Z"/></g></g><g class="arrow-line"><path class="connection real" stroke-dasharray="" d="  M447.73,146.84 L456.51,147.98" style="stroke: rgb(255, 0, 0); stroke-opacity: 1; stroke-width: 1; fill: none; fill-opacity: 1;"/><g stroke="none" fill="rgb(255,0,0)" fill-opacity="1" transform="matrix(-0.9917384636605427,-0.12827634113984643,0.12827634113984643,-0.9917384636605427,459.4833333333333,148.362858581543)" style="stroke: none; fill: rgb(255, 0, 0); stroke-width: 1;"><path d=" M6.25,-3 L0,0 L6.25,3 Z"/></g></g><g class="arrow-line"><path class="connection real" stroke-dasharray="" d="  M474.13,146.04 L482.27,143.01" style="stroke: rgb(255, 0, 0); stroke-opacity: 1; stroke-width: 1; fill: none; fill-opacity: 1;"/><g stroke="none" fill="rgb(255,0,0)" fill-opacity="1" transform="matrix(-0.9370384119054835,0.34922630859322334,-0.34922630859322334,-0.9370384119054835,485.0833333333334,141.962858581543)" style="stroke: none; fill: rgb(255, 0, 0); stroke-width: 1;"><path d=" M6.25,-3 L0,0 L6.25,3 Z"/></g></g><g class="arrow-line"><path class="connection real" stroke-dasharray="" d="  M492.28,133.54 L489.4,125.1" style="stroke: rgb(255, 0, 0); stroke-opacity: 1; stroke-width: 1; fill: none; fill-opacity: 1;"/><g stroke="none" fill="rgb(255,0,0)" fill-opacity="1" transform="matrix(0.323091679738515,0.9463676698216951,-0.9463676698216951,0.323091679738515,488.43333333333334,122.26285858154301)" style="stroke: none; fill: rgb(255, 0, 0); stroke-width: 1;"><path d=" M6.25,-3 L0,0 L6.25,3 Z"/></g></g><g class="arrow-line"><path class="connection real" stroke-dasharray="" d="  M482.41,115.69 L479.12,108.45" style="stroke: rgb(255, 0, 0); stroke-opacity: 1; stroke-width: 1; fill: none; fill-opacity: 1;"/><g stroke="none" fill="rgb(255,0,0)" fill-opacity="1" transform="matrix(0.41294547925015707,0.9107557472598556,-0.9107557472598556,0.41294547925015707,477.8833333333334,105.712858581543)" style="stroke: none; fill: rgb(255, 0, 0); stroke-width: 1;"><path d=" M6.25,-3 L0,0 L6.25,3 Z"/></g></g><g class="arrow-line"><path class="connection real" stroke-dasharray="" d="  M473.73,94.51 L473.73,87.11" style="stroke: rgb(255, 0, 0); stroke-opacity: 1; stroke-width: 1; fill: none; fill-opacity: 1;"/><g stroke="none" fill="rgb(255,0,0)" fill-opacity="1" transform="matrix(3.061616997868383e-16,1,-1,3.061616997868383e-16,473.73333333333323,84.11285858154304)" style="stroke: none; fill: rgb(255, 0, 0); stroke-width: 1;"><path d=" M6.25,-3 L0,0 L6.25,3 Z"/></g></g><g class="arrow-line"><path class="connection real" stroke-dasharray="" d="  M479.73,75.21 L485.08,68.38" style="stroke: rgb(255, 0, 0); stroke-opacity: 1; stroke-width: 1; fill: none; fill-opacity: 1;"/><g stroke="none" fill="rgb(255,0,0)" fill-opacity="1" transform="matrix(-0.616348909921457,0.7874731876315737,-0.7874731876315737,-0.616348909921457,486.9333333333333,66.01285858154301)" style="stroke: none; fill: rgb(255, 0, 0); stroke-width: 1;"><path d=" M6.25,-3 L0,0 L6.25,3 Z"/></g></g><g class="arrow-line"><path class="connection real" stroke-dasharray="" d="  M486.08,50.91 L476.45,46.87" style="stroke: rgb(255, 0, 0); stroke-opacity: 1; stroke-width: 1; fill: none; fill-opacity: 1;"/><g stroke="none" fill="rgb(255,0,0)" fill-opacity="1" transform="matrix(0.9222009716704518,0.38671096163682056,-0.38671096163682056,0.9222009716704518,473.68333333333334,45.712858581543)" style="stroke: none; fill: rgb(255, 0, 0); stroke-width: 1;"><path d=" M6.25,-3 L0,0 L6.25,3 Z"/></g></g><g class="arrow-line"><path class="connection real" stroke-dasharray="" d="  M458.28,42.76 L446.48,42.12" style="stroke: rgb(255, 0, 0); stroke-opacity: 1; stroke-width: 1; fill: none; fill-opacity: 1;"/><g stroke="none" fill="rgb(255,0,0)" fill-opacity="1" transform="matrix(0.9985460936510022,0.053904534636002574,-0.053904534636002574,0.9985460936510022,443.4833333333334,41.962858581543)" style="stroke: none; fill: rgb(255, 0, 0); stroke-width: 1;"><path d=" M6.25,-3 L0,0 L6.25,3 Z"/></g></g></g><g class="grouped-shape"><g class="shape"><path class="real" d=" M219.5,55.96 C243.5,29.16 331.9,44.36 311.9,64.36 C301.41,74.86 296.42,82.6 296.94,91.92 C297.41,100.36 302.39,110.1 311.9,124.36 C331.9,154.36 241.9,154.36 221.9,124.36 C201.9,94.36 207.1,69.56 219.5,55.96 Z" style="stroke: rgb(0, 0, 0); stroke-opacity: 1; stroke-width: 1; fill: rgb(0, 0, 0); fill-opacity: 0.2;"/></g><g class="arrow-line"><path class="connection real" stroke-dasharray="" d="  M253.9,41.54 L240.82,44.54" style="stroke: rgb(255, 0, 0); stroke-opacity: 1; stroke-width: 1; fill: none; fill-opacity: 1;"/><g stroke="none" fill="rgb(255,0,0)" fill-opacity="1" transform="matrix(0.9747222148491592,-0.22342024053238657,0.22342024053238657,0.9747222148491592,237.89999898274743,45.20952504475912)" style="stroke: none; fill: rgb(255, 0, 0); stroke-width: 1;"><path d=" M6.25,-3 L0,0 L6.25,3 Z"/></g></g><g class="arrow-line"><path class="connection real" stroke-dasharray="" d="  M208.7,77.96 L208.39,88.16" style="stroke: rgb(255, 0, 0); stroke-opacity: 1; stroke-width: 1; fill: none; fill-opacity: 1;"/><g stroke="none" fill="rgb(255,0,0)" fill-opacity="1" transform="matrix(0.03036406122413607,-0.9995389055889605,0.9995389055889605,0.03036406122413607,208.3,91.16285858154299)" style="stroke: none; fill: rgb(255, 0, 0); stroke-width: 1;"><path d=" M6.25,-3 L0,0 L6.25,3 Z"/></g></g><g class="arrow-line"><path class="connection real" stroke-dasharray="" d="  M211.1,106.76 L215.65,114.98" style="stroke: rgb(255, 0, 0); stroke-opacity: 1; stroke-width: 1; fill: none; fill-opacity: 1;"/><g stroke="none" fill="rgb(255,0,0)" fill-opacity="1" transform="matrix(-0.4840461860617832,-0.8750424502611526,0.8750424502611526,-0.4840461860617832,217.09999898274725,117.6095250447591)" style="stroke: none; fill: rgb(255, 0, 0); stroke-width: 1;"><path d=" M6.25,-3 L0,0 L6.25,3 Z"/></g></g><g class="arrow-line"><path class="connection real" stroke-dasharray="" d="  M223.5,51.96 L215.83,60.65" style="stroke: rgb(255, 0, 0); stroke-opacity: 1; stroke-width: 1; fill: none; fill-opacity: 1;"/><g stroke="none" fill="rgb(255,0,0)" fill-opacity="1" transform="matrix(0.6618353804402566,-0.749649204093155,0.749649204093155,0.6618353804402566,213.84036898214396,62.90374121122113)" style="stroke: none; fill: rgb(255, 0, 0); stroke-width: 1;"><path d=" M6.25,-3 L0,0 L6.25,3 Z"/></g></g><g class="arrow-line"><path class="connection real" stroke-dasharray="" d="  M222.95,127.64 L231.14,134.11" style="stroke: rgb(255, 0, 0); stroke-opacity: 1; stroke-width: 1; fill: none; fill-opacity: 1;"/><g stroke="none" fill="rgb(255,0,0)" fill-opacity="1" transform="matrix(-0.7852088666422866,-0.6192310035409531,0.6192310035409531,-0.7852088666422866,233.5000000000001,135.962858581543)" style="stroke: none; fill: rgb(255, 0, 0); stroke-width: 1;"><path d=" M6.25,-3 L0,0 L6.25,3 Z"/></g></g><g class="arrow-line"><path class="connection real" stroke-dasharray="" d="  M243.75,139.64 L251.52,142.83" style="stroke: rgb(255, 0, 0); stroke-opacity: 1; stroke-width: 1; fill: none; fill-opacity: 1;"/><g stroke="none" fill="rgb(255,0,0)" fill-opacity="1" transform="matrix(-0.9254082743314805,-0.3789716688603929,0.3789716688603929,-0.9254082743314805,254.30000000000007,143.962858581543)" style="stroke: none; fill: rgb(255, 0, 0); stroke-width: 1;"><path d=" M6.25,-3 L0,0 L6.25,3 Z"/></g></g><g class="arrow-line"><path class="connection real" stroke-dasharray="" d="  M270.95,146.44 L279.72,147.58" style="stroke: rgb(255, 0, 0); stroke-opacity: 1; stroke-width: 1; fill: none; fill-opacity: 1;"/><g stroke="none" fill="rgb(255,0,0)" fill-opacity="1" transform="matrix(-0.9917384636605427,-0.12827634113984643,0.12827634113984643,-0.9917384636605427,282.6999999999998,147.96285858154297)" style="stroke: none; fill: rgb(255, 0, 0); stroke-width: 1;"><path d=" M6.25,-3 L0,0 L6.25,3 Z"/></g></g><g class="arrow-line"><path class="connection real" stroke-dasharray="" d="  M297.35,145.64 L305.49,142.61" style="stroke: rgb(255, 0, 0); stroke-opacity: 1; stroke-width: 1; fill: none; fill-opacity: 1;"/><g stroke="none" fill="rgb(255,0,0)" fill-opacity="1" transform="matrix(-0.9370384119054835,0.34922630859322334,-0.34922630859322334,-0.9370384119054835,308.30000000000007,141.56285858154297)" style="stroke: none; fill: rgb(255, 0, 0); stroke-width: 1;"><path d=" M6.25,-3 L0,0 L6.25,3 Z"/></g></g><g class="arrow-line"><path class="connection real" stroke-dasharray="" d="  M315.75,135.64 L312.87,127.2" style="stroke: rgb(255, 0, 0); stroke-opacity: 1; stroke-width: 1; fill: none; fill-opacity: 1;"/><g stroke="none" fill="rgb(255,0,0)" fill-opacity="1" transform="matrix(0.323091679738515,0.9463676698216951,-0.9463676698216951,0.323091679738515,311.8999999999999,124.36285858154298)" style="stroke: none; fill: rgb(255, 0, 0); stroke-width: 1;"><path d=" M6.25,-3 L0,0 L6.25,3 Z"/></g></g><g class="arrow-line"><path class="connection real" stroke-dasharray="" d="  M305.5,116.36 L302.23,108.34" style="stroke: rgb(255, 0, 0); stroke-opacity: 1; stroke-width: 1; fill: none; fill-opacity: 1;"/><g stroke="none" fill="rgb(255,0,0)" fill-opacity="1" transform="matrix(0.37735595034245206,0.9260682948579683,-0.9260682948579683,0.37735595034245206,301.09999999999997,105.56285858154297)" style="stroke: none; fill: rgb(255, 0, 0); stroke-width: 1;"><path d=" M6.25,-3 L0,0 L6.25,3 Z"/></g></g><g class="arrow-line"><path class="connection real" stroke-dasharray="" d="  M296.7,94.36 L296.7,86.96" style="stroke: rgb(255, 0, 0); stroke-opacity: 1; stroke-width: 1; fill: none; fill-opacity: 1;"/><g stroke="none" fill="rgb(255,0,0)" fill-opacity="1" transform="matrix(3.061616997868383e-16,1,-1,3.061616997868383e-16,296.6999999999998,83.962858581543)" style="stroke: none; fill: rgb(255, 0, 0); stroke-width: 1;"><path d=" M6.25,-3 L0,0 L6.25,3 Z"/></g></g><g class="arrow-line"><path class="connection real" stroke-dasharray="" d="  M304.7,73.56 L310.05,66.73" style="stroke: rgb(255, 0, 0); stroke-opacity: 1; stroke-width: 1; fill: none; fill-opacity: 1;"/><g stroke="none" fill="rgb(255,0,0)" fill-opacity="1" transform="matrix(-0.616348909921457,0.7874731876315737,-0.7874731876315737,-0.616348909921457,311.9,64.36285858154298)" style="stroke: none; fill: rgb(255, 0, 0); stroke-width: 1;"><path d=" M6.25,-3 L0,0 L6.25,3 Z"/></g></g><g class="arrow-line"><path class="connection real" stroke-dasharray="" d="  M308.3,50.76 L301.82,46.68 L298.85,46.12" style="stroke: rgb(255, 0, 0); stroke-opacity: 1; stroke-width: 1; fill: none; fill-opacity: 1;"/><g stroke="none" fill="rgb(255,0,0)" fill-opacity="1" transform="matrix(0.9826127965436152,0.18566661538557688,-0.18566661538557688,0.9826127965436152,295.8999999999999,45.56285858154297)" style="stroke: none; fill: rgb(255, 0, 0); stroke-width: 1;"><path d=" M6.25,-3 L0,0 L6.25,3 Z"/></g></g><g class="arrow-line"><path class="connection real" stroke-dasharray="" d="  M281.5,42.36 L269.7,41.72" style="stroke: rgb(255, 0, 0); stroke-opacity: 1; stroke-width: 1; fill: none; fill-opacity: 1;"/><g stroke="none" fill="rgb(255,0,0)" fill-opacity="1" transform="matrix(0.9985460936510022,0.053904534636002574,-0.053904534636002574,0.9985460936510022,266.6999999999999,41.56285858154297)" style="stroke: none; fill: rgb(255, 0, 0); stroke-width: 1;"><path d=" M6.25,-3 L0,0 L6.25,3 Z"/></g></g></g><g class="shape"><path class="real" d=" M41.45,50.36 C65.45,23.56 153.85,38.76 133.85,58.76 C123.35,69.26 118.37,77 118.88,86.32 C119.35,94.76 124.34,104.5 133.85,118.76 C153.85,148.76 63.85,148.76 43.85,118.76 C23.85,88.76 29.05,63.96 41.45,50.36 Z" style="stroke: rgb(0, 0, 0); stroke-opacity: 1; stroke-width: 1; fill: rgb(0, 0, 0); fill-opacity: 0.2;"/></g><g class="arrow-line"><path class="connection real" stroke-dasharray="" d="  M75.85,35.94 L62.77,38.94" style="stroke: rgb(255, 0, 0); stroke-opacity: 1; stroke-width: 1; fill: none; fill-opacity: 1;"/><g stroke="none" fill="rgb(255,0,0)" fill-opacity="1" transform="matrix(0.9747222148491592,-0.22342024053238657,0.22342024053238657,0.9747222148491592,59.84615783691402,39.60952504475921)" style="stroke: none; fill: rgb(255, 0, 0); stroke-width: 1;"><path d=" M6.25,-3 L0,0 L6.25,3 Z"/></g></g><g class="arrow-line"><path class="connection real" stroke-dasharray="" d="  M30.65,72.36 L30.34,82.56" style="stroke: rgb(255, 0, 0); stroke-opacity: 1; stroke-width: 1; fill: none; fill-opacity: 1;"/><g stroke="none" fill="rgb(255,0,0)" fill-opacity="1" transform="matrix(0.03036406122413607,-0.9995389055889605,0.9995389055889605,0.03036406122413607,30.246158854166595,85.56285858154308)" style="stroke: none; fill: rgb(255, 0, 0); stroke-width: 1;"><path d=" M6.25,-3 L0,0 L6.25,3 Z"/></g></g><g class="arrow-line"><path class="connection real" stroke-dasharray="" d="  M33.05,101.16 L37.59,109.38" style="stroke: rgb(255, 0, 0); stroke-opacity: 1; stroke-width: 1; fill: none; fill-opacity: 1;"/><g stroke="none" fill="rgb(255,0,0)" fill-opacity="1" transform="matrix(-0.4840461860617832,-0.8750424502611526,0.8750424502611526,-0.4840461860617832,39.046157836913835,112.00952504475919)" style="stroke: none; fill: rgb(255, 0, 0); stroke-width: 1;"><path d=" M6.25,-3 L0,0 L6.25,3 Z"/></g></g><g class="arrow-line"><path class="connection real" stroke-dasharray="" d="  M45.45,46.36 L37.77,55.05" style="stroke: rgb(255, 0, 0); stroke-opacity: 1; stroke-width: 1; fill: none; fill-opacity: 1;"/><g stroke="none" fill="rgb(255,0,0)" fill-opacity="1" transform="matrix(0.6618353804402566,-0.749649204093155,0.749649204093155,0.6618353804402566,35.78652783631054,57.30374121122122)" style="stroke: none; fill: rgb(255, 0, 0); stroke-width: 1;"><path d=" M6.25,-3 L0,0 L6.25,3 Z"/></g></g><g class="arrow-line"><path class="connection real" stroke-dasharray="" d="  M44.9,122.04 L53.09,128.51" style="stroke: rgb(255, 0, 0); stroke-opacity: 1; stroke-width: 1; fill: none; fill-opacity: 1;"/><g stroke="none" fill="rgb(255,0,0)" fill-opacity="1" transform="matrix(-0.7852088666422866,-0.6192310035409531,0.6192310035409531,-0.7852088666422866,55.4461588541667,130.3628585815431)" style="stroke: none; fill: rgb(255, 0, 0); stroke-width: 1;"><path d=" M6.25,-3 L0,0 L6.25,3 Z"/></g></g><g class="arrow-line"><path class="connection real" stroke-dasharray="" d="  M65.7,134.04 L73.47,137.23" style="stroke: rgb(255, 0, 0); stroke-opacity: 1; stroke-width: 1; fill: none; fill-opacity: 1;"/><g stroke="none" fill="rgb(255,0,0)" fill-opacity="1" transform="matrix(-0.9254082743314805,-0.3789716688603929,0.3789716688603929,-0.9254082743314805,76.24615885416665,138.3628585815431)" style="stroke: none; fill: rgb(255, 0, 0); stroke-width: 1;"><path d=" M6.25,-3 L0,0 L6.25,3 Z"/></g></g><g class="arrow-line"><path class="connection real" stroke-dasharray="" d="  M92.9,140.84 L101.67,141.98" style="stroke: rgb(255, 0, 0); stroke-opacity: 1; stroke-width: 1; fill: none; fill-opacity: 1;"/><g stroke="none" fill="rgb(255,0,0)" fill-opacity="1" transform="matrix(-0.9917384636605427,-0.12827634113984643,0.12827634113984643,-0.9917384636605427,104.64615885416646,142.36285858154304)" style="stroke: none; fill: rgb(255, 0, 0); stroke-width: 1;"><path d=" M6.25,-3 L0,0 L6.25,3 Z"/></g></g><g class="arrow-line"><path class="connection real" stroke-dasharray="" d="  M119.3,140.04 L127.43,137.01" style="stroke: rgb(255, 0, 0); stroke-opacity: 1; stroke-width: 1; fill: none; fill-opacity: 1;"/><g stroke="none" fill="rgb(255,0,0)" fill-opacity="1" transform="matrix(-0.9370384119054835,0.34922630859322334,-0.34922630859322334,-0.9370384119054835,130.2461588541666,135.96285858154306)" style="stroke: none; fill: rgb(255, 0, 0); stroke-width: 1;"><path d=" M6.25,-3 L0,0 L6.25,3 Z"/></g></g><g class="arrow-line"><path class="connection real" stroke-dasharray="" d="  M137.7,130.04 L134.82,121.6" style="stroke: rgb(255, 0, 0); stroke-opacity: 1; stroke-width: 1; fill: none; fill-opacity: 1;"/><g stroke="none" fill="rgb(255,0,0)" fill-opacity="1" transform="matrix(0.323091679738515,0.9463676698216951,-0.9463676698216951,0.323091679738515,133.8461588541665,118.76285858154307)" style="stroke: none; fill: rgb(255, 0, 0); stroke-width: 1;"><path d=" M6.25,-3 L0,0 L6.25,3 Z"/></g></g><g class="arrow-line"><path class="connection real" stroke-dasharray="" d="  M127.45,110.76 L124.18,102.74" style="stroke: rgb(255, 0, 0); stroke-opacity: 1; stroke-width: 1; fill: none; fill-opacity: 1;"/><g stroke="none" fill="rgb(255,0,0)" fill-opacity="1" transform="matrix(0.37735595034245206,0.9260682948579683,-0.9260682948579683,0.37735595034245206,123.04615885416655,99.96285858154306)" style="stroke: none; fill: rgb(255, 0, 0); stroke-width: 1;"><path d=" M6.25,-3 L0,0 L6.25,3 Z"/></g></g><g class="arrow-line"><path class="connection real" stroke-dasharray="" d="  M118.65,88.76 L118.65,81.36" style="stroke: rgb(255, 0, 0); stroke-opacity: 1; stroke-width: 1; fill: none; fill-opacity: 1;"/><g stroke="none" fill="rgb(255,0,0)" fill-opacity="1" transform="matrix(3.061616997868383e-16,1,-1,3.061616997868383e-16,118.64615885416644,78.3628585815431)" style="stroke: none; fill: rgb(255, 0, 0); stroke-width: 1;"><path d=" M6.25,-3 L0,0 L6.25,3 Z"/></g></g><g class="arrow-line"><path class="connection real" stroke-dasharray="" d="  M126.65,67.96 L132,61.13" style="stroke: rgb(255, 0, 0); stroke-opacity: 1; stroke-width: 1; fill: none; fill-opacity: 1;"/><g stroke="none" fill="rgb(255,0,0)" fill-opacity="1" transform="matrix(-0.616348909921457,0.7874731876315737,-0.7874731876315737,-0.616348909921457,133.84615885416648,58.76285858154307)" style="stroke: none; fill: rgb(255, 0, 0); stroke-width: 1;"><path d=" M6.25,-3 L0,0 L6.25,3 Z"/></g></g><g class="arrow-line"><path class="connection real" stroke-dasharray="" d="  M130.25,45.16 L123.76,41.08 L120.79,40.52" style="stroke: rgb(255, 0, 0); stroke-opacity: 1; stroke-width: 1; fill: none; fill-opacity: 1;"/><g stroke="none" fill="rgb(255,0,0)" fill-opacity="1" transform="matrix(0.9826127965436152,0.18566661538557688,-0.18566661538557688,0.9826127965436152,117.8461588541665,39.96285858154306)" style="stroke: none; fill: rgb(255, 0, 0); stroke-width: 1;"><path d=" M6.25,-3 L0,0 L6.25,3 Z"/></g></g><g class="arrow-line"><path class="connection real" stroke-dasharray="" d="  M103.45,36.76 L91.64,36.12" style="stroke: rgb(255, 0, 0); stroke-opacity: 1; stroke-width: 1; fill: none; fill-opacity: 1;"/><g stroke="none" fill="rgb(255,0,0)" fill-opacity="1" transform="matrix(0.9985460936510022,0.053904534636002574,-0.053904534636002574,0.9985460936510022,88.64615885416652,35.96285858154306)" style="stroke: none; fill: rgb(255, 0, 0); stroke-width: 1;"><path d=" M6.25,-3 L0,0 L6.25,3 Z"/></g></g><g class="arrow-line"><path class="connection real" stroke-dasharray="" d="  M431.08,41.69 L424.67,46.3" style="stroke: rgb(74, 144, 226); stroke-opacity: 1; stroke-width: 1; fill: none; fill-opacity: 1;"/><g stroke="none" fill="rgb(74,144,226)" fill-opacity="1" transform="matrix(0.8121853616771418,-0.583399467155542,0.583399467155542,0.8121853616771418,422.23334248860675,48.05000019073486)" style="stroke: none; fill: rgb(74, 144, 226); stroke-width: 1;"><path d=" M3.57,-1.72 L0,0 L3.57,1.72 Z"/></g></g><g class="arrow-line"><path class="connection real" stroke-dasharray="" d="  M430.93,41.19 L431.34,44.67" style="stroke: rgb(144, 19, 254); stroke-opacity: 1; stroke-width: 1; fill: none; fill-opacity: 1;"/><g stroke="none" fill="rgb(144,19,254)" fill-opacity="1" transform="matrix(-0.11545726347754588,-0.9933124484824886,0.9933124484824886,-0.11545726347754588,431.6833333333333,47.650000000000034)" style="stroke: none; fill: rgb(144, 19, 254); stroke-width: 1;"><path d=" M3.57,-1.72 L0,0 L3.57,1.72 Z"/></g></g><g class="arrow-line"><path class="connection real" stroke-dasharray="" d="  M431.08,41.69 L423.68,43.71" style="stroke: rgb(144, 19, 254); stroke-opacity: 1; stroke-width: 1; fill: none; fill-opacity: 1;"/><g stroke="none" fill="rgb(144,19,254)" fill-opacity="1" transform="matrix(0.9647873238288128,-0.26303121445797534,0.26303121445797534,0.9647873238288128,420.7833302815755,44.5)" style="stroke: none; fill: rgb(144, 19, 254); stroke-width: 1;"><path d=" M3.57,-1.72 L0,0 L3.57,1.72 Z"/></g></g><g class="grouped-shape"><g class="arrow-line"><path class="connection real" stroke-dasharray="" d="  M400.11,51.59 L402.38,54.23" style="stroke: rgb(144, 19, 254); stroke-opacity: 1; stroke-width: 1; fill: none; fill-opacity: 1;"/><g stroke="none" fill="rgb(144,19,254)" fill-opacity="1" transform="matrix(-0.6522307133010847,-0.7580205120092451,0.7580205120092451,-0.6522307133010847,404.33333333333337,56.5)" style="stroke: none; fill: rgb(144, 19, 254); stroke-width: 1;"><path d=" M3.57,-1.72 L0,0 L3.57,1.72 Z"/></g></g><g class="arrow-line"><path class="connection real" stroke-dasharray="" d="  M400.46,51.4 L394.94,57.78" style="stroke: rgb(144, 19, 254); stroke-opacity: 1; stroke-width: 1; fill: none; fill-opacity: 1;"/><g stroke="none" fill="rgb(144,19,254)" fill-opacity="1" transform="matrix(0.6538168760867862,-0.7566528216719449,0.7566528216719449,0.6538168760867862,392.98334248860675,60.05000019073486)" style="stroke: none; fill: rgb(144, 19, 254); stroke-width: 1;"><path d=" M3.57,-1.72 L0,0 L3.57,1.72 Z"/></g></g><g class="arrow-line"><path class="connection real" stroke-dasharray="" d="  M400.11,51.59 L397.65,59.19" style="stroke: rgb(74, 144, 226); stroke-opacity: 1; stroke-width: 1; fill: none; fill-opacity: 1;"/><g stroke="none" fill="rgb(74,144,226)" fill-opacity="1" transform="matrix(0.30685832202605606,-0.9517552049783354,0.9517552049783354,0.30685832202605606,396.73334248860675,62.05000019073486)" style="stroke: none; fill: rgb(74, 144, 226); stroke-width: 1;"><path d=" M3.57,-1.72 L0,0 L3.57,1.72 Z"/></g></g></g><g class="arrow-line"><path class="connection real" stroke-dasharray="" d="  M385.86,77.59 L383.22,77.73" style="stroke: rgb(144, 19, 254); stroke-opacity: 1; stroke-width: 1; fill: none; fill-opacity: 1;"/><g stroke="none" fill="rgb(144,19,254)" fill-opacity="1" transform="matrix(0.9985366703262117,-0.05407881298477572,0.05407881298477572,0.9985366703262117,380.22621663411456,77.89286041259766)" style="stroke: none; fill: rgb(144, 19, 254); stroke-width: 1;"><path d=" M3.57,-1.72 L0,0 L3.57,1.72 Z"/></g></g><g class="arrow-line"><path class="connection real" stroke-dasharray="" d="  M386.21,77.4 L385.86,85.15" style="stroke: rgb(144, 19, 254); stroke-opacity: 1; stroke-width: 1; fill: none; fill-opacity: 1;"/><g stroke="none" fill="rgb(144,19,254)" fill-opacity="1" transform="matrix(0.044839922167692045,-0.9989941848579477,0.9989941848579477,0.044839922167692045,385.7262166341145,88.14286041259766)" style="stroke: none; fill: rgb(144, 19, 254); stroke-width: 1;"><path d=" M3.57,-1.72 L0,0 L3.57,1.72 Z"/></g></g><g class="arrow-line"><path class="connection real" stroke-dasharray="" d="  M385.86,77.59 L381.52,86.68" style="stroke: rgb(74, 144, 226); stroke-opacity: 1; stroke-width: 1; fill: none; fill-opacity: 1;"/><g stroke="none" fill="rgb(74,144,226)" fill-opacity="1" transform="matrix(0.4305110968082948,-0.9025852843498607,0.9025852843498607,0.4305110968082948,380.22621663411456,89.39286041259766)" style="stroke: none; fill: rgb(74, 144, 226); stroke-width: 1;"><path d=" M3.57,-1.72 L0,0 L3.57,1.72 Z"/></g></g><g class="arrow-line"><path class="connection real" stroke-dasharray="" d="  M390.11,106.59 L395.1,118.56" style="stroke: rgb(144, 19, 254); stroke-opacity: 1; stroke-width: 1; fill: none; fill-opacity: 1;"/><g stroke="none" fill="rgb(144,19,254)" fill-opacity="1" transform="matrix(-0.3846175604001835,-0.9230760164969141,0.9230760164969141,-0.3846175604001835,396.2500203450521,121.33333587646484)" style="stroke: none; fill: rgb(144, 19, 254); stroke-width: 1;"><path d=" M3.57,-1.72 L0,0 L3.57,1.72 Z"/></g></g><g class="arrow-line"><path class="connection real" stroke-dasharray="" d="  M390.46,106.4 L387.69,107.76" style="stroke: rgb(144, 19, 254); stroke-opacity: 1; stroke-width: 1; fill: none; fill-opacity: 1;"/><g stroke="none" fill="rgb(144,19,254)" fill-opacity="1" transform="matrix(0.8974124296230541,-0.44119262364419354,0.44119262364419354,0.8974124296230541,385.00002034505206,109.08333587646483)" style="stroke: none; fill: rgb(144, 19, 254); stroke-width: 1;"><path d=" M3.57,-1.72 L0,0 L3.57,1.72 Z"/></g></g><g class="arrow-line"><path class="connection real" stroke-dasharray="" d="  M389.91,106.33 L390.33,108.35 L392.66,119.48" style="stroke: rgb(74, 144, 226); stroke-opacity: 1; stroke-width: 1; fill: none; fill-opacity: 1;"/><g stroke="none" fill="rgb(74,144,226)" fill-opacity="1" transform="matrix(-0.20500855755272362,-0.9787601807031954,0.9787601807031954,-0.20500855755272362,393.2756682265965,122.41916556492578)" style="stroke: none; fill: rgb(74, 144, 226); stroke-width: 1;"><path d=" M3.57,-1.72 L0,0 L3.57,1.72 Z"/></g></g><g class="arrow-line"><path class="connection real" stroke-dasharray="" d="  M401.91,127.58 L410.43,136.26" style="stroke: rgb(144, 19, 254); stroke-opacity: 1; stroke-width: 1; fill: none; fill-opacity: 1;"/><g stroke="none" fill="rgb(144,19,254)" fill-opacity="1" transform="matrix(-0.7006602502284919,-0.7134950691839063,0.7134950691839063,-0.7006602502284919,412.53334554036456,138.40000152587885)" style="stroke: none; fill: rgb(144, 19, 254); stroke-width: 1;"><path d=" M3.57,-1.72 L0,0 L3.57,1.72 Z"/></g></g><g class="arrow-line"><path class="connection real" stroke-dasharray="" d="  M401.91,127.58 L401,128.63" style="stroke: rgb(144, 19, 254); stroke-opacity: 1; stroke-width: 1; fill: none; fill-opacity: 1;"/><g stroke="none" fill="rgb(144,19,254)" fill-opacity="1" transform="matrix(0.6540809579092745,-0.7564245504347977,0.7564245504347977,0.6540809579092745,399.03334554036456,130.9000015258789)" style="stroke: none; fill: rgb(144, 19, 254); stroke-width: 1;"><path d=" M3.57,-1.72 L0,0 L3.57,1.72 Z"/></g></g><g class="arrow-line"><path class="connection real" stroke-dasharray="" d="  M401.91,127.58 L408.33,136.93" style="stroke: rgb(74, 144, 226); stroke-opacity: 1; stroke-width: 1; fill: none; fill-opacity: 1;"/><g stroke="none" fill="rgb(74,144,226)" fill-opacity="1" transform="matrix(-0.566550065451676,-0.8240273195329763,0.8240273195329763,-0.566550065451676,410.03334554036456,139.4000015258789)" style="stroke: none; fill: rgb(74, 144, 226); stroke-width: 1;"><path d=" M3.57,-1.72 L0,0 L3.57,1.72 Z"/></g></g><g class="arrow-line"><path class="connection real" stroke-dasharray="" d="  M420.78,139.54 L428.56,142.73" style="stroke: rgb(144, 19, 254); stroke-opacity: 1; stroke-width: 1; fill: none; fill-opacity: 1;"/><g stroke="none" fill="rgb(144,19,254)" fill-opacity="1" transform="matrix(-0.9254082743314805,-0.3789716688603929,0.3789716688603929,-0.9254082743314805,431.3333333333335,143.86285858154304)" style="stroke: none; fill: rgb(144, 19, 254); stroke-width: 1;"><path d=" M3.57,-1.72 L0,0 L3.57,1.72 Z"/></g></g><g class="arrow-line"><path class="connection real" stroke-dasharray="" d="  M420.78,139.54 L419.93,141.71" style="stroke: rgb(144, 19, 254); stroke-opacity: 1; stroke-width: 1; fill: none; fill-opacity: 1;"/><g stroke="none" fill="rgb(144,19,254)" fill-opacity="1" transform="matrix(0.3660140110079721,-0.9306093400271975,0.9306093400271975,0.3660140110079721,418.8333333333333,144.5)" style="stroke: none; fill: rgb(144, 19, 254); stroke-width: 1;"><path d=" M3.57,-1.72 L0,0 L3.57,1.72 Z"/></g></g><g class="arrow-line"><path class="connection real" stroke-dasharray="" d="  M420.78,139.54 L428,145.37" style="stroke: rgb(74, 144, 226); stroke-opacity: 1; stroke-width: 1; fill: none; fill-opacity: 1;"/><g stroke="none" fill="rgb(74,144,226)" fill-opacity="1" transform="matrix(-0.7782431485260208,-0.6279630576493381,0.6279630576493381,-0.7782431485260208,430.33333333333326,147.25)" style="stroke: none; fill: rgb(74, 144, 226); stroke-width: 1;"><path d=" M3.57,-1.72 L0,0 L3.57,1.72 Z"/></g></g><g class="arrow-line"><path class="connection real" stroke-dasharray="" d="  M448.23,146.09 L459.23,147.3" style="stroke: rgb(144, 19, 254); stroke-opacity: 1; stroke-width: 1; fill: none; fill-opacity: 1;"/><g stroke="none" fill="rgb(144,19,254)" fill-opacity="1" transform="matrix(-0.994037322227947,-0.10904036875346915,0.10904036875346915,-0.994037322227947,462.2083333333333,147.625)" style="stroke: none; fill: rgb(144, 19, 254); stroke-width: 1;"><path d=" M3.57,-1.72 L0,0 L3.57,1.72 Z"/></g></g><g class="arrow-line"><path class="connection real" stroke-dasharray="" d="  M448.23,146.09 L448.09,149.13" style="stroke: rgb(144, 19, 254); stroke-opacity: 1; stroke-width: 1; fill: none; fill-opacity: 1;"/><g stroke="none" fill="rgb(144,19,254)" fill-opacity="1" transform="matrix(0.045537340693184145,-0.9989626372405491,0.9989626372405491,0.045537340693184145,447.9583333333333,152.125)" style="stroke: none; fill: rgb(144, 19, 254); stroke-width: 1;"><path d=" M3.57,-1.72 L0,0 L3.57,1.72 Z"/></g></g><g class="arrow-line"><path class="connection real" stroke-dasharray="" d="  M448.23,146.09 L458.54,151.23" style="stroke: rgb(74, 144, 226); stroke-opacity: 1; stroke-width: 1; fill: none; fill-opacity: 1;"/><g stroke="none" fill="rgb(74,144,226)" fill-opacity="1" transform="matrix(-0.8949343616020251,-0.44619781310980877,0.44619781310980877,-0.8949343616020251,461.2262166341145,152.5714340209961)" style="stroke: none; fill: rgb(74, 144, 226); stroke-width: 1;"><path d=" M3.57,-1.72 L0,0 L3.57,1.72 Z"/></g></g><g class="arrow-line"><path class="connection real" stroke-dasharray="" d="  M474.63,145.29 L482.65,142.53" style="stroke: rgb(144, 19, 254); stroke-opacity: 1; stroke-width: 1; fill: none; fill-opacity: 1;"/><g stroke="none" fill="rgb(144,19,254)" fill-opacity="1" transform="matrix(-0.9453479789104182,0.32606318217484687,-0.32606318217484687,-0.9453479789104182,485.48334248860675,141.55000019073486)" style="stroke: none; fill: rgb(144, 19, 254); stroke-width: 1;"><path d=" M3.57,-1.72 L0,0 L3.57,1.72 Z"/></g></g><g class="arrow-line"><path class="connection real" stroke-dasharray="" d="  M474.63,145.29 L476.95,151.8" style="stroke: rgb(144, 19, 254); stroke-opacity: 1; stroke-width: 1; fill: none; fill-opacity: 1;"/><g stroke="none" fill="rgb(144,19,254)" fill-opacity="1" transform="matrix(-0.33561598468314174,-0.9419988910955072,0.9419988910955072,-0.33561598468314174,477.95833333333337,154.625)" style="stroke: none; fill: rgb(144, 19, 254); stroke-width: 1;"><path d=" M3.57,-1.72 L0,0 L3.57,1.72 Z"/></g></g><g class="arrow-line"><path class="connection real" stroke-dasharray="" d="  M474.63,145.29 L485.79,147.93" style="stroke: rgb(74, 144, 226); stroke-opacity: 1; stroke-width: 1; fill: none; fill-opacity: 1;"/><g stroke="none" fill="rgb(74,144,226)" fill-opacity="1" transform="matrix(-0.9730985109821266,-0.2303894266765902,0.2303894266765902,-0.9730985109821266,488.7083333333333,148.625)" style="stroke: none; fill: rgb(74, 144, 226); stroke-width: 1;"><path d=" M3.57,-1.72 L0,0 L3.57,1.72 Z"/></g></g><g class="grouped-shape"><g class="arrow-line"><path class="connection real" stroke-dasharray="" d="  M491.28,132.54 L500.11,129.58" style="stroke: rgb(144, 19, 254); stroke-opacity: 1; stroke-width: 1; fill: none; fill-opacity: 1;"/><g stroke="none" fill="rgb(144,19,254)" fill-opacity="1" transform="matrix(-0.9480463935971772,0.3181321039872998,-0.3181321039872998,-0.9480463935971772,502.95833333333326,128.625)" style="stroke: none; fill: rgb(144, 19, 254); stroke-width: 1;"><path d=" M3.57,-1.72 L0,0 L3.57,1.72 Z"/></g></g><g class="arrow-line"><path class="connection real" stroke-dasharray="" d="  M491.28,132.54 L494.23,139.14" style="stroke: rgb(144, 19, 254); stroke-opacity: 1; stroke-width: 1; fill: none; fill-opacity: 1;"/><g stroke="none" fill="rgb(144,19,254)" fill-opacity="1" transform="matrix(-0.4083304603813847,-0.9128341772330429,0.9128341772330429,-0.4083304603813847,495.45833333333337,141.87500000000006)" style="stroke: none; fill: rgb(144, 19, 254); stroke-width: 1;"><path d=" M3.57,-1.72 L0,0 L3.57,1.72 Z"/></g></g><g class="arrow-line"><path class="connection real" stroke-dasharray="" d="  M491.28,132.54 L502.79,136.38" style="stroke: rgb(74, 144, 226); stroke-opacity: 1; stroke-width: 1; fill: none; fill-opacity: 1;"/><g stroke="none" fill="rgb(74,144,226)" fill-opacity="1" transform="matrix(-0.9486001946255047,-0.3164769671815859,0.3164769671815859,-0.9486001946255047,505.6357939590184,137.33032584324604)" style="stroke: none; fill: rgb(74, 144, 226); stroke-width: 1;"><path d=" M3.57,-1.72 L0,0 L3.57,1.72 Z"/></g></g></g><g class="grouped-shape"><g class="arrow-line"><path class="connection real" stroke-dasharray="" d="  M481.91,114.94 L487.96,112.32" style="stroke: rgb(144, 19, 254); stroke-opacity: 1; stroke-width: 1; fill: none; fill-opacity: 1;"/><g stroke="none" fill="rgb(144,19,254)" fill-opacity="1" transform="matrix(-0.9177546256839813,0.39714789063478045,-0.39714789063478045,-0.9177546256839813,490.70833333333337,111.125)" style="stroke: none; fill: rgb(144, 19, 254); stroke-width: 1;"><path d=" M3.57,-1.72 L0,0 L3.57,1.72 Z"/></g></g><g class="arrow-line"><path class="connection real" stroke-dasharray="" d="  M481.91,114.94 L485.63,122.44" style="stroke: rgb(144, 19, 254); stroke-opacity: 1; stroke-width: 1; fill: none; fill-opacity: 1;"/><g stroke="none" fill="rgb(144,19,254)" fill-opacity="1" transform="matrix(-0.4443224897152528,-0.8958669126233199,0.8958669126233199,-0.4443224897152528,486.9583333333333,125.125)" style="stroke: none; fill: rgb(144, 19, 254); stroke-width: 1;"><path d=" M3.57,-1.72 L0,0 L3.57,1.72 Z"/></g></g><g class="arrow-line"><path class="connection real" stroke-dasharray="" d="  M482.66,115.44 L490.59,119.9" style="stroke: rgb(74, 144, 226); stroke-opacity: 1; stroke-width: 1; fill: none; fill-opacity: 1;"/><g stroke="none" fill="rgb(74,144,226)" fill-opacity="1" transform="matrix(-0.8714707282886706,-0.49044751985917323,0.49044751985917323,-0.8714707282886706,493.20833333333337,121.375)" style="stroke: none; fill: rgb(74, 144, 226); stroke-width: 1;"><path d=" M3.57,-1.72 L0,0 L3.57,1.72 Z"/></g></g></g><g class="grouped-shape"><g class="arrow-line"><path class="connection real" stroke-dasharray="" d="  M473.48,94.26 L481.39,94.69" style="stroke: rgb(144, 19, 254); stroke-opacity: 1; stroke-width: 1; fill: none; fill-opacity: 1;"/><g stroke="none" fill="rgb(144,19,254)" fill-opacity="1" transform="matrix(-0.9985648490479369,-0.053555973017685075,0.053555973017685075,-0.9985648490479369,484.3819415801594,94.8470698410247)" style="stroke: none; fill: rgb(144, 19, 254); stroke-width: 1;"><path d=" M3.57,-1.72 L0,0 L3.57,1.72 Z"/></g></g><g class="arrow-line"><path class="connection real" stroke-dasharray="" d="  M473.48,94.26 L473.87,107.38" style="stroke: rgb(144, 19, 254); stroke-opacity: 1; stroke-width: 1; fill: none; fill-opacity: 1;"/><g stroke="none" fill="rgb(144,19,254)" fill-opacity="1" transform="matrix(-0.02949178752785528,-0.9995650226315503,0.9995650226315503,-0.02949178752785528,473.9583333333333,110.37500000000006)" style="stroke: none; fill: rgb(144, 19, 254); stroke-width: 1;"><path d=" M3.57,-1.72 L0,0 L3.57,1.72 Z"/></g></g><g class="arrow-line"><path class="connection real" stroke-dasharray="" d="  M473.48,94.26 L483.3,103.79" style="stroke: rgb(74, 144, 226); stroke-opacity: 1; stroke-width: 1; fill: none; fill-opacity: 1;"/><g stroke="none" fill="rgb(74,144,226)" fill-opacity="1" transform="matrix(-0.7178833346252209,-0.6961634275566141,0.6961634275566141,-0.7178833346252209,485.45833333333337,105.875)" style="stroke: none; fill: rgb(74, 144, 226); stroke-width: 1;"><path d=" M3.57,-1.72 L0,0 L3.57,1.72 Z"/></g></g></g><g class="grouped-shape"><g class="arrow-line"><path class="connection real" stroke-dasharray="" d="  M479.48,75.21 L485.26,80.58" style="stroke: rgb(144, 19, 254); stroke-opacity: 1; stroke-width: 1; fill: none; fill-opacity: 1;"/><g stroke="none" fill="rgb(144,19,254)" fill-opacity="1" transform="matrix(-0.7324240794262122,-0.680848711445256,0.680848711445256,-0.7324240794262122,487.45833333333326,82.625)" style="stroke: none; fill: rgb(144, 19, 254); stroke-width: 1;"><path d=" M3.57,-1.72 L0,0 L3.57,1.72 Z"/></g></g><g class="arrow-line"><path class="connection real" stroke-dasharray="" d="  M479.48,75.21 L475.35,80.3" style="stroke: rgb(144, 19, 254); stroke-opacity: 1; stroke-width: 1; fill: none; fill-opacity: 1;"/><g stroke="none" fill="rgb(144,19,254)" fill-opacity="1" transform="matrix(0.6308112434743726,-0.7759363215537186,0.7759363215537186,0.6308112434743726,473.4583333333333,82.625)" style="stroke: none; fill: rgb(144, 19, 254); stroke-width: 1;"><path d=" M3.57,-1.72 L0,0 L3.57,1.72 Z"/></g></g><g class="arrow-line"><path class="connection real" stroke-dasharray="" d="  M479.48,75.21 L483.01,85.78" style="stroke: rgb(74, 144, 226); stroke-opacity: 1; stroke-width: 1; fill: none; fill-opacity: 1;"/><g stroke="none" fill="rgb(74,144,226)" fill-opacity="1" transform="matrix(-0.31647696718158663,-0.9486001946255045,0.9486001946255045,-0.31647696718158663,483.95833333333326,88.625)" style="stroke: none; fill: rgb(74, 144, 226); stroke-width: 1;"><path d=" M3.57,-1.72 L0,0 L3.57,1.72 Z"/></g></g></g><g class="grouped-shape"><g class="arrow-line"><path class="connection real" stroke-dasharray="" d="  M486.08,51.41 L476.45,47.37" style="stroke: rgb(144, 19, 254); stroke-opacity: 1; stroke-width: 1; fill: none; fill-opacity: 1;"/><g stroke="none" fill="rgb(144,19,254)" fill-opacity="1" transform="matrix(0.9222009716704518,0.38671096163682056,-0.38671096163682056,0.9222009716704518,473.68333333333334,46.212858581543)" style="stroke: none; fill: rgb(144, 19, 254); stroke-width: 1;"><path d=" M3.57,-1.72 L0,0 L3.57,1.72 Z"/></g></g><g class="arrow-line"><path class="connection real" stroke-dasharray="" d="  M486.08,51.41 L486.91,49.19" style="stroke: rgb(144, 19, 254); stroke-opacity: 1; stroke-width: 1; fill: none; fill-opacity: 1;"/><g stroke="none" fill="rgb(144,19,254)" fill-opacity="1" transform="matrix(-0.34873562857929136,0.9372211379175176,-0.9372211379175176,-0.34873562857929136,487.95833333333337,46.375)" style="stroke: none; fill: rgb(144, 19, 254); stroke-width: 1;"><path d=" M3.57,-1.72 L0,0 L3.57,1.72 Z"/></g></g><g class="arrow-line"><path class="connection real" stroke-dasharray="" d="  M486.08,51.41 L485.52,50.88 L478.14,43.93" style="stroke: rgb(74, 144, 226); stroke-opacity: 1; stroke-width: 1; fill: none; fill-opacity: 1;"/><g stroke="none" fill="rgb(74,144,226)" fill-opacity="1" transform="matrix(0.7278924444552818,0.6856913221741358,-0.6856913221741358,0.7278924444552818,475.9583333333333,41.875)" style="stroke: none; fill: rgb(74, 144, 226); stroke-width: 1;"><path d=" M3.57,-1.72 L0,0 L3.57,1.72 Z"/></g></g></g><g class="arrow-line"><path class="connection real" stroke-dasharray="" d="  M458.28,42.76 L446.48,42.12" style="stroke: rgb(74, 144, 226); stroke-opacity: 1; stroke-width: 1; fill: none; fill-opacity: 1;"/><g stroke="none" fill="rgb(74,144,226)" fill-opacity="1" transform="matrix(0.9985460936510022,0.053904534636002574,-0.053904534636002574,0.9985460936510022,443.4833333333334,41.962858581543)" style="stroke: none; fill: rgb(74, 144, 226); stroke-width: 1;"><path d=" M3.57,-1.72 L0,0 L3.57,1.72 Z"/></g></g><g class="arrow-line"><path class="connection real" stroke-dasharray="" d="  M594.5,54.6 C605,73.85 597,111.85 563.5,118.6" style="stroke: rgb(0, 0, 0); stroke-width: 3; fill: none; fill-opacity: 1;"/></g><g class="arrow-line"><path class="connection real" stroke-dasharray="" d="  M567.12,111.87 L580.31,113.13" style="stroke: rgb(5, 63, 117); stroke-opacity: 0.38; stroke-width: 1; fill: none; fill-opacity: 1;"/><g stroke="none" fill="rgb(5,63,117)" fill-opacity="0.38" transform="matrix(-0.9954295942026063,-0.09549828786755543,0.09549828786755543,-0.9954295942026063,583.2923530548845,113.41666666666666)" style="stroke: none; fill: rgb(5, 63, 117); stroke-width: 1;"><path d=" M3.57,-1.72 L0,0 L3.57,1.72 Z"/></g></g><g class="arrow-line"><path class="connection real" stroke-dasharray="" d="  M566.34,95.14 L579.69,99.74" style="stroke: rgb(5, 63, 117); stroke-opacity: 0.38; stroke-width: 1; fill: none; fill-opacity: 1;"/><g stroke="none" fill="rgb(5,63,117)" fill-opacity="0.38" transform="matrix(-0.9454048732726411,-0.3258981828613677,0.3258981828613677,-0.9454048732726411,582.5266194474682,100.71447918859957)" style="stroke: none; fill: rgb(5, 63, 117); stroke-width: 1;"><path d=" M3.57,-1.72 L0,0 L3.57,1.72 Z"/></g></g><g class="arrow-line"><path class="connection real" stroke-dasharray="" d="  M582.89,108.1 L597.91,108.07" style="stroke: rgb(5, 63, 117); stroke-opacity: 0.38; stroke-width: 1; fill: none; fill-opacity: 1;"/><g stroke="none" fill="rgb(5,63,117)" fill-opacity="0.38" transform="matrix(-0.9999990252244151,0.0013962629479127803,-0.0013962629479127803,-0.9999990252244151,600.9144066149562,108.07053147942703)" style="stroke: none; fill: rgb(5, 63, 117); stroke-width: 1;"><path d=" M3.57,-1.72 L0,0 L3.57,1.72 Z"/></g></g><g class="arrow-line"><path class="connection real" stroke-dasharray="" d="  M553.72,98.63 L567.06,103.23" style="stroke: rgb(5, 63, 117); stroke-opacity: 0.38; stroke-width: 1; fill: none; fill-opacity: 1;"/><g stroke="none" fill="rgb(5,63,117)" fill-opacity="0.38" transform="matrix(-0.9454048732726411,-0.3258981828613677,0.3258981828613677,-0.9454048732726411,569.9006273376643,104.20477238892818)" style="stroke: none; fill: rgb(5, 63, 117); stroke-width: 1;"><path d=" M3.57,-1.72 L0,0 L3.57,1.72 Z"/></g></g><g class="arrow-line"><path class="connection real" stroke-dasharray="" d="  M552.21,74.35 L563.15,80.35" style="stroke: rgb(5, 63, 117); stroke-opacity: 0.38; stroke-width: 1; fill: none; fill-opacity: 1;"/><g stroke="none" fill="rgb(5,63,117)" fill-opacity="0.38" transform="matrix(-0.8768106907305969,-0.48083574390901257,0.48083574390901257,-0.8768106907305969,565.7790620295436,81.79550978230054)" style="stroke: none; fill: rgb(5, 63, 117); stroke-width: 1;"><path d=" M3.57,-1.72 L0,0 L3.57,1.72 Z"/></g></g><g class="arrow-line"><path class="connection real" stroke-dasharray="" d="  M580.95,66.66 L590.86,76.02" style="stroke: rgb(5, 63, 117); stroke-opacity: 0.38; stroke-width: 1; fill: none; fill-opacity: 1;"/><g stroke="none" fill="rgb(5,63,117)" fill-opacity="0.38" transform="matrix(-0.7269343295366401,-0.6867069830292362,0.6867069830292362,-0.7269343295366401,593.0369120484768,78.0815736971631)" style="stroke: none; fill: rgb(5, 63, 117); stroke-width: 1;"><path d=" M3.57,-1.72 L0,0 L3.57,1.72 Z"/></g></g><g class="arrow-line"><path class="connection real" stroke-dasharray="" d="  M591.39,84.7 L602.33,90.7" style="stroke: rgb(5, 63, 117); stroke-opacity: 0.38; stroke-width: 1; fill: none; fill-opacity: 1;"/><g stroke="none" fill="rgb(5,63,117)" fill-opacity="0.38" transform="matrix(-0.8768106907305969,-0.48083574390901257,0.48083574390901257,-0.8768106907305969,604.9622597364075,92.14743956180047)" style="stroke: none; fill: rgb(5, 63, 117); stroke-width: 1;"><path d=" M3.57,-1.72 L0,0 L3.57,1.72 Z"/></g></g><g class="arrow-line"><path class="connection real" stroke-dasharray="" d="  M595.59,99.08 L609.8,100.43" style="stroke: rgb(5, 63, 117); stroke-opacity: 0.38; stroke-width: 1; fill: none; fill-opacity: 1;"/><g stroke="none" fill="rgb(5,63,117)" fill-opacity="0.38" transform="matrix(-0.9955125531382248,-0.0946295754202306,0.0946295754202306,-0.9955125531382248,612.7842305501301,100.71405599522822)" style="stroke: none; fill: rgb(5, 63, 117); stroke-width: 1;"><path d=" M3.57,-1.72 L0,0 L3.57,1.72 Z"/></g></g><g class="arrow-line"><path class="connection real" stroke-dasharray="" d="  M569.87,125.37 L583.06,126.63" style="stroke: rgb(5, 63, 117); stroke-opacity: 0.38; stroke-width: 1; fill: none; fill-opacity: 1;"/><g stroke="none" fill="rgb(5,63,117)" fill-opacity="0.38" transform="matrix(-0.9954295942026063,-0.09549828786755543,0.09549828786755543,-0.9954295942026063,586.0423530548846,126.91666666666669)" style="stroke: none; fill: rgb(5, 63, 117); stroke-width: 1;"><path d=" M3.57,-1.72 L0,0 L3.57,1.72 Z"/></g></g><g class="arrow-line"><path class="connection real" stroke-dasharray="" d="  M588.12,118.62 L601.56,116.69" style="stroke: rgb(5, 63, 117); stroke-opacity: 0.38; stroke-width: 1; fill: none; fill-opacity: 1;"/><g stroke="none" fill="rgb(5,63,117)" fill-opacity="0.38" transform="matrix(-0.9899003212382516,0.141765136801706,-0.141765136801706,-0.9899003212382516,604.5342305501302,116.26405599522822)" style="stroke: none; fill: rgb(5, 63, 117); stroke-width: 1;"><path d=" M3.57,-1.72 L0,0 L3.57,1.72 Z"/></g></g><g class="arrow-line"><path class="connection real" stroke-dasharray="" d="  M589,103.85 L605.37,74.97" style="stroke: rgb(255, 0, 0); stroke-opacity: 1; stroke-width: 3; fill: none; fill-opacity: 1;"/><g stroke="none" fill="rgb(255,0,0)" fill-opacity="1" transform="matrix(-0.4930310629557837,0.8700117073699009,-0.8700117073699009,-0.4930310629557837,607.8333333333333,70.6166712443034)" style="stroke: none; fill: rgb(255, 0, 0); stroke-width: 3;"><path d=" M10,-4.8 L0,0 L10,4.8 Z"/></g></g><g class="arrow-line"><path class="connection real" stroke-dasharray="" d="  M587.75,103.1 L613.01,105.03" style="stroke: rgb(74, 144, 226); stroke-opacity: 1; stroke-width: 2; fill: none; fill-opacity: 1;"/><g stroke="none" fill="rgb(74,144,226)" fill-opacity="1" transform="matrix(-0.9971060692324596,-0.07602293535370373,0.07602293535370373,-0.9971060692324596,617,105.33333333333334)" style="stroke: none; fill: rgb(74, 144, 226); stroke-width: 2;"><path d=" M4.64,-2.23 L0,0 L4.64,2.23 Z"/></g></g><g class="arrow-line"><path class="connection real" stroke-dasharray="" d="  M589,103.85 L595.95,91.59" style="stroke: rgb(144, 19, 254); stroke-opacity: 1; stroke-width: 3; fill: none; fill-opacity: 1;"/><g stroke="none" fill="rgb(144,19,254)" fill-opacity="1" transform="matrix(-0.4930310629557837,0.8700117073699009,-0.8700117073699009,-0.4930310629557837,598.4142964680989,87.23541895548499)" style="stroke: none; fill: rgb(144, 19, 254); stroke-width: 3;"><path d=" M8.57,-4.12 L0,0 L8.57,4.12 Z"/></g></g><g class="arrow-line"><path class="connection real" stroke-dasharray="" d="  M589,103.85 L611.79,114.29" style="stroke: rgb(144, 19, 254); stroke-opacity: 1; stroke-width: 3; fill: none; fill-opacity: 1;"/><g stroke="none" fill="rgb(144,19,254)" fill-opacity="1" transform="matrix(-0.9093087499026195,-0.4161220942830787,0.4161220942830787,-0.9093087499026195,616.3333333333334,116.36667124430335)" style="stroke: none; fill: rgb(144, 19, 254); stroke-width: 3;"><path d=" M5.72,-2.75 L0,0 L5.72,2.75 Z"/></g></g><g class="composite-shape"><path class="real" d=" M483.61,133.97 C483.61,126.28 489.85,120.04 497.54,120.04 C505.23,120.04 511.47,126.28 511.47,133.97 C511.47,141.66 505.23,147.9 497.54,147.9 C489.85,147.9 483.61,141.66 483.61,133.97 Z" style="stroke-width: 1; stroke: rgb(0, 0, 0); fill: none; fill-opacity: 1; stroke-dasharray: 6, 6; stroke-opacity: 0.25;"/></g><g class="arrow-line"><path class="connection real" stroke-dasharray="" d="  M511.47,133.97 C536.98,126.41 501.64,99.69 539.43,93.91" style="stroke: rgb(155, 155, 155); stroke-width: 1; fill: none; fill-opacity: 1; stroke-opacity: 1;"/><g stroke="none" transform="matrix(-0.9928826045698139,0.11909716009486802,-0.11909716009486802,-0.9928826045698139,541.8359375000001,93.58723958333334)" style="stroke: none; stroke-width: 1; fill: rgb(155, 155, 155);" fill="rgb(155,155,155)" fill-opacity="1"><path d=" M10.72,-5.15 L0,0 L10.72,5.15 L7.12,0 Z"/></g></g><g/></g><g/><g/><g/></svg>
        <svg xmlns="http://www.w3.org/2000/svg" xmlns:xlink="http://www.w3.org/1999/xlink" width="660" height="201.796875" style="width:660px;height:201.796875px;font-family:Asana-Math, Asana;background:transparent;"><g><g><g><g transform="matrix(1,0,0,1,379.66796875,52.1953125)"><path transform="matrix(0.017,0,0,-0.017,0,0)" d="M286 646L392 650C454 650 494 641 495 626L503 537L527 537C530 600 537 651 548 689C526 691 498 692 481 692L440 691L275 689L246 689C221 689 181 690 143 691L94 692L91 664L147 662C171 661 182 652 182 635C182 621 178 589 173 559L98 125C81 33 81 32 40 28L4 25L0 -3L34 -2C74 -1 106 0 127 0C145 0 174 -1 213 -2L265 -3L268 25L204 28C177 29 168 37 168 57C168 63 169 74 170 78L206 301L323 301C350 301 381 300 429 298L455 297L474 342L470 349C389 345 329 343 251 343L214 343L260 614C263 630 264 635 269 646Z" stroke="rgb(74,144,226)" stroke-opacity="1" stroke-width="24" fill="rgb(74,144,226)" fill-opacity="1"></path></g></g></g></g><g><g><g><g transform="matrix(1,0,0,1,265.7421875,31.84375)"><path transform="matrix(0.017,0,0,-0.017,0,0)" d="M579 -3L579 27L533 30C499 32 496 39 496 102L496 718L487 726C443 709 410 701 331 689L331 661L387 661C405 661 412 650 412 620L412 437C384 472 346 486 306 486C183 486 34 351 34 229C34 149 62 70 111 30C145 1 192 -12 257 -12C277 -12 300 -8 305 -4L416 89L411 -3C460 -1 476 0 488 0C506 0 570 -3 579 -3ZM412 350L412 221C412 156 410 146 397 123C369 76 320 45 273 45C185 45 122 130 122 249C122 358 176 422 266 422C345 422 412 366 412 350Z" stroke="rgb(255,0,0)" stroke-opacity="1" stroke-width="8" fill="rgb(255,0,0)" fill-opacity="1"></path></g></g><g><g transform="matrix(1,0,0,1,276.11328125,31.84375)"><path transform="matrix(0.017,0,0,-0.017,0,0)" d="M251 722L239 733C187 707 151 698 79 691L75 670L123 670C147 670 157 663 157 648C157 645 157 640 154 622C143 567 70 182 55 132C42 82 36 52 36 31C36 6 47 -9 66 -9C92 -9 128 12 226 85L216 103L190 86C161 67 139 56 129 56C122 56 116 66 116 76C116 82 117 89 120 104Z" stroke="rgb(255,0,0)" stroke-opacity="1" stroke-width="24" fill="rgb(255,0,0)" fill-opacity="1"></path></g></g></g></g><g><g><g><g transform="matrix(1,0,0,1,253.69140625,101.9609375)"><path transform="matrix(0.017,0,0,-0.017,0,0)" d="M567 55C567 39 552 30 524 28L480 25L480 -3C582 0 582 0 602 0C622 0 622 0 724 -3L724 25L698 28C651 35 650 35 642 80L555 705L509 705L136 112C100 56 82 40 48 32L28 27L28 -3C120 0 120 0 140 0C159 0 161 0 247 -3L247 25L195 28C179 29 164 38 164 47C164 55 171 69 190 102L292 277L538 277L563 89L563 86C563 84 567 69 567 55ZM496 601L533 313L317 313Z" stroke="rgb(0,0,0)" stroke-opacity="1" stroke-width="8" fill="rgb(0,0,0)" fill-opacity="1"></path></g></g></g></g><g><g><g><g transform="matrix(1,0,0,1,188.41796875,101.27734375)"><path transform="matrix(0.017,0,0,-0.017,0,0)" d="M349 664L352 692L238 689C222 689 204 689 161 690L97 692L94 664L141 662C165 661 176 653 176 635L81 55C77 37 65 30 21 23L16 -3L57 -2C88 -1 150 0 170 0C170 0 467 -1 467 -1C467 -1 500 0 500 0C499 25 510 103 523 165L492 165L475 103C466 71 457 54 448 49C435 44 371 39 304 39C255 39 228 40 162 46C165 64 256 605 256 613C263 651 270 658 307 661Z" stroke="rgb(0,0,0)" stroke-opacity="1" stroke-width="8" fill="rgb(0,0,0)" fill-opacity="1"></path></g></g></g></g><g><g><g><g transform="matrix(1,0,0,1,365.1953125,101.6875)"><path transform="matrix(0.017,0,0,-0.017,0,0)" d="M349 664L352 692L238 689C222 689 204 689 161 690L97 692L94 664L141 662C165 661 176 653 176 635L81 55C77 37 65 30 21 23L16 -3L57 -2C88 -1 150 0 170 0C170 0 467 -1 467 -1C467 -1 500 0 500 0C499 25 510 103 523 165L492 165L475 103C466 71 457 54 448 49C435 44 371 39 304 39C255 39 228 40 162 46C165 64 256 605 256 613C263 651 270 658 307 661Z" stroke="rgb(0,0,0)" stroke-opacity="1" stroke-width="8" fill="rgb(0,0,0)" fill-opacity="1"></path></g></g></g></g><g><g><g><g transform="matrix(1,0,0,1,430.46875,102.37109375)"><path transform="matrix(0.017,0,0,-0.017,0,0)" d="M567 55C567 39 552 30 524 28L480 25L480 -3C582 0 582 0 602 0C622 0 622 0 724 -3L724 25L698 28C651 35 650 35 642 80L555 705L509 705L136 112C100 56 82 40 48 32L28 27L28 -3C120 0 120 0 140 0C159 0 161 0 247 -3L247 25L195 28C179 29 164 38 164 47C164 55 171 69 190 102L292 277L538 277L563 89L563 86C563 84 567 69 567 55ZM496 601L533 313L317 313Z" stroke="rgb(0,0,0)" stroke-opacity="1" stroke-width="8" fill="rgb(0,0,0)" fill-opacity="1"></path></g></g></g></g><g><g><g><g transform="matrix(1,0,0,1,442.5390625,32.25390625)"><path transform="matrix(0.017,0,0,-0.017,0,0)" d="M579 -3L579 27L533 30C499 32 496 39 496 102L496 718L487 726C443 709 410 701 331 689L331 661L387 661C405 661 412 650 412 620L412 437C384 472 346 486 306 486C183 486 34 351 34 229C34 149 62 70 111 30C145 1 192 -12 257 -12C277 -12 300 -8 305 -4L416 89L411 -3C460 -1 476 0 488 0C506 0 570 -3 579 -3ZM412 350L412 221C412 156 410 146 397 123C369 76 320 45 273 45C185 45 122 130 122 249C122 358 176 422 266 422C345 422 412 366 412 350Z" stroke="rgb(255,0,0)" stroke-opacity="1" stroke-width="8" fill="rgb(255,0,0)" fill-opacity="1"></path></g></g><g><g transform="matrix(1,0,0,1,452.91015625,32.25390625)"><path transform="matrix(0.017,0,0,-0.017,0,0)" d="M251 722L239 733C187 707 151 698 79 691L75 670L123 670C147 670 157 663 157 648C157 645 157 640 154 622C143 567 70 182 55 132C42 82 36 52 36 31C36 6 47 -9 66 -9C92 -9 128 12 226 85L216 103L190 86C161 67 139 56 129 56C122 56 116 66 116 76C116 82 117 89 120 104Z" stroke="rgb(255,0,0)" stroke-opacity="1" stroke-width="24" fill="rgb(255,0,0)" fill-opacity="1"></path></g></g></g></g><g><g><g><g transform="matrix(1,0,0,1,10.37109375,95.69140625)"><path transform="matrix(0.017,0,0,-0.017,0,0)" d="M349 664L352 692L238 689C222 689 204 689 161 690L97 692L94 664L141 662C165 661 176 653 176 635L81 55C77 37 65 30 21 23L16 -3L57 -2C88 -1 150 0 170 0C170 0 467 -1 467 -1C467 -1 500 0 500 0C499 25 510 103 523 165L492 165L475 103C466 71 457 54 448 49C435 44 371 39 304 39C255 39 228 40 162 46C165 64 256 605 256 613C263 651 270 658 307 661Z" stroke="rgb(0,0,0)" stroke-opacity="1" stroke-width="8" fill="rgb(0,0,0)" fill-opacity="1"></path></g></g></g></g><g><g><g><g transform="matrix(1,0,0,1,75.625,96.375)"><path transform="matrix(0.017,0,0,-0.017,0,0)" d="M567 55C567 39 552 30 524 28L480 25L480 -3C582 0 582 0 602 0C622 0 622 0 724 -3L724 25L698 28C651 35 650 35 642 80L555 705L509 705L136 112C100 56 82 40 48 32L28 27L28 -3C120 0 120 0 140 0C159 0 161 0 247 -3L247 25L195 28C179 29 164 38 164 47C164 55 171 69 190 102L292 277L538 277L563 89L563 86C563 84 567 69 567 55ZM496 601L533 313L317 313Z" stroke="rgb(0,0,0)" stroke-opacity="1" stroke-width="8" fill="rgb(0,0,0)" fill-opacity="1"></path></g></g></g></g><g><g><g><g transform="matrix(1,0,0,1,87.6953125,26.2578125)"><path transform="matrix(0.017,0,0,-0.017,0,0)" d="M579 -3L579 27L533 30C499 32 496 39 496 102L496 718L487 726C443 709 410 701 331 689L331 661L387 661C405 661 412 650 412 620L412 437C384 472 346 486 306 486C183 486 34 351 34 229C34 149 62 70 111 30C145 1 192 -12 257 -12C277 -12 300 -8 305 -4L416 89L411 -3C460 -1 476 0 488 0C506 0 570 -3 579 -3ZM412 350L412 221C412 156 410 146 397 123C369 76 320 45 273 45C185 45 122 130 122 249C122 358 176 422 266 422C345 422 412 366 412 350Z" stroke="rgb(255,0,0)" stroke-opacity="1" stroke-width="8" fill="rgb(255,0,0)" fill-opacity="1"></path></g></g><g><g transform="matrix(1,0,0,1,98.06640625,26.2578125)"><path transform="matrix(0.017,0,0,-0.017,0,0)" d="M251 722L239 733C187 707 151 698 79 691L75 670L123 670C147 670 157 663 157 648C157 645 157 640 154 622C143 567 70 182 55 132C42 82 36 52 36 31C36 6 47 -9 66 -9C92 -9 128 12 226 85L216 103L190 86C161 67 139 56 129 56C122 56 116 66 116 76C116 82 117 89 120 104Z" stroke="rgb(255,0,0)" stroke-opacity="1" stroke-width="24" fill="rgb(255,0,0)" fill-opacity="1"></path></g></g></g></g><g><g><g><g transform="matrix(1,0,0,1,569.375,88.0546875)"><path transform="matrix(0.017,0,0,-0.017,0,0)" d="M286 646L392 650C454 650 494 641 495 626L503 537L527 537C530 600 537 651 548 689C526 691 498 692 481 692L440 691L275 689L246 689C221 689 181 690 143 691L94 692L91 664L147 662C171 661 182 652 182 635C182 621 178 589 173 559L98 125C81 33 81 32 40 28L4 25L0 -3L34 -2C74 -1 106 0 127 0C145 0 174 -1 213 -2L265 -3L268 25L204 28C177 29 168 37 168 57C168 63 169 74 170 78L206 301L323 301C350 301 381 300 429 298L455 297L474 342L470 349C389 345 329 343 251 343L214 343L260 614C263 630 264 635 269 646Z" stroke="rgb(144,19,254)" stroke-opacity="1" stroke-width="24" fill="rgb(144,19,254)" fill-opacity="1"></path></g></g><g><g><g><g><g transform="matrix(1,0,0,1,579.3359375,91.06015625)"><path transform="matrix(0.0119,0,0,-0.0119,0,0)" d="M179.50274 -172L179.50274 713L120.50274 713L120.50274 -172ZM479.50274 -172L479.50274 713L420.50274 713L420.50274 -172Z" stroke="rgb(144,19,254)" stroke-opacity="1" stroke-width="8" fill="rgb(144,19,254)" fill-opacity="1"></path></g></g></g></g></g></g></g><g><g><g><g transform="matrix(1,0,0,1,620.625,125.30078125)"><path transform="matrix(0.017,0,0,-0.017,0,0)" d="M286 646L392 650C454 650 494 641 495 626L503 537L527 537C530 600 537 651 548 689C526 691 498 692 481 692L440 691L275 689L246 689C221 689 181 690 143 691L94 692L91 664L147 662C171 661 182 652 182 635C182 621 178 589 173 559L98 125C81 33 81 32 40 28L4 25L0 -3L34 -2C74 -1 106 0 127 0C145 0 174 -1 213 -2L265 -3L268 25L204 28C177 29 168 37 168 57C168 63 169 74 170 78L206 301L323 301C350 301 381 300 429 298L455 297L474 342L470 349C389 345 329 343 251 343L214 343L260 614C263 630 264 635 269 646Z" stroke="rgb(144,19,254)" stroke-opacity="1" stroke-width="24" fill="rgb(144,19,254)" fill-opacity="1"></path></g></g><g><g><g><g><g transform="matrix(1,0,0,1,630.5859375,129.55625)"><path transform="matrix(0.0119,0,0,-0.0119,0,0)" d="M684 -79L684 -20L404 -20L404 621L345 621L345 -20L65 -20L65 -79Z" stroke="rgb(144,19,254)" stroke-opacity="1" stroke-width="8" fill="rgb(144,19,254)" fill-opacity="1"></path></g></g></g></g></g></g></g><g><g><g><text x="412.03125" y="162.63671875" style="white-space:pre;stroke:none;fill:rgb(0,0,0);fill-opacity:1;font-size:12px;font-family:Arial, Helvetica, sans-serif;font-weight:400;font-style:normal;dominant-baseline:text-before-edge;text-decoration:none solid rgb(0, 0, 0);">Nur </text></g><g><g><g><g><g transform="matrix(1,0,0,1,434.70703125,173.73671875)"><path transform="matrix(0.0136,0,0,-0.0136,0,0)" d="M286 646L392 650C454 650 494 641 495 626L503 537L527 537C530 600 537 651 548 689C526 691 498 692 481 692L440 691L275 689L246 689C221 689 181 690 143 691L94 692L91 664L147 662C171 661 182 652 182 635C182 621 178 589 173 559L98 125C81 33 81 32 40 28L4 25L0 -3L34 -2C74 -1 106 0 127 0C145 0 174 -1 213 -2L265 -3L268 25L204 28C177 29 168 37 168 57C168 63 169 74 170 78L206 301L323 301C350 301 381 300 429 298L455 297L474 342L470 349C389 345 329 343 251 343L214 343L260 614C263 630 264 635 269 646Z" stroke="rgb(0,0,0)" stroke-opacity="1" stroke-width="24" fill="rgb(0,0,0)" fill-opacity="1"></path></g></g><g><g><g><g><g transform="matrix(1,0,0,1,442.65625,174.89109375)"><path transform="matrix(0.009519999999999999,0,0,-0.009519999999999999,0,0)" d="M179.50274 -172L179.50274 713L120.50274 713L120.50274 -172ZM479.50274 -172L479.50274 713L420.50274 713L420.50274 -172Z" stroke="rgb(0,0,0)" stroke-opacity="1" stroke-width="8" fill="rgb(0,0,0)" fill-opacity="1"></path></g></g></g></g></g></g></g></g><g><text x="449.1796875" y="162.63671875" style="white-space:pre;stroke:none;fill:rgb(0,0,0);fill-opacity:1;font-size:12px;font-family:Arial, Helvetica, sans-serif;font-weight:400;font-style:normal;dominant-baseline:text-before-edge;text-decoration:none solid rgb(0, 0, 0);"> in Richtung von </text></g><g><g><g><g><g transform="matrix(1,0,0,1,538.57421875,173.73671875)"><path transform="matrix(0.0136,0,0,-0.0136,0,0)" d="M579 -3L579 27L533 30C499 32 496 39 496 102L496 718L487 726C443 709 410 701 331 689L331 661L387 661C405 661 412 650 412 620L412 437C384 472 346 486 306 486C183 486 34 351 34 229C34 149 62 70 111 30C145 1 192 -12 257 -12C277 -12 300 -8 305 -4L416 89L411 -3C460 -1 476 0 488 0C506 0 570 -3 579 -3ZM412 350L412 221C412 156 410 146 397 123C369 76 320 45 273 45C185 45 122 130 122 249C122 358 176 422 266 422C345 422 412 366 412 350Z" stroke="rgb(0,0,0)" stroke-opacity="1" stroke-width="8" fill="rgb(0,0,0)" fill-opacity="1"></path></g></g><g><g transform="matrix(1,0,0,1,546.875,173.73671875)"><path transform="matrix(0.0136,0,0,-0.0136,0,0)" d="M251 722L239 733C187 707 151 698 79 691L75 670L123 670C147 670 157 663 157 648C157 645 157 640 154 622C143 567 70 182 55 132C42 82 36 52 36 31C36 6 47 -9 66 -9C92 -9 128 12 226 85L216 103L190 86C161 67 139 56 129 56C122 56 116 66 116 76C116 82 117 89 120 104Z" stroke="rgb(0,0,0)" stroke-opacity="1" stroke-width="24" fill="rgb(0,0,0)" fill-opacity="1"></path></g></g></g></g></g><g><text x="550.64453125" y="162.63671875" style="white-space:pre;stroke:none;fill:rgb(0,0,0);fill-opacity:1;font-size:12px;font-family:Arial, Helvetica, sans-serif;font-weight:400;font-style:normal;dominant-baseline:text-before-edge;text-decoration:none solid rgb(0, 0, 0);"> wird im Integral</text></g></g><g><g><text x="412.03125" y="179.4140625" style="white-space:pre;stroke:none;fill:rgb(0,0,0);fill-opacity:1;font-size:12px;font-family:Arial, Helvetica, sans-serif;font-weight:400;font-style:normal;dominant-baseline:text-before-edge;text-decoration:none solid rgb(0, 0, 0);">summiert wegen Skalarprodukt</text></g></g></g><g><g><g><g transform="matrix(1,0,0,1,619.00390625,107.859375)"><path transform="matrix(0.017,0,0,-0.017,0,0)" d="M286 646L392 650C454 650 494 641 495 626L503 537L527 537C530 600 537 651 548 689C526 691 498 692 481 692L440 691L275 689L246 689C221 689 181 690 143 691L94 692L91 664L147 662C171 661 182 652 182 635C182 621 178 589 173 559L98 125C81 33 81 32 40 28L4 25L0 -3L34 -2C74 -1 106 0 127 0C145 0 174 -1 213 -2L265 -3L268 25L204 28C177 29 168 37 168 57C168 63 169 74 170 78L206 301L323 301C350 301 381 300 429 298L455 297L474 342L470 349C389 345 329 343 251 343L214 343L260 614C263 630 264 635 269 646Z" stroke="rgb(74,144,226)" stroke-opacity="1" stroke-width="24" fill="rgb(74,144,226)" fill-opacity="1"></path></g></g></g></g><g><g><g><g transform="matrix(1,0,0,1,609.35546875,82)"><path transform="matrix(0.017,0,0,-0.017,0,0)" d="M579 -3L579 27L533 30C499 32 496 39 496 102L496 718L487 726C443 709 410 701 331 689L331 661L387 661C405 661 412 650 412 620L412 437C384 472 346 486 306 486C183 486 34 351 34 229C34 149 62 70 111 30C145 1 192 -12 257 -12C277 -12 300 -8 305 -4L416 89L411 -3C460 -1 476 0 488 0C506 0 570 -3 579 -3ZM412 350L412 221C412 156 410 146 397 123C369 76 320 45 273 45C185 45 122 130 122 249C122 358 176 422 266 422C345 422 412 366 412 350Z" stroke="rgb(255,0,0)" stroke-opacity="1" stroke-width="8" fill="rgb(255,0,0)" fill-opacity="1"></path></g></g><g><g transform="matrix(1,0,0,1,619.7265625,82)"><path transform="matrix(0.017,0,0,-0.017,0,0)" d="M251 722L239 733C187 707 151 698 79 691L75 670L123 670C147 670 157 663 157 648C157 645 157 640 154 622C143 567 70 182 55 132C42 82 36 52 36 31C36 6 47 -9 66 -9C92 -9 128 12 226 85L216 103L190 86C161 67 139 56 129 56C122 56 116 66 116 76C116 82 117 89 120 104Z" stroke="rgb(255,0,0)" stroke-opacity="1" stroke-width="24" fill="rgb(255,0,0)" fill-opacity="1"></path></g></g></g></g><g><g><g><g transform="matrix(1,0,0,1,182.1875,48.171875)"><path transform="matrix(0.017,0,0,-0.017,0,0)" d="M286 646L392 650C454 650 494 641 495 626L503 537L527 537C530 600 537 651 548 689C526 691 498 692 481 692L440 691L275 689L246 689C221 689 181 690 143 691L94 692L91 664L147 662C171 661 182 652 182 635C182 621 178 589 173 559L98 125C81 33 81 32 40 28L4 25L0 -3L34 -2C74 -1 106 0 127 0C145 0 174 -1 213 -2L265 -3L268 25L204 28C177 29 168 37 168 57C168 63 169 74 170 78L206 301L323 301C350 301 381 300 429 298L455 297L474 342L470 349C389 345 329 343 251 343L214 343L260 614C263 630 264 635 269 646Z" stroke="rgb(74,144,226)" stroke-opacity="1" stroke-width="24" fill="rgb(74,144,226)" fill-opacity="1"></path></g></g></g></g></svg>
</svg>
