<svg version="1.1" xmlns="http://www.w3.org/2000/svg" xmlns:xlink="http://www.w3.org/1999/xlink" viewBox="-10 -123.38582611083984 165.2264923622047 133.38583374023438">
  <defs id="backgroundDefs">
    <symbol id="path_american-inductor">
      <g fill="none" stroke="#000" stroke-miterlimit="10" stroke-width=".4">
        <path stroke-linejoin="bevel" stroke-width="1.06267" d="M.53136 8.46801c0-4.38335 2.42845-7.93665 5.42415-7.93665 2.99571 0 5.42416 3.5533 5.42416 7.93665 0-4.38335 2.42844-7.93665 5.42416-7.93665 2.9957 0 5.42415 3.5533 5.42415 7.93665 0-4.38335 2.42846-7.93665 5.42416-7.93665s5.42415 3.5533 5.42415 7.93665c0-4.38335 2.42846-7.93665 5.42415-7.93665 2.99572 0 5.42417 3.5533 5.42417 7.93665"></path>
      </g>
    </symbol>
    <symbol id="path_capacitor">
      <g fill="none" stroke="#000" stroke-miterlimit="10" stroke-width=".4">
        <path stroke-width="1.06267" d="M.53137.53136v31.74816m10.58244-31.74816v31.74816"></path>
      </g>
    </symbol>
    <symbol id="node_ocirc">
      <g stroke="#000" stroke-miterlimit="10" stroke-width=".53134">
        <path fill="#fff" d="M6.16161 4.04545c0-1.16874-.94743-2.11617-2.11617-2.11617s-2.11617.94743-2.11617 2.11617.94743 2.11617 2.11617 2.11617 2.11617-.94744 2.11617-2.11617Zm-2.11617 0"></path>
      </g>
    </symbol>
    <symbol id="node_circ">
      <g stroke="#000" stroke-miterlimit="10" stroke-width=".53134">
        <path d="M6.16161 4.04545c0-1.16874-.94743-2.11617-2.11617-2.11617s-2.11617.94743-2.11617 2.11617.94743 2.11617 2.11617 2.11617 2.11617-.94744 2.11617-2.11617Zm-2.11617 0" fill="#000"></path>
      </g>
    </symbol>
  </defs>
  <g style="" class="">
    <use xlink:href="#path_american-inductor" class="draggable" x="-22.22799999999994" y="-64.94840338582645" transform="matrix(6.123233995736766e-17,1,-1,6.123233995736766e-17,-56.6929133858264,-56.692913385826515)"></use>
    <line x1="6.039613253960852e-14" y1="-113.38582677165319" x2="5.910013108238544e-14" y2="-77.85822338582646" fill="none" stroke="#000000" stroke-width="0.4pt"></line>
    <line x1="6.169213460915499e-14" y1="-35.52759338582646" x2="6.039613253960852e-14" y2="2.7000623958883807e-13" fill="none" stroke="#000000" stroke-width="0.4pt"></line>
  </g>
  <g style="" class="">
    <use xlink:href="#path_capacitor" class="draggable" x="69.76796118110241" y="-101.44481007873986" transform="matrix(6.123233995736766e-17,1,-1,6.123233995736766e-17,-9.448818897637452,-160.62992125984226)"></use>
    <line x1="75.59055118110241" y1="-113.38582677165324" x2="75.59055118110241" y2="-90.33059007873986" fill="none" stroke="#000000" stroke-width="0.4pt"></line>
    <line x1="75.59055118110241" y1="-79.74815007873987" x2="75.59055118110241" y2="-56.69291338582647" fill="none" stroke="#000000" stroke-width="0.4pt"></line>
  </g>
  <g style="" class="dragging">
    <use xlink:href="#path_capacitor" class="draggable" x="69.76796118110241" y="-44.75189669291312" transform="matrix(6.123233995736766e-17,1,-1,6.123233995736766e-17,47.24409448818929,-103.93700787401553)"></use>
    <line x1="75.59055118110241" y1="-56.692913385826515" x2="75.59055118110241" y2="-33.637676692913125" fill="none" stroke="#000000" stroke-width="0.4pt"></line>
    <line x1="75.59055118110241" y1="-23.05523669291312" x2="75.59055118110241" y2="2.7000623958883807e-13" fill="none" stroke="#000000" stroke-width="0.4pt"></line>
  </g>
  <polyline points="6.039613253960852e-14,2.7000623958883807e-13 75.59055118110241,2.7000623958883807e-13 151.1811023622047,2.7000623958883807e-13" fill="none" stroke="#000000" stroke-width="0.4pt"></polyline>
  <polyline points="6.039613253960852e-14,-113.38582677165319 151.1811023622047,-113.38582677165319" fill="none" stroke="#000000" stroke-width="0.4pt"></polyline>
  <polyline points="75.59055118110241,-56.692913385826515 151.1811023622047,-56.692913385826515" fill="none" stroke="#000000" stroke-width="0.4pt"></polyline>
  <use xlink:href="#node_ocirc" transform="matrix(1,0,0,1,0,0)" class="draggable" x="147.1356623622047" y="-117.43127677165319" stroke="#000000"></use>
  <use xlink:href="#node_ocirc" transform="matrix(1,0,0,1,0,0)" class="draggable" x="147.1356623622047" y="-60.73836338582652" stroke="#000000"></use>
  <use xlink:href="#node_ocirc" transform="matrix(1,0,0,1,0,0)" class="draggable" x="147.1356623622047" y="-4.04544999999973" stroke="#000000"></use>
  <use xlink:href="#node_circ" transform="matrix(1,0,0,1,0,0)" class="draggable" x="71.54511118110241" y="-117.43127677165319" stroke="#000000"></use>
  <use xlink:href="#node_circ" transform="matrix(1,0,0,1,0,0)" class="draggable" x="71.54511118110241" y="-60.73836338582652" stroke="#000000"></use>
  <use xlink:href="#node_circ" transform="matrix(1,0,0,1,0,0)" class="draggable" x="71.54511118110241" y="-4.04544999999973" stroke="#000000"></use>
</svg>