<svg version="1.1" xmlns="http://www.w3.org/2000/svg" viewBox="0 0 854 610" width="854" height="610" filter="invert(93%) hue-rotate(180deg)" class="excalidraw-svg"><!-- svg-source:excalidraw --><metadata></metadata><defs><style class="style-fonts">
      </style></defs><g transform="translate(15.00006103515625 458.00006103515625) rotate(0 401.99993896484375 3)" stroke="none"><path fill="#1e1e1e" d="M 2.00,3.34 Q 2.00,3.34 1.10,3.60 0.20,3.86 2.20,2.21 4.20,0.57 6.46,0.70 8.71,0.82 14.03,1.49 19.34,2.16 24.80,2.83 30.25,3.50 39.64,3.85 49.02,4.20 57.69,4.69 66.36,5.18 80.88,5.13 95.39,5.09 107.93,5.10 120.46,5.11 140.41,4.56 160.36,4.01 176.62,3.50 192.87,2.99 216.17,2.21 239.46,1.43 257.99,0.82 276.52,0.21 301.35,-0.61 326.19,-1.44 345.37,-2.08 364.55,-2.72 389.11,-3.27 413.66,-3.83 439.90,-4.35 466.15,-4.87 484.79,-5.09 503.43,-5.31 518.54,-5.40 533.65,-5.49 553.88,-5.53 574.10,-5.57 589.02,-5.59 603.94,-5.60 622.09,-5.32 640.24,-5.04 662.61,-4.63 684.98,-4.23 698.79,-4.05 712.60,-3.88 726.23,-3.81 739.85,-3.73 749.14,-3.41 758.42,-3.09 768.40,-2.67 778.37,-2.25 784.89,-2.07 791.41,-1.89 796.47,-1.81 801.53,-1.73 803.69,-1.96 805.85,-2.19 806.35,-2.10 806.85,-2.01 807.30,-1.76 807.75,-1.52 808.09,-1.14 808.43,-0.77 808.64,-0.30 808.85,0.15 808.89,0.66 808.94,1.16 808.83,1.66 808.71,2.15 808.44,2.59 808.17,3.02 807.78,3.34 807.39,3.67 806.91,3.85 806.43,4.03 805.93,4.05 805.42,4.07 804.93,3.92 804.44,3.78 804.02,3.49 803.61,3.20 803.31,2.79 803.00,2.38 802.85,1.89 802.69,1.41 802.70,0.90 802.71,0.39 802.88,-0.08 803.05,-0.56 803.36,-0.96 803.68,-1.36 804.10,-1.64 804.53,-1.92 805.02,-2.05 805.51,-2.17 806.02,-2.14 806.53,-2.10 807.00,-1.91 807.47,-1.71 807.85,-1.38 808.23,-1.04 808.49,-0.60 808.74,-0.16 808.85,0.33 808.95,0.82 808.88,1.33 808.82,1.83 808.60,2.29 808.38,2.75 808.02,3.12 807.67,3.48 807.22,3.71 806.76,3.94 806.26,4.02 805.76,4.09 805.76,4.09 805.76,4.09 803.60,3.80 801.45,3.51 796.36,3.43 791.26,3.36 784.71,3.18 778.15,3.00 768.19,2.57 758.24,2.15 749.03,1.83 739.82,1.51 726.18,1.44 712.53,1.37 698.71,1.20 684.88,1.02 662.52,0.62 640.16,0.21 622.05,-0.06 603.94,-0.34 589.03,-0.32 574.11,-0.30 553.90,-0.26 533.68,-0.21 518.59,-0.12 503.49,-0.02 484.87,0.20 466.26,0.43 440.02,0.96 413.78,1.49 389.26,2.06 364.73,2.62 345.55,3.28 326.37,3.93 301.54,4.79 276.70,5.65 258.18,6.29 239.65,6.94 216.35,7.77 193.06,8.60 176.80,9.18 160.53,9.75 140.51,10.40 120.49,11.05 107.97,11.17 95.45,11.29 80.76,11.50 66.08,11.72 57.48,11.47 48.88,11.23 39.25,11.19 29.62,11.16 24.18,10.93 18.74,10.70 13.29,10.60 7.84,10.50 5.06,10.18 2.28,9.86 -1.21,8.74 -4.71,7.61 -5.82,5.75 -6.93,3.89 -6.44,1.74 -5.95,-0.41 -3.97,-1.87 -2.00,-3.34 -1.57,-3.53 -1.14,-3.72 -0.68,-3.81 -0.22,-3.89 0.24,-3.86 0.71,-3.83 1.16,-3.69 1.61,-3.55 2.01,-3.30 2.41,-3.06 2.74,-2.72 3.07,-2.39 3.31,-1.99 3.56,-1.58 3.69,-1.13 3.83,-0.68 3.86,-0.22 3.89,0.24 3.80,0.71 3.71,1.17 3.52,1.60 3.33,2.02 3.03,2.39 2.74,2.76 2.37,3.05 2.00,3.34 2.00,3.34 L 2.00,3.34 Z"></path></g><g transform="translate(49 452.00006103515625) rotate(0 -17.999969482421875 14.99993896484375)" stroke="none"><path fill="#1e1e1e" d="M 0.71,4.99 Q 0.71,4.99 -1.28,5.35 -3.28,5.71 -6.19,6.86 -9.10,8.01 -11.47,9.20 -13.85,10.39 -15.88,11.26 -17.91,12.13 -21.34,13.61 -24.76,15.08 -27.03,16.80 -29.29,18.53 -26.71,19.07 -24.14,19.62 -21.60,20.01 -19.06,20.41 -16.87,20.90 -14.69,21.38 -11.24,22.40 -7.79,23.42 -6.16,23.99 -4.52,24.56 -3.60,25.09 -2.68,25.61 -1.98,26.40 -1.27,27.19 -0.86,28.17 -0.44,29.14 -0.36,30.19 -0.28,31.25 -0.54,32.28 -0.80,33.30 -1.37,34.19 -1.95,35.08 -2.77,35.74 -3.60,36.40 -4.60,36.77 -5.59,37.13 -6.65,37.15 -7.71,37.18 -8.72,36.86 -9.73,36.55 -10.59,35.93 -11.44,35.31 -12.06,34.44 -12.67,33.58 -12.98,32.57 -13.29,31.56 -13.26,30.50 -13.22,29.44 -12.85,28.45 -12.49,27.45 -11.82,26.63 -11.15,25.81 -10.26,25.24 -9.36,24.67 -8.34,24.42 -7.31,24.17 -6.25,24.26 -5.20,24.35 -4.23,24.77 -3.26,25.20 -2.47,25.91 -1.68,26.62 -1.17,27.54 -0.65,28.46 -0.45,29.50 -0.26,30.54 -0.41,31.59 -0.55,32.64 -1.03,33.59 -1.50,34.53 -2.25,35.28 -3.00,36.03 -3.95,36.49 -4.90,36.96 -5.95,37.10 -7.00,37.24 -8.04,37.03 -9.08,36.83 -9.08,36.83 -9.08,36.83 -11.47,35.77 -13.86,34.72 -16.92,34.05 -19.99,33.38 -22.09,32.62 -24.20,31.86 -26.64,31.38 -29.08,30.91 -31.62,29.72 -34.15,28.53 -36.41,26.75 -38.67,24.97 -39.53,22.46 -40.39,19.94 -39.92,17.43 -39.46,14.92 -37.93,12.69 -36.40,10.45 -33.06,7.44 -29.71,4.42 -27.63,3.50 -25.55,2.58 -22.09,1.28 -18.62,-0.01 -15.74,-1.11 -12.85,-2.22 -8.80,-3.39 -4.76,-4.56 -2.74,-4.78 -0.71,-4.99 -0.10,-5.00 0.50,-5.02 1.09,-4.88 1.68,-4.75 2.23,-4.48 2.77,-4.21 3.24,-3.81 3.70,-3.42 4.06,-2.93 4.41,-2.43 4.64,-1.87 4.87,-1.31 4.95,-0.70 5.04,-0.10 4.98,0.49 4.92,1.10 4.72,1.67 4.51,2.25 4.18,2.75 3.84,3.26 3.40,3.67 2.95,4.09 2.42,4.38 1.88,4.68 1.30,4.83 0.71,4.99 0.71,4.99 L 0.71,4.99 Z"></path></g><g transform="translate(817 447) rotate(0 12 12.5)" stroke="none"><path fill="#1e1e1e" d="M 5.04,1.68 Q 5.04,1.68 4.26,0.62 3.47,-0.42 6.28,-0.78 9.08,-1.14 12.57,-0.27 16.05,0.58 18.70,1.00 21.36,1.42 24.23,2.49 27.11,3.57 29.04,5.49 30.96,7.41 31.37,10.42 31.78,13.43 30.58,15.66 29.38,17.88 27.27,19.61 25.16,21.34 23.18,22.52 21.19,23.70 17.54,25.39 13.89,27.07 10.99,28.62 8.09,30.18 7.11,30.58 6.12,30.98 5.07,31.05 4.01,31.11 2.98,30.84 1.96,30.56 1.07,29.97 0.19,29.38 -0.45,28.54 -1.10,27.70 -1.45,26.70 -1.79,25.70 -1.80,24.64 -1.81,23.57 -1.48,22.57 -1.15,21.56 -0.51,20.71 0.12,19.86 0.99,19.25 1.86,18.65 2.88,18.36 3.90,18.07 4.96,18.12 6.03,18.17 7.01,18.55 8.00,18.94 8.82,19.62 9.63,20.30 10.19,21.20 10.74,22.11 10.98,23.14 11.21,24.18 11.11,25.24 11.00,26.29 10.56,27.26 10.12,28.23 9.40,29.00 8.67,29.78 7.74,30.28 6.81,30.79 5.76,30.97 4.71,31.15 3.67,30.98 2.62,30.82 1.67,30.33 0.73,29.84 0.00,29.07 -0.73,28.31 -1.18,27.35 -1.63,26.39 -1.76,25.33 -1.88,24.28 -1.66,23.24 -1.44,22.20 -0.90,21.29 -0.36,20.38 0.44,19.68 1.24,18.99 1.24,18.99 1.24,18.99 3.08,17.91 4.93,16.83 8.24,15.33 11.55,13.83 13.98,12.64 16.40,11.45 18.34,9.97 20.27,8.48 19.29,10.98 18.31,13.48 15.22,12.79 12.12,12.09 9.66,11.32 7.20,10.54 3.71,9.57 0.23,8.60 -2.19,6.24 -4.62,3.87 -4.83,1.09 -5.04,-1.68 -4.77,-2.26 -4.49,-2.84 -4.09,-3.33 -3.68,-3.83 -3.17,-4.22 -2.66,-4.60 -2.07,-4.85 -1.48,-5.10 -0.84,-5.21 -0.21,-5.31 0.42,-5.26 1.06,-5.21 1.67,-5.01 2.27,-4.80 2.82,-4.46 3.36,-4.12 3.80,-3.66 4.25,-3.19 4.57,-2.64 4.89,-2.08 5.07,-1.47 5.25,-0.85 5.27,-0.21 5.30,0.42 5.17,1.05 5.04,1.68 5.04,1.68 L 5.04,1.68 Z"></path></g><g transform="translate(436 519) rotate(0 -9.5 -201.49998474121094)" stroke="none"><path fill="#1e1e1e" d="M -3.29,1.23 Q -3.29,1.23 -4.31,-1.00 -5.34,-3.25 -5.96,-5.36 -6.57,-7.46 -6.56,-13.20 -6.54,-18.93 -6.52,-22.97 -6.49,-27.00 -6.85,-30.30 -7.20,-33.59 -7.20,-39.20 -7.20,-44.81 -7.15,-49.46 -7.10,-54.11 -7.62,-61.44 -8.14,-68.77 -8.34,-75.15 -8.54,-81.53 -9.18,-90.79 -9.82,-100.04 -10.37,-107.44 -10.92,-114.84 -11.43,-124.92 -11.94,-135.00 -13.59,-162.55 -15.24,-190.10 -16.22,-208.14 -17.21,-226.18 -17.91,-237.00 -18.61,-247.81 -19.19,-255.27 -19.77,-262.73 -20.31,-271.69 -20.84,-280.64 -21.07,-289.94 -21.30,-299.25 -21.39,-305.78 -21.49,-312.32 -21.53,-317.40 -21.57,-322.48 -21.59,-328.66 -21.60,-334.85 -21.61,-339.49 -21.62,-344.13 -21.33,-349.34 -21.04,-354.55 -21.05,-358.15 -21.06,-361.74 -21.01,-365.84 -20.95,-369.93 -21.15,-372.55 -21.35,-375.16 -21.24,-377.65 -21.12,-380.13 -21.15,-382.67 -21.17,-385.21 -21.39,-388.74 -21.61,-392.27 -21.81,-394.62 -22.01,-396.97 -23.04,-399.01 -24.07,-401.05 -24.11,-401.69 -24.15,-402.34 -24.04,-402.97 -23.92,-403.61 -23.66,-404.20 -23.40,-404.79 -23.00,-405.29 -22.61,-405.80 -22.10,-406.20 -21.59,-406.60 -21.01,-406.87 -20.42,-407.14 -19.79,-407.25 -19.15,-407.37 -18.51,-407.34 -17.86,-407.30 -17.25,-407.11 -16.63,-406.92 -16.08,-406.59 -15.53,-406.26 -15.07,-405.80 -14.61,-405.35 -14.27,-404.80 -13.94,-404.25 -13.74,-403.63 -13.55,-403.02 -16.48,-399.87 -19.42,-396.72 -20.25,-396.96 -21.08,-397.19 -21.80,-397.68 -22.51,-398.17 -23.03,-398.86 -23.55,-399.56 -23.82,-400.38 -24.09,-401.20 -24.09,-402.07 -24.08,-402.93 -23.80,-403.75 -23.52,-404.57 -22.99,-405.25 -22.46,-405.94 -21.75,-406.42 -21.03,-406.90 -20.19,-407.13 -19.36,-407.36 -18.49,-407.30 -17.63,-407.25 -16.83,-406.93 -16.02,-406.60 -15.37,-406.04 -14.71,-405.47 -14.27,-404.73 -13.83,-403.99 -13.65,-403.14 -13.47,-402.29 -13.56,-401.43 -13.66,-400.57 -14.03,-399.79 -14.40,-399.01 -15.00,-398.38 -15.60,-397.76 -16.36,-397.36 -17.13,-396.96 -17.99,-396.82 -18.84,-396.69 -19.69,-396.83 -20.55,-396.98 -21.31,-397.39 -22.07,-397.80 -22.66,-398.43 -23.25,-399.06 -23.61,-399.85 -23.97,-400.63 -24.06,-401.50 -24.15,-402.36 -23.96,-403.20 -23.77,-404.04 -23.32,-404.78 -22.86,-405.52 -22.20,-406.08 -21.54,-406.63 -20.73,-406.95 -19.93,-407.27 -22.00,-404.16 -24.07,-401.05 -24.11,-401.69 -24.15,-402.34 -24.04,-402.97 -23.92,-403.61 -23.66,-404.20 -23.40,-404.78 -23.00,-405.29 -22.61,-405.80 -22.10,-406.20 -21.59,-406.60 -21.01,-406.87 -20.42,-407.14 -19.79,-407.25 -19.15,-407.37 -18.51,-407.34 -17.86,-407.30 -17.25,-407.11 -16.63,-406.92 -16.08,-406.59 -15.53,-406.26 -15.07,-405.80 -14.61,-405.35 -14.27,-404.80 -13.94,-404.25 -13.74,-403.63 -13.55,-403.02 -12.77,-400.06 -11.99,-397.11 -12.22,-394.63 -12.45,-392.16 -12.82,-388.50 -13.19,-384.84 -13.95,-379.97 -14.70,-375.10 -14.95,-372.48 -15.19,-369.86 -15.24,-365.70 -15.28,-361.55 -15.54,-357.90 -15.79,-354.26 -16.07,-349.20 -16.35,-344.14 -16.34,-339.50 -16.34,-334.87 -16.32,-328.69 -16.30,-322.52 -16.26,-317.46 -16.21,-312.39 -16.11,-305.88 -16.01,-299.38 -15.78,-290.17 -15.55,-280.96 -15.01,-272.05 -14.47,-263.15 -13.88,-255.66 -13.28,-248.16 -12.56,-237.32 -11.84,-226.48 -10.84,-208.45 -9.83,-190.42 -8.15,-162.86 -6.47,-135.29 -5.92,-125.28 -5.36,-115.27 -4.76,-107.86 -4.15,-100.46 -3.42,-91.11 -2.69,-81.77 -2.39,-75.51 -2.08,-69.26 -1.40,-61.72 -0.72,-54.19 -0.56,-49.58 -0.39,-44.97 -0.12,-39.62 0.14,-34.26 0.41,-30.69 0.69,-27.12 0.85,-23.14 1.00,-19.15 1.45,-12.55 1.89,-5.94 2.59,-3.59 3.29,-1.23 3.39,-0.82 3.49,-0.41 3.49,0.01 3.48,0.43 3.38,0.84 3.28,1.25 3.08,1.63 2.88,2.00 2.60,2.32 2.32,2.64 1.97,2.88 1.62,3.11 1.22,3.26 0.82,3.41 0.40,3.46 -0.01,3.51 -0.43,3.46 -0.85,3.41 -1.25,3.25 -1.64,3.10 -1.99,2.86 -2.34,2.62 -2.62,2.30 -2.90,1.98 -3.09,1.61 -3.29,1.23 -3.29,1.23 L -3.29,1.23 Z"></path></g><g transform="translate(425 110.00003051757812) rotate(0 -13.5 19.999984741210938)" stroke="none"><path fill="#1e1e1e" d="M 4.07,3.39 Q 4.07,3.39 2.67,5.14 1.26,6.89 -0.40,9.53 -2.07,12.16 -3.47,13.91 -4.88,15.66 -6.67,18.35 -8.47,21.03 -10.90,24.10 -13.34,27.17 -14.53,29.28 -15.72,31.40 -17.15,33.90 -18.58,36.39 -19.55,38.39 -20.51,40.39 -20.01,40.80 -19.50,41.21 -19.94,41.86 -20.37,42.50 -20.95,43.02 -21.52,43.54 -22.21,43.90 -22.89,44.27 -23.64,44.46 -24.39,44.66 -25.17,44.66 -25.95,44.67 -26.70,44.49 -27.46,44.31 -28.15,43.96 -28.84,43.60 -29.42,43.09 -30.01,42.58 -30.45,41.95 -30.90,41.32 -31.18,40.59 -31.46,39.87 -31.56,39.10 -31.66,38.33 -31.58,37.56 -31.49,36.79 -31.22,36.06 -30.95,35.33 -29.78,34.06 -28.60,32.80 -27.64,32.40 -26.68,32.00 -25.64,31.94 -24.60,31.87 -23.59,32.14 -22.59,32.40 -21.72,32.98 -20.85,33.55 -20.21,34.38 -19.57,35.20 -19.23,36.18 -18.89,37.17 -18.88,38.21 -18.87,39.25 -19.19,40.24 -19.51,41.23 -20.13,42.06 -20.75,42.90 -21.61,43.49 -22.46,44.09 -23.46,44.38 -24.46,44.66 -25.50,44.62 -26.54,44.57 -27.51,44.20 -28.49,43.82 -29.29,43.16 -30.09,42.49 -30.63,41.61 -31.18,40.72 -31.41,39.70 -31.65,38.69 -31.55,37.65 -31.45,36.62 -31.02,35.67 -30.59,34.72 -29.88,33.96 -29.18,33.19 -28.26,32.69 -27.35,32.20 -26.32,32.02 -25.29,31.84 -24.27,32.00 -23.24,32.15 -22.31,32.63 -21.39,33.11 -20.66,33.86 -19.94,34.61 -19.49,35.55 -19.04,36.49 -18.92,37.52 -18.80,38.56 -19.01,39.57 -19.22,40.59 -19.75,41.49 -20.28,42.39 -19.89,41.80 -19.50,41.21 -19.94,41.86 -20.37,42.50 -20.95,43.02 -21.52,43.54 -22.21,43.90 -22.89,44.27 -23.64,44.46 -24.39,44.66 -25.17,44.66 -25.95,44.67 -26.70,44.49 -27.45,44.31 -28.15,43.96 -28.84,43.60 -29.42,43.09 -30.01,42.58 -30.45,41.95 -30.90,41.32 -31.18,40.59 -31.46,39.87 -31.56,39.10 -31.66,38.33 -31.58,37.56 -31.49,36.79 -31.22,36.06 -30.95,35.33 -31.44,34.95 -31.92,34.57 -30.70,32.39 -29.49,30.21 -27.92,27.74 -26.35,25.27 -24.54,22.54 -22.74,19.82 -20.35,16.96 -17.97,14.09 -15.77,11.15 -13.57,8.20 -11.61,5.78 -9.65,3.36 -8.33,1.68 -7.01,0.00 -5.54,-1.69 -4.07,-3.39 -3.61,-3.83 -3.14,-4.27 -2.58,-4.58 -2.03,-4.90 -1.41,-5.07 -0.79,-5.24 -0.15,-5.26 0.48,-5.28 1.10,-5.15 1.73,-5.01 2.30,-4.73 2.88,-4.45 3.37,-4.04 3.86,-3.63 4.24,-3.12 4.62,-2.60 4.86,-2.01 5.11,-1.42 5.20,-0.79 5.30,-0.16 5.24,0.47 5.18,1.11 4.97,1.71 4.77,2.32 4.42,2.86 4.07,3.39 4.07,3.39 L 4.07,3.39 Z"></path></g><g transform="translate(429 107.00003051757812) rotate(0 12.5 16.5)" stroke="none"><path fill="#1e1e1e" d="M 4.14,-3.31 Q 4.14,-3.31 5.34,-1.91 6.55,-0.52 8.59,2.65 10.64,5.82 12.30,8.83 13.95,11.83 15.98,14.88 18.00,17.93 20.00,20.45 22.00,22.96 23.86,24.27 25.72,25.58 27.08,26.67 28.44,27.75 29.11,28.52 29.77,29.28 30.15,30.21 30.53,31.14 30.60,32.15 30.67,33.16 30.41,34.13 30.15,35.11 29.59,35.95 29.03,36.79 28.24,37.41 27.44,38.03 26.49,38.36 25.54,38.69 24.53,38.70 23.52,38.71 22.56,38.40 21.60,38.09 20.79,37.49 19.98,36.89 19.41,36.06 18.83,35.23 18.55,34.26 18.27,33.29 18.31,32.29 18.36,31.28 18.72,30.34 19.08,29.40 19.73,28.62 20.37,27.84 21.23,27.31 22.09,26.78 23.07,26.56 24.05,26.33 25.06,26.43 26.06,26.53 26.98,26.94 27.90,27.35 28.64,28.04 29.38,28.72 29.86,29.61 30.35,30.50 30.52,31.49 30.69,32.48 30.54,33.48 30.39,34.48 29.93,35.37 29.46,36.27 28.74,36.97 28.02,37.67 27.10,38.11 26.19,38.54 25.19,38.66 24.19,38.78 23.20,38.57 22.22,38.37 21.35,37.86 20.48,37.35 20.48,37.35 20.48,37.35 19.41,36.42 18.35,35.49 15.38,32.89 12.40,30.29 10.33,27.48 8.26,24.67 5.88,20.91 3.49,17.15 2.08,14.21 0.67,11.28 -0.63,8.77 -1.95,6.27 -3.04,4.79 -4.14,3.31 -4.47,2.77 -4.81,2.22 -5.01,1.61 -5.20,1.00 -5.25,0.37 -5.29,-0.26 -5.19,-0.89 -5.08,-1.52 -4.82,-2.11 -4.56,-2.69 -4.17,-3.20 -3.78,-3.71 -3.29,-4.11 -2.79,-4.51 -2.21,-4.78 -1.62,-5.04 -1.00,-5.17 -0.37,-5.29 0.26,-5.26 0.90,-5.22 1.51,-5.04 2.12,-4.86 2.67,-4.53 3.22,-4.20 3.68,-3.76 4.14,-3.31 4.14,-3.31 L 4.14,-3.31 Z"></path></g><g transform="translate(715 445) rotate(0 1.00006103515625 17.000030517578125)" stroke="none"><path fill="#1e1e1e" d="M 5.16,0 Q 5.16,0 4.97,3.73 4.79,7.47 4.82,10.21 4.85,12.95 5.04,15.99 5.24,19.04 5.78,21.43 6.32,23.83 6.93,26.21 7.54,28.59 7.69,30.96 7.84,33.33 7.72,34.27 7.60,35.21 7.18,36.06 6.77,36.91 6.10,37.59 5.44,38.27 4.59,38.70 3.75,39.12 2.81,39.26 1.87,39.40 0.94,39.23 0.00,39.05 -0.82,38.59 -1.65,38.13 -2.29,37.43 -2.93,36.73 -3.31,35.86 -3.69,35.00 -3.78,34.05 -3.86,33.11 -3.64,32.18 -3.42,31.26 -2.91,30.46 -2.41,29.65 -1.67,29.05 -0.94,28.45 -0.05,28.12 0.83,27.78 1.77,27.75 2.72,27.72 3.63,27.99 4.54,28.26 5.32,28.81 6.09,29.35 6.65,30.12 7.21,30.88 7.50,31.79 7.78,32.69 7.76,33.64 7.75,34.59 7.43,35.48 7.11,36.38 6.52,37.12 5.93,37.87 5.13,38.38 4.34,38.90 3.42,39.14 2.50,39.37 1.56,39.30 0.61,39.24 -0.25,38.87 -1.13,38.50 -1.84,37.87 -2.55,37.24 -3.03,36.42 -3.50,35.60 -3.69,34.67 -3.87,33.74 -3.87,33.74 -3.87,33.74 -3.93,31.13 -4.00,28.52 -4.37,25.94 -4.75,23.37 -4.99,21.22 -5.24,19.06 -5.04,16.01 -4.85,12.95 -4.82,10.21 -4.79,7.47 -4.97,3.73 -5.16,0 -5.09,-0.61 -5.01,-1.23 -4.79,-1.81 -4.57,-2.40 -4.22,-2.91 -3.86,-3.42 -3.40,-3.83 -2.93,-4.25 -2.38,-4.54 -1.83,-4.83 -1.22,-4.97 -0.62,-5.12 0.00,-5.12 0.62,-5.12 1.22,-4.97 1.83,-4.83 2.38,-4.54 2.93,-4.25 3.40,-3.83 3.86,-3.42 4.22,-2.91 4.57,-2.40 4.79,-1.81 5.01,-1.23 5.09,-0.61 5.16,0.00 5.16,0.00 L 5.16,0 Z"></path></g><g transform="translate(714.0001220703125 535) rotate(0 1.5 18.500030517578125)" stroke="none"><path fill="#1e1e1e" d="M 5.06,-1.26 Q 5.06,-1.26 5.43,-0.13 5.80,1.00 6.17,4.93 6.54,8.86 7.09,11.58 7.64,14.30 7.62,17.43 7.59,20.56 7.62,22.98 7.64,25.40 7.99,28.01 8.35,30.62 8.67,32.92 9.00,35.22 9.06,37.42 9.12,39.61 8.97,40.59 8.81,41.57 8.35,42.45 7.90,43.33 7.18,44.02 6.47,44.70 5.57,45.13 4.68,45.55 3.69,45.66 2.71,45.78 1.74,45.57 0.77,45.37 -0.08,44.86 -0.93,44.36 -1.58,43.61 -2.22,42.86 -2.60,41.94 -2.97,41.02 -3.03,40.03 -3.09,39.04 -2.83,38.08 -2.58,37.13 -2.03,36.30 -1.48,35.48 -0.69,34.87 0.08,34.27 1.02,33.94 1.96,33.62 2.95,33.61 3.94,33.61 4.88,33.91 5.82,34.22 6.62,34.82 7.41,35.41 7.97,36.23 8.53,37.04 8.81,38.00 9.08,38.95 9.03,39.94 8.99,40.93 8.62,41.85 8.26,42.78 7.63,43.54 6.99,44.30 6.15,44.82 5.30,45.33 4.34,45.55 3.37,45.77 2.38,45.67 1.40,45.57 0.49,45.16 -0.40,44.75 -1.12,44.08 -1.85,43.40 -2.32,42.53 -2.79,41.66 -2.96,40.68 -3.12,39.70 -3.12,39.70 -3.12,39.70 -3.17,36.26 -3.21,32.82 -3.46,29.17 -3.71,25.51 -3.73,23.15 -3.76,20.78 -3.90,18.06 -4.03,15.34 -4.36,12.26 -4.70,9.18 -4.68,6.39 -4.65,3.59 -4.86,2.43 -5.06,1.26 -5.14,0.64 -5.22,0.01 -5.15,-0.60 -5.07,-1.23 -4.85,-1.82 -4.63,-2.41 -4.27,-2.93 -3.92,-3.45 -3.45,-3.87 -2.98,-4.29 -2.42,-4.58 -1.86,-4.87 -1.25,-5.03 -0.64,-5.18 -0.01,-5.18 0.61,-5.18 1.22,-5.04 1.83,-4.89 2.39,-4.60 2.95,-4.30 3.42,-3.89 3.90,-3.47 4.25,-2.96 4.61,-2.44 4.84,-1.85 5.06,-1.26 5.06,-1.26 L 5.06,-1.26 Z"></path></g><g transform="translate(718 532) rotate(0 22.5 22.500030517578125)" stroke="none"><path fill="#1e1e1e" d="M -0.88,-5.28 Q -0.88,-5.28 0.83,-5.63 2.54,-5.99 5.50,-6.33 8.47,-6.66 11.47,-6.80 14.48,-6.93 17.99,-6.68 21.50,-6.44 24.11,-6.36 26.73,-6.29 29.88,-5.48 33.04,-4.67 35.35,-4.03 37.66,-3.39 40.11,-0.55 42.56,2.29 42.47,5.11 42.38,7.94 40.59,10.34 38.79,12.75 36.01,14.44 33.23,16.14 30.39,17.82 27.55,19.50 24.45,14.08 21.36,8.67 23.97,8.29 26.59,7.91 29.63,8.28 32.67,8.65 36.00,9.66 39.34,10.66 41.32,11.67 43.31,12.67 45.50,14.28 47.69,15.89 49.08,18.00 50.47,20.12 51.21,23.38 51.95,26.63 51.65,29.74 51.35,32.84 49.13,36.35 46.92,39.86 43.54,42.59 40.17,45.32 36.44,47.13 32.71,48.94 28.77,50.29 24.82,51.64 21.23,52.11 17.64,52.58 13.75,52.26 9.86,51.94 6.90,51.33 3.93,50.73 2.91,50.32 1.89,49.91 1.05,49.20 0.21,48.48 -0.35,47.54 -0.91,46.60 -1.15,45.52 -1.38,44.45 -1.26,43.35 -1.14,42.26 -0.68,41.26 -0.22,40.26 0.53,39.46 1.29,38.66 2.26,38.15 3.24,37.63 4.32,37.46 5.41,37.28 6.49,37.46 7.58,37.64 8.55,38.16 9.52,38.67 10.28,39.47 11.04,40.27 11.50,41.27 11.96,42.27 12.08,43.37 12.19,44.46 11.96,45.54 11.72,46.61 11.15,47.55 10.58,48.50 9.74,49.21 8.90,49.92 7.88,50.33 6.85,50.73 5.76,50.79 4.66,50.85 3.60,50.55 2.54,50.26 1.63,49.64 0.71,49.02 0.05,48.14 -0.61,47.26 -0.96,46.22 -1.31,45.18 -1.30,44.08 -1.30,42.97 -0.95,41.93 -0.60,40.89 0.06,40.01 0.73,39.14 1.64,38.52 2.55,37.91 3.61,37.61 4.67,37.32 5.77,37.38 6.87,37.44 6.87,37.44 6.87,37.44 8.23,37.94 9.60,38.43 13.15,38.77 16.71,39.11 18.95,38.88 21.20,38.66 24.14,37.55 27.09,36.43 29.79,35.02 32.50,33.61 34.31,32.09 36.13,30.58 36.91,28.27 37.69,25.95 35.49,24.82 33.28,23.68 30.89,22.89 28.50,22.09 25.67,22.06 22.84,22.03 20.74,21.57 18.63,21.11 16.45,17.15 14.27,13.19 17.78,10.10 21.29,7.02 23.37,6.03 25.44,5.04 27.79,4.39 30.13,3.75 31.19,5.91 32.26,8.06 29.25,7.10 26.23,6.13 22.85,5.86 19.47,5.59 17.01,5.27 14.54,4.96 11.69,4.89 8.84,4.82 6.59,4.83 4.35,4.84 2.61,5.06 0.88,5.28 0.23,5.30 -0.40,5.33 -1.04,5.21 -1.67,5.08 -2.25,4.81 -2.84,4.53 -3.34,4.13 -3.84,3.72 -4.23,3.20 -4.62,2.69 -4.88,2.10 -5.13,1.51 -5.24,0.87 -5.34,0.23 -5.29,-0.40 -5.24,-1.05 -5.04,-1.66 -4.84,-2.27 -4.50,-2.82 -4.16,-3.36 -3.69,-3.81 -3.23,-4.26 -2.67,-4.59 -2.11,-4.91 -1.49,-5.09 -0.87,-5.28 -0.87,-5.28 L -0.88,-5.28 Z"></path></g><g transform="translate(127 458.00006103515625) rotate(0 1.5 20.99993896484375)" stroke="none"><path fill="#1e1e1e" d="M 5.20,-1.04 Q 5.20,-1.04 5.56,0.38 5.93,1.80 6.27,5.39 6.61,8.97 6.71,12.88 6.80,16.78 7.11,20.38 7.41,23.98 7.69,27.38 7.97,30.78 8.27,33.71 8.58,36.64 8.85,39.54 9.13,42.45 9.04,43.45 8.94,44.45 8.54,45.37 8.13,46.30 7.45,47.04 6.77,47.78 5.89,48.27 5.01,48.76 4.02,48.94 3.02,49.12 2.03,48.97 1.03,48.83 0.13,48.37 -0.76,47.91 -1.46,47.19 -2.17,46.48 -2.61,45.57 -3.04,44.66 -3.17,43.66 -3.30,42.66 -3.10,41.68 -2.90,40.69 -2.39,39.82 -1.89,38.94 -1.13,38.28 -0.38,37.61 0.54,37.22 1.47,36.83 2.48,36.76 3.48,36.69 4.46,36.94 5.43,37.19 6.28,37.75 7.12,38.30 7.74,39.09 8.37,39.88 8.70,40.83 9.04,41.78 9.06,42.78 9.08,43.79 8.77,44.75 8.47,45.71 7.87,46.52 7.28,47.34 6.45,47.92 5.63,48.50 4.66,48.78 3.70,49.07 2.69,49.03 1.68,49.00 0.74,48.64 -0.19,48.28 -0.97,47.64 -1.75,47.00 -2.28,46.15 -2.82,45.30 -3.05,44.32 -3.29,43.34 -3.29,43.34 -3.29,43.34 -3.37,41.23 -3.45,39.13 -3.79,35.19 -4.12,31.25 -4.20,28.39 -4.27,25.52 -4.55,21.18 -4.83,16.84 -4.80,13.06 -4.77,9.28 -4.77,6.61 -4.78,3.94 -4.99,2.49 -5.20,1.04 -5.25,0.40 -5.29,-0.23 -5.19,-0.86 -5.08,-1.49 -4.83,-2.08 -4.58,-2.67 -4.19,-3.18 -3.81,-3.69 -3.31,-4.09 -2.81,-4.49 -2.23,-4.76 -1.65,-5.03 -1.03,-5.16 -0.40,-5.28 0.23,-5.26 0.87,-5.23 1.48,-5.05 2.09,-4.87 2.65,-4.55 3.20,-4.22 3.66,-3.78 4.12,-3.33 4.46,-2.79 4.80,-2.25 5.00,-1.64 5.20,-1.03 5.20,-1.04 L 5.20,-1.04 Z"></path></g><g transform="translate(73 561) rotate(0 15.5 1.000030517578125)" stroke="none"><path fill="#1e1e1e" d="M 0.72,-5.04 Q 0.72,-5.04 4.70,-4.20 8.69,-3.36 10.91,-3.22 13.12,-3.08 16.29,-3.15 19.45,-3.22 22.01,-3.61 24.57,-3.99 27.35,-4.25 30.13,-4.51 31.03,-4.41 31.92,-4.32 32.74,-3.95 33.56,-3.58 34.21,-2.96 34.87,-2.35 35.29,-1.56 35.72,-0.77 35.87,0.11 36.02,1.00 35.88,1.88 35.74,2.77 35.32,3.57 34.90,4.36 34.26,4.98 33.61,5.60 32.79,5.99 31.98,6.37 31.09,6.47 30.20,6.57 29.32,6.38 28.44,6.20 27.67,5.74 26.89,5.28 26.31,4.60 25.72,3.92 25.39,3.08 25.05,2.25 25.00,1.35 24.94,0.46 25.18,-0.40 25.41,-1.27 25.91,-2.01 26.41,-2.76 27.13,-3.31 27.84,-3.85 28.69,-4.15 29.54,-4.44 30.44,-4.44 31.33,-4.45 32.19,-4.16 33.04,-3.88 33.76,-3.34 34.48,-2.80 34.98,-2.06 35.49,-1.32 35.74,-0.46 35.98,0.40 35.94,1.29 35.89,2.19 35.57,3.03 35.24,3.86 34.66,4.55 34.08,5.24 33.32,5.71 32.55,6.17 31.67,6.37 30.80,6.57 30.80,6.57 30.80,6.57 28.56,6.69 26.33,6.82 22.76,6.95 19.20,7.09 15.65,6.73 12.11,6.36 9.76,6.01 7.40,5.66 3.34,5.35 -0.72,5.04 -1.31,4.88 -1.90,4.72 -2.44,4.42 -2.98,4.12 -3.43,3.71 -3.88,3.29 -4.22,2.78 -4.55,2.27 -4.76,1.69 -4.96,1.11 -5.03,0.50 -5.09,-0.10 -5.00,-0.71 -4.91,-1.32 -4.68,-1.89 -4.45,-2.46 -4.09,-2.95 -3.74,-3.45 -3.27,-3.85 -2.80,-4.25 -2.25,-4.52 -1.70,-4.79 -1.10,-4.93 -0.50,-5.06 0.10,-5.05 0.72,-5.04 0.72,-5.04 L 0.72,-5.04 Z"></path></g><g transform="translate(133 546) rotate(0 3 20.500030517578125)" stroke="none"><path fill="#1e1e1e" d="M 5.04,-1.44 Q 5.04,-1.44 5.67,0.55 6.30,2.55 6.89,4.97 7.48,7.38 8.20,11.48 8.92,15.58 9.88,19.46 10.85,23.34 11.26,27.48 11.68,31.63 11.82,36.00 11.97,40.37 11.82,41.33 11.67,42.28 11.22,43.14 10.78,44.00 10.08,44.67 9.38,45.34 8.51,45.75 7.63,46.17 6.67,46.28 5.71,46.39 4.76,46.19 3.82,45.99 2.99,45.49 2.15,45.00 1.52,44.27 0.89,43.54 0.53,42.64 0.16,41.74 0.10,40.78 0.04,39.81 0.30,38.88 0.55,37.95 1.08,37.14 1.62,36.34 2.39,35.75 3.15,35.16 4.07,34.84 4.98,34.52 5.95,34.52 6.92,34.51 7.83,34.81 8.75,35.12 9.53,35.70 10.30,36.28 10.85,37.07 11.40,37.87 11.66,38.80 11.93,39.73 11.88,40.69 11.84,41.66 11.49,42.56 11.13,43.46 10.51,44.20 9.89,44.95 9.07,45.45 8.24,45.95 7.30,46.17 6.36,46.38 5.39,46.29 4.43,46.19 3.55,45.79 2.67,45.39 1.96,44.73 1.26,44.07 0.80,43.22 0.34,42.36 0.18,41.41 0.01,40.46 0.01,40.46 0.01,40.46 0.04,36.28 0.06,32.11 -0.10,28.83 -0.26,25.56 -1.16,21.46 -2.06,17.36 -2.56,13.59 -3.06,9.83 -3.53,7.66 -4.00,5.49 -4.52,3.46 -5.04,1.44 -5.14,0.81 -5.24,0.19 -5.19,-0.43 -5.13,-1.06 -4.93,-1.66 -4.73,-2.26 -4.39,-2.80 -4.05,-3.33 -3.59,-3.77 -3.13,-4.20 -2.58,-4.52 -2.03,-4.83 -1.43,-5.00 -0.82,-5.18 -0.19,-5.20 0.44,-5.22 1.06,-5.10 1.68,-4.97 2.25,-4.69 2.82,-4.42 3.30,-4.02 3.79,-3.62 4.17,-3.11 4.55,-2.60 4.80,-2.02 5.04,-1.44 5.04,-1.44 L 5.04,-1.44 Z"></path></g><g transform="translate(137 545.0000610351562) rotate(0 23 22.999969482421875)" stroke="none"><path fill="#1e1e1e" d="M -2.91,-4.36 Q -2.91,-4.36 -0.28,-6.03 2.33,-7.70 6.31,-9.83 10.30,-11.96 13.59,-13.08 16.89,-14.21 20.29,-14.17 23.69,-14.13 26.33,-12.87 28.97,-11.62 30.29,-9.31 31.61,-7.00 31.60,-3.18 31.59,0.63 29.76,4.73 27.93,8.83 25.79,11.91 23.65,14.99 27.10,15.84 30.56,16.69 34.87,18.63 39.19,20.56 42.91,22.88 46.64,25.20 48.13,26.83 49.61,28.47 50.64,31.34 51.68,34.21 51.62,36.38 51.57,38.55 50.26,41.26 48.96,43.96 46.23,47.06 43.49,50.16 41.39,51.42 39.28,52.69 35.30,54.75 31.33,56.81 27.11,58.45 22.89,60.08 18.92,60.61 14.95,61.15 11.14,60.21 7.33,59.27 6.42,58.75 5.52,58.22 4.83,57.43 4.15,56.65 3.75,55.68 3.35,54.71 3.28,53.67 3.20,52.63 3.47,51.62 3.74,50.61 4.31,49.74 4.88,48.86 5.71,48.22 6.53,47.58 7.52,47.23 8.50,46.88 9.55,46.87 10.59,46.85 11.59,47.17 12.58,47.49 13.42,48.11 14.26,48.73 14.86,49.59 15.46,50.45 15.75,51.45 16.05,52.45 16.00,53.50 15.96,54.54 15.59,55.52 15.21,56.49 14.55,57.30 13.88,58.10 12.99,58.66 12.11,59.21 11.09,59.44 10.07,59.68 9.03,59.58 7.99,59.49 7.04,59.06 6.08,58.63 5.31,57.93 4.55,57.22 4.04,56.30 3.54,55.38 3.36,54.36 3.18,53.33 3.33,52.29 3.49,51.26 3.96,50.33 4.44,49.40 5.19,48.67 5.94,47.94 6.88,47.49 7.82,47.04 8.86,46.91 9.90,46.79 10.92,47.00 11.94,47.21 11.94,47.21 11.94,47.21 13.12,47.86 14.29,48.51 16.80,48.28 19.31,48.06 22.41,46.84 25.51,45.62 28.96,43.67 32.41,41.73 34.43,40.77 36.45,39.81 37.63,37.55 38.81,35.29 36.30,33.73 33.78,32.16 30.29,30.75 26.80,29.33 23.22,28.46 19.64,27.60 16.20,25.95 12.77,24.30 11.26,22.40 9.75,20.49 10.01,16.33 10.28,12.17 12.04,9.50 13.80,6.83 15.45,4.51 17.10,2.20 17.97,-0.41 18.84,-3.03 16.51,-2.47 14.19,-1.90 11.10,-0.55 8.01,0.80 5.46,2.58 2.91,4.36 2.34,4.65 1.78,4.93 1.16,5.07 0.54,5.22 -0.08,5.20 -0.71,5.19 -1.32,5.03 -1.94,4.87 -2.49,4.57 -3.05,4.27 -3.51,3.84 -3.98,3.41 -4.33,2.89 -4.68,2.36 -4.90,1.76 -5.11,1.17 -5.18,0.54 -5.24,-0.08 -5.16,-0.71 -5.07,-1.33 -4.84,-1.92 -4.60,-2.51 -4.23,-3.02 -3.87,-3.54 -3.39,-3.95 -2.91,-4.36 -2.91,-4.36 L -2.91,-4.36 Z"></path></g><g transform="translate(140 468) rotate(0 283.5000305175781 -140.5)" stroke="none"><path fill="#1971c2" d="M -5.22,0 Q -5.22,0 -5.19,-2.87 -5.16,-5.74 -5.33,-8.48 -5.49,-11.22 -5.20,-14.05 -4.92,-16.88 -4.93,-20.23 -4.95,-23.58 -4.91,-26.00 -4.88,-28.41 -4.88,-30.59 -4.88,-32.77 -4.73,-36.00 -4.58,-39.22 -4.53,-42.03 -4.48,-44.84 -4.12,-49.20 -3.76,-53.55 -3.93,-56.95 -4.10,-60.34 -4.26,-73.48 -4.43,-86.62 -4.70,-93.53 -4.97,-100.45 -5.03,-105.19 -5.08,-109.92 -5.24,-113.38 -5.40,-116.84 -5.60,-121.39 -5.80,-125.94 -6.13,-130.75 -6.46,-135.57 -6.58,-140.29 -6.70,-145.01 -6.90,-148.45 -7.11,-151.88 -7.33,-154.49 -7.55,-157.11 -7.74,-159.37 -7.93,-161.64 -8.02,-164.62 -8.11,-167.60 -8.23,-170.01 -8.36,-172.42 -8.70,-174.94 -9.05,-177.46 -9.29,-179.58 -9.54,-181.71 -9.68,-184.09 -9.81,-186.48 -10.28,-189.48 -10.75,-192.47 -11.30,-194.60 -11.85,-196.73 -12.15,-198.90 -12.46,-201.07 -12.66,-204.17 -12.86,-207.27 -13.03,-209.74 -13.21,-212.22 -13.78,-214.41 -14.35,-216.61 -15.00,-219.12 -15.65,-221.64 -16.20,-224.00 -16.76,-226.37 -16.85,-229.03 -16.94,-231.69 -16.99,-233.86 -17.04,-236.03 -17.07,-238.38 -17.11,-240.74 -17.60,-243.52 -18.10,-246.30 -17.68,-249.14 -17.27,-251.97 -17.23,-254.26 -17.18,-256.56 -17.25,-259.28 -17.32,-262.00 -17.33,-262.50 -17.35,-262.99 -17.27,-263.88 -17.20,-264.76 -16.91,-265.60 -16.63,-266.44 -16.15,-267.19 -15.68,-267.94 -15.03,-268.56 -14.39,-269.17 -13.62,-269.61 -12.85,-270.05 -11.99,-270.30 -11.14,-270.54 -10.25,-270.57 -9.37,-270.61 -8.50,-270.43 -7.63,-270.24 -6.83,-269.86 -6.02,-269.48 -5.34,-268.91 -4.65,-268.35 -4.12,-267.64 -3.59,-266.93 -3.24,-266.11 -2.90,-265.29 -2.76,-264.41 -2.62,-263.53 -3.88,-265.58 -5.13,-267.62 -2.48,-266.54 0.17,-265.45 3.02,-265.38 5.87,-265.30 9.08,-265.42 12.29,-265.54 15.46,-265.56 18.63,-265.57 21.02,-265.56 23.42,-265.54 25.59,-265.52 27.77,-265.50 30.73,-265.59 33.69,-265.67 36.33,-265.76 38.98,-265.84 42.53,-265.91 46.08,-265.99 49.20,-266.07 52.31,-266.15 56.08,-266.25 59.85,-266.35 63.03,-266.48 66.21,-266.61 70.19,-266.48 74.16,-266.36 77.27,-266.40 80.38,-266.44 84.45,-266.50 88.52,-266.56 91.80,-266.73 95.08,-266.90 99.09,-266.84 103.10,-266.78 106.51,-266.82 109.93,-266.87 114.27,-266.71 118.60,-266.55 121.87,-266.63 125.15,-266.71 129.42,-266.57 133.69,-266.42 136.94,-266.52 140.19,-266.62 143.01,-266.75 145.83,-266.89 149.76,-266.54 153.68,-266.19 156.39,-266.19 159.09,-266.20 162.79,-266.08 166.49,-265.97 169.71,-265.72 172.92,-265.48 176.53,-265.02 180.15,-264.57 182.73,-264.51 185.32,-264.45 188.83,-264.06 192.35,-263.67 195.14,-263.59 197.94,-263.52 201.40,-263.41 204.85,-263.29 207.49,-263.36 210.12,-263.43 213.53,-263.38 216.94,-263.33 219.55,-263.42 222.15,-263.50 225.56,-263.45 228.96,-263.41 231.56,-263.49 234.16,-263.57 236.70,-263.64 239.24,-263.71 242.62,-263.65 246.00,-263.59 248.58,-263.65 251.17,-263.72 254.38,-263.93 257.58,-264.14 260.26,-264.33 262.94,-264.53 266.42,-264.51 269.89,-264.50 272.51,-264.59 275.12,-264.68 279.40,-264.41 283.68,-264.15 287.80,-263.99 291.91,-263.82 294.81,-263.93 297.71,-264.03 301.24,-264.01 304.77,-264.00 307.42,-264.11 310.08,-264.23 313.79,-264.15 317.50,-264.07 320.23,-264.17 322.96,-264.27 326.71,-264.18 330.46,-264.09 333.20,-264.18 335.94,-264.28 338.54,-264.37 341.15,-264.46 344.67,-264.64 348.20,-264.82 351.29,-264.99 354.37,-265.16 357.84,-265.43 361.31,-265.69 364.36,-265.90 367.41,-266.11 370.87,-266.39 374.33,-266.67 377.07,-266.92 379.82,-267.17 383.33,-267.19 386.84,-267.22 392.40,-267.75 397.95,-268.28 400.25,-268.44 402.54,-268.61 405.32,-268.91 408.11,-269.22 410.64,-269.43 413.16,-269.65 416.06,-269.96 418.96,-270.27 421.53,-270.49 424.09,-270.71 429.24,-271.25 434.39,-271.80 436.55,-272.17 438.71,-272.55 442.29,-272.63 445.87,-272.71 448.47,-272.81 451.08,-272.91 454.31,-273.12 457.54,-273.33 465.92,-273.75 474.31,-274.18 479.06,-274.27 483.81,-274.36 487.13,-274.79 490.46,-275.21 492.85,-275.55 495.25,-275.88 497.50,-276.35 499.76,-276.81 503.50,-277.54 507.24,-278.26 510.42,-278.71 513.61,-279.16 516.27,-279.79 518.94,-280.42 521.60,-281.51 524.25,-282.59 526.44,-282.94 528.62,-283.29 531.43,-283.86 534.24,-284.43 536.40,-284.90 538.55,-285.37 541.45,-286.00 544.35,-286.64 546.94,-287.23 549.53,-287.83 553.03,-287.21 556.53,-286.60 559.88,-286.38 563.22,-286.15 566.08,-285.09 568.95,-284.03 570.97,-278.77 572.99,-273.51 573.68,-271.04 574.36,-268.58 574.73,-266.43 575.09,-264.29 575.19,-261.74 575.30,-259.20 575.29,-256.74 575.27,-254.27 575.21,-251.08 575.15,-247.89 574.75,-243.96 574.36,-240.02 574.13,-236.66 573.89,-233.30 573.85,-230.25 573.81,-227.21 573.44,-224.68 573.07,-222.16 572.56,-218.48 572.06,-214.80 571.82,-211.40 571.57,-208.01 571.84,-203.71 572.10,-199.42 572.57,-194.96 573.04,-190.51 573.36,-186.61 573.68,-182.70 573.60,-175.96 573.52,-169.21 573.49,-165.45 573.45,-161.68 573.61,-159.50 573.76,-157.32 573.82,-154.63 573.89,-151.94 573.67,-149.81 573.46,-147.68 573.41,-145.52 573.36,-143.36 573.45,-140.29 573.54,-137.21 573.62,-133.39 573.70,-129.57 573.71,-127.40 573.73,-125.22 574.06,-122.04 574.39,-118.87 574.87,-115.00 575.36,-111.13 575.89,-107.60 576.42,-104.06 576.96,-100.93 577.51,-97.80 578.04,-95.20 578.58,-92.60 579.15,-89.68 579.71,-86.76 580.05,-83.89 580.38,-81.02 580.85,-78.29 581.31,-75.56 581.83,-73.05 582.35,-70.55 582.92,-67.04 583.49,-63.54 583.66,-60.82 583.83,-58.10 583.31,-55.18 582.78,-52.26 582.91,-50.10 583.04,-47.94 583.05,-45.75 583.06,-43.56 583.08,-40.53 583.10,-37.49 583.45,-34.94 583.80,-32.38 584.30,-29.85 584.80,-27.31 584.99,-24.63 585.17,-21.95 583.23,-16.50 581.30,-11.06 580.34,-10.38 579.39,-9.70 578.27,-9.36 577.15,-9.03 575.97,-9.06 574.80,-9.10 573.71,-9.51 572.61,-9.92 571.70,-10.66 570.79,-11.40 570.17,-12.39 569.54,-13.38 569.26,-14.52 568.99,-15.66 569.09,-16.83 569.19,-17.99 569.66,-19.07 570.13,-20.14 570.92,-21.01 571.70,-21.88 572.73,-22.45 573.75,-23.02 574.90,-23.23 576.05,-23.45 577.21,-23.28 578.37,-23.12 579.42,-22.59 580.47,-22.06 581.29,-21.23 582.11,-20.40 582.63,-19.34 583.14,-18.29 583.29,-17.13 583.45,-15.97 583.22,-14.82 582.99,-13.67 582.41,-12.65 581.83,-11.64 580.95,-10.86 580.07,-10.08 578.99,-9.63 577.91,-9.17 576.75,-9.08 575.58,-8.99 574.44,-9.28 573.31,-9.57 572.32,-10.21 571.34,-10.84 570.61,-11.76 569.88,-12.68 569.49,-13.78 569.09,-14.88 569.06,-16.05 569.04,-17.23 569.39,-18.34 569.74,-19.46 570.43,-20.41 571.12,-21.36 571.12,-21.36 571.12,-21.35 571.00,-20.78 570.89,-20.20 570.87,-22.53 570.86,-24.85 570.25,-28.77 569.64,-32.68 569.27,-36.09 568.91,-39.49 568.93,-42.61 568.96,-45.73 569.03,-48.75 569.10,-51.76 569.61,-54.83 570.13,-57.89 570.17,-60.46 570.22,-63.03 569.66,-66.77 569.10,-70.50 568.62,-73.33 568.14,-76.16 567.69,-80.14 567.24,-84.11 566.81,-86.86 566.37,-89.61 565.91,-92.51 565.45,-95.42 564.99,-98.74 564.54,-102.06 564.08,-105.68 563.63,-109.30 563.19,-113.28 562.76,-117.26 562.51,-121.24 562.27,-125.23 562.29,-127.41 562.30,-129.60 562.41,-133.48 562.51,-137.36 562.75,-140.61 562.98,-143.86 563.51,-147.87 564.03,-151.87 564.05,-154.47 564.06,-157.06 564.10,-159.21 564.14,-161.35 563.84,-165.05 563.54,-168.75 562.83,-175.52 562.13,-182.29 562.04,-185.67 561.95,-189.05 561.51,-193.64 561.07,-198.24 560.82,-203.20 560.57,-208.17 560.43,-211.67 560.30,-215.16 560.25,-221.23 560.20,-227.30 560.23,-230.45 560.25,-233.60 560.23,-236.16 560.21,-238.71 560.54,-241.90 560.86,-245.08 560.79,-248.44 560.72,-251.79 560.68,-254.51 560.64,-257.23 560.53,-260.11 560.42,-263.00 560.02,-266.87 559.62,-270.75 559.68,-273.00 559.75,-275.24 561.07,-277.48 562.39,-279.72 562.84,-275.49 563.29,-271.26 561.12,-272.08 558.95,-272.90 556.78,-273.03 554.62,-273.16 552.51,-273.67 550.39,-274.17 546.95,-273.66 543.52,-273.15 541.12,-272.65 538.73,-272.15 535.76,-271.75 532.80,-271.34 529.99,-270.82 527.19,-270.31 523.53,-269.74 519.88,-269.17 516.97,-268.91 514.07,-268.64 511.52,-268.66 508.97,-268.68 505.02,-268.40 501.06,-268.11 498.47,-267.85 495.88,-267.58 493.63,-267.57 491.38,-267.55 487.84,-267.15 484.30,-266.74 479.66,-266.23 475.03,-265.72 466.73,-264.72 458.43,-263.73 454.88,-263.31 451.33,-262.89 448.82,-262.87 446.31,-262.84 443.25,-262.63 440.18,-262.41 437.54,-262.08 434.90,-261.75 432.23,-261.61 429.56,-261.46 427.12,-261.16 424.68,-260.85 422.36,-260.78 420.04,-260.70 416.87,-260.33 413.69,-259.95 411.39,-259.90 409.09,-259.85 405.93,-259.53 402.77,-259.22 400.55,-259.26 398.32,-259.31 395.25,-259.17 392.17,-259.03 389.59,-258.80 387.01,-258.58 383.65,-258.48 380.30,-258.38 377.73,-258.34 375.15,-258.29 371.49,-257.87 367.83,-257.45 364.97,-257.37 362.10,-257.29 358.42,-256.88 354.73,-256.47 351.80,-256.39 348.87,-256.32 345.01,-255.92 341.15,-255.53 338.54,-255.62 335.94,-255.71 333.20,-255.81 330.46,-255.90 326.71,-255.81 322.96,-255.72 320.23,-255.82 317.50,-255.92 313.79,-255.84 310.08,-255.76 307.43,-255.88 304.78,-255.99 301.24,-255.97 297.71,-255.95 294.82,-256.05 291.92,-256.15 287.81,-255.98 283.70,-255.81 279.45,-255.53 275.20,-255.25 272.62,-255.29 270.03,-255.34 266.71,-255.22 263.38,-255.10 260.87,-255.05 258.36,-255.00 254.76,-254.64 251.17,-254.27 248.59,-254.34 246.00,-254.40 242.62,-254.34 239.24,-254.28 236.69,-254.35 234.15,-254.43 231.55,-254.51 228.95,-254.59 225.54,-254.55 222.13,-254.51 219.52,-254.60 216.91,-254.69 213.47,-254.67 210.03,-254.64 207.36,-254.77 204.70,-254.89 201.09,-254.91 197.48,-254.93 194.48,-255.16 191.48,-255.40 188.12,-255.73 184.76,-256.06 181.99,-256.36 179.23,-256.66 175.66,-257.04 172.10,-257.42 169.24,-257.80 166.38,-258.18 162.56,-258.17 158.74,-258.15 155.93,-258.40 153.11,-258.65 149.47,-258.88 145.83,-259.10 143.01,-259.24 140.19,-259.37 136.94,-259.47 133.69,-259.56 129.42,-259.41 125.16,-259.26 121.89,-259.34 118.61,-259.41 114.30,-259.23 109.99,-259.05 106.59,-259.05 103.20,-259.05 99.30,-258.88 95.40,-258.71 92.24,-258.63 89.09,-258.54 84.77,-258.01 80.46,-257.47 77.39,-257.46 74.31,-257.45 70.49,-257.20 66.68,-256.95 63.70,-256.78 60.73,-256.61 56.78,-256.01 52.83,-255.41 49.97,-255.20 47.10,-254.99 43.34,-254.38 39.58,-253.78 37.20,-253.61 34.82,-253.44 29.26,-252.87 23.71,-252.30 21.46,-252.18 19.21,-252.06 16.87,-251.84 14.53,-251.61 12.21,-251.25 9.88,-250.89 7.74,-250.83 5.60,-250.77 1.98,-250.86 -1.62,-250.94 -3.78,-251.50 -5.94,-252.07 -9.04,-253.31 -12.13,-254.55 -13.54,-256.60 -14.94,-258.65 -16.14,-260.82 -17.35,-262.99 -17.27,-263.88 -17.20,-264.76 -16.91,-265.60 -16.63,-266.44 -16.15,-267.19 -15.68,-267.94 -15.03,-268.56 -14.39,-269.17 -13.62,-269.61 -12.85,-270.05 -12.00,-270.30 -11.14,-270.54 -10.25,-270.57 -9.37,-270.61 -8.50,-270.43 -7.63,-270.24 -6.83,-269.86 -6.02,-269.48 -5.34,-268.91 -4.65,-268.35 -4.12,-267.64 -3.59,-266.93 -3.24,-266.11 -2.90,-265.29 -2.76,-264.41 -2.62,-263.54 -3.08,-263.49 -3.54,-263.44 -2.91,-261.27 -2.29,-259.10 -2.56,-256.05 -2.84,-252.99 -3.32,-249.51 -3.79,-246.02 -3.34,-243.38 -2.88,-240.74 -2.92,-238.39 -2.95,-236.04 -2.99,-233.90 -3.03,-231.75 -3.29,-229.52 -3.55,-227.29 -3.22,-224.41 -2.89,-221.53 -2.47,-219.43 -2.04,-217.33 -1.48,-213.74 -0.91,-210.15 -1.02,-207.81 -1.12,-205.46 -1.13,-202.67 -1.13,-199.87 -0.75,-197.02 -0.36,-194.17 -0.19,-190.44 -0.02,-186.70 -0.06,-182.55 -0.09,-178.40 0.13,-175.42 0.37,-172.44 0.25,-170.02 0.13,-167.61 0.05,-164.65 -0.02,-161.69 -0.18,-159.44 -0.34,-157.20 -0.50,-154.61 -0.66,-152.02 -0.71,-148.64 -0.75,-145.25 -0.51,-140.68 -0.27,-136.11 0.24,-131.25 0.75,-126.39 1.20,-121.70 1.65,-117.01 1.66,-113.61 1.66,-110.21 2.00,-105.57 2.33,-100.93 2.98,-93.90 3.64,-86.88 4.29,-73.97 4.95,-61.07 5.35,-57.31 5.76,-53.56 6.12,-49.20 6.48,-44.84 6.53,-42.03 6.58,-39.22 6.72,-35.98 6.86,-32.75 6.86,-30.56 6.85,-28.36 6.80,-24.17 6.75,-19.98 6.65,-17.83 6.55,-15.68 6.02,-13.42 5.49,-11.17 5.33,-8.46 5.16,-5.74 5.19,-2.87 5.22,0 5.14,0.62 5.06,1.24 4.84,1.83 4.62,2.42 4.26,2.94 3.90,3.46 3.43,3.87 2.96,4.29 2.40,4.58 1.85,4.88 1.24,5.03 0.62,5.18 -0.00,5.18 -0.62,5.18 -1.24,5.03 -1.85,4.88 -2.40,4.58 -2.96,4.29 -3.43,3.87 -3.90,3.46 -4.26,2.94 -4.62,2.42 -4.84,1.83 -5.06,1.24 -5.14,0.62 -5.22,-0.00 -5.22,-0.00 L -5.22,0 Z"></path></g><g transform="translate(529 51) rotate(0 -9.5 26.500015258789062)" stroke="none"><path fill="#1971c2" d="M -0.41,4.53 Q -0.41,4.53 -3.56,4.23 -6.72,3.93 -10.60,5.03 -14.47,6.14 -17.89,8.26 -21.31,10.38 -23.64,12.33 -25.98,14.28 -27.41,15.94 -28.84,17.61 -30.13,20.10 -31.43,22.59 -32.34,25.70 -33.26,28.81 -33.53,30.97 -33.80,33.13 -32.21,36.52 -30.62,39.91 -27.29,43.06 -23.96,46.21 -19.16,48.07 -14.36,49.93 -12.14,50.24 -9.92,50.56 -7.32,50.45 -4.72,50.35 -0.50,48.90 3.70,47.46 6.64,44.86 9.59,42.25 11.20,38.85 12.81,35.45 13.41,33.40 14.01,31.35 13.95,27.87 13.89,24.38 12.70,20.12 11.51,15.87 9.58,12.56 7.65,9.24 5.95,7.53 4.25,5.81 1.43,4.18 -1.37,2.54 -2.12,2.03 -2.86,1.51 -3.40,0.78 -3.94,0.05 -4.22,-0.80 -4.50,-1.66 -4.49,-2.57 -4.48,-3.47 -4.18,-4.33 -3.88,-5.18 -3.32,-5.90 -2.77,-6.61 -2.01,-7.11 -1.25,-7.61 -0.38,-7.85 0.49,-8.08 1.39,-8.02 2.30,-7.96 3.13,-7.61 3.97,-7.27 4.66,-6.67 5.34,-6.08 5.80,-5.30 6.26,-4.51 6.44,-3.63 6.62,-2.74 6.52,-1.84 6.41,-0.94 6.02,-0.12 5.63,0.69 4.99,1.34 4.36,1.99 3.56,2.40 2.75,2.82 1.86,2.95 0.96,3.09 0.07,2.93 -0.81,2.77 -1.61,2.34 -2.41,1.91 -3.02,1.24 -3.64,0.58 -4.01,-0.24 -4.38,-1.07 -4.46,-1.97 -4.55,-2.87 -4.35,-3.76 -4.14,-4.64 -3.66,-5.41 -3.19,-6.18 -2.49,-6.76 -1.79,-7.34 -0.95,-7.66 -0.10,-7.99 0.80,-8.03 1.70,-8.06 2.57,-7.81 3.44,-7.56 3.44,-7.56 3.44,-7.56 7.63,-4.62 11.82,-1.68 14.23,0.74 16.65,3.17 19.06,7.65 21.48,12.13 22.68,15.35 23.87,18.57 24.23,21.14 24.60,23.72 24.76,27.05 24.92,30.38 23.75,34.49 22.58,38.60 21.28,42.13 19.99,45.66 18.35,47.53 16.71,49.40 14.33,51.65 11.96,53.91 9.78,55.12 7.61,56.34 4.09,57.86 0.56,59.38 -1.92,59.65 -4.41,59.93 -7.99,60.02 -11.57,60.10 -14.42,59.52 -17.27,58.94 -20.90,57.83 -24.54,56.72 -27.15,55.30 -29.77,53.88 -32.93,51.44 -36.08,48.99 -37.68,46.62 -39.27,44.25 -40.80,40.99 -42.34,37.72 -42.66,34.75 -42.99,31.77 -42.45,29.15 -41.91,26.52 -40.91,22.41 -39.91,18.31 -38.07,14.65 -36.22,10.99 -34.31,9.00 -32.40,7.01 -29.59,4.42 -26.78,1.84 -24.50,0.47 -22.22,-0.88 -19.93,-1.89 -17.65,-2.89 -14.39,-3.93 -11.13,-4.96 -8.52,-5.02 -5.92,-5.08 -2.75,-4.80 0.41,-4.53 0.94,-4.41 1.48,-4.30 1.97,-4.06 2.47,-3.82 2.89,-3.46 3.31,-3.11 3.63,-2.67 3.96,-2.23 4.17,-1.72 4.38,-1.22 4.46,-0.67 4.54,-0.13 4.49,0.40 4.44,0.95 4.26,1.47 4.09,1.99 3.79,2.45 3.49,2.91 3.09,3.28 2.69,3.66 2.21,3.93 1.74,4.20 1.21,4.35 0.68,4.49 0.13,4.51 -0.41,4.53 -0.41,4.53 L -0.41,4.53 Z"></path></g><g transform="translate(523 11) rotate(0 1.5 56.5)" stroke="none"><path fill="#1971c2" d="M 4.19,0 Q 4.19,0 4.26,2.87 4.33,5.75 4.44,8.12 4.55,10.49 4.52,13.80 4.48,17.10 4.53,19.95 4.58,22.79 4.64,25.44 4.70,28.08 4.50,32.08 4.29,36.08 4.32,39.22 4.34,42.36 4.12,46.57 3.91,50.77 3.91,54.29 3.91,57.80 3.73,62.17 3.56,66.54 3.68,69.54 3.80,72.55 4.02,76.28 4.23,80.01 4.49,82.85 4.75,85.69 4.85,88.95 4.95,92.20 5.12,94.43 5.28,96.66 5.95,100.25 6.62,103.84 7.15,107.33 7.69,110.83 7.81,111.65 7.94,112.47 7.80,113.28 7.66,114.10 7.26,114.83 6.87,115.56 6.26,116.13 5.66,116.70 4.90,117.04 4.14,117.38 3.32,117.47 2.49,117.55 1.68,117.36 0.87,117.18 0.16,116.75 -0.54,116.31 -1.07,115.68 -1.60,115.04 -1.90,114.26 -2.20,113.49 -2.24,112.66 -2.28,111.83 -2.05,111.03 -1.82,110.23 -1.35,109.55 -0.88,108.87 -0.22,108.37 0.44,107.87 1.23,107.61 2.02,107.35 2.85,107.36 3.68,107.37 4.46,107.64 5.25,107.91 5.91,108.42 6.56,108.93 7.02,109.62 7.48,110.31 7.70,111.11 7.92,111.91 7.86,112.74 7.81,113.57 7.50,114.34 7.19,115.11 6.64,115.74 6.10,116.36 5.38,116.79 4.67,117.21 3.86,117.38 3.05,117.55 2.22,117.46 1.40,117.36 0.64,117.01 -0.10,116.65 -0.69,116.08 -1.29,115.50 -1.68,114.76 -2.06,114.03 -2.06,114.03 -2.06,114.03 -2.58,110.58 -3.11,107.13 -3.04,104.10 -2.97,101.07 -3.16,98.91 -3.35,96.76 -3.23,94.55 -3.11,92.33 -3.11,89.18 -3.11,86.04 -3.10,83.30 -3.08,80.55 -3.44,76.55 -3.80,72.55 -3.68,69.54 -3.56,66.54 -3.73,62.17 -3.91,57.80 -3.91,54.29 -3.91,50.77 -4.12,46.57 -4.34,42.36 -4.32,39.22 -4.29,36.08 -4.50,32.08 -4.70,28.08 -4.64,25.44 -4.58,22.79 -4.53,19.95 -4.48,17.10 -4.52,13.80 -4.55,10.49 -4.44,8.12 -4.33,5.75 -4.26,2.87 -4.19,0 -4.13,-0.50 -4.07,-1.00 -3.89,-1.47 -3.71,-1.95 -3.42,-2.36 -3.14,-2.78 -2.76,-3.11 -2.38,-3.45 -1.93,-3.68 -1.48,-3.92 -0.99,-4.04 -0.50,-4.16 0.00,-4.16 0.50,-4.16 0.99,-4.04 1.48,-3.92 1.93,-3.68 2.38,-3.45 2.76,-3.11 3.14,-2.78 3.42,-2.36 3.71,-1.95 3.89,-1.47 4.07,-1.00 4.13,-0.50 4.19,0.00 4.19,0.00 L 4.19,0 Z"></path></g><g transform="translate(567 119.00003051757812) rotate(0 9.5 -12.500015258789062)" stroke="none"><path fill="#1971c2" d="M -5.35,0 Q -5.35,0 -5.42,-1.72 -5.49,-3.45 -5.22,-5.77 -4.95,-8.08 -4.12,-11.15 -3.28,-14.22 -2.09,-17.05 -0.91,-19.88 0.63,-22.25 2.17,-24.61 3.95,-26.59 5.73,-28.57 7.71,-29.61 9.69,-30.66 12.72,-30.62 15.75,-30.57 18.48,-28.41 21.21,-26.24 22.34,-22.89 23.47,-19.54 23.62,-17.22 23.78,-14.90 24.71,-11.47 25.65,-8.05 25.75,-6.93 25.85,-5.80 25.58,-4.71 25.32,-3.62 24.72,-2.67 24.12,-1.71 23.25,-1.00 22.38,-0.29 21.33,0.09 20.27,0.49 19.15,0.53 18.02,0.57 16.95,0.25 15.87,-0.07 14.95,-0.72 14.03,-1.37 13.37,-2.27 12.71,-3.18 12.37,-4.26 12.03,-5.33 12.05,-6.45 12.08,-7.58 12.46,-8.64 12.84,-9.69 13.53,-10.58 14.23,-11.46 15.18,-12.07 16.12,-12.68 17.21,-12.96 18.30,-13.24 19.42,-13.16 20.54,-13.08 21.58,-12.64 22.61,-12.20 23.46,-11.46 24.30,-10.71 24.86,-9.74 25.42,-8.76 25.64,-7.66 25.86,-6.56 25.72,-5.44 25.57,-4.32 25.08,-3.31 24.59,-2.30 23.80,-1.50 23.01,-0.70 22.00,-0.19 21.00,0.30 19.89,0.46 18.77,0.62 17.67,0.42 16.56,0.21 15.58,-0.32 14.60,-0.87 13.84,-1.70 13.08,-2.53 12.63,-3.56 12.18,-4.59 12.18,-4.59 12.18,-4.59 11.59,-6.91 10.99,-9.24 10.56,-11.91 10.13,-14.58 9.93,-17.30 9.74,-20.01 12.05,-19.72 14.36,-19.42 12.66,-17.65 10.97,-15.88 9.45,-13.44 7.92,-11.00 6.70,-7.22 5.49,-3.44 5.42,-1.72 5.35,0 5.27,0.64 5.20,1.28 4.97,1.88 4.74,2.48 4.37,3.02 4.00,3.55 3.52,3.97 3.04,4.40 2.47,4.70 1.89,5.00 1.27,5.16 0.64,5.31 -0.00,5.31 -0.64,5.31 -1.27,5.16 -1.89,5.00 -2.47,4.70 -3.04,4.40 -3.52,3.97 -4.00,3.55 -4.37,3.01 -4.74,2.48 -4.97,1.88 -5.20,1.28 -5.27,0.64 -5.35,-0.00 -5.35,-0.00 L -5.35,0 Z"></path></g><g transform="translate(609 111) rotate(0 9 -10)" stroke="none"><path fill="#1971c2" d="M -5.24,-0.74 Q -5.24,-0.74 -5.01,-2.78 -4.78,-4.81 -3.92,-7.84 -3.06,-10.86 -1.40,-13.61 0.25,-16.36 1.67,-18.13 3.09,-19.90 5.24,-22.09 7.40,-24.29 10.51,-24.72 13.62,-25.14 16.25,-24.05 18.89,-22.95 21.00,-19.92 23.11,-16.89 23.37,-14.63 23.63,-12.38 23.29,-10.55 22.96,-8.72 23.55,-7.78 24.14,-6.84 24.39,-5.77 24.65,-4.69 24.55,-3.58 24.45,-2.48 24.00,-1.47 23.55,-0.45 22.80,0.36 22.05,1.17 21.08,1.71 20.11,2.25 19.02,2.44 17.93,2.64 16.83,2.48 15.73,2.32 14.75,1.82 13.76,1.31 12.98,0.52 12.21,-0.26 11.72,-1.26 11.24,-2.26 11.10,-3.36 10.97,-4.46 11.19,-5.54 11.41,-6.63 11.96,-7.59 12.52,-8.55 13.35,-9.28 14.18,-10.01 15.21,-10.44 16.23,-10.87 17.34,-10.95 18.44,-11.03 19.51,-10.75 20.59,-10.47 21.51,-9.86 22.44,-9.25 23.13,-8.38 23.81,-7.51 24.19,-6.47 24.56,-5.42 24.58,-4.31 24.59,-3.21 24.26,-2.15 23.92,-1.09 23.26,-0.20 22.61,0.68 21.70,1.32 20.79,1.96 19.73,2.27 18.67,2.59 17.56,2.55 16.45,2.50 15.42,2.11 14.38,1.72 13.52,1.01 12.67,0.31 12.67,0.31 12.67,0.31 11.40,-4.25 10.14,-8.82 9.97,-11.35 9.81,-13.88 12.36,-14.47 14.91,-15.06 12.84,-13.11 10.78,-11.16 9.24,-9.15 7.70,-7.14 6.81,-5.19 5.93,-3.23 5.58,-1.24 5.24,0.74 5.08,1.36 4.91,1.98 4.60,2.54 4.29,3.10 3.86,3.57 3.43,4.04 2.89,4.39 2.36,4.74 1.76,4.95 1.15,5.17 0.52,5.23 -0.11,5.29 -0.74,5.20 -1.37,5.11 -1.96,4.87 -2.56,4.64 -3.07,4.26 -3.59,3.89 -4.01,3.40 -4.42,2.91 -4.70,2.34 -4.99,1.77 -5.13,1.15 -5.27,0.52 -5.26,-0.11 -5.24,-0.75 -5.24,-0.74 L -5.24,-0.74 Z"></path></g><g transform="translate(684.0001220703125 20) rotate(0 -9.00006103515625 45.5)" stroke="none"><path fill="#1971c2" d="M 2.36,3.14 Q 2.36,3.14 0.12,4.94 -2.11,6.74 -4.49,10.66 -6.87,14.57 -7.63,16.81 -8.39,19.06 -9.80,22.77 -11.22,26.48 -11.69,29.56 -12.16,32.63 -12.85,37.12 -13.55,41.61 -13.72,44.92 -13.89,48.22 -14.13,52.74 -14.38,57.26 -14.02,60.18 -13.67,63.11 -13.43,65.93 -13.19,68.76 -12.56,71.64 -11.94,74.51 -11.28,76.59 -10.62,78.66 -9.57,80.63 -8.53,82.59 -6.35,85.21 -4.17,87.83 -3.72,88.49 -3.28,89.15 -3.06,89.91 -2.85,90.68 -2.89,91.47 -2.94,92.27 -3.23,93.01 -3.53,93.75 -4.04,94.35 -4.56,94.96 -5.24,95.37 -5.92,95.78 -6.70,95.95 -7.47,96.12 -8.26,96.03 -9.05,95.95 -9.78,95.61 -10.50,95.28 -11.08,94.73 -11.65,94.18 -12.02,93.48 -12.40,92.78 -12.53,91.99 -12.65,91.21 -12.53,90.42 -12.40,89.64 -12.02,88.94 -11.65,88.23 -11.07,87.69 -10.50,87.14 -9.77,86.81 -9.05,86.47 -8.26,86.39 -7.47,86.30 -6.69,86.47 -5.92,86.64 -5.24,87.05 -4.55,87.46 -4.04,88.07 -3.52,88.68 -3.23,89.42 -2.94,90.16 -2.89,90.95 -2.85,91.74 -3.06,92.51 -3.28,93.28 -3.72,93.93 -4.17,94.59 -4.80,95.07 -5.44,95.55 -6.19,95.81 -6.95,96.06 -7.74,96.06 -8.54,96.06 -9.29,95.81 -10.04,95.55 -10.68,95.07 -11.31,94.59 -11.31,94.59 -11.31,94.59 -14.01,90.48 -16.70,86.36 -17.85,83.57 -19.00,80.78 -19.44,78.42 -19.88,76.06 -20.50,72.57 -21.11,69.08 -21.08,66.39 -21.05,63.70 -21.19,60.41 -21.34,57.12 -21.40,52.43 -21.46,47.74 -21.19,44.26 -20.92,40.78 -20.58,36.07 -20.25,31.35 -19.65,27.66 -19.05,23.97 -17.94,19.88 -16.84,15.79 -15.73,13.20 -14.62,10.61 -12.75,7.12 -10.89,3.62 -8.98,1.88 -7.08,0.15 -4.72,-1.49 -2.36,-3.14 -1.94,-3.38 -1.53,-3.62 -1.08,-3.75 -0.62,-3.88 -0.15,-3.90 0.32,-3.92 0.78,-3.82 1.24,-3.73 1.67,-3.52 2.10,-3.32 2.47,-3.02 2.83,-2.72 3.12,-2.34 3.40,-1.96 3.59,-1.52 3.77,-1.09 3.85,-0.62 3.93,-0.15 3.89,0.31 3.85,0.79 3.70,1.24 3.55,1.69 3.29,2.09 3.04,2.49 2.70,2.81 2.36,3.14 2.36,3.14 L 2.36,3.14 Z"></path></g><g transform="translate(738.0001220703125 31) rotate(0 -11.50006103515625 35.50001525878906)" stroke="none"><path fill="#1971c2" d="M -4.07,3.39 Q -4.07,3.39 -5.54,1.69 -7.01,-0.00 -9.07,-0.93 -11.12,-1.86 -11.41,1.31 -11.69,4.49 -11.73,6.65 -11.77,8.81 -12.11,13.33 -12.46,17.86 -12.71,20.70 -12.96,23.55 -13.62,27.59 -14.28,31.63 -14.76,34.62 -15.23,37.61 -15.90,41.30 -16.57,44.99 -16.73,47.63 -16.89,50.27 -17.06,53.62 -17.23,56.98 -17.49,59.59 -17.75,62.20 -17.84,64.71 -17.93,67.22 -17.57,70.44 -17.21,73.66 -16.98,75.93 -16.74,78.19 -16.82,79.05 -16.90,79.90 -17.25,80.68 -17.60,81.47 -18.19,82.09 -18.77,82.72 -19.52,83.13 -20.28,83.54 -21.12,83.69 -21.96,83.84 -22.81,83.71 -23.66,83.58 -24.42,83.19 -25.18,82.80 -25.78,82.18 -26.38,81.57 -26.75,80.79 -27.11,80.02 -27.22,79.17 -27.32,78.32 -27.14,77.48 -26.97,76.64 -26.54,75.90 -26.10,75.16 -25.46,74.60 -24.81,74.03 -24.02,73.71 -23.22,73.38 -22.37,73.32 -21.51,73.27 -20.68,73.49 -19.86,73.71 -19.14,74.18 -18.43,74.65 -17.90,75.33 -17.37,76.01 -17.09,76.82 -16.81,77.63 -16.80,78.48 -16.79,79.34 -17.05,80.16 -17.32,80.97 -17.83,81.66 -18.34,82.35 -19.04,82.84 -19.75,83.33 -20.57,83.56 -21.39,83.80 -22.25,83.77 -23.11,83.73 -23.91,83.42 -24.71,83.11 -25.36,82.57 -26.02,82.02 -26.47,81.29 -26.93,80.56 -27.12,79.72 -27.31,78.89 -27.31,78.89 -27.31,78.89 -27.43,77.07 -27.55,75.24 -27.60,70.99 -27.66,66.73 -27.08,61.74 -26.51,56.74 -26.51,53.16 -26.51,49.57 -26.27,46.69 -26.03,43.81 -25.75,39.92 -25.48,36.04 -25.09,33.39 -24.70,30.73 -24.68,26.91 -24.66,23.09 -24.67,19.60 -24.68,16.12 -24.42,12.41 -24.17,8.71 -24.17,6.49 -24.18,4.27 -24.19,1.70 -24.20,-0.87 -23.24,-4.80 -22.29,-8.74 -19.61,-10.93 -16.94,-13.12 -13.62,-13.32 -10.30,-13.52 -7.27,-12.52 -4.24,-11.52 -1.49,-9.21 1.26,-6.89 2.66,-5.14 4.07,-3.39 4.42,-2.85 4.76,-2.32 4.97,-1.71 5.18,-1.11 5.24,-0.47 5.30,0.16 5.20,0.79 5.10,1.42 4.86,2.01 4.61,2.60 4.24,3.12 3.86,3.63 3.37,4.04 2.87,4.45 2.30,4.73 1.72,5.01 1.10,5.14 0.47,5.28 -0.15,5.26 -0.79,5.24 -1.41,5.07 -2.03,4.89 -2.58,4.58 -3.14,4.27 -3.60,3.83 -4.07,3.39 -4.07,3.39 L -4.07,3.39 Z"></path></g><g transform="translate(710 74.00003051757812) rotate(0 12.50006103515625 -1.0000152587890625)" stroke="none"><path fill="#1971c2" d="M -1.44,-5.04 Q -1.44,-5.04 0.55,-5.67 2.55,-6.30 6.10,-6.88 9.65,-7.47 11.97,-7.26 14.29,-7.05 16.90,-7.27 19.52,-7.50 21.60,-7.70 23.69,-7.91 24.66,-7.83 25.62,-7.74 26.51,-7.36 27.40,-6.97 28.12,-6.32 28.84,-5.67 29.31,-4.82 29.79,-3.97 29.96,-3.02 30.14,-2.06 30.01,-1.10 29.87,-0.14 29.44,0.72 29.00,1.58 28.31,2.27 27.62,2.95 26.75,3.37 25.88,3.80 24.92,3.93 23.96,4.05 23.00,3.87 22.05,3.68 21.21,3.20 20.37,2.72 19.72,1.99 19.08,1.27 18.70,0.37 18.32,-0.51 18.25,-1.48 18.17,-2.45 18.41,-3.39 18.65,-4.33 19.18,-5.14 19.70,-5.96 20.46,-6.56 21.22,-7.17 22.13,-7.50 23.05,-7.83 24.02,-7.85 24.99,-7.87 25.91,-7.58 26.84,-7.29 27.62,-6.72 28.41,-6.15 28.97,-5.36 29.53,-4.57 29.81,-3.64 30.09,-2.71 30.06,-1.74 30.03,-0.77 29.69,0.13 29.35,1.04 28.74,1.79 28.13,2.54 27.31,3.06 26.49,3.58 25.55,3.81 24.60,4.04 24.60,4.04 24.61,4.04 22.84,4.13 21.08,4.22 18.69,4.45 16.29,4.68 13.39,4.23 10.48,3.77 7.98,3.89 5.49,4.00 3.46,4.52 1.44,5.04 0.81,5.14 0.19,5.24 -0.43,5.19 -1.06,5.13 -1.66,4.93 -2.26,4.73 -2.80,4.39 -3.33,4.05 -3.77,3.59 -4.20,3.13 -4.52,2.58 -4.83,2.03 -5.00,1.43 -5.18,0.82 -5.20,0.19 -5.22,-0.44 -5.09,-1.06 -4.97,-1.68 -4.69,-2.25 -4.42,-2.82 -4.02,-3.30 -3.62,-3.79 -3.11,-4.17 -2.60,-4.55 -2.02,-4.79 -1.44,-5.04 -1.44,-5.04 L -1.44,-5.04 Z"></path></g><g transform="translate(774.0001220703125 10) rotate(0 -1.5001220703125 61.5)" stroke="none"><path fill="#1971c2" d="M 3.66,-1.22 Q 3.66,-1.22 4.64,1.32 5.61,3.88 6.32,7.54 7.03,11.20 7.42,14.26 7.80,17.33 8.03,21.44 8.26,25.55 8.76,28.64 9.26,31.72 9.30,36.45 9.33,41.17 9.42,44.85 9.51,48.53 9.69,53.16 9.88,57.80 10.09,61.29 10.30,64.77 10.24,69.16 10.18,73.54 10.06,76.71 9.94,79.88 9.98,82.52 10.02,85.15 9.69,88.71 9.36,92.27 9.04,95.04 8.71,97.81 7.60,101.25 6.49,104.70 5.88,106.93 5.27,109.16 4.05,111.84 2.83,114.52 0.30,118.36 -2.22,122.19 -3.89,124.01 -5.57,125.83 -6.24,126.32 -6.91,126.81 -7.71,127.06 -8.50,127.31 -9.33,127.29 -10.16,127.28 -10.94,127.00 -11.73,126.72 -12.38,126.20 -13.03,125.69 -13.49,124.99 -13.94,124.30 -14.15,123.49 -14.36,122.69 -14.30,121.86 -14.24,121.03 -13.91,120.26 -13.59,119.49 -13.04,118.87 -12.49,118.25 -11.77,117.83 -11.05,117.42 -10.24,117.25 -9.42,117.09 -8.60,117.19 -7.77,117.30 -7.02,117.66 -6.28,118.02 -5.68,118.61 -5.09,119.19 -4.71,119.93 -4.34,120.67 -4.22,121.50 -4.10,122.32 -4.25,123.14 -4.40,123.95 -4.80,124.68 -5.20,125.41 -5.82,125.97 -6.43,126.53 -7.19,126.87 -7.95,127.20 -8.78,127.28 -9.61,127.35 -10.42,127.16 -11.23,126.96 -11.93,126.52 -12.64,126.08 -13.16,125.44 -13.69,124.79 -13.98,124.01 -14.28,123.24 -14.31,122.40 -14.34,121.57 -14.10,120.78 -13.86,119.98 -13.38,119.30 -12.90,118.62 -12.90,118.62 -12.90,118.62 -11.15,116.94 -9.39,115.26 -7.37,112.86 -5.36,110.46 -4.23,108.41 -3.11,106.35 -2.25,104.20 -1.40,102.05 -0.42,99.25 0.55,96.45 1.08,93.98 1.62,91.52 1.96,88.17 2.30,84.83 2.56,82.04 2.83,79.26 3.23,76.44 3.63,73.63 3.46,69.34 3.28,65.05 3.22,61.66 3.16,58.26 2.70,53.48 2.23,48.69 2.16,45.09 2.08,41.48 1.72,37.17 1.37,32.86 0.95,29.59 0.53,26.32 -0.04,22.23 -0.62,18.14 -0.80,15.44 -0.97,12.74 -1.57,9.60 -2.16,6.46 -2.91,3.84 -3.66,1.22 -3.76,0.76 -3.85,0.30 -3.83,-0.15 -3.81,-0.62 -3.68,-1.06 -3.55,-1.51 -3.32,-1.92 -3.08,-2.32 -2.76,-2.65 -2.44,-2.99 -2.04,-3.24 -1.65,-3.49 -1.21,-3.64 -0.77,-3.78 -0.30,-3.82 0.15,-3.86 0.61,-3.78 1.07,-3.71 1.50,-3.52 1.93,-3.34 2.30,-3.06 2.67,-2.78 2.97,-2.42 3.26,-2.06 3.46,-1.64 3.66,-1.22 3.66,-1.22 L 3.66,-1.22 Z"></path></g><g transform="translate(436 194) rotate(0 -18 21)" stroke="none"><path fill="#1971c2" d="M 3.70,3.70 Q 3.70,3.70 2.30,5.18 0.91,6.67 -1.44,9.06 -3.80,11.46 -6.65,14.49 -9.49,17.53 -11.83,20.01 -14.17,22.50 -16.28,24.26 -18.39,26.03 -20.84,29.00 -23.29,31.98 -25.30,35.12 -27.31,38.26 -28.78,41.17 -30.25,44.09 -30.84,44.87 -31.43,45.66 -32.24,46.21 -33.05,46.76 -33.99,47.03 -34.94,47.30 -35.92,47.25 -36.90,47.20 -37.81,46.84 -38.72,46.48 -39.47,45.85 -40.22,45.22 -40.73,44.38 -41.24,43.54 -41.45,42.58 -41.67,41.62 -41.57,40.65 -41.46,39.67 -41.06,38.78 -40.65,37.89 -39.98,37.17 -39.30,36.46 -38.44,35.99 -37.57,35.53 -36.61,35.37 -35.64,35.21 -34.67,35.36 -33.70,35.52 -32.83,35.97 -31.96,36.43 -31.29,37.14 -30.61,37.85 -30.19,38.74 -29.78,39.63 -29.67,40.60 -29.56,41.58 -29.77,42.54 -29.97,43.49 -30.48,44.34 -30.98,45.18 -31.72,45.82 -32.47,46.46 -33.38,46.82 -34.29,47.19 -35.27,47.25 -36.25,47.30 -37.19,47.04 -38.14,46.78 -38.95,46.24 -39.77,45.69 -40.37,44.91 -40.96,44.13 -41.28,43.20 -41.60,42.27 -41.60,41.29 -41.60,40.31 -41.29,39.38 -40.98,38.45 -40.98,38.45 -40.98,38.45 -39.23,35.37 -37.48,32.28 -36.24,30.20 -34.99,28.11 -33.70,26.39 -32.41,24.66 -30.86,22.73 -29.32,20.79 -27.63,18.97 -25.95,17.16 -24.24,15.67 -22.52,14.18 -20.08,11.85 -17.64,9.52 -14.90,6.76 -12.15,4.00 -9.40,1.54 -6.66,-0.92 -5.18,-2.31 -3.70,-3.70 -3.20,-4.09 -2.71,-4.48 -2.13,-4.74 -1.55,-5.00 -0.93,-5.11 -0.31,-5.22 0.31,-5.19 0.94,-5.15 1.54,-4.96 2.15,-4.77 2.69,-4.45 3.23,-4.12 3.67,-3.67 4.12,-3.23 4.45,-2.69 4.77,-2.14 4.96,-1.54 5.15,-0.94 5.19,-0.31 5.22,0.31 5.11,0.93 5.00,1.55 4.74,2.13 4.48,2.71 4.09,3.20 3.70,3.70 3.70,3.70 L 3.70,3.70 Z"></path></g><g transform="translate(304 276) rotate(0 16 -21.5)" stroke="none"><path fill="#1971c2" d="M -4.82,-0.78 Q -4.82,-0.78 -2.81,-11.37 -0.79,-21.96 0.43,-26.06 1.66,-30.16 1.95,-31.29 2.24,-32.43 2.43,-32.91 2.62,-33.38 2.91,-33.80 3.21,-34.22 3.60,-34.55 3.98,-34.89 4.44,-35.12 4.89,-35.35 5.39,-35.47 5.89,-35.59 6.40,-35.58 6.91,-35.57 7.41,-35.45 7.90,-35.32 8.36,-35.08 8.81,-34.83 9.18,-34.49 9.56,-34.14 9.85,-33.72 10.14,-33.30 10.31,-32.81 10.49,-32.33 10.54,-31.83 10.60,-31.32 10.53,-30.81 10.46,-30.30 12.24,-28.85 14.01,-27.39 15.66,-24.58 17.32,-21.77 19.03,-20.24 20.75,-18.72 23.42,-16.94 26.09,-15.16 26.24,-18.29 26.39,-21.42 26.37,-24.28 26.35,-27.14 26.33,-30.11 26.32,-33.09 26.29,-35.39 26.26,-37.68 26.74,-40.76 27.23,-43.84 27.60,-44.87 27.98,-45.91 28.67,-46.77 29.35,-47.63 30.28,-48.23 31.20,-48.83 32.27,-49.10 33.34,-49.37 34.43,-49.28 35.53,-49.20 36.55,-48.77 37.56,-48.34 38.38,-47.60 39.20,-46.87 39.75,-45.92 40.30,-44.96 40.51,-43.88 40.72,-42.80 40.58,-41.71 40.43,-40.62 39.95,-39.63 39.46,-38.64 38.69,-37.86 37.91,-37.07 36.93,-36.58 35.94,-36.09 34.85,-35.93 33.76,-35.78 32.68,-35.98 31.60,-36.19 30.64,-36.73 29.68,-37.26 28.94,-38.08 28.20,-38.90 27.76,-39.91 27.32,-40.92 27.23,-42.01 27.13,-43.11 27.39,-44.18 27.66,-45.25 28.24,-46.18 28.83,-47.11 29.69,-47.80 30.54,-48.50 31.58,-48.88 32.61,-49.26 33.71,-49.30 34.81,-49.33 35.86,-49.01 36.92,-48.69 37.81,-48.06 38.71,-47.42 39.36,-46.53 40.00,-45.63 40.33,-44.58 40.66,-43.53 40.63,-42.43 40.61,-41.33 40.61,-41.33 40.61,-41.33 40.17,-39.51 39.73,-37.68 39.70,-35.38 39.67,-33.09 39.65,-30.11 39.64,-27.13 39.62,-24.26 39.59,-21.38 39.53,-19.06 39.47,-16.74 39.30,-14.42 39.13,-12.09 38.09,-9.61 37.04,-7.13 34.67,-5.54 32.30,-3.95 29.29,-3.69 26.29,-3.42 22.94,-4.63 19.59,-5.85 16.55,-8.22 13.52,-10.59 10.86,-13.87 8.19,-17.16 6.93,-20.12 5.66,-23.09 4.76,-25.35 3.85,-27.62 3.05,-30.02 2.24,-32.43 2.43,-32.91 2.62,-33.38 2.91,-33.80 3.21,-34.22 3.59,-34.55 3.98,-34.89 4.44,-35.12 4.89,-35.35 5.39,-35.47 5.89,-35.59 6.40,-35.58 6.91,-35.57 7.41,-35.45 7.90,-35.32 8.35,-35.08 8.81,-34.83 9.18,-34.49 9.56,-34.14 9.85,-33.72 10.14,-33.30 10.31,-32.82 10.49,-32.33 10.54,-31.83 10.60,-31.32 10.53,-30.81 10.46,-30.30 9.89,-29.24 9.31,-28.17 8.50,-24.37 7.69,-20.58 6.26,-9.90 4.82,0.78 4.66,1.34 4.50,1.91 4.20,2.42 3.91,2.93 3.50,3.36 3.09,3.78 2.59,4.10 2.09,4.41 1.53,4.60 0.97,4.79 0.39,4.83 -0.19,4.88 -0.77,4.79 -1.35,4.69 -1.90,4.46 -2.44,4.23 -2.91,3.88 -3.38,3.52 -3.76,3.07 -4.13,2.61 -4.38,2.08 -4.63,1.55 -4.75,0.97 -4.87,0.39 -4.85,-0.19 -4.82,-0.78 -4.82,-0.78 L -4.82,-0.78 Z"></path></g><g transform="translate(367 257) rotate(0 -2.5 7.5)" stroke="none"><path fill="#1971c2" d="M -3.20,4.27 Q -3.20,4.27 -4.17,3.56 -5.14,2.84 -6.51,5.61 -7.89,8.38 -8.69,10.47 -9.48,12.55 -6.39,11.53 -3.29,10.51 -0.67,9.93 1.95,9.35 0.50,9.18 -0.94,9.01 -2.05,8.77 -3.15,8.53 -4.12,7.94 -5.10,7.36 -5.83,6.50 -6.56,5.63 -6.98,4.58 -7.41,3.53 -7.47,2.40 -7.53,1.27 -7.23,0.17 -6.93,-0.91 -6.29,-1.85 -5.66,-2.79 -4.75,-3.47 -3.85,-4.16 -2.78,-4.52 -1.70,-4.88 -0.57,-4.89 0.55,-4.89 1.63,-4.52 2.70,-4.16 3.60,-3.48 4.51,-2.79 5.14,-1.86 5.78,-0.92 6.08,0.16 6.39,1.26 6.33,2.39 6.27,3.52 5.85,4.57 5.43,5.62 4.70,6.49 3.96,7.35 2.99,7.94 2.02,8.52 0.92,8.77 -0.18,9.01 -1.31,8.89 -2.43,8.77 -3.46,8.29 -4.49,7.82 -5.32,7.04 -6.14,6.26 -6.67,5.26 -7.20,4.26 -7.39,3.14 -7.57,2.02 -7.39,0.90 -7.21,-0.20 -6.68,-1.21 -6.14,-2.21 -5.32,-2.99 -4.50,-3.77 -3.47,-4.24 -2.44,-4.72 -1.32,-4.84 -0.19,-4.97 -0.19,-4.97 -0.19,-4.97 2.33,-4.73 4.86,-4.49 7.19,-3.45 9.52,-2.41 11.94,-0.61 14.36,1.17 15.63,4.11 16.90,7.04 15.91,11.34 14.92,15.63 12.38,17.65 9.83,19.68 5.98,21.31 2.13,22.94 -1.26,23.37 -4.66,23.81 -9.03,23.52 -13.40,23.24 -15.93,21.75 -18.46,20.26 -19.98,17.40 -21.50,14.54 -21.09,10.48 -20.69,6.42 -18.62,3.19 -16.56,-0.02 -13.91,-2.53 -11.27,-5.03 -7.73,-6.25 -4.19,-7.48 -1.82,-6.89 0.54,-6.29 1.87,-5.28 3.20,-4.27 3.67,-3.82 4.13,-3.38 4.48,-2.83 4.82,-2.29 5.02,-1.68 5.23,-1.07 5.28,-0.43 5.33,0.21 5.23,0.84 5.13,1.48 4.88,2.07 4.62,2.66 4.24,3.18 3.85,3.69 3.35,4.10 2.85,4.51 2.27,4.79 1.69,5.06 1.06,5.19 0.43,5.32 -0.20,5.30 -0.85,5.27 -1.47,5.09 -2.09,4.91 -2.64,4.59 -3.20,4.27 -3.20,4.27 L -3.20,4.27 Z"></path></g><g transform="translate(308 299) rotate(0 35 -3)" stroke="none"><path fill="#1971c2" d="M -0.67,-4.71 Q -0.67,-4.71 3.38,-5.06 7.44,-5.41 10.10,-5.76 12.77,-6.11 18.16,-7.00 23.55,-7.89 25.96,-8.42 28.37,-8.95 31.74,-9.17 35.12,-9.40 37.65,-9.56 40.18,-9.71 43.01,-9.77 45.83,-9.83 51.07,-9.88 56.30,-9.93 61.99,-10.51 67.68,-11.09 68.54,-11.04 69.39,-10.99 70.19,-10.66 70.98,-10.34 71.63,-9.78 72.28,-9.22 72.72,-8.48 73.16,-7.74 73.34,-6.90 73.52,-6.07 73.42,-5.21 73.32,-4.36 72.95,-3.58 72.59,-2.81 71.99,-2.19 71.40,-1.57 70.64,-1.17 69.88,-0.77 69.03,-0.64 68.18,-0.51 67.34,-0.65 66.49,-0.80 65.73,-1.20 64.98,-1.61 64.39,-2.24 63.81,-2.87 63.45,-3.65 63.10,-4.43 63.01,-5.28 62.92,-6.14 63.11,-6.97 63.30,-7.81 63.75,-8.54 64.20,-9.28 64.86,-9.83 65.51,-10.38 66.31,-10.69 67.11,-11.00 67.97,-11.04 68.83,-11.08 69.65,-10.85 70.48,-10.61 71.19,-10.13 71.89,-9.64 72.41,-8.95 72.92,-8.27 73.19,-7.45 73.46,-6.64 73.45,-5.78 73.45,-4.92 73.17,-4.11 72.89,-3.30 72.36,-2.62 71.84,-1.94 71.13,-1.46 70.41,-0.98 69.58,-0.76 68.75,-0.54 68.76,-0.54 68.76,-0.54 62.54,-0.29 56.32,-0.04 51.14,-0.04 45.96,-0.05 43.24,-0.03 40.53,-0.02 38.13,-0.00 35.74,0.00 32.94,0.18 30.13,0.37 27.48,0.80 24.82,1.23 21.65,1.72 18.49,2.20 16.05,2.52 13.62,2.83 11.14,2.97 8.65,3.11 4.66,3.91 0.67,4.71 0.09,4.73 -0.47,4.74 -1.03,4.61 -1.59,4.49 -2.10,4.23 -2.62,3.97 -3.06,3.60 -3.50,3.23 -3.83,2.76 -4.17,2.30 -4.38,1.77 -4.60,1.23 -4.68,0.66 -4.76,0.10 -4.70,-0.47 -4.65,-1.04 -4.45,-1.58 -4.26,-2.12 -3.94,-2.60 -3.63,-3.08 -3.21,-3.47 -2.78,-3.86 -2.28,-4.14 -1.78,-4.41 -1.22,-4.56 -0.67,-4.71 -0.67,-4.71 L -0.67,-4.71 Z"></path></g><g transform="translate(332 322) rotate(0 16 17.5)" stroke="none"><path fill="#1971c2" d="M -2.38,-4.77 Q -2.38,-4.77 -0.66,-5.70 1.05,-6.62 3.60,-7.27 6.15,-7.92 9.68,-8.30 13.21,-8.69 17.28,-8.09 21.35,-7.50 24.45,-5.37 27.55,-3.24 28.81,0.57 30.08,4.40 28.98,8.70 27.88,12.99 26.74,14.84 25.59,16.70 24.38,18.55 23.18,20.40 20.74,23.44 18.31,26.48 16.21,29.08 14.10,31.67 12.60,33.70 11.10,35.72 10.17,33.02 9.23,30.33 11.97,30.27 14.71,30.21 17.61,30.22 20.52,30.23 23.22,30.22 25.91,30.20 29.77,30.76 33.64,31.31 34.62,31.83 35.60,32.35 36.36,33.15 37.13,33.96 37.60,34.96 38.06,35.97 38.19,37.07 38.31,38.18 38.07,39.26 37.83,40.34 37.26,41.30 36.69,42.25 35.85,42.97 35.00,43.69 33.97,44.10 32.94,44.51 31.83,44.57 30.72,44.64 29.65,44.34 28.58,44.04 27.66,43.42 26.75,42.80 26.07,41.92 25.40,41.04 25.04,39.98 24.69,38.93 24.69,37.82 24.68,36.71 25.04,35.66 25.39,34.61 26.06,33.72 26.73,32.84 27.65,32.22 28.57,31.59 29.64,31.29 30.71,31.00 31.81,31.05 32.92,31.11 33.95,31.52 34.99,31.93 35.83,32.65 36.68,33.37 37.25,34.32 37.83,35.27 38.07,36.35 38.31,37.43 38.19,38.54 38.07,39.64 37.60,40.65 37.14,41.66 36.38,42.46 35.61,43.27 34.63,43.79 33.65,44.31 32.56,44.49 31.46,44.67 30.37,44.50 29.27,44.32 29.27,44.32 29.28,44.32 28.48,44.07 27.68,43.83 25.38,43.80 23.08,43.77 20.09,43.77 17.10,43.77 14.12,43.73 11.14,43.69 7.95,43.31 4.77,42.94 2.77,41.41 0.77,39.88 -0.01,35.78 -0.81,31.67 0.68,29.00 2.18,26.32 4.07,23.98 5.96,21.63 7.36,19.83 8.76,18.03 10.60,15.88 12.44,13.73 14.27,10.93 16.10,8.12 16.08,5.52 16.07,2.93 13.34,2.91 10.60,2.89 8.22,3.03 5.84,3.17 4.11,3.97 2.38,4.77 1.78,4.99 1.17,5.20 0.53,5.27 -0.10,5.33 -0.74,5.24 -1.37,5.15 -1.97,4.91 -2.57,4.67 -3.09,4.30 -3.61,3.92 -4.03,3.43 -4.45,2.94 -4.73,2.36 -5.02,1.79 -5.16,1.16 -5.31,0.53 -5.29,-0.10 -5.28,-0.74 -5.11,-1.36 -4.95,-1.99 -4.64,-2.55 -4.33,-3.11 -3.89,-3.59 -3.46,-4.06 -2.92,-4.41 -2.38,-4.77 -2.38,-4.77 L -2.38,-4.77 Z"></path></g></svg>