<svg version="1.1" xmlns="http://www.w3.org/2000/svg" viewBox="0 0 798.0001220703125 608.0000305175781" width="798.0001220703125" height="608.0000305175781" filter="invert(93%) hue-rotate(180deg)" class="excalidraw-svg"><!-- svg-source:excalidraw --><metadata></metadata><defs><style class="style-fonts">
      </style></defs><g stroke-linecap="round"><g transform="translate(185 559.9999694824219) rotate(0 1.4210854715202004e-14 -228.5)"><path d="M1.03 1.08 C1.24 -75.06, 1.21 -379.39, 1.2 -455.83 M0.11 0.6 C0.28 -75.33, 0.78 -381.15, 0.88 -457.34" stroke="#1e1e1e" stroke-width="2" fill="none"></path></g><g transform="translate(185 559.9999694824219) rotate(0 1.4210854715202004e-14 -228.5)"><path d="M9.39 -433.84 C8.5 -438.64, 6.16 -445.95, 0.88 -457.34 M9.39 -433.84 C6.22 -440.83, 5.08 -446.04, 0.88 -457.34" stroke="#1e1e1e" stroke-width="2" fill="none"></path></g><g transform="translate(185 559.9999694824219) rotate(0 1.4210854715202004e-14 -228.5)"><path d="M-7.71 -433.86 C-3.6 -438.81, -0.94 -446.1, 0.88 -457.34 M-7.71 -433.86 C-6.54 -440.76, -3.34 -445.97, 0.88 -457.34" stroke="#1e1e1e" stroke-width="2" fill="none"></path></g></g><mask></mask><g stroke-linecap="round"><g transform="translate(142 526.9999694824219) rotate(0 235 0)"><path d="M0.33 0.74 C78.68 0.59, 392.67 -0.76, 471.15 -0.77 M-0.96 0.08 C77.24 0.06, 392.13 0.6, 470.8 0.37" stroke="#1e1e1e" stroke-width="2" fill="none"></path></g><g transform="translate(142 526.9999694824219) rotate(0 235 0)"><path d="M447.31 8.93 C457.6 7.47, 464.17 4.24, 470.8 0.37 M447.31 8.93 C456.43 6.4, 463.99 2.71, 470.8 0.37" stroke="#1e1e1e" stroke-width="2" fill="none"></path></g><g transform="translate(142 526.9999694824219) rotate(0 235 0)"><path d="M447.3 -8.17 C457.61 -3.03, 464.18 0.35, 470.8 0.37 M447.3 -8.17 C456.59 -4.6, 464.16 -2.19, 470.8 0.37" stroke="#1e1e1e" stroke-width="2" fill="none"></path></g></g><mask></mask><g transform="translate(227 102) rotate(0 186.00006103515625 180.49998474121094)" stroke="none"><path fill="#1e1e1e" d="M 4.36,-0.87 Q 4.36,-0.87 4.97,1.99 5.58,4.86 6.10,8.17 6.62,11.49 7.21,13.56 7.80,15.64 8.57,18.52 9.33,21.41 10.03,23.82 10.73,26.23 11.71,29.41 12.70,32.60 13.52,35.59 14.35,38.57 15.33,42.34 16.31,46.10 17.39,48.71 18.47,51.32 19.61,55.56 20.76,59.80 21.90,62.89 23.05,65.98 24.17,68.70 25.29,71.42 26.69,75.52 28.10,79.63 29.60,82.65 31.10,85.67 33.05,89.95 35.00,94.22 36.53,97.49 38.06,100.75 40.21,104.60 42.36,108.46 44.06,111.64 45.75,114.83 47.98,118.68 50.21,122.53 52.14,125.60 54.07,128.68 56.22,132.34 58.37,135.99 60.25,138.56 62.14,141.12 63.71,143.79 65.28,146.47 67.39,149.75 69.49,153.02 72.06,156.79 74.64,160.56 76.72,163.23 78.80,165.91 80.63,168.13 82.45,170.35 84.82,174.06 87.20,177.77 89.16,180.36 91.12,182.95 93.77,186.37 96.41,189.79 98.57,192.37 100.73,194.94 103.24,198.08 105.75,201.21 107.84,203.65 109.92,206.08 112.40,209.54 114.89,212.99 116.88,215.12 118.88,217.25 121.40,220.65 123.92,224.05 125.91,226.15 127.91,228.25 130.42,231.26 132.93,234.28 135.18,236.59 137.42,238.90 140.06,242.03 142.69,245.17 144.94,247.13 147.18,249.09 149.91,252.17 152.64,255.24 154.90,257.17 157.16,259.10 159.90,262.17 162.65,265.24 164.91,267.16 167.17,269.08 169.13,270.76 171.10,272.44 173.73,274.51 176.35,276.59 178.72,278.30 181.09,280.02 184.01,282.25 186.94,284.48 189.41,286.23 191.89,287.98 194.78,289.85 197.67,291.71 199.90,293.02 202.14,294.32 213.46,300.78 224.77,307.24 230.49,310.66 236.20,314.09 239.24,315.71 242.28,317.33 245.28,318.84 248.27,320.35 251.28,321.84 254.29,323.32 256.42,324.52 258.54,325.72 262.49,327.42 266.45,329.11 270.31,330.58 274.18,332.05 278.55,333.47 282.91,334.88 285.95,335.57 288.99,336.27 291.56,337.01 294.13,337.75 297.70,338.74 301.28,339.74 304.98,340.69 308.68,341.65 311.69,342.12 314.70,342.60 317.71,343.04 320.72,343.48 323.04,344.01 325.35,344.53 327.97,345.00 330.59,345.47 332.84,346.30 335.09,347.12 337.42,347.64 339.74,348.16 342.37,348.62 344.99,349.07 347.22,349.61 349.46,350.15 356.19,351.59 362.92,353.03 365.46,353.44 368.00,353.84 370.45,354.54 372.89,355.24 373.72,355.67 374.55,356.09 375.20,356.76 375.84,357.43 376.24,358.27 376.64,359.11 376.76,360.03 376.87,360.96 376.68,361.87 376.49,362.78 376.02,363.58 375.55,364.38 374.85,364.99 374.15,365.60 373.29,365.96 372.43,366.31 371.50,366.37 370.57,366.44 369.67,366.20 368.77,365.96 367.99,365.45 367.22,364.93 366.65,364.20 366.08,363.47 365.77,362.59 365.46,361.71 365.45,360.78 365.44,359.85 365.73,358.96 366.01,358.08 366.57,357.33 367.12,356.58 367.88,356.05 368.65,355.52 369.54,355.26 370.43,355.00 371.36,355.04 372.29,355.08 373.16,355.42 374.03,355.75 374.75,356.35 375.46,356.94 375.95,357.73 376.44,358.52 376.65,359.43 376.86,360.33 376.77,361.26 376.68,362.19 376.30,363.04 375.92,363.88 375.29,364.57 374.66,365.25 373.84,365.69 373.02,366.14 372.11,366.30 371.19,366.46 370.27,366.32 369.35,366.18 369.35,366.18 369.35,366.18 367.84,365.60 366.33,365.02 363.69,364.66 361.06,364.31 354.47,363.80 347.89,363.28 343.61,362.25 339.32,361.22 336.55,360.56 333.77,359.90 331.14,358.98 328.51,358.06 325.91,357.48 323.30,356.91 320.76,356.18 318.22,355.45 315.19,354.86 312.16,354.27 308.93,353.56 305.70,352.85 302.10,351.76 298.50,350.67 294.75,349.43 291.01,348.19 288.94,347.55 286.87,346.90 283.24,345.73 279.61,344.56 275.15,342.90 270.69,341.23 266.53,339.27 262.37,337.31 259.99,336.05 257.60,334.79 254.21,332.46 250.81,330.14 247.81,328.56 244.81,326.98 241.78,325.34 238.76,323.70 235.74,321.97 232.72,320.24 226.89,317.12 221.06,314.01 209.27,307.79 197.48,301.57 195.40,300.09 193.32,298.62 190.12,296.66 186.92,294.69 184.55,292.85 182.17,291.01 179.08,288.84 175.99,286.68 173.68,284.81 171.38,282.95 168.42,280.66 165.45,278.36 163.74,276.54 162.03,274.71 159.69,272.43 157.35,270.16 154.70,267.41 152.04,264.67 149.71,262.38 147.38,260.09 144.71,257.31 142.05,254.53 139.72,252.19 137.39,249.84 134.67,246.90 131.96,243.96 129.73,241.45 127.51,238.93 124.92,236.01 122.32,233.08 120.42,230.67 118.52,228.26 115.93,225.12 113.34,221.98 111.44,219.53 109.53,217.08 106.89,213.84 104.25,210.59 102.40,208.07 100.54,205.55 97.86,202.44 95.17,199.33 93.20,196.69 91.23,194.05 88.23,190.60 85.23,187.16 83.38,184.41 81.54,181.66 79.00,178.23 76.46,174.80 74.85,172.39 73.25,169.98 71.30,167.17 69.36,164.37 66.54,160.65 63.71,156.93 61.22,153.41 58.73,149.89 57.61,147.41 56.49,144.93 54.75,142.11 53.01,139.30 50.69,135.72 48.36,132.14 46.53,129.02 44.71,125.89 42.15,121.91 39.59,117.93 38.14,114.88 36.69,111.82 34.14,107.76 31.60,103.69 30.20,100.49 28.80,97.30 26.57,93.13 24.33,88.97 22.75,85.67 21.16,82.37 19.37,78.36 17.57,74.35 16.58,71.51 15.58,68.67 14.45,65.44 13.32,62.22 11.83,58.36 10.33,54.50 9.25,51.58 8.16,48.65 6.77,44.82 5.37,40.99 4.66,38.28 3.96,35.56 2.69,32.10 1.42,28.64 0.86,26.23 0.31,23.82 -0.50,20.78 -1.32,17.74 -1.76,15.34 -2.20,12.94 -2.74,9.79 -3.28,6.63 -3.82,3.75 -4.36,0.87 -4.40,0.33 -4.44,-0.19 -4.35,-0.72 -4.26,-1.25 -4.05,-1.74 -3.84,-2.23 -3.51,-2.66 -3.19,-3.09 -2.77,-3.43 -2.36,-3.76 -1.87,-3.99 -1.39,-4.22 -0.86,-4.32 -0.33,-4.43 0.19,-4.40 0.73,-4.38 1.24,-4.23 1.75,-4.08 2.22,-3.81 2.68,-3.54 3.07,-3.17 3.45,-2.79 3.74,-2.34 4.02,-1.88 4.19,-1.38 4.36,-0.87 4.36,-0.87 L 4.36,-0.87 Z"></path></g><g transform="translate(98 25.999969482421875) rotate(0 1.5 20.500015258789062)" stroke="none"><path fill="#1e1e1e" d="M 1.73,0 Q 1.73,0 1.67,2.87 1.61,5.74 1.86,8.91 2.10,12.08 2.19,14.34 2.29,16.61 2.32,19.31 2.35,22.01 2.66,23.91 2.97,25.82 3.37,30.16 3.78,34.50 4.01,36.32 4.23,38.15 4.22,38.39 4.20,38.63 4.11,38.86 4.02,39.09 3.86,39.27 3.70,39.45 3.49,39.58 3.27,39.70 3.04,39.75 2.80,39.80 2.55,39.77 2.31,39.74 2.09,39.64 1.87,39.53 1.70,39.36 1.52,39.19 1.41,38.98 1.30,38.76 1.26,38.52 1.22,38.28 1.26,38.04 1.31,37.80 1.42,37.58 1.54,37.37 1.72,37.20 1.90,37.03 2.12,36.93 2.34,36.83 2.59,36.81 2.83,36.79 3.07,36.84 3.31,36.90 3.51,37.03 3.72,37.15 3.88,37.34 4.03,37.53 4.12,37.76 4.21,37.99 4.22,38.23 4.23,38.47 4.16,38.71 4.09,38.94 3.95,39.14 3.82,39.34 3.62,39.49 3.42,39.64 3.19,39.71 2.96,39.79 2.71,39.78 2.47,39.78 2.24,39.70 2.01,39.62 1.82,39.47 1.62,39.32 1.49,39.12 1.35,38.91 1.29,38.68 1.23,38.44 1.23,38.44 1.23,38.44 1.10,36.61 0.97,34.78 0.54,30.52 0.11,26.26 -0.19,24.16 -0.50,22.07 -0.58,19.42 -0.65,16.77 -0.80,14.56 -0.95,12.35 -1.28,9.05 -1.61,5.75 -1.67,2.87 -1.73,0 -1.70,-0.20 -1.68,-0.41 -1.60,-0.61 -1.53,-0.80 -1.41,-0.97 -1.29,-1.14 -1.14,-1.28 -0.98,-1.42 -0.79,-1.52 -0.61,-1.62 -0.41,-1.67 -0.20,-1.72 0.00,-1.72 0.20,-1.72 0.41,-1.67 0.61,-1.62 0.79,-1.52 0.98,-1.42 1.14,-1.28 1.29,-1.14 1.41,-0.97 1.53,-0.80 1.60,-0.60 1.68,-0.41 1.70,-0.20 1.73,0.00 1.73,0.00 L 1.73,0 Z"></path></g><g transform="translate(89 25.999969482421875) rotate(0 20.5 8.5)" stroke="none"><path fill="#1e1e1e" d="M -2.11,-0.84 Q -2.11,-0.84 -1.53,-2.29 -0.96,-3.74 0.33,-5.43 1.62,-7.12 2.37,-8.11 3.12,-9.10 4.78,-10.44 6.44,-11.77 7.72,-12.68 8.99,-13.60 10.52,-14.33 12.04,-15.07 13.40,-15.47 14.76,-15.86 16.59,-15.98 18.43,-16.10 19.99,-15.88 21.55,-15.66 23.95,-14.88 26.36,-14.10 27.50,-13.04 28.64,-11.99 29.65,-10.63 30.66,-9.27 31.25,-7.86 31.83,-6.46 32.07,-4.87 32.30,-3.27 32.40,-2.05 32.51,-0.83 32.18,1.07 31.86,2.98 31.42,4.45 30.98,5.92 29.72,7.64 28.47,9.35 27.80,10.45 27.14,11.55 26.51,12.46 25.89,13.38 24.24,14.70 22.60,16.03 21.34,16.91 20.07,17.80 18.54,18.52 17.00,19.24 15.87,19.81 14.73,20.39 13.07,20.73 11.42,21.07 9.69,21.31 7.97,21.55 6.29,20.26 4.61,18.97 4.89,17.02 5.16,15.07 7.19,13.58 9.21,12.09 10.21,11.59 11.22,11.10 13.39,10.65 15.55,10.19 16.82,9.74 18.09,9.30 19.45,9.01 20.81,8.72 22.62,8.66 24.43,8.60 25.76,8.55 27.09,8.50 29.17,9.19 31.26,9.87 32.46,10.44 33.66,11.01 35.02,11.86 36.39,12.72 37.39,13.45 38.40,14.17 39.15,15.45 39.89,16.73 40.36,18.01 40.83,19.30 41.29,20.32 41.75,21.33 42.05,22.63 42.36,23.94 43.07,27.22 43.77,30.51 43.72,30.96 43.67,31.41 43.48,31.82 43.29,32.23 42.98,32.56 42.67,32.88 42.27,33.10 41.87,33.31 41.42,33.38 40.97,33.45 40.53,33.38 40.08,33.31 39.68,33.09 39.28,32.88 38.97,32.55 38.66,32.22 38.47,31.81 38.28,31.40 38.23,30.95 38.18,30.50 38.28,30.06 38.38,29.62 38.61,29.23 38.85,28.84 39.19,28.55 39.54,28.26 39.96,28.09 40.38,27.92 40.83,27.90 41.28,27.88 41.72,28.00 42.15,28.12 42.53,28.37 42.90,28.63 43.18,28.99 43.45,29.35 43.59,29.78 43.74,30.21 43.74,30.66 43.74,31.11 43.59,31.54 43.45,31.97 43.17,32.33 42.90,32.69 42.52,32.94 42.15,33.20 41.71,33.32 41.28,33.44 40.82,33.41 40.37,33.39 39.95,33.22 39.53,33.05 39.19,32.76 38.84,32.46 38.61,32.08 38.38,31.69 38.28,31.25 38.18,30.80 38.18,30.80 38.18,30.80 38.02,29.12 37.86,27.44 37.35,25.43 36.84,23.43 36.35,22.25 35.86,21.08 35.46,19.93 35.05,18.77 34.42,17.84 33.79,16.91 31.76,15.69 29.73,14.46 28.43,14.03 27.14,13.60 25.92,13.63 24.71,13.66 22.28,13.91 19.85,14.17 18.38,14.72 16.91,15.27 15.34,15.81 13.76,16.35 11.84,17.31 9.92,18.27 9.45,17.29 8.97,16.30 10.82,16.14 12.67,15.97 13.84,15.43 15.01,14.90 16.20,14.37 17.39,13.84 18.46,13.13 19.53,12.42 21.26,10.70 22.99,8.98 23.78,7.73 24.57,6.49 25.38,5.41 26.18,4.32 26.53,3.25 26.89,2.18 27.04,-0.22 27.20,-2.64 26.91,-4.48 26.62,-6.32 25.80,-7.40 24.97,-8.47 23.70,-9.59 22.42,-10.71 20.56,-11.13 18.71,-11.55 16.30,-11.29 13.89,-11.04 12.67,-10.50 11.45,-9.97 10.32,-9.25 9.20,-8.52 7.91,-7.35 6.63,-6.18 5.86,-5.35 5.10,-4.51 4.18,-3.26 3.26,-2.00 2.68,-0.58 2.11,0.84 1.98,1.08 1.85,1.32 1.66,1.53 1.48,1.73 1.25,1.88 1.02,2.03 0.76,2.13 0.50,2.22 0.23,2.25 -0.04,2.28 -0.31,2.24 -0.58,2.20 -0.84,2.10 -1.09,2.00 -1.32,1.84 -1.54,1.68 -1.72,1.47 -1.90,1.26 -2.02,1.01 -2.14,0.77 -2.20,0.50 -2.26,0.23 -2.26,-0.04 -2.25,-0.31 -2.18,-0.58 -2.11,-0.84 -2.11,-0.84 L -2.11,-0.84 Z"></path></g><g transform="translate(161 10) rotate(0 -7.5 24.999984741210938)" stroke="none"><path fill="#1e1e1e" d="M 0.98,1.48 Q 0.98,1.48 -0.76,2.58 -2.50,3.69 -3.34,4.69 -4.17,5.68 -5.43,7.42 -6.69,9.16 -7.45,10.52 -8.22,11.89 -9.46,14.10 -10.71,16.31 -11.47,24.76 -12.24,33.21 -12.33,37.43 -12.42,41.64 -11.67,43.76 -10.93,45.88 -9.87,46.55 -8.80,47.23 -7.06,47.62 -5.32,48.01 -5.06,48.14 -4.80,48.27 -4.60,48.48 -4.39,48.68 -4.27,48.94 -4.14,49.21 -4.10,49.49 -4.06,49.78 -4.12,50.07 -4.18,50.35 -4.32,50.61 -4.47,50.86 -4.69,51.05 -4.90,51.24 -5.17,51.36 -5.44,51.47 -5.73,51.49 -6.02,51.51 -6.30,51.44 -6.58,51.37 -6.83,51.21 -7.07,51.05 -7.25,50.83 -7.43,50.60 -7.53,50.32 -7.63,50.05 -7.64,49.76 -7.64,49.47 -7.56,49.19 -7.47,48.91 -7.30,48.68 -7.13,48.44 -6.89,48.27 -6.65,48.11 -6.37,48.02 -6.09,47.94 -5.80,47.95 -5.51,47.96 -5.24,48.06 -4.97,48.16 -4.74,48.35 -4.52,48.53 -4.36,48.78 -4.21,49.02 -4.14,49.31 -4.07,49.59 -4.09,49.88 -4.12,50.17 -4.24,50.43 -4.35,50.70 -4.55,50.92 -4.74,51.13 -5.00,51.27 -5.25,51.42 -5.54,51.47 -5.83,51.52 -6.11,51.48 -6.40,51.44 -6.40,51.44 -6.40,51.44 -8.60,50.59 -10.79,49.75 -12.17,48.38 -13.54,47.02 -14.48,44.34 -15.41,41.66 -15.39,37.29 -15.37,32.92 -14.52,23.89 -13.68,14.85 -12.49,12.44 -11.29,10.02 -10.38,8.64 -9.47,7.25 -8.14,5.20 -6.81,3.16 -5.60,2.03 -4.39,0.90 -2.68,-0.28 -0.98,-1.48 -0.79,-1.57 -0.60,-1.67 -0.39,-1.72 -0.18,-1.77 0.02,-1.76 0.24,-1.76 0.45,-1.71 0.65,-1.65 0.84,-1.55 1.03,-1.45 1.19,-1.30 1.35,-1.16 1.47,-0.98 1.59,-0.80 1.66,-0.60 1.73,-0.39 1.75,-0.18 1.78,0.02 1.75,0.24 1.72,0.45 1.64,0.65 1.56,0.85 1.43,1.02 1.31,1.20 1.15,1.34 0.98,1.48 0.98,1.48 L 0.98,1.48 Z"></path></g><g transform="translate(180 22.999969482421875) rotate(0 12.5 -1.5)" stroke="none"><path fill="#1e1e1e" d="M 0,-2.43 Q 0,-2.43 1.42,-2.43 2.85,-2.43 5.61,-2.83 8.37,-3.22 9.69,-3.30 11.00,-3.38 12.53,-3.62 14.07,-3.87 15.45,-4.04 16.83,-4.21 18.08,-4.52 19.33,-4.84 21.78,-5.15 24.23,-5.46 24.64,-5.42 25.04,-5.38 25.41,-5.21 25.78,-5.05 26.08,-4.77 26.38,-4.50 26.57,-4.14 26.77,-3.78 26.84,-3.38 26.91,-2.98 26.84,-2.58 26.78,-2.18 26.60,-1.82 26.41,-1.46 26.12,-1.18 25.83,-0.89 25.46,-0.72 25.09,-0.55 24.69,-0.50 24.29,-0.45 23.89,-0.53 23.49,-0.62 23.14,-0.82 22.79,-1.03 22.53,-1.33 22.26,-1.64 22.11,-2.01 21.95,-2.39 21.93,-2.80 21.90,-3.20 22.00,-3.59 22.11,-3.99 22.33,-4.32 22.56,-4.66 22.88,-4.91 23.20,-5.16 23.58,-5.29 23.96,-5.43 24.37,-5.43 24.78,-5.44 25.16,-5.31 25.55,-5.19 25.87,-4.94 26.20,-4.70 26.43,-4.37 26.66,-4.03 26.78,-3.64 26.89,-3.25 26.87,-2.85 26.85,-2.44 26.71,-2.06 26.56,-1.69 26.30,-1.37 26.04,-1.06 25.70,-0.85 25.35,-0.64 24.95,-0.54 24.56,-0.45 24.56,-0.45 24.56,-0.45 22.52,-0.29 20.48,-0.13 18.90,0.23 17.33,0.60 16.12,0.69 14.92,0.78 13.06,1.16 11.21,1.53 9.97,1.56 8.73,1.59 7.28,1.72 5.82,1.85 4.36,2.14 2.89,2.43 1.44,2.43 0,2.43 -0.29,2.39 -0.58,2.36 -0.85,2.25 -1.13,2.15 -1.37,1.98 -1.61,1.82 -1.80,1.60 -2.00,1.38 -2.13,1.12 -2.27,0.86 -2.34,0.57 -2.41,0.29 -2.41,-0.00 -2.41,-0.29 -2.34,-0.57 -2.27,-0.86 -2.13,-1.12 -2.00,-1.38 -1.80,-1.60 -1.61,-1.82 -1.37,-1.98 -1.13,-2.15 -0.85,-2.25 -0.58,-2.36 -0.29,-2.39 0.00,-2.43 0.00,-2.43 L 0,-2.43 Z"></path></g><g transform="translate(194 22) rotate(0 -0.5 15)" stroke="none"><path fill="#1e1e1e" d="M 2.09,0.29 Q 2.09,0.29 1.73,2.30 1.36,4.30 0.96,5.87 0.56,7.44 0.48,8.50 0.40,9.56 0.01,11.29 -0.36,13.01 -0.45,14.19 -0.54,15.37 -0.63,16.93 -0.72,18.49 0.50,21.41 1.72,24.34 2.35,25.73 2.99,27.12 3.06,27.44 3.14,27.76 3.11,28.09 3.09,28.42 2.96,28.72 2.82,29.02 2.60,29.27 2.38,29.51 2.09,29.67 1.81,29.83 1.48,29.90 1.16,29.96 0.83,29.91 0.50,29.87 0.21,29.72 -0.08,29.57 -0.31,29.34 -0.54,29.10 -0.69,28.81 -0.83,28.51 -0.88,28.18 -0.92,27.86 -0.86,27.53 -0.79,27.21 -0.63,26.92 -0.47,26.63 -0.22,26.41 0.02,26.20 0.32,26.07 0.62,25.94 0.95,25.91 1.28,25.89 1.60,25.97 1.92,26.05 2.20,26.23 2.48,26.40 2.68,26.66 2.89,26.92 3.00,27.23 3.11,27.54 3.12,27.87 3.13,28.20 3.03,28.51 2.93,28.83 2.74,29.10 2.55,29.36 2.28,29.56 2.01,29.75 1.69,29.84 1.38,29.94 1.05,29.93 0.72,29.92 0.41,29.80 0.10,29.69 -0.15,29.48 -0.40,29.27 -0.58,29.00 -0.76,28.72 -0.76,28.72 -0.76,28.72 -1.32,27.30 -1.89,25.88 -3.49,22.19 -5.08,18.50 -5.04,16.67 -4.99,14.84 -4.78,13.47 -4.56,12.09 -4.22,10.51 -3.89,8.93 -3.62,7.63 -3.35,6.32 -2.93,5.03 -2.51,3.74 -2.30,1.72 -2.09,-0.29 -2.03,-0.54 -1.96,-0.79 -1.84,-1.01 -1.71,-1.24 -1.54,-1.42 -1.37,-1.61 -1.15,-1.75 -0.94,-1.89 -0.70,-1.98 -0.46,-2.06 -0.20,-2.09 0.04,-2.12 0.29,-2.08 0.55,-2.04 0.78,-1.95 1.02,-1.85 1.23,-1.70 1.43,-1.55 1.60,-1.36 1.77,-1.16 1.88,-0.93 1.99,-0.71 2.05,-0.46 2.11,-0.21 2.10,0.04 2.09,0.30 2.09,0.30 L 2.09,0.29 Z"></path></g><g transform="translate(227 13) rotate(0 5 20.499984741210938)" stroke="none"><path fill="#1e1e1e" d="M 1.52,-1.09 Q 1.52,-1.09 2.90,0.96 4.27,3.02 5.43,4.41 6.60,5.80 7.47,8.09 8.34,10.39 9.01,11.78 9.69,13.17 10.22,15.35 10.76,17.54 11.05,19.37 11.34,21.20 11.40,23.46 11.45,25.71 11.27,27.39 11.09,29.06 10.70,30.90 10.31,32.73 10.23,34.01 10.15,35.28 9.80,36.41 9.46,37.54 8.91,39.26 8.36,40.98 8.19,41.29 8.02,41.61 7.75,41.85 7.48,42.09 7.15,42.23 6.82,42.38 6.47,42.41 6.11,42.44 5.76,42.36 5.41,42.27 5.10,42.08 4.80,41.89 4.57,41.61 4.34,41.33 4.22,41.00 4.09,40.66 4.08,40.30 4.07,39.94 4.17,39.60 4.27,39.25 4.48,38.96 4.69,38.66 4.98,38.45 5.27,38.24 5.61,38.13 5.95,38.02 6.31,38.03 6.67,38.04 7.01,38.16 7.35,38.28 7.63,38.50 7.92,38.73 8.11,39.03 8.31,39.33 8.40,39.68 8.49,40.03 8.46,40.39 8.43,40.75 8.29,41.08 8.15,41.41 7.92,41.68 7.68,41.95 7.37,42.13 7.05,42.31 6.70,42.38 6.35,42.45 5.99,42.40 5.63,42.36 5.31,42.20 4.99,42.04 4.73,41.79 4.47,41.54 4.31,41.21 4.15,40.89 4.10,40.54 4.05,40.18 4.11,39.83 4.18,39.47 4.18,39.47 4.18,39.47 5.26,37.12 6.34,34.77 6.59,33.37 6.84,31.97 7.23,30.24 7.63,28.50 7.94,27.17 8.25,25.85 8.10,23.75 7.95,21.66 7.77,20.02 7.60,18.39 7.03,16.47 6.46,14.55 5.89,13.06 5.31,11.56 4.60,9.76 3.89,7.97 2.68,6.49 1.47,5.02 -0.02,3.05 -1.52,1.09 -1.63,0.89 -1.74,0.69 -1.80,0.47 -1.85,0.25 -1.86,0.02 -1.86,-0.19 -1.81,-0.41 -1.76,-0.63 -1.66,-0.83 -1.56,-1.04 -1.41,-1.21 -1.26,-1.38 -1.08,-1.51 -0.89,-1.64 -0.68,-1.73 -0.47,-1.81 -0.25,-1.84 -0.03,-1.87 0.19,-1.85 0.41,-1.82 0.63,-1.75 0.84,-1.67 1.03,-1.55 1.22,-1.42 1.37,-1.25 1.52,-1.09 1.52,-1.09 L 1.52,-1.09 Z"></path></g><g transform="translate(639 550.0000305175781) rotate(0 17.50006103515625 0.499969482421875)" stroke="none"><path fill="#1e1e1e" d="M 0.38,-1.90 Q 0.38,-1.90 1.82,-1.66 3.27,-1.42 4.90,-1.30 6.53,-1.19 7.82,-1.19 9.12,-1.20 10.95,-1.38 12.78,-1.56 19.21,-1.59 25.63,-1.62 28.32,-1.60 31.00,-1.59 31.27,-1.55 31.53,-1.51 31.77,-1.39 32.01,-1.27 32.20,-1.07 32.39,-0.88 32.51,-0.64 32.62,-0.40 32.66,-0.13 32.69,0.13 32.64,0.39 32.59,0.65 32.45,0.89 32.32,1.12 32.11,1.30 31.91,1.48 31.66,1.58 31.42,1.68 31.15,1.70 30.88,1.72 30.62,1.66 30.36,1.59 30.13,1.44 29.91,1.29 29.74,1.08 29.57,0.87 29.48,0.62 29.39,0.36 29.39,0.09 29.38,-0.16 29.46,-0.42 29.55,-0.68 29.70,-0.89 29.86,-1.11 30.08,-1.27 30.30,-1.42 30.56,-1.50 30.82,-1.57 31.09,-1.57 31.36,-1.56 31.61,-1.46 31.86,-1.36 32.07,-1.19 32.28,-1.02 32.42,-0.80 32.56,-0.57 32.63,-0.31 32.69,-0.04 32.66,0.21 32.64,0.48 32.53,0.73 32.42,0.98 32.24,1.17 32.06,1.37 31.82,1.50 31.59,1.63 31.32,1.68 31.06,1.73 31.06,1.73 31.06,1.73 28.38,1.84 25.70,1.96 19.50,2.15 13.30,2.34 11.13,2.69 8.96,3.04 7.61,2.93 6.25,2.83 4.36,2.70 2.47,2.57 1.04,2.24 -0.38,1.90 -0.60,1.83 -0.82,1.76 -1.02,1.63 -1.22,1.51 -1.38,1.34 -1.55,1.17 -1.66,0.97 -1.78,0.76 -1.85,0.54 -1.91,0.31 -1.92,0.08 -1.93,-0.14 -1.89,-0.37 -1.84,-0.60 -1.74,-0.82 -1.64,-1.03 -1.50,-1.21 -1.35,-1.39 -1.16,-1.53 -0.97,-1.68 -0.76,-1.77 -0.54,-1.86 -0.31,-1.90 -0.08,-1.94 0.14,-1.92 0.38,-1.90 0.38,-1.90 L 0.38,-1.90 Z"></path></g><g transform="translate(655 548.9999694824219) rotate(0 3.50006103515625 19.5)" stroke="none"><path fill="#1e1e1e" d="M 2.05,0 Q 2.05,0 2.09,1.43 2.13,2.87 2.16,4.34 2.18,5.82 2.23,7.02 2.29,8.22 2.20,10.17 2.12,12.12 2.12,13.81 2.11,15.50 2.00,17.65 1.90,19.81 1.94,21.30 1.99,22.79 2.19,24.73 2.39,26.68 2.82,28.00 3.25,29.32 3.74,30.76 4.23,32.21 5.07,33.75 5.90,35.28 6.86,36.02 7.81,36.76 8.11,37.00 8.40,37.24 8.61,37.56 8.81,37.87 8.91,38.24 9.00,38.61 8.97,38.99 8.94,39.37 8.79,39.72 8.64,40.07 8.39,40.35 8.14,40.63 7.81,40.82 7.48,41.01 7.11,41.08 6.73,41.15 6.36,41.10 5.98,41.05 5.64,40.89 5.30,40.72 5.03,40.45 4.76,40.18 4.59,39.84 4.42,39.50 4.37,39.13 4.32,38.75 4.39,38.38 4.46,38.01 4.64,37.68 4.83,37.35 5.11,37.09 5.39,36.84 5.74,36.69 6.09,36.53 6.47,36.50 6.85,36.47 7.21,36.56 7.58,36.65 7.90,36.85 8.22,37.06 8.46,37.35 8.70,37.65 8.83,38.00 8.97,38.36 8.98,38.74 8.99,39.12 8.88,39.48 8.77,39.84 8.55,40.15 8.33,40.46 8.02,40.68 7.71,40.91 7.35,41.02 6.99,41.13 6.61,41.12 6.23,41.11 5.87,40.98 5.51,40.85 5.52,40.85 5.52,40.86 3.83,39.35 2.14,37.85 1.27,35.63 0.39,33.40 -0.03,31.89 -0.47,30.37 -0.85,28.78 -1.24,27.19 -1.61,24.99 -1.99,22.79 -1.94,21.30 -1.90,19.81 -2.00,17.65 -2.11,15.50 -2.12,13.81 -2.12,12.12 -2.20,10.17 -2.29,8.22 -2.23,7.02 -2.18,5.82 -2.16,4.34 -2.13,2.87 -2.09,1.43 -2.05,0 -2.02,-0.24 -1.99,-0.49 -1.90,-0.72 -1.81,-0.95 -1.67,-1.15 -1.53,-1.36 -1.35,-1.52 -1.16,-1.69 -0.94,-1.80 -0.72,-1.92 -0.48,-1.98 -0.24,-2.03 0.00,-2.03 0.24,-2.03 0.48,-1.98 0.72,-1.92 0.94,-1.80 1.16,-1.69 1.35,-1.52 1.53,-1.36 1.67,-1.15 1.81,-0.95 1.90,-0.72 1.99,-0.49 2.02,-0.24 2.05,0.00 2.05,0.00 L 2.05,0 Z"></path></g><g transform="translate(707.0001220703125 544.9999694824219) rotate(0 -7.00006103515625 24)" stroke="none"><path fill="#1e1e1e" d="M 1.60,1.00 Q 1.60,1.00 0.09,3.25 -1.40,5.51 -2.27,7.05 -3.13,8.59 -3.73,10.04 -4.32,11.49 -5.23,13.52 -6.15,15.56 -6.79,17.28 -7.42,19.01 -8.86,26.78 -10.30,34.56 -10.95,38.19 -11.59,41.83 -11.43,44.32 -11.27,46.81 -11.31,47.09 -11.35,47.37 -11.48,47.62 -11.61,47.87 -11.81,48.07 -12.01,48.26 -12.27,48.39 -12.52,48.51 -12.80,48.54 -13.08,48.58 -13.36,48.52 -13.63,48.47 -13.88,48.33 -14.12,48.18 -14.31,47.97 -14.49,47.76 -14.60,47.50 -14.71,47.24 -14.73,46.96 -14.75,46.68 -14.68,46.40 -14.61,46.13 -14.45,45.90 -14.30,45.66 -14.08,45.49 -13.85,45.31 -13.59,45.22 -13.32,45.12 -13.04,45.12 -12.76,45.11 -12.49,45.20 -12.22,45.28 -11.99,45.45 -11.77,45.62 -11.61,45.85 -11.44,46.08 -11.36,46.35 -11.28,46.62 -11.30,46.90 -11.31,47.19 -11.41,47.45 -11.51,47.71 -11.69,47.93 -11.86,48.15 -12.10,48.30 -12.34,48.45 -12.62,48.51 -12.89,48.58 -13.17,48.55 -13.45,48.52 -13.71,48.41 -13.97,48.30 -14.18,48.10 -14.38,47.91 -14.52,47.67 -14.66,47.42 -14.71,47.14 -14.76,46.87 -14.76,46.87 -14.76,46.87 -14.68,44.10 -14.61,41.34 -14.04,37.66 -13.47,33.99 -12.05,25.90 -10.64,17.81 -9.97,16.04 -9.30,14.27 -8.50,12.13 -7.69,10.00 -6.95,8.41 -6.20,6.81 -5.27,5.25 -4.34,3.68 -2.97,1.34 -1.60,-1.00 -1.45,-1.17 -1.31,-1.35 -1.13,-1.49 -0.95,-1.63 -0.74,-1.72 -0.53,-1.81 -0.31,-1.84 -0.08,-1.88 0.14,-1.86 0.36,-1.85 0.58,-1.78 0.80,-1.70 0.99,-1.58 1.18,-1.46 1.34,-1.30 1.50,-1.14 1.61,-0.94 1.73,-0.74 1.79,-0.53 1.86,-0.31 1.87,-0.08 1.88,0.14 1.83,0.36 1.79,0.58 1.69,0.79 1.60,1.00 1.60,1.00 L 1.60,1.00 Z"></path></g><g transform="translate(739 547.0000305175781) rotate(0 0.00006103515625 8.499969482421875)" stroke="none"><path fill="#1e1e1e" d="M 0.97,2.28 Q 0.97,2.28 -1.08,2.99 -3.14,3.71 -4.02,4.51 -4.89,5.32 -5.89,6.26 -6.88,7.21 -7.45,8.71 -8.02,10.21 -7.52,11.51 -7.02,12.82 -5.74,13.37 -4.47,13.92 -3.19,13.73 -1.90,13.55 -0.78,13.42 0.33,13.29 1.38,13.02 2.43,12.75 4.12,11.80 5.81,10.85 6.78,9.73 7.76,8.61 6.74,7.96 5.73,7.32 4.52,7.77 3.31,8.22 2.86,8.48 2.41,8.73 1.90,8.83 1.40,8.92 0.89,8.86 0.37,8.79 -0.08,8.56 -0.54,8.33 -0.90,7.96 -1.27,7.60 -1.50,7.14 -1.72,6.67 -1.79,6.16 -1.86,5.65 -1.76,5.15 -1.67,4.64 -1.41,4.19 -1.16,3.74 -0.78,3.40 -0.39,3.06 0.07,2.85 0.55,2.65 1.06,2.61 1.57,2.57 2.07,2.69 2.57,2.82 3.01,3.09 3.44,3.37 3.76,3.77 4.09,4.18 4.26,4.66 4.44,5.14 4.45,5.66 4.47,6.17 4.32,6.67 4.16,7.16 3.86,7.58 3.56,8.00 3.14,8.30 2.72,8.60 2.23,8.75 1.74,8.90 1.22,8.88 0.71,8.87 0.23,8.69 -0.25,8.51 -0.65,8.19 -1.05,7.87 -1.33,7.43 -1.61,7.00 -1.73,6.50 -1.85,6.00 -1.81,5.48 -1.77,4.97 -1.56,4.50 -1.36,4.02 -1.02,3.64 -0.67,3.26 -0.67,3.26 -0.67,3.26 3.02,2.25 6.71,1.23 8.42,1.96 10.13,2.69 11.04,3.41 11.94,4.12 12.52,5.17 13.10,6.22 13.26,7.57 13.42,8.93 12.94,10.39 12.46,11.84 10.77,13.61 9.08,15.37 7.72,16.31 6.37,17.24 5.09,17.71 3.81,18.19 1.53,18.60 -0.75,19.01 -2.12,19.18 -3.49,19.36 -6.15,18.43 -8.82,17.49 -10.42,15.69 -12.03,13.89 -12.57,12.29 -13.10,10.69 -12.83,9.52 -12.55,8.35 -11.95,7.01 -11.34,5.67 -10.66,4.78 -9.97,3.90 -8.85,2.89 -7.72,1.89 -6.31,0.81 -4.90,-0.26 -2.94,-1.27 -0.97,-2.28 -0.69,-2.36 -0.40,-2.44 -0.10,-2.46 0.19,-2.47 0.48,-2.41 0.78,-2.35 1.05,-2.22 1.32,-2.10 1.55,-1.91 1.78,-1.72 1.96,-1.48 2.14,-1.24 2.26,-0.97 2.38,-0.69 2.43,-0.40 2.47,-0.10 2.45,0.19 2.43,0.49 2.33,0.77 2.24,1.05 2.08,1.31 1.92,1.56 1.71,1.77 1.49,1.98 1.23,2.13 0.97,2.28 0.97,2.28 L 0.97,2.28 Z"></path></g><g transform="translate(787 547.0000305175781) rotate(0 -9.99993896484375 20.499969482421875)" stroke="none"><path fill="#1e1e1e" d="M 0,1.99 Q 0,1.99 -1.14,2.06 -2.28,2.13 -4.31,2.86 -6.35,3.60 -8.40,4.95 -10.44,6.29 -11.14,7.13 -11.85,7.97 -13.87,14.29 -15.89,20.61 -16.27,24.39 -16.65,28.18 -16.31,30.22 -15.97,32.25 -14.80,34.12 -13.63,35.98 -12.35,36.97 -11.07,37.96 -8.65,38.38 -6.23,38.80 -3.36,37.94 -0.49,37.08 -0.13,37.05 0.21,37.03 0.56,37.12 0.91,37.21 1.20,37.41 1.50,37.60 1.72,37.88 1.94,38.16 2.06,38.50 2.18,38.84 2.19,39.19 2.19,39.55 2.08,39.89 1.98,40.23 1.76,40.52 1.55,40.81 1.26,41.01 0.97,41.22 0.62,41.32 0.28,41.42 -0.07,41.41 -0.42,41.39 -0.76,41.27 -1.09,41.14 -1.37,40.91 -1.64,40.68 -1.83,40.38 -2.02,40.08 -2.10,39.73 -2.19,39.38 -2.15,39.02 -2.12,38.67 -1.97,38.34 -1.83,38.02 -1.59,37.75 -1.34,37.49 -1.03,37.32 -0.72,37.15 -0.37,37.08 -0.01,37.02 0.33,37.07 0.68,37.12 1.00,37.29 1.32,37.45 1.57,37.71 1.82,37.96 1.97,38.28 2.13,38.61 2.17,38.96 2.22,39.31 2.14,39.66 2.07,40.01 1.89,40.32 1.71,40.63 1.44,40.87 1.18,41.10 0.85,41.24 0.52,41.38 0.52,41.38 0.52,41.38 -1.77,41.84 -4.06,42.31 -5.35,42.43 -6.65,42.55 -8.55,42.25 -10.45,41.94 -11.80,41.23 -13.15,40.52 -14.73,39.13 -16.31,37.73 -17.81,35.36 -19.31,32.98 -19.84,30.45 -20.37,27.91 -20.10,23.65 -19.84,19.39 -17.62,12.19 -15.40,4.99 -14.24,3.78 -13.08,2.57 -11.50,1.37 -9.91,0.18 -8.83,-0.31 -7.75,-0.81 -6.38,-1.21 -5.01,-1.60 -3.66,-1.87 -2.31,-2.13 -1.15,-2.06 0,-1.99 0.23,-1.96 0.47,-1.93 0.70,-1.85 0.92,-1.76 1.12,-1.63 1.32,-1.49 1.48,-1.31 1.64,-1.13 1.75,-0.92 1.86,-0.70 1.92,-0.47 1.98,-0.24 1.98,0.00 1.98,0.24 1.92,0.47 1.86,0.70 1.75,0.92 1.64,1.13 1.48,1.31 1.32,1.49 1.12,1.63 0.92,1.76 0.70,1.85 0.47,1.93 0.23,1.96 -0.00,1.99 -0.00,1.99 L 0,1.99 Z"></path></g><g transform="translate(162 449.9999694824219) rotate(0 12.5 -1.99993896484375)" stroke="none"><path fill="#1e1e1e" d="M 0,-2.36 Q 0,-2.36 0.86,-2.42 1.72,-2.47 3.79,-2.51 5.87,-2.55 8.41,-3.17 10.96,-3.80 12.36,-4.01 13.77,-4.23 15.38,-4.52 16.99,-4.81 18.14,-5.23 19.30,-5.65 22.09,-6.48 24.88,-7.32 25.29,-7.35 25.69,-7.37 26.08,-7.26 26.48,-7.16 26.82,-6.93 27.15,-6.71 27.40,-6.38 27.65,-6.06 27.78,-5.68 27.92,-5.29 27.92,-4.89 27.92,-4.48 27.80,-4.09 27.67,-3.70 27.42,-3.38 27.18,-3.05 26.84,-2.82 26.51,-2.59 26.12,-2.48 25.73,-2.37 25.32,-2.39 24.91,-2.41 24.53,-2.56 24.15,-2.70 23.84,-2.97 23.53,-3.23 23.32,-3.57 23.11,-3.92 23.02,-4.32 22.93,-4.71 22.97,-5.12 23.01,-5.52 23.18,-5.90 23.35,-6.27 23.62,-6.56 23.90,-6.86 24.26,-7.05 24.62,-7.25 25.02,-7.32 25.42,-7.38 25.82,-7.32 26.22,-7.26 26.59,-7.07 26.95,-6.88 27.23,-6.59 27.51,-6.29 27.68,-5.93 27.86,-5.56 27.90,-5.15 27.95,-4.75 27.87,-4.35 27.78,-3.95 27.57,-3.60 27.37,-3.25 27.06,-2.99 26.75,-2.72 26.37,-2.57 25.99,-2.41 25.99,-2.41 25.99,-2.42 23.43,-1.73 20.87,-1.04 19.43,-0.58 18.00,-0.11 16.22,0.31 14.45,0.74 13.30,0.88 12.15,1.01 10.50,1.48 8.86,1.94 7.38,2.25 5.90,2.55 3.81,2.51 1.72,2.47 0.86,2.42 0,2.36 -0.28,2.33 -0.56,2.29 -0.83,2.19 -1.09,2.09 -1.33,1.93 -1.56,1.77 -1.75,1.55 -1.94,1.34 -2.07,1.09 -2.21,0.83 -2.28,0.56 -2.34,0.28 -2.34,-0.00 -2.34,-0.28 -2.28,-0.56 -2.21,-0.83 -2.07,-1.09 -1.94,-1.34 -1.75,-1.55 -1.56,-1.77 -1.33,-1.93 -1.09,-2.09 -0.83,-2.19 -0.56,-2.29 -0.28,-2.33 0.00,-2.36 0.00,-2.36 L 0,-2.36 Z"></path></g><g transform="translate(25 458.9999694824219) rotate(0 11.5 -10)" stroke="none"><path fill="#1e1e1e" d="M 1.93,-0.96 Q 1.93,-0.96 2.27,-0.42 2.62,0.12 2.71,0.38 2.81,0.64 2.83,0.92 2.86,1.19 2.82,1.46 2.78,1.74 2.68,1.99 2.58,2.25 2.42,2.47 2.26,2.70 2.04,2.88 1.83,3.06 1.59,3.18 1.34,3.30 1.07,3.36 0.80,3.42 0.53,3.42 0.25,3.41 -0.01,3.34 -0.27,3.27 -0.52,3.14 -0.76,3.00 -0.96,2.82 -1.17,2.63 -1.32,2.40 -1.47,2.17 1.21,-0.37 3.90,-2.92 5.66,-3.92 7.43,-4.92 8.60,-6.11 9.77,-7.31 10.88,-8.47 11.99,-9.64 12.70,-10.47 13.41,-11.30 14.60,-12.49 15.78,-13.68 16.44,-14.68 17.09,-15.67 17.98,-16.97 18.86,-18.26 19.60,-19.84 20.34,-21.42 22.24,-20.86 24.14,-20.29 23.56,-19.22 22.98,-18.15 22.58,-17.04 22.17,-15.94 21.75,-14.86 21.33,-13.78 20.82,-12.62 20.31,-11.46 19.82,-10.22 19.33,-8.99 19.14,-7.16 18.94,-5.32 19.19,-3.47 19.44,-1.61 19.57,-1.16 19.70,-0.70 19.68,-0.24 19.66,0.22 19.49,0.66 19.32,1.10 19.02,1.46 18.71,1.82 18.31,2.06 17.91,2.31 17.46,2.41 17.00,2.52 16.53,2.47 16.06,2.42 15.64,2.23 15.21,2.04 14.86,1.72 14.52,1.40 14.30,0.98 14.08,0.57 14.00,0.11 13.92,-0.35 13.99,-0.81 14.06,-1.28 14.28,-1.69 14.50,-2.11 14.83,-2.43 15.17,-2.76 15.60,-2.96 16.02,-3.16 16.49,-3.21 16.95,-3.27 17.41,-3.17 17.87,-3.07 18.28,-2.83 18.68,-2.59 18.99,-2.24 19.29,-1.88 19.47,-1.45 19.65,-1.01 19.68,-0.54 19.71,-0.08 19.58,0.37 19.46,0.82 19.20,1.21 18.94,1.60 18.57,1.89 18.20,2.18 17.75,2.33 17.31,2.48 16.84,2.49 16.37,2.49 15.92,2.34 15.48,2.20 15.10,1.91 14.73,1.63 14.46,1.25 14.19,0.86 14.19,0.86 14.19,0.86 13.69,-1.37 13.19,-3.62 13.25,-4.71 13.31,-5.80 13.43,-6.99 13.55,-8.18 13.83,-9.55 14.11,-10.92 14.61,-12.34 15.11,-13.76 15.56,-14.77 16.01,-15.79 16.51,-17.13 17.00,-18.47 17.95,-20.16 18.89,-21.85 19.84,-22.62 20.80,-23.39 22.84,-23.27 24.89,-23.14 25.16,-21.94 25.44,-20.75 24.47,-19.26 23.51,-17.78 22.97,-16.80 22.43,-15.82 21.49,-14.47 20.56,-13.12 19.62,-11.96 18.69,-10.79 17.49,-9.60 16.30,-8.41 15.47,-7.70 14.63,-6.99 13.46,-5.88 12.29,-4.77 10.81,-3.32 9.32,-1.87 7.55,-0.71 5.78,0.45 4.20,0.28 2.62,0.12 2.71,0.38 2.81,0.64 2.83,0.92 2.86,1.19 2.82,1.46 2.78,1.74 2.68,1.99 2.58,2.25 2.42,2.47 2.26,2.70 2.04,2.88 1.83,3.06 1.59,3.18 1.34,3.30 1.07,3.36 0.80,3.42 0.53,3.42 0.25,3.41 -0.01,3.34 -0.27,3.27 -0.52,3.14 -0.76,3.01 -0.96,2.82 -1.16,2.63 -1.32,2.40 -1.47,2.17 -1.70,1.57 -1.93,0.96 -2.01,0.72 -2.10,0.47 -2.13,0.21 -2.15,-0.04 -2.12,-0.30 -2.08,-0.55 -1.98,-0.79 -1.89,-1.04 -1.73,-1.25 -1.58,-1.46 -1.38,-1.63 -1.19,-1.80 -0.95,-1.91 -0.72,-2.03 -0.47,-2.09 -0.21,-2.14 0.04,-2.14 0.30,-2.13 0.55,-2.07 0.80,-2.00 1.03,-1.87 1.26,-1.75 1.45,-1.57 1.64,-1.39 1.78,-1.18 1.93,-0.96 1.93,-0.96 L 1.93,-0.96 Z"></path></g><g transform="translate(64 442.9999694824219) rotate(0 0.5 8)" stroke="none"><path fill="#1e1e1e" d="M 1.99,1.59 Q 1.99,1.59 0.77,2.98 -0.43,4.36 -1.21,5.32 -1.99,6.27 -2.84,7.43 -3.69,8.58 -4.38,9.48 -5.06,10.38 -5.59,11.46 -6.12,12.54 -4.35,12.13 -2.58,11.73 -0.47,10.70 1.63,9.67 3.17,8.39 4.72,7.11 5.86,5.99 7.00,4.87 5.51,4.54 4.02,4.20 2.66,4.40 1.29,4.59 0.59,4.95 -0.10,5.30 -0.43,5.70 -0.75,6.09 -1.18,6.36 -1.62,6.64 -2.11,6.75 -2.61,6.87 -3.12,6.83 -3.63,6.78 -4.09,6.58 -4.56,6.37 -4.94,6.03 -5.32,5.68 -5.56,5.23 -5.81,4.79 -5.90,4.29 -6.00,3.78 -5.92,3.28 -5.85,2.77 -5.62,2.32 -5.39,1.86 -5.02,1.50 -4.66,1.14 -4.20,0.92 -3.74,0.70 -3.23,0.63 -2.73,0.57 -2.23,0.67 -1.72,0.77 -1.28,1.02 -0.84,1.28 -0.50,1.66 -0.16,2.05 0.02,2.52 0.22,2.99 0.26,3.50 0.30,4.01 0.17,4.50 0.04,5.00 -0.23,5.43 -0.51,5.85 -0.91,6.17 -1.31,6.49 -1.79,6.66 -2.27,6.83 -2.78,6.84 -3.29,6.85 -3.78,6.70 -4.27,6.54 -4.68,6.24 -5.09,5.94 -5.39,5.52 -5.68,5.10 -5.83,4.61 -5.97,4.12 -5.95,3.61 -5.93,3.10 -5.75,2.62 -5.57,2.15 -5.57,2.15 -5.57,2.15 -3.00,0.36 -0.42,-1.42 1.99,-1.73 4.42,-2.05 6.31,-1.74 8.20,-1.43 9.52,-0.59 10.84,0.23 11.52,1.48 12.20,2.73 12.34,4.31 12.49,5.89 11.89,7.33 11.28,8.77 9.90,10.06 8.51,11.35 7.47,12.29 6.43,13.22 5.46,13.90 4.49,14.58 3.04,15.48 1.59,16.37 0.43,16.87 -0.72,17.36 -1.86,17.74 -2.99,18.13 -4.32,18.31 -5.65,18.49 -7.13,17.88 -8.61,17.26 -9.74,15.64 -10.87,14.01 -11.01,12.73 -11.15,11.44 -10.75,10.36 -10.35,9.28 -8.98,7.50 -7.62,5.73 -6.66,4.39 -5.71,3.06 -4.93,2.22 -4.16,1.38 -3.07,-0.10 -1.99,-1.59 -1.77,-1.81 -1.55,-2.02 -1.28,-2.18 -1.02,-2.34 -0.72,-2.42 -0.43,-2.51 -0.12,-2.53 0.18,-2.54 0.48,-2.48 0.78,-2.43 1.06,-2.30 1.34,-2.17 1.58,-1.98 1.82,-1.78 2.01,-1.54 2.19,-1.29 2.32,-1.01 2.44,-0.73 2.49,-0.43 2.55,-0.12 2.52,0.17 2.50,0.48 2.41,0.77 2.31,1.07 2.15,1.33 1.99,1.59 1.99,1.59 L 1.99,1.59 Z"></path></g><g transform="translate(88 418.9999694824219) rotate(0 4 9.5)" stroke="none"><path fill="#1e1e1e" d="M -1.12,-2.25 Q -1.12,-2.25 0.01,-2.84 1.16,-3.43 2.90,-3.98 4.63,-4.53 5.46,-4.60 6.29,-4.68 6.63,-4.70 6.97,-4.71 7.30,-4.65 7.63,-4.58 7.93,-4.44 8.24,-4.30 8.50,-4.08 8.76,-3.87 8.96,-3.61 9.17,-3.34 9.30,-3.03 9.43,-2.72 9.49,-2.39 9.54,-2.06 9.52,-1.72 9.49,-1.39 9.39,-1.07 9.28,-0.75 9.11,-0.46 8.93,-0.18 8.69,0.05 8.45,0.28 8.15,0.45 7.86,0.62 7.54,0.72 7.22,0.81 7.98,1.57 8.74,2.33 8.33,3.72 7.92,5.12 7.41,6.14 6.89,7.16 8.91,7.43 10.92,7.70 11.90,8.31 12.88,8.92 13.64,10.13 14.40,11.34 14.35,12.96 14.31,14.59 13.79,15.64 13.26,16.70 12.29,17.81 11.31,18.92 9.91,19.64 8.50,20.37 6.45,21.43 4.39,22.48 2.65,23.14 0.91,23.80 -2.71,22.46 -6.35,21.12 -6.58,20.67 -6.81,20.21 -6.89,19.71 -6.96,19.20 -6.88,18.70 -6.79,18.20 -6.54,17.75 -6.30,17.30 -5.92,16.96 -5.55,16.61 -5.08,16.40 -4.62,16.19 -4.11,16.15 -3.60,16.10 -3.10,16.21 -2.61,16.33 -2.17,16.60 -1.74,16.87 -1.41,17.26 -1.09,17.65 -0.90,18.13 -0.72,18.61 -0.70,19.12 -0.68,19.63 -0.82,20.12 -0.97,20.61 -1.26,21.02 -1.55,21.44 -1.96,21.75 -2.37,22.05 -2.86,22.21 -3.34,22.36 -3.85,22.36 -4.36,22.35 -4.84,22.18 -5.32,22.01 -5.73,21.70 -6.13,21.38 -6.41,20.96 -6.69,20.53 -6.82,20.04 -6.95,19.54 -6.92,19.03 -6.88,18.53 -6.69,18.05 -6.49,17.58 -6.16,17.20 -5.82,16.81 -5.38,16.56 -4.94,16.30 -4.44,16.20 -3.94,16.09 -3.43,16.15 -2.93,16.22 -2.47,16.44 -2.01,16.66 -1.64,17.01 -1.27,17.37 -1.28,17.37 -1.28,17.37 -0.38,17.52 0.50,17.68 2.04,17.05 3.58,16.43 4.84,15.50 6.10,14.57 6.97,13.74 7.84,12.91 6.28,12.54 4.73,12.17 3.27,11.40 1.82,10.64 1.39,9.64 0.97,8.65 1.70,6.60 2.42,4.55 3.16,3.16 3.90,1.77 5.10,-1.45 6.29,-4.68 6.63,-4.70 6.97,-4.71 7.30,-4.65 7.63,-4.58 7.93,-4.44 8.23,-4.30 8.50,-4.08 8.76,-3.87 8.96,-3.61 9.17,-3.34 9.30,-3.03 9.43,-2.72 9.49,-2.39 9.54,-2.06 9.52,-1.72 9.49,-1.39 9.39,-1.07 9.28,-0.75 9.11,-0.46 8.93,-0.18 8.69,0.05 8.45,0.28 8.16,0.45 7.86,0.62 7.54,0.72 7.22,0.81 5.33,0.97 3.43,1.13 2.28,1.69 1.12,2.25 0.84,2.35 0.55,2.46 0.25,2.49 -0.04,2.52 -0.35,2.48 -0.65,2.43 -0.93,2.32 -1.21,2.21 -1.46,2.03 -1.71,1.85 -1.90,1.62 -2.10,1.39 -2.24,1.12 -2.37,0.84 -2.44,0.55 -2.51,0.25 -2.50,-0.04 -2.49,-0.35 -2.41,-0.64 -2.34,-0.94 -2.19,-1.20 -2.04,-1.47 -1.84,-1.69 -1.63,-1.92 -1.38,-2.08 -1.12,-2.25 -1.12,-2.25 L -1.12,-2.25 Z"></path></g><g transform="translate(170 334.9999694824219) rotate(0 14 -1.5)" stroke="none"><path fill="#1e1e1e" d="M 0,-2.31 Q 0,-2.31 1.43,-2.33 2.87,-2.34 4.34,-2.35 5.82,-2.35 7.02,-2.39 8.22,-2.43 9.87,-2.39 11.53,-2.36 13.80,-2.83 16.07,-3.29 17.58,-3.57 19.10,-3.86 20.93,-4.20 22.76,-4.55 25.02,-4.91 27.28,-5.27 27.66,-5.25 28.04,-5.22 28.39,-5.08 28.74,-4.94 29.03,-4.70 29.31,-4.45 29.51,-4.13 29.70,-3.80 29.78,-3.43 29.86,-3.06 29.82,-2.69 29.78,-2.31 29.62,-1.97 29.46,-1.63 29.19,-1.36 28.93,-1.08 28.60,-0.91 28.27,-0.73 27.89,-0.67 27.52,-0.61 27.15,-0.67 26.78,-0.74 26.44,-0.92 26.11,-1.09 25.85,-1.37 25.59,-1.64 25.43,-1.99 25.28,-2.33 25.24,-2.71 25.20,-3.08 25.28,-3.45 25.36,-3.82 25.56,-4.14 25.76,-4.46 26.04,-4.71 26.33,-4.95 26.68,-5.09 27.04,-5.23 27.41,-5.25 27.79,-5.27 28.15,-5.16 28.52,-5.06 28.83,-4.85 29.14,-4.63 29.37,-4.33 29.59,-4.03 29.71,-3.67 29.83,-3.31 29.83,-2.94 29.83,-2.56 29.71,-2.20 29.59,-1.84 29.36,-1.55 29.13,-1.25 28.81,-1.03 28.50,-0.82 28.14,-0.72 27.77,-0.63 27.77,-0.63 27.77,-0.63 25.78,-0.39 23.79,-0.16 21.94,0.34 20.09,0.86 17.36,1.32 14.63,1.78 13.09,2.07 11.55,2.36 9.89,2.39 8.22,2.43 7.02,2.39 5.82,2.35 4.34,2.35 2.87,2.34 1.43,2.33 0,2.31 -0.27,2.28 -0.55,2.25 -0.81,2.15 -1.07,2.05 -1.30,1.89 -1.53,1.73 -1.72,1.52 -1.90,1.31 -2.03,1.06 -2.16,0.82 -2.23,0.55 -2.30,0.27 -2.30,-0.00 -2.30,-0.27 -2.23,-0.55 -2.16,-0.82 -2.03,-1.07 -1.90,-1.31 -1.72,-1.52 -1.53,-1.73 -1.30,-1.89 -1.07,-2.05 -0.81,-2.15 -0.55,-2.25 -0.27,-2.28 0.00,-2.31 0.00,-2.31 L 0,-2.31 Z"></path></g><g transform="translate(27 338.9999694824219) rotate(0 10.5 -3.5)" stroke="none"><path fill="#1e1e1e" d="M 1.78,1.19 Q 1.78,1.19 1.30,1.90 0.83,2.62 0.86,3.19 0.90,3.77 0.71,3.98 0.53,4.20 0.30,4.36 0.06,4.53 -0.19,4.64 -0.46,4.74 -0.74,4.78 -1.02,4.82 -1.30,4.79 -1.59,4.76 -1.86,4.66 -2.12,4.57 -2.36,4.41 -2.60,4.25 -2.79,4.04 -2.98,3.83 -3.12,3.58 -3.26,3.33 -3.33,3.05 -3.40,2.78 -3.41,2.49 -3.41,2.21 -3.35,1.93 -3.28,1.65 -3.16,1.39 -3.03,1.14 -1.73,0.51 -0.44,-0.12 3.83,-2.78 8.10,-5.44 10.30,-7.11 12.50,-8.78 14.39,-10.09 16.28,-11.40 17.26,-12.30 18.23,-13.19 19.22,-14.18 20.21,-15.17 20.41,-15.30 20.62,-15.43 20.85,-15.51 21.08,-15.58 21.32,-15.60 21.56,-15.62 21.80,-15.58 22.04,-15.54 22.27,-15.45 22.49,-15.35 22.69,-15.20 22.88,-15.06 23.03,-14.87 23.19,-14.68 23.29,-14.46 23.40,-14.24 23.44,-14.00 23.49,-13.76 23.48,-13.52 23.47,-13.28 23.41,-13.04 23.34,-12.81 23.22,-12.60 23.09,-12.39 22.92,-12.21 22.76,-12.04 22.26,-10.14 21.77,-8.23 21.36,-7.10 20.95,-5.96 20.42,-3.40 19.90,-0.85 19.78,0.29 19.67,1.44 19.90,3.13 20.14,4.82 20.71,5.04 21.29,5.25 21.69,5.43 22.10,5.60 22.43,5.89 22.76,6.18 22.98,6.57 23.21,6.95 23.29,7.38 23.38,7.82 23.32,8.25 23.27,8.69 23.07,9.09 22.88,9.49 22.57,9.80 22.26,10.12 21.87,10.32 21.47,10.52 21.03,10.58 20.60,10.64 20.16,10.56 19.73,10.48 19.34,10.27 18.95,10.06 18.66,9.73 18.36,9.40 18.18,9.00 18.00,8.59 17.96,8.15 17.92,7.71 18.03,7.28 18.13,6.85 18.36,6.48 18.60,6.10 18.94,5.82 19.28,5.54 19.70,5.39 20.11,5.23 20.55,5.22 21.00,5.20 21.42,5.33 21.84,5.45 22.20,5.71 22.56,5.96 22.83,6.32 23.09,6.68 23.22,7.10 23.35,7.52 23.34,7.96 23.34,8.41 23.19,8.82 23.04,9.24 22.76,9.58 22.49,9.93 22.12,10.17 21.75,10.41 21.32,10.52 20.89,10.63 20.45,10.60 20.01,10.57 20.01,10.57 20.01,10.57 17.90,9.36 15.79,8.16 15.44,7.11 15.09,6.07 14.83,4.65 14.57,3.23 14.68,2.03 14.79,0.82 14.99,-0.55 15.20,-1.93 15.52,-3.50 15.85,-5.08 16.15,-6.38 16.45,-7.69 17.51,-9.90 18.58,-12.12 19.39,-13.64 20.21,-15.17 20.41,-15.30 20.62,-15.43 20.85,-15.51 21.08,-15.58 21.32,-15.60 21.56,-15.62 21.80,-15.58 22.04,-15.54 22.27,-15.45 22.49,-15.35 22.69,-15.20 22.88,-15.06 23.03,-14.87 23.19,-14.68 23.29,-14.46 23.40,-14.24 23.44,-14.00 23.49,-13.76 23.48,-13.52 23.47,-13.28 23.41,-13.04 23.34,-12.81 23.22,-12.60 23.09,-12.39 22.92,-12.21 22.76,-12.04 21.69,-11.15 20.63,-10.25 19.50,-9.43 18.36,-8.60 16.63,-7.22 14.90,-5.83 12.65,-3.86 10.39,-1.89 5.65,0.94 0.90,3.77 0.71,3.98 0.53,4.20 0.30,4.36 0.06,4.53 -0.19,4.64 -0.46,4.74 -0.74,4.78 -1.02,4.82 -1.30,4.79 -1.59,4.76 -1.86,4.66 -2.12,4.57 -2.36,4.41 -2.60,4.25 -2.79,4.04 -2.98,3.83 -3.12,3.58 -3.26,3.33 -3.33,3.05 -3.40,2.78 -3.41,2.49 -3.41,2.21 -3.35,1.93 -3.28,1.65 -3.16,1.40 -3.03,1.14 -3.08,0.98 -3.13,0.82 -2.45,-0.18 -1.78,-1.19 -1.61,-1.38 -1.44,-1.58 -1.23,-1.73 -1.02,-1.88 -0.78,-1.98 -0.54,-2.07 -0.29,-2.11 -0.03,-2.14 0.22,-2.11 0.48,-2.09 0.72,-2.00 0.96,-1.91 1.18,-1.77 1.39,-1.62 1.57,-1.43 1.74,-1.24 1.87,-1.02 1.99,-0.79 2.06,-0.54 2.12,-0.29 2.13,-0.03 2.13,0.22 2.07,0.47 2.01,0.72 1.90,0.95 1.78,1.19 1.78,1.19 L 1.78,1.19 Z"></path></g><g transform="translate(72 321.9999694824219) rotate(0 0 11)" stroke="none"><path fill="#1e1e1e" d="M 2.02,1.21 Q 2.02,1.21 1.13,2.63 0.24,4.05 -1.09,6.04 -2.43,8.02 -3.59,9.95 -4.75,11.89 -5.10,12.97 -5.45,14.06 -5.89,15.18 -6.32,16.30 -6.16,17.74 -6.01,19.18 -4.61,18.94 -3.21,18.71 -1.23,17.74 0.75,16.77 2.72,15.40 4.69,14.03 5.30,13.13 5.91,12.22 4.54,12.15 3.17,12.07 1.03,12.06 -1.10,12.05 -1.47,11.99 -1.83,11.93 -2.17,11.79 -2.51,11.65 -2.80,11.43 -3.10,11.21 -3.33,10.93 -3.57,10.65 -3.73,10.31 -3.89,9.98 -3.96,9.62 -4.04,9.26 -4.03,8.90 -4.02,8.53 -3.92,8.17 -3.82,7.82 -3.64,7.50 -3.45,7.18 -3.20,6.91 -2.95,6.65 -2.64,6.45 -2.33,6.25 -1.98,6.13 -1.63,6.01 -1.27,5.98 -0.90,5.95 -0.72,5.96 -0.55,5.98 -0.08,6.13 0.38,6.28 0.78,6.58 1.18,6.87 1.46,7.27 1.74,7.68 1.88,8.15 2.02,8.63 2.00,9.12 1.98,9.61 1.80,10.07 1.62,10.54 1.31,10.92 0.99,11.30 0.57,11.56 0.15,11.82 -0.32,11.93 -0.80,12.04 -1.29,11.99 -1.78,11.95 -2.23,11.75 -2.68,11.54 -3.04,11.21 -3.41,10.87 -3.64,10.44 -3.88,10.01 -3.97,9.52 -4.05,9.04 -3.98,8.55 -3.91,8.06 -3.68,7.62 -3.45,7.18 -3.10,6.84 -2.75,6.49 -2.30,6.28 -1.86,6.07 -1.37,6.01 -0.88,5.95 -0.39,6.05 0.08,6.15 0.51,6.40 0.93,6.65 1.26,7.02 1.58,7.39 1.77,7.85 1.96,8.30 1.99,8.79 2.03,9.29 1.90,9.76 1.77,10.24 1.50,10.65 1.23,11.07 0.84,11.37 0.45,11.67 -0.00,11.84 -0.47,12.00 -0.79,12.02 -1.10,12.05 -1.47,11.99 -1.83,11.93 -2.17,11.79 -2.51,11.65 -2.80,11.43 -3.10,11.21 -3.33,10.93 -3.57,10.65 -3.73,10.31 -3.89,9.98 -3.96,9.62 -4.04,9.26 -4.03,8.90 -4.02,8.53 -3.92,8.17 -3.82,7.82 -3.64,7.50 -3.45,7.18 -3.20,6.91 -2.95,6.65 -2.64,6.45 -2.33,6.25 -1.98,6.13 -1.63,6.01 -1.27,5.98 -0.90,5.95 0.59,5.96 2.09,5.98 3.86,6.11 5.62,6.23 6.88,6.55 8.14,6.86 9.06,7.54 9.98,8.22 10.70,9.70 11.41,11.17 11.24,12.72 11.06,14.27 10.33,15.60 9.60,16.92 8.64,17.67 7.69,18.42 6.51,19.26 5.32,20.10 4.35,20.75 3.37,21.41 1.88,22.27 0.40,23.13 -0.84,23.56 -2.08,23.98 -4.53,23.99 -6.98,24.00 -8.19,23.26 -9.40,22.52 -9.99,21.42 -10.57,20.31 -10.73,19.04 -10.89,17.77 -10.56,16.16 -10.23,14.55 -9.70,13.55 -9.16,12.55 -8.58,11.34 -8.00,10.13 -6.96,8.02 -5.93,5.92 -4.81,3.80 -3.69,1.69 -2.86,0.23 -2.02,-1.21 -1.84,-1.43 -1.67,-1.66 -1.45,-1.83 -1.22,-2.01 -0.96,-2.13 -0.70,-2.24 -0.42,-2.30 -0.15,-2.35 0.13,-2.33 0.41,-2.32 0.68,-2.23 0.96,-2.15 1.20,-2.00 1.44,-1.86 1.65,-1.66 1.85,-1.46 2.00,-1.21 2.14,-0.97 2.23,-0.70 2.31,-0.43 2.33,-0.14 2.35,0.13 2.30,0.41 2.25,0.69 2.13,0.95 2.02,1.21 2.02,1.21 L 2.02,1.21 Z"></path></g><g transform="translate(101 307.9999694824219) rotate(0 2.5 6.5)" stroke="none"><path fill="#1e1e1e" d="M 2.18,0.87 Q 2.18,0.87 1.60,2.31 1.02,3.74 0.11,5.33 -0.79,6.92 -1.05,8.44 -1.31,9.95 0.72,10.13 2.77,10.30 5.48,9.96 8.20,9.63 8.59,9.66 8.98,9.69 9.34,9.84 9.71,10.00 10.00,10.26 10.29,10.52 10.48,10.87 10.68,11.21 10.75,11.59 10.82,11.98 10.77,12.37 10.72,12.76 10.54,13.11 10.37,13.46 10.09,13.74 9.81,14.01 9.46,14.19 9.11,14.36 8.72,14.42 8.33,14.47 7.95,14.39 7.56,14.32 7.22,14.13 6.88,13.93 6.62,13.64 6.35,13.35 6.20,12.99 6.04,12.63 6.01,12.24 5.98,11.85 6.08,11.47 6.17,11.08 6.38,10.75 6.59,10.42 6.90,10.18 7.20,9.93 7.57,9.80 7.94,9.66 8.33,9.65 8.73,9.64 9.10,9.75 9.48,9.87 9.80,10.10 10.11,10.33 10.34,10.65 10.57,10.97 10.69,11.34 10.80,11.72 10.79,12.11 10.78,12.50 10.65,12.87 10.51,13.24 10.26,13.54 10.02,13.85 9.69,14.06 9.36,14.27 8.98,14.37 8.60,14.46 8.60,14.46 8.60,14.46 5.50,14.71 2.40,14.95 -1.13,14.50 -4.68,14.04 -5.46,11.62 -6.24,9.19 -5.98,8.00 -5.72,6.80 -5.25,5.76 -4.78,4.71 -4.05,3.35 -3.32,2.00 -2.75,0.56 -2.18,-0.87 -2.04,-1.12 -1.91,-1.37 -1.72,-1.58 -1.52,-1.79 -1.29,-1.94 -1.05,-2.10 -0.78,-2.19 -0.52,-2.29 -0.23,-2.32 0.04,-2.35 0.32,-2.31 0.60,-2.27 0.86,-2.16 1.13,-2.06 1.36,-1.89 1.59,-1.73 1.77,-1.51 1.96,-1.30 2.08,-1.04 2.21,-0.79 2.27,-0.51 2.34,-0.24 2.33,0.04 2.33,0.32 2.25,0.60 2.18,0.87 2.18,0.87 L 2.18,0.87 Z"></path></g><g transform="translate(113 316.9999694824219) rotate(0 2.5 4.5)" stroke="none"><path fill="#1e1e1e" d="M 2.33,-1.16 Q 2.33,-1.16 2.89,-0.04 3.46,1.07 4.39,2.57 5.33,4.07 6.25,6.06 7.17,8.05 7.36,8.47 7.56,8.90 7.61,9.36 7.66,9.83 7.56,10.28 7.46,10.74 7.22,11.14 6.98,11.54 6.63,11.85 6.27,12.15 5.84,12.32 5.40,12.50 4.94,12.52 4.47,12.55 4.02,12.42 3.57,12.30 3.18,12.04 2.79,11.78 2.51,11.41 2.23,11.03 2.08,10.59 1.93,10.15 1.92,9.68 1.92,9.21 2.07,8.77 2.22,8.33 2.50,7.95 2.79,7.58 3.17,7.32 3.56,7.05 4.01,6.93 4.46,6.80 4.93,6.83 5.39,6.85 5.83,7.02 6.26,7.20 6.62,7.50 6.98,7.80 7.22,8.20 7.46,8.60 7.56,9.06 7.66,9.51 7.61,9.98 7.56,10.44 7.37,10.87 7.17,11.29 6.85,11.63 6.53,11.97 6.12,12.19 5.70,12.41 5.24,12.49 4.78,12.57 4.32,12.49 3.86,12.42 3.45,12.20 3.03,11.98 2.71,11.64 2.39,11.30 2.39,11.30 2.39,11.30 1.19,8.45 -0.00,5.61 -0.58,4.56 -1.16,3.52 -1.74,2.34 -2.33,1.16 -2.44,0.87 -2.54,0.57 -2.57,0.26 -2.61,-0.05 -2.56,-0.36 -2.52,-0.67 -2.40,-0.96 -2.28,-1.25 -2.10,-1.51 -1.91,-1.76 -1.68,-1.97 -1.44,-2.17 -1.15,-2.31 -0.87,-2.45 -0.57,-2.52 -0.26,-2.59 0.05,-2.59 0.36,-2.58 0.66,-2.50 0.97,-2.42 1.24,-2.27 1.52,-2.11 1.75,-1.90 1.98,-1.69 2.16,-1.42 2.33,-1.16 2.33,-1.16 L 2.33,-1.16 Z"></path></g><g transform="translate(10 216.99996948242188) rotate(0 10.5 -10)" stroke="none"><path fill="#1e1e1e" d="M -2.08,-1.04 Q -2.08,-1.04 -1.53,-2.20 -0.99,-3.37 -0.40,-4.32 0.17,-5.28 1.48,-6.43 2.79,-7.58 3.87,-8.92 4.95,-10.26 6.31,-11.43 7.67,-12.60 11.14,-15.19 14.62,-17.77 16.52,-18.74 18.41,-19.71 19.76,-19.53 21.10,-19.36 21.89,-18.60 22.68,-17.83 23.02,-16.60 23.36,-15.37 23.13,-13.99 22.90,-12.62 22.50,-10.59 22.09,-8.57 22.02,-7.19 21.94,-5.80 22.20,-4.23 22.46,-2.67 22.60,-2.21 22.74,-1.76 22.73,-1.28 22.72,-0.80 22.55,-0.35 22.39,0.09 22.09,0.46 21.79,0.83 21.39,1.09 20.99,1.35 20.52,1.46 20.06,1.58 19.59,1.54 19.11,1.50 18.67,1.31 18.23,1.13 17.88,0.81 17.52,0.49 17.29,0.08 17.05,-0.33 16.96,-0.80 16.87,-1.27 16.93,-1.74 17.00,-2.21 17.21,-2.64 17.42,-3.07 17.76,-3.41 18.09,-3.75 18.52,-3.96 18.95,-4.17 19.42,-4.24 19.89,-4.30 20.36,-4.21 20.83,-4.12 21.25,-3.89 21.66,-3.65 21.98,-3.30 22.30,-2.94 22.49,-2.51 22.68,-2.07 22.72,-1.59 22.76,-1.12 22.64,-0.65 22.53,-0.19 22.27,0.20 22.02,0.60 21.64,0.90 21.27,1.20 20.83,1.37 20.38,1.53 19.90,1.55 19.42,1.56 18.97,1.42 18.51,1.28 18.12,1.00 17.73,0.73 17.46,0.34 17.18,-0.04 17.18,-0.04 17.18,-0.04 16.65,-2.21 16.13,-4.37 16.28,-6.11 16.43,-7.85 16.95,-9.78 17.46,-11.71 17.63,-12.85 17.80,-13.99 18.58,-14.87 19.37,-15.74 18.42,-14.99 17.46,-14.23 14.24,-11.42 11.01,-8.61 10.13,-7.90 9.24,-7.19 7.61,-5.46 5.98,-3.74 4.63,-2.48 3.29,-1.22 2.68,-0.09 2.08,1.04 1.93,1.27 1.77,1.51 1.56,1.70 1.36,1.89 1.11,2.02 0.86,2.16 0.59,2.23 0.32,2.30 0.04,2.31 -0.23,2.32 -0.50,2.25 -0.78,2.19 -1.03,2.07 -1.28,1.94 -1.50,1.76 -1.71,1.58 -1.87,1.35 -2.04,1.12 -2.14,0.86 -2.25,0.60 -2.29,0.32 -2.33,0.04 -2.30,-0.23 -2.27,-0.51 -2.18,-0.77 -2.08,-1.04 -2.08,-1.04 L -2.08,-1.04 Z"></path></g><g transform="translate(54 199.99996948242188) rotate(0 4.5 8.5)" stroke="none"><path fill="#1e1e1e" d="M 1.95,1.56 Q 1.95,1.56 0.74,2.94 -0.46,4.33 -1.14,5.61 -1.82,6.88 -2.40,8.08 -2.99,9.27 -3.13,10.34 -3.27,11.41 -2.48,12.88 -1.69,14.34 -0.05,14.23 1.59,14.12 3.79,13.76 6.00,13.40 7.61,12.44 9.23,11.48 10.24,10.90 11.24,10.32 9.80,9.41 8.36,8.50 6.94,8.33 5.51,8.16 3.95,8.12 2.39,8.09 1.74,9.43 1.08,10.77 0.72,10.87 0.36,10.97 -0.01,10.98 -0.39,11.00 -0.76,10.92 -1.13,10.84 -1.47,10.67 -1.81,10.51 -2.10,10.27 -2.39,10.03 -2.62,9.72 -2.84,9.42 -2.99,9.07 -3.13,8.72 -3.19,8.35 -3.25,7.97 -3.21,7.59 -3.18,7.22 -3.06,6.86 -2.93,6.50 -2.73,6.19 -2.52,5.87 -2.25,5.61 -1.97,5.35 -1.64,5.16 -1.32,4.98 0.70,5.77 2.73,6.57 2.87,7.06 3.00,7.55 2.97,8.05 2.94,8.56 2.75,9.03 2.56,9.50 2.23,9.89 1.90,10.27 1.46,10.53 1.03,10.79 0.53,10.90 0.04,11.01 -0.46,10.95 -0.96,10.89 -1.42,10.68 -1.88,10.46 -2.25,10.11 -2.62,9.76 -2.85,9.31 -3.09,8.86 -3.17,8.36 -3.25,7.86 -3.16,7.36 -3.08,6.86 -2.84,6.41 -2.60,5.96 -2.23,5.62 -1.86,5.27 -1.40,5.06 -0.94,4.85 -0.43,4.79 0.06,4.74 0.56,4.85 1.05,4.96 1.49,5.23 1.92,5.49 2.25,5.88 2.57,6.27 2.76,6.74 2.95,7.21 2.97,7.72 3.00,8.23 2.86,8.71 2.72,9.20 2.43,9.62 2.15,10.04 1.74,10.34 1.34,10.65 0.85,10.81 0.37,10.97 -0.12,10.97 -0.63,10.97 -1.11,10.80 -1.59,10.64 -1.99,10.33 -2.40,10.02 -0.65,10.39 1.08,10.77 0.72,10.87 0.36,10.97 -0.01,10.98 -0.39,11.00 -0.76,10.92 -1.13,10.84 -1.47,10.67 -1.81,10.51 -2.10,10.27 -2.39,10.03 -2.62,9.72 -2.84,9.42 -2.99,9.07 -3.13,8.72 -3.19,8.35 -3.25,7.97 -3.21,7.60 -3.18,7.22 -3.06,6.86 -2.93,6.50 -2.73,6.19 -2.52,5.87 -2.25,5.61 -1.97,5.35 -1.64,5.16 -1.32,4.98 -0.76,3.84 -0.21,2.71 1.04,2.33 2.29,1.95 4.13,2.02 5.97,2.10 8.42,2.52 10.86,2.95 12.81,4.12 14.76,5.29 15.83,6.76 16.91,8.24 17.08,9.35 17.25,10.47 16.55,12.15 15.84,13.83 14.03,14.98 12.22,16.14 11.19,16.76 10.16,17.38 7.39,18.24 4.62,19.10 2.99,19.41 1.35,19.71 0.22,19.63 -0.90,19.56 -2.46,19.25 -4.02,18.95 -4.92,18.28 -5.81,17.61 -6.41,16.73 -7.01,15.85 -7.62,14.27 -8.24,12.69 -8.09,11.60 -7.94,10.52 -7.56,8.85 -7.18,7.17 -6.53,5.96 -5.87,4.75 -5.00,3.08 -4.13,1.41 -3.04,-0.07 -1.95,-1.56 -1.73,-1.77 -1.51,-1.98 -1.26,-2.13 -1.00,-2.28 -0.71,-2.37 -0.42,-2.46 -0.12,-2.47 0.17,-2.49 0.47,-2.43 0.76,-2.37 1.04,-2.25 1.31,-2.12 1.54,-1.93 1.78,-1.74 1.96,-1.50 2.15,-1.26 2.27,-0.99 2.39,-0.71 2.44,-0.42 2.49,-0.12 2.47,0.17 2.45,0.47 2.35,0.76 2.26,1.04 2.10,1.30 1.94,1.56 1.94,1.56 L 1.95,1.56 Z"></path></g><g transform="translate(175 208.99996948242188) rotate(0 6.5 -1.5)" stroke="none"><path fill="#1e1e1e" d="M 0,-2.46 Q 0,-2.46 1.15,-2.49 2.3,-2.52 3.62,-2.80 4.95,-3.07 6.12,-3.30 7.29,-3.53 9.13,-4.37 10.97,-5.21 11.41,-5.31 11.85,-5.41 12.31,-5.37 12.76,-5.32 13.18,-5.14 13.59,-4.95 13.93,-4.64 14.26,-4.33 14.48,-3.93 14.70,-3.53 14.78,-3.08 14.85,-2.63 14.78,-2.18 14.72,-1.73 14.51,-1.32 14.30,-0.92 13.97,-0.60 13.64,-0.28 13.23,-0.09 12.82,0.10 12.36,0.15 11.91,0.20 11.46,0.11 11.02,0.02 10.63,-0.20 10.23,-0.43 9.93,-0.78 9.63,-1.12 9.46,-1.55 9.29,-1.97 9.26,-2.42 9.23,-2.88 9.35,-3.32 9.47,-3.76 9.72,-4.14 9.97,-4.52 10.33,-4.80 10.69,-5.08 11.12,-5.23 11.55,-5.38 12.01,-5.38 12.46,-5.39 12.90,-5.25 13.33,-5.10 13.70,-4.83 14.06,-4.56 14.32,-4.18 14.58,-3.81 14.71,-3.37 14.83,-2.93 14.81,-2.48 14.79,-2.02 14.63,-1.60 14.46,-1.17 14.17,-0.82 13.88,-0.47 13.49,-0.23 13.10,0.00 13.10,0.00 13.11,0.00 9.98,0.96 6.86,1.92 5.67,2.25 4.49,2.58 3.39,2.55 2.3,2.52 1.15,2.49 0,2.46 -0.29,2.42 -0.58,2.39 -0.86,2.28 -1.14,2.17 -1.38,2.01 -1.63,1.84 -1.82,1.62 -2.02,1.39 -2.16,1.13 -2.30,0.87 -2.37,0.58 -2.44,0.29 -2.44,-0.00 -2.44,-0.29 -2.37,-0.58 -2.30,-0.87 -2.16,-1.13 -2.02,-1.39 -1.82,-1.62 -1.63,-1.84 -1.38,-2.01 -1.14,-2.17 -0.86,-2.28 -0.58,-2.39 -0.29,-2.42 0.00,-2.46 0.00,-2.46 L 0,-2.46 Z"></path></g><g transform="translate(109 194.99996948242188) rotate(0 5 7.5)" stroke="none"><path fill="#1e1e1e" d="M 2.58,-0.64 Q 2.58,-0.64 2.75,0.31 2.92,1.26 4.40,1.58 5.88,1.89 7.77,2.33 9.66,2.76 11.80,3.41 13.94,4.06 14.68,5.00 15.42,5.93 15.65,7.03 15.89,8.12 15.54,9.43 15.19,10.74 14.29,11.83 13.39,12.92 11.20,14.45 9.02,15.98 6.86,16.67 4.70,17.36 0.74,17.28 -3.21,17.20 -3.67,16.99 -4.13,16.78 -4.51,16.43 -4.88,16.09 -5.12,15.64 -5.37,15.19 -5.45,14.69 -5.54,14.19 -5.46,13.68 -5.38,13.18 -5.15,12.73 -4.92,12.27 -4.55,11.92 -4.18,11.57 -3.72,11.35 -3.26,11.13 -2.75,11.07 -2.25,11.01 -1.75,11.12 -1.25,11.22 -0.81,11.48 -0.37,11.74 -0.04,12.12 0.28,12.51 0.48,12.98 0.67,13.45 0.70,13.96 0.73,14.47 0.60,14.96 0.47,15.45 0.19,15.88 -0.08,16.30 -0.49,16.61 -0.89,16.93 -1.37,17.09 -1.85,17.26 -2.36,17.27 -2.87,17.27 -3.36,17.11 -3.84,16.95 -4.25,16.65 -4.66,16.34 -4.95,15.92 -5.24,15.50 -5.38,15.01 -5.52,14.53 -5.50,14.02 -5.47,13.51 -5.29,13.03 -5.10,12.56 -4.78,12.17 -4.45,11.77 -4.02,11.51 -3.58,11.24 -3.09,11.13 -2.59,11.01 -2.08,11.06 -1.57,11.11 -1.57,11.11 -1.58,11.11 0.60,11.30 2.79,11.49 4.52,10.94 6.25,10.38 7.43,9.57 8.61,8.76 9.67,8.82 10.73,8.89 9.20,8.58 7.67,8.27 6.25,7.87 4.83,7.47 2.60,6.50 0.38,5.53 -0.69,4.43 -1.77,3.33 -2.17,1.98 -2.58,0.64 -2.62,0.32 -2.66,0.00 -2.62,-0.30 -2.58,-0.62 -2.47,-0.92 -2.36,-1.22 -2.18,-1.49 -1.99,-1.75 -1.75,-1.97 -1.51,-2.18 -1.23,-2.33 -0.95,-2.48 -0.64,-2.56 -0.32,-2.64 -0.00,-2.64 0.31,-2.64 0.62,-2.56 0.93,-2.49 1.22,-2.34 1.50,-2.19 1.74,-1.98 1.98,-1.77 2.17,-1.50 2.35,-1.24 2.46,-0.94 2.58,-0.64 2.58,-0.64 L 2.58,-0.64 Z"></path></g><g transform="translate(109 188.99996948242188) rotate(0 10.5 -1)" stroke="none"><path fill="#1e1e1e" d="M 0,-2.11 Q 0,-2.11 2.58,-2.00 5.17,-1.90 7.61,-2.10 10.05,-2.30 11.73,-2.47 13.42,-2.63 15.17,-2.95 16.93,-3.27 18.50,-3.55 20.06,-3.83 20.38,-3.82 20.69,-3.81 20.98,-3.70 21.28,-3.59 21.52,-3.40 21.77,-3.20 21.94,-2.93 22.11,-2.67 22.18,-2.36 22.26,-2.06 22.23,-1.74 22.21,-1.43 22.08,-1.14 21.96,-0.85 21.74,-0.62 21.53,-0.39 21.26,-0.23 20.99,-0.08 20.68,-0.02 20.37,0.03 20.06,-0.00 19.75,-0.05 19.46,-0.19 19.18,-0.33 18.96,-0.55 18.74,-0.77 18.60,-1.06 18.46,-1.34 18.42,-1.65 18.38,-1.96 18.44,-2.27 18.50,-2.58 18.65,-2.85 18.81,-3.13 19.04,-3.34 19.28,-3.54 19.57,-3.67 19.85,-3.79 20.17,-3.82 20.48,-3.84 20.79,-3.76 21.09,-3.69 21.36,-3.52 21.62,-3.35 21.82,-3.10 22.01,-2.86 22.12,-2.56 22.23,-2.27 22.24,-1.95 22.25,-1.64 22.15,-1.34 22.06,-1.04 21.88,-0.78 21.69,-0.53 21.44,-0.34 21.18,-0.16 20.88,-0.07 20.58,0.01 20.58,0.01 20.58,0.01 19.08,0.14 17.58,0.27 15.63,0.63 13.69,1.00 12.06,1.07 10.44,1.15 7.81,1.53 5.17,1.90 2.58,2.00 0,2.11 -0.25,2.08 -0.50,2.05 -0.74,1.96 -0.98,1.87 -1.19,1.72 -1.40,1.58 -1.57,1.39 -1.74,1.20 -1.85,0.97 -1.97,0.74 -2.03,0.50 -2.09,0.25 -2.09,-0.00 -2.09,-0.25 -2.03,-0.50 -1.97,-0.75 -1.85,-0.97 -1.74,-1.20 -1.57,-1.39 -1.40,-1.58 -1.19,-1.72 -0.98,-1.87 -0.74,-1.96 -0.50,-2.05 -0.25,-2.08 0.00,-2.11 0.00,-2.11 L 0,-2.11 Z"></path></g><g transform="translate(186 275.9999694824219) rotate(0 56.5 -4)" stroke="none"><path fill="#1e1e1e" d="M -0.45,-2.29 Q -0.45,-2.29 0.97,-2.59 2.41,-2.88 3.70,-3.06 4.99,-3.24 7.08,-3.39 9.18,-3.55 10.27,-3.58 11.36,-3.62 12.76,-3.84 14.16,-4.06 15.52,-4.22 16.88,-4.37 18.95,-4.31 21.02,-4.25 22.44,-4.29 23.87,-4.33 26.21,-4.20 28.55,-4.07 32.13,-3.97 35.71,-3.87 38.28,-4.08 40.86,-4.29 42.90,-4.39 44.94,-4.49 47.84,-4.49 50.74,-4.50 53.11,-4.48 55.48,-4.47 58.44,-4.74 61.39,-5.00 63.57,-5.11 65.74,-5.22 68.63,-5.55 71.51,-5.87 73.56,-6.28 75.61,-6.70 78.32,-6.88 81.03,-7.07 82.92,-7.45 84.82,-7.83 87.18,-7.98 89.53,-8.13 90.95,-8.56 92.37,-8.99 93.97,-9.24 95.58,-9.48 97.54,-9.76 99.50,-10.04 101.32,-9.79 103.14,-9.54 104.25,-9.60 105.36,-9.66 107.51,-9.29 109.65,-8.91 111.37,-8.43 113.08,-7.96 113.54,-7.82 113.99,-7.69 114.38,-7.41 114.77,-7.14 115.06,-6.75 115.34,-6.37 115.49,-5.92 115.63,-5.46 115.62,-4.98 115.62,-4.51 115.46,-4.06 115.30,-3.61 115.00,-3.23 114.71,-2.86 114.31,-2.60 113.91,-2.33 113.45,-2.21 112.99,-2.09 112.51,-2.13 112.03,-2.16 111.59,-2.34 111.15,-2.53 110.79,-2.84 110.44,-3.16 110.20,-3.57 109.96,-3.98 109.86,-4.45 109.77,-4.92 109.83,-5.39 109.89,-5.86 110.09,-6.29 110.30,-6.72 110.63,-7.06 110.97,-7.41 111.39,-7.62 111.82,-7.84 112.29,-7.91 112.76,-7.98 113.23,-7.89 113.70,-7.81 114.12,-7.58 114.54,-7.35 114.86,-7.00 115.18,-6.65 115.37,-6.21 115.57,-5.77 115.61,-5.30 115.65,-4.82 115.54,-4.36 115.43,-3.89 115.18,-3.49 114.93,-3.09 114.56,-2.78 114.19,-2.48 113.75,-2.31 113.30,-2.14 112.82,-2.12 112.35,-2.10 112.35,-2.10 112.35,-2.10 110.46,-2.72 108.56,-3.34 106.85,-3.87 105.13,-4.39 103.90,-4.58 102.67,-4.77 101.14,-5.32 99.62,-5.87 97.77,-5.97 95.92,-6.07 94.49,-6.01 93.06,-5.95 91.39,-5.67 89.72,-5.40 87.53,-5.24 85.33,-5.08 83.27,-4.73 81.22,-4.37 78.69,-4.20 76.16,-4.02 73.99,-3.56 71.83,-3.11 68.87,-2.75 65.91,-2.40 63.79,-2.25 61.68,-2.11 58.59,-1.78 55.51,-1.45 53.15,-1.40 50.79,-1.34 47.97,-1.24 45.15,-1.14 43.19,-0.99 41.23,-0.85 38.47,-0.48 35.71,-0.11 32.14,-0.00 28.57,0.10 26.25,0.25 23.94,0.39 22.54,0.40 21.14,0.41 19.26,0.57 17.38,0.74 16.22,0.83 15.07,0.93 13.24,1.29 11.42,1.65 10.35,1.63 9.27,1.61 7.38,1.60 5.49,1.60 4.41,1.67 3.33,1.73 1.89,2.01 0.45,2.29 0.17,2.31 -0.10,2.34 -0.38,2.29 -0.66,2.24 -0.92,2.13 -1.17,2.02 -1.40,1.85 -1.63,1.68 -1.80,1.46 -1.98,1.24 -2.10,0.98 -2.22,0.73 -2.28,0.45 -2.33,0.17 -2.32,-0.10 -2.31,-0.38 -2.23,-0.65 -2.15,-0.92 -2.01,-1.17 -1.86,-1.41 -1.67,-1.61 -1.47,-1.82 -1.23,-1.97 -0.99,-2.12 -0.72,-2.20 -0.45,-2.29 -0.45,-2.29 L -0.45,-2.29 Z"></path></g><g transform="translate(303 279.9999694824219) rotate(0 1 130)" stroke="none"><path fill="#1e1e1e" d="M 2.10,0.42 Q 2.10,0.42 1.84,1.86 1.58,3.30 1.55,5.01 1.51,6.72 1.19,8.21 0.86,9.70 0.72,11.19 0.57,12.68 0.54,13.94 0.52,15.19 0.50,16.57 0.48,17.95 0.35,19.97 0.22,21.99 0.95,32.26 1.69,42.53 1.97,48.97 2.25,55.41 2.34,59.31 2.43,63.20 2.45,66.88 2.47,70.56 2.46,73.27 2.45,75.98 2.47,78.00 2.48,80.01 2.46,82.88 2.44,85.75 2.43,87.84 2.43,89.92 2.41,92.81 2.40,95.71 2.39,97.81 2.39,99.90 2.66,102.44 2.93,104.98 3.08,106.98 3.24,108.99 3.27,111.87 3.31,114.75 3.33,116.83 3.36,118.91 3.64,121.45 3.92,123.99 4.04,126.28 4.16,128.58 4.21,131.29 4.26,134.00 4.58,135.91 4.90,137.82 5.11,139.58 5.32,141.34 5.35,143.84 5.38,146.33 5.43,148.25 5.49,150.16 5.18,152.78 4.86,155.41 4.77,157.31 4.68,159.22 4.60,161.74 4.53,164.26 4.58,165.91 4.63,167.56 4.58,169.70 4.53,171.83 4.57,173.61 4.62,175.38 4.58,177.57 4.53,179.76 4.62,181.26 4.70,182.77 4.72,184.56 4.74,186.35 4.79,187.97 4.83,189.60 4.83,191.44 4.83,193.28 4.90,194.63 4.97,195.99 4.97,197.72 4.97,199.44 5.00,201.04 5.02,202.64 5.00,204.46 4.98,206.29 5.03,207.64 5.09,209.00 5.15,210.15 5.22,211.30 5.21,212.93 5.20,214.57 5.24,215.85 5.29,217.12 4.95,219.00 4.62,220.87 4.55,222.09 4.48,223.30 4.40,224.93 4.32,226.55 4.34,227.83 4.35,229.11 4.62,230.28 4.89,231.45 5.07,232.73 5.24,234.01 5.33,235.15 5.43,236.29 5.53,238.26 5.63,240.23 5.35,242.35 5.07,244.47 5.00,246.08 4.93,247.69 4.93,249.62 4.93,251.55 4.60,253.59 4.27,255.63 4.16,257.69 4.06,259.75 3.96,260.23 3.86,260.71 3.61,261.14 3.37,261.57 2.99,261.89 2.62,262.22 2.17,262.41 1.71,262.60 1.22,262.63 0.73,262.67 0.25,262.54 -0.22,262.42 -0.63,262.15 -1.04,261.88 -1.35,261.49 -1.65,261.10 -1.82,260.64 -1.98,260.17 -1.99,259.68 -2.00,259.18 -1.85,258.71 -1.70,258.24 -1.41,257.85 -1.11,257.45 -0.71,257.17 -0.31,256.88 0.16,256.74 0.63,256.60 1.12,256.62 1.62,256.64 2.08,256.82 2.54,256.99 2.92,257.31 3.30,257.62 3.56,258.04 3.82,258.46 3.94,258.94 4.05,259.42 4.01,259.91 3.96,260.40 3.76,260.85 3.56,261.30 3.23,261.67 2.89,262.03 2.46,262.27 2.03,262.51 1.54,262.59 1.06,262.68 0.57,262.61 0.08,262.54 -0.35,262.31 -0.79,262.09 -1.13,261.73 -1.48,261.38 -1.69,260.94 -1.91,260.49 -1.97,260.00 -2.03,259.51 -2.03,259.51 -2.03,259.51 -1.92,257.86 -1.80,256.21 -1.61,254.99 -1.42,253.77 -1.16,252.63 -0.90,251.49 -0.84,249.44 -0.78,247.39 -0.70,246.31 -0.62,245.22 -0.42,244.02 -0.23,242.82 0.05,241.55 0.34,240.27 0.35,239.12 0.36,237.97 0.38,236.23 0.40,234.50 0.34,233.43 0.28,232.36 -0.00,230.70 -0.29,229.05 -0.23,227.73 -0.17,226.41 -0.14,224.64 -0.11,222.87 0.05,221.49 0.22,220.12 0.46,218.62 0.70,217.11 0.75,215.84 0.79,214.57 0.78,212.93 0.77,211.30 0.84,210.15 0.90,209.00 0.96,207.64 1.01,206.29 0.99,204.46 0.97,202.64 0.99,201.04 1.02,199.44 1.02,197.72 1.02,195.99 1.09,194.63 1.16,193.28 1.16,191.44 1.16,189.60 1.20,187.97 1.25,186.35 1.27,184.56 1.29,182.77 1.38,181.26 1.46,179.75 1.42,177.56 1.38,175.37 1.43,173.60 1.48,171.82 1.45,169.67 1.42,167.52 1.52,165.86 1.61,164.20 1.64,161.62 1.66,159.04 1.80,157.06 1.95,155.09 2.19,152.64 2.43,150.20 2.44,148.30 2.44,146.40 2.36,143.99 2.28,141.58 2.22,139.91 2.17,138.24 1.87,136.15 1.57,134.06 1.51,131.39 1.45,128.73 1.32,126.52 1.19,124.30 0.88,121.62 0.57,118.94 0.55,116.87 0.53,114.81 0.46,111.99 0.39,109.17 0.30,107.22 0.21,105.28 -0.09,102.59 -0.39,99.90 -0.39,97.81 -0.40,95.71 -0.42,92.82 -0.43,89.92 -0.44,87.84 -0.45,85.76 -0.48,82.89 -0.52,80.03 -0.53,78.02 -0.54,76.01 -0.60,73.31 -0.66,70.61 -0.77,66.97 -0.89,63.33 -1.11,59.47 -1.33,55.62 -1.78,49.23 -2.23,42.85 -3.21,32.41 -4.19,21.97 -4.30,19.92 -4.41,17.87 -4.38,16.42 -4.35,14.98 -4.27,13.65 -4.18,12.31 -4.07,10.42 -3.95,8.54 -3.65,7.49 -3.36,6.44 -3.04,4.44 -2.73,2.44 -2.42,1.01 -2.10,-0.42 -2.02,-0.66 -1.94,-0.91 -1.80,-1.13 -1.67,-1.35 -1.48,-1.53 -1.29,-1.71 -1.07,-1.84 -0.85,-1.97 -0.60,-2.04 -0.35,-2.12 -0.09,-2.13 0.16,-2.14 0.41,-2.09 0.67,-2.04 0.90,-1.93 1.14,-1.82 1.34,-1.65 1.54,-1.49 1.70,-1.28 1.85,-1.08 1.96,-0.84 2.06,-0.60 2.10,-0.35 2.14,-0.09 2.12,0.16 2.10,0.42 2.10,0.42 L 2.10,0.42 Z"></path></g><g transform="translate(100 260.9999694824219) rotate(0 4.5 10)" stroke="none"><path fill="#1e1e1e" d="M 1.17,1.75 Q 1.17,1.75 0.46,2.22 -0.24,2.69 -0.35,4.88 -0.46,7.06 -0.20,10.04 0.06,13.01 0.35,14.55 0.64,16.09 0.68,18.39 0.73,20.68 0.83,22.20 0.93,23.71 0.95,25.52 0.96,27.33 1.03,28.67 1.09,30.01 1.13,31.44 1.17,32.88 0.85,35.00 0.53,37.13 -1.49,37.79 -3.51,38.45 -4.65,37.35 -5.79,36.26 -6.81,34.08 -7.84,31.91 -8.08,30.21 -8.31,28.51 -8.51,26.16 -8.72,23.82 -8.76,21.57 -8.80,19.31 -8.48,16.25 -8.16,13.18 -8.00,11.10 -7.84,9.03 -7.16,6.26 -6.47,3.50 -5.89,1.50 -5.31,-0.49 -4.45,-2.81 -3.60,-5.13 -2.66,-6.83 -1.72,-8.53 -0.40,-10.36 0.90,-12.19 1.66,-13.34 2.43,-14.49 3.99,-16.15 5.55,-17.81 6.56,-18.25 7.56,-18.70 8.86,-18.49 10.15,-18.28 10.94,-17.52 11.73,-16.75 12.04,-15.22 12.36,-13.70 12.12,-12.29 11.88,-10.87 11.45,-9.30 11.01,-7.72 10.53,-6.35 10.05,-4.97 9.13,-3.03 8.21,-1.09 7.56,0.56 6.92,2.21 5.97,4.12 5.03,6.03 4.41,7.43 3.79,8.84 2.90,10.56 2.00,12.29 1.76,13.44 1.52,14.60 1.44,15.84 1.35,17.08 2.15,18.15 2.95,19.22 4.24,20.06 5.53,20.90 6.76,21.03 7.98,21.16 9.12,21.20 10.25,21.23 12.75,21.19 15.25,21.15 15.71,21.23 16.16,21.30 16.57,21.52 16.97,21.74 17.28,22.08 17.60,22.41 17.79,22.83 17.98,23.25 18.02,23.71 18.07,24.16 17.97,24.61 17.87,25.06 17.63,25.45 17.39,25.84 17.04,26.14 16.68,26.43 16.26,26.60 15.83,26.77 15.37,26.79 14.91,26.81 14.47,26.69 14.02,26.56 13.65,26.30 13.27,26.04 12.99,25.67 12.72,25.30 12.57,24.87 12.43,24.43 12.43,23.97 12.43,23.51 12.58,23.08 12.73,22.64 13.01,22.28 13.30,21.91 13.68,21.66 14.06,21.40 14.50,21.28 14.95,21.16 15.41,21.19 15.87,21.22 16.29,21.39 16.72,21.57 17.07,21.87 17.41,22.17 17.65,22.56 17.88,22.96 17.98,23.41 18.07,23.86 18.02,24.31 17.97,24.77 17.77,25.18 17.58,25.60 17.26,25.93 16.94,26.26 16.53,26.48 16.12,26.69 15.67,26.76 15.22,26.83 15.22,26.83 15.22,26.83 12.64,26.73 10.06,26.63 8.71,26.57 7.36,26.52 5.27,25.94 3.19,25.37 1.13,23.66 -0.93,21.95 -1.72,20.62 -2.52,19.28 -2.71,18.00 -2.90,16.71 -2.68,15.11 -2.45,13.51 -1.97,12.05 -1.49,10.58 -0.69,8.84 0.10,7.10 0.77,5.76 1.44,4.43 2.16,2.59 2.88,0.75 3.47,-0.97 4.05,-2.71 4.67,-4.71 5.28,-6.70 5.71,-7.82 6.13,-8.93 6.48,-10.52 6.83,-12.10 7.38,-13.25 7.94,-14.40 6.54,-13.39 5.14,-12.38 4.26,-11.42 3.39,-10.46 2.19,-8.68 1.00,-6.90 0.10,-5.51 -0.78,-4.12 -1.54,-1.89 -2.30,0.33 -2.82,2.28 -3.34,4.23 -3.88,6.71 -4.42,9.19 -4.45,11.32 -4.48,13.46 -4.60,16.24 -4.72,19.02 -4.45,21.06 -4.17,23.10 -3.63,25.44 -3.08,27.78 -2.62,29.98 -2.15,32.17 -1.71,33.44 -1.27,34.70 -2.23,33.79 -3.18,32.89 -3.15,31.47 -3.12,30.04 -3.08,28.71 -3.03,27.39 -3.07,25.63 -3.11,23.87 -3.12,22.40 -3.14,20.93 -3.37,18.92 -3.61,16.91 -3.97,15.07 -4.34,13.23 -4.51,11.45 -4.68,9.66 -4.87,8.14 -5.07,6.63 -4.87,4.99 -4.67,3.36 -3.94,1.48 -3.20,-0.39 -2.19,-1.07 -1.17,-1.75 -0.94,-1.87 -0.71,-1.98 -0.46,-2.04 -0.22,-2.10 0.03,-2.09 0.28,-2.09 0.53,-2.03 0.78,-1.96 1.00,-1.84 1.22,-1.72 1.41,-1.54 1.60,-1.37 1.74,-1.16 1.88,-0.95 1.97,-0.71 2.06,-0.47 2.08,-0.21 2.11,0.03 2.07,0.28 2.04,0.53 1.95,0.77 1.85,1.01 1.70,1.22 1.56,1.42 1.36,1.59 1.17,1.75 1.17,1.75 L 1.17,1.75 Z"></path></g><g transform="translate(132 272.9999694824219) rotate(0 1.5 8.5)" stroke="none"><path fill="#1e1e1e" d="M 2.18,1.09 Q 2.18,1.09 1.63,2.24 1.07,3.39 0.55,5.59 0.03,7.78 0.08,9.10 0.13,10.42 1.48,11.60 2.83,12.79 3.47,11.42 4.10,10.05 2.91,9.60 1.72,9.14 0.03,10.23 -1.65,11.31 -2.13,11.50 -2.61,11.68 -3.12,11.70 -3.64,11.72 -4.13,11.57 -4.63,11.42 -5.05,11.13 -5.47,10.83 -5.77,10.42 -6.08,10.00 -6.23,9.51 -6.39,9.02 -6.38,8.51 -6.37,7.99 -6.20,7.51 -6.03,7.02 -5.71,6.62 -5.39,6.21 -4.96,5.93 -4.53,5.65 -4.03,5.52 -3.53,5.39 -3.02,5.43 -2.50,5.46 -2.03,5.66 -1.55,5.86 -1.17,6.20 -0.78,6.54 -0.52,6.99 -0.27,7.43 -0.16,7.94 -0.06,8.44 -0.13,8.95 -0.19,9.46 -0.41,9.93 -0.64,10.39 -1.00,10.76 -1.36,11.13 -1.82,11.36 -2.28,11.59 -2.79,11.67 -3.30,11.74 -3.80,11.65 -4.31,11.56 -4.76,11.31 -5.21,11.06 -5.56,10.68 -5.91,10.30 -6.11,9.83 -6.32,9.36 -6.37,8.84 -6.42,8.33 -6.30,7.83 -6.18,7.33 -5.90,6.89 -5.63,6.46 -5.23,6.13 -4.84,5.80 -4.84,5.80 -4.84,5.80 -2.86,4.71 -0.88,3.62 1.06,3.30 3.01,2.98 4.47,3.24 5.93,3.51 7.47,5.08 9.01,6.65 9.29,8.67 9.56,10.69 9.38,11.85 9.19,13.01 8.62,14.31 8.05,15.61 6.81,16.55 5.57,17.49 4.14,17.56 2.70,17.63 1.24,16.95 -0.20,16.26 -2.49,14.11 -4.77,11.96 -4.82,9.14 -4.87,6.32 -4.50,5.09 -4.13,3.85 -3.75,2.52 -3.37,1.20 -2.78,0.05 -2.18,-1.09 -2.02,-1.33 -1.86,-1.58 -1.64,-1.78 -1.42,-1.98 -1.16,-2.12 -0.91,-2.26 -0.62,-2.34 -0.34,-2.42 -0.04,-2.42 0.24,-2.43 0.53,-2.36 0.82,-2.30 1.08,-2.17 1.34,-2.03 1.57,-1.84 1.79,-1.65 1.96,-1.41 2.14,-1.17 2.25,-0.90 2.36,-0.63 2.40,-0.33 2.44,-0.04 2.41,0.24 2.38,0.53 2.28,0.81 2.18,1.09 2.18,1.09 L 2.18,1.09 Z"></path></g><g transform="translate(284 568.9999694824219) rotate(0 6.5 10.000030517578125)" stroke="none"><path fill="#1e1e1e" d="M -1.44,-1.92 Q -1.44,-1.92 -0.29,-2.79 0.85,-3.66 2.13,-4.21 3.41,-4.75 4.66,-4.46 5.91,-4.16 6.59,-3.31 7.27,-2.45 7.25,0.72 7.23,3.90 7.27,5.36 7.30,6.81 7.08,9.26 6.85,11.70 6.38,13.83 5.92,15.95 5.51,17.39 5.09,18.82 6.11,19.35 7.14,19.89 9.15,19.09 11.16,18.29 11.66,18.13 12.17,17.98 12.69,17.99 13.21,18.01 13.70,18.19 14.20,18.37 14.61,18.70 15.01,19.02 15.30,19.47 15.58,19.91 15.71,20.42 15.83,20.92 15.79,21.45 15.75,21.97 15.54,22.45 15.33,22.93 14.98,23.32 14.63,23.71 14.18,23.97 13.72,24.23 13.21,24.33 12.69,24.43 12.17,24.36 11.65,24.29 11.19,24.05 10.72,23.82 10.35,23.45 9.97,23.08 9.74,22.61 9.51,22.14 9.44,21.62 9.37,21.10 9.46,20.59 9.56,20.07 9.82,19.62 10.08,19.16 10.47,18.81 10.86,18.46 11.34,18.25 11.82,18.05 12.34,18.00 12.87,17.96 13.37,18.09 13.88,18.21 14.32,18.50 14.77,18.78 15.09,19.19 15.42,19.59 15.60,20.09 15.78,20.58 15.80,21.10 15.81,21.63 15.66,22.13 15.51,22.63 15.20,23.05 14.90,23.48 14.47,23.78 14.04,24.09 14.04,24.09 14.04,24.09 11.91,24.64 9.78,25.19 7.89,25.60 5.99,26.02 4.46,25.65 2.92,25.28 2.00,24.58 1.09,23.89 0.50,22.90 -0.07,21.92 -0.32,20.62 -0.57,19.32 -0.00,17.39 0.55,15.46 1.09,14.25 1.63,13.05 1.80,11.82 1.98,10.60 2.29,8.75 2.61,6.89 2.60,5.45 2.59,4.00 3.16,2.11 3.74,0.21 2.59,1.07 1.44,1.92 1.19,2.07 0.94,2.21 0.66,2.29 0.38,2.37 0.09,2.38 -0.19,2.40 -0.48,2.34 -0.76,2.28 -1.02,2.15 -1.28,2.03 -1.51,1.85 -1.73,1.66 -1.91,1.43 -2.08,1.20 -2.20,0.93 -2.31,0.66 -2.36,0.38 -2.40,0.09 -2.38,-0.19 -2.36,-0.48 -2.26,-0.75 -2.17,-1.03 -2.02,-1.28 -1.86,-1.52 -1.65,-1.72 -1.44,-1.92 -1.44,-1.92 L -1.44,-1.92 Z"></path></g><g transform="translate(313 575.9999694824219) rotate(0 2.5 5)" stroke="none"><path fill="#1e1e1e" d="M 2.25,1.35 Q 2.25,1.35 1.34,2.75 0.43,4.16 0.13,5.39 -0.15,6.61 1.52,6.33 3.20,6.04 3.97,4.57 4.74,3.09 1.39,2.40 -1.96,1.70 -2.31,1.29 -2.66,0.88 -2.87,0.38 -3.07,-0.11 -3.10,-0.65 -3.13,-1.19 -2.99,-1.71 -2.85,-2.23 -2.55,-2.68 -2.25,-3.13 -1.82,-3.45 -1.39,-3.78 -0.88,-3.96 -0.37,-4.13 0.16,-4.14 0.70,-4.14 1.21,-3.97 1.72,-3.80 2.15,-3.48 2.58,-3.15 2.89,-2.71 3.19,-2.26 3.34,-1.74 3.49,-1.22 3.46,-0.68 3.43,-0.15 3.24,0.35 3.04,0.85 2.69,1.26 2.35,1.68 1.89,1.96 1.42,2.24 0.90,2.36 0.37,2.47 -0.15,2.42 -0.69,2.36 -1.18,2.14 -1.67,1.92 -2.07,1.55 -2.46,1.18 -2.72,0.70 -2.97,0.23 -3.06,-0.30 -3.15,-0.83 -3.07,-1.36 -2.98,-1.89 -2.73,-2.37 -2.48,-2.85 -2.09,-3.22 -1.70,-3.60 -1.21,-3.82 -0.73,-4.05 -0.19,-4.12 0.34,-4.18 0.86,-4.06 1.39,-3.95 1.86,-3.67 2.32,-3.40 2.32,-3.40 2.32,-3.40 3.27,-3.82 4.22,-4.24 6.23,-3.83 8.24,-3.43 9.28,-1.95 10.32,-0.47 10.55,1.75 10.78,3.97 9.92,5.83 9.07,7.69 8.52,8.62 7.97,9.56 6.34,10.86 4.71,12.17 3.73,12.70 2.75,13.23 0.31,13.19 -2.13,13.14 -3.02,12.42 -3.92,11.69 -4.49,10.68 -5.06,9.66 -5.34,8.30 -5.63,6.93 -5.24,5.31 -4.86,3.69 -4.37,2.64 -3.88,1.58 -3.06,0.11 -2.25,-1.35 -2.05,-1.60 -1.86,-1.85 -1.61,-2.04 -1.36,-2.24 -1.07,-2.37 -0.78,-2.50 -0.47,-2.56 -0.16,-2.62 0.14,-2.60 0.46,-2.58 0.76,-2.49 1.06,-2.39 1.34,-2.23 1.61,-2.07 1.83,-1.84 2.06,-1.62 2.22,-1.35 2.39,-1.08 2.48,-0.78 2.58,-0.48 2.60,-0.16 2.62,0.15 2.56,0.46 2.50,0.77 2.38,1.06 2.25,1.35 2.25,1.35 L 2.25,1.35 Z"></path></g><g transform="translate(337 565.0000305175781) rotate(0 0 1.999969482421875)" stroke="none"><path fill="#1e1e1e" d="M 1.80,1.80 Q 1.80,1.80 0.96,2.67 0.12,3.53 -0.68,2.41 -1.48,1.28 -0.83,2.37 -0.18,3.47 -1.52,4.27 -2.87,5.08 -3.10,4.83 -3.33,4.58 -3.50,4.29 -3.67,3.99 -3.76,3.66 -3.85,3.33 -3.86,2.99 -3.87,2.65 -3.80,2.31 -3.73,1.98 -3.58,1.67 -3.43,1.37 -3.21,1.10 -2.99,0.84 -2.71,0.64 -2.44,0.44 -2.12,0.31 -1.81,0.18 -1.47,0.13 -1.13,0.08 -0.79,0.11 -0.45,0.14 -0.13,0.25 0.19,0.36 0.47,0.55 0.76,0.73 1.23,1.50 1.70,2.27 1.73,2.73 1.76,3.19 1.64,3.63 1.52,4.07 1.27,4.46 1.02,4.84 0.65,5.12 0.29,5.40 -0.13,5.55 -0.57,5.70 -1.02,5.70 -1.48,5.71 -1.92,5.56 -2.35,5.42 -2.72,5.15 -3.09,4.87 -3.35,4.50 -3.61,4.12 -3.74,3.68 -3.86,3.24 -3.84,2.78 -3.82,2.32 -3.66,1.89 -3.49,1.47 -3.20,1.12 -2.90,0.76 -2.51,0.52 -2.12,0.28 -1.67,0.18 -1.23,0.08 -0.77,0.13 -0.31,0.17 0.09,0.36 0.51,0.55 0.85,0.86 1.18,1.17 1.40,1.58 1.62,1.98 1.70,2.43 1.77,2.88 1.70,3.34 1.63,3.79 1.42,4.20 1.21,4.60 0.88,4.92 0.55,5.24 0.14,5.44 -0.27,5.63 -0.72,5.68 -1.18,5.74 -1.63,5.64 -2.08,5.55 -2.47,5.32 -2.86,5.08 -3.16,4.74 -3.46,4.39 -3.16,4.74 -2.87,5.08 -3.10,4.83 -3.33,4.58 -3.50,4.29 -3.67,3.99 -3.76,3.66 -3.85,3.33 -3.86,2.99 -3.87,2.65 -3.80,2.31 -3.73,1.98 -3.58,1.67 -3.43,1.37 -3.21,1.10 -2.99,0.84 -2.71,0.64 -2.44,0.44 -2.12,0.31 -1.81,0.18 -1.47,0.13 -1.13,0.08 -0.79,0.11 -0.45,0.14 -0.13,0.25 0.18,0.36 0.47,0.55 0.76,0.73 0.78,-0.18 0.80,-1.10 2.10,-0.77 3.41,-0.45 2.98,2.00 2.56,4.45 0.52,5.41 -1.52,6.37 -2.86,5.77 -4.19,5.18 -4.51,3.97 -4.83,2.75 -4.20,1.33 -3.57,-0.08 -2.69,-0.94 -1.80,-1.80 -1.56,-1.99 -1.32,-2.19 -1.04,-2.31 -0.76,-2.44 -0.45,-2.49 -0.15,-2.55 0.15,-2.53 0.46,-2.51 0.75,-2.42 1.05,-2.33 1.31,-2.17 1.57,-2.01 1.79,-1.79 2.01,-1.57 2.17,-1.31 2.33,-1.05 2.42,-0.75 2.51,-0.46 2.53,-0.15 2.55,0.15 2.49,0.45 2.44,0.76 2.31,1.04 2.19,1.32 1.99,1.56 1.80,1.80 1.80,1.80 L 1.80,1.80 Z"></path></g><g transform="translate(360 563.9999694824219) rotate(0 -4.5 8.5)" stroke="none"><path fill="#1e1e1e" d="M 1.55,2.07 Q 1.55,2.07 0.39,2.92 -0.75,3.78 -2.19,5.35 -3.62,6.93 -4.31,7.76 -4.99,8.60 -5.87,9.52 -6.74,10.44 -6.88,11.51 -7.03,12.58 -6.00,13.20 -4.97,13.83 -2.75,13.53 -0.54,13.24 -0.04,13.15 0.44,13.06 0.94,13.13 1.44,13.20 1.89,13.42 2.34,13.65 2.69,14.01 3.05,14.37 3.27,14.82 3.49,15.27 3.56,15.77 3.62,16.27 3.52,16.77 3.43,17.26 3.18,17.70 2.93,18.14 2.55,18.47 2.17,18.81 1.71,19.00 1.24,19.20 0.74,19.24 0.24,19.27 -0.24,19.15 -0.73,19.03 -1.15,18.75 -1.58,18.48 -1.89,18.08 -2.20,17.69 -2.37,17.21 -2.54,16.74 -2.56,16.24 -2.57,15.73 -2.42,15.25 -2.26,14.77 -1.97,14.36 -1.67,13.95 -1.26,13.66 -0.85,13.37 -0.37,13.23 0.11,13.08 0.61,13.10 1.11,13.11 1.59,13.29 2.06,13.47 2.45,13.79 2.84,14.10 3.11,14.53 3.38,14.96 3.50,15.45 3.62,15.94 3.57,16.44 3.53,16.94 3.33,17.40 3.12,17.86 2.79,18.24 2.45,18.61 2.01,18.86 1.57,19.10 1.57,19.10 1.57,19.10 -2.04,19.48 -5.66,19.86 -6.83,19.68 -8.01,19.51 -9.36,18.80 -10.71,18.09 -11.39,17.10 -12.08,16.11 -12.40,14.86 -12.73,13.62 -12.37,11.61 -12.01,9.61 -11.36,8.24 -10.71,6.88 -9.20,5.29 -7.70,3.69 -6.63,2.35 -5.56,1.02 -4.70,0.34 -3.84,-0.33 -2.69,-1.20 -1.55,-2.07 -1.28,-2.23 -1.01,-2.38 -0.71,-2.47 -0.41,-2.55 -0.10,-2.57 0.21,-2.58 0.51,-2.52 0.82,-2.45 1.10,-2.32 1.38,-2.18 1.62,-1.99 1.87,-1.79 2.05,-1.54 2.24,-1.29 2.36,-1.00 2.49,-0.71 2.54,-0.41 2.59,-0.10 2.56,0.20 2.53,0.52 2.44,0.81 2.34,1.11 2.17,1.37 2.00,1.64 1.78,1.85 1.55,2.07 1.55,2.07 L 1.55,2.07 Z"></path></g><g transform="translate(232 527.9999694824219) rotate(0 0 6)" stroke="none"><path fill="#1e1e1e" d="M 2.48,0 Q 2.48,0 2.48,1.43 2.48,2.87 2.50,4.06 2.53,5.24 2.57,6.32 2.60,7.40 2.63,9.47 2.66,11.54 2.59,11.96 2.52,12.39 2.32,12.77 2.12,13.15 1.80,13.45 1.49,13.74 1.10,13.92 0.71,14.11 0.28,14.15 -0.14,14.20 -0.56,14.11 -0.98,14.01 -1.35,13.79 -1.72,13.57 -2.00,13.24 -2.28,12.91 -2.44,12.51 -2.60,12.11 -2.62,11.68 -2.64,11.25 -2.53,10.83 -2.41,10.42 -2.17,10.06 -1.93,9.71 -1.59,9.45 -1.24,9.18 -0.83,9.05 -0.43,8.91 0.00,8.91 0.43,8.91 0.83,9.05 1.24,9.18 1.59,9.45 1.93,9.71 2.17,10.06 2.41,10.42 2.53,10.84 2.64,11.25 2.62,11.68 2.60,12.11 2.44,12.51 2.28,12.91 2.00,13.24 1.72,13.57 1.35,13.79 0.98,14.01 0.56,14.11 0.14,14.20 -0.28,14.15 -0.71,14.11 -1.10,13.92 -1.49,13.74 -1.80,13.45 -2.12,13.15 -2.32,12.77 -2.52,12.39 -2.59,11.96 -2.66,11.54 -2.66,11.54 -2.66,11.54 -2.63,9.47 -2.60,7.40 -2.57,6.32 -2.53,5.24 -2.50,4.06 -2.48,2.87 -2.48,1.43 -2.48,0 -2.44,-0.29 -2.41,-0.59 -2.30,-0.87 -2.19,-1.15 -2.02,-1.40 -1.85,-1.64 -1.63,-1.84 -1.41,-2.04 -1.14,-2.18 -0.88,-2.32 -0.59,-2.39 -0.29,-2.46 0.00,-2.46 0.29,-2.46 0.59,-2.39 0.88,-2.32 1.14,-2.18 1.41,-2.04 1.63,-1.84 1.85,-1.64 2.02,-1.40 2.20,-1.15 2.30,-0.87 2.41,-0.59 2.44,-0.29 2.48,0.00 2.48,0.00 L 2.48,0 Z"></path></g><g transform="translate(235 569.9999694824219) rotate(0 -5 12)" stroke="none"><path fill="#1e1e1e" d="M 1.07,2.15 Q 1.07,2.15 -0.05,2.75 -1.19,3.34 -2.04,4.04 -2.89,4.74 -4.25,6.83 -5.60,8.92 -6.23,10.11 -6.87,11.31 -7.46,13.73 -8.05,16.14 -7.79,18.06 -7.53,19.97 -6.07,19.51 -4.61,19.05 -4.02,18.12 -3.44,17.20 -2.80,15.75 -2.16,14.31 -2.38,13.23 -2.60,12.15 -3.94,10.23 -5.27,8.30 -5.53,7.85 -5.78,7.39 -5.88,6.88 -5.98,6.37 -5.91,5.86 -5.84,5.34 -5.61,4.87 -5.38,4.41 -5.01,4.04 -4.64,3.67 -4.18,3.44 -3.71,3.21 -3.20,3.14 -2.68,3.07 -2.17,3.16 -1.66,3.26 -1.21,3.52 -0.75,3.77 -0.41,4.16 -0.06,4.54 0.14,5.02 0.34,5.50 0.39,6.02 0.43,6.54 0.30,7.04 0.18,7.55 -0.09,7.99 -0.37,8.42 -0.77,8.75 -1.18,9.08 -1.67,9.26 -2.16,9.44 -2.68,9.45 -3.20,9.47 -3.69,9.31 -4.19,9.16 -4.61,8.86 -5.04,8.56 -5.34,8.13 -5.64,7.71 -5.80,7.21 -5.95,6.72 -5.94,6.20 -5.92,5.68 -5.75,5.19 -5.57,4.70 -5.24,4.29 -4.92,3.89 -4.48,3.61 -4.04,3.33 -3.53,3.20 -3.03,3.07 -2.51,3.12 -1.99,3.16 -1.51,3.36 -1.04,3.57 -0.65,3.92 -0.26,4.26 -0.26,4.26 -0.26,4.26 0.90,5.65 2.07,7.04 2.72,8.69 3.37,10.34 3.56,12.58 3.76,14.82 3.38,16.14 3.01,17.46 2.40,18.70 1.78,19.94 0.84,21.47 -0.09,23.00 -1.76,24.02 -3.44,25.04 -4.46,25.53 -5.48,26.01 -7.02,26.05 -8.55,26.08 -9.67,25.35 -10.79,24.62 -11.35,23.66 -11.91,22.70 -12.26,21.47 -12.60,20.24 -12.63,19.05 -12.66,17.85 -12.70,16.46 -12.74,15.07 -12.37,13.41 -12.00,11.75 -11.57,10.39 -11.15,9.04 -10.46,7.78 -9.76,6.51 -8.83,4.78 -7.89,3.04 -6.92,1.93 -5.95,0.83 -4.68,-0.10 -3.40,-1.04 -2.24,-1.60 -1.07,-2.15 -0.80,-2.25 -0.53,-2.35 -0.24,-2.38 0.04,-2.41 0.33,-2.37 0.62,-2.33 0.89,-2.22 1.16,-2.11 1.39,-1.94 1.63,-1.77 1.82,-1.55 2.01,-1.33 2.14,-1.07 2.27,-0.81 2.33,-0.52 2.39,-0.24 2.39,0.04 2.38,0.33 2.31,0.61 2.23,0.89 2.09,1.15 1.95,1.40 1.76,1.62 1.56,1.83 1.32,1.99 1.07,2.15 1.07,2.15 L 1.07,2.15 Z"></path></g><g transform="translate(395 520.0000305175781) rotate(0 3 10.49993896484375)" stroke="none"><path fill="#1e1e1e" d="M 2.19,-0.41 Q 2.19,-0.41 2.93,4.21 3.68,8.83 4.23,11.31 4.78,13.80 5.13,15.19 5.49,16.58 6.65,19.01 7.80,21.44 7.88,21.79 7.95,22.15 7.90,22.51 7.85,22.87 7.69,23.19 7.53,23.52 7.28,23.78 7.02,24.03 6.70,24.20 6.38,24.36 6.02,24.41 5.66,24.46 5.30,24.40 4.94,24.33 4.63,24.15 4.31,23.98 4.07,23.71 3.82,23.44 3.68,23.11 3.53,22.77 3.50,22.41 3.47,22.05 3.56,21.70 3.64,21.35 3.84,21.04 4.03,20.73 4.31,20.51 4.59,20.28 4.93,20.15 5.27,20.02 5.63,20.01 6.00,20.00 6.34,20.10 6.69,20.21 6.99,20.42 7.28,20.63 7.49,20.92 7.71,21.22 7.82,21.56 7.92,21.91 7.92,22.27 7.91,22.63 7.79,22.97 7.66,23.31 7.44,23.60 7.21,23.88 6.91,24.08 6.60,24.28 6.25,24.36 5.90,24.45 5.54,24.43 5.18,24.40 4.84,24.26 4.51,24.12 4.24,23.88 3.97,23.63 3.79,23.32 3.61,23.01 3.61,23.01 3.61,23.01 3.04,21.31 2.48,19.61 2.08,18.50 1.68,17.38 1.48,16.04 1.28,14.71 0.52,12.13 -0.23,9.56 -1.21,4.98 -2.19,0.41 -2.21,0.14 -2.22,-0.12 -2.18,-0.39 -2.13,-0.65 -2.02,-0.90 -1.91,-1.14 -1.75,-1.36 -1.58,-1.57 -1.37,-1.73 -1.16,-1.90 -0.91,-2.01 -0.67,-2.12 -0.40,-2.17 -0.14,-2.22 0.12,-2.21 0.39,-2.19 0.65,-2.11 0.90,-2.04 1.13,-1.90 1.37,-1.76 1.56,-1.57 1.75,-1.38 1.89,-1.15 2.03,-0.92 2.11,-0.66 2.19,-0.41 2.19,-0.41 L 2.19,-0.41 Z"></path></g><g transform="translate(399 574.0000305175781) rotate(0 6.5 5.499969482421875)" stroke="none"><path fill="#1e1e1e" d="M 2.44,0.97 Q 2.44,0.97 1.84,2.40 1.23,3.82 1.04,5.12 0.85,6.42 1.90,7.15 2.96,7.88 5.12,7.32 7.29,6.76 8.76,5.90 10.23,5.03 11.61,4.30 12.99,3.57 13.46,3.42 13.94,3.26 14.43,3.27 14.93,3.28 15.40,3.44 15.87,3.61 16.26,3.91 16.65,4.22 16.93,4.64 17.20,5.05 17.33,5.53 17.45,6.01 17.42,6.51 17.39,7.01 17.20,7.47 17.00,7.93 16.68,8.30 16.35,8.68 15.92,8.93 15.49,9.18 15.00,9.28 14.52,9.38 14.02,9.32 13.53,9.26 13.08,9.04 12.63,8.83 12.27,8.48 11.92,8.13 11.69,7.69 11.46,7.25 11.39,6.75 11.32,6.26 11.40,5.77 11.49,5.28 11.73,4.85 11.97,4.41 12.34,4.07 12.70,3.74 13.16,3.53 13.61,3.33 14.11,3.28 14.60,3.24 15.09,3.35 15.57,3.46 15.99,3.73 16.42,3.99 16.73,4.37 17.05,4.76 17.23,5.22 17.40,5.69 17.42,6.18 17.44,6.68 17.30,7.16 17.16,7.63 16.88,8.04 16.59,8.45 16.19,8.75 15.79,9.04 15.79,9.04 15.80,9.04 13.58,10.16 11.37,11.28 10.32,11.85 9.27,12.42 8.17,12.83 7.06,13.23 5.79,13.57 4.53,13.91 3.42,13.86 2.30,13.81 1.13,13.64 -0.03,13.48 -1.38,12.89 -2.74,12.31 -3.73,9.95 -4.72,7.58 -4.45,5.78 -4.19,3.97 -3.86,2.95 -3.53,1.92 -2.99,0.47 -2.44,-0.97 -2.29,-1.25 -2.14,-1.53 -1.92,-1.76 -1.71,-2.00 -1.44,-2.17 -1.18,-2.35 -0.88,-2.46 -0.58,-2.56 -0.26,-2.60 0.04,-2.63 0.36,-2.59 0.67,-2.54 0.97,-2.42 1.26,-2.31 1.52,-2.12 1.78,-1.94 1.98,-1.69 2.19,-1.45 2.33,-1.17 2.48,-0.88 2.55,-0.57 2.62,-0.27 2.61,0.04 2.60,0.36 2.52,0.67 2.44,0.97 2.44,0.97 L 2.44,0.97 Z"></path></g><g transform="translate(417 575.9999694824219) rotate(0 -1.5 7.5)" stroke="none"><path fill="#1e1e1e" d="M 1.85,1.39 Q 1.85,1.39 1.00,2.54 0.15,3.70 -0.05,4.82 -0.26,5.94 0.34,7.85 0.94,9.75 1.50,11.67 2.06,13.58 2.10,13.96 2.13,14.34 2.04,14.71 1.96,15.08 1.75,15.41 1.55,15.73 1.26,15.97 0.96,16.21 0.61,16.35 0.25,16.48 -0.12,16.50 -0.50,16.51 -0.87,16.40 -1.23,16.29 -1.55,16.08 -1.86,15.86 -2.08,15.55 -2.31,15.24 -2.42,14.88 -2.54,14.51 -2.53,14.13 -2.53,13.75 -2.40,13.39 -2.27,13.03 -2.03,12.74 -1.80,12.44 -1.48,12.23 -1.16,12.02 -0.79,11.92 -0.42,11.83 -0.04,11.86 0.33,11.88 0.68,12.03 1.03,12.18 1.32,12.43 1.60,12.68 1.80,13.01 1.99,13.34 2.06,13.71 2.14,14.09 2.09,14.47 2.04,14.84 1.87,15.19 1.71,15.53 1.44,15.80 1.17,16.07 0.84,16.25 0.50,16.42 0.12,16.47 -0.25,16.53 -0.62,16.46 -1.00,16.39 -1.33,16.21 -1.67,16.02 -1.92,15.74 -2.18,15.46 -2.33,15.11 -2.49,14.76 -2.49,14.76 -2.49,14.77 -2.89,12.96 -3.30,11.16 -4.28,8.26 -5.27,5.37 -4.98,4.09 -4.69,2.82 -4.15,1.86 -3.60,0.89 -2.73,-0.24 -1.85,-1.39 -1.66,-1.59 -1.47,-1.79 -1.23,-1.94 -0.99,-2.09 -0.73,-2.18 -0.46,-2.27 -0.18,-2.29 0.09,-2.32 0.36,-2.27 0.64,-2.23 0.90,-2.12 1.15,-2.01 1.38,-1.84 1.60,-1.67 1.78,-1.45 1.96,-1.24 2.08,-0.98 2.20,-0.73 2.25,-0.46 2.31,-0.18 2.30,0.09 2.29,0.37 2.21,0.63 2.13,0.90 1.99,1.15 1.85,1.39 1.85,1.39 L 1.85,1.39 Z"></path></g><g transform="translate(436 575.9999694824219) rotate(0 3 5.000030517578125)" stroke="none"><path fill="#1e1e1e" d="M 2.41,0.96 Q 2.41,0.96 1.81,2.38 1.21,3.80 1.02,5.01 0.83,6.23 0.79,7.70 0.74,9.17 1.84,7.93 2.94,6.69 3.86,5.39 4.77,4.09 4.77,2.89 4.77,1.69 5.16,0.86 5.54,0.02 5.13,0.35 4.72,0.67 4.22,0.85 3.73,1.03 3.20,1.04 2.68,1.05 2.18,0.90 1.68,0.74 1.25,0.43 0.83,0.12 0.52,-0.30 0.22,-0.72 0.07,-1.23 -0.07,-1.73 -0.06,-2.25 -0.04,-2.78 0.14,-3.27 0.32,-3.76 0.65,-4.17 0.98,-4.58 1.43,-4.86 1.87,-5.14 2.38,-5.26 2.89,-5.38 3.41,-5.34 3.93,-5.29 4.42,-5.08 4.90,-4.87 5.29,-4.52 5.67,-4.17 5.93,-3.71 6.19,-3.25 6.28,-2.73 6.38,-2.22 6.30,-1.70 6.23,-1.18 5.99,-0.71 5.76,-0.24 5.39,0.12 5.01,0.49 4.54,0.72 4.07,0.95 3.55,1.02 3.03,1.08 2.51,0.98 2.00,0.88 1.54,0.62 1.09,0.36 0.74,-0.02 0.39,-0.42 0.19,-0.90 -0.01,-1.38 -0.05,-1.91 -0.09,-2.43 0.03,-2.94 0.16,-3.45 0.45,-3.89 0.73,-4.33 0.73,-4.33 0.73,-4.33 4.38,-4.47 8.02,-4.61 9.22,-2.70 10.42,-0.79 10.76,0.58 11.10,1.96 10.89,3.50 10.68,5.03 9.71,6.98 8.73,8.92 7.32,10.61 5.91,12.30 4.20,13.67 2.48,15.04 1.18,15.24 -0.11,15.44 -1.88,14.30 -3.65,13.17 -4.13,12.10 -4.60,11.04 -4.60,9.93 -4.61,8.82 -4.36,7.11 -4.11,5.41 -3.81,3.67 -3.51,1.94 -2.96,0.48 -2.41,-0.96 -2.26,-1.24 -2.11,-1.51 -1.90,-1.74 -1.69,-1.97 -1.42,-2.15 -1.16,-2.32 -0.87,-2.43 -0.57,-2.53 -0.26,-2.57 0.04,-2.60 0.35,-2.56 0.66,-2.51 0.96,-2.40 1.25,-2.28 1.50,-2.10 1.76,-1.91 1.96,-1.67 2.16,-1.44 2.31,-1.15 2.45,-0.87 2.52,-0.57 2.59,-0.26 2.58,0.04 2.57,0.36 2.49,0.66 2.41,0.96 2.41,0.96 L 2.41,0.96 Z"></path></g><g transform="translate(561 520.0000305175781) rotate(0 1.00006103515625 12.999969482421875)" stroke="none"><path fill="#1e1e1e" d="M 2.20,-0.73 Q 2.20,-0.73 2.55,0.10 2.89,0.95 3.30,6.20 3.71,11.46 3.74,13.89 3.77,16.32 3.85,17.94 3.94,19.56 4.02,20.83 4.11,22.10 4.17,23.84 4.22,25.58 4.17,25.94 4.11,26.29 3.95,26.61 3.78,26.93 3.52,27.18 3.26,27.43 2.93,27.59 2.61,27.74 2.25,27.78 1.89,27.83 1.53,27.75 1.18,27.68 0.87,27.49 0.56,27.31 0.32,27.03 0.09,26.76 -0.04,26.43 -0.17,26.09 -0.20,25.73 -0.22,25.37 -0.12,25.02 -0.03,24.67 0.16,24.37 0.36,24.07 0.65,23.85 0.93,23.63 1.27,23.51 1.62,23.39 1.98,23.39 2.34,23.39 2.68,23.50 3.02,23.62 3.31,23.83 3.60,24.05 3.81,24.35 4.01,24.64 4.11,24.99 4.21,25.34 4.19,25.70 4.18,26.06 4.04,26.40 3.91,26.73 3.68,27.01 3.45,27.29 3.14,27.47 2.83,27.66 2.48,27.74 2.13,27.82 1.77,27.79 1.41,27.75 1.08,27.60 0.75,27.45 0.49,27.21 0.22,26.96 0.05,26.64 -0.11,26.32 -0.17,25.97 -0.23,25.61 -0.23,25.61 -0.23,25.61 -0.21,23.90 -0.19,22.19 -0.15,20.95 -0.12,19.71 -0.16,18.14 -0.19,16.56 -0.45,14.18 -0.72,11.81 -1.23,7.15 -1.74,2.49 -1.97,1.61 -2.20,0.73 -2.26,0.46 -2.32,0.18 -2.30,-0.09 -2.29,-0.37 -2.21,-0.64 -2.14,-0.91 -2.00,-1.15 -1.86,-1.39 -1.66,-1.60 -1.47,-1.80 -1.23,-1.95 -0.99,-2.10 -0.73,-2.19 -0.46,-2.28 -0.18,-2.30 0.09,-2.32 0.37,-2.28 0.64,-2.23 0.90,-2.12 1.16,-2.01 1.38,-1.84 1.61,-1.67 1.79,-1.46 1.96,-1.24 2.08,-0.98 2.20,-0.73 2.20,-0.73 L 2.20,-0.73 Z"></path></g><g transform="translate(559 562.9999694824219) rotate(0 1.5 17.500030517578125)" stroke="none"><path fill="#1e1e1e" d="M 0.35,2.47 Q 0.35,2.47 -1.67,2.63 -3.70,2.79 -4.86,2.97 -6.02,3.14 -6.99,3.66 -7.97,4.18 -8.52,5.18 -9.06,6.18 -7.47,7.39 -5.87,8.59 -4.96,9.15 -4.05,9.71 -3.10,10.22 -2.15,10.74 -0.81,11.63 0.52,12.52 1.76,13.55 3.01,14.59 4.11,15.62 5.20,16.64 6.03,17.42 6.86,18.21 7.50,19.89 8.14,21.58 7.71,24.45 7.29,27.33 6.75,28.48 6.21,29.62 4.83,31.02 3.45,32.41 1.65,33.92 -0.14,35.42 -1.61,36.07 -3.07,36.71 -4.44,37.04 -5.80,37.37 -7.49,37.11 -9.18,36.86 -10.14,35.81 -11.10,34.76 -11.10,33.18 -11.10,31.60 -10.29,30.01 -9.48,28.41 -8.48,27.14 -7.48,25.86 -6.14,24.36 -4.80,22.86 -3.62,21.56 -2.44,20.27 -0.33,18.58 1.77,16.89 3.16,15.65 4.56,14.42 6.04,13.07 7.53,11.72 8.38,10.79 9.23,9.85 10.08,8.70 10.93,7.55 9.35,7.61 7.77,7.68 4.00,6.90 0.22,6.13 -0.03,5.77 -0.29,5.40 -0.42,4.98 -0.55,4.55 -0.54,4.10 -0.53,3.66 -0.37,3.24 -0.22,2.82 0.05,2.47 0.33,2.12 0.71,1.88 1.08,1.64 1.52,1.53 1.95,1.42 2.40,1.46 2.84,1.49 3.25,1.67 3.66,1.85 4.00,2.15 4.33,2.44 4.55,2.83 4.77,3.22 4.85,3.66 4.94,4.10 4.88,4.54 4.82,4.99 4.62,5.39 4.42,5.79 4.10,6.10 3.79,6.42 3.39,6.62 2.99,6.82 2.54,6.88 2.10,6.94 1.66,6.85 1.22,6.77 0.83,6.55 0.44,6.33 0.15,6.00 -0.14,5.66 -0.32,5.25 -0.50,4.84 -0.53,4.40 -0.57,3.95 -0.46,3.52 -0.35,3.08 -0.11,2.71 0.12,2.33 0.47,2.05 0.82,1.77 1.24,1.62 1.66,1.46 2.10,1.45 2.55,1.44 2.98,1.57 3.40,1.70 3.77,1.96 4.13,2.22 4.13,2.22 4.13,2.22 6.00,2.30 7.86,2.37 10.15,2.52 12.43,2.66 13.65,3.09 14.87,3.52 15.48,4.46 16.10,5.40 15.94,6.86 15.78,8.31 15.00,9.21 14.23,10.10 13.16,11.43 12.09,12.76 11.13,13.60 10.17,14.44 8.76,15.92 7.34,17.39 5.97,18.74 4.60,20.08 2.90,21.77 1.20,23.45 0.20,24.67 -0.80,25.89 -1.91,27.62 -3.02,29.34 -4.13,30.51 -5.24,31.68 -3.52,30.81 -1.80,29.95 -0.25,28.56 1.28,27.17 1.76,26.15 2.24,25.13 2.58,24.06 2.93,22.98 2.30,21.74 1.67,20.49 0.67,19.58 -0.33,18.68 -1.34,17.87 -2.34,17.06 -3.59,16.32 -4.84,15.58 -5.91,14.98 -6.98,14.37 -8.13,13.63 -9.28,12.89 -11.17,10.99 -13.06,9.09 -13.58,7.51 -14.09,5.93 -13.72,4.67 -13.36,3.41 -12.62,2.41 -11.87,1.41 -10.95,0.68 -10.03,-0.03 -8.31,-0.77 -6.59,-1.50 -5.47,-1.57 -4.34,-1.64 -2.34,-2.06 -0.35,-2.47 -0.05,-2.48 0.24,-2.48 0.54,-2.42 0.83,-2.35 1.10,-2.22 1.37,-2.08 1.60,-1.89 1.83,-1.69 2.01,-1.45 2.18,-1.20 2.30,-0.92 2.41,-0.64 2.45,-0.35 2.49,-0.05 2.46,0.24 2.43,0.54 2.33,0.83 2.23,1.11 2.07,1.36 1.90,1.61 1.68,1.82 1.46,2.02 1.19,2.17 0.93,2.31 0.64,2.39 0.35,2.47 0.35,2.47 L 0.35,2.47 Z"></path></g><g transform="translate(600 559.9999694824219) rotate(0 -5.5 10.5)" stroke="none"><path fill="#1e1e1e" d="M 1.84,1.23 Q 1.84,1.23 0.60,2.89 -0.62,4.56 -1.34,5.84 -2.06,7.12 -2.60,8.43 -3.14,9.74 -4.04,11.51 -4.95,13.27 -5.56,14.61 -6.17,15.96 -7.06,17.65 -7.95,19.34 -8.08,19.54 -8.21,19.74 -8.39,19.90 -8.56,20.07 -8.77,20.19 -8.98,20.30 -9.21,20.37 -9.44,20.43 -9.68,20.44 -9.92,20.45 -10.16,20.40 -10.39,20.34 -10.61,20.24 -10.82,20.13 -11.01,19.98 -11.19,19.83 -11.33,19.63 -11.47,19.44 -11.56,19.22 -11.66,19.00 -11.69,18.76 -11.73,18.52 -11.71,18.29 -11.68,18.05 -11.61,17.82 -11.53,17.59 -9.09,16.86 -6.66,16.13 -6.36,14.00 -6.06,11.86 -6.60,10.55 -7.14,9.23 -8.39,7.63 -9.64,6.02 -10.52,5.75 -11.41,5.48 -11.76,5.30 -12.12,5.11 -12.40,4.82 -12.69,4.54 -12.86,4.17 -13.03,3.81 -13.08,3.41 -13.13,3.01 -13.05,2.61 -12.97,2.22 -12.77,1.87 -12.57,1.52 -12.26,1.26 -11.96,0.99 -11.59,0.84 -11.22,0.68 -10.81,0.66 -10.41,0.63 -10.02,0.73 -9.63,0.83 -9.30,1.05 -8.96,1.27 -8.71,1.59 -8.46,1.91 -8.33,2.29 -8.19,2.67 -8.19,3.07 -8.18,3.47 -8.30,3.86 -8.43,4.24 -8.67,4.57 -8.91,4.89 -9.24,5.12 -9.57,5.35 -9.95,5.47 -10.34,5.58 -10.74,5.56 -11.14,5.55 -11.52,5.40 -11.90,5.26 -12.21,5.00 -12.52,4.75 -12.73,4.40 -12.95,4.06 -13.04,3.67 -13.13,3.28 -13.09,2.88 -13.05,2.48 -12.89,2.11 -12.73,1.74 -12.45,1.44 -12.18,1.15 -11.83,0.95 -11.47,0.76 -11.08,0.69 -10.68,0.62 -10.28,0.68 -9.88,0.74 -9.88,0.74 -9.89,0.74 -7.91,1.81 -5.94,2.89 -5.02,4.06 -4.11,5.23 -3.52,6.38 -2.92,7.52 -2.16,9.42 -1.39,11.33 -1.19,13.57 -1.00,15.80 -2.52,17.65 -4.04,19.51 -6.00,19.42 -7.95,19.34 -8.08,19.54 -8.21,19.74 -8.39,19.90 -8.56,20.07 -8.77,20.19 -8.98,20.30 -9.21,20.37 -9.44,20.43 -9.68,20.44 -9.92,20.45 -10.16,20.40 -10.39,20.34 -10.61,20.24 -10.82,20.13 -11.00,19.98 -11.19,19.83 -11.33,19.63 -11.47,19.44 -11.56,19.22 -11.66,19.00 -11.69,18.76 -11.73,18.52 -11.71,18.29 -11.68,18.05 -11.61,17.82 -11.53,17.59 -10.72,15.86 -9.92,14.13 -9.24,12.84 -8.56,11.54 -7.79,9.80 -7.03,8.05 -6.33,6.53 -5.63,5.00 -4.80,3.67 -3.97,2.33 -2.90,0.55 -1.84,-1.23 -1.67,-1.43 -1.49,-1.63 -1.28,-1.79 -1.06,-1.94 -0.81,-2.04 -0.56,-2.14 -0.30,-2.18 -0.03,-2.21 0.23,-2.19 0.49,-2.16 0.74,-2.07 0.99,-1.98 1.22,-1.83 1.44,-1.68 1.62,-1.48 1.80,-1.29 1.93,-1.05 2.06,-0.82 2.13,-0.56 2.19,-0.30 2.20,-0.03 2.20,0.23 2.14,0.49 2.08,0.75 1.96,0.99 1.84,1.23 1.84,1.23 L 1.84,1.23 Z"></path></g></svg>