<svg version="1.1" xmlns="http://www.w3.org/2000/svg" viewBox="0 0 629.631603201665 651.6510216716676" width="629.631603201665" height="651.6510216716676" class="excalidraw-svg"><!-- svg-source:excalidraw --><metadata></metadata><defs><style class="style-fonts">
      </style></defs><g stroke-linecap="round"><g transform="translate(40.63160320166497 430.6510216716677) rotate(0 0.5 -210)"><path d="M0.19 0.6 C0.22 -69.41, 0.42 -350.45, 0.58 -420.65 M-1.17 -0.12 C-1.37 -69.95, -0.85 -349.54, -0.59 -419.46" stroke="#1e1e1e" stroke-width="2" fill="none"></path></g><g transform="translate(40.63160320166497 430.6510216716677) rotate(0 0.5 -210)"><path d="M7.9 -395.94 C6.19 -404.45, 1.28 -411.35, -0.59 -419.46 M7.9 -395.94 C6.24 -401.57, 2.62 -408.54, -0.59 -419.46" stroke="#1e1e1e" stroke-width="2" fill="none"></path></g><g transform="translate(40.63160320166497 430.6510216716677) rotate(0 0.5 -210)"><path d="M-9.2 -395.99 C-5.22 -404.5, -4.45 -411.39, -0.59 -419.46 M-9.2 -395.99 C-6.61 -401.75, -5.97 -408.7, -0.59 -419.46" stroke="#1e1e1e" stroke-width="2" fill="none"></path></g></g><mask></mask><g stroke-linecap="round"><g transform="translate(11.631603201664973 405.6510216716677) rotate(0 254 0.5)"><path d="M-0.11 0.96 C84.45 0.8, 423.39 0.06, 507.97 0.21 M-1.63 0.42 C82.72 0.9, 422.36 1.41, 507 1.33" stroke="#1e1e1e" stroke-width="1" fill="none"></path></g><g transform="translate(11.631603201664973 405.6510216716677) rotate(0 254 0.5)"><path d="M483.5 9.86 C493.24 6.84, 498.52 2.77, 507 1.33 M483.5 9.86 C491.42 7.38, 500.64 2.96, 507 1.33" stroke="#1e1e1e" stroke-width="1" fill="none"></path></g><g transform="translate(11.631603201664973 405.6510216716677) rotate(0 254 0.5)"><path d="M483.51 -7.24 C493.41 -4.28, 498.69 -2.38, 507 1.33 M483.51 -7.24 C491.27 -3.43, 500.48 -1.56, 507 1.33" stroke="#1e1e1e" stroke-width="1" fill="none"></path></g></g><mask></mask><g transform="translate(17.631603201664973 434.6510216716677) rotate(0 229.5 -171)" stroke="none"><path fill="#2f9e44" d="M -1.31,0 Q -1.31,0 -1.73,-1.72 -2.15,-3.45 -1.97,-5.26 -1.80,-7.06 -1.49,-9.22 -1.19,-11.37 -0.46,-13.88 0.25,-16.39 1.11,-19.37 1.97,-22.36 2.91,-25.64 3.85,-28.92 4.84,-32.08 5.83,-35.23 6.79,-39.07 7.76,-42.91 9.05,-47.22 10.35,-51.54 11.77,-55.96 13.18,-60.38 14.94,-65.18 16.71,-69.98 18.29,-74.82 19.88,-79.67 21.46,-83.56 23.03,-87.46 24.52,-91.87 26.01,-96.28 27.81,-101.37 29.62,-106.46 31.24,-111.19 32.86,-115.92 34.72,-120.85 36.57,-125.78 37.92,-129.56 39.27,-133.34 40.71,-137.27 42.16,-141.20 43.63,-145.17 45.11,-149.14 46.60,-153.13 48.09,-157.12 49.66,-160.12 51.23,-163.13 52.68,-166.54 54.13,-169.94 55.98,-173.29 57.84,-176.64 60.09,-180.10 62.33,-183.57 64.46,-186.50 66.58,-189.44 68.94,-192.43 71.29,-195.43 73.13,-197.82 74.98,-200.21 77.62,-202.82 80.26,-205.43 83.44,-208.00 86.63,-210.58 89.72,-212.82 92.82,-215.07 96.61,-216.99 100.40,-218.91 103.90,-220.81 107.40,-222.70 110.52,-223.88 113.64,-225.06 117.19,-226.39 120.74,-227.72 124.64,-228.90 128.54,-230.07 132.59,-230.87 136.65,-231.68 140.67,-232.30 144.69,-232.93 148.51,-233.20 152.33,-233.47 155.52,-233.30 158.71,-233.12 162.08,-232.75 165.44,-232.38 169.16,-231.94 172.87,-231.50 176.58,-230.72 180.30,-229.94 183.89,-229.03 187.48,-228.12 190.38,-227.45 193.29,-226.79 196.34,-225.91 199.40,-225.03 202.67,-224.09 205.95,-223.15 209.21,-221.84 212.47,-220.53 215.34,-219.08 218.22,-217.64 220.54,-216.47 222.86,-215.30 227.36,-212.77 231.86,-210.23 234.09,-208.84 236.32,-207.46 238.45,-205.98 240.58,-204.50 243.31,-203.13 246.03,-201.76 250.38,-199.71 254.73,-197.67 258.25,-196.25 261.77,-194.83 264.97,-193.65 268.18,-192.48 271.02,-192.05 273.87,-191.61 276.91,-191.11 279.96,-190.61 282.71,-190.70 285.46,-190.79 287.91,-190.82 290.36,-190.86 293.13,-190.87 295.89,-190.88 298.52,-191.44 301.14,-191.99 303.81,-192.53 306.48,-193.06 309.05,-193.58 311.62,-194.09 314.15,-194.60 316.68,-195.11 318.54,-195.59 320.39,-196.07 322.39,-197.06 324.40,-198.04 327.19,-199.12 329.98,-200.19 332.54,-201.21 335.11,-202.22 337.29,-203.20 339.48,-204.18 342.01,-205.69 344.54,-207.19 347.11,-208.73 349.68,-210.26 352.37,-212.28 355.06,-214.29 357.59,-216.55 360.12,-218.80 363.54,-221.81 366.95,-224.82 368.96,-226.65 370.96,-228.49 373.17,-230.90 375.37,-233.32 377.81,-235.85 380.25,-238.39 382.32,-241.06 384.40,-243.73 386.78,-246.66 389.16,-249.60 390.65,-251.87 392.14,-254.14 394.31,-256.96 396.48,-259.79 398.79,-262.94 401.11,-266.09 404.71,-270.65 408.32,-275.21 410.44,-277.74 412.57,-280.27 414.89,-283.05 417.21,-285.84 418.98,-288.36 420.75,-290.89 423.07,-293.57 425.39,-296.25 427.41,-298.97 429.42,-301.69 431.13,-304.25 432.83,-306.82 434.42,-309.34 436.00,-311.86 437.58,-314.16 439.16,-316.45 440.39,-318.25 441.61,-320.06 442.65,-321.88 443.68,-323.70 444.75,-325.42 445.81,-327.15 446.84,-328.75 447.86,-330.36 448.47,-331.71 449.08,-333.07 449.77,-334.18 450.45,-335.30 451.56,-337.07 452.67,-338.85 453.40,-340.14 454.14,-341.43 454.93,-342.37 455.73,-343.32 455.75,-341.80 455.78,-340.29 456.78,-339.85 457.79,-339.42 455.92,-340.01 454.05,-340.61 453.86,-340.70 453.67,-340.79 453.52,-340.94 453.36,-341.09 453.27,-341.28 453.17,-341.47 453.14,-341.68 453.10,-341.89 453.14,-342.10 453.18,-342.31 453.28,-342.49 453.38,-342.68 453.54,-342.82 453.69,-342.97 453.89,-343.05 454.08,-343.14 454.29,-343.16 454.50,-343.18 454.71,-343.14 454.92,-343.09 455.10,-342.98 455.28,-342.86 455.41,-342.70 455.55,-342.54 455.63,-342.34 455.70,-342.14 455.71,-341.93 455.72,-341.72 455.66,-341.51 455.60,-341.31 455.48,-341.13 455.36,-340.96 455.19,-340.83 455.02,-340.71 454.82,-340.64 454.62,-340.57 454.40,-340.58 454.19,-340.58 453.99,-340.65 453.79,-340.72 453.62,-340.85 453.45,-340.98 453.34,-341.16 453.22,-341.33 453.17,-341.54 453.11,-341.74 453.12,-341.96 453.14,-342.17 453.22,-342.37 453.30,-342.56 453.44,-342.72 453.58,-342.88 453.76,-342.99 453.94,-343.10 454.15,-343.14 454.36,-343.18 454.57,-343.16 454.78,-343.13 454.78,-343.13 454.78,-343.13 456.65,-343.62 458.51,-344.10 459.73,-343.34 460.95,-342.58 460.30,-340.30 459.64,-338.03 459.16,-337.06 458.68,-336.09 457.83,-335.05 456.98,-334.01 455.88,-332.20 454.78,-330.39 453.95,-328.68 453.12,-326.97 452.11,-325.42 451.10,-323.87 450.08,-322.25 449.06,-320.62 447.90,-318.60 446.74,-316.57 445.50,-314.75 444.26,-312.93 442.75,-310.75 441.24,-308.57 439.60,-305.98 437.97,-303.39 436.17,-300.70 434.37,-298.00 432.20,-295.10 430.03,-292.20 427.89,-289.78 425.76,-287.35 423.83,-284.64 421.90,-281.92 419.56,-279.14 417.23,-276.35 415.16,-273.89 413.09,-271.43 409.54,-266.97 405.98,-262.51 403.63,-259.30 401.27,-256.10 399.23,-253.45 397.18,-250.80 395.52,-248.29 393.85,-245.79 391.51,-242.90 389.16,-240.01 386.88,-237.10 384.60,-234.20 382.21,-231.72 379.82,-229.24 377.42,-226.64 375.03,-224.03 372.98,-222.16 370.92,-220.30 367.50,-217.31 364.08,-214.31 361.33,-211.92 358.59,-209.52 355.64,-207.36 352.70,-205.20 350.11,-203.66 347.52,-202.13 344.70,-200.48 341.87,-198.84 339.56,-197.80 337.25,-196.77 334.66,-195.76 332.07,-194.74 329.49,-193.76 326.91,-192.77 324.39,-191.60 321.87,-190.43 319.85,-189.91 317.83,-189.39 315.30,-188.88 312.76,-188.38 310.19,-187.86 307.62,-187.35 304.95,-186.82 302.28,-186.28 299.11,-185.67 295.94,-185.07 293.19,-185.05 290.44,-185.04 288.02,-185.01 285.60,-184.98 282.32,-184.93 279.03,-184.87 275.98,-185.37 272.93,-185.88 269.57,-186.45 266.20,-187.03 262.90,-188.24 259.60,-189.46 255.94,-190.94 252.27,-192.43 247.84,-194.51 243.40,-196.59 240.34,-198.16 237.28,-199.74 235.26,-201.14 233.25,-202.53 231.13,-203.86 229.01,-205.18 224.63,-207.66 220.26,-210.15 217.93,-211.32 215.61,-212.49 212.96,-213.84 210.30,-215.19 207.33,-216.40 204.35,-217.62 201.08,-218.56 197.80,-219.50 194.90,-220.34 192.01,-221.18 189.03,-221.86 186.06,-222.53 182.58,-223.42 179.10,-224.31 175.64,-225.05 172.19,-225.80 168.50,-226.24 164.82,-226.68 161.60,-227.03 158.38,-227.39 155.55,-227.57 152.73,-227.74 149.15,-227.49 145.57,-227.24 141.67,-226.63 137.76,-226.03 133.97,-225.29 130.19,-224.55 126.47,-223.44 122.76,-222.34 119.21,-221.00 115.66,-219.67 112.89,-218.65 110.13,-217.63 106.56,-215.69 102.98,-213.76 99.59,-212.08 96.20,-210.40 93.23,-208.24 90.26,-206.08 87.28,-203.68 84.31,-201.29 81.93,-198.99 79.55,-196.68 77.69,-194.27 75.83,-191.85 73.54,-188.95 71.25,-186.05 69.21,-183.24 67.16,-180.43 65.02,-177.14 62.87,-173.84 61.15,-170.76 59.43,-167.68 57.88,-164.06 56.33,-160.45 54.91,-157.77 53.49,-155.09 52.01,-151.11 50.52,-147.13 49.05,-143.17 47.58,-139.21 46.14,-135.31 44.70,-131.40 43.34,-127.58 41.98,-123.75 40.15,-118.90 38.32,-114.05 36.69,-109.29 35.06,-104.53 33.28,-99.48 31.49,-94.43 29.94,-89.86 28.39,-85.29 26.88,-81.57 25.36,-77.86 23.74,-72.93 22.11,-67.99 20.38,-63.31 18.65,-58.62 17.24,-54.25 15.84,-49.88 14.57,-45.69 13.30,-41.51 12.28,-37.51 11.26,-33.52 10.29,-30.43 9.31,-27.34 8.35,-24.04 7.38,-20.75 6.45,-17.72 5.53,-14.70 4.75,-12.53 3.98,-10.36 3.46,-8.29 2.95,-6.21 2.55,-4.82 2.15,-3.44 1.73,-1.72 1.31,0 1.29,0.15 1.27,0.31 1.22,0.46 1.16,0.61 1.07,0.74 0.98,0.87 0.86,0.97 0.74,1.08 0.60,1.15 0.46,1.23 0.31,1.26 0.15,1.30 -0.00,1.30 -0.15,1.30 -0.31,1.26 -0.46,1.23 -0.60,1.15 -0.74,1.08 -0.86,0.97 -0.98,0.87 -1.07,0.74 -1.16,0.61 -1.22,0.46 -1.27,0.31 -1.29,0.15 -1.31,-0.00 -1.31,-0.00 L -1.31,0 Z"></path></g><g transform="translate(485.631603201665 98.6510216716677) rotate(0 -89 99)" stroke="none"><path fill="#e03131" d="M 0.96,0.96 Q 0.96,0.96 0.06,2.36 -0.83,3.76 -3.44,6.93 -6.04,10.11 -10.23,15.48 -14.42,20.86 -20.84,28.63 -27.26,36.41 -35.73,46.87 -44.19,57.34 -52.42,67.00 -60.64,76.66 -70.75,88.24 -80.85,99.83 -91.49,111.39 -102.13,122.95 -111.85,133.04 -121.56,143.13 -129.99,152.00 -138.42,160.87 -145.49,168.33 -152.56,175.80 -157.38,180.64 -162.19,185.48 -165.80,189.34 -169.41,193.19 -173.01,196.33 -176.61,199.47 -176.78,199.59 -176.95,199.72 -177.16,199.78 -177.36,199.84 -177.57,199.83 -177.78,199.83 -177.98,199.75 -178.18,199.68 -178.35,199.55 -178.51,199.41 -178.63,199.23 -178.74,199.06 -178.79,198.85 -178.84,198.64 -178.83,198.43 -178.81,198.22 -178.72,198.02 -178.64,197.83 -178.50,197.67 -178.36,197.51 -178.17,197.41 -177.99,197.30 -177.78,197.27 -177.57,197.23 -177.36,197.25 -177.15,197.28 -176.96,197.38 -176.77,197.47 -176.62,197.62 -176.47,197.77 -176.37,197.96 -176.28,198.15 -176.25,198.37 -176.22,198.58 -176.26,198.78 -176.30,198.99 -176.41,199.18 -176.51,199.36 -176.67,199.50 -176.83,199.65 -177.02,199.73 -177.22,199.81 -177.43,199.83 -177.64,199.85 -177.85,199.80 -178.06,199.74 -178.23,199.63 -178.41,199.51 -178.55,199.35 -178.68,199.18 -178.75,198.98 -178.82,198.78 -178.83,198.57 -178.84,198.36 -178.77,198.16 -178.71,197.95 -178.59,197.78 -178.46,197.61 -178.46,197.61 -178.46,197.61 -175.44,194.14 -172.41,190.67 -169.13,186.32 -165.86,181.97 -161.25,176.98 -156.63,171.98 -149.64,164.42 -142.65,156.86 -134.22,147.96 -125.79,139.07 -116.13,129.01 -106.46,118.96 -95.87,107.46 -85.28,95.96 -75.18,84.42 -65.08,72.87 -56.89,63.28 -48.70,53.69 -40.18,43.21 -31.67,32.73 -25.19,25.05 -18.71,17.36 -14.21,12.08 -9.70,6.79 -6.73,3.81 -3.76,0.83 -2.36,-0.06 -0.96,-0.96 -0.83,-1.06 -0.70,-1.16 -0.55,-1.23 -0.40,-1.30 -0.24,-1.33 -0.08,-1.36 0.08,-1.35 0.24,-1.34 0.40,-1.29 0.56,-1.24 0.70,-1.15 0.84,-1.07 0.95,-0.95 1.07,-0.84 1.15,-0.70 1.24,-0.56 1.29,-0.40 1.34,-0.24 1.35,-0.08 1.36,0.08 1.33,0.24 1.30,0.40 1.23,0.55 1.16,0.70 1.06,0.83 0.96,0.96 0.96,0.96 L 0.96,0.96 Z"></path></g><g transform="translate(390.631603201665 245.6510216716677) rotate(0 37.5 -59)" stroke="none"><path fill="#e03131" d="M -1.38,0.19 Q -1.38,0.19 -1.83,-1.79 -2.28,-3.78 -2.54,-7.02 -2.81,-10.25 -2.98,-14.78 -3.16,-19.31 -3.25,-24.68 -3.35,-30.06 -3.69,-34.85 -4.03,-39.65 -4.21,-45.21 -4.40,-50.78 -4.48,-56.30 -4.56,-61.83 -4.60,-67.05 -4.64,-72.27 -4.65,-77.37 -4.67,-82.46 -4.67,-86.35 -4.68,-90.24 -4.68,-94.48 -4.68,-98.73 -4.40,-102.64 -4.11,-106.56 -3.99,-109.57 -3.87,-112.58 -3.82,-115.01 -3.78,-117.43 -3.75,-119.32 -3.73,-121.21 -3.73,-122.30 -3.72,-123.40 -3.67,-124.40 -3.62,-125.41 -3.83,-125.65 -4.05,-125.89 -4.19,-126.18 -4.34,-126.47 -4.42,-126.79 -4.49,-127.10 -4.49,-127.43 -4.49,-127.75 -4.41,-128.07 -4.33,-128.38 -4.17,-128.67 -4.02,-128.96 -3.80,-129.20 -3.59,-129.44 -3.32,-129.62 -3.05,-129.80 -2.74,-129.92 -2.44,-130.03 -2.12,-130.07 -1.79,-130.10 -1.47,-130.06 -1.15,-130.02 -0.85,-129.90 -0.54,-129.78 -0.28,-129.60 -0.01,-129.41 -2.15,-127.30 -4.28,-125.18 -4.50,-125.42 -4.71,-125.67 -4.86,-125.95 -5.00,-126.24 -5.08,-126.56 -5.15,-126.87 -5.15,-127.19 -5.15,-127.51 -5.07,-127.83 -4.99,-128.14 -4.84,-128.42 -4.68,-128.71 -4.47,-128.95 -4.25,-129.19 -3.98,-129.37 -3.72,-129.55 -3.42,-129.66 -3.11,-129.77 -2.79,-129.81 -2.47,-129.85 -2.15,-129.81 -1.83,-129.76 -1.53,-129.65 -1.23,-129.53 -0.97,-129.34 -0.70,-129.16 0.57,-128.88 1.85,-128.61 3.60,-128.56 5.35,-128.51 7.26,-128.48 9.17,-128.44 12.28,-128.40 15.39,-128.35 19.30,-128.33 23.21,-128.30 27.75,-128.28 32.29,-128.26 36.80,-128.22 41.32,-128.19 45.76,-128.43 50.20,-128.68 53.58,-128.79 56.96,-128.90 59.84,-128.94 62.73,-128.98 65.10,-129.00 67.48,-129.02 69.06,-129.04 70.65,-129.05 71.90,-129.10 73.14,-129.15 74.60,-129.23 76.05,-129.30 77.82,-128.16 79.60,-127.02 79.56,-125.72 79.52,-124.43 79.49,-123.22 79.47,-122.00 79.45,-120.28 79.43,-118.56 79.44,-115.81 79.44,-113.07 79.18,-108.93 78.93,-104.80 78.57,-99.90 78.21,-94.99 77.80,-89.46 77.39,-83.94 76.93,-78.70 76.47,-73.46 75.98,-69.20 75.49,-64.93 75.29,-60.64 75.09,-56.35 74.71,-52.40 74.33,-48.46 74.17,-44.87 74.02,-41.28 73.95,-38.04 73.88,-34.79 73.85,-31.97 73.82,-29.15 73.80,-27.38 73.78,-25.60 73.46,-23.75 73.13,-21.90 73.02,-20.75 72.90,-19.59 72.82,-17.95 72.74,-16.30 72.72,-15.06 72.69,-13.83 72.67,-12.26 72.66,-10.69 72.30,-9.47 71.93,-8.25 71.45,-6.75 70.97,-5.24 70.83,-3.94 70.69,-2.64 70.67,-1.27 70.65,0.09 70.63,1.16 70.61,2.23 70.59,3.74 70.56,5.25 70.59,6.50 70.62,7.74 69.37,8.99 68.13,10.25 65.04,10.88 61.96,11.51 58.79,11.61 55.62,11.71 51.70,11.75 47.78,11.79 43.15,11.51 38.52,11.23 34.91,11.09 31.30,10.96 26.91,10.79 22.51,10.63 18.70,10.61 14.89,10.59 10.08,10.82 5.27,11.05 5.06,11.04 4.85,11.03 4.65,10.95 4.45,10.88 4.29,10.74 4.13,10.60 4.01,10.42 3.90,10.24 3.86,10.03 3.81,9.83 3.83,9.62 3.85,9.40 3.94,9.21 4.02,9.02 4.17,8.86 4.31,8.71 4.50,8.60 4.69,8.50 4.90,8.47 5.11,8.43 5.32,8.46 5.53,8.49 5.71,8.59 5.90,8.69 6.05,8.84 6.20,9.00 6.29,9.19 6.38,9.38 6.41,9.59 6.43,9.80 6.39,10.01 6.34,10.22 6.24,10.40 6.13,10.58 5.97,10.72 5.81,10.86 5.61,10.94 5.41,11.02 5.20,11.04 4.99,11.05 4.78,11.00 4.58,10.94 4.40,10.82 4.22,10.71 4.09,10.54 3.96,10.37 3.89,10.17 3.82,9.97 3.82,9.76 3.82,9.54 3.89,9.34 3.95,9.14 4.08,8.97 4.21,8.80 4.38,8.68 4.56,8.56 4.76,8.50 4.96,8.44 4.96,8.44 4.96,8.44 9.79,7.53 14.62,6.62 18.59,6.06 22.57,5.51 27.03,5.44 31.48,5.38 35.18,5.48 38.87,5.58 43.31,5.85 47.75,6.12 51.63,6.11 55.52,6.10 58.54,6.09 61.56,6.07 63.49,5.66 65.43,5.25 65.40,3.74 65.38,2.22 65.37,1.13 65.35,0.05 65.37,-1.42 65.38,-2.90 65.50,-4.22 65.61,-5.53 66.08,-6.98 66.55,-8.44 66.94,-9.62 67.33,-10.80 67.32,-12.33 67.31,-13.87 67.31,-15.15 67.32,-16.43 67.39,-18.28 67.46,-20.13 67.59,-21.50 67.72,-22.88 67.98,-24.26 68.24,-25.65 68.25,-27.43 68.26,-29.21 68.28,-32.06 68.31,-34.90 68.38,-38.21 68.44,-41.53 68.61,-45.26 68.77,-49.00 69.15,-52.80 69.52,-56.61 69.74,-61.09 69.96,-65.57 70.46,-69.77 70.95,-73.97 71.46,-79.18 71.97,-84.39 72.48,-89.91 73.00,-95.43 73.47,-100.30 73.93,-105.16 74.26,-109.13 74.59,-113.09 74.62,-115.87 74.66,-118.65 74.71,-120.46 74.76,-122.26 75.41,-123.47 76.06,-124.68 74.61,-124.76 73.16,-124.83 71.91,-124.87 70.67,-124.91 69.09,-124.91 67.52,-124.90 65.16,-124.88 62.80,-124.86 59.96,-124.80 57.11,-124.73 53.79,-124.60 50.47,-124.46 45.89,-124.13 41.32,-123.80 36.80,-123.77 32.29,-123.73 27.75,-123.71 23.21,-123.69 19.30,-123.67 15.39,-123.65 12.26,-123.62 9.14,-123.58 7.21,-123.56 5.28,-123.55 2.38,-123.60 -0.52,-123.65 -2.40,-124.42 -4.28,-125.18 -4.50,-125.42 -4.71,-125.67 -4.86,-125.95 -5.00,-126.24 -5.08,-126.56 -5.15,-126.87 -5.15,-127.19 -5.15,-127.51 -5.07,-127.83 -4.99,-128.14 -4.84,-128.42 -4.68,-128.71 -4.47,-128.95 -4.25,-129.19 -3.99,-129.37 -3.72,-129.55 -3.42,-129.66 -3.11,-129.77 -2.79,-129.81 -2.47,-129.85 -2.15,-129.81 -1.83,-129.76 -1.53,-129.65 -1.23,-129.53 -0.97,-129.34 -0.70,-129.16 -2.16,-127.28 -3.62,-125.40 -3.83,-125.65 -4.05,-125.89 -4.19,-126.18 -4.34,-126.47 -4.42,-126.79 -4.49,-127.10 -4.49,-127.43 -4.49,-127.75 -4.41,-128.07 -4.33,-128.38 -4.17,-128.67 -4.02,-128.96 -3.80,-129.20 -3.59,-129.44 -3.32,-129.62 -3.05,-129.80 -2.74,-129.92 -2.44,-130.03 -2.12,-130.07 -1.79,-130.10 -1.47,-130.06 -1.15,-130.02 -0.85,-129.90 -0.54,-129.78 -0.28,-129.60 -0.01,-129.41 0.69,-128.09 1.41,-126.76 1.55,-125.06 1.69,-123.35 1.68,-122.25 1.67,-121.15 1.65,-119.23 1.62,-117.32 1.57,-114.84 1.51,-112.37 1.38,-109.26 1.26,-106.15 0.97,-102.44 0.69,-98.73 0.69,-94.49 0.69,-90.25 0.69,-86.36 0.70,-82.47 0.70,-77.38 0.71,-72.30 0.71,-67.09 0.72,-61.88 0.74,-56.39 0.77,-50.90 0.84,-45.42 0.91,-39.95 1.16,-35.01 1.42,-30.08 1.36,-24.72 1.31,-19.36 1.24,-14.89 1.17,-10.41 1.15,-7.34 1.13,-4.26 1.25,-2.23 1.38,-0.19 1.38,-0.02 1.38,0.13 1.35,0.30 1.31,0.46 1.23,0.61 1.16,0.76 1.05,0.89 0.94,1.02 0.81,1.12 0.67,1.22 0.51,1.28 0.36,1.34 0.19,1.37 0.02,1.39 -0.13,1.37 -0.30,1.36 -0.46,1.30 -0.62,1.24 -0.76,1.15 -0.90,1.06 -1.01,0.93 -1.13,0.81 -1.21,0.66 -1.29,0.52 -1.33,0.35 -1.38,0.19 -1.38,0.19 L -1.38,0.19 Z"></path></g><g transform="translate(129.63160320166497 510.6510216716677) rotate(0 21.5 -19)" stroke="none"><path fill="#e03131" d="M -1.21,-0.69 Q -1.21,-0.69 -0.51,-2.96 0.18,-5.23 1.76,-8.60 3.34,-11.97 4.59,-14.84 5.85,-17.70 7.25,-20.94 8.66,-24.18 9.84,-26.73 11.03,-29.29 11.76,-31.65 12.49,-34.02 13.50,-35.89 14.51,-37.75 16.14,-39.17 17.77,-40.58 20.04,-39.72 22.30,-38.86 23.69,-37.28 25.07,-35.69 26.69,-33.98 28.32,-32.27 29.98,-29.96 31.65,-27.65 33.11,-25.92 34.56,-24.20 36.07,-22.23 37.58,-20.26 39.01,-18.61 40.43,-16.96 41.75,-14.92 43.07,-12.88 43.48,-11.04 43.88,-9.20 43.37,-7.41 42.85,-5.61 41.45,-4.32 40.05,-3.03 37.50,-2.15 34.96,-1.27 32.07,-0.93 29.19,-0.59 25.96,-0.47 22.74,-0.34 19.94,-0.32 17.14,-0.29 15.05,-0.99 12.96,-1.68 12.80,-1.70 12.64,-1.72 12.50,-1.77 12.35,-1.82 12.21,-1.91 12.08,-2.00 11.98,-2.12 11.87,-2.23 11.79,-2.37 11.72,-2.51 11.68,-2.66 11.64,-2.82 11.63,-2.98 11.63,-3.13 11.67,-3.29 11.70,-3.44 11.77,-3.58 11.84,-3.72 11.95,-3.85 12.05,-3.97 12.18,-4.06 12.31,-4.15 12.45,-4.21 12.60,-4.27 12.76,-4.29 12.91,-4.31 13.16,-4.27 13.40,-4.22 13.59,-4.12 13.77,-4.01 13.91,-3.85 14.05,-3.69 14.13,-3.49 14.21,-3.30 14.23,-3.09 14.24,-2.87 14.19,-2.67 14.14,-2.46 14.02,-2.29 13.90,-2.11 13.74,-1.98 13.57,-1.85 13.37,-1.78 13.17,-1.70 12.96,-1.70 12.74,-1.70 12.54,-1.76 12.34,-1.83 12.17,-1.95 12.00,-2.08 11.87,-2.25 11.75,-2.43 11.69,-2.63 11.63,-2.84 11.64,-3.05 11.65,-3.26 11.73,-3.46 11.80,-3.66 11.94,-3.82 12.07,-3.99 12.25,-4.10 12.43,-4.21 12.64,-4.26 12.85,-4.31 13.06,-4.29 13.27,-4.27 13.46,-4.18 13.66,-4.10 13.81,-3.95 13.97,-3.81 14.07,-3.62 14.17,-3.43 14.21,-3.23 14.25,-3.02 14.22,-2.81 14.19,-2.60 14.09,-2.41 13.99,-2.22 13.84,-2.07 13.69,-1.92 13.50,-1.83 13.31,-1.74 13.10,-1.71 12.88,-1.68 12.92,-1.68 12.96,-1.68 12.80,-1.70 12.64,-1.72 12.50,-1.77 12.35,-1.82 12.21,-1.91 12.08,-2.00 11.98,-2.12 11.87,-2.23 11.79,-2.37 11.72,-2.51 11.68,-2.66 11.64,-2.82 11.63,-2.97 11.63,-3.13 11.67,-3.29 11.70,-3.44 11.77,-3.58 11.84,-3.72 11.95,-3.84 12.05,-3.97 12.18,-4.06 12.31,-4.15 12.45,-4.21 12.60,-4.27 12.76,-4.29 12.91,-4.31 14.98,-5.07 17.04,-5.84 19.79,-5.91 22.53,-5.98 25.59,-6.08 28.64,-6.18 31.05,-6.37 33.47,-6.55 36.01,-7.17 38.55,-7.79 38.94,-9.20 39.33,-10.61 38.22,-12.30 37.11,-13.98 35.52,-15.68 33.94,-17.38 32.42,-19.23 30.91,-21.08 29.30,-22.94 27.70,-24.80 26.22,-26.85 24.75,-28.90 23.05,-30.71 21.34,-32.51 20.07,-33.94 18.80,-35.38 17.99,-33.96 17.17,-32.54 16.33,-29.88 15.50,-27.23 14.34,-24.72 13.19,-22.22 11.79,-18.97 10.38,-15.71 9.10,-12.78 7.81,-9.84 6.11,-6.33 4.41,-2.81 2.81,-1.06 1.21,0.69 1.11,0.82 1.01,0.96 0.88,1.06 0.75,1.17 0.59,1.24 0.44,1.32 0.28,1.35 0.11,1.38 -0.04,1.38 -0.21,1.37 -0.37,1.33 -0.54,1.28 -0.68,1.20 -0.83,1.11 -0.95,1.00 -1.07,0.88 -1.16,0.74 -1.25,0.60 -1.31,0.44 -1.36,0.28 -1.37,0.11 -1.39,-0.05 -1.36,-0.21 -1.34,-0.38 -1.27,-0.53 -1.21,-0.69 -1.21,-0.69 L -1.21,-0.69 Z"></path></g><g transform="translate(186.63160320166497 476.6510216716677) rotate(0 9.5 32.5)" stroke="none"><path fill="#e03131" d="M 0.94,0.94 Q 0.94,0.94 0.60,1.58 0.25,2.22 0.27,3.77 0.28,5.31 0.50,7.39 0.73,9.47 1.10,11.49 1.47,13.51 2.13,15.05 2.80,16.58 3.97,16.20 5.13,15.81 5.63,14.37 6.13,12.93 6.70,10.58 7.28,8.23 7.82,5.49 8.36,2.75 8.60,1.03 8.83,-0.67 9.21,-1.40 9.59,-2.13 9.64,-2.35 9.70,-2.56 9.80,-2.76 9.91,-2.96 10.06,-3.12 10.21,-3.29 10.39,-3.41 10.58,-3.54 10.79,-3.62 11.00,-3.69 11.22,-3.72 11.44,-3.74 11.66,-3.72 11.89,-3.69 12.09,-3.60 12.30,-3.52 12.48,-3.39 12.67,-3.27 12.81,-3.10 12.96,-2.93 13.06,-2.73 13.16,-2.53 13.22,-2.31 13.27,-2.10 13.27,-1.87 13.26,-1.65 14.43,-0.04 15.60,1.56 16.27,3.88 16.94,6.20 17.84,10.06 18.74,13.92 19.76,19.01 20.79,24.10 21.59,29.76 22.39,35.42 22.78,41.04 23.18,46.66 23.06,50.87 22.95,55.07 22.30,58.77 21.66,62.47 19.68,65.02 17.70,67.57 15.28,67.57 12.85,67.57 10.56,65.30 8.26,63.04 6.95,59.26 5.65,55.48 4.87,52.55 4.10,49.61 4.07,49.40 4.05,49.19 4.09,48.98 4.13,48.78 4.24,48.59 4.35,48.41 4.51,48.27 4.67,48.13 4.87,48.05 5.06,47.97 5.27,47.96 5.49,47.94 5.69,48.00 5.90,48.05 6.07,48.17 6.25,48.29 6.38,48.45 6.51,48.62 6.58,48.82 6.65,49.02 6.65,49.23 6.66,49.45 6.59,49.65 6.52,49.85 6.40,50.02 6.27,50.19 6.10,50.31 5.92,50.43 5.72,50.49 5.51,50.55 5.30,50.54 5.09,50.53 4.89,50.46 4.69,50.38 4.53,50.25 4.37,50.11 4.25,49.93 4.14,49.75 4.10,49.54 4.05,49.33 4.07,49.12 4.09,48.91 4.18,48.72 4.26,48.52 4.41,48.37 4.55,48.21 4.74,48.11 4.93,48.01 5.13,47.97 5.34,47.94 5.55,47.97 5.76,48.00 5.95,48.10 6.14,48.19 6.29,48.35 6.44,48.50 6.53,48.69 6.62,48.88 6.62,48.88 6.62,48.88 7.49,51.63 8.36,54.38 9.77,57.29 11.18,60.20 12.57,61.48 13.96,62.76 15.10,62.03 16.24,61.30 16.88,58.07 17.53,54.85 17.74,50.89 17.95,46.93 17.77,41.47 17.59,36.00 17.02,30.45 16.45,24.89 15.62,19.84 14.78,14.79 14.01,11.01 13.23,7.23 12.68,5.12 12.12,3.01 11.68,1.53 11.24,0.05 10.41,-1.04 9.59,-2.13 9.64,-2.35 9.70,-2.56 9.80,-2.76 9.91,-2.96 10.06,-3.12 10.21,-3.29 10.39,-3.41 10.58,-3.54 10.79,-3.62 11.00,-3.69 11.22,-3.72 11.44,-3.74 11.66,-3.72 11.89,-3.69 12.09,-3.60 12.30,-3.52 12.48,-3.40 12.67,-3.27 12.81,-3.10 12.96,-2.93 13.06,-2.73 13.16,-2.53 13.22,-2.31 13.27,-2.10 13.27,-1.87 13.26,-1.65 12.87,-0.88 12.48,-0.12 12.25,1.67 12.02,3.47 11.48,6.29 10.94,9.12 10.32,11.75 9.69,14.38 8.73,16.53 7.76,18.69 6.18,19.78 4.61,20.87 2.83,20.65 1.06,20.44 0.04,19.32 -0.96,18.20 -1.75,16.21 -2.55,14.22 -2.91,12.01 -3.27,9.80 -3.42,7.32 -3.56,4.85 -3.06,2.46 -2.55,0.07 -1.75,-0.43 -0.94,-0.94 -0.82,-1.04 -0.69,-1.14 -0.54,-1.21 -0.39,-1.28 -0.24,-1.31 -0.08,-1.34 0.08,-1.33 0.24,-1.32 0.39,-1.27 0.55,-1.22 0.68,-1.14 0.82,-1.05 0.94,-0.94 1.05,-0.82 1.14,-0.68 1.22,-0.55 1.27,-0.39 1.32,-0.24 1.33,-0.08 1.34,0.08 1.31,0.24 1.28,0.39 1.21,0.54 1.14,0.69 1.04,0.82 0.94,0.94 0.94,0.94 L 0.94,0.94 Z"></path></g><g transform="translate(221.63160320166497 482.6510216716677) rotate(0 10.5 -1)" stroke="none"><path fill="#e03131" d="M -0.26,-1.32 Q -0.26,-1.32 1.08,-2.03 2.43,-2.75 4.47,-3.23 6.50,-3.72 8.96,-3.81 11.42,-3.90 13.60,-3.76 15.79,-3.61 17.91,-3.45 20.04,-3.29 20.25,-3.26 20.46,-3.23 20.65,-3.13 20.84,-3.04 20.99,-2.89 21.14,-2.74 21.23,-2.54 21.32,-2.35 21.35,-2.14 21.38,-1.93 21.34,-1.72 21.29,-1.52 21.19,-1.33 21.08,-1.15 20.92,-1.01 20.77,-0.86 20.57,-0.78 20.37,-0.70 20.16,-0.68 19.95,-0.67 19.74,-0.72 19.54,-0.77 19.36,-0.89 19.18,-1.00 19.05,-1.17 18.92,-1.34 18.85,-1.54 18.77,-1.74 18.77,-1.95 18.76,-2.16 18.83,-2.36 18.89,-2.57 19.02,-2.74 19.14,-2.91 19.32,-3.03 19.49,-3.16 19.69,-3.22 19.90,-3.28 20.11,-3.27 20.32,-3.26 20.52,-3.19 20.72,-3.11 20.88,-2.98 21.05,-2.85 21.16,-2.67 21.27,-2.49 21.32,-2.28 21.37,-2.07 21.36,-1.86 21.34,-1.65 21.25,-1.46 21.17,-1.26 21.02,-1.10 20.88,-0.95 20.70,-0.84 20.51,-0.74 20.30,-0.70 20.09,-0.66 20.09,-0.66 20.09,-0.66 18.00,-0.41 15.90,-0.16 13.83,0.12 11.75,0.42 9.59,0.67 7.43,0.93 5.37,1.27 3.31,1.60 1.78,1.46 0.26,1.32 0.10,1.33 -0.05,1.34 -0.21,1.31 -0.37,1.29 -0.52,1.22 -0.67,1.16 -0.80,1.06 -0.93,0.96 -1.03,0.84 -1.14,0.71 -1.21,0.56 -1.27,0.42 -1.31,0.26 -1.34,0.10 -1.33,-0.05 -1.32,-0.22 -1.28,-0.37 -1.23,-0.53 -1.15,-0.67 -1.07,-0.81 -0.96,-0.93 -0.84,-1.04 -0.70,-1.13 -0.57,-1.21 -0.41,-1.26 -0.26,-1.32 -0.26,-1.32 L -0.26,-1.32 Z"></path></g><g transform="translate(227.63160320166497 489.6510216716677) rotate(0 6 1)" stroke="none"><path fill="#e03131" d="M 0.26,1.34 Q 0.26,1.34 -1.08,1.90 -2.43,2.46 -3.03,3.09 -3.63,3.71 -3.91,3.73 -4.20,3.76 -4.48,3.71 -4.76,3.66 -5.02,3.55 -5.28,3.44 -5.51,3.26 -5.74,3.09 -5.92,2.87 -6.10,2.65 -6.22,2.39 -6.34,2.13 -6.40,1.85 -6.45,1.57 -6.44,1.29 -6.43,1.00 -6.35,0.73 -6.27,0.45 -6.12,0.21 -5.98,-0.03 -5.78,-0.24 -5.58,-0.44 -5.34,-0.59 -5.10,-0.74 -4.83,-0.83 -4.56,-0.92 -2.95,-1.15 -1.34,-1.38 0.80,-1.44 2.94,-1.50 5.44,-1.56 7.93,-1.62 11.63,-1.42 15.33,-1.22 15.55,-1.20 15.76,-1.17 15.95,-1.08 16.14,-1.00 16.30,-0.85 16.45,-0.70 16.55,-0.52 16.65,-0.33 16.69,-0.12 16.72,0.08 16.69,0.29 16.65,0.50 16.55,0.69 16.45,0.88 16.30,1.02 16.14,1.17 15.95,1.26 15.76,1.35 15.55,1.37 15.34,1.39 15.13,1.35 14.92,1.30 14.74,1.19 14.56,1.08 14.42,0.92 14.28,0.76 14.20,0.56 14.12,0.36 14.11,0.15 14.10,-0.05 14.16,-0.25 14.21,-0.46 14.33,-0.63 14.45,-0.81 14.62,-0.94 14.79,-1.07 14.99,-1.14 15.19,-1.20 15.41,-1.20 15.62,-1.20 15.82,-1.14 16.02,-1.07 16.19,-0.94 16.36,-0.81 16.48,-0.64 16.60,-0.46 16.65,-0.26 16.71,-0.05 16.70,0.15 16.69,0.36 16.61,0.56 16.53,0.76 16.39,0.92 16.26,1.08 16.07,1.19 15.89,1.30 15.69,1.35 15.48,1.39 15.48,1.39 15.48,1.39 11.97,1.99 8.47,2.58 5.83,3.17 3.18,3.76 1.36,3.89 -0.45,4.01 -2.04,3.86 -3.63,3.71 -3.91,3.73 -4.20,3.76 -4.48,3.71 -4.76,3.66 -5.02,3.55 -5.28,3.44 -5.51,3.26 -5.74,3.09 -5.92,2.87 -6.10,2.65 -6.22,2.39 -6.34,2.13 -6.40,1.85 -6.45,1.57 -6.44,1.29 -6.43,1.00 -6.35,0.73 -6.27,0.45 -6.12,0.21 -5.98,-0.03 -5.78,-0.24 -5.58,-0.44 -5.34,-0.59 -5.10,-0.74 -4.83,-0.83 -4.56,-0.92 -3.93,-1.12 -3.31,-1.31 -1.78,-1.32 -0.26,-1.34 -0.10,-1.35 0.06,-1.36 0.22,-1.34 0.38,-1.31 0.53,-1.24 0.68,-1.18 0.82,-1.08 0.95,-0.98 1.05,-0.85 1.16,-0.72 1.23,-0.57 1.30,-0.42 1.33,-0.26 1.36,-0.10 1.35,0.06 1.35,0.22 1.30,0.38 1.25,0.54 1.17,0.68 1.09,0.82 0.97,0.94 0.86,1.06 0.72,1.15 0.58,1.23 0.42,1.29 0.26,1.34 0.26,1.34 L 0.26,1.34 Z"></path></g><g transform="translate(265.631603201665 459.6510216716677) rotate(0 22.5 20)" stroke="none"><path fill="#e03131" d="M 0,-1.34 Q 0,-1.34 0.99,-1.05 1.98,-0.76 2.64,1.11 3.30,2.99 3.79,5.18 4.28,7.37 4.82,10.64 5.36,13.92 5.92,17.60 6.47,21.27 7.02,24.83 7.58,28.39 7.85,31.72 8.11,35.04 8.50,36.84 8.89,38.63 9.07,39.75 9.26,40.86 9.28,41.17 9.30,41.47 9.25,41.77 9.19,42.08 9.07,42.36 8.95,42.64 8.76,42.88 8.57,43.12 8.33,43.32 8.09,43.51 7.82,43.64 7.54,43.76 7.24,43.82 6.94,43.88 6.63,43.87 6.32,43.85 6.03,43.76 5.74,43.67 5.47,43.52 5.21,43.36 4.99,43.15 4.77,42.93 4.61,42.67 4.45,42.41 4.35,42.12 4.26,41.83 4.95,38.91 5.64,36.00 6.15,33.33 6.67,30.66 7.83,27.54 8.98,24.42 10.05,21.96 11.12,19.50 12.86,17.09 14.60,14.68 16.95,12.69 19.30,10.70 21.74,9.77 24.17,8.85 26.13,8.82 28.09,8.78 29.84,9.86 31.59,10.94 32.65,12.55 33.71,14.15 33.88,16.05 34.05,17.94 33.41,19.78 32.78,21.62 31.87,23.03 30.96,24.44 29.98,25.62 29.00,26.81 27.93,27.68 26.85,28.55 28.07,29.18 29.28,29.80 30.77,30.38 32.25,30.95 33.63,31.22 35.01,31.49 36.86,32.01 38.71,32.52 40.37,33.12 42.03,33.72 43.49,34.62 44.96,35.51 45.13,35.64 45.30,35.76 45.43,35.93 45.55,36.10 45.61,36.31 45.68,36.51 45.67,36.72 45.67,36.93 45.60,37.13 45.52,37.33 45.39,37.50 45.26,37.67 45.08,37.78 44.90,37.90 44.69,37.95 44.49,38.00 44.28,37.98 44.07,37.97 43.87,37.88 43.67,37.80 43.52,37.66 43.36,37.52 43.25,37.33 43.15,37.15 43.11,36.94 43.06,36.73 43.09,36.52 43.12,36.31 43.21,36.12 43.31,35.93 43.46,35.78 43.61,35.63 43.80,35.53 43.99,35.44 44.20,35.41 44.41,35.38 44.62,35.42 44.82,35.46 45.01,35.56 45.20,35.66 45.34,35.82 45.48,35.98 45.57,36.17 45.65,36.37 45.67,36.58 45.69,36.79 45.64,37.00 45.59,37.21 45.47,37.39 45.36,37.56 45.19,37.70 45.03,37.83 44.83,37.91 44.63,37.98 44.42,37.99 44.20,37.99 44.00,37.93 43.80,37.87 43.80,37.87 43.80,37.87 42.46,37.39 41.12,36.91 39.50,36.59 37.88,36.27 36.08,35.97 34.28,35.68 32.48,35.40 30.68,35.11 28.74,34.38 26.80,33.65 25.17,32.45 23.53,31.25 23.07,29.95 22.61,28.65 24.16,26.32 25.71,23.98 26.57,23.01 27.43,22.03 28.14,21.06 28.85,20.09 29.32,19.02 29.80,17.96 29.34,16.25 28.88,14.55 27.32,13.96 25.76,13.38 24.10,13.97 22.44,14.57 20.56,16.14 18.68,17.72 17.24,19.64 15.79,21.56 14.78,23.89 13.77,26.21 12.74,28.93 11.71,31.65 11.14,34.61 10.56,37.57 9.91,39.22 9.26,40.86 9.28,41.17 9.30,41.47 9.25,41.77 9.19,42.08 9.07,42.36 8.95,42.64 8.76,42.88 8.57,43.12 8.33,43.32 8.10,43.51 7.82,43.64 7.54,43.76 7.24,43.82 6.94,43.88 6.63,43.87 6.32,43.85 6.03,43.76 5.74,43.67 5.47,43.52 5.21,43.36 4.99,43.15 4.77,42.93 4.61,42.67 4.45,42.41 4.35,42.12 4.26,41.83 4.12,40.70 3.99,39.58 3.62,37.47 3.25,35.36 3.10,32.20 2.94,29.04 2.50,25.45 2.06,21.87 1.63,18.21 1.20,14.54 0.77,11.37 0.35,8.20 -0.08,6.05 -0.51,3.90 -0.67,2.33 -0.83,0.76 -0.41,1.05 0,1.34 -0.16,1.32 -0.32,1.30 -0.47,1.24 -0.62,1.18 -0.75,1.09 -0.89,1.00 -0.99,0.88 -1.10,0.76 -1.18,0.61 -1.25,0.47 -1.29,0.31 -1.33,0.16 -1.33,-0.00 -1.33,-0.16 -1.29,-0.31 -1.25,-0.47 -1.18,-0.61 -1.10,-0.76 -0.99,-0.88 -0.89,-1.00 -0.75,-1.09 -0.62,-1.18 -0.47,-1.24 -0.32,-1.30 -0.16,-1.32 0.00,-1.34 0.00,-1.34 L 0,-1.34 Z"></path></g><g transform="translate(328.631603201665 501.6510216716677) rotate(0 10.5 -16)" stroke="none"><path fill="#e03131" d="M -1.36,-0.19 Q -1.36,-0.19 -1.23,-2.23 -1.10,-4.26 -0.71,-6.59 -0.33,-8.91 0.11,-11.08 0.56,-13.24 0.98,-15.85 1.41,-18.45 1.59,-19.83 1.77,-21.20 2.05,-23.82 2.34,-26.44 2.49,-28.10 2.65,-29.76 3.61,-31.13 4.56,-32.51 5.94,-32.71 7.31,-32.90 8.43,-32.12 9.56,-31.34 10.48,-30.09 11.39,-28.85 12.52,-27.56 13.64,-26.27 14.79,-24.40 15.95,-22.53 17.00,-20.59 18.06,-18.65 18.84,-16.58 19.62,-14.51 20.20,-13.15 20.78,-11.78 21.35,-10.26 21.93,-8.73 21.94,-7.20 21.95,-5.67 21.72,-4.51 21.49,-3.36 20.65,-2.56 19.81,-1.76 18.67,-1.47 17.53,-1.18 15.71,-1.33 13.88,-1.48 12.47,-1.55 11.06,-1.61 9.40,-1.98 7.74,-2.35 6.65,-2.55 5.55,-2.75 3.73,-2.83 1.90,-2.92 1.69,-2.88 1.48,-2.85 1.27,-2.88 1.06,-2.91 0.87,-3.01 0.68,-3.11 0.54,-3.26 0.39,-3.41 0.30,-3.60 0.21,-3.79 0.18,-4.01 0.15,-4.22 0.20,-4.42 0.24,-4.63 0.35,-4.82 0.46,-5.00 0.62,-5.14 0.78,-5.28 0.97,-5.36 1.17,-5.44 1.38,-5.45 1.59,-5.47 1.80,-5.41 2.01,-5.36 2.18,-5.24 2.36,-5.12 2.49,-4.96 2.62,-4.79 2.69,-4.59 2.76,-4.39 2.76,-4.17 2.77,-3.96 2.70,-3.76 2.63,-3.56 2.51,-3.39 2.38,-3.22 2.21,-3.10 2.03,-2.97 1.83,-2.91 1.62,-2.86 1.41,-2.86 1.20,-2.87 1.00,-2.95 0.80,-3.03 0.64,-3.16 0.48,-3.30 0.36,-3.48 0.25,-3.66 0.20,-3.87 0.16,-4.07 0.18,-4.29 0.20,-4.50 0.28,-4.69 0.37,-4.89 0.52,-5.04 0.66,-5.20 0.85,-5.30 1.03,-5.40 1.03,-5.40 1.03,-5.40 3.53,-6.11 6.02,-6.83 7.35,-6.75 8.68,-6.67 10.02,-6.38 11.36,-6.09 12.95,-5.97 14.54,-5.84 16.56,-5.41 18.57,-4.99 18.52,-6.28 18.46,-7.57 17.95,-8.96 17.44,-10.36 16.83,-11.80 16.22,-13.24 15.54,-15.07 14.86,-16.89 13.84,-18.71 12.81,-20.53 11.79,-22.10 10.76,-23.66 9.45,-25.03 8.15,-26.41 7.51,-27.83 6.87,-29.26 6.71,-27.55 6.55,-25.84 6.08,-23.24 5.62,-20.64 5.38,-19.20 5.15,-17.77 4.61,-15.12 4.07,-12.47 3.59,-10.38 3.12,-8.30 2.68,-6.04 2.25,-3.78 1.81,-1.79 1.36,0.19 1.32,0.35 1.28,0.51 1.20,0.66 1.12,0.80 1.00,0.93 0.89,1.05 0.75,1.14 0.61,1.23 0.45,1.29 0.30,1.35 0.13,1.36 -0.02,1.38 -0.19,1.35 -0.35,1.33 -0.51,1.27 -0.66,1.21 -0.80,1.11 -0.93,1.01 -1.04,0.88 -1.15,0.76 -1.22,0.61 -1.30,0.46 -1.34,0.30 -1.37,0.13 -1.37,-0.02 -1.36,-0.19 -1.36,-0.19 L -1.36,-0.19 Z"></path></g><g transform="translate(356.631603201665 473.6510216716677) rotate(0 14.5 10)" stroke="none"><path fill="#e03131" d="M 0.42,-1.26 Q 0.42,-1.26 2.32,-1.23 4.23,-1.21 5.86,-0.77 7.49,-0.34 10.04,0.75 12.60,1.85 15.25,3.56 17.90,5.27 19.91,6.91 21.93,8.54 23.61,10.17 25.29,11.80 26.56,13.55 27.82,15.29 28.88,17.63 29.94,19.96 30.00,20.16 30.07,20.36 30.07,20.58 30.07,20.79 30.00,20.99 29.93,21.19 29.80,21.36 29.67,21.53 29.49,21.65 29.31,21.76 29.11,21.82 28.90,21.87 28.69,21.86 28.48,21.85 28.28,21.77 28.09,21.69 27.93,21.55 27.76,21.41 27.66,21.23 27.55,21.04 27.50,20.83 27.46,20.63 27.49,20.42 27.51,20.20 27.60,20.01 27.69,19.82 27.84,19.67 27.99,19.51 28.17,19.42 28.36,19.32 28.57,19.29 28.78,19.25 28.99,19.29 29.20,19.33 29.39,19.43 29.58,19.53 29.72,19.68 29.87,19.84 29.95,20.03 30.04,20.23 30.06,20.44 30.08,20.65 30.04,20.86 29.99,21.06 29.88,21.24 29.77,21.43 29.60,21.56 29.44,21.70 29.24,21.77 29.04,21.85 28.83,21.86 28.62,21.87 28.41,21.81 28.21,21.75 28.04,21.63 27.86,21.51 27.73,21.34 27.61,21.17 27.61,21.17 27.61,21.17 25.99,19.70 24.37,18.24 23.06,16.97 21.75,15.70 20.08,14.28 18.42,12.87 16.62,11.41 14.82,9.95 12.55,8.44 10.29,6.93 8.03,5.85 5.78,4.77 4.22,4.14 2.66,3.51 1.12,2.38 -0.42,1.26 -0.56,1.19 -0.71,1.12 -0.83,1.02 -0.96,0.92 -1.05,0.79 -1.15,0.66 -1.21,0.51 -1.27,0.37 -1.30,0.21 -1.33,0.05 -1.31,-0.10 -1.30,-0.26 -1.25,-0.41 -1.20,-0.57 -1.11,-0.70 -1.03,-0.84 -0.91,-0.95 -0.80,-1.06 -0.66,-1.14 -0.52,-1.22 -0.36,-1.26 -0.21,-1.31 -0.05,-1.32 0.10,-1.32 0.26,-1.29 0.42,-1.26 0.42,-1.26 L 0.42,-1.26 Z"></path></g><g transform="translate(388.631603201665 465.6510216716677) rotate(0 -15.5 20)" stroke="none"><path fill="#e03131" d="M 1.06,0.91 Q 1.06,0.91 -0.31,3.21 -1.69,5.52 -3.77,7.98 -5.85,10.44 -8.07,13.38 -10.30,16.33 -12.74,19.35 -15.18,22.37 -17.68,25.36 -20.18,28.34 -21.85,30.38 -23.51,32.42 -24.94,34.22 -26.37,36.03 -27.97,38.04 -29.58,40.04 -29.69,40.22 -29.81,40.40 -29.98,40.53 -30.15,40.66 -30.35,40.73 -30.55,40.80 -30.76,40.80 -30.97,40.80 -31.17,40.74 -31.38,40.67 -31.55,40.54 -31.72,40.42 -31.84,40.24 -31.96,40.07 -32.02,39.86 -32.08,39.66 -32.07,39.45 -32.06,39.24 -31.98,39.04 -31.91,38.84 -31.77,38.68 -31.64,38.51 -31.45,38.40 -31.27,38.29 -31.07,38.24 -30.86,38.19 -30.65,38.21 -30.44,38.23 -30.24,38.32 -30.05,38.41 -29.89,38.55 -29.74,38.70 -29.64,38.88 -29.53,39.07 -29.50,39.28 -29.46,39.49 -29.49,39.70 -29.53,39.91 -29.62,40.10 -29.72,40.29 -29.87,40.44 -30.03,40.58 -30.22,40.67 -30.41,40.77 -30.62,40.79 -30.83,40.82 -31.04,40.77 -31.25,40.73 -31.43,40.62 -31.61,40.51 -31.75,40.35 -31.89,40.19 -31.97,40.00 -32.05,39.80 -32.07,39.59 -32.08,39.38 -32.03,39.17 -31.97,38.97 -31.97,38.97 -31.97,38.97 -30.92,36.42 -29.87,33.88 -28.77,31.57 -27.67,29.26 -26.08,27.02 -24.49,24.78 -22.05,21.77 -19.60,18.77 -17.16,15.80 -14.72,12.83 -12.22,9.80 -9.72,6.77 -7.46,4.64 -5.20,2.52 -3.13,0.80 -1.06,-0.91 -0.93,-1.02 -0.81,-1.13 -0.66,-1.21 -0.51,-1.29 -0.35,-1.34 -0.19,-1.38 -0.02,-1.38 0.14,-1.39 0.31,-1.35 0.47,-1.31 0.62,-1.23 0.77,-1.16 0.90,-1.05 1.03,-0.94 1.12,-0.80 1.22,-0.67 1.28,-0.51 1.35,-0.35 1.37,-0.18 1.39,-0.02 1.38,0.14 1.36,0.31 1.30,0.47 1.24,0.62 1.15,0.77 1.06,0.91 1.06,0.91 L 1.06,0.91 Z"></path></g><g transform="translate(131.63160320166497 614.6510216716676) rotate(0 25 -11)" stroke="none"><path fill="#e03131" d="M -0.93,-0.93 Q -0.93,-0.93 -0.05,-2.35 0.81,-3.77 2.03,-5.57 3.25,-7.37 4.65,-9.59 6.06,-11.81 7.49,-14.44 8.93,-17.07 10.11,-19.34 11.29,-21.62 12.35,-23.74 13.40,-25.87 14.45,-27.71 15.50,-29.54 16.59,-30.99 17.69,-32.44 19.58,-33.24 21.48,-34.03 22.77,-33.42 24.07,-32.81 24.97,-31.76 25.88,-30.70 27.09,-28.81 28.31,-26.93 29.71,-24.37 31.10,-21.81 32.82,-18.76 34.53,-15.70 36.61,-12.77 38.69,-9.83 40.74,-6.78 42.79,-3.73 44.46,-1.65 46.14,0.43 47.69,2.17 49.25,3.91 50.29,5.32 51.34,6.74 51.68,8.69 52.01,10.64 50.68,11.90 49.36,13.17 47.20,13.07 45.05,12.98 42.59,12.63 40.14,12.28 37.52,12.15 34.90,12.01 32.62,11.94 30.34,11.87 27.94,11.79 25.55,11.72 23.66,11.55 21.78,11.37 19.97,10.84 18.17,10.31 17.96,10.27 17.75,10.24 17.57,10.14 17.38,10.04 17.24,9.88 17.09,9.73 17.00,9.53 16.91,9.34 16.89,9.13 16.87,8.92 16.92,8.71 16.97,8.50 17.08,8.32 17.19,8.14 17.35,8.00 17.51,7.87 17.71,7.79 17.91,7.71 18.12,7.70 18.33,7.69 18.54,7.75 18.74,7.81 18.92,7.93 19.09,8.05 19.22,8.22 19.35,8.39 19.41,8.59 19.48,8.79 19.48,9.01 19.48,9.22 19.41,9.42 19.34,9.62 19.21,9.79 19.08,9.96 18.90,10.07 18.72,10.19 18.52,10.25 18.31,10.30 18.10,10.29 17.89,10.28 17.69,10.20 17.50,10.12 17.34,9.98 17.18,9.84 17.07,9.66 16.96,9.47 16.91,9.27 16.87,9.06 16.90,8.85 16.92,8.64 17.01,8.44 17.10,8.25 17.25,8.10 17.40,7.94 17.58,7.85 17.77,7.75 17.98,7.72 18.19,7.68 18.19,7.68 18.19,7.68 20.00,7.17 21.81,6.65 23.71,6.50 25.61,6.36 28.06,6.34 30.51,6.33 32.87,6.39 35.23,6.46 38.11,6.65 41.00,6.84 43.38,7.25 45.77,7.67 46.78,8.49 47.79,9.32 46.89,8.08 46.00,6.84 44.35,5.03 42.70,3.23 40.89,1.02 39.07,-1.17 36.98,-4.14 34.89,-7.11 32.63,-10.24 30.37,-13.36 28.63,-16.45 26.90,-19.53 25.60,-21.95 24.30,-24.37 22.80,-27.00 21.30,-29.63 20.36,-28.43 19.43,-27.23 18.40,-25.53 17.38,-23.84 16.26,-21.72 15.14,-19.60 13.93,-17.29 12.71,-14.99 11.20,-12.25 9.68,-9.51 8.21,-7.21 6.74,-4.92 5.26,-2.87 3.78,-0.82 2.35,0.05 0.93,0.93 0.81,1.03 0.68,1.13 0.53,1.19 0.39,1.26 0.23,1.29 0.07,1.32 -0.07,1.31 -0.23,1.30 -0.39,1.25 -0.54,1.20 -0.68,1.12 -0.81,1.04 -0.92,0.92 -1.04,0.81 -1.12,0.68 -1.20,0.54 -1.25,0.39 -1.30,0.23 -1.31,0.07 -1.32,-0.08 -1.29,-0.23 -1.26,-0.39 -1.19,-0.53 -1.13,-0.68 -1.03,-0.81 -0.93,-0.93 -0.93,-0.93 L -0.93,-0.93 Z"></path></g><g transform="translate(193.63160320166497 592.6510216716676) rotate(0 16.5 15)" stroke="none"><path fill="#e03131" d="M 0.86,-1.01 Q 0.86,-1.01 3.20,0.33 5.53,1.68 7.96,3.80 10.38,5.91 12.55,7.96 14.72,10.02 16.21,11.47 17.70,12.93 20.82,15.87 23.94,18.81 26.08,21.04 28.22,23.27 29.44,24.89 30.66,26.51 31.82,27.80 32.97,29.09 33.06,29.28 33.15,29.48 33.17,29.69 33.19,29.90 33.15,30.11 33.10,30.31 32.99,30.50 32.88,30.68 32.72,30.82 32.56,30.95 32.36,31.03 32.16,31.11 31.95,31.12 31.74,31.13 31.54,31.08 31.33,31.02 31.15,30.90 30.98,30.78 30.85,30.61 30.72,30.44 30.65,30.24 30.59,30.04 30.59,29.83 30.59,29.62 30.65,29.41 30.72,29.21 30.85,29.04 30.98,28.87 31.15,28.76 31.33,28.64 31.54,28.58 31.74,28.52 31.95,28.53 32.16,28.55 32.36,28.62 32.56,28.70 32.72,28.84 32.88,28.98 32.99,29.16 33.10,29.34 33.15,29.55 33.19,29.76 33.17,29.97 33.15,30.18 33.06,30.37 32.97,30.57 32.82,30.72 32.68,30.87 32.49,30.97 32.30,31.07 32.09,31.11 31.88,31.14 31.67,31.11 31.46,31.07 31.27,30.97 31.09,30.87 30.94,30.72 30.79,30.57 30.79,30.57 30.80,30.57 29.24,29.85 27.68,29.14 26.43,27.82 25.17,26.50 22.86,24.53 20.54,22.55 17.23,19.65 13.93,16.76 12.46,15.30 10.99,13.84 8.91,11.75 6.83,9.67 4.67,7.44 2.51,5.21 0.82,3.11 -0.86,1.01 -0.97,0.89 -1.08,0.77 -1.16,0.63 -1.23,0.49 -1.27,0.33 -1.31,0.18 -1.32,0.02 -1.32,-0.13 -1.28,-0.29 -1.25,-0.45 -1.18,-0.59 -1.10,-0.73 -1.00,-0.86 -0.89,-0.98 -0.76,-1.07 -0.63,-1.16 -0.48,-1.22 -0.33,-1.28 -0.18,-1.30 -0.02,-1.33 0.13,-1.31 0.29,-1.29 0.44,-1.24 0.59,-1.18 0.73,-1.10 0.86,-1.01 0.86,-1.01 L 0.86,-1.01 Z"></path></g><g transform="translate(223.63160320166497 593.6510216716676) rotate(0 -13.5 14)" stroke="none"><path fill="#e03131" d="M 0.94,0.94 Q 0.94,0.94 -1.05,3.54 -3.06,6.13 -5.69,8.72 -8.33,11.30 -10.83,13.79 -13.33,16.29 -15.30,18.16 -17.28,20.03 -19.08,21.76 -20.89,23.48 -23.21,25.81 -25.53,28.13 -25.67,28.29 -25.81,28.45 -26.00,28.56 -26.18,28.67 -26.39,28.71 -26.60,28.75 -26.81,28.72 -27.02,28.70 -27.21,28.61 -27.40,28.51 -27.55,28.37 -27.71,28.22 -27.80,28.03 -27.90,27.84 -27.93,27.63 -27.96,27.42 -27.92,27.21 -27.89,27.00 -27.79,26.81 -27.68,26.63 -27.53,26.48 -27.37,26.34 -27.18,26.25 -26.98,26.17 -26.77,26.15 -26.56,26.13 -26.35,26.18 -26.15,26.23 -25.96,26.34 -25.78,26.45 -25.65,26.61 -25.51,26.78 -25.44,26.98 -25.36,27.17 -25.35,27.39 -25.35,27.60 -25.41,27.80 -25.47,28.01 -25.59,28.18 -25.71,28.36 -25.88,28.48 -26.05,28.61 -26.25,28.67 -26.46,28.74 -26.67,28.73 -26.88,28.73 -27.08,28.66 -27.28,28.59 -27.45,28.46 -27.62,28.33 -27.73,28.15 -27.85,27.97 -27.90,27.77 -27.96,27.56 -27.94,27.35 -27.93,27.14 -27.85,26.94 -27.76,26.74 -27.76,26.74 -27.76,26.75 -25.93,23.73 -24.09,20.71 -22.50,18.51 -20.91,16.31 -18.96,14.36 -17.02,12.41 -14.35,9.98 -11.67,7.55 -8.90,5.30 -6.13,3.06 -3.54,1.05 -0.94,-0.94 -0.81,-1.04 -0.69,-1.14 -0.54,-1.21 -0.39,-1.27 -0.23,-1.30 -0.08,-1.33 0.08,-1.32 0.24,-1.31 0.39,-1.26 0.54,-1.22 0.68,-1.13 0.82,-1.05 0.94,-0.94 1.05,-0.82 1.13,-0.68 1.22,-0.54 1.26,-0.39 1.31,-0.24 1.32,-0.08 1.33,0.08 1.30,0.23 1.27,0.39 1.21,0.54 1.14,0.69 1.04,0.82 0.94,0.94 0.94,0.94 L 0.94,0.94 Z"></path></g><g transform="translate(242.63160320166497 595.6510216716676) rotate(0 10 0)" stroke="none"><path fill="#e03131" d="M -0.19,-1.39 Q -0.19,-1.39 1.77,-1.96 3.74,-2.54 6.12,-2.61 8.51,-2.69 11.05,-2.31 13.59,-1.93 16.33,-1.23 19.07,-0.53 19.27,-0.45 19.47,-0.37 19.63,-0.24 19.80,-0.10 19.91,0.07 20.02,0.25 20.07,0.46 20.12,0.66 20.10,0.87 20.08,1.08 19.99,1.28 19.91,1.47 19.76,1.63 19.62,1.79 19.43,1.89 19.25,1.99 19.04,2.03 18.83,2.06 18.62,2.03 18.41,2.00 18.22,1.90 18.03,1.81 17.88,1.66 17.73,1.50 17.64,1.31 17.55,1.12 17.52,0.91 17.50,0.70 17.54,0.49 17.58,0.28 17.69,0.10 17.80,-0.07 17.96,-0.21 18.12,-0.35 18.31,-0.44 18.51,-0.52 18.72,-0.53 18.93,-0.55 19.14,-0.49 19.34,-0.44 19.52,-0.32 19.70,-0.20 19.83,-0.04 19.96,0.12 20.03,0.32 20.10,0.52 20.11,0.73 20.11,0.95 20.04,1.15 19.98,1.35 19.85,1.52 19.73,1.69 19.55,1.81 19.38,1.94 19.17,2.00 18.97,2.06 18.76,2.05 18.54,2.04 18.54,2.04 18.54,2.04 15.91,1.64 13.27,1.24 10.99,1.14 8.70,1.05 6.50,1.22 4.30,1.39 2.25,1.39 0.19,1.39 0.02,1.39 -0.14,1.39 -0.30,1.36 -0.47,1.32 -0.62,1.24 -0.77,1.17 -0.90,1.06 -1.03,0.95 -1.13,0.81 -1.23,0.67 -1.29,0.52 -1.35,0.36 -1.38,0.19 -1.40,0.02 -1.38,-0.13 -1.37,-0.30 -1.31,-0.46 -1.25,-0.62 -1.16,-0.76 -1.07,-0.91 -0.94,-1.02 -0.82,-1.14 -0.67,-1.22 -0.52,-1.30 -0.36,-1.34 -0.19,-1.39 -0.19,-1.39 L -0.19,-1.39 Z"></path></g><g transform="translate(250.63160320166497 605.6510216716676) rotate(0 3 0.5)" stroke="none"><path fill="#e03131" d="M 0,-1.35 Q 0,-1.35 0.28,-1.71 0.57,-2.07 1.84,-1.89 3.11,-1.70 5.78,-1.50 8.44,-1.31 8.65,-1.27 8.86,-1.24 9.05,-1.14 9.23,-1.04 9.38,-0.89 9.53,-0.73 9.62,-0.54 9.71,-0.35 9.73,-0.14 9.75,0.07 9.71,0.27 9.66,0.48 9.55,0.66 9.44,0.85 9.28,0.98 9.12,1.12 8.92,1.20 8.72,1.28 8.51,1.29 8.30,1.30 8.09,1.24 7.89,1.19 7.71,1.07 7.54,0.95 7.41,0.78 7.28,0.61 7.21,0.41 7.14,0.21 7.14,-0.00 7.14,-0.21 7.21,-0.41 7.28,-0.61 7.41,-0.78 7.54,-0.95 7.71,-1.07 7.89,-1.19 8.09,-1.24 8.30,-1.30 8.51,-1.29 8.72,-1.28 8.92,-1.20 9.12,-1.12 9.28,-0.98 9.44,-0.84 9.55,-0.66 9.66,-0.48 9.71,-0.27 9.75,-0.07 9.73,0.14 9.71,0.35 9.62,0.54 9.53,0.73 9.38,0.89 9.23,1.04 9.05,1.14 8.86,1.24 8.65,1.27 8.44,1.31 8.44,1.31 8.44,1.31 5.78,1.50 3.11,1.70 1.84,1.89 0.57,2.07 0.28,1.71 0,1.35 -0.16,1.33 -0.32,1.31 -0.47,1.26 -0.63,1.20 -0.76,1.10 -0.90,1.01 -1.00,0.89 -1.11,0.77 -1.19,0.62 -1.26,0.48 -1.30,0.32 -1.34,0.16 -1.34,-0.00 -1.34,-0.16 -1.30,-0.32 -1.26,-0.48 -1.19,-0.62 -1.11,-0.77 -1.00,-0.89 -0.90,-1.01 -0.76,-1.10 -0.63,-1.20 -0.47,-1.26 -0.32,-1.31 -0.16,-1.33 0.00,-1.35 0.00,-1.35 L 0,-1.35 Z"></path></g><g transform="translate(302.631603201665 577.6510216716676) rotate(0 14.5 -14)" stroke="none"><path fill="#e03131" d="M -1.21,-0.52 Q -1.21,-0.52 -0.51,-2.60 0.18,-4.68 1.09,-6.97 1.99,-9.27 2.66,-11.08 3.33,-12.90 4.50,-15.47 5.68,-18.03 6.73,-20.51 7.78,-22.99 8.84,-24.99 9.90,-26.99 10.62,-28.38 11.34,-29.76 12.17,-30.85 13.00,-31.95 14.30,-32.19 15.60,-32.44 16.58,-31.73 17.57,-31.03 18.23,-29.71 18.90,-28.38 19.63,-27.13 20.37,-25.88 21.20,-24.83 22.03,-23.78 23.05,-22.04 24.07,-20.29 25.07,-18.42 26.07,-16.54 27.07,-14.59 28.08,-12.65 28.82,-10.91 29.57,-9.16 29.93,-7.74 30.29,-6.31 30.31,-4.27 30.33,-2.23 29.29,-1.22 28.24,-0.21 26.71,0.17 25.17,0.57 23.22,0.97 21.27,1.37 19.01,1.82 16.74,2.27 15.29,2.71 13.85,3.15 11.54,3.81 9.23,4.46 9.10,4.63 8.98,4.81 8.80,4.93 8.63,5.05 8.42,5.11 8.22,5.17 8.01,5.16 7.80,5.15 7.60,5.07 7.40,5.00 7.24,4.86 7.07,4.72 6.96,4.54 6.85,4.36 6.80,4.16 6.75,3.95 6.77,3.74 6.79,3.53 6.88,3.33 6.97,3.14 7.11,2.98 7.26,2.83 7.44,2.72 7.63,2.62 7.84,2.59 8.05,2.55 8.26,2.58 8.47,2.61 8.66,2.71 8.85,2.81 8.99,2.96 9.14,3.11 9.23,3.30 9.32,3.50 9.35,3.71 9.38,3.92 9.33,4.13 9.29,4.33 9.18,4.52 9.07,4.70 8.91,4.84 8.75,4.98 8.56,5.06 8.36,5.14 8.15,5.16 7.94,5.17 7.73,5.12 7.53,5.06 7.35,4.94 7.17,4.83 7.04,4.66 6.91,4.49 6.84,4.29 6.77,4.09 6.77,3.88 6.76,3.67 6.83,3.46 6.90,3.26 6.90,3.26 6.90,3.26 9.79,1.34 12.69,-0.57 14.32,-1.09 15.96,-1.61 18.23,-2.07 20.50,-2.52 23.36,-2.98 26.23,-3.44 26.52,-4.47 26.81,-5.50 26.56,-6.65 26.32,-7.81 25.65,-9.43 24.98,-11.06 23.99,-12.98 23.01,-14.91 22.04,-16.72 21.07,-18.53 20.17,-20.05 19.26,-21.57 18.27,-22.80 17.28,-24.03 15.90,-26.07 14.51,-28.11 13.78,-26.71 13.05,-25.31 12.06,-23.45 11.06,-21.60 9.98,-19.07 8.90,-16.55 7.76,-14.11 6.63,-11.66 5.92,-9.80 5.21,-7.94 4.23,-5.65 3.26,-3.36 2.23,-1.42 1.21,0.52 1.13,0.65 1.05,0.79 0.94,0.91 0.83,1.02 0.70,1.11 0.56,1.19 0.41,1.24 0.26,1.29 0.10,1.31 -0.05,1.32 -0.21,1.29 -0.37,1.27 -0.51,1.20 -0.66,1.14 -0.79,1.04 -0.91,0.95 -1.02,0.82 -1.12,0.70 -1.18,0.56 -1.25,0.41 -1.28,0.26 -1.32,0.10 -1.31,-0.05 -1.30,-0.21 -1.26,-0.36 -1.21,-0.52 -1.21,-0.52 L -1.21,-0.52 Z"></path></g><g transform="translate(346.631603201665 556.6510216716676) rotate(0 9 20)" stroke="none"><path fill="#e03131" d="M 1.25,0.47 Q 1.25,0.47 0.56,2.83 -0.11,5.19 -0.41,7.16 -0.71,9.14 -0.57,10.67 -0.43,12.21 0.69,13.39 1.81,14.58 3.84,13.35 5.87,12.13 6.83,10.48 7.79,8.83 8.52,7.26 9.24,5.69 9.79,3.92 10.34,2.15 10.98,0.63 11.63,-0.89 12.05,-1.08 12.48,-1.27 12.59,-1.47 12.70,-1.67 12.85,-1.84 13.01,-2.00 13.20,-2.13 13.38,-2.25 13.60,-2.33 13.81,-2.40 14.04,-2.43 14.27,-2.45 14.49,-2.42 14.72,-2.38 14.93,-2.30 15.14,-2.21 15.32,-2.08 15.50,-1.95 15.65,-1.77 15.80,-1.60 15.90,-1.40 16.00,-1.19 16.05,-0.97 16.10,-0.75 16.09,-0.52 16.09,-0.29 16.03,-0.07 15.97,0.13 16.76,0.95 17.55,1.77 18.26,4.04 18.97,6.30 19.54,8.04 20.11,9.79 21.15,14.96 22.18,20.14 22.10,24.57 22.01,28.99 21.67,32.32 21.33,35.65 20.07,38.16 18.81,40.66 16.78,41.66 14.75,42.67 12.78,41.87 10.81,41.07 9.61,39.48 8.42,37.90 7.48,36.65 6.55,35.40 6.42,35.23 6.30,35.06 6.24,34.86 6.17,34.65 6.18,34.44 6.19,34.23 6.26,34.03 6.33,33.83 6.47,33.66 6.60,33.50 6.78,33.38 6.96,33.27 7.17,33.22 7.37,33.17 7.58,33.19 7.80,33.20 7.99,33.29 8.19,33.37 8.34,33.52 8.50,33.66 8.61,33.84 8.71,34.03 8.75,34.24 8.79,34.45 8.76,34.66 8.73,34.87 8.64,35.06 8.54,35.25 8.39,35.40 8.24,35.55 8.05,35.64 7.86,35.73 7.65,35.76 7.44,35.79 7.23,35.75 7.02,35.71 6.84,35.60 6.65,35.50 6.51,35.34 6.37,35.18 6.28,34.99 6.20,34.79 6.18,34.58 6.17,34.37 6.22,34.16 6.27,33.96 6.39,33.78 6.50,33.60 6.67,33.47 6.83,33.33 7.03,33.26 7.23,33.19 7.44,33.18 7.66,33.18 7.86,33.24 8.06,33.30 8.23,33.43 8.41,33.55 8.41,33.55 8.41,33.55 9.65,34.50 10.89,35.44 12.55,36.52 14.21,37.60 15.01,36.23 15.80,34.85 16.23,31.77 16.66,28.69 17.03,24.79 17.41,20.88 16.83,15.94 16.24,10.99 15.70,9.21 15.16,7.43 14.62,5.46 14.08,3.49 13.28,1.10 12.48,-1.27 12.59,-1.47 12.70,-1.67 12.85,-1.84 13.01,-2.00 13.19,-2.13 13.38,-2.25 13.60,-2.33 13.81,-2.40 14.04,-2.43 14.27,-2.45 14.49,-2.42 14.72,-2.38 14.93,-2.30 15.14,-2.21 15.32,-2.08 15.50,-1.95 15.65,-1.77 15.80,-1.60 15.90,-1.40 16.00,-1.19 16.05,-0.97 16.10,-0.75 16.09,-0.52 16.09,-0.29 16.03,-0.07 15.97,0.13 15.35,0.53 14.73,0.92 14.27,2.12 13.80,3.32 13.11,5.26 12.41,7.20 11.55,8.93 10.70,10.67 9.29,12.75 7.88,14.83 6.17,15.98 4.46,17.12 2.65,17.44 0.84,17.75 -0.75,16.86 -2.35,15.97 -3.15,14.26 -3.95,12.56 -4.07,10.56 -4.20,8.56 -3.76,6.28 -3.33,4.00 -2.29,1.76 -1.25,-0.47 -1.18,-0.61 -1.10,-0.75 -1.00,-0.88 -0.89,-1.00 -0.76,-1.09 -0.62,-1.18 -0.47,-1.24 -0.32,-1.30 -0.16,-1.32 -0.00,-1.34 0.15,-1.32 0.31,-1.30 0.46,-1.24 0.61,-1.19 0.75,-1.10 0.88,-1.00 0.99,-0.88 1.10,-0.76 1.17,-0.62 1.25,-0.48 1.29,-0.32 1.33,-0.16 1.33,-0.00 1.33,0.15 1.29,0.31 1.25,0.47 1.25,0.47 L 1.25,0.47 Z"></path></g><g transform="translate(305.631603201665 595.6510216716676) rotate(0 23 -1.5)" stroke="none"><path fill="#e03131" d="M 0.60,1.20 Q 0.60,1.20 -0.10,1.02 -0.81,0.84 1.60,-0.34 4.02,-1.53 7.35,-1.91 10.69,-2.30 14.71,-2.73 18.73,-3.16 23.03,-3.60 27.34,-4.04 30.86,-4.43 34.39,-4.82 37.73,-4.87 41.07,-4.91 42.90,-5.15 44.74,-5.39 46.72,-5.68 48.71,-5.97 48.92,-6.00 49.14,-6.03 49.34,-5.99 49.55,-5.95 49.74,-5.85 49.93,-5.75 50.07,-5.59 50.21,-5.43 50.30,-5.24 50.38,-5.04 50.40,-4.83 50.42,-4.62 50.37,-4.41 50.32,-4.21 50.21,-4.03 50.10,-3.85 49.94,-3.71 49.77,-3.58 49.57,-3.50 49.37,-3.43 49.16,-3.42 48.95,-3.41 48.75,-3.47 48.54,-3.53 48.37,-3.65 48.19,-3.78 48.07,-3.95 47.94,-4.12 47.88,-4.32 47.81,-4.52 47.82,-4.74 47.82,-4.95 47.89,-5.15 47.96,-5.35 48.09,-5.52 48.23,-5.68 48.40,-5.80 48.58,-5.92 48.79,-5.97 48.99,-6.02 49.21,-6.01 49.42,-5.99 49.61,-5.91 49.81,-5.83 49.97,-5.69 50.13,-5.55 50.23,-5.36 50.34,-5.18 50.38,-4.97 50.43,-4.76 50.40,-4.55 50.37,-4.34 50.28,-4.15 50.19,-3.96 50.04,-3.81 49.89,-3.66 49.70,-3.56 49.51,-3.46 49.51,-3.46 49.51,-3.46 47.50,-2.48 45.49,-1.49 43.42,-0.98 41.36,-0.47 38.22,-0.10 35.09,0.26 31.51,0.84 27.93,1.43 23.62,1.92 19.32,2.41 15.26,2.83 11.21,3.24 7.72,3.50 4.23,3.76 2.42,3.72 0.61,3.68 -0.80,3.55 -2.22,3.42 -3.00,2.43 -3.78,1.45 -2.19,0.12 -0.60,-1.20 -0.44,-1.25 -0.29,-1.31 -0.13,-1.33 0.02,-1.34 0.18,-1.32 0.34,-1.30 0.49,-1.24 0.64,-1.17 0.78,-1.08 0.91,-0.99 1.01,-0.86 1.12,-0.74 1.19,-0.59 1.26,-0.45 1.30,-0.29 1.33,-0.13 1.33,0.02 1.33,0.18 1.29,0.34 1.24,0.50 1.17,0.64 1.09,0.78 0.98,0.90 0.87,1.02 0.73,1.11 0.60,1.20 0.60,1.20 L 0.60,1.20 Z"></path></g><g transform="translate(323.631603201665 605.6510216716676) rotate(0 17 18)" stroke="none"><path fill="#e03131" d="M 1.31,0 Q 1.31,0 1.60,1.72 1.89,3.44 2.27,5.78 2.64,8.12 2.84,10.96 3.04,13.80 3.42,16.62 3.79,19.44 4.23,22.36 4.68,25.28 4.89,27.77 5.09,30.26 5.17,31.57 5.25,32.88 5.69,33.45 6.12,34.01 6.19,34.30 6.26,34.59 6.26,34.89 6.26,35.19 6.19,35.48 6.12,35.77 5.98,36.04 5.84,36.30 5.64,36.53 5.44,36.75 5.20,36.92 4.95,37.09 4.67,37.20 4.39,37.30 4.09,37.34 3.79,37.38 3.50,37.34 3.20,37.30 2.92,37.20 2.64,37.09 2.39,36.92 2.14,36.75 1.95,36.53 1.75,36.30 1.61,36.04 1.47,35.77 1.80,34.01 2.13,32.25 2.82,30.24 3.50,28.22 4.37,25.86 5.24,23.49 6.20,21.26 7.16,19.03 8.89,16.91 10.62,14.79 12.20,13.11 13.78,11.42 15.70,10.44 17.62,9.46 19.61,9.10 21.59,8.73 23.34,9.40 25.10,10.07 26.00,11.79 26.90,13.51 26.51,15.16 26.11,16.82 25.19,18.06 24.26,19.29 23.13,20.22 21.99,21.15 20.49,21.89 18.99,22.63 17.67,22.93 16.35,23.24 16.66,22.04 16.96,20.84 18.52,20.80 20.07,20.75 21.87,21.55 23.66,22.34 25.70,23.61 27.74,24.89 29.22,26.05 30.70,27.21 31.84,28.40 32.98,29.58 33.98,32.29 34.98,34.99 35.04,35.20 35.09,35.40 35.08,35.62 35.07,35.83 34.99,36.03 34.91,36.22 34.77,36.38 34.64,36.55 34.45,36.66 34.27,36.76 34.06,36.81 33.86,36.86 33.64,36.83 33.43,36.81 33.24,36.72 33.05,36.63 32.89,36.48 32.74,36.34 32.64,36.15 32.54,35.96 32.51,35.75 32.47,35.54 32.51,35.33 32.54,35.12 32.64,34.93 32.74,34.75 32.90,34.60 33.05,34.46 33.25,34.37 33.44,34.28 33.65,34.25 33.86,34.23 34.07,34.28 34.28,34.32 34.46,34.43 34.64,34.54 34.78,34.71 34.91,34.87 34.99,35.07 35.07,35.26 35.08,35.48 35.09,35.69 35.04,35.89 34.98,36.10 34.86,36.27 34.74,36.45 34.57,36.58 34.40,36.71 34.20,36.77 34.00,36.84 33.78,36.84 33.57,36.84 33.37,36.77 33.17,36.70 33.00,36.57 32.83,36.44 32.71,36.27 32.59,36.09 32.59,36.09 32.59,36.09 31.09,34.72 29.59,33.35 28.42,32.47 27.25,31.59 25.99,30.59 24.74,29.59 23.05,28.50 21.36,27.40 19.80,26.67 18.24,25.94 16.95,25.47 15.65,25.00 14.04,23.49 12.42,21.98 14.55,19.81 16.68,17.64 18.31,16.75 19.94,15.86 21.05,15.23 22.15,14.59 21.03,14.57 19.90,14.56 18.81,14.95 17.71,15.35 16.24,16.89 14.77,18.43 13.40,19.85 12.02,21.27 11.08,23.32 10.15,25.36 9.25,27.64 8.36,29.91 7.24,31.96 6.12,34.01 6.19,34.30 6.26,34.59 6.26,34.89 6.26,35.19 6.19,35.48 6.12,35.77 5.98,36.04 5.84,36.30 5.64,36.53 5.44,36.75 5.20,36.92 4.95,37.09 4.67,37.20 4.39,37.30 4.09,37.34 3.79,37.38 3.50,37.34 3.20,37.30 2.92,37.20 2.64,37.09 2.39,36.92 2.14,36.75 1.95,36.53 1.75,36.30 1.61,36.04 1.47,35.77 1.49,35.86 1.52,35.94 1.01,34.59 0.51,33.23 0.43,31.92 0.36,30.62 0.20,28.29 0.04,25.96 -0.37,22.97 -0.79,19.97 -1.10,16.99 -1.40,14.00 -1.45,11.30 -1.49,8.60 -1.69,6.02 -1.89,3.45 -1.60,1.72 -1.31,0 -1.29,-0.15 -1.27,-0.31 -1.21,-0.46 -1.16,-0.61 -1.07,-0.74 -0.98,-0.87 -0.86,-0.97 -0.74,-1.08 -0.60,-1.15 -0.46,-1.22 -0.31,-1.26 -0.15,-1.30 0.00,-1.30 0.15,-1.30 0.31,-1.26 0.46,-1.22 0.60,-1.15 0.74,-1.08 0.86,-0.97 0.98,-0.87 1.07,-0.74 1.16,-0.61 1.21,-0.46 1.27,-0.31 1.29,-0.15 1.31,0.00 1.31,0.00 L 1.31,0 Z"></path></g><g transform="translate(197.63160320166497 192.6510216716677) rotate(0 13.5 -38.5)" stroke="none"><path fill="#1e1e1e" d="M -1.26,-0.36 Q -1.26,-0.36 -0.98,-2.45 -0.69,-4.55 0.00,-7.98 0.70,-11.40 2.11,-16.15 3.52,-20.89 5.55,-26.92 7.58,-32.95 9.63,-37.88 11.68,-42.80 14.02,-48.29 16.36,-53.78 18.70,-58.64 21.03,-63.49 22.46,-67.40 23.89,-71.31 24.44,-73.05 24.98,-74.78 25.08,-74.97 25.17,-75.16 25.32,-75.32 25.46,-75.47 25.65,-75.57 25.84,-75.66 26.05,-75.70 26.26,-75.73 26.47,-75.69 26.68,-75.65 26.87,-75.55 27.05,-75.45 27.20,-75.29 27.34,-75.14 27.43,-74.94 27.52,-74.75 27.54,-74.54 27.56,-74.33 27.51,-74.12 27.46,-73.91 27.35,-73.73 27.24,-73.55 27.07,-73.42 26.91,-73.28 26.71,-73.20 26.51,-73.13 26.30,-73.12 26.09,-73.11 25.88,-73.17 25.68,-73.23 25.51,-73.35 25.33,-73.47 25.21,-73.64 25.08,-73.81 25.01,-74.02 24.95,-74.22 24.95,-74.43 24.95,-74.64 25.02,-74.84 25.09,-75.04 25.22,-75.21 25.35,-75.38 25.53,-75.50 25.71,-75.61 25.91,-75.67 26.12,-75.72 26.33,-75.71 26.54,-75.69 26.74,-75.61 26.94,-75.53 27.10,-75.39 27.26,-75.25 27.36,-75.07 27.47,-74.89 27.52,-74.68 27.56,-74.47 27.53,-74.26 27.51,-74.05 27.51,-74.05 27.51,-74.05 27.04,-72.29 26.58,-70.53 25.62,-66.23 24.66,-61.93 22.74,-56.92 20.82,-51.92 18.56,-46.39 16.30,-40.86 14.29,-36.09 12.28,-31.33 10.16,-25.38 8.04,-19.43 6.45,-14.92 4.87,-10.41 3.93,-6.95 2.99,-3.49 2.13,-1.56 1.26,0.36 1.20,0.50 1.13,0.65 1.04,0.77 0.95,0.90 0.82,1.00 0.70,1.10 0.56,1.17 0.42,1.24 0.26,1.27 0.11,1.30 -0.04,1.30 -0.20,1.29 -0.35,1.25 -0.51,1.21 -0.64,1.13 -0.78,1.05 -0.89,0.94 -1.01,0.83 -1.09,0.70 -1.18,0.56 -1.23,0.41 -1.28,0.26 -1.29,0.10 -1.31,-0.04 -1.28,-0.20 -1.26,-0.36 -1.26,-0.36 L -1.26,-0.36 Z"></path></g><g transform="translate(249.63160320166497 53.651021671667706) rotate(0 -5.5 24)" stroke="none"><path fill="#1e1e1e" d="M -1.04,0.83 Q -1.04,0.83 -2.28,-0.52 -3.52,-1.89 -4.93,-3.24 -6.33,-4.60 -7.50,-5.72 -8.67,-6.84 -8.54,-7.92 -8.41,-8.99 -8.22,-7.35 -8.03,-5.71 -7.42,-2.20 -6.82,1.29 -5.70,6.52 -4.58,11.75 -3.24,17.42 -1.91,23.09 -0.76,28.71 0.39,34.32 0.89,38.21 1.39,42.10 1.29,45.88 1.20,49.67 -0.72,53.48 -2.66,57.29 -2.87,57.27 -3.08,57.25 -3.27,57.16 -3.46,57.07 -3.62,56.93 -3.77,56.78 -3.88,56.59 -3.98,56.41 -4.01,56.20 -4.05,55.99 -4.01,55.78 -3.98,55.57 -3.88,55.38 -3.78,55.19 -3.63,55.04 -3.48,54.90 -3.28,54.81 -3.09,54.72 -2.88,54.69 -2.67,54.67 -2.46,54.71 -2.25,54.76 -2.07,54.87 -1.89,54.97 -1.75,55.13 -1.61,55.30 -1.53,55.49 -1.45,55.69 -1.44,55.90 -1.43,56.11 -1.48,56.32 -1.54,56.52 -1.66,56.70 -1.78,56.88 -1.94,57.01 -2.11,57.14 -2.31,57.21 -2.51,57.27 -2.73,57.28 -2.94,57.28 -3.14,57.21 -3.34,57.14 -3.51,57.02 -3.68,56.89 -3.80,56.71 -3.92,56.54 -3.98,56.33 -4.04,56.13 -4.03,55.92 -4.02,55.70 -3.94,55.51 -3.86,55.31 -3.73,55.15 -3.59,54.98 -3.41,54.87 -3.23,54.76 -3.02,54.72 -2.81,54.67 -2.81,54.67 -2.81,54.67 -2.89,52.12 -2.96,49.58 -2.89,46.10 -2.83,42.63 -3.30,38.90 -3.77,35.17 -4.91,29.62 -6.04,24.07 -7.39,18.35 -8.73,12.64 -9.86,7.32 -10.99,2.00 -11.62,-1.73 -12.25,-5.47 -12.25,-7.34 -12.25,-9.20 -10.49,-10.17 -8.74,-11.14 -7.33,-10.37 -5.92,-9.59 -4.80,-8.32 -3.67,-7.04 -2.37,-5.45 -1.07,-3.85 -0.01,-2.34 1.04,-0.83 1.13,-0.70 1.21,-0.56 1.26,-0.40 1.31,-0.25 1.32,-0.09 1.34,0.06 1.31,0.22 1.28,0.38 1.22,0.53 1.15,0.68 1.05,0.81 0.95,0.94 0.83,1.04 0.70,1.14 0.55,1.21 0.41,1.27 0.25,1.30 0.09,1.33 -0.06,1.33 -0.22,1.32 -0.38,1.27 -0.53,1.23 -0.67,1.14 -0.81,1.06 -0.93,0.95 -1.04,0.83 -1.04,0.83 L -1.04,0.83 Z"></path></g><g transform="translate(241.63160320166497 73.6510216716677) rotate(0 7.5 -2.5)" stroke="none"><path fill="#1e1e1e" d="M -0.60,-1.20 Q -0.60,-1.20 0.51,-1.85 1.62,-2.49 3.59,-3.34 5.55,-4.18 7.60,-4.80 9.65,-5.41 11.75,-5.76 13.86,-6.12 14.07,-6.12 14.29,-6.13 14.49,-6.06 14.69,-6.00 14.86,-5.88 15.04,-5.75 15.16,-5.58 15.28,-5.41 15.35,-5.21 15.41,-5.00 15.40,-4.79 15.40,-4.58 15.32,-4.38 15.25,-4.18 15.12,-4.01 14.98,-3.85 14.81,-3.73 14.63,-3.62 14.42,-3.57 14.21,-3.52 14.00,-3.53 13.79,-3.55 13.60,-3.64 13.40,-3.72 13.24,-3.86 13.08,-4.00 12.98,-4.19 12.88,-4.37 12.84,-4.58 12.80,-4.79 12.82,-5.00 12.85,-5.21 12.95,-5.40 13.04,-5.59 13.19,-5.74 13.34,-5.89 13.53,-5.99 13.72,-6.08 13.93,-6.11 14.14,-6.14 14.35,-6.10 14.56,-6.06 14.75,-5.95 14.93,-5.85 15.07,-5.69 15.22,-5.53 15.30,-5.34 15.38,-5.14 15.40,-4.93 15.42,-4.72 15.37,-4.51 15.31,-4.31 15.20,-4.13 15.09,-3.95 14.92,-3.81 14.75,-3.68 14.55,-3.61 14.35,-3.54 14.35,-3.54 14.35,-3.54 12.44,-3.12 10.52,-2.70 8.63,-2.04 6.74,-1.39 4.85,-0.59 2.97,0.19 1.78,0.70 0.60,1.20 0.45,1.26 0.29,1.31 0.13,1.33 -0.02,1.35 -0.18,1.32 -0.34,1.30 -0.49,1.24 -0.65,1.18 -0.78,1.08 -0.91,0.99 -1.02,0.86 -1.12,0.74 -1.19,0.59 -1.27,0.45 -1.30,0.29 -1.34,0.13 -1.34,-0.02 -1.33,-0.18 -1.29,-0.34 -1.25,-0.50 -1.17,-0.64 -1.09,-0.78 -0.98,-0.90 -0.87,-1.02 -0.73,-1.11 -0.60,-1.20 -0.60,-1.20 L -0.60,-1.20 Z"></path></g><g transform="translate(282.631603201665 33.651021671667706) rotate(0 -7 24.5)" stroke="none"><path fill="#1e1e1e" d="M 1.11,0.77 Q 1.11,0.77 -0.76,3.74 -2.64,6.71 -4.24,9.65 -5.84,12.58 -7.57,16.67 -9.29,20.75 -9.97,24.86 -10.65,28.96 -10.41,32.56 -10.17,36.15 -9.62,38.73 -9.07,41.31 -7.72,43.13 -6.36,44.95 -4.73,46.15 -3.09,47.35 -2.93,47.50 -2.78,47.64 -2.68,47.83 -2.58,48.02 -2.54,48.23 -2.50,48.44 -2.54,48.65 -2.57,48.86 -2.67,49.05 -2.76,49.23 -2.92,49.38 -3.07,49.53 -3.26,49.62 -3.45,49.71 -3.67,49.74 -3.88,49.76 -4.08,49.72 -4.29,49.67 -4.48,49.56 -4.66,49.46 -4.80,49.30 -4.94,49.13 -5.02,48.94 -5.10,48.74 -5.11,48.53 -5.12,48.32 -5.07,48.11 -5.01,47.91 -4.90,47.73 -4.78,47.55 -4.61,47.42 -4.44,47.29 -4.24,47.22 -4.04,47.15 -3.83,47.15 -3.62,47.15 -3.41,47.22 -3.21,47.28 -3.04,47.41 -2.87,47.54 -2.75,47.71 -2.63,47.89 -2.57,48.09 -2.51,48.30 -2.52,48.51 -2.53,48.72 -2.61,48.92 -2.69,49.12 -2.82,49.28 -2.96,49.44 -3.14,49.55 -3.32,49.66 -3.53,49.71 -3.73,49.76 -3.95,49.74 -4.16,49.72 -4.35,49.63 -4.54,49.54 -4.54,49.54 -4.54,49.54 -6.63,48.26 -8.72,46.98 -10.82,44.71 -12.91,42.43 -13.71,39.43 -14.51,36.43 -14.74,32.31 -14.98,28.19 -14.06,23.61 -13.14,19.03 -11.11,14.87 -9.07,10.70 -7.24,7.74 -5.40,4.78 -3.25,2.00 -1.11,-0.77 -1.00,-0.90 -0.89,-1.02 -0.75,-1.11 -0.62,-1.20 -0.46,-1.26 -0.31,-1.32 -0.15,-1.33 0.00,-1.35 0.17,-1.33 0.33,-1.31 0.48,-1.25 0.63,-1.19 0.77,-1.10 0.90,-1.01 1.01,-0.88 1.12,-0.76 1.19,-0.61 1.27,-0.47 1.31,-0.31 1.34,-0.15 1.34,0.00 1.34,0.17 1.30,0.33 1.26,0.48 1.18,0.63 1.11,0.77 1.11,0.77 L 1.11,0.77 Z"></path></g><g transform="translate(299.631603201665 46.651021671667706) rotate(0 6.5 10)" stroke="none"><path fill="#1e1e1e" d="M 1.03,-0.86 Q 1.03,-0.86 2.60,0.75 4.17,2.36 5.44,4.33 6.70,6.29 7.81,8.28 8.92,10.27 9.92,11.94 10.93,13.60 12.20,15.95 13.46,18.29 13.55,18.49 13.63,18.68 13.65,18.89 13.67,19.11 13.62,19.31 13.57,19.52 13.45,19.70 13.34,19.88 13.17,20.01 13.01,20.14 12.81,20.22 12.61,20.29 12.39,20.30 12.18,20.30 11.98,20.24 11.78,20.18 11.60,20.06 11.43,19.93 11.31,19.76 11.18,19.59 11.12,19.38 11.06,19.18 11.06,18.97 11.07,18.76 11.14,18.56 11.21,18.36 11.35,18.19 11.48,18.03 11.66,17.91 11.84,17.80 12.04,17.74 12.25,17.69 12.46,17.71 12.67,17.73 12.87,17.81 13.06,17.89 13.22,18.04 13.38,18.18 13.49,18.36 13.59,18.55 13.63,18.76 13.67,18.96 13.64,19.17 13.61,19.39 13.52,19.58 13.43,19.77 13.28,19.92 13.13,20.07 12.94,20.16 12.74,20.26 12.53,20.29 12.32,20.31 12.12,20.27 11.91,20.23 11.72,20.13 11.54,20.03 11.39,19.87 11.25,19.71 11.25,19.71 11.25,19.71 9.63,17.55 8.01,15.39 6.95,13.67 5.88,11.95 4.83,10.04 3.78,8.13 2.67,6.33 1.57,4.53 0.26,2.69 -1.03,0.86 -1.12,0.72 -1.21,0.59 -1.26,0.43 -1.32,0.28 -1.33,0.12 -1.34,-0.04 -1.32,-0.20 -1.30,-0.36 -1.23,-0.51 -1.17,-0.66 -1.07,-0.79 -0.98,-0.92 -0.85,-1.02 -0.73,-1.13 -0.58,-1.20 -0.44,-1.27 -0.28,-1.31 -0.12,-1.34 0.04,-1.34 0.20,-1.33 0.36,-1.29 0.51,-1.24 0.65,-1.16 0.80,-1.08 0.91,-0.97 1.03,-0.86 1.03,-0.86 L 1.03,-0.86 Z"></path></g><g transform="translate(294.631603201665 66.6510216716677) rotate(0 9 -11.5)" stroke="none"><path fill="#1e1e1e" d="M -1.23,-0.49 Q -1.23,-0.49 -0.82,-2.00 -0.41,-3.51 0.78,-5.18 1.98,-6.85 3.35,-8.41 4.72,-9.96 6.42,-12.00 8.12,-14.05 10.72,-16.82 13.33,-19.60 14.39,-20.82 15.45,-22.03 15.61,-22.17 15.78,-22.30 15.97,-22.38 16.17,-22.46 16.38,-22.47 16.59,-22.48 16.80,-22.43 17.00,-22.37 17.18,-22.25 17.36,-22.13 17.48,-21.96 17.61,-21.79 17.68,-21.59 17.75,-21.39 17.75,-21.18 17.75,-20.97 17.68,-20.76 17.61,-20.56 17.48,-20.39 17.36,-20.22 17.18,-20.11 17.00,-19.99 16.80,-19.93 16.60,-19.87 16.38,-19.88 16.17,-19.90 15.97,-19.97 15.78,-20.05 15.61,-20.19 15.45,-20.33 15.34,-20.51 15.23,-20.69 15.19,-20.90 15.14,-21.11 15.16,-21.32 15.19,-21.53 15.28,-21.72 15.37,-21.91 15.51,-22.07 15.66,-22.22 15.85,-22.32 16.03,-22.42 16.24,-22.46 16.45,-22.49 16.66,-22.46 16.87,-22.42 17.06,-22.32 17.25,-22.22 17.39,-22.07 17.54,-21.92 17.63,-21.72 17.72,-21.53 17.74,-21.32 17.76,-21.11 17.72,-20.90 17.67,-20.69 17.56,-20.51 17.45,-20.33 17.45,-20.33 17.45,-20.33 16.43,-19.08 15.41,-17.84 13.10,-14.83 10.80,-11.82 9.06,-9.73 7.33,-7.63 6.03,-6.21 4.74,-4.78 3.72,-3.50 2.71,-2.23 1.97,-0.86 1.23,0.49 1.15,0.63 1.08,0.77 0.97,0.89 0.86,1.01 0.73,1.10 0.59,1.19 0.44,1.24 0.29,1.29 0.13,1.31 -0.02,1.33 -0.18,1.30 -0.34,1.28 -0.49,1.22 -0.64,1.16 -0.77,1.07 -0.90,0.98 -1.00,0.85 -1.10,0.73 -1.18,0.59 -1.25,0.44 -1.28,0.29 -1.32,0.13 -1.32,-0.02 -1.31,-0.18 -1.27,-0.33 -1.23,-0.49 -1.23,-0.49 L -1.23,-0.49 Z"></path></g><g transform="translate(327.631603201665 27.651021671667706) rotate(0 -1 24.5)" stroke="none"><path fill="#1e1e1e" d="M 1.19,-0.59 Q 1.19,-0.59 1.84,0.51 2.50,1.62 3.45,3.87 4.41,6.12 5.17,8.23 5.93,10.34 6.72,13.62 7.51,16.89 7.34,20.87 7.17,24.84 6.79,28.45 6.40,32.07 5.27,35.57 4.13,39.06 2.17,41.75 0.20,44.43 -1.65,46.06 -3.51,47.69 -5.06,48.65 -6.62,49.61 -6.81,49.71 -7.00,49.80 -7.21,49.84 -7.42,49.87 -7.63,49.83 -7.84,49.79 -8.02,49.69 -8.21,49.59 -8.35,49.44 -8.50,49.28 -8.58,49.09 -8.67,48.89 -8.69,48.68 -8.71,48.47 -8.67,48.26 -8.62,48.06 -8.51,47.87 -8.40,47.69 -8.23,47.56 -8.07,47.42 -7.87,47.35 -7.67,47.27 -7.46,47.26 -7.25,47.25 -7.04,47.31 -6.84,47.37 -6.66,47.49 -6.49,47.61 -6.36,47.78 -6.24,47.95 -6.17,48.15 -6.10,48.36 -6.11,48.57 -6.11,48.78 -6.18,48.98 -6.25,49.18 -6.38,49.35 -6.51,49.52 -6.69,49.64 -6.86,49.75 -7.07,49.81 -7.27,49.86 -7.49,49.85 -7.70,49.83 -7.90,49.75 -8.09,49.67 -8.25,49.53 -8.41,49.39 -8.52,49.21 -8.63,49.03 -8.67,48.82 -8.72,48.61 -8.69,48.40 -8.66,48.19 -8.57,48.00 -8.48,47.81 -8.33,47.65 -8.19,47.50 -8.19,47.50 -8.19,47.50 -7.06,46.46 -5.93,45.42 -4.71,43.75 -3.48,42.09 -2.26,39.72 -1.04,37.35 -0.09,34.36 0.86,31.38 1.34,27.86 1.82,24.34 2.32,21.01 2.83,17.67 2.51,14.57 2.18,11.47 1.67,9.40 1.16,7.32 0.48,5.15 -0.20,2.97 -0.69,1.78 -1.19,0.59 -1.24,0.44 -1.29,0.29 -1.31,0.13 -1.33,-0.02 -1.30,-0.18 -1.28,-0.34 -1.22,-0.49 -1.16,-0.64 -1.07,-0.77 -0.97,-0.90 -0.85,-1.00 -0.73,-1.11 -0.59,-1.18 -0.44,-1.25 -0.29,-1.28 -0.13,-1.32 0.02,-1.32 0.18,-1.31 0.34,-1.27 0.49,-1.23 0.63,-1.15 0.77,-1.08 0.89,-0.97 1.01,-0.86 1.10,-0.72 1.19,-0.59 1.19,-0.59 L 1.19,-0.59 Z"></path></g><g transform="translate(494.631603201665 445.6510216716677) rotate(0 -5 15)" stroke="none"><path fill="#1e1e1e" d="M -1.06,0.85 Q -1.06,0.85 -2.40,-0.43 -3.74,-1.72 -4.67,-3.31 -5.59,-4.90 -6.54,-6.67 -7.49,-8.44 -8.23,-10.46 -8.98,-12.48 -9.56,-13.58 -10.14,-14.67 -10.19,-14.92 -10.25,-15.17 -10.24,-15.42 -10.24,-15.68 -10.17,-15.92 -10.10,-16.17 -9.98,-16.39 -9.86,-16.61 -9.68,-16.80 -9.51,-16.98 -9.30,-17.12 -9.08,-17.26 -8.84,-17.35 -8.60,-17.43 -8.35,-17.46 -8.10,-17.48 -7.85,-17.45 -7.60,-17.41 -7.36,-17.31 -7.12,-17.22 -6.92,-17.07 -6.71,-16.92 -6.55,-16.72 -6.38,-16.53 -6.27,-16.30 -6.16,-16.07 -6.81,-14.48 -7.47,-12.89 -7.50,-10.76 -7.54,-8.64 -7.59,-4.73 -7.64,-0.82 -7.33,3.65 -7.01,8.12 -6.56,12.90 -6.11,17.68 -5.93,21.20 -5.74,24.72 -5.38,28.15 -5.01,31.57 -4.85,34.56 -4.69,37.54 -4.64,39.68 -4.59,41.81 -4.64,43.03 -4.69,44.25 -6.06,44.68 -7.43,45.11 -7.44,45.27 -7.46,45.43 -7.51,45.58 -7.56,45.73 -7.65,45.86 -7.74,45.99 -7.85,46.10 -7.97,46.21 -8.11,46.29 -8.25,46.36 -8.40,46.40 -8.55,46.45 -8.71,46.45 -8.87,46.45 -9.02,46.42 -9.18,46.38 -9.32,46.31 -9.46,46.24 -9.58,46.14 -9.70,46.04 -9.80,45.91 -9.89,45.78 -9.95,45.64 -10.01,45.49 -10.03,45.33 -10.05,45.18 -9.89,45.59 -9.74,46.00 -9.85,45.82 -9.96,45.64 -10.00,45.43 -10.05,45.23 -10.03,45.01 -10.01,44.80 -9.92,44.61 -9.83,44.42 -9.69,44.26 -9.54,44.11 -9.36,44.00 -9.17,43.90 -8.96,43.87 -8.75,43.83 -8.54,43.86 -8.33,43.90 -8.14,44.00 -7.95,44.09 -7.81,44.25 -7.66,44.40 -7.57,44.59 -7.48,44.78 -7.45,45.00 -7.43,45.21 -7.47,45.41 -7.52,45.62 -7.63,45.81 -7.73,45.99 -7.89,46.13 -8.06,46.27 -8.25,46.35 -8.45,46.43 -8.66,46.44 -8.87,46.45 -9.08,46.40 -9.28,46.34 -9.46,46.22 -9.64,46.11 -9.77,45.94 -9.90,45.77 -9.97,45.57 -10.04,45.37 -10.04,45.15 -10.04,44.94 -9.97,44.74 -9.91,44.54 -9.78,44.37 -9.65,44.20 -9.48,44.08 -9.30,43.96 -9.10,43.90 -8.89,43.84 -8.68,43.85 -8.47,43.86 -8.27,43.94 -8.07,44.02 -7.75,44.56 -7.43,45.11 -7.44,45.27 -7.46,45.43 -7.51,45.58 -7.56,45.73 -7.65,45.86 -7.74,45.99 -7.85,46.10 -7.97,46.21 -8.11,46.29 -8.25,46.36 -8.40,46.40 -8.55,46.45 -8.71,46.45 -8.87,46.45 -9.02,46.42 -9.18,46.38 -9.32,46.31 -9.46,46.24 -9.58,46.14 -9.70,46.04 -9.80,45.91 -9.89,45.78 -9.95,45.64 -10.01,45.49 -10.03,45.33 -10.05,45.18 -9.72,44.71 -9.38,44.25 -9.48,43.11 -9.59,41.96 -9.67,39.88 -9.75,37.81 -9.89,34.95 -10.04,32.09 -10.39,28.53 -10.75,24.96 -10.89,21.52 -11.04,18.08 -11.37,13.23 -11.71,8.37 -11.89,3.72 -12.06,-0.93 -11.92,-4.97 -11.78,-9.01 -10.96,-11.84 -10.14,-14.67 -10.19,-14.92 -10.25,-15.17 -10.24,-15.42 -10.24,-15.68 -10.17,-15.92 -10.10,-16.17 -9.98,-16.39 -9.86,-16.61 -9.68,-16.80 -9.51,-16.98 -9.30,-17.12 -9.08,-17.26 -8.84,-17.35 -8.60,-17.43 -8.35,-17.46 -8.10,-17.48 -7.85,-17.45 -7.60,-17.41 -7.36,-17.31 -7.12,-17.22 -6.92,-17.07 -6.71,-16.92 -6.55,-16.73 -6.38,-16.53 -6.27,-16.30 -6.16,-16.08 -5.59,-14.98 -5.03,-13.88 -4.43,-12.09 -3.83,-10.30 -2.97,-8.52 -2.10,-6.74 -1.48,-5.38 -0.85,-4.02 0.10,-2.43 1.06,-0.85 1.15,-0.71 1.24,-0.57 1.29,-0.41 1.34,-0.26 1.35,-0.09 1.36,0.06 1.33,0.23 1.31,0.39 1.24,0.54 1.17,0.69 1.07,0.82 0.97,0.95 0.84,1.06 0.72,1.16 0.57,1.23 0.42,1.30 0.25,1.33 0.09,1.36 -0.06,1.35 -0.23,1.34 -0.39,1.30 -0.54,1.25 -0.69,1.17 -0.83,1.08 -0.95,0.97 -1.06,0.85 -1.06,0.85 L -1.06,0.85 Z"></path></g><g transform="translate(480.631603201665 468.6510216716677) rotate(0 8.5 -5.5)" stroke="none"><path fill="#1e1e1e" d="M -1.06,-0.88 Q -1.06,-0.88 -0.04,-2.96 0.97,-5.04 2.49,-6.57 4.02,-8.11 5.73,-9.12 7.45,-10.13 9.16,-10.63 10.88,-11.14 13.50,-11.62 16.12,-12.10 16.33,-12.13 16.54,-12.16 16.75,-12.12 16.95,-12.07 17.14,-11.97 17.32,-11.86 17.46,-11.70 17.60,-11.54 17.69,-11.35 17.77,-11.15 17.78,-10.94 17.80,-10.73 17.75,-10.52 17.69,-10.32 17.58,-10.14 17.46,-9.96 17.29,-9.83 17.13,-9.70 16.93,-9.62 16.73,-9.55 16.52,-9.55 16.30,-9.55 16.10,-9.61 15.90,-9.67 15.73,-9.80 15.55,-9.92 15.43,-10.10 15.31,-10.27 15.25,-10.48 15.19,-10.68 15.20,-10.89 15.20,-11.10 15.28,-11.30 15.35,-11.50 15.49,-11.67 15.62,-11.83 15.80,-11.94 15.98,-12.06 16.19,-12.11 16.40,-12.15 16.61,-12.14 16.82,-12.12 17.01,-12.03 17.21,-11.95 17.36,-11.80 17.52,-11.66 17.62,-11.47 17.73,-11.29 17.77,-11.08 17.80,-10.87 17.77,-10.66 17.74,-10.45 17.65,-10.26 17.55,-10.07 17.40,-9.92 17.25,-9.77 17.06,-9.68 16.87,-9.59 16.87,-9.59 16.87,-9.59 14.78,-8.26 12.69,-6.94 11.42,-6.15 10.14,-5.37 8.88,-4.69 7.62,-4.01 6.20,-2.93 4.77,-1.85 2.92,-0.48 1.06,0.88 0.94,1.00 0.82,1.11 0.67,1.19 0.53,1.28 0.36,1.32 0.20,1.37 0.04,1.37 -0.12,1.38 -0.28,1.34 -0.45,1.31 -0.60,1.23 -0.75,1.16 -0.88,1.05 -1.01,0.95 -1.10,0.81 -1.20,0.68 -1.27,0.52 -1.33,0.37 -1.36,0.20 -1.38,0.04 -1.37,-0.12 -1.35,-0.29 -1.30,-0.44 -1.24,-0.60 -1.15,-0.74 -1.06,-0.88 -1.06,-0.88 L -1.06,-0.88 Z"></path></g><g transform="translate(503.631603201665 433.6510216716677) rotate(0 6.5 0.5)" stroke="none"><path fill="#1e1e1e" d="M 0,-1.37 Q 0,-1.37 2.01,-1.74 4.02,-2.11 5.45,-2.10 6.88,-2.09 9.97,-1.24 13.06,-0.39 13.24,-0.28 13.42,-0.16 13.56,-0.00 13.69,0.15 13.77,0.35 13.85,0.55 13.85,0.76 13.86,0.97 13.80,1.18 13.74,1.38 13.62,1.56 13.50,1.73 13.33,1.86 13.16,1.98 12.96,2.05 12.75,2.11 12.54,2.11 12.33,2.11 12.13,2.04 11.93,1.97 11.76,1.84 11.59,1.70 11.48,1.53 11.36,1.35 11.31,1.14 11.25,0.94 11.27,0.73 11.28,0.51 11.36,0.32 11.44,0.12 11.58,-0.03 11.72,-0.19 11.91,-0.30 12.09,-0.40 12.30,-0.45 12.51,-0.49 12.72,-0.46 12.93,-0.44 13.12,-0.34 13.31,-0.25 13.46,-0.10 13.62,0.03 13.71,0.22 13.81,0.41 13.84,0.62 13.87,0.83 13.84,1.04 13.80,1.25 13.70,1.44 13.59,1.62 13.44,1.77 13.28,1.91 13.09,2.00 12.89,2.08 12.68,2.10 12.47,2.12 12.26,2.08 12.06,2.03 12.06,2.03 12.06,2.03 9.47,2.06 6.88,2.09 5.45,2.10 4.02,2.11 2.01,1.74 0,1.37 -0.16,1.35 -0.32,1.33 -0.48,1.27 -0.63,1.21 -0.77,1.12 -0.91,1.03 -1.02,0.90 -1.13,0.78 -1.20,0.63 -1.28,0.48 -1.32,0.32 -1.36,0.16 -1.36,-0.00 -1.36,-0.16 -1.32,-0.32 -1.28,-0.48 -1.20,-0.63 -1.13,-0.78 -1.02,-0.90 -0.91,-1.03 -0.77,-1.12 -0.63,-1.21 -0.48,-1.27 -0.32,-1.33 -0.16,-1.35 0.00,-1.37 0.00,-1.37 L 0,-1.37 Z"></path></g><g transform="translate(528.631603201665 433.6510216716677) rotate(0 9 -2.5)" stroke="none"><path fill="#1e1e1e" d="M -0.85,-1.07 Q -0.85,-1.07 0.47,-2.35 1.80,-3.64 2.94,-4.67 4.08,-5.71 5.78,-7.06 7.47,-8.41 8.99,-9.80 10.51,-11.19 11.74,-12.35 12.96,-13.52 14.04,-14.16 15.11,-14.81 16.57,-14.63 18.03,-14.45 18.81,-13.45 19.59,-12.44 19.27,-10.16 18.96,-7.88 18.53,-6.01 18.10,-4.15 17.93,-2.64 17.77,-1.14 17.67,0.33 17.58,1.82 17.41,3.29 17.23,4.77 17.51,6.32 17.78,7.86 17.88,8.05 17.98,8.24 18.02,8.45 18.06,8.66 18.02,8.87 17.99,9.08 17.89,9.26 17.79,9.45 17.64,9.60 17.49,9.75 17.30,9.84 17.10,9.93 16.89,9.96 16.68,9.98 16.47,9.94 16.27,9.89 16.08,9.78 15.90,9.68 15.76,9.52 15.62,9.35 15.54,9.16 15.46,8.96 15.45,8.75 15.44,8.54 15.49,8.33 15.55,8.13 15.66,7.95 15.78,7.77 15.95,7.64 16.12,7.51 16.32,7.44 16.52,7.37 16.73,7.37 16.94,7.37 17.14,7.44 17.35,7.50 17.52,7.63 17.69,7.76 17.81,7.93 17.93,8.11 17.99,8.31 18.05,8.51 18.04,8.73 18.03,8.94 17.95,9.14 17.87,9.34 17.74,9.50 17.60,9.66 17.42,9.77 17.24,9.88 17.03,9.93 16.82,9.98 16.61,9.96 16.40,9.94 16.21,9.85 16.01,9.76 15.86,9.62 15.70,9.47 15.70,9.47 15.70,9.47 14.28,7.09 12.86,4.70 12.77,3.12 12.67,1.54 12.75,-0.10 12.83,-1.75 13.08,-3.56 13.32,-5.37 14.34,-8.18 15.36,-10.98 14.11,-9.79 12.85,-8.60 11.24,-7.15 9.63,-5.69 8.02,-4.41 6.40,-3.13 5.17,-2.04 3.94,-0.95 2.40,0.05 0.85,1.07 0.71,1.16 0.57,1.24 0.41,1.30 0.26,1.35 0.09,1.36 -0.06,1.37 -0.23,1.34 -0.39,1.31 -0.54,1.25 -0.70,1.18 -0.83,1.08 -0.96,0.98 -1.06,0.85 -1.17,0.72 -1.24,0.57 -1.30,0.42 -1.34,0.25 -1.37,0.09 -1.36,-0.06 -1.35,-0.23 -1.30,-0.39 -1.26,-0.55 -1.17,-0.69 -1.09,-0.83 -0.97,-0.95 -0.85,-1.07 -0.85,-1.07 L -0.85,-1.07 Z"></path></g><g transform="translate(568.631603201665 422.6510216716677) rotate(0 -8.5 29)" stroke="none"><path fill="#1e1e1e" d="M 0.86,0.99 Q 0.86,0.99 -1.07,3.40 -3.02,5.81 -4.63,8.02 -6.23,10.24 -7.95,13.64 -9.67,17.05 -10.91,22.27 -12.16,27.50 -12.72,31.71 -13.28,35.91 -12.95,39.77 -12.62,43.62 -11.71,46.83 -10.81,50.04 -9.82,51.80 -8.83,53.56 -7.77,54.65 -6.71,55.74 -4.47,55.74 -2.23,55.73 -2.02,55.76 -1.81,55.78 -1.61,55.88 -1.42,55.97 -1.27,56.11 -1.12,56.26 -1.02,56.45 -0.92,56.64 -0.89,56.85 -0.86,57.06 -0.89,57.27 -0.93,57.48 -1.03,57.67 -1.13,57.85 -1.29,58.00 -1.45,58.14 -1.64,58.23 -1.83,58.32 -2.04,58.34 -2.26,58.36 -2.46,58.31 -2.67,58.26 -2.85,58.15 -3.03,58.04 -3.17,57.87 -3.30,57.71 -3.38,57.51 -3.46,57.31 -3.47,57.10 -3.47,56.89 -3.42,56.69 -3.36,56.48 -3.24,56.31 -3.11,56.13 -2.94,56.01 -2.77,55.88 -2.57,55.81 -2.37,55.75 -2.16,55.75 -1.94,55.75 -1.74,55.82 -1.54,55.89 -1.37,56.02 -1.21,56.15 -1.09,56.33 -0.97,56.51 -0.92,56.71 -0.86,56.92 -0.88,57.13 -0.89,57.34 -0.97,57.54 -1.05,57.74 -1.19,57.90 -1.33,58.06 -1.51,58.16 -1.70,58.27 -1.91,58.31 -2.11,58.36 -2.11,58.36 -2.11,58.36 -5.20,58.59 -8.30,58.81 -10.63,57.58 -12.96,56.34 -14.55,53.98 -16.13,51.63 -17.23,47.86 -18.33,44.09 -18.64,39.63 -18.96,35.17 -18.33,30.64 -17.70,26.11 -16.16,20.26 -14.61,14.41 -12.46,10.69 -10.32,6.97 -8.24,4.60 -6.17,2.23 -3.52,0.62 -0.86,-0.99 -0.73,-1.08 -0.60,-1.17 -0.45,-1.22 -0.30,-1.28 -0.15,-1.30 0.00,-1.32 0.16,-1.30 0.32,-1.28 0.47,-1.22 0.62,-1.16 0.75,-1.07 0.88,-0.98 0.98,-0.86 1.09,-0.74 1.16,-0.60 1.23,-0.46 1.27,-0.30 1.31,-0.15 1.31,0.00 1.31,0.16 1.27,0.32 1.23,0.47 1.15,0.61 1.08,0.75 0.97,0.87 0.86,0.99 0.86,0.99 L 0.86,0.99 Z"></path></g><g transform="translate(577.631603201665 454.6510216716677) rotate(0 10.5 9.5)" stroke="none"><path fill="#1e1e1e" d="M 0.96,-0.96 Q 0.96,-0.96 2.30,-0.00 3.64,0.95 5.03,2.27 6.41,3.58 7.86,5.01 9.31,6.43 10.85,8.26 12.39,10.08 13.83,11.66 15.28,13.24 16.38,14.53 17.48,15.82 18.98,16.27 20.49,16.73 20.71,16.74 20.92,16.75 21.11,16.83 21.31,16.91 21.47,17.05 21.63,17.19 21.74,17.37 21.85,17.55 21.90,17.76 21.94,17.97 21.92,18.18 21.89,18.39 21.80,18.58 21.71,18.78 21.56,18.93 21.42,19.08 21.23,19.18 21.04,19.28 20.83,19.31 20.62,19.35 20.41,19.31 20.20,19.27 20.01,19.17 19.83,19.07 19.68,18.92 19.54,18.76 19.45,18.57 19.36,18.38 19.34,18.16 19.32,17.95 19.36,17.75 19.41,17.54 19.52,17.36 19.63,17.18 19.79,17.04 19.96,16.90 20.16,16.83 20.35,16.75 20.57,16.74 20.78,16.73 20.98,16.79 21.19,16.84 21.36,16.96 21.54,17.08 21.66,17.25 21.79,17.42 21.86,17.63 21.93,17.83 21.92,18.04 21.92,18.25 21.85,18.45 21.78,18.66 21.65,18.82 21.52,18.99 21.35,19.11 21.17,19.23 20.97,19.28 20.76,19.34 20.76,19.34 20.76,19.34 17.85,18.89 14.94,18.45 13.63,17.22 12.31,15.98 10.78,14.34 9.25,12.70 7.84,11.01 6.43,9.31 5.01,7.86 3.58,6.41 2.27,5.03 0.95,3.64 -0.00,2.30 -0.96,0.96 -1.06,0.83 -1.17,0.70 -1.23,0.55 -1.30,0.40 -1.33,0.24 -1.36,0.08 -1.35,-0.08 -1.34,-0.24 -1.29,-0.40 -1.24,-0.56 -1.16,-0.70 -1.07,-0.84 -0.96,-0.96 -0.84,-1.07 -0.70,-1.16 -0.56,-1.24 -0.40,-1.29 -0.24,-1.34 -0.08,-1.35 0.08,-1.36 0.24,-1.33 0.40,-1.30 0.55,-1.23 0.70,-1.17 0.83,-1.06 0.96,-0.96 0.96,-0.96 L 0.96,-0.96 Z"></path></g><g transform="translate(600.631603201665 450.6510216716677) rotate(0 -9.5 11.5)" stroke="none"><path fill="#1e1e1e" d="M 0.69,1.15 Q 0.69,1.15 -0.65,2.16 -1.99,3.18 -3.54,4.73 -5.08,6.27 -6.50,8.07 -7.91,9.87 -9.73,11.85 -11.54,13.84 -12.51,15.14 -13.48,16.43 -14.47,18.02 -15.46,19.60 -16.47,21.09 -17.47,22.58 -17.57,22.77 -17.67,22.96 -17.83,23.11 -17.98,23.25 -18.17,23.34 -18.36,23.43 -18.58,23.46 -18.79,23.48 -18.99,23.44 -19.20,23.39 -19.38,23.28 -19.57,23.17 -19.70,23.01 -19.84,22.85 -19.92,22.65 -20.00,22.46 -20.01,22.24 -20.03,22.03 -19.97,21.83 -19.91,21.62 -19.80,21.45 -19.68,21.27 -19.51,21.14 -19.34,21.01 -19.14,20.94 -18.94,20.87 -18.73,20.87 -18.51,20.87 -18.31,20.94 -18.11,21.01 -17.94,21.13 -17.77,21.26 -17.65,21.44 -17.53,21.61 -17.47,21.82 -17.42,22.02 -17.43,22.23 -17.44,22.45 -17.51,22.64 -17.59,22.84 -17.73,23.00 -17.87,23.17 -18.05,23.28 -18.23,23.39 -18.44,23.43 -18.64,23.48 -18.86,23.46 -19.07,23.44 -19.26,23.35 -19.45,23.26 -19.61,23.11 -19.76,22.97 -19.86,22.78 -19.96,22.59 -20.00,22.38 -20.03,22.17 -20.00,21.96 -19.97,21.75 -19.97,21.75 -19.97,21.75 -19.73,19.50 -19.49,17.25 -18.42,15.35 -17.36,13.46 -16.19,11.98 -15.03,10.50 -13.17,8.66 -11.31,6.82 -9.51,5.03 -7.70,3.23 -5.73,1.75 -3.75,0.26 -2.22,-0.44 -0.69,-1.15 -0.54,-1.21 -0.39,-1.28 -0.23,-1.31 -0.07,-1.34 0.08,-1.33 0.24,-1.32 0.40,-1.27 0.55,-1.22 0.69,-1.13 0.83,-1.05 0.94,-0.93 1.06,-0.82 1.14,-0.68 1.22,-0.54 1.27,-0.39 1.32,-0.23 1.33,-0.07 1.34,0.08 1.31,0.24 1.28,0.40 1.21,0.55 1.14,0.69 1.04,0.82 0.94,0.95 0.81,1.05 0.69,1.15 0.69,1.15 L 0.69,1.15 Z"></path></g><g transform="translate(616.631603201665 424.6510216716677) rotate(0 -5 35)" stroke="none"><path fill="#1e1e1e" d="M 1.31,-0.18 Q 1.31,-0.18 1.74,1.80 2.16,3.79 2.96,6.56 3.75,9.32 4.24,13.26 4.72,17.20 4.97,20.58 5.21,23.96 5.11,28.38 5.00,32.79 4.36,37.34 3.73,41.89 2.55,46.23 1.38,50.57 -0.42,54.25 -2.22,57.92 -3.66,60.50 -5.11,63.07 -6.89,65.01 -8.67,66.95 -10.04,68.52 -11.41,70.09 -11.56,70.24 -11.72,70.38 -11.91,70.47 -12.11,70.55 -12.32,70.57 -12.53,70.60 -12.74,70.55 -12.94,70.50 -13.12,70.39 -13.30,70.27 -13.44,70.11 -13.57,69.95 -13.65,69.75 -13.73,69.55 -13.73,69.34 -13.74,69.13 -13.68,68.92 -13.62,68.72 -13.50,68.54 -13.38,68.37 -13.21,68.24 -13.04,68.12 -12.84,68.05 -12.63,67.99 -12.42,67.99 -12.21,67.99 -12.01,68.06 -11.81,68.13 -11.64,68.26 -11.47,68.39 -11.36,68.57 -11.24,68.75 -11.19,68.96 -11.13,69.16 -11.15,69.37 -11.16,69.58 -11.24,69.78 -11.32,69.98 -11.46,70.14 -11.60,70.30 -11.79,70.40 -11.97,70.51 -12.18,70.55 -12.39,70.60 -12.60,70.57 -12.81,70.55 -13.00,70.45 -13.19,70.36 -13.34,70.21 -13.50,70.07 -13.59,69.88 -13.69,69.69 -13.72,69.48 -13.75,69.27 -13.72,69.06 -13.68,68.85 -13.58,68.66 -13.47,68.48 -13.47,68.48 -13.47,68.48 -12.32,66.83 -11.17,65.18 -10.15,63.15 -9.13,61.12 -8.03,58.42 -6.93,55.72 -5.45,52.40 -3.98,49.08 -2.86,45.06 -1.74,41.05 -1.02,36.77 -0.31,32.50 0.04,28.32 0.40,24.14 0.40,20.84 0.39,17.54 0.28,13.86 0.18,10.19 -0.41,7.22 -1.01,4.25 -1.16,2.22 -1.31,0.18 -1.31,0.02 -1.31,-0.13 -1.28,-0.28 -1.24,-0.44 -1.17,-0.58 -1.10,-0.72 -1.00,-0.85 -0.89,-0.97 -0.76,-1.06 -0.64,-1.15 -0.49,-1.21 -0.34,-1.27 -0.18,-1.30 -0.02,-1.32 0.13,-1.30 0.28,-1.29 0.44,-1.23 0.59,-1.18 0.72,-1.09 0.85,-1.00 0.96,-0.89 1.07,-0.77 1.15,-0.63 1.22,-0.49 1.26,-0.34 1.31,-0.18 1.31,-0.18 L 1.31,-0.18 Z"></path></g></svg>