<svg version="1.1" xmlns="http://www.w3.org/2000/svg" viewBox="0 0 1199.9999389648438 194" width="1199.9999389648438" height="194" filter="invert(93%) hue-rotate(180deg)" class="excalidraw-svg"><!-- svg-source:excalidraw --><metadata></metadata><defs><style class="style-fonts">
      </style></defs><g transform="translate(11.00006103515625 147.99996948242188) rotate(0 22.99993896484375 -38.5)" stroke="none"><path fill="#1e1e1e" d="M -4.60,0.46 Q -4.60,0.46 -4.92,-2.41 -5.23,-5.28 -5.58,-9.75 -5.92,-14.21 -6.01,-16.45 -6.10,-18.68 -5.73,-22.16 -5.36,-25.63 -5.29,-28.07 -5.22,-30.50 -4.71,-34.26 -4.21,-38.02 -4.11,-40.63 -4.01,-43.25 -3.57,-46.81 -3.12,-50.36 -3.06,-52.61 -3.01,-54.86 -2.98,-57.48 -2.96,-60.09 -3.11,-63.38 -3.27,-66.67 -3.34,-67.64 -3.41,-68.61 -3.33,-69.25 -3.25,-69.90 -3.01,-70.51 -2.78,-71.12 -2.40,-71.65 -2.03,-72.18 -1.54,-72.61 -1.05,-73.04 -0.47,-73.34 0.10,-73.64 0.74,-73.79 1.37,-73.94 2.03,-73.94 2.68,-73.93 3.31,-73.77 3.94,-73.61 4.52,-73.31 5.09,-73.00 5.58,-72.56 6.06,-72.13 6.43,-71.59 6.80,-71.05 7.03,-70.44 7.25,-69.82 7.33,-69.18 7.40,-68.53 7.50,-66.07 7.60,-63.61 7.94,-60.53 8.28,-57.46 9.31,-53.53 10.35,-49.60 11.60,-46.90 12.84,-44.20 13.85,-42.31 14.87,-40.43 16.57,-38.75 18.27,-37.07 19.39,-39.37 20.50,-41.67 21.74,-45.12 22.98,-48.57 23.87,-50.98 24.76,-53.39 25.87,-57.67 26.98,-61.94 27.66,-65.65 28.33,-69.36 29.38,-72.51 30.44,-75.66 30.76,-76.58 31.09,-77.51 31.29,-78.27 31.49,-79.02 31.87,-79.71 32.24,-80.39 32.77,-80.97 33.30,-81.55 33.96,-81.98 34.61,-82.41 35.35,-82.67 36.08,-82.94 36.86,-83.02 37.64,-83.10 38.41,-82.99 39.19,-82.88 39.92,-82.59 40.64,-82.29 41.28,-81.84 41.91,-81.38 42.42,-80.78 42.93,-80.19 43.28,-79.49 43.63,-78.79 43.80,-78.03 43.97,-77.26 43.96,-76.48 43.94,-75.70 44.65,-72.63 45.35,-69.56 45.62,-67.44 45.89,-65.32 46.04,-62.94 46.18,-60.56 46.33,-57.47 46.48,-54.38 46.85,-52.05 47.21,-49.72 47.51,-46.23 47.81,-42.75 48.01,-39.99 48.22,-37.24 48.48,-34.23 48.75,-31.23 48.93,-28.61 49.12,-25.99 49.43,-23.38 49.74,-20.77 50.32,-18.07 50.89,-15.38 51.48,-13.01 52.06,-10.63 52.25,-9.74 52.45,-8.84 52.34,-7.92 52.24,-7.01 51.85,-6.18 51.46,-5.35 50.82,-4.68 50.19,-4.02 49.38,-3.59 48.56,-3.17 47.66,-3.02 46.75,-2.88 45.84,-3.03 44.94,-3.18 44.13,-3.62 43.32,-4.05 42.69,-4.72 42.06,-5.39 41.68,-6.23 41.30,-7.06 41.20,-7.98 41.11,-8.89 41.31,-9.79 41.51,-10.68 41.99,-11.47 42.46,-12.25 43.17,-12.84 43.87,-13.43 44.72,-13.77 45.58,-14.11 46.50,-14.15 47.41,-14.20 48.30,-13.95 49.18,-13.70 49.94,-13.18 50.70,-12.66 51.25,-11.93 51.80,-11.19 52.09,-10.32 52.38,-9.45 52.38,-8.53 52.37,-7.61 52.08,-6.74 51.78,-5.87 51.22,-5.14 50.66,-4.42 49.90,-3.90 49.13,-3.39 48.25,-3.15 47.36,-2.91 46.44,-2.96 45.53,-3.02 44.68,-3.36 43.82,-3.70 43.13,-4.30 42.43,-4.90 41.96,-5.69 41.49,-6.48 41.49,-6.48 41.49,-6.48 40.77,-9.50 40.06,-12.52 39.63,-15.97 39.20,-19.42 38.80,-22.36 38.40,-25.30 38.27,-27.63 38.14,-29.96 37.66,-33.17 37.18,-36.38 36.98,-38.79 36.78,-41.20 36.14,-44.44 35.49,-47.69 34.98,-50.38 34.47,-53.07 33.78,-58.22 33.08,-63.37 32.59,-66.79 32.10,-70.20 31.59,-73.86 31.09,-77.51 31.29,-78.27 31.49,-79.02 31.87,-79.71 32.24,-80.39 32.77,-80.97 33.30,-81.54 33.96,-81.98 34.61,-82.41 35.34,-82.67 36.08,-82.94 36.86,-83.02 37.64,-83.10 38.41,-82.99 39.19,-82.88 39.91,-82.59 40.64,-82.29 41.28,-81.84 41.91,-81.38 42.42,-80.79 42.93,-80.19 43.28,-79.49 43.63,-78.79 43.80,-78.03 43.97,-77.26 43.96,-76.48 43.94,-75.70 43.41,-74.46 42.87,-73.22 42.05,-71.09 41.24,-68.95 40.45,-66.06 39.65,-63.16 39.26,-60.86 38.88,-58.56 38.30,-56.31 37.73,-54.06 37.28,-51.73 36.84,-49.40 35.57,-45.28 34.30,-41.16 32.19,-36.93 30.07,-32.69 27.74,-30.22 25.42,-27.75 23.45,-26.62 21.49,-25.49 19.28,-25.21 17.06,-24.93 14.00,-25.99 10.93,-27.05 8.42,-29.63 5.91,-32.21 4.24,-35.23 2.57,-38.25 1.48,-40.33 0.39,-42.42 -0.57,-46.41 -1.54,-50.39 -2.34,-52.93 -3.13,-55.47 -3.36,-59.54 -3.60,-63.61 -3.51,-66.11 -3.41,-68.60 -3.33,-69.25 -3.25,-69.90 -3.01,-70.51 -2.78,-71.12 -2.40,-71.65 -2.03,-72.18 -1.54,-72.61 -1.05,-73.04 -0.47,-73.34 0.10,-73.64 0.74,-73.79 1.37,-73.94 2.03,-73.94 2.68,-73.93 3.31,-73.77 3.94,-73.61 4.52,-73.31 5.09,-73.00 5.58,-72.56 6.06,-72.13 6.43,-71.59 6.80,-71.05 7.03,-70.44 7.25,-69.82 7.33,-69.18 7.40,-68.53 7.32,-67.56 7.24,-66.60 7.00,-63.23 6.77,-59.87 6.67,-57.06 6.57,-54.25 6.33,-51.84 6.09,-49.43 5.84,-46.08 5.59,-42.74 5.40,-39.94 5.21,-37.15 5.04,-33.59 4.87,-30.02 4.71,-27.40 4.54,-24.78 4.35,-21.78 4.17,-18.78 4.12,-16.60 4.08,-14.42 4.08,-10.32 4.08,-6.21 4.34,-3.33 4.60,-0.46 4.59,0.09 4.58,0.65 4.43,1.19 4.29,1.73 4.02,2.22 3.75,2.70 3.37,3.11 2.99,3.52 2.52,3.83 2.06,4.14 1.53,4.33 1.01,4.51 0.45,4.57 -0.09,4.62 -0.65,4.54 -1.20,4.47 -1.72,4.26 -2.23,4.05 -2.69,3.72 -3.14,3.39 -3.50,2.97 -3.86,2.54 -4.11,2.04 -4.36,1.54 -4.48,1.00 -4.60,0.46 -4.60,0.46 L -4.60,0.46 Z"></path></g><g transform="translate(96.99993896484375 128) rotate(0 -11.499969482421875 20.5)" stroke="none"><path fill="#1e1e1e" d="M 0,5.28 Q 0,5.28 -1.43,5.36 -2.87,5.44 -4.82,7.15 -6.77,8.85 -8.56,11.49 -10.36,14.12 -12.20,17.16 -14.05,20.21 -15.17,23.18 -16.29,26.16 -16.89,28.71 -17.50,31.27 -16.52,33.29 -15.54,35.31 -11.94,33.86 -8.34,32.41 -7.25,30.12 -6.17,27.84 -8.94,28.00 -11.71,28.17 -12.85,27.97 -14.00,27.78 -15.02,27.23 -16.04,26.68 -16.83,25.83 -17.62,24.99 -18.11,23.93 -18.59,22.88 -18.71,21.72 -18.82,20.57 -18.57,19.44 -18.31,18.30 -17.71,17.31 -17.10,16.32 -16.22,15.58 -15.33,14.83 -14.25,14.41 -13.17,13.98 -12.01,13.93 -10.85,13.87 -9.73,14.19 -8.62,14.51 -7.66,15.16 -6.70,15.82 -6.01,16.75 -5.31,17.68 -4.95,18.78 -4.58,19.88 -4.59,21.04 -4.60,22.20 -4.97,23.30 -5.35,24.39 -6.06,25.31 -6.77,26.23 -7.73,26.88 -8.69,27.52 -9.81,27.83 -10.93,28.13 -12.09,28.06 -13.25,27.99 -14.32,27.56 -15.40,27.12 -16.28,26.36 -17.16,25.61 -17.75,24.61 -18.34,23.61 -18.59,22.48 -18.83,21.34 -18.70,20.19 -18.56,19.04 -18.07,17.99 -17.58,16.94 -16.77,16.10 -15.97,15.26 -14.94,14.72 -13.91,14.19 -12.77,14.01 -11.62,13.83 -11.62,13.83 -11.62,13.83 -9.54,13.86 -7.45,13.90 -5.09,14.26 -2.73,14.61 0.11,16.34 2.95,18.08 4.38,20.06 5.81,22.04 6.43,24.57 7.05,27.10 7.02,29.34 7.00,31.58 5.97,34.31 4.94,37.05 2.69,39.85 0.44,42.64 -2.09,44.07 -4.62,45.49 -7.60,46.71 -10.58,47.92 -12.98,48.10 -15.37,48.29 -17.79,47.60 -20.20,46.90 -22.97,45.14 -25.75,43.37 -27.67,39.82 -29.60,36.26 -29.70,32.93 -29.80,29.60 -28.82,25.94 -27.85,22.29 -27.09,20.10 -26.32,17.90 -25.36,15.92 -24.39,13.93 -22.23,10.47 -20.07,7.01 -17.86,4.04 -15.64,1.07 -12.60,-1.48 -9.56,-4.03 -6.22,-4.74 -2.87,-5.44 -1.43,-5.36 0,-5.28 0.63,-5.20 1.26,-5.13 1.86,-4.90 2.45,-4.67 2.97,-4.31 3.50,-3.95 3.92,-3.47 4.34,-3.00 4.64,-2.43 4.94,-1.87 5.09,-1.25 5.24,-0.63 5.24,0.00 5.24,0.63 5.09,1.25 4.94,1.87 4.64,2.43 4.34,3.00 3.92,3.47 3.50,3.95 2.97,4.31 2.45,4.67 1.85,4.90 1.26,5.13 0.63,5.20 -0.00,5.28 -0.00,5.28 L 0,5.28 Z"></path></g><g transform="translate(138.99993896484375 126) rotate(0 2.5 25)" stroke="none"><path fill="#1e1e1e" d="M 1.84,4.92 Q 1.84,4.92 -0.44,5.81 -2.73,6.69 -1.59,9.53 -0.44,12.37 1.94,15.35 4.33,18.34 6.56,20.71 8.80,23.09 10.28,24.91 11.76,26.74 14.20,29.99 16.63,33.24 17.79,36.70 18.94,40.16 18.22,44.27 17.51,48.38 15.31,50.86 13.11,53.34 10.60,54.65 8.09,55.96 5.80,56.23 3.51,56.50 -0.16,55.77 -3.83,55.04 -7.11,53.33 -10.38,51.63 -12.66,48.62 -14.95,45.61 -15.02,41.58 -15.10,37.56 -13.99,34.91 -12.88,32.27 -11.36,30.33 -9.83,28.38 -6.92,25.83 -4.01,23.27 -1.27,20.95 1.45,18.62 3.36,16.49 5.26,14.35 6.59,12.20 7.92,10.05 4.88,9.20 1.85,8.34 0.97,7.62 0.08,6.89 -0.51,5.92 -1.12,4.95 -1.38,3.84 -1.64,2.72 -1.54,1.59 -1.43,0.45 -0.97,-0.59 -0.50,-1.63 0.26,-2.48 1.03,-3.32 2.03,-3.87 3.04,-4.42 4.16,-4.63 5.29,-4.83 6.42,-4.66 7.55,-4.50 8.57,-3.98 9.59,-3.46 10.39,-2.64 11.19,-1.82 11.68,-0.79 12.18,0.23 12.32,1.37 12.46,2.50 12.24,3.62 12.01,4.74 11.43,5.73 10.86,6.72 10.00,7.47 9.14,8.23 8.08,8.67 7.03,9.11 5.89,9.19 4.75,9.27 3.64,8.98 2.53,8.69 1.58,8.06 0.62,7.44 -0.08,6.54 -0.78,5.64 -1.17,4.56 -1.55,3.48 -1.57,2.34 -1.58,1.20 -1.24,0.11 -0.89,-0.97 -0.21,-1.90 0.46,-2.82 1.39,-3.47 2.33,-4.13 3.43,-4.45 4.52,-4.78 5.67,-4.73 6.81,-4.69 7.88,-4.28 8.95,-3.87 8.95,-3.88 8.95,-3.88 11.28,-2.66 13.61,-1.45 16.13,0.71 18.64,2.88 19.77,5.69 20.90,8.51 20.89,10.93 20.88,13.35 19.77,16.25 18.67,19.16 16.82,21.37 14.98,23.58 12.46,26.33 9.93,29.08 7.63,31.12 5.32,33.15 3.02,35.23 0.72,37.32 -0.52,39.36 -1.77,41.41 0.48,42.30 2.73,43.20 4.68,42.09 6.63,40.99 5.68,39.09 4.73,37.18 2.32,34.30 -0.07,31.42 -2.53,28.62 -5.00,25.81 -7.80,22.30 -10.60,18.80 -11.90,16.56 -13.20,14.33 -13.92,10.73 -14.63,7.13 -14.06,4.81 -13.49,2.48 -9.98,-0.37 -6.46,-3.24 -4.15,-4.08 -1.84,-4.92 -1.23,-5.07 -0.61,-5.22 0.01,-5.22 0.65,-5.22 1.26,-5.06 1.88,-4.91 2.44,-4.61 3.00,-4.31 3.47,-3.89 3.95,-3.47 4.31,-2.95 4.66,-2.42 4.89,-1.83 5.11,-1.24 5.18,-0.61 5.26,0.01 5.18,0.64 5.10,1.27 4.87,1.87 4.65,2.46 4.28,2.98 3.92,3.50 3.44,3.92 2.97,4.34 2.40,4.63 1.84,4.92 1.84,4.92 L 1.84,4.92 Z"></path></g><g transform="translate(176 179) rotate(0 -1.000030517578125 1)" stroke="none"><path fill="#1e1e1e" d="M 3.21,3.21 Q 3.21,3.21 2.70,3.85 2.19,4.49 1.57,4.94 0.95,5.39 0.22,5.61 -0.51,5.84 -1.27,5.81 -2.04,5.79 -2.76,5.53 -3.47,5.27 -4.07,4.79 -4.67,4.31 -5.08,3.66 -5.49,3.02 -5.68,2.27 -5.86,1.53 -5.80,0.77 -5.74,0.00 -5.44,-0.69 -5.13,-1.39 -4.62,-1.96 -4.11,-2.53 -3.44,-2.91 -2.78,-3.29 -2.02,-3.43 -1.27,-3.58 -0.51,-3.47 0.23,-3.37 0.92,-3.03 1.61,-2.69 2.15,-2.15 2.69,-1.61 3.03,-0.92 3.37,-0.23 3.47,0.52 3.58,1.27 3.43,2.03 3.29,2.78 2.91,3.44 2.53,4.11 1.96,4.62 1.39,5.13 0.69,5.44 -0.00,5.74 -0.77,5.80 -1.53,5.86 -2.27,5.68 -3.02,5.49 -3.66,5.08 -4.31,4.67 -4.79,4.07 -5.27,3.47 -5.53,2.75 -5.79,2.04 -5.81,1.27 -5.83,0.50 -5.61,-0.22 -5.38,-0.95 -4.94,-1.57 -4.49,-2.19 -4.49,-2.19 -4.49,-2.19 -3.85,-2.70 -3.21,-3.21 -2.78,-3.54 -2.34,-3.88 -1.85,-4.11 -1.35,-4.33 -0.81,-4.43 -0.27,-4.53 0.27,-4.49 0.81,-4.46 1.34,-4.30 1.86,-4.14 2.33,-3.85 2.80,-3.57 3.18,-3.18 3.57,-2.80 3.85,-2.33 4.14,-1.86 4.30,-1.34 4.46,-0.81 4.49,-0.27 4.53,0.27 4.43,0.81 4.33,1.35 4.11,1.85 3.88,2.34 3.54,2.78 3.21,3.21 3.21,3.21 L 3.21,3.21 Z"></path></g><g transform="translate(188 144) rotate(0 11.499969482421875 14.5)" stroke="none"><path fill="#1e1e1e" d="M -3.76,-3.76 Q -3.76,-3.76 -2.36,-5.24 -0.96,-6.72 2.26,-8.77 5.49,-10.82 7.96,-11.67 10.42,-12.51 12.95,-13.18 15.47,-13.85 18.08,-13.61 20.68,-13.37 24.00,-11.56 27.32,-9.74 27.97,-5.56 28.62,-1.38 27.69,1.40 26.77,4.18 25.33,5.87 23.90,7.55 22.51,9.36 21.12,11.17 19.49,12.93 17.85,14.70 17.88,12.41 17.91,10.11 19.74,11.44 21.57,12.77 23.45,14.95 25.33,17.13 26.82,19.87 28.32,22.61 28.73,26.20 29.15,29.78 28.01,32.97 26.87,36.16 24.98,38.59 23.09,41.02 19.98,42.32 16.86,43.63 14.01,43.83 11.15,44.03 9.06,43.49 6.97,42.94 4.18,40.28 1.38,37.62 0.14,33.99 -1.09,30.36 -1.06,29.19 -1.04,28.03 -0.64,26.93 -0.25,25.83 0.47,24.92 1.20,24.00 2.18,23.37 3.16,22.73 4.29,22.44 5.42,22.16 6.58,22.24 7.75,22.33 8.82,22.79 9.90,23.24 10.77,24.02 11.64,24.79 12.22,25.81 12.80,26.82 13.03,27.96 13.26,29.11 13.11,30.27 12.95,31.42 12.44,32.47 11.93,33.52 11.11,34.35 10.29,35.18 9.24,35.71 8.20,36.23 7.05,36.40 5.89,36.56 4.74,36.35 3.59,36.13 2.57,35.56 1.56,35.00 0.77,34.13 -0.00,33.27 -0.47,32.20 -0.94,31.13 -1.04,29.96 -1.14,28.80 -0.87,27.67 -0.59,26.53 0.02,25.54 0.65,24.56 1.55,23.82 2.46,23.08 3.55,22.67 4.65,22.27 5.81,22.23 6.98,22.19 8.10,22.53 9.22,22.86 10.17,23.54 11.12,24.22 11.81,25.16 12.49,26.10 12.84,27.22 13.19,28.33 13.19,28.33 13.19,28.33 13.37,29.76 13.55,31.20 13.85,28.37 14.16,25.53 12.43,23.60 10.71,21.66 8.94,20.18 7.17,18.69 6.25,16.66 5.33,14.63 6.70,9.96 8.07,5.29 10.08,3.21 12.08,1.14 14.43,-0.27 16.79,-1.68 14.36,-1.24 11.92,-0.80 9.32,0.08 6.71,0.97 5.24,2.37 3.76,3.76 3.26,4.16 2.75,4.56 2.17,4.82 1.58,5.08 0.95,5.20 0.32,5.32 -0.31,5.28 -0.96,5.24 -1.57,5.05 -2.18,4.86 -2.73,4.52 -3.28,4.19 -3.74,3.74 -4.19,3.28 -4.52,2.73 -4.86,2.18 -5.05,1.57 -5.24,0.96 -5.28,0.31 -5.32,-0.32 -5.20,-0.95 -5.08,-1.58 -4.82,-2.17 -4.56,-2.75 -4.16,-3.26 -3.76,-3.77 -3.76,-3.76 L -3.76,-3.76 Z"></path></g><g transform="translate(235.99993896484375 150) rotate(0 0 -0.5)" stroke="none"><path fill="#1e1e1e" d="M -3.18,-3.18 Q -3.18,-3.18 -2.93,-3.51 -2.68,-3.83 -2.08,-4.27 -1.47,-4.70 -0.76,-4.92 -0.04,-5.14 0.69,-5.12 1.44,-5.10 2.14,-4.84 2.84,-4.59 3.42,-4.12 4.01,-3.65 4.41,-3.02 4.81,-2.39 4.99,-1.67 5.17,-0.94 5.11,-0.20 5.05,0.53 4.75,1.22 4.46,1.91 3.96,2.46 3.46,3.02 2.81,3.38 2.16,3.75 1.43,3.89 0.69,4.03 -0.04,3.93 -0.78,3.83 -1.44,3.50 -2.11,3.17 -2.64,2.64 -3.17,2.11 -3.50,1.44 -3.83,0.77 -3.93,0.03 -4.03,-0.70 -3.89,-1.43 -3.75,-2.16 -3.38,-2.81 -3.02,-3.46 -2.46,-3.96 -1.90,-4.46 -1.22,-4.75 -0.53,-5.05 0.20,-5.11 0.95,-5.17 1.67,-4.99 2.39,-4.81 3.02,-4.41 3.65,-4.00 4.12,-3.42 4.59,-2.84 4.85,-2.14 5.10,-1.44 5.12,-0.69 5.14,0.04 4.92,0.76 4.70,1.47 4.27,2.08 3.83,2.68 3.83,2.68 3.83,2.68 3.51,2.93 3.18,3.18 2.75,3.51 2.32,3.85 1.83,4.07 1.33,4.29 0.80,4.39 0.27,4.49 -0.26,4.45 -0.81,4.42 -1.32,4.26 -1.84,4.10 -2.31,3.82 -2.77,3.54 -3.15,3.15 -3.54,2.77 -3.82,2.31 -4.10,1.84 -4.26,1.32 -4.42,0.81 -4.45,0.26 -4.49,-0.27 -4.39,-0.80 -4.29,-1.33 -4.07,-1.83 -3.85,-2.32 -3.51,-2.75 -3.18,-3.18 -3.18,-3.18 L -3.18,-3.18 Z"></path></g><g transform="translate(267.99993896484375 145) rotate(0 -13.5 18.5)" stroke="none"><path fill="#1e1e1e" d="M 4.74,2.37 Q 4.74,2.37 3.60,4.67 2.45,6.98 0.38,10.34 -1.69,13.71 -2.84,15.94 -4.00,18.18 -5.41,19.99 -6.82,21.81 -9.10,24.57 -11.38,27.32 -13.48,30.13 -15.58,32.93 -17.09,34.90 -18.61,36.87 -21.09,39.62 -23.58,42.37 -24.55,42.72 -25.52,43.08 -26.55,43.10 -27.57,43.12 -28.56,42.82 -29.54,42.51 -30.37,41.91 -31.21,41.31 -31.80,40.47 -32.40,39.63 -32.70,38.65 -33.00,37.66 -32.97,36.63 -32.93,35.60 -32.58,34.64 -32.22,33.68 -31.57,32.88 -30.92,32.08 -30.05,31.53 -29.18,30.97 -28.18,30.73 -27.19,30.49 -26.16,30.57 -25.14,30.66 -24.19,31.07 -23.25,31.48 -22.49,32.17 -21.72,32.86 -21.22,33.76 -20.72,34.66 -20.53,35.67 -20.34,36.68 -20.48,37.70 -20.62,38.72 -21.08,39.64 -21.54,40.56 -22.27,41.28 -23.00,42.00 -23.93,42.46 -24.85,42.91 -25.87,43.05 -26.89,43.18 -27.90,42.98 -28.91,42.79 -29.80,42.28 -30.70,41.77 -31.38,41.00 -32.06,40.23 -32.47,39.28 -32.87,38.34 -32.95,37.31 -33.03,36.28 -32.78,35.29 -32.52,34.29 -31.97,33.43 -31.41,32.56 -30.61,31.92 -29.80,31.28 -29.80,31.28 -29.80,31.28 -29.24,30.37 -28.67,29.46 -26.73,27.19 -24.80,24.91 -22.77,22.37 -20.74,19.83 -19.29,18.04 -17.84,16.25 -15.99,14.37 -14.14,12.49 -12.46,9.89 -10.78,7.29 -8.91,4.75 -7.05,2.21 -5.90,-0.07 -4.74,-2.37 -4.39,-2.90 -4.04,-3.44 -3.57,-3.87 -3.09,-4.30 -2.53,-4.61 -1.97,-4.92 -1.36,-5.08 -0.74,-5.25 -0.10,-5.26 0.53,-5.27 1.16,-5.13 1.78,-4.99 2.35,-4.71 2.92,-4.42 3.41,-4.01 3.90,-3.59 4.27,-3.07 4.64,-2.55 4.88,-1.96 5.12,-1.37 5.21,-0.73 5.30,-0.10 5.24,0.53 5.17,1.16 4.96,1.77 4.74,2.37 4.74,2.37 L 4.74,2.37 Z"></path></g><g transform="translate(272.99993896484375 180) rotate(0 2 2)" stroke="none"><path fill="#1e1e1e" d="M 1.10,-4.42 Q 1.10,-4.42 2.28,-4.25 3.46,-4.07 4.17,-3.77 4.88,-3.46 5.46,-2.94 6.04,-2.42 6.42,-1.74 6.80,-1.07 6.94,-0.31 7.09,0.45 6.98,1.21 6.88,1.98 6.53,2.68 6.19,3.37 5.64,3.92 5.09,4.47 4.39,4.81 3.70,5.16 2.93,5.26 2.16,5.36 1.40,5.22 0.63,5.07 -0.03,4.69 -0.70,4.30 -1.22,3.73 -1.74,3.15 -2.05,2.43 -2.35,1.72 -2.41,0.95 -2.47,0.17 -2.29,-0.57 -2.10,-1.32 -1.68,-1.97 -1.26,-2.63 -0.66,-3.11 -0.05,-3.60 0.67,-3.87 1.40,-4.13 2.17,-4.15 2.95,-4.17 3.69,-3.94 4.43,-3.71 5.06,-3.26 5.69,-2.81 6.14,-2.18 6.60,-1.54 6.82,-0.80 7.05,-0.06 7.03,0.71 7.00,1.48 6.74,2.21 6.47,2.94 5.98,3.54 5.49,4.14 4.84,4.56 4.18,4.98 3.43,5.16 2.68,5.35 1.90,5.29 1.13,5.22 1.13,5.22 1.13,5.22 0.01,4.82 -1.10,4.42 -1.62,4.23 -2.13,4.03 -2.58,3.72 -3.03,3.40 -3.40,2.99 -3.76,2.58 -4.01,2.09 -4.27,1.60 -4.40,1.06 -4.53,0.53 -4.53,-0.01 -4.52,-0.56 -4.39,-1.09 -4.26,-1.63 -4.00,-2.11 -3.74,-2.60 -3.38,-3.01 -3.01,-3.42 -2.56,-3.73 -2.10,-4.04 -1.59,-4.24 -1.07,-4.43 -0.53,-4.49 0.01,-4.56 0.56,-4.49 1.10,-4.42 1.10,-4.42 L 1.10,-4.42 Z"></path></g><g transform="translate(344.99993896484375 95) rotate(0 -17.5 21.5)" stroke="none"><path fill="#1e1e1e" d="M -0.75,5.29 Q -0.75,5.29 -2.77,5.05 -4.79,4.82 -7.29,4.80 -9.78,4.78 -12.80,5.30 -15.81,5.81 -18.62,7.26 -21.44,8.70 -23.36,10.13 -25.29,11.56 -26.90,13.51 -28.52,15.47 -29.74,17.93 -30.96,20.39 -31.59,22.67 -32.22,24.95 -32.08,27.23 -31.95,29.50 -30.58,31.35 -29.21,33.20 -27.32,34.23 -25.44,35.26 -23.35,35.69 -21.26,36.13 -18.32,36.67 -15.38,37.21 -12.35,36.91 -9.32,36.61 -6.50,35.27 -3.69,33.94 -1.99,32.88 -0.29,31.81 0.70,31.41 1.70,31.02 2.78,30.96 3.85,30.90 4.89,31.19 5.93,31.48 6.82,32.08 7.71,32.68 8.36,33.54 9.01,34.40 9.36,35.42 9.70,36.44 9.70,37.51 9.70,38.59 9.35,39.61 9.01,40.63 8.36,41.49 7.71,42.35 6.82,42.95 5.93,43.55 4.89,43.84 3.85,44.13 2.78,44.07 1.70,44.01 0.70,43.61 -0.29,43.22 -1.11,42.52 -1.93,41.82 -2.49,40.90 -3.04,39.98 -3.27,38.92 -3.50,37.87 -3.39,36.80 -3.27,35.73 -2.82,34.76 -2.36,33.78 -1.62,33.00 -0.88,32.22 0.06,31.71 1.01,31.21 2.07,31.03 3.13,30.86 4.20,31.03 5.26,31.21 6.21,31.71 7.16,32.22 7.90,33.00 8.64,33.78 9.09,34.76 9.54,35.74 9.66,36.81 9.78,37.88 9.54,38.93 9.31,39.98 8.76,40.90 8.20,41.82 7.38,42.52 6.56,43.22 6.56,43.22 6.56,43.22 3.12,45.09 -0.31,46.96 -2.48,47.91 -4.64,48.86 -8.36,49.35 -12.09,49.83 -14.25,50.06 -16.42,50.29 -19.90,49.70 -23.38,49.11 -25.52,48.70 -27.66,48.29 -31.32,46.56 -34.97,44.83 -38.37,41.57 -41.77,38.31 -43.26,34.81 -44.74,31.30 -44.83,27.21 -44.92,23.13 -44.35,20.17 -43.78,17.21 -42.11,13.98 -40.43,10.74 -38.14,7.64 -35.85,4.55 -33.06,1.97 -30.26,-0.60 -27.50,-2.08 -24.73,-3.57 -22.71,-4.49 -20.69,-5.41 -18.45,-5.76 -16.21,-6.11 -12.71,-6.37 -9.20,-6.63 -6.22,-6.30 -3.25,-5.97 -1.24,-5.63 0.75,-5.29 1.37,-5.12 2.00,-4.95 2.56,-4.64 3.12,-4.33 3.60,-3.89 4.07,-3.46 4.43,-2.92 4.78,-2.38 5.00,-1.77 5.21,-1.16 5.28,-0.52 5.34,0.11 5.25,0.75 5.16,1.38 4.92,1.98 4.68,2.58 4.30,3.10 3.92,3.62 3.43,4.04 2.94,4.46 2.36,4.75 1.78,5.03 1.16,5.17 0.53,5.31 -0.11,5.30 -0.75,5.29 -0.75,5.29 L -0.75,5.29 Z"></path></g><g transform="translate(312.99993896484375 122) rotate(0 8 -2)" stroke="none"><path fill="#1e1e1e" d="M -1.05,-4.21 Q -1.05,-4.21 3.60,-5.14 8.25,-6.07 10.17,-6.72 12.08,-7.36 12.76,-7.42 13.44,-7.47 14.10,-7.31 14.77,-7.15 15.34,-6.78 15.92,-6.41 16.34,-5.88 16.77,-5.35 17.01,-4.71 17.24,-4.07 17.26,-3.39 17.28,-2.71 17.08,-2.06 16.88,-1.40 16.49,-0.85 16.09,-0.30 15.54,0.09 14.98,0.49 14.33,0.69 13.68,0.89 13.00,0.88 12.32,0.86 11.67,0.62 11.03,0.39 10.50,-0.03 9.97,-0.45 9.60,-1.03 9.23,-1.60 9.07,-2.26 8.90,-2.93 8.96,-3.61 9.01,-4.29 9.28,-4.91 9.55,-5.54 10.01,-6.05 10.46,-6.56 11.05,-6.89 11.65,-7.23 12.32,-7.36 12.99,-7.49 13.66,-7.39 14.34,-7.30 14.95,-7.00 15.56,-6.70 16.04,-6.22 16.53,-5.74 16.83,-5.12 17.13,-4.51 17.23,-3.84 17.32,-3.16 17.19,-2.49 17.06,-1.82 16.73,-1.23 16.39,-0.63 15.89,-0.18 15.38,0.27 14.75,0.54 14.13,0.81 14.13,0.81 14.13,0.81 12.13,1.14 10.14,1.47 5.59,2.84 1.05,4.21 0.53,4.27 0.01,4.34 -0.50,4.28 -1.02,4.22 -1.51,4.03 -2.00,3.85 -2.43,3.55 -2.87,3.26 -3.21,2.87 -3.56,2.47 -3.81,2.01 -4.05,1.55 -4.18,1.04 -4.31,0.53 -4.31,0.01 -4.31,-0.50 -4.19,-1.01 -4.06,-1.52 -3.82,-1.99 -3.58,-2.45 -3.23,-2.84 -2.89,-3.24 -2.46,-3.54 -2.03,-3.84 -1.54,-4.02 -1.05,-4.21 -1.05,-4.21 L -1.05,-4.21 Z"></path></g><g transform="translate(409.99993896484375 53) rotate(0 -11.5 58)" stroke="none"><path fill="#1e1e1e" d="M -0.67,4.75 Q -0.67,4.75 -4.67,3.95 -8.66,3.14 -11.14,3.00 -13.62,2.86 -15.76,2.86 -17.90,2.87 -17.84,6.95 -17.79,11.02 -17.14,14.37 -16.49,17.71 -16.04,20.09 -15.58,22.46 -15.31,24.89 -15.04,27.31 -14.57,31.47 -14.10,35.63 -13.91,38.01 -13.72,40.39 -13.72,43.46 -13.72,46.53 -13.65,48.66 -13.58,50.80 -13.40,53.79 -13.21,56.78 -13.03,59.09 -12.85,61.41 -12.75,63.58 -12.64,65.76 -12.66,68.71 -12.69,71.66 -12.31,76.98 -11.93,82.30 -11.83,84.49 -11.72,86.69 -11.70,89.37 -11.68,92.05 -11.31,95.65 -10.93,99.24 -10.61,102.74 -10.29,106.23 -9.92,108.65 -9.55,111.07 -9.60,113.29 -9.64,115.51 -11.91,113.64 -14.18,111.76 -11.50,110.60 -8.82,109.43 -6.93,108.88 -5.04,108.33 -3.96,108.39 -2.87,108.45 -1.85,108.86 -0.84,109.26 -0.01,109.97 0.81,110.67 1.37,111.61 1.93,112.54 2.16,113.61 2.40,114.67 2.28,115.76 2.16,116.84 1.70,117.83 1.24,118.82 0.49,119.61 -0.25,120.40 -1.22,120.91 -2.18,121.42 -3.26,121.59 -4.33,121.77 -5.41,121.59 -6.48,121.41 -7.44,120.90 -8.41,120.39 -9.16,119.60 -9.90,118.80 -10.36,117.81 -10.82,116.82 -10.93,115.74 -11.05,114.66 -10.81,113.59 -10.58,112.53 -10.02,111.59 -9.45,110.66 -8.62,109.96 -7.79,109.25 -6.78,108.85 -5.76,108.45 -4.67,108.39 -3.59,108.33 -2.54,108.63 -1.49,108.92 -0.58,109.53 0.31,110.15 0.97,111.01 1.62,111.88 1.97,112.92 2.32,113.95 2.32,115.04 2.31,116.13 1.96,117.16 1.62,118.19 0.95,119.06 0.29,119.93 -0.60,120.54 -1.50,121.15 -2.55,121.44 -3.60,121.73 -3.60,121.73 -3.60,121.73 -7.16,122.42 -10.72,123.11 -12.86,123.51 -15.01,123.91 -17.20,123.20 -19.40,122.50 -20.46,120.56 -21.53,118.62 -21.42,116.28 -21.30,113.95 -21.58,110.26 -21.86,106.58 -21.89,103.71 -21.92,100.85 -22.15,96.50 -22.38,92.14 -22.40,87.44 -22.43,82.74 -22.60,79.94 -22.78,77.14 -23.07,74.44 -23.37,71.75 -23.44,66.88 -23.51,62.01 -23.58,59.88 -23.66,57.75 -24.05,52.24 -24.44,46.74 -24.64,41.87 -24.84,37.01 -25.17,34.29 -25.50,31.58 -25.60,27.91 -25.70,24.25 -26.11,21.70 -26.52,19.15 -26.84,16.60 -27.15,14.04 -27.16,11.89 -27.18,9.75 -26.72,7.13 -26.27,4.52 -25.18,0.41 -24.09,-3.68 -20.78,-5.12 -17.46,-6.56 -15.11,-6.35 -12.76,-6.13 -10.10,-5.79 -7.43,-5.44 -3.37,-5.10 0.67,-4.75 1.23,-4.60 1.79,-4.45 2.30,-4.17 2.81,-3.89 3.23,-3.50 3.66,-3.11 3.98,-2.62 4.30,-2.14 4.49,-1.59 4.68,-1.05 4.74,-0.47 4.80,0.10 4.72,0.67 4.64,1.24 4.42,1.78 4.20,2.32 3.86,2.79 3.52,3.26 3.08,3.63 2.64,4.01 2.12,4.27 1.60,4.52 1.04,4.65 0.47,4.78 -0.10,4.76 -0.68,4.75 -0.67,4.75 L -0.67,4.75 Z"></path></g><g transform="translate(438.99993896484375 144) rotate(0 15.5 -36.5)" stroke="none"><path fill="#1e1e1e" d="M -3.15,4.21 Q -3.15,4.21 -4.35,3.41 -5.55,2.61 -7.69,-0.04 -9.83,-2.71 -10.33,-5.78 -10.83,-8.85 -11.19,-11.54 -11.55,-14.24 -11.75,-18.75 -11.95,-23.26 -11.91,-28.03 -11.87,-32.81 -11.88,-37.19 -11.89,-41.57 -11.97,-44.66 -12.06,-47.74 -12.11,-48.68 -12.15,-49.61 -12.06,-50.35 -11.97,-51.08 -11.71,-51.78 -11.45,-52.47 -11.03,-53.08 -10.60,-53.69 -10.05,-54.19 -9.49,-54.68 -8.84,-55.02 -8.18,-55.37 -7.46,-55.55 -6.74,-55.72 -6.00,-55.72 -5.25,-55.72 -4.53,-55.55 -3.81,-55.37 -3.16,-55.02 -2.50,-54.68 -1.94,-54.19 -1.39,-53.70 -0.97,-53.08 -0.54,-52.47 -0.28,-51.78 -0.02,-51.09 0.06,-50.35 0.15,-49.61 1.22,-47.26 2.30,-44.91 3.48,-42.03 4.66,-39.16 6.08,-36.25 7.50,-33.34 9.05,-31.51 10.59,-29.67 10.63,-32.60 10.68,-35.53 12.15,-39.08 13.61,-42.62 15.26,-47.48 16.90,-52.35 18.06,-57.02 19.22,-61.70 19.88,-65.49 20.53,-69.28 20.93,-71.20 21.34,-73.12 21.50,-73.85 21.66,-74.58 22.00,-75.25 22.33,-75.93 22.81,-76.50 23.30,-77.07 23.90,-77.51 24.51,-77.95 25.20,-78.23 25.90,-78.51 26.64,-78.62 27.38,-78.73 28.13,-78.65 28.87,-78.58 29.58,-78.33 30.29,-78.08 30.91,-77.67 31.54,-77.26 32.05,-76.71 32.56,-76.16 32.92,-75.50 33.28,-74.85 33.48,-74.12 33.67,-73.40 33.69,-72.65 33.71,-71.90 34.27,-69.28 34.82,-66.66 35.26,-62.55 35.70,-58.44 36.09,-53.67 36.49,-48.90 36.63,-46.37 36.77,-43.84 37.03,-41.31 37.29,-38.77 38.14,-34.31 38.99,-29.86 39.63,-26.38 40.26,-22.91 41.55,-18.97 42.83,-15.04 42.94,-14.05 43.04,-13.05 42.82,-12.08 42.59,-11.11 42.07,-10.25 41.55,-9.40 40.79,-8.76 40.02,-8.12 39.09,-7.76 38.16,-7.39 37.17,-7.35 36.17,-7.30 35.21,-7.57 34.25,-7.85 33.43,-8.41 32.60,-8.98 32.01,-9.78 31.41,-10.57 31.10,-11.52 30.78,-12.47 30.79,-13.47 30.80,-14.47 31.12,-15.41 31.45,-16.35 32.06,-17.15 32.67,-17.94 33.50,-18.49 34.33,-19.04 35.29,-19.31 36.25,-19.57 37.25,-19.50 38.25,-19.44 39.17,-19.07 40.09,-18.69 40.85,-18.04 41.61,-17.39 42.12,-16.53 42.63,-15.67 42.83,-14.70 43.04,-13.72 42.93,-12.73 42.81,-11.74 42.39,-10.83 41.96,-9.93 41.27,-9.21 40.58,-8.49 39.69,-8.03 38.81,-7.57 37.82,-7.41 36.84,-7.26 35.85,-7.43 34.87,-7.59 33.99,-8.07 33.11,-8.54 32.43,-9.27 31.75,-10.00 31.33,-10.91 30.92,-11.82 30.92,-11.82 30.92,-11.82 30.36,-13.39 29.80,-14.96 29.21,-17.77 28.62,-20.58 28.11,-24.18 27.60,-27.77 27.10,-30.25 26.59,-32.74 26.13,-35.00 25.67,-37.27 25.23,-40.18 24.78,-43.08 24.63,-45.25 24.47,-47.41 23.88,-52.05 23.28,-56.68 22.78,-60.62 22.28,-64.55 21.81,-68.84 21.34,-73.12 21.50,-73.85 21.66,-74.58 21.99,-75.25 22.33,-75.93 22.81,-76.50 23.30,-77.07 23.90,-77.51 24.51,-77.95 25.20,-78.23 25.90,-78.51 26.64,-78.62 27.38,-78.73 28.13,-78.65 28.87,-78.58 29.58,-78.33 30.29,-78.08 30.91,-77.67 31.54,-77.26 32.05,-76.71 32.56,-76.16 32.92,-75.50 33.28,-74.85 33.48,-74.12 33.67,-73.40 33.69,-72.65 33.71,-71.90 33.22,-70.64 32.73,-69.38 32.07,-66.26 31.41,-63.15 31.01,-60.85 30.61,-58.54 30.02,-56.19 29.43,-53.84 29.00,-51.40 28.57,-48.96 27.85,-45.95 27.13,-42.93 26.47,-40.58 25.80,-38.23 24.14,-33.71 22.47,-29.19 20.88,-26.53 19.28,-23.87 16.94,-22.04 14.61,-20.21 12.64,-19.26 10.68,-18.31 8.41,-18.24 6.14,-18.18 2.95,-20.23 -0.22,-22.28 -2.10,-24.99 -3.98,-27.70 -5.47,-30.82 -6.95,-33.95 -8.26,-37.26 -9.57,-40.57 -9.56,-42.98 -9.55,-45.38 -10.85,-47.50 -12.15,-49.61 -12.06,-50.35 -11.97,-51.08 -11.71,-51.78 -11.45,-52.47 -11.03,-53.08 -10.60,-53.69 -10.05,-54.19 -9.49,-54.68 -8.84,-55.02 -8.18,-55.37 -7.46,-55.55 -6.74,-55.72 -6.00,-55.72 -5.25,-55.72 -4.53,-55.55 -3.81,-55.37 -3.16,-55.02 -2.50,-54.68 -1.94,-54.19 -1.39,-53.70 -0.97,-53.08 -0.54,-52.47 -0.28,-51.78 -0.02,-51.09 0.06,-50.35 0.15,-49.61 0.11,-48.68 0.06,-47.74 -0.01,-44.66 -0.10,-41.58 -0.09,-37.21 -0.09,-32.85 0.01,-28.19 0.11,-23.53 0.27,-19.82 0.43,-16.11 0.75,-13.80 1.07,-11.50 1.01,-8.78 0.95,-6.06 2.05,-5.14 3.15,-4.21 3.61,-3.77 4.07,-3.33 4.41,-2.79 4.75,-2.26 4.95,-1.65 5.15,-1.05 5.20,-0.42 5.26,0.20 5.16,0.83 5.05,1.46 4.81,2.04 4.56,2.62 4.18,3.13 3.80,3.64 3.30,4.04 2.81,4.44 2.24,4.72 1.67,4.99 1.04,5.12 0.42,5.24 -0.20,5.22 -0.84,5.19 -1.45,5.02 -2.05,4.84 -2.60,4.52 -3.15,4.21 -3.15,4.21 L -3.15,4.21 Z"></path></g><g transform="translate(501.99993896484375 105) rotate(0 11 -1)" stroke="none"><path fill="#1e1e1e" d="M 0.62,-4.38 Q 0.62,-4.38 2.61,-4.21 4.59,-4.05 9.07,-4.79 13.55,-5.53 15.72,-6.10 17.89,-6.67 18.60,-6.70 19.31,-6.72 20.00,-6.51 20.68,-6.31 21.26,-5.90 21.84,-5.49 22.26,-4.91 22.68,-4.33 22.90,-3.65 23.11,-2.97 23.10,-2.26 23.08,-1.55 22.84,-0.88 22.60,-0.21 22.16,0.34 21.71,0.90 21.11,1.29 20.52,1.68 19.83,1.85 19.14,2.03 18.42,1.98 17.71,1.92 17.06,1.65 16.40,1.37 15.87,0.90 15.33,0.42 14.98,-0.18 14.62,-0.80 14.48,-1.50 14.34,-2.20 14.44,-2.91 14.53,-3.61 14.84,-4.26 15.15,-4.90 15.65,-5.40 16.15,-5.91 16.79,-6.23 17.43,-6.55 18.13,-6.65 18.84,-6.75 19.54,-6.63 20.24,-6.50 20.86,-6.15 21.49,-5.80 21.97,-5.27 22.45,-4.75 22.73,-4.09 23.02,-3.44 23.08,-2.73 23.14,-2.02 22.97,-1.33 22.81,-0.63 22.43,-0.03 22.05,0.56 21.49,1.01 20.94,1.46 20.27,1.71 19.61,1.96 19.61,1.96 19.61,1.96 17.39,2.27 15.16,2.57 9.31,3.88 3.45,5.20 1.41,4.79 -0.62,4.38 -1.14,4.24 -1.65,4.10 -2.12,3.85 -2.59,3.59 -2.98,3.23 -3.37,2.86 -3.67,2.42 -3.96,1.97 -4.14,1.47 -4.32,0.96 -4.37,0.43 -4.43,-0.09 -4.35,-0.62 -4.27,-1.15 -4.07,-1.64 -3.87,-2.14 -3.56,-2.57 -3.25,-3.00 -2.84,-3.35 -2.43,-3.69 -1.96,-3.93 -1.48,-4.17 -0.96,-4.29 -0.44,-4.40 0.09,-4.39 0.62,-4.38 0.62,-4.38 L 0.62,-4.38 Z"></path></g><g transform="translate(537.9999389648438 117) rotate(0 29 -13.5)" stroke="none"><path fill="#1e1e1e" d="M -2.60,-4.55 Q -2.60,-4.55 -0.61,-5.73 1.37,-6.91 3.80,-8.77 6.23,-10.63 8.18,-12.94 10.12,-15.24 11.79,-16.93 13.46,-18.61 15.82,-21.52 18.17,-24.43 20.27,-27.46 22.36,-30.49 23.61,-32.56 24.85,-34.63 25.48,-35.97 26.10,-37.31 26.62,-37.85 27.15,-38.39 27.79,-38.79 28.42,-39.19 29.14,-39.43 29.85,-39.67 30.60,-39.72 31.35,-39.78 32.10,-39.66 32.84,-39.53 33.53,-39.24 34.22,-38.94 34.82,-38.48 35.42,-38.03 35.89,-37.45 36.37,-36.86 36.69,-36.18 37.01,-35.50 37.16,-34.76 37.30,-34.02 37.27,-33.27 37.24,-32.52 37.02,-31.80 36.81,-31.07 36.43,-30.42 36.05,-29.77 34.53,-26.97 33.00,-24.16 32.40,-20.82 31.80,-17.48 31.21,-13.18 30.61,-8.88 30.87,-6.10 31.13,-3.32 31.76,-1.09 32.39,1.13 33.41,-1.21 34.43,-3.56 35.67,-6.63 36.92,-9.70 38.36,-13.58 39.80,-17.46 40.96,-21.33 42.13,-25.19 42.78,-27.96 43.43,-30.73 44.01,-32.91 44.60,-35.09 44.82,-35.27 45.05,-35.46 45.27,-36.21 45.49,-36.97 45.89,-37.64 46.28,-38.32 46.83,-38.89 47.37,-39.45 48.04,-39.86 48.71,-40.28 49.45,-40.53 50.20,-40.77 50.98,-40.83 51.76,-40.89 52.54,-40.76 53.31,-40.63 54.03,-40.32 54.75,-40.01 55.38,-39.53 56.00,-39.06 56.49,-38.45 56.99,-37.84 57.32,-37.13 57.65,-36.42 57.81,-35.65 57.96,-34.88 57.92,-34.09 57.89,-33.31 58.63,-28.84 59.37,-24.38 59.81,-20.62 60.24,-16.85 60.76,-13.87 61.27,-10.89 61.77,-7.80 62.28,-4.71 63.48,-2.13 64.67,0.44 64.99,1.47 65.30,2.50 65.27,3.58 65.24,4.66 64.87,5.67 64.50,6.68 63.82,7.52 63.15,8.36 62.24,8.94 61.33,9.52 60.28,9.78 59.23,10.04 58.16,9.95 57.08,9.86 56.09,9.44 55.10,9.01 54.30,8.29 53.50,7.57 52.97,6.63 52.44,5.69 52.24,4.63 52.03,3.57 52.18,2.50 52.33,1.43 52.81,0.47 53.29,-0.49 54.05,-1.25 54.81,-2.01 55.78,-2.49 56.75,-2.97 57.82,-3.11 58.88,-3.26 59.94,-3.06 61.00,-2.85 61.94,-2.32 62.88,-1.79 63.60,-0.98 64.32,-0.18 64.74,0.80 65.17,1.79 65.26,2.87 65.34,3.94 65.08,4.99 64.82,6.04 64.24,6.94 63.66,7.85 62.81,8.53 61.97,9.20 60.96,9.57 59.95,9.94 58.87,9.97 57.79,10.00 56.76,9.68 55.73,9.36 54.85,8.73 53.98,8.10 53.35,7.23 52.72,6.35 52.72,6.35 52.72,6.35 51.41,3.41 50.10,0.47 49.60,-2.46 49.09,-5.41 48.69,-7.52 48.28,-9.62 47.80,-12.82 47.32,-16.02 46.78,-19.77 46.25,-23.51 45.80,-26.94 45.36,-30.36 45.20,-32.91 45.05,-35.46 45.27,-36.21 45.49,-36.97 45.89,-37.64 46.28,-38.32 46.83,-38.88 47.37,-39.45 48.04,-39.86 48.70,-40.28 49.45,-40.53 50.20,-40.77 50.98,-40.83 51.76,-40.89 52.54,-40.76 53.31,-40.63 54.03,-40.32 54.75,-40.01 55.38,-39.53 56.00,-39.06 56.49,-38.45 56.99,-37.84 57.32,-37.13 57.65,-36.42 57.81,-35.65 57.96,-34.88 57.92,-34.09 57.89,-33.31 56.90,-31.05 55.90,-28.79 55.06,-25.48 54.21,-22.17 52.98,-17.78 51.75,-13.38 50.99,-10.88 50.22,-8.38 48.84,-4.72 47.46,-1.05 45.21,2.92 42.95,6.90 39.97,9.69 37.00,12.48 32.76,13.11 28.51,13.74 24.96,10.75 21.41,7.76 20.39,4.64 19.38,1.52 19.02,-1.95 18.66,-5.44 18.56,-8.01 18.45,-10.58 18.74,-12.98 19.02,-15.39 19.23,-17.52 19.45,-19.66 19.83,-22.16 20.21,-24.67 20.74,-26.90 21.27,-29.14 22.18,-31.23 23.08,-33.32 24.59,-35.32 26.10,-37.31 26.62,-37.85 27.15,-38.39 27.78,-38.79 28.42,-39.19 29.14,-39.43 29.85,-39.66 30.60,-39.72 31.35,-39.78 32.09,-39.66 32.84,-39.53 33.53,-39.24 34.22,-38.94 34.82,-38.48 35.42,-38.03 35.89,-37.45 36.37,-36.86 36.69,-36.18 37.01,-35.50 37.15,-34.76 37.30,-34.02 37.27,-33.27 37.24,-32.52 37.02,-31.80 36.81,-31.08 36.43,-30.43 36.06,-29.77 35.70,-29.07 35.35,-28.37 33.90,-26.34 32.45,-24.31 30.06,-21.01 27.67,-17.70 24.67,-14.09 21.68,-10.48 18.91,-7.72 16.13,-4.95 14.20,-3.07 12.26,-1.18 9.46,0.56 6.67,2.31 4.63,3.43 2.60,4.55 2.02,4.80 1.43,5.04 0.81,5.14 0.18,5.24 -0.44,5.18 -1.07,5.13 -1.67,4.93 -2.27,4.72 -2.80,4.38 -3.33,4.04 -3.77,3.59 -4.20,3.13 -4.52,2.58 -4.83,2.03 -5.00,1.42 -5.18,0.81 -5.20,0.18 -5.22,-0.44 -5.09,-1.06 -4.96,-1.68 -4.69,-2.25 -4.42,-2.82 -4.01,-3.31 -3.61,-3.80 -3.10,-4.17 -2.60,-4.55 -2.60,-4.55 L -2.60,-4.55 Z"></path></g><g transform="translate(643.9999389648438 49) rotate(0 -10 39.5)" stroke="none"><path fill="#1e1e1e" d="M 3.25,2.84 Q 3.25,2.84 1.26,5.16 -0.72,7.48 -1.98,9.28 -3.24,11.08 -4.50,13.72 -5.77,16.37 -6.91,19.04 -8.05,21.71 -10.38,35.81 -12.70,49.90 -13.54,56.59 -14.38,63.27 -14.34,66.48 -14.31,69.69 -12.42,71.91 -10.52,74.14 -9.04,74.25 -7.55,74.37 -6.90,74.72 -6.26,75.06 -5.75,75.59 -5.25,76.12 -4.95,76.79 -4.64,77.45 -4.56,78.18 -4.49,78.91 -4.65,79.62 -4.81,80.34 -5.18,80.96 -5.56,81.59 -6.12,82.06 -6.68,82.53 -7.36,82.80 -8.04,83.07 -8.77,83.11 -9.50,83.15 -10.21,82.95 -10.91,82.75 -11.52,82.34 -12.12,81.93 -12.56,81.34 -13.00,80.76 -13.23,80.07 -13.47,79.37 -13.46,78.64 -13.46,77.91 -13.23,77.22 -12.99,76.52 -12.55,75.94 -12.10,75.36 -11.50,74.95 -10.89,74.54 -10.18,74.35 -9.48,74.16 -8.75,74.20 -8.02,74.24 -7.34,74.51 -6.66,74.78 -6.10,75.26 -5.55,75.74 -5.17,76.36 -4.80,76.99 -4.64,77.71 -4.49,78.42 -4.57,79.15 -4.65,79.87 -4.96,80.54 -5.27,81.20 -5.77,81.73 -6.28,82.26 -6.92,82.60 -7.57,82.94 -8.29,83.06 -9.01,83.17 -9.74,83.05 -10.46,82.93 -10.46,82.93 -10.46,82.93 -13.54,81.50 -16.61,80.07 -17.95,78.20 -19.29,76.34 -20.49,73.19 -21.69,70.04 -21.68,66.30 -21.66,62.57 -21.17,55.63 -20.68,48.69 -18.53,33.42 -16.39,18.16 -15.13,15.33 -13.87,12.51 -12.20,8.99 -10.52,5.47 -8.92,3.59 -7.32,1.71 -5.28,-0.56 -3.25,-2.84 -2.86,-3.19 -2.47,-3.53 -2.01,-3.78 -1.55,-4.02 -1.05,-4.15 -0.54,-4.28 -0.02,-4.28 0.49,-4.29 1.00,-4.16 1.50,-4.04 1.96,-3.80 2.43,-3.56 2.82,-3.22 3.21,-2.88 3.51,-2.45 3.81,-2.03 3.99,-1.54 4.18,-1.05 4.25,-0.54 4.31,-0.02 4.25,0.49 4.19,1.00 4.01,1.49 3.83,1.98 3.54,2.41 3.25,2.84 3.25,2.84 L 3.25,2.84 Z"></path></g><g transform="translate(658.9999389648438 131) rotate(0 18.5 -39.5)" stroke="none"><path fill="#1e1e1e" d="M -4.47,0.44 Q -4.47,0.44 -4.80,-2.42 -5.12,-5.29 -5.36,-7.46 -5.60,-9.63 -5.70,-12.34 -5.80,-15.04 -5.90,-17.32 -5.99,-19.61 -5.93,-22.88 -5.86,-26.16 -5.88,-28.99 -5.90,-31.81 -5.65,-35.89 -5.41,-39.97 -5.64,-43.25 -5.87,-46.53 -6.06,-49.52 -6.24,-52.51 -5.93,-56.28 -5.63,-60.05 -5.62,-62.65 -5.61,-65.24 -5.62,-68.04 -5.62,-70.85 -5.46,-74.14 -5.29,-77.43 -5.21,-77.65 -5.12,-77.86 -4.91,-78.44 -4.69,-79.01 -4.34,-79.52 -4.00,-80.02 -3.54,-80.43 -3.08,-80.84 -2.54,-81.12 -2.00,-81.41 -1.40,-81.56 -0.81,-81.71 -0.19,-81.71 0.41,-81.71 1.00,-81.56 1.60,-81.42 2.14,-81.14 2.69,-80.85 3.15,-80.45 3.61,-80.04 3.96,-79.54 4.31,-79.03 4.53,-78.46 4.75,-77.89 4.82,-77.28 4.90,-76.67 4.82,-76.06 4.75,-75.45 6.37,-72.74 8.00,-70.03 9.47,-65.35 10.94,-60.66 12.27,-57.82 13.59,-54.97 14.67,-52.67 15.75,-50.37 17.32,-48.07 18.89,-45.77 18.61,-48.25 18.33,-50.73 18.76,-52.97 19.20,-55.21 19.43,-57.66 19.66,-60.11 19.76,-62.39 19.86,-64.67 19.92,-67.06 19.98,-69.45 20.29,-73.33 20.60,-77.21 20.69,-77.98 20.78,-78.74 20.97,-79.46 21.17,-80.19 21.53,-80.84 21.89,-81.50 22.39,-82.04 22.90,-82.59 23.53,-83.01 24.15,-83.42 24.85,-83.67 25.56,-83.92 26.30,-83.99 27.04,-84.07 27.78,-83.96 28.52,-83.86 29.22,-83.58 29.91,-83.30 30.52,-82.86 31.12,-82.43 31.61,-81.86 32.09,-81.29 32.42,-80.62 32.76,-79.95 32.92,-79.22 33.08,-78.49 33.07,-77.74 33.05,-77.00 33.39,-73.22 33.72,-69.44 34.38,-64.03 35.04,-58.61 35.23,-55.89 35.42,-53.18 35.80,-49.76 36.19,-46.34 36.49,-43.44 36.79,-40.54 37.35,-37.64 37.91,-34.75 38.28,-32.02 38.65,-29.28 39.07,-26.91 39.49,-24.53 40.51,-21.26 41.53,-17.99 42.88,-15.08 44.24,-12.17 44.38,-11.26 44.53,-10.36 44.37,-9.45 44.22,-8.55 43.78,-7.74 43.35,-6.94 42.68,-6.31 42.01,-5.69 41.17,-5.31 40.34,-4.93 39.43,-4.84 38.51,-4.75 37.62,-4.95 36.73,-5.15 35.95,-5.63 35.16,-6.11 34.58,-6.81 33.99,-7.51 33.66,-8.37 33.32,-9.22 33.28,-10.14 33.24,-11.05 33.49,-11.93 33.74,-12.81 34.26,-13.57 34.78,-14.32 35.51,-14.87 36.25,-15.42 37.12,-15.71 37.99,-15.99 38.90,-15.99 39.82,-15.98 40.69,-15.68 41.55,-15.38 42.28,-14.82 43.00,-14.26 43.51,-13.50 44.02,-12.74 44.26,-11.85 44.50,-10.97 44.44,-10.05 44.38,-9.14 44.04,-8.29 43.69,-7.44 43.09,-6.75 42.50,-6.06 41.71,-5.59 40.92,-5.12 40.02,-4.93 39.13,-4.74 38.22,-4.85 37.31,-4.95 36.48,-5.34 35.65,-5.74 34.99,-6.37 34.33,-7.01 33.91,-7.82 33.48,-8.63 33.48,-8.63 33.48,-8.63 32.76,-10.26 32.04,-11.88 31.09,-15.24 30.14,-18.59 29.71,-20.72 29.28,-22.84 28.87,-25.46 28.47,-28.08 28.25,-30.33 28.03,-32.59 27.20,-36.02 26.38,-39.45 26.12,-41.97 25.86,-44.48 24.92,-48.38 23.99,-52.29 23.79,-54.63 23.58,-56.98 22.97,-60.07 22.35,-63.17 21.88,-65.59 21.41,-68.02 21.03,-70.88 20.65,-73.74 20.71,-76.24 20.78,-78.74 20.97,-79.46 21.17,-80.19 21.53,-80.84 21.89,-81.49 22.39,-82.04 22.90,-82.59 23.52,-83.00 24.15,-83.42 24.85,-83.67 25.56,-83.92 26.30,-83.99 27.04,-84.07 27.78,-83.96 28.52,-83.86 29.22,-83.58 29.91,-83.30 30.52,-82.86 31.12,-82.43 31.61,-81.86 32.09,-81.29 32.42,-80.62 32.76,-79.95 32.92,-79.22 33.08,-78.49 33.07,-77.74 33.05,-77.00 32.79,-75.84 32.53,-74.69 32.22,-72.00 31.92,-69.31 31.92,-66.81 31.93,-64.32 31.89,-61.87 31.85,-59.41 31.42,-54.36 31.00,-49.31 29.94,-44.90 28.88,-40.50 27.77,-38.61 26.67,-36.73 22.89,-34.80 19.10,-32.88 16.93,-33.39 14.76,-33.91 12.22,-36.25 9.69,-38.59 8.24,-40.61 6.79,-42.64 5.34,-45.96 3.89,-49.29 2.86,-51.32 1.82,-53.34 1.20,-55.45 0.58,-57.55 -0.82,-62.05 -2.24,-66.55 -3.24,-69.78 -4.23,-73.02 -4.68,-75.44 -5.12,-77.86 -4.91,-78.44 -4.69,-79.01 -4.34,-79.51 -4.00,-80.02 -3.54,-80.43 -3.08,-80.84 -2.54,-81.12 -2.00,-81.41 -1.40,-81.56 -0.81,-81.71 -0.20,-81.71 0.41,-81.71 1.00,-81.56 1.60,-81.42 2.14,-81.14 2.69,-80.85 3.15,-80.45 3.61,-80.04 3.96,-79.54 4.31,-79.04 4.53,-78.46 4.75,-77.89 4.82,-77.28 4.90,-76.67 4.82,-76.06 4.75,-75.45 4.59,-75.21 4.42,-74.97 3.96,-72.84 3.50,-70.71 3.41,-67.81 3.31,-64.91 3.13,-62.19 2.94,-59.48 2.77,-56.18 2.60,-52.88 2.66,-50.06 2.73,-47.24 3.07,-43.61 3.41,-39.97 3.66,-35.90 3.91,-31.83 3.90,-29.01 3.89,-26.19 3.97,-22.95 4.06,-19.70 4.01,-17.47 3.95,-15.23 3.96,-10.72 3.97,-6.20 4.22,-3.32 4.47,-0.44 4.46,0.09 4.45,0.63 4.31,1.15 4.16,1.68 3.90,2.15 3.64,2.63 3.27,3.02 2.90,3.42 2.45,3.72 2.00,4.02 1.49,4.20 0.98,4.38 0.44,4.44 -0.09,4.49 -0.63,4.41 -1.16,4.34 -1.67,4.13 -2.17,3.93 -2.61,3.61 -3.05,3.30 -3.40,2.88 -3.75,2.47 -3.99,1.98 -4.23,1.50 -4.35,0.97 -4.47,0.44 -4.47,0.44 L -4.47,0.44 Z"></path></g><g transform="translate(710.9999389648438 52) rotate(0 5.5 45.5)" stroke="none"><path fill="#1e1e1e" d="M 3.74,-1.87 Q 3.74,-1.87 5.20,0.99 6.66,3.85 7.92,7.31 9.17,10.77 10.09,12.99 11.00,15.21 11.77,17.40 12.54,19.59 13.21,35.11 13.87,50.62 13.46,58.88 13.04,67.13 12.51,72.37 11.98,77.61 11.97,80.37 11.97,83.12 11.65,86.89 11.33,90.65 11.14,91.32 10.95,91.98 10.56,92.55 10.17,93.12 9.62,93.53 9.07,93.95 8.41,94.16 7.76,94.38 7.07,94.37 6.38,94.37 5.72,94.15 5.07,93.92 4.52,93.50 3.98,93.08 3.59,92.51 3.21,91.93 3.03,91.27 2.85,90.60 2.89,89.91 2.93,89.22 3.19,88.58 3.45,87.95 3.90,87.42 4.35,86.90 4.94,86.55 5.54,86.19 6.21,86.05 6.88,85.91 7.57,85.98 8.26,86.06 8.88,86.36 9.50,86.65 10.00,87.13 10.50,87.61 10.82,88.22 11.14,88.83 11.25,89.51 11.36,90.19 11.24,90.87 11.12,91.55 10.80,92.16 10.47,92.77 9.97,93.24 9.46,93.71 8.83,94.00 8.21,94.28 7.52,94.35 6.83,94.42 6.16,94.27 5.49,94.12 4.90,93.76 4.31,93.40 3.87,92.87 3.42,92.34 3.17,91.70 2.92,91.06 2.89,90.37 2.85,89.68 2.85,89.68 2.85,89.68 3.68,86.18 4.50,82.68 4.82,79.89 5.14,77.11 5.36,72.02 5.59,66.93 5.61,59.01 5.64,51.08 4.14,34.62 2.65,18.16 1.98,15.91 1.31,13.65 0.20,10.65 -0.91,7.64 -2.33,4.75 -3.74,1.87 -3.91,1.39 -4.08,0.92 -4.13,0.42 -4.18,-0.08 -4.11,-0.58 -4.04,-1.08 -3.85,-1.55 -3.67,-2.02 -3.37,-2.43 -3.08,-2.83 -2.69,-3.16 -2.31,-3.49 -1.86,-3.72 -1.40,-3.94 -0.91,-4.05 -0.42,-4.16 0.08,-4.15 0.58,-4.14 1.07,-4.01 1.56,-3.88 2.00,-3.64 2.44,-3.40 2.81,-3.05 3.19,-2.71 3.46,-2.29 3.74,-1.87 3.74,-1.87 L 3.74,-1.87 Z"></path></g><g transform="translate(776.9999389648438 142) rotate(0 -0.5 11.5)" stroke="none"><path fill="#1e1e1e" d="M 5.26,0.75 Q 5.26,0.75 5.03,2.78 4.79,4.81 4.36,7.27 3.92,9.73 3.95,11.94 3.98,14.14 4.91,16.56 5.83,18.98 6.27,19.89 6.71,20.81 6.84,21.81 6.96,22.82 6.76,23.81 6.56,24.80 6.05,25.68 5.55,26.56 4.78,27.22 4.02,27.89 3.09,28.28 2.15,28.67 1.14,28.75 0.13,28.82 -0.84,28.56 -1.82,28.31 -2.67,27.75 -3.51,27.20 -4.14,26.40 -4.77,25.61 -5.11,24.65 -5.45,23.70 -5.46,22.69 -5.48,21.67 -5.17,20.71 -4.87,19.74 -4.27,18.93 -3.67,18.11 -2.84,17.53 -2.01,16.94 -1.04,16.66 -0.07,16.37 0.94,16.41 1.95,16.45 2.90,16.81 3.84,17.16 4.63,17.81 5.41,18.45 5.95,19.31 6.48,20.17 6.72,21.15 6.95,22.14 6.86,23.15 6.77,24.16 6.36,25.08 5.95,26.01 5.26,26.76 4.58,27.50 3.69,27.99 2.80,28.48 1.81,28.66 0.81,28.84 -0.18,28.70 -1.19,28.55 -2.09,28.09 -2.99,27.63 -3.70,26.91 -4.41,26.18 -4.41,26.18 -4.41,26.18 -5.78,23.77 -7.16,21.36 -7.52,17.61 -7.89,13.86 -7.65,11.07 -7.41,8.27 -6.67,5.75 -5.94,3.23 -5.60,1.24 -5.26,-0.75 -5.10,-1.37 -4.93,-1.99 -4.62,-2.55 -4.31,-3.11 -3.87,-3.58 -3.44,-4.05 -2.90,-4.40 -2.37,-4.76 -1.76,-4.97 -1.16,-5.19 -0.52,-5.25 0.11,-5.31 0.74,-5.22 1.38,-5.13 1.97,-4.89 2.57,-4.65 3.09,-4.28 3.61,-3.90 4.02,-3.41 4.44,-2.92 4.72,-2.35 5.01,-1.78 5.15,-1.15 5.29,-0.52 5.28,0.11 5.26,0.75 5.26,0.75 L 5.26,0.75 Z"></path></g><g transform="translate(426.99993896484375 62) rotate(0 22.500030517578125 -5.5)" stroke="none"><path fill="#1e1e1e" d="M -1.09,-4.92 Q -1.09,-4.92 1.48,-5.51 4.07,-6.10 6.63,-6.67 9.19,-7.23 11.36,-7.78 13.53,-8.33 16.41,-9.05 19.30,-9.76 21.34,-10.43 23.38,-11.09 26.56,-11.66 29.73,-12.24 33.36,-13.14 37.00,-14.03 39.49,-14.95 41.98,-15.87 42.87,-16.01 43.76,-16.14 44.65,-15.99 45.54,-15.83 46.33,-15.40 47.12,-14.97 47.73,-14.31 48.34,-13.65 48.71,-12.83 49.08,-12.01 49.17,-11.11 49.26,-10.21 49.05,-9.33 48.85,-8.46 48.38,-7.69 47.91,-6.92 47.21,-6.35 46.52,-5.77 45.68,-5.45 44.84,-5.12 43.94,-5.08 43.04,-5.04 42.17,-5.29 41.30,-5.55 40.56,-6.06 39.82,-6.57 39.29,-7.30 38.75,-8.02 38.47,-8.88 38.19,-9.73 38.20,-10.64 38.21,-11.54 38.51,-12.39 38.81,-13.24 39.36,-13.95 39.91,-14.66 40.67,-15.16 41.42,-15.66 42.29,-15.89 43.16,-16.12 44.06,-16.06 44.96,-16.00 45.79,-15.66 46.63,-15.31 47.31,-14.72 47.99,-14.13 48.44,-13.36 48.90,-12.58 49.08,-11.70 49.27,-10.81 49.16,-9.92 49.05,-9.02 48.66,-8.21 48.27,-7.40 47.65,-6.75 47.02,-6.10 46.22,-5.69 45.42,-5.28 45.42,-5.28 45.42,-5.28 40.79,-4.19 36.16,-3.11 33.90,-2.61 31.65,-2.12 28.99,-1.59 26.34,-1.05 24.14,-0.47 21.94,0.11 18.91,0.98 15.88,1.85 13.59,2.32 11.30,2.80 8.78,3.30 6.27,3.80 3.68,4.36 1.09,4.92 0.48,4.98 -0.11,5.03 -0.71,4.95 -1.31,4.86 -1.88,4.63 -2.44,4.40 -2.93,4.05 -3.42,3.69 -3.82,3.23 -4.21,2.76 -4.48,2.22 -4.75,1.67 -4.88,1.08 -5.01,0.49 -5.00,-0.11 -4.98,-0.72 -4.82,-1.30 -4.67,-1.89 -4.37,-2.42 -4.08,-2.95 -3.66,-3.40 -3.25,-3.84 -2.74,-4.18 -2.23,-4.51 -1.66,-4.71 -1.09,-4.92 -1.09,-4.92 L -1.09,-4.92 Z"></path></g><g transform="translate(820.9999389648438 147) rotate(0 16.5 -34.5)" stroke="none"><path fill="#1e1e1e" d="M -4.53,0 Q -4.53,0 -4.64,-2.02 -4.76,-4.04 -4.54,-7.40 -4.33,-10.75 -3.96,-19.96 -3.59,-29.17 -3.32,-34.01 -3.05,-38.85 -3.25,-42.48 -3.45,-46.12 -3.71,-48.63 -3.97,-51.14 -1.62,-52.46 0.72,-53.78 1.57,-51.63 2.43,-49.48 3.57,-47.18 4.70,-44.88 7.37,-46.11 10.03,-47.35 12.09,-49.54 14.15,-51.74 15.51,-54.61 16.87,-57.48 18.45,-61.14 20.02,-64.80 21.29,-67.52 22.56,-70.24 22.72,-70.37 22.88,-70.50 23.30,-71.15 23.72,-71.80 24.28,-72.33 24.84,-72.86 25.52,-73.24 26.19,-73.62 26.93,-73.82 27.68,-74.03 28.45,-74.05 29.22,-74.08 29.98,-73.91 30.73,-73.75 31.43,-73.41 32.12,-73.07 32.72,-72.58 33.31,-72.08 33.77,-71.46 34.23,-70.84 34.52,-70.12 34.82,-69.41 34.93,-68.64 35.05,-67.88 34.98,-67.11 34.91,-66.34 34.65,-65.61 34.40,-64.88 34.11,-61.46 33.82,-58.04 33.55,-54.01 33.28,-49.99 33.12,-45.11 32.96,-40.24 33.57,-36.00 34.17,-31.76 35.11,-28.51 36.06,-25.27 35.30,-25.14 34.54,-25.02 35.54,-25.04 36.54,-25.06 37.49,-24.76 38.45,-24.45 39.26,-23.86 40.07,-23.27 40.64,-22.45 41.22,-21.63 41.50,-20.67 41.79,-19.71 41.75,-18.71 41.72,-17.71 41.36,-16.77 41.01,-15.84 40.38,-15.06 39.74,-14.29 38.89,-13.75 38.04,-13.22 37.07,-12.99 36.10,-12.76 35.10,-12.85 34.10,-12.94 33.18,-13.34 32.27,-13.75 31.53,-14.42 30.79,-15.10 30.30,-15.97 29.82,-16.85 29.64,-17.84 29.46,-18.82 29.60,-19.81 29.75,-20.80 30.20,-21.70 30.65,-22.59 31.37,-23.29 32.08,-23.99 32.98,-24.43 33.89,-24.87 34.88,-24.99 35.87,-25.12 36.85,-24.92 37.84,-24.72 38.70,-24.22 39.57,-23.72 40.23,-22.97 40.90,-22.22 41.28,-21.29 41.67,-20.37 41.74,-19.37 41.81,-18.37 41.56,-17.40 41.31,-16.43 40.77,-15.59 40.22,-14.76 39.43,-14.13 38.65,-13.51 37.70,-13.18 36.76,-12.84 36.76,-12.84 36.76,-12.84 32.38,-14.29 27.99,-15.74 26.25,-18.99 24.51,-22.24 23.56,-26.10 22.61,-29.95 22.14,-32.62 21.67,-35.29 21.37,-37.78 21.06,-40.28 20.99,-45.29 20.92,-50.30 20.89,-53.31 20.86,-56.32 21.09,-58.62 21.32,-60.93 21.94,-63.22 22.55,-65.51 22.71,-68.01 22.88,-70.50 23.30,-71.15 23.72,-71.80 24.28,-72.33 24.84,-72.86 25.52,-73.24 26.19,-73.61 26.93,-73.82 27.68,-74.03 28.45,-74.05 29.22,-74.08 29.98,-73.91 30.73,-73.75 31.43,-73.41 32.12,-73.07 32.72,-72.58 33.31,-72.08 33.77,-71.46 34.23,-70.84 34.52,-70.12 34.82,-69.41 34.93,-68.64 35.05,-67.88 34.98,-67.11 34.91,-66.34 34.65,-65.61 34.40,-64.88 34.08,-64.60 33.76,-64.32 32.58,-61.95 31.40,-59.59 29.87,-55.96 28.33,-52.33 27.31,-49.97 26.28,-47.61 25.07,-45.58 23.85,-43.55 20.92,-40.50 17.99,-37.45 14.71,-35.43 11.42,-33.41 7.20,-32.92 2.97,-32.43 0.62,-33.50 -1.73,-34.56 -3.32,-36.48 -4.91,-38.40 -6.39,-41.92 -7.86,-45.44 -8.10,-47.58 -8.35,-49.72 -8.03,-52.43 -7.72,-55.14 -5.95,-57.59 -4.18,-60.04 -0.16,-58.02 3.85,-56.00 4.09,-53.78 4.32,-51.55 4.30,-49.12 4.27,-46.68 4.63,-42.75 4.98,-38.81 5.21,-33.97 5.44,-29.12 5.70,-19.58 5.97,-10.04 5.36,-7.02 4.76,-4.00 4.64,-2.00 4.53,0 4.46,0.54 4.40,1.08 4.20,1.59 4.01,2.10 3.70,2.55 3.39,3.00 2.98,3.36 2.57,3.73 2.09,3.98 1.60,4.23 1.07,4.36 0.54,4.49 -0.00,4.49 -0.54,4.49 -1.07,4.36 -1.60,4.23 -2.09,3.98 -2.57,3.73 -2.98,3.36 -3.39,3.00 -3.70,2.55 -4.01,2.10 -4.20,1.59 -4.40,1.08 -4.46,0.54 -4.53,-0.00 -4.53,-0.00 L -4.53,0 Z"></path></g><g transform="translate(802.9999389648438 74) rotate(0 26 -4.5)" stroke="none"><path fill="#1e1e1e" d="M -1.46,-4.38 Q -1.46,-4.38 1.11,-5.29 3.68,-6.20 6.71,-6.93 9.75,-7.66 12.02,-8.07 14.29,-8.48 17.80,-8.78 21.32,-9.09 23.81,-9.57 26.29,-10.06 30.11,-10.41 33.94,-10.76 36.54,-11.29 39.15,-11.82 44.14,-12.66 49.13,-13.50 49.92,-13.48 50.70,-13.47 51.44,-13.20 52.19,-12.93 52.80,-12.45 53.42,-11.96 53.85,-11.30 54.28,-10.64 54.47,-9.88 54.67,-9.11 54.61,-8.33 54.55,-7.54 54.25,-6.82 53.94,-6.09 53.42,-5.50 52.90,-4.91 52.22,-4.52 51.53,-4.13 50.76,-3.98 49.99,-3.82 49.21,-3.92 48.43,-4.02 47.72,-4.37 47.01,-4.71 46.45,-5.26 45.89,-5.82 45.54,-6.52 45.18,-7.22 45.07,-8.00 44.96,-8.78 45.10,-9.55 45.25,-10.33 45.63,-11.01 46.01,-11.70 46.59,-12.23 47.17,-12.76 47.89,-13.08 48.62,-13.39 49.40,-13.46 50.18,-13.53 50.95,-13.35 51.71,-13.16 52.38,-12.75 53.04,-12.33 53.54,-11.72 54.04,-11.11 54.32,-10.37 54.59,-9.63 54.62,-8.85 54.65,-8.06 54.42,-7.31 54.20,-6.55 53.74,-5.91 53.29,-5.27 52.65,-4.80 52.01,-4.34 51.26,-4.10 50.51,-3.87 50.51,-3.87 50.51,-3.87 45.65,-3.29 40.79,-2.72 37.95,-2.26 35.11,-1.80 31.53,-1.18 27.95,-0.57 25.19,-0.14 22.42,0.29 17.16,0.94 11.89,1.59 9.27,2.17 6.66,2.75 4.06,3.56 1.46,4.38 0.91,4.49 0.36,4.60 -0.18,4.58 -0.74,4.56 -1.27,4.40 -1.81,4.25 -2.29,3.97 -2.77,3.69 -3.17,3.30 -3.58,2.92 -3.87,2.45 -4.17,1.97 -4.35,1.45 -4.52,0.92 -4.57,0.36 -4.61,-0.18 -4.52,-0.73 -4.43,-1.28 -4.21,-1.80 -4.00,-2.31 -3.66,-2.75 -3.33,-3.20 -2.89,-3.55 -2.46,-3.90 -1.96,-4.14 -1.46,-4.38 -1.46,-4.38 L -1.46,-4.38 Z"></path></g><g transform="translate(889.9999389648438 93) rotate(0 14.5 -1.5)" stroke="none"><path fill="#1e1e1e" d="M -0.58,-4.68 Q -0.58,-4.68 1.70,-5.04 3.98,-5.41 6.71,-6.18 9.44,-6.96 15.76,-7.09 22.08,-7.23 23.96,-7.47 25.85,-7.71 26.64,-7.64 27.44,-7.57 28.17,-7.24 28.90,-6.92 29.48,-6.38 30.07,-5.85 30.46,-5.15 30.84,-4.45 30.99,-3.66 31.13,-2.88 31.01,-2.09 30.90,-1.30 30.54,-0.59 30.18,0.11 29.61,0.67 29.04,1.23 28.32,1.57 27.60,1.92 26.81,2.02 26.02,2.12 25.24,1.96 24.45,1.81 23.76,1.41 23.07,1.01 22.55,0.41 22.02,-0.18 21.71,-0.92 21.40,-1.65 21.35,-2.45 21.29,-3.24 21.49,-4.02 21.69,-4.79 22.13,-5.46 22.56,-6.12 23.19,-6.62 23.82,-7.11 24.57,-7.38 25.32,-7.65 26.12,-7.66 26.91,-7.67 27.67,-7.43 28.43,-7.19 29.08,-6.72 29.72,-6.25 30.18,-5.59 30.64,-4.94 30.86,-4.18 31.09,-3.41 31.06,-2.61 31.03,-1.82 30.75,-1.07 30.47,-0.33 29.96,0.28 29.46,0.90 28.78,1.32 28.10,1.74 27.33,1.93 26.55,2.11 26.55,2.11 26.55,2.11 24.65,2.14 22.76,2.17 16.83,2.82 10.90,3.47 8.05,3.87 5.21,4.26 2.89,4.47 0.58,4.68 0.01,4.68 -0.55,4.68 -1.10,4.55 -1.65,4.41 -2.16,4.15 -2.66,3.89 -3.09,3.51 -3.52,3.14 -3.84,2.67 -4.16,2.20 -4.37,1.67 -4.57,1.14 -4.64,0.58 -4.71,0.01 -4.65,-0.54 -4.58,-1.11 -4.38,-1.64 -4.18,-2.17 -3.86,-2.64 -3.54,-3.11 -3.11,-3.49 -2.69,-3.87 -2.19,-4.13 -1.68,-4.40 -1.13,-4.54 -0.58,-4.68 -0.58,-4.68 L -0.58,-4.68 Z"></path></g><g transform="translate(910.9999389648438 81) rotate(0 -2 11)" stroke="none"><path fill="#1e1e1e" d="M 4.94,1.85 Q 4.94,1.85 4.10,4.16 3.25,6.46 2.54,9.14 1.82,11.81 2.39,14.01 2.95,16.21 3.80,17.95 4.65,19.69 4.80,20.66 4.96,21.63 4.80,22.61 4.64,23.58 4.18,24.45 3.72,25.32 3.00,26.00 2.29,26.67 1.39,27.09 0.50,27.50 -0.47,27.61 -1.45,27.71 -2.41,27.50 -3.37,27.29 -4.22,26.78 -5.06,26.27 -5.70,25.52 -6.34,24.77 -6.70,23.85 -7.07,22.94 -7.12,21.95 -7.17,20.97 -6.91,20.02 -6.64,19.07 -6.09,18.26 -5.54,17.44 -4.75,16.85 -3.97,16.25 -3.03,15.94 -2.10,15.62 -1.11,15.62 -0.13,15.62 0.79,15.94 1.73,16.25 2.51,16.85 3.30,17.45 3.85,18.26 4.40,19.08 4.67,20.03 4.93,20.98 4.87,21.96 4.82,22.94 4.46,23.86 4.09,24.77 3.45,25.53 2.81,26.28 1.97,26.78 1.12,27.29 0.16,27.50 -0.79,27.71 -1.77,27.61 -2.75,27.50 -3.64,27.09 -4.54,26.67 -5.25,25.99 -5.97,25.31 -6.43,24.44 -6.89,23.57 -6.89,23.57 -6.89,23.57 -7.51,22.30 -8.14,21.02 -8.94,17.99 -9.74,14.97 -9.37,11.99 -9.00,9.02 -7.85,5.87 -6.70,2.73 -5.82,0.43 -4.94,-1.85 -4.64,-2.41 -4.35,-2.98 -3.93,-3.46 -3.51,-3.93 -2.99,-4.30 -2.47,-4.66 -1.87,-4.89 -1.28,-5.12 -0.65,-5.19 -0.01,-5.27 0.61,-5.20 1.24,-5.12 1.84,-4.90 2.43,-4.68 2.96,-4.32 3.48,-3.96 3.90,-3.48 4.33,-3.01 4.63,-2.45 4.92,-1.88 5.08,-1.27 5.23,-0.65 5.23,-0.01 5.24,0.61 5.09,1.23 4.94,1.85 4.94,1.85 L 4.94,1.85 Z"></path></g><g transform="translate(934.9999389648438 112) rotate(0 29 -13)" stroke="none"><path fill="#1e1e1e" d="M -2.60,-3.90 Q -2.60,-3.90 -0.93,-5.14 0.73,-6.37 2.72,-7.59 4.72,-8.82 11.11,-13.68 17.51,-18.53 20.68,-20.95 23.84,-23.36 25.49,-25.16 27.14,-26.95 27.23,-27.34 27.32,-27.72 27.72,-28.12 28.11,-28.52 28.59,-28.81 29.07,-29.10 29.60,-29.27 30.14,-29.44 30.70,-29.48 31.26,-29.51 31.81,-29.41 32.36,-29.32 32.87,-29.09 33.38,-28.86 33.83,-28.52 34.27,-28.17 34.61,-27.73 34.96,-27.29 35.19,-26.78 35.43,-26.27 35.53,-25.72 35.63,-25.17 35.60,-24.61 35.57,-24.05 35.41,-23.52 35.24,-22.98 34.95,-22.50 34.66,-22.02 33.59,-19.63 32.51,-17.23 31.76,-14.94 31.00,-12.66 30.96,-10.12 30.91,-7.58 33.81,-9.02 36.70,-10.45 38.50,-12.74 40.31,-15.03 41.77,-16.76 43.24,-18.49 44.89,-21.07 46.55,-23.64 47.27,-24.43 48.00,-25.21 48.40,-25.94 48.80,-26.67 49.36,-27.29 49.93,-27.90 50.62,-28.37 51.32,-28.83 52.10,-29.11 52.89,-29.39 53.72,-29.48 54.55,-29.57 55.37,-29.45 56.20,-29.34 56.98,-29.03 57.75,-28.72 58.43,-28.24 59.11,-27.75 59.65,-27.12 60.19,-26.48 60.57,-25.74 60.94,-24.99 61.13,-24.18 61.32,-23.36 61.30,-22.53 61.29,-21.70 61.08,-20.89 60.86,-20.08 61.46,-17.24 62.05,-14.39 62.09,-12.20 62.12,-10.02 61.94,-9.56 61.76,-9.10 62.61,-8.30 63.45,-7.51 64.00,-6.49 64.55,-5.47 64.75,-4.33 64.94,-3.19 64.76,-2.04 64.58,-0.89 64.04,0.12 63.51,1.15 62.67,1.95 61.83,2.75 60.78,3.25 59.73,3.74 58.58,3.87 57.43,4.00 56.30,3.76 55.16,3.52 54.17,2.93 53.17,2.34 52.41,1.46 51.66,0.58 51.22,-0.49 50.79,-1.56 50.72,-2.72 50.65,-3.87 50.95,-4.99 51.26,-6.11 51.90,-7.07 52.55,-8.04 53.46,-8.74 54.38,-9.45 55.48,-9.83 56.57,-10.21 57.73,-10.21 58.89,-10.22 59.99,-9.86 61.09,-9.49 62.02,-8.80 62.95,-8.10 63.60,-7.14 64.26,-6.19 64.58,-5.07 64.89,-3.96 64.84,-2.80 64.78,-1.64 64.36,-0.56 63.94,0.51 63.19,1.39 62.45,2.28 61.46,2.89 60.47,3.49 59.34,3.74 58.21,4.00 57.05,3.88 55.90,3.76 54.84,3.28 53.79,2.80 53.79,2.80 53.79,2.80 51.29,-1.03 48.80,-4.88 48.33,-7.39 47.87,-9.91 47.90,-12.13 47.93,-14.35 48.06,-16.92 48.20,-19.48 48.10,-22.34 48.00,-25.21 48.40,-25.94 48.80,-26.67 49.36,-27.29 49.93,-27.90 50.62,-28.37 51.32,-28.83 52.10,-29.11 52.89,-29.39 53.72,-29.48 54.55,-29.57 55.37,-29.45 56.20,-29.34 56.98,-29.03 57.75,-28.72 58.43,-28.24 59.11,-27.75 59.65,-27.12 60.19,-26.48 60.57,-25.74 60.94,-24.99 61.13,-24.18 61.32,-23.37 61.30,-22.53 61.29,-21.70 61.08,-20.89 60.86,-20.08 60.19,-19.53 59.53,-18.97 58.33,-17.05 57.14,-15.13 56.01,-13.19 54.89,-11.24 53.33,-9.56 51.78,-7.89 49.65,-5.03 47.52,-2.17 45.69,-0.75 43.85,0.66 41.09,2.17 38.33,3.67 35.28,3.99 32.24,4.31 29.48,3.87 26.72,3.44 24.75,2.18 22.77,0.91 21.36,-1.60 19.96,-4.12 19.67,-7.22 19.39,-10.31 19.98,-13.21 20.56,-16.10 21.34,-18.10 22.11,-20.10 23.35,-21.88 24.60,-23.66 25.96,-25.69 27.32,-27.72 27.72,-28.12 28.11,-28.52 28.59,-28.81 29.07,-29.10 29.60,-29.27 30.14,-29.44 30.70,-29.48 31.26,-29.51 31.81,-29.41 32.36,-29.32 32.87,-29.09 33.38,-28.86 33.82,-28.52 34.27,-28.17 34.61,-27.73 34.96,-27.29 35.19,-26.78 35.43,-26.27 35.53,-25.72 35.63,-25.17 35.60,-24.61 35.57,-24.05 35.41,-23.52 35.24,-22.98 34.95,-22.50 34.67,-22.02 33.59,-20.84 32.51,-19.66 30.79,-18.37 29.07,-17.07 26.09,-14.37 23.11,-11.67 14.64,-4.94 6.16,1.77 4.38,2.84 2.60,3.90 2.10,4.16 1.59,4.41 1.04,4.54 0.49,4.67 -0.07,4.66 -0.64,4.65 -1.18,4.51 -1.73,4.36 -2.23,4.09 -2.73,3.82 -3.14,3.44 -3.56,3.05 -3.88,2.58 -4.19,2.11 -4.38,1.58 -4.57,1.05 -4.63,0.48 -4.69,-0.07 -4.62,-0.63 -4.54,-1.19 -4.33,-1.72 -4.12,-2.25 -3.79,-2.71 -3.46,-3.17 -3.03,-3.54 -2.60,-3.90 -2.60,-3.90 L -2.60,-3.90 Z"></path></g><g transform="translate(1039.9999389648438 53) rotate(0 -8.5 28)" stroke="none"><path fill="#1e1e1e" d="M 3.69,3.23 Q 3.69,3.23 1.66,5.51 -0.36,7.80 -2.30,10.30 -4.24,12.80 -6.45,17.30 -8.66,21.79 -9.39,23.98 -10.11,26.16 -10.72,30.39 -11.33,34.61 -10.78,38.22 -10.24,41.83 -8.97,44.68 -7.70,47.52 -5.94,49.58 -4.17,51.63 -3.70,52.43 -3.22,53.22 -3.02,54.13 -2.82,55.04 -2.92,55.96 -3.03,56.88 -3.42,57.72 -3.81,58.57 -4.45,59.24 -5.09,59.91 -5.91,60.34 -6.73,60.78 -7.65,60.93 -8.56,61.08 -9.48,60.92 -10.39,60.77 -11.21,60.34 -12.03,59.90 -12.67,59.22 -13.31,58.55 -13.69,57.71 -14.08,56.86 -14.18,55.94 -14.28,55.02 -14.08,54.11 -13.88,53.20 -13.40,52.41 -12.92,51.61 -12.21,51.02 -11.50,50.42 -10.64,50.07 -9.77,49.73 -8.85,49.68 -7.92,49.63 -7.03,49.88 -6.13,50.13 -5.37,50.66 -4.60,51.18 -4.04,51.92 -3.48,52.66 -3.18,53.54 -2.89,54.42 -2.89,55.35 -2.89,56.28 -3.19,57.16 -3.49,58.03 -4.05,58.77 -4.61,59.51 -5.38,60.03 -6.15,60.55 -7.05,60.80 -7.94,61.04 -8.87,60.99 -9.80,60.94 -10.66,60.59 -11.52,60.25 -12.23,59.65 -12.93,59.04 -12.93,59.04 -12.93,59.04 -15.15,55.90 -17.38,52.75 -18.64,50.15 -19.90,47.54 -20.31,45.44 -20.72,43.33 -21.04,40.77 -21.35,38.21 -21.35,35.64 -21.35,33.08 -20.90,30.17 -20.45,27.25 -19.90,25.04 -19.34,22.83 -18.34,20.27 -17.34,17.72 -15.95,14.67 -14.55,11.62 -13.18,9.41 -11.82,7.20 -9.75,4.30 -7.68,1.39 -5.69,-0.91 -3.69,-3.23 -3.25,-3.63 -2.81,-4.02 -2.29,-4.30 -1.77,-4.58 -1.19,-4.72 -0.62,-4.87 -0.02,-4.87 0.56,-4.88 1.13,-4.74 1.71,-4.60 2.24,-4.33 2.76,-4.06 3.21,-3.67 3.65,-3.28 3.99,-2.79 4.33,-2.30 4.54,-1.75 4.76,-1.20 4.83,-0.61 4.91,-0.02 4.84,0.55 4.77,1.14 4.57,1.70 4.36,2.25 4.03,2.74 3.69,3.23 3.69,3.23 L 3.69,3.23 Z"></path></g><g transform="translate(1053.9999389648438 119) rotate(0 21.5 -31.5)" stroke="none"><path fill="#1e1e1e" d="M -4.26,-1.82 Q -4.26,-1.82 -3.49,-3.88 -2.72,-5.93 -0.60,-15.97 1.51,-26.02 2.34,-30.72 3.18,-35.42 3.34,-38.25 3.50,-41.08 3.84,-44.14 4.19,-47.19 4.17,-50.36 4.14,-53.53 4.33,-54.61 4.52,-55.69 4.61,-56.29 4.71,-56.89 4.95,-57.45 5.18,-58.01 5.55,-58.49 5.91,-58.98 6.38,-59.37 6.85,-59.75 7.40,-60.01 7.95,-60.27 8.54,-60.40 9.14,-60.52 9.74,-60.49 10.35,-60.47 10.93,-60.30 11.52,-60.14 12.04,-59.83 12.57,-59.53 13.01,-59.11 13.45,-58.69 13.77,-58.18 14.10,-57.66 14.29,-57.09 14.48,-56.51 14.53,-55.91 14.58,-55.30 15.62,-52.51 16.66,-49.71 17.53,-46.65 18.39,-43.59 19.66,-41.31 20.92,-39.03 22.24,-37.19 23.55,-35.35 24.23,-38.83 24.91,-42.32 25.43,-44.88 25.95,-47.44 26.96,-51.15 27.96,-54.86 28.13,-57.06 28.29,-59.26 30.76,-63.20 33.22,-67.14 37.64,-64.94 42.06,-62.74 42.40,-60.23 42.73,-57.72 43.11,-54.34 43.49,-50.96 43.78,-47.60 44.08,-44.25 44.40,-41.95 44.73,-39.66 45.61,-36.04 46.48,-32.42 47.10,-29.59 47.71,-26.76 48.52,-23.26 49.33,-19.76 49.37,-18.70 49.41,-17.64 49.11,-16.62 48.81,-15.61 48.20,-14.74 47.58,-13.87 46.73,-13.24 45.87,-12.61 44.86,-12.29 43.85,-11.97 42.79,-11.99 41.73,-12.01 40.73,-12.37 39.73,-12.72 38.89,-13.38 38.06,-14.04 37.48,-14.93 36.90,-15.81 36.63,-16.84 36.37,-17.87 36.44,-18.93 36.52,-19.99 36.93,-20.97 37.34,-21.95 38.04,-22.74 38.74,-23.54 39.66,-24.07 40.58,-24.60 41.62,-24.81 42.66,-25.02 43.71,-24.89 44.77,-24.76 45.72,-24.29 46.68,-23.83 47.44,-23.09 48.19,-22.34 48.67,-21.40 49.15,-20.45 49.31,-19.40 49.46,-18.35 49.27,-17.30 49.08,-16.26 48.57,-15.33 48.05,-14.40 47.27,-13.69 46.49,-12.97 45.51,-12.54 44.54,-12.11 43.49,-12.02 42.43,-11.92 41.40,-12.17 40.36,-12.41 39.46,-12.98 38.56,-13.54 37.89,-14.36 37.22,-15.18 36.84,-16.17 36.47,-17.17 36.47,-17.17 36.47,-17.17 35.88,-19.52 35.29,-21.88 34.81,-24.50 34.32,-27.13 33.69,-30.18 33.07,-33.24 32.54,-35.34 32.02,-37.44 31.51,-39.95 31.00,-42.46 30.59,-45.03 30.19,-47.61 30.06,-50.18 29.92,-52.75 29.73,-57.00 29.55,-61.26 33.71,-59.06 37.87,-56.87 39.70,-58.54 41.53,-60.21 41.35,-57.60 41.17,-55.00 40.40,-51.37 39.63,-47.75 38.80,-44.15 37.97,-40.55 36.85,-37.43 35.73,-34.31 33.87,-30.98 32.01,-27.66 29.30,-25.69 26.58,-23.73 23.07,-23.66 19.56,-23.59 16.75,-25.71 13.95,-27.83 12.30,-30.51 10.66,-33.19 9.16,-36.45 7.67,-39.71 6.92,-42.14 6.16,-44.57 5.82,-47.18 5.47,-49.80 4.99,-52.74 4.52,-55.69 4.61,-56.29 4.71,-56.89 4.95,-57.45 5.18,-58.01 5.55,-58.49 5.91,-58.98 6.38,-59.36 6.85,-59.75 7.40,-60.01 7.95,-60.27 8.54,-60.40 9.14,-60.52 9.74,-60.49 10.35,-60.47 10.93,-60.30 11.52,-60.14 12.04,-59.83 12.57,-59.53 13.01,-59.11 13.45,-58.69 13.77,-58.18 14.10,-57.67 14.29,-57.09 14.48,-56.51 14.53,-55.91 14.58,-55.30 13.92,-52.90 13.25,-50.50 12.94,-48.28 12.63,-46.06 12.18,-43.20 11.73,-40.35 11.37,-37.38 11.02,-34.42 10.64,-29.55 10.26,-24.67 8.21,-13.39 6.17,-2.11 5.22,-0.14 4.26,1.82 3.98,2.31 3.70,2.79 3.31,3.20 2.92,3.60 2.45,3.90 1.98,4.20 1.45,4.37 0.91,4.55 0.36,4.59 -0.19,4.64 -0.74,4.54 -1.30,4.45 -1.81,4.23 -2.33,4.01 -2.77,3.68 -3.22,3.34 -3.57,2.90 -3.93,2.47 -4.17,1.96 -4.40,1.46 -4.51,0.91 -4.63,0.36 -4.60,-0.19 -4.58,-0.75 -4.42,-1.29 -4.26,-1.83 -4.26,-1.82 L -4.26,-1.82 Z"></path></g><g transform="translate(1126.9999389648438 56) rotate(0 8 25.5)" stroke="none"><path fill="#1e1e1e" d="M 3.42,-3.04 Q 3.42,-3.04 5.67,-0.41 7.92,2.21 9.53,3.79 11.14,5.37 12.74,7.90 14.34,10.42 16.37,13.47 18.40,16.51 19.26,19.76 20.12,23.01 16.52,31.53 12.92,40.04 11.12,43.46 9.32,46.87 7.94,49.52 6.56,52.16 6.09,52.73 5.63,53.30 5.01,53.69 4.39,54.09 3.68,54.26 2.96,54.43 2.23,54.37 1.50,54.31 0.83,54.02 0.15,53.72 -0.38,53.23 -0.92,52.74 -1.28,52.10 -1.64,51.46 -1.78,50.74 -1.91,50.01 -1.81,49.29 -1.71,48.56 -1.38,47.90 -1.05,47.25 -0.53,46.73 -0.01,46.21 0.64,45.89 1.30,45.57 2.03,45.47 2.76,45.37 3.48,45.51 4.20,45.66 4.83,46.02 5.47,46.38 5.96,46.93 6.45,47.48 6.74,48.16 7.02,48.83 7.08,49.56 7.14,50.30 6.96,51.01 6.78,51.72 6.38,52.34 5.98,52.95 5.41,53.41 4.83,53.87 4.14,54.12 3.45,54.37 2.72,54.39 1.98,54.40 1.28,54.18 0.58,53.97 -0.00,53.54 -0.60,53.10 -1.02,52.51 -1.45,51.91 -1.66,51.21 -1.87,50.50 -1.85,49.77 -1.83,49.03 -1.57,48.35 -1.32,47.66 -1.32,47.66 -1.32,47.66 0.10,45.38 1.53,43.10 3.02,39.73 4.51,36.37 7.29,30.29 10.07,24.21 9.10,21.60 8.13,19.00 6.20,15.33 4.26,11.67 2.77,9.90 1.27,8.13 -1.07,5.58 -3.42,3.04 -3.73,2.59 -4.05,2.13 -4.25,1.62 -4.44,1.10 -4.51,0.55 -4.58,0.00 -4.51,-0.54 -4.45,-1.08 -4.25,-1.60 -4.06,-2.12 -3.74,-2.57 -3.43,-3.03 -3.02,-3.40 -2.60,-3.76 -2.12,-4.02 -1.63,-4.28 -1.09,-4.41 -0.55,-4.54 -0.00,-4.54 0.54,-4.55 1.08,-4.41 1.61,-4.28 2.10,-4.03 2.59,-3.77 3.01,-3.41 3.42,-3.04 3.42,-3.04 L 3.42,-3.04 Z"></path></g><g transform="translate(1151.9999389648438 14) rotate(0 14 70.5)" stroke="none"><path fill="#1e1e1e" d="M -1.13,-5.10 Q -1.13,-5.10 1.45,-5.67 4.04,-6.25 6.89,-6.56 9.73,-6.87 12.56,-7.57 15.39,-8.27 18.57,-8.97 21.76,-9.67 25.39,-8.43 29.02,-7.19 29.95,-5.15 30.87,-3.11 31.50,-0.22 32.13,2.65 32.20,4.83 32.28,7.01 32.74,10.07 33.20,13.14 33.17,16.02 33.14,18.90 33.22,22.15 33.30,25.39 33.40,28.12 33.50,30.84 33.80,36.69 34.10,42.53 34.16,45.24 34.21,47.94 33.67,52.16 33.14,56.39 33.05,59.18 32.96,61.97 32.67,65.98 32.39,70.00 32.43,72.88 32.46,75.76 32.33,79.56 32.20,83.37 32.24,86.42 32.28,89.48 32.22,93.08 32.16,96.68 32.28,99.07 32.40,101.46 32.70,104.28 33.01,107.10 33.23,109.62 33.45,112.15 34.06,114.51 34.66,116.87 35.49,119.71 36.32,122.55 36.89,124.71 37.46,126.86 38.14,129.20 38.83,131.53 39.70,134.12 40.56,136.71 37.17,136.43 33.78,136.15 33.45,138.63 33.12,141.12 32.21,143.25 31.29,145.38 27.73,146.02 24.16,146.66 21.50,147.09 18.84,147.52 16.34,147.73 13.83,147.94 9.44,148.63 5.06,149.33 2.82,149.55 0.58,149.76 -1.53,150.08 -3.64,150.40 -6.02,150.68 -8.41,150.97 -9.39,150.91 -10.38,150.85 -11.29,150.47 -12.21,150.10 -12.96,149.46 -13.70,148.81 -14.20,147.96 -14.71,147.11 -14.91,146.14 -15.12,145.18 -15.00,144.20 -14.89,143.22 -14.46,142.32 -14.04,141.43 -13.36,140.72 -12.67,140.01 -11.80,139.55 -10.92,139.10 -9.94,138.94 -8.97,138.79 -7.99,138.96 -7.02,139.13 -6.15,139.60 -5.28,140.07 -4.61,140.79 -3.94,141.51 -3.53,142.41 -3.12,143.31 -3.02,144.29 -2.93,145.28 -3.15,146.24 -3.37,147.20 -3.88,148.04 -4.40,148.89 -5.16,149.52 -5.91,150.15 -6.83,150.51 -7.76,150.87 -8.74,150.91 -9.73,150.96 -10.68,150.69 -11.63,150.42 -12.44,149.85 -13.25,149.29 -13.84,148.50 -14.44,147.71 -14.74,146.77 -15.05,145.83 -15.04,144.85 -15.03,143.86 -14.71,142.93 -14.39,141.99 -13.78,141.21 -13.18,140.43 -12.36,139.88 -11.53,139.34 -10.58,139.08 -9.63,138.82 -9.63,138.82 -9.63,138.82 -7.58,138.66 -5.54,138.50 -1.19,137.92 3.14,137.34 5.76,136.82 8.38,136.30 12.44,135.69 16.50,135.08 20.86,134.08 25.23,133.08 28.25,132.65 31.26,132.22 34.53,132.01 37.79,131.80 40.23,133.96 42.67,136.12 43.07,139.12 43.46,142.12 41.21,143.64 38.97,145.17 33.98,142.59 29.00,140.01 28.58,137.89 28.15,135.77 27.75,133.50 27.35,131.23 26.92,128.39 26.49,125.54 25.98,122.25 25.48,118.96 24.83,115.80 24.18,112.64 24.16,110.29 24.13,107.94 23.86,104.70 23.59,101.46 23.71,99.07 23.84,96.67 23.78,93.07 23.72,89.47 23.77,86.41 23.82,83.35 23.70,79.52 23.59,75.70 23.66,72.80 23.74,69.90 23.55,65.75 23.36,61.59 23.49,58.68 23.63,55.77 23.61,51.98 23.59,48.19 23.53,45.58 23.46,42.97 23.14,39.74 22.83,36.51 22.46,33.97 22.10,31.43 21.93,28.93 21.77,26.43 21.23,22.80 20.68,19.17 20.47,15.44 20.25,11.71 19.86,7.98 19.47,4.24 19.11,1.66 18.75,-0.91 20.69,0.51 22.63,1.95 19.73,2.36 16.82,2.76 13.79,3.18 10.76,3.59 8.53,3.77 6.30,3.95 3.71,4.52 1.13,5.10 0.50,5.16 -0.12,5.22 -0.74,5.13 -1.36,5.04 -1.95,4.80 -2.53,4.56 -3.04,4.19 -3.55,3.82 -3.96,3.34 -4.36,2.86 -4.64,2.30 -4.92,1.73 -5.06,1.12 -5.19,0.51 -5.18,-0.11 -5.17,-0.74 -5.00,-1.35 -4.84,-1.96 -4.53,-2.51 -4.23,-3.06 -3.80,-3.52 -3.37,-3.98 -2.84,-4.33 -2.32,-4.68 -1.72,-4.89 -1.13,-5.10 -1.13,-5.10 L -1.13,-5.10 Z"></path></g></svg>